%TF.GenerationSoftware,KiCad,Pcbnew,9.0.0*%
%TF.CreationDate,2025-04-18T20:07:31-05:00*%
%TF.ProjectId,RML,524d4c2e-6b69-4636-9164-5f7063625858,rev?*%
%TF.SameCoordinates,PX3473bc0PY2160ec0*%
%TF.FileFunction,Copper,L4,Bot*%
%TF.FilePolarity,Positive*%
%FSLAX46Y46*%
G04 Gerber Fmt 4.6, Leading zero omitted, Abs format (unit mm)*
G04 Created by KiCad (PCBNEW 9.0.0) date 2025-04-18 20:07:31*
%MOMM*%
%LPD*%
G01*
G04 APERTURE LIST*
%TA.AperFunction,ComponentPad*%
%ADD10R,1.905000X2.000000*%
%TD*%
%TA.AperFunction,ComponentPad*%
%ADD11O,1.905000X2.000000*%
%TD*%
%TA.AperFunction,ComponentPad*%
%ADD12R,1.600000X1.600000*%
%TD*%
%TA.AperFunction,ComponentPad*%
%ADD13O,1.600000X1.600000*%
%TD*%
%TA.AperFunction,ComponentPad*%
%ADD14C,2.286000*%
%TD*%
%TA.AperFunction,ViaPad*%
%ADD15C,0.800000*%
%TD*%
%TA.AperFunction,ViaPad*%
%ADD16C,0.700000*%
%TD*%
%TA.AperFunction,Conductor*%
%ADD17C,0.500000*%
%TD*%
G04 APERTURE END LIST*
D10*
%TO.P,Q102,1,G*%
%TO.N,/DRIVE*%
X58960000Y-26745000D03*
D11*
%TO.P,Q102,2,D*%
%TO.N,Net-(Q102-D)*%
X61500000Y-26745000D03*
%TO.P,Q102,3,S*%
%TO.N,GND*%
X64040000Y-26745000D03*
%TD*%
D12*
%TO.P,U103,1*%
%TO.N,12.5 mA*%
X26878000Y-21795000D03*
D13*
%TO.P,U103,2*%
%TO.N,GNDPWR*%
X26878000Y-24335000D03*
%TO.P,U103,3*%
%TO.N,GND*%
X34498000Y-24335000D03*
%TO.P,U103,4*%
%TO.N,Net-(R109-Pad2)*%
X34498000Y-21795000D03*
%TD*%
D14*
%TO.P,U101,1,1*%
%TO.N,352.8V*%
X13714000Y-34000000D03*
%TO.P,U101,2,2*%
%TO.N,GNDPWR*%
X20064000Y-34000000D03*
%TO.P,U101,3*%
%TO.N,N/C*%
X9269000Y-34000000D03*
%TD*%
%TO.P,U106,1,1*%
%TO.N,+12V*%
X41714000Y-7000000D03*
%TO.P,U106,2,2*%
%TO.N,GND*%
X48064000Y-7000000D03*
%TO.P,U106,3*%
%TO.N,N/C*%
X37269000Y-7000000D03*
%TD*%
D10*
%TO.P,U107,1,VI*%
%TO.N,+12V*%
X36420000Y-16611000D03*
D11*
%TO.P,U107,2,GND*%
%TO.N,GND*%
X38960000Y-16611000D03*
%TO.P,U107,3,VO*%
%TO.N,+5V*%
X41500000Y-16611000D03*
%TD*%
D10*
%TO.P,Q101,1,G*%
%TO.N,/DRIVE*%
X58920000Y-36300000D03*
D11*
%TO.P,Q101,2,D*%
%TO.N,Net-(Q101-D)*%
X61460000Y-36300000D03*
%TO.P,Q101,3,S*%
%TO.N,GND*%
X64000000Y-36300000D03*
%TD*%
D14*
%TO.P,U105,1,1*%
%TO.N,Net-(Q101-D)*%
X75200000Y-33486000D03*
%TO.P,U105,2,2*%
%TO.N,Net-(Q102-D)*%
X75200000Y-27136000D03*
%TO.P,U105,3*%
%TO.N,N/C*%
X75200000Y-37931000D03*
%TD*%
D15*
%TO.N,GND*%
X57500000Y-17500000D03*
X57500000Y-20000000D03*
X37500000Y-40000000D03*
X77500000Y-12500000D03*
X57500000Y-42500000D03*
X57500000Y-12500000D03*
X52500000Y-40000000D03*
X67500000Y-45000000D03*
X70000000Y-10000000D03*
X67500000Y-42500000D03*
X45000000Y-32500000D03*
X57500000Y-45000000D03*
X52500000Y-33000000D03*
X67500000Y-30000000D03*
X55000000Y-45000000D03*
X60000000Y-20000000D03*
X55000000Y-12500000D03*
X70000000Y-30000000D03*
X57500000Y-40000000D03*
X67500000Y-5000000D03*
X55000000Y-40000000D03*
X70000000Y-37500000D03*
X62500000Y-47500000D03*
X67500000Y-10000000D03*
X52500000Y-45000000D03*
X75000000Y-45000000D03*
X45000000Y-15000000D03*
X70000000Y-42500000D03*
X37500000Y-42500000D03*
X72500000Y-20000000D03*
X40000000Y-40000000D03*
X70000000Y-20000000D03*
X82500000Y-22500000D03*
X72500000Y-7500000D03*
X75000000Y-12500000D03*
X42500000Y-32500000D03*
X55000000Y-15000000D03*
X55000000Y-42500000D03*
X82500000Y-37500000D03*
X70000000Y-45000000D03*
D16*
X37100000Y-23600000D03*
D15*
X60000000Y-10000000D03*
X60000000Y-15000000D03*
X70000000Y-12500000D03*
X70000000Y-25000000D03*
X35000000Y-32500000D03*
X70000000Y-5000000D03*
X55000000Y-30000000D03*
X40000000Y-45000000D03*
X65000000Y-45000000D03*
X47500000Y-45000000D03*
X75000000Y-10000000D03*
X80000000Y-22500000D03*
X57500000Y-7500000D03*
X35000000Y-45000000D03*
X75000000Y-2500000D03*
X42500000Y-42500000D03*
X55000000Y-47500000D03*
X70000000Y-35000000D03*
X65000000Y-20000000D03*
X67500000Y-47500000D03*
X67500000Y-7500000D03*
X67500000Y-2500000D03*
X45000000Y-42500000D03*
X42500000Y-27500000D03*
X55000000Y-5000000D03*
X62500000Y-10000000D03*
X57500000Y-15000000D03*
X72500000Y-15000000D03*
X65000000Y-40000000D03*
X72500000Y-2500000D03*
X67500000Y-20000000D03*
X47500000Y-15000000D03*
X50000000Y-45000000D03*
X35000000Y-42500000D03*
X47500000Y-33000000D03*
X37500000Y-37500000D03*
X47500000Y-40000000D03*
X82500000Y-15000000D03*
X37500000Y-47500000D03*
X45000000Y-27500000D03*
X55000000Y-10000000D03*
X67500000Y-17500000D03*
X47500000Y-12500000D03*
X60000000Y-5000000D03*
X82500000Y-12500000D03*
X60000000Y-40000000D03*
X55000000Y-32500000D03*
X57500000Y-5000000D03*
X65000000Y-7500000D03*
X47500000Y-35000000D03*
X47500000Y-42500000D03*
X77500000Y-15000000D03*
X82500000Y-40000000D03*
X65000000Y-5000000D03*
X77500000Y-20000000D03*
X67500000Y-25000000D03*
X50000000Y-47500000D03*
X80000000Y-10000000D03*
X62500000Y-7500000D03*
X70000000Y-27500000D03*
X72500000Y-45000000D03*
X75000000Y-15000000D03*
X70000000Y-2500000D03*
X67500000Y-40000000D03*
X50000000Y-40000000D03*
X72500000Y-17500000D03*
X37500000Y-30000000D03*
X80000000Y-12500000D03*
X37500000Y-35000000D03*
X42500000Y-40000000D03*
X47500000Y-47500000D03*
X67500000Y-27500000D03*
X62500000Y-20000000D03*
X40000000Y-47500000D03*
X75000000Y-47500000D03*
X57500000Y-2500000D03*
X60000000Y-42500000D03*
D16*
X50076000Y-17740860D03*
D15*
X60000000Y-12500000D03*
X65000000Y-12500000D03*
X35000000Y-35000000D03*
X62500000Y-2500000D03*
X42500000Y-45000000D03*
X72500000Y-47500000D03*
X45000000Y-30000000D03*
X40000000Y-37500000D03*
X50000000Y-42500000D03*
X35000000Y-30000000D03*
X77500000Y-17500000D03*
D16*
X47576000Y-31340860D03*
D15*
X75000000Y-17500000D03*
X62500000Y-12500000D03*
X75000000Y-20000000D03*
X60000000Y-47500000D03*
X57500000Y-10000000D03*
D16*
X51300000Y-20900000D03*
D15*
X45000000Y-12500000D03*
X52500000Y-35000000D03*
X67500000Y-15000000D03*
X82500000Y-10000000D03*
X50000000Y-15000000D03*
D16*
X43500000Y-18800000D03*
D15*
X42500000Y-47500000D03*
X80000000Y-15000000D03*
X50000000Y-12500000D03*
X62500000Y-42500000D03*
X52500000Y-15000000D03*
X55000000Y-35000000D03*
X80000000Y-17500000D03*
X70000000Y-15000000D03*
X45000000Y-45000000D03*
X80000000Y-37500000D03*
X62500000Y-40000000D03*
X62500000Y-17500000D03*
X67500000Y-35000000D03*
X60000000Y-2500000D03*
X57500000Y-47500000D03*
X72500000Y-12500000D03*
X82500000Y-20000000D03*
X65000000Y-2500000D03*
X42500000Y-30000000D03*
D16*
X34700000Y-18800000D03*
D15*
X67500000Y-12500000D03*
X52500000Y-42500000D03*
X65000000Y-17500000D03*
X62500000Y-5000000D03*
X50000000Y-35000000D03*
X55000000Y-2500000D03*
X60000000Y-17500000D03*
X55000000Y-7500000D03*
X65000000Y-42500000D03*
X80000000Y-40000000D03*
X62500000Y-15000000D03*
X70000000Y-47500000D03*
X75000000Y-7500000D03*
X35000000Y-40000000D03*
X50000000Y-33000000D03*
X52500000Y-12500000D03*
X67500000Y-37500000D03*
X45000000Y-47500000D03*
X52500000Y-47500000D03*
X37500000Y-45000000D03*
X75000000Y-42500000D03*
X35000000Y-47500000D03*
X40000000Y-42500000D03*
X80000000Y-20000000D03*
D16*
X38600000Y-27000000D03*
D15*
X65000000Y-15000000D03*
X82500000Y-17500000D03*
X65000000Y-47500000D03*
X37500000Y-32500000D03*
X77500000Y-10000000D03*
X72500000Y-10000000D03*
X60000000Y-45000000D03*
X72500000Y-5000000D03*
X60000000Y-7500000D03*
X75000000Y-5000000D03*
X72500000Y-42500000D03*
X35000000Y-37500000D03*
X70000000Y-17500000D03*
X45000000Y-40000000D03*
X62500000Y-45000000D03*
X70000000Y-7500000D03*
X65000000Y-10000000D03*
X77500000Y-22500000D03*
%TO.N,GNDPWR*%
X2500000Y-10000000D03*
X2500000Y-40000000D03*
X25000000Y-20000000D03*
X7500000Y-17500000D03*
X25000000Y-30000000D03*
X20000000Y-25000000D03*
X27500000Y-7500000D03*
X2500000Y-12500000D03*
X22500000Y-22500000D03*
X5000000Y-40000000D03*
X2500000Y-27500000D03*
X25000000Y-47500000D03*
X10000000Y-47500000D03*
X25000000Y-32500000D03*
X7500000Y-25000000D03*
X22506701Y-7503820D03*
X12500000Y-2500000D03*
X5000000Y-27500000D03*
X2500000Y-30000000D03*
X27500000Y-45000000D03*
X20000000Y-27500000D03*
X5000000Y-12500000D03*
X2500000Y-37500000D03*
X10000000Y-42500000D03*
X25000000Y-35000000D03*
X27500000Y-42500000D03*
X5000000Y-25000000D03*
X12500000Y-45000000D03*
X20000000Y-20000000D03*
X2500000Y-22500000D03*
X7500000Y-22500000D03*
X25000000Y-45000000D03*
X5000000Y-35000000D03*
X20006701Y-7503820D03*
X15000000Y-47500000D03*
X12500000Y-5000000D03*
X7500000Y-27500000D03*
X20000000Y-22500000D03*
X27500000Y-2500000D03*
X25000000Y-40000000D03*
X24993299Y-2496180D03*
X25000000Y-25000000D03*
X17500000Y-2500000D03*
X17500000Y-7500000D03*
X17500000Y-45000000D03*
X22500000Y-25000000D03*
X5000000Y-32500000D03*
X20000000Y-42500000D03*
X5000000Y-22500000D03*
X22500000Y-47500000D03*
X20000000Y-47500000D03*
X2500000Y-17500000D03*
X7500000Y-20000000D03*
X25000000Y-22500000D03*
X12500000Y-7500000D03*
X27500000Y-32500000D03*
X7500000Y-12500000D03*
X27500000Y-5000000D03*
X5000000Y-10000000D03*
X15000000Y-7500000D03*
X7500000Y-15000000D03*
X20000000Y-40000000D03*
X7500000Y-10000000D03*
X10000000Y-7500000D03*
X10000000Y-5000000D03*
X5000000Y-20000000D03*
X27500000Y-47500000D03*
X22500000Y-27500000D03*
X25000000Y-42500000D03*
X2500000Y-32500000D03*
X27500000Y-37500000D03*
X10000000Y-2500000D03*
X25000000Y-7500000D03*
X22500000Y-2500000D03*
X5000000Y-30000000D03*
X2500000Y-35000000D03*
X20000000Y-45000000D03*
X10000000Y-45000000D03*
X27500000Y-40000000D03*
X5000000Y-17500000D03*
X5000000Y-15000000D03*
X27500000Y-30000000D03*
X2500000Y-20000000D03*
X12500000Y-47500000D03*
X2500000Y-25000000D03*
X15000000Y-45000000D03*
X17500000Y-47500000D03*
X22500000Y-45000000D03*
X25000000Y-37500000D03*
X5000000Y-37500000D03*
X22500000Y-40000000D03*
X22500000Y-42500000D03*
X25000000Y-27500000D03*
X2500000Y-15000000D03*
X27500000Y-35000000D03*
X15000000Y-2500000D03*
X7500000Y-40000000D03*
X20000000Y-2500000D03*
X22500000Y-20000000D03*
X27500000Y-27500000D03*
X10000000Y-40000000D03*
%TD*%
D17*
%TO.N,+5V*%
X42354548Y-16611000D02*
X41500000Y-16611000D01*
%TD*%
%TA.AperFunction,Conductor*%
%TO.N,GND*%
G36*
X80002702Y-500617D02*
G01*
X80386771Y-517386D01*
X80397506Y-518326D01*
X80775971Y-568152D01*
X80786597Y-570025D01*
X81159284Y-652648D01*
X81169710Y-655442D01*
X81533765Y-770227D01*
X81543911Y-773920D01*
X81896578Y-920000D01*
X81906369Y-924566D01*
X82244942Y-1100816D01*
X82254310Y-1106224D01*
X82576244Y-1311318D01*
X82585105Y-1317523D01*
X82887930Y-1549889D01*
X82896217Y-1556843D01*
X83177635Y-1814715D01*
X83185284Y-1822364D01*
X83443156Y-2103782D01*
X83450110Y-2112069D01*
X83682476Y-2414894D01*
X83688681Y-2423755D01*
X83893775Y-2745689D01*
X83899183Y-2755057D01*
X84075430Y-3093623D01*
X84080002Y-3103427D01*
X84226075Y-3456078D01*
X84229775Y-3466244D01*
X84344554Y-3830278D01*
X84347354Y-3840727D01*
X84429971Y-4213389D01*
X84431849Y-4224042D01*
X84481671Y-4602473D01*
X84482614Y-4613249D01*
X84499382Y-4997297D01*
X84499500Y-5002706D01*
X84499500Y-44997293D01*
X84499382Y-45002702D01*
X84482614Y-45386750D01*
X84481671Y-45397526D01*
X84431849Y-45775957D01*
X84429971Y-45786610D01*
X84347354Y-46159272D01*
X84344554Y-46169721D01*
X84229775Y-46533755D01*
X84226075Y-46543921D01*
X84080002Y-46896572D01*
X84075430Y-46906376D01*
X83899183Y-47244942D01*
X83893775Y-47254310D01*
X83688681Y-47576244D01*
X83682476Y-47585105D01*
X83450110Y-47887930D01*
X83443156Y-47896217D01*
X83185284Y-48177635D01*
X83177635Y-48185284D01*
X82896217Y-48443156D01*
X82887930Y-48450110D01*
X82585105Y-48682476D01*
X82576244Y-48688681D01*
X82254310Y-48893775D01*
X82244942Y-48899183D01*
X81906376Y-49075430D01*
X81896572Y-49080002D01*
X81543921Y-49226075D01*
X81533755Y-49229775D01*
X81169721Y-49344554D01*
X81159272Y-49347354D01*
X80786610Y-49429971D01*
X80775957Y-49431849D01*
X80397526Y-49481671D01*
X80386750Y-49482614D01*
X80002703Y-49499382D01*
X79997294Y-49499500D01*
X32124000Y-49499500D01*
X32056961Y-49479815D01*
X32011206Y-49427011D01*
X32000000Y-49375500D01*
X32000000Y-44878711D01*
X78149500Y-44878711D01*
X78149500Y-45121288D01*
X78181161Y-45361785D01*
X78243947Y-45596104D01*
X78336773Y-45820205D01*
X78336776Y-45820212D01*
X78458064Y-46030289D01*
X78458066Y-46030292D01*
X78458067Y-46030293D01*
X78605733Y-46222736D01*
X78605739Y-46222743D01*
X78777256Y-46394260D01*
X78777262Y-46394265D01*
X78969711Y-46541936D01*
X79179788Y-46663224D01*
X79403900Y-46756054D01*
X79638211Y-46818838D01*
X79818586Y-46842584D01*
X79878711Y-46850500D01*
X79878712Y-46850500D01*
X80121289Y-46850500D01*
X80169388Y-46844167D01*
X80361789Y-46818838D01*
X80596100Y-46756054D01*
X80820212Y-46663224D01*
X81030289Y-46541936D01*
X81222738Y-46394265D01*
X81394265Y-46222738D01*
X81541936Y-46030289D01*
X81663224Y-45820212D01*
X81756054Y-45596100D01*
X81818838Y-45361789D01*
X81850500Y-45121288D01*
X81850500Y-44878712D01*
X81818838Y-44638211D01*
X81756054Y-44403900D01*
X81663224Y-44179788D01*
X81541936Y-43969711D01*
X81394265Y-43777262D01*
X81394260Y-43777256D01*
X81222743Y-43605739D01*
X81222736Y-43605733D01*
X81030293Y-43458067D01*
X81030292Y-43458066D01*
X81030289Y-43458064D01*
X80820212Y-43336776D01*
X80820205Y-43336773D01*
X80596104Y-43243947D01*
X80361785Y-43181161D01*
X80121289Y-43149500D01*
X80121288Y-43149500D01*
X79878712Y-43149500D01*
X79878711Y-43149500D01*
X79638214Y-43181161D01*
X79403895Y-43243947D01*
X79179794Y-43336773D01*
X79179785Y-43336777D01*
X78969706Y-43458067D01*
X78777263Y-43605733D01*
X78777256Y-43605739D01*
X78605739Y-43777256D01*
X78605733Y-43777263D01*
X78458067Y-43969706D01*
X78336777Y-44179785D01*
X78336773Y-44179794D01*
X78243947Y-44403895D01*
X78181161Y-44638214D01*
X78149500Y-44878711D01*
X32000000Y-44878711D01*
X32000000Y-37817388D01*
X73756500Y-37817388D01*
X73756500Y-38044611D01*
X73792042Y-38269020D01*
X73862257Y-38485116D01*
X73965408Y-38687559D01*
X74098960Y-38871377D01*
X74259623Y-39032040D01*
X74443441Y-39165592D01*
X74539088Y-39214326D01*
X74645883Y-39268742D01*
X74645885Y-39268742D01*
X74645888Y-39268744D01*
X74761717Y-39306379D01*
X74861979Y-39338957D01*
X75086389Y-39374500D01*
X75086394Y-39374500D01*
X75313611Y-39374500D01*
X75538020Y-39338957D01*
X75754112Y-39268744D01*
X75956559Y-39165592D01*
X76140377Y-39032040D01*
X76301040Y-38871377D01*
X76434592Y-38687559D01*
X76537744Y-38485112D01*
X76607957Y-38269020D01*
X76643500Y-38044611D01*
X76643500Y-37817388D01*
X76607957Y-37592979D01*
X76575379Y-37492717D01*
X76537744Y-37376888D01*
X76537742Y-37376885D01*
X76537742Y-37376883D01*
X76434591Y-37174440D01*
X76426843Y-37163776D01*
X76301040Y-36990623D01*
X76140377Y-36829960D01*
X75956559Y-36696408D01*
X75754116Y-36593257D01*
X75538020Y-36523042D01*
X75313611Y-36487500D01*
X75313606Y-36487500D01*
X75086394Y-36487500D01*
X75086389Y-36487500D01*
X74861979Y-36523042D01*
X74645883Y-36593257D01*
X74443440Y-36696408D01*
X74338565Y-36772604D01*
X74259623Y-36829960D01*
X74259621Y-36829962D01*
X74259620Y-36829962D01*
X74098962Y-36990620D01*
X74098962Y-36990621D01*
X74098960Y-36990623D01*
X74041604Y-37069565D01*
X73965408Y-37174440D01*
X73862257Y-37376883D01*
X73792042Y-37592979D01*
X73756500Y-37817388D01*
X32000000Y-37817388D01*
X32000000Y-35255131D01*
X57667000Y-35255131D01*
X57667000Y-37344856D01*
X57667002Y-37344882D01*
X57669913Y-37369987D01*
X57669915Y-37369991D01*
X57715293Y-37472764D01*
X57715294Y-37472765D01*
X57794735Y-37552206D01*
X57897509Y-37597585D01*
X57922635Y-37600500D01*
X59917364Y-37600499D01*
X59917379Y-37600497D01*
X59917382Y-37600497D01*
X59942487Y-37597586D01*
X59942488Y-37597585D01*
X59942491Y-37597585D01*
X60045265Y-37552206D01*
X60124706Y-37472765D01*
X60170085Y-37369991D01*
X60173000Y-37344865D01*
X60172999Y-37089457D01*
X60192683Y-37022421D01*
X60245487Y-36976666D01*
X60314646Y-36966722D01*
X60378201Y-36995747D01*
X60397317Y-37016574D01*
X60504265Y-37163775D01*
X60643725Y-37303235D01*
X60803285Y-37419162D01*
X60908485Y-37472764D01*
X60979017Y-37508702D01*
X61072801Y-37539174D01*
X61166588Y-37569647D01*
X61256807Y-37583936D01*
X61361382Y-37600500D01*
X61361387Y-37600500D01*
X61558618Y-37600500D01*
X61653052Y-37585542D01*
X61753412Y-37569647D01*
X61940985Y-37508701D01*
X62116715Y-37419162D01*
X62276275Y-37303235D01*
X62415735Y-37163775D01*
X62531662Y-37004215D01*
X62621201Y-36828485D01*
X62682147Y-36640912D01*
X62706445Y-36487500D01*
X62713000Y-36446118D01*
X62713000Y-36153881D01*
X62695050Y-36040559D01*
X62682147Y-35959088D01*
X62621201Y-35771515D01*
X62531662Y-35595785D01*
X62415735Y-35436225D01*
X62276275Y-35296765D01*
X62116715Y-35180838D01*
X61940982Y-35091297D01*
X61753413Y-35030353D01*
X61558618Y-34999500D01*
X61558613Y-34999500D01*
X61361387Y-34999500D01*
X61361382Y-34999500D01*
X61166586Y-35030353D01*
X60979017Y-35091297D01*
X60803284Y-35180838D01*
X60643722Y-35296767D01*
X60504267Y-35436222D01*
X60504267Y-35436223D01*
X60504265Y-35436225D01*
X60450272Y-35510540D01*
X60397317Y-35583426D01*
X60341987Y-35626091D01*
X60272373Y-35632070D01*
X60210578Y-35599464D01*
X60176221Y-35538625D01*
X60172999Y-35510540D01*
X60172999Y-35255143D01*
X60172999Y-35255136D01*
X60172997Y-35255117D01*
X60170086Y-35230012D01*
X60170085Y-35230010D01*
X60170085Y-35230009D01*
X60124706Y-35127235D01*
X60045265Y-35047794D01*
X60005765Y-35030353D01*
X59942492Y-35002415D01*
X59917365Y-34999500D01*
X57922643Y-34999500D01*
X57922617Y-34999502D01*
X57897512Y-35002413D01*
X57897508Y-35002415D01*
X57794735Y-35047793D01*
X57715294Y-35127234D01*
X57669915Y-35230006D01*
X57669915Y-35230008D01*
X57667000Y-35255131D01*
X32000000Y-35255131D01*
X32000000Y-33372388D01*
X73756500Y-33372388D01*
X73756500Y-33599611D01*
X73792042Y-33824020D01*
X73862257Y-34040116D01*
X73965408Y-34242559D01*
X74098960Y-34426377D01*
X74259623Y-34587040D01*
X74443441Y-34720592D01*
X74539088Y-34769326D01*
X74645883Y-34823742D01*
X74645885Y-34823742D01*
X74645888Y-34823744D01*
X74761717Y-34861379D01*
X74861979Y-34893957D01*
X75086389Y-34929500D01*
X75086394Y-34929500D01*
X75313611Y-34929500D01*
X75538020Y-34893957D01*
X75754112Y-34823744D01*
X75956559Y-34720592D01*
X76140377Y-34587040D01*
X76301040Y-34426377D01*
X76434592Y-34242559D01*
X76537744Y-34040112D01*
X76607957Y-33824020D01*
X76643500Y-33599611D01*
X76643500Y-33372388D01*
X76607957Y-33147979D01*
X76537742Y-32931883D01*
X76434591Y-32729440D01*
X76301040Y-32545623D01*
X76140377Y-32384960D01*
X75956559Y-32251408D01*
X75754116Y-32148257D01*
X75538020Y-32078042D01*
X75313611Y-32042500D01*
X75313606Y-32042500D01*
X75086394Y-32042500D01*
X75086389Y-32042500D01*
X74861979Y-32078042D01*
X74645883Y-32148257D01*
X74443440Y-32251408D01*
X74338565Y-32327604D01*
X74259623Y-32384960D01*
X74259621Y-32384962D01*
X74259620Y-32384962D01*
X74098962Y-32545620D01*
X74098962Y-32545621D01*
X74098960Y-32545623D01*
X74041604Y-32624565D01*
X73965408Y-32729440D01*
X73862257Y-32931883D01*
X73792042Y-33147979D01*
X73756500Y-33372388D01*
X32000000Y-33372388D01*
X32000000Y-25700131D01*
X57707000Y-25700131D01*
X57707000Y-27789856D01*
X57707002Y-27789882D01*
X57709913Y-27814987D01*
X57709915Y-27814991D01*
X57755293Y-27917764D01*
X57755294Y-27917765D01*
X57834735Y-27997206D01*
X57937509Y-28042585D01*
X57962635Y-28045500D01*
X59957364Y-28045499D01*
X59957379Y-28045497D01*
X59957382Y-28045497D01*
X59982487Y-28042586D01*
X59982488Y-28042585D01*
X59982491Y-28042585D01*
X60085265Y-27997206D01*
X60164706Y-27917765D01*
X60210085Y-27814991D01*
X60213000Y-27789865D01*
X60212999Y-27534457D01*
X60232683Y-27467421D01*
X60285487Y-27421666D01*
X60354646Y-27411722D01*
X60418201Y-27440747D01*
X60437317Y-27461574D01*
X60544265Y-27608775D01*
X60683725Y-27748235D01*
X60843285Y-27864162D01*
X60948485Y-27917764D01*
X61019017Y-27953702D01*
X61112801Y-27984174D01*
X61206588Y-28014647D01*
X61296807Y-28028936D01*
X61401382Y-28045500D01*
X61401387Y-28045500D01*
X61598618Y-28045500D01*
X61693052Y-28030542D01*
X61793412Y-28014647D01*
X61980985Y-27953701D01*
X62156715Y-27864162D01*
X62316275Y-27748235D01*
X62455735Y-27608775D01*
X62571662Y-27449215D01*
X62661201Y-27273485D01*
X62722147Y-27085912D01*
X62732208Y-27022388D01*
X73756500Y-27022388D01*
X73756500Y-27249611D01*
X73792042Y-27474020D01*
X73862257Y-27690116D01*
X73913084Y-27789868D01*
X73965408Y-27892559D01*
X74098960Y-28076377D01*
X74259623Y-28237040D01*
X74443441Y-28370592D01*
X74539088Y-28419326D01*
X74645883Y-28473742D01*
X74645885Y-28473742D01*
X74645888Y-28473744D01*
X74761717Y-28511379D01*
X74861979Y-28543957D01*
X75086389Y-28579500D01*
X75086394Y-28579500D01*
X75313611Y-28579500D01*
X75538020Y-28543957D01*
X75754112Y-28473744D01*
X75956559Y-28370592D01*
X76140377Y-28237040D01*
X76301040Y-28076377D01*
X76434592Y-27892559D01*
X76537744Y-27690112D01*
X76607957Y-27474020D01*
X76617824Y-27411722D01*
X76643500Y-27249611D01*
X76643500Y-27022388D01*
X76607957Y-26797979D01*
X76537742Y-26581883D01*
X76434591Y-26379440D01*
X76301040Y-26195623D01*
X76140377Y-26034960D01*
X75956559Y-25901408D01*
X75916942Y-25881222D01*
X75754116Y-25798257D01*
X75538020Y-25728042D01*
X75313611Y-25692500D01*
X75313606Y-25692500D01*
X75086394Y-25692500D01*
X75086389Y-25692500D01*
X74861979Y-25728042D01*
X74645883Y-25798257D01*
X74443440Y-25901408D01*
X74368935Y-25955540D01*
X74259623Y-26034960D01*
X74259621Y-26034962D01*
X74259620Y-26034962D01*
X74098962Y-26195620D01*
X74098962Y-26195621D01*
X74098960Y-26195623D01*
X74083781Y-26216515D01*
X73965408Y-26379440D01*
X73862257Y-26581883D01*
X73792042Y-26797979D01*
X73756500Y-27022388D01*
X62732208Y-27022388D01*
X62736052Y-26998123D01*
X62736052Y-26998122D01*
X62753000Y-26891118D01*
X62753000Y-26598881D01*
X62735050Y-26485559D01*
X62722147Y-26404088D01*
X62661201Y-26216515D01*
X62571662Y-26040785D01*
X62455735Y-25881225D01*
X62316275Y-25741765D01*
X62156715Y-25625838D01*
X61980982Y-25536297D01*
X61793413Y-25475353D01*
X61598618Y-25444500D01*
X61598613Y-25444500D01*
X61401387Y-25444500D01*
X61401382Y-25444500D01*
X61206586Y-25475353D01*
X61019017Y-25536297D01*
X60843284Y-25625838D01*
X60683722Y-25741767D01*
X60544267Y-25881222D01*
X60544267Y-25881223D01*
X60544265Y-25881225D01*
X60490272Y-25955540D01*
X60437317Y-26028426D01*
X60381987Y-26071091D01*
X60312373Y-26077070D01*
X60250578Y-26044464D01*
X60216221Y-25983625D01*
X60212999Y-25955540D01*
X60212999Y-25700143D01*
X60212999Y-25700136D01*
X60212997Y-25700117D01*
X60210086Y-25675012D01*
X60210085Y-25675010D01*
X60210085Y-25675009D01*
X60164706Y-25572235D01*
X60085265Y-25492794D01*
X60045765Y-25475353D01*
X59982492Y-25447415D01*
X59957365Y-25444500D01*
X57962643Y-25444500D01*
X57962617Y-25444502D01*
X57937512Y-25447413D01*
X57937508Y-25447415D01*
X57834735Y-25492793D01*
X57755294Y-25572234D01*
X57709915Y-25675006D01*
X57709915Y-25675008D01*
X57707000Y-25700131D01*
X32000000Y-25700131D01*
X32000000Y-21708389D01*
X33397500Y-21708389D01*
X33397500Y-21881611D01*
X33424598Y-22052701D01*
X33478127Y-22217445D01*
X33556768Y-22371788D01*
X33658586Y-22511928D01*
X33781072Y-22634414D01*
X33921212Y-22736232D01*
X34075555Y-22814873D01*
X34240299Y-22868402D01*
X34411389Y-22895500D01*
X34411390Y-22895500D01*
X34584610Y-22895500D01*
X34584611Y-22895500D01*
X34755701Y-22868402D01*
X34920445Y-22814873D01*
X35074788Y-22736232D01*
X35214928Y-22634414D01*
X35337414Y-22511928D01*
X35439232Y-22371788D01*
X35517873Y-22217445D01*
X35571402Y-22052701D01*
X35598500Y-21881611D01*
X35598500Y-21708389D01*
X35571402Y-21537299D01*
X35517873Y-21372555D01*
X35439232Y-21218212D01*
X35337414Y-21078072D01*
X35214928Y-20955586D01*
X35074788Y-20853768D01*
X34920445Y-20775127D01*
X34755701Y-20721598D01*
X34755699Y-20721597D01*
X34755698Y-20721597D01*
X34624271Y-20700781D01*
X34584611Y-20694500D01*
X34411389Y-20694500D01*
X34371728Y-20700781D01*
X34240302Y-20721597D01*
X34075552Y-20775128D01*
X33921211Y-20853768D01*
X33841256Y-20911859D01*
X33781072Y-20955586D01*
X33781070Y-20955588D01*
X33781069Y-20955588D01*
X33658588Y-21078069D01*
X33658588Y-21078070D01*
X33658586Y-21078072D01*
X33614859Y-21138256D01*
X33556768Y-21218211D01*
X33478128Y-21372552D01*
X33424597Y-21537302D01*
X33397500Y-21708389D01*
X32000000Y-21708389D01*
X32000000Y-15566131D01*
X35167000Y-15566131D01*
X35167000Y-17655856D01*
X35167002Y-17655882D01*
X35169913Y-17680987D01*
X35169915Y-17680991D01*
X35215293Y-17783764D01*
X35215294Y-17783765D01*
X35294735Y-17863206D01*
X35397509Y-17908585D01*
X35422635Y-17911500D01*
X37417364Y-17911499D01*
X37417379Y-17911497D01*
X37417382Y-17911497D01*
X37442487Y-17908586D01*
X37442488Y-17908585D01*
X37442491Y-17908585D01*
X37545265Y-17863206D01*
X37624706Y-17783765D01*
X37670085Y-17680991D01*
X37673000Y-17655865D01*
X37672999Y-16464881D01*
X40247000Y-16464881D01*
X40247000Y-16757118D01*
X40277853Y-16951913D01*
X40338797Y-17139482D01*
X40338799Y-17139485D01*
X40428338Y-17315215D01*
X40544265Y-17474775D01*
X40683725Y-17614235D01*
X40843285Y-17730162D01*
X40948485Y-17783764D01*
X41019017Y-17819702D01*
X41112801Y-17850174D01*
X41206588Y-17880647D01*
X41296807Y-17894936D01*
X41401382Y-17911500D01*
X41401387Y-17911500D01*
X41598618Y-17911500D01*
X41693052Y-17896542D01*
X41793412Y-17880647D01*
X41980985Y-17819701D01*
X42156715Y-17730162D01*
X42316275Y-17614235D01*
X42455735Y-17474775D01*
X42571662Y-17315215D01*
X42661201Y-17139485D01*
X42679249Y-17083936D01*
X42709494Y-17034577D01*
X42795057Y-16949015D01*
X42867532Y-16823485D01*
X42905048Y-16683475D01*
X42905048Y-16538525D01*
X42867532Y-16398515D01*
X42795057Y-16272985D01*
X42709499Y-16187427D01*
X42679249Y-16138064D01*
X42661201Y-16082515D01*
X42571662Y-15906785D01*
X42455735Y-15747225D01*
X42316275Y-15607765D01*
X42156715Y-15491838D01*
X41980982Y-15402297D01*
X41793413Y-15341353D01*
X41598618Y-15310500D01*
X41598613Y-15310500D01*
X41401387Y-15310500D01*
X41401382Y-15310500D01*
X41206586Y-15341353D01*
X41019017Y-15402297D01*
X40843284Y-15491838D01*
X40683722Y-15607767D01*
X40544267Y-15747222D01*
X40428338Y-15906784D01*
X40338797Y-16082517D01*
X40277853Y-16270086D01*
X40247000Y-16464881D01*
X37672999Y-16464881D01*
X37672999Y-15566136D01*
X37672997Y-15566117D01*
X37670086Y-15541012D01*
X37670085Y-15541010D01*
X37670085Y-15541009D01*
X37624706Y-15438235D01*
X37545265Y-15358794D01*
X37505765Y-15341353D01*
X37442492Y-15313415D01*
X37417365Y-15310500D01*
X35422643Y-15310500D01*
X35422617Y-15310502D01*
X35397512Y-15313413D01*
X35397508Y-15313415D01*
X35294735Y-15358793D01*
X35215294Y-15438234D01*
X35169915Y-15541006D01*
X35169915Y-15541008D01*
X35167000Y-15566131D01*
X32000000Y-15566131D01*
X32000000Y-6886388D01*
X35825500Y-6886388D01*
X35825500Y-7113611D01*
X35861042Y-7338020D01*
X35931257Y-7554116D01*
X36034408Y-7756559D01*
X36167960Y-7940377D01*
X36328623Y-8101040D01*
X36512441Y-8234592D01*
X36608088Y-8283326D01*
X36714883Y-8337742D01*
X36714885Y-8337742D01*
X36714888Y-8337744D01*
X36830717Y-8375379D01*
X36930979Y-8407957D01*
X37155389Y-8443500D01*
X37155394Y-8443500D01*
X37382611Y-8443500D01*
X37607020Y-8407957D01*
X37823112Y-8337744D01*
X38025559Y-8234592D01*
X38209377Y-8101040D01*
X38370040Y-7940377D01*
X38503592Y-7756559D01*
X38606744Y-7554112D01*
X38676957Y-7338020D01*
X38712500Y-7113611D01*
X38712500Y-6886388D01*
X40270500Y-6886388D01*
X40270500Y-7113611D01*
X40306042Y-7338020D01*
X40376257Y-7554116D01*
X40479408Y-7756559D01*
X40612960Y-7940377D01*
X40773623Y-8101040D01*
X40957441Y-8234592D01*
X41053088Y-8283326D01*
X41159883Y-8337742D01*
X41159885Y-8337742D01*
X41159888Y-8337744D01*
X41275717Y-8375379D01*
X41375979Y-8407957D01*
X41600389Y-8443500D01*
X41600394Y-8443500D01*
X41827611Y-8443500D01*
X42052020Y-8407957D01*
X42268112Y-8337744D01*
X42470559Y-8234592D01*
X42654377Y-8101040D01*
X42815040Y-7940377D01*
X42948592Y-7756559D01*
X43051744Y-7554112D01*
X43121957Y-7338020D01*
X43157500Y-7113611D01*
X43157500Y-6886388D01*
X43121957Y-6661979D01*
X43051742Y-6445883D01*
X42948591Y-6243440D01*
X42933550Y-6222738D01*
X42815040Y-6059623D01*
X42654377Y-5898960D01*
X42470559Y-5765408D01*
X42268116Y-5662257D01*
X42052020Y-5592042D01*
X41827611Y-5556500D01*
X41827606Y-5556500D01*
X41600394Y-5556500D01*
X41600389Y-5556500D01*
X41375979Y-5592042D01*
X41159883Y-5662257D01*
X40957440Y-5765408D01*
X40882010Y-5820212D01*
X40773623Y-5898960D01*
X40773621Y-5898962D01*
X40773620Y-5898962D01*
X40612962Y-6059620D01*
X40612962Y-6059621D01*
X40612960Y-6059623D01*
X40555604Y-6138565D01*
X40479408Y-6243440D01*
X40376257Y-6445883D01*
X40306042Y-6661979D01*
X40270500Y-6886388D01*
X38712500Y-6886388D01*
X38676957Y-6661979D01*
X38606742Y-6445883D01*
X38503591Y-6243440D01*
X38488550Y-6222738D01*
X38370040Y-6059623D01*
X38209377Y-5898960D01*
X38025559Y-5765408D01*
X37823116Y-5662257D01*
X37607020Y-5592042D01*
X37382611Y-5556500D01*
X37382606Y-5556500D01*
X37155394Y-5556500D01*
X37155389Y-5556500D01*
X36930979Y-5592042D01*
X36714883Y-5662257D01*
X36512440Y-5765408D01*
X36437010Y-5820212D01*
X36328623Y-5898960D01*
X36328621Y-5898962D01*
X36328620Y-5898962D01*
X36167962Y-6059620D01*
X36167962Y-6059621D01*
X36167960Y-6059623D01*
X36110604Y-6138565D01*
X36034408Y-6243440D01*
X35931257Y-6445883D01*
X35861042Y-6661979D01*
X35825500Y-6886388D01*
X32000000Y-6886388D01*
X32000000Y-4878711D01*
X78149500Y-4878711D01*
X78149500Y-5121288D01*
X78181161Y-5361785D01*
X78243947Y-5596104D01*
X78271349Y-5662257D01*
X78336776Y-5820212D01*
X78458064Y-6030289D01*
X78458066Y-6030292D01*
X78458067Y-6030293D01*
X78605733Y-6222736D01*
X78605739Y-6222743D01*
X78777256Y-6394260D01*
X78777263Y-6394266D01*
X78890321Y-6481018D01*
X78969711Y-6541936D01*
X79179788Y-6663224D01*
X79403900Y-6756054D01*
X79638211Y-6818838D01*
X79818586Y-6842584D01*
X79878711Y-6850500D01*
X79878712Y-6850500D01*
X80121289Y-6850500D01*
X80169388Y-6844167D01*
X80361789Y-6818838D01*
X80596100Y-6756054D01*
X80820212Y-6663224D01*
X81030289Y-6541936D01*
X81222738Y-6394265D01*
X81394265Y-6222738D01*
X81541936Y-6030289D01*
X81663224Y-5820212D01*
X81756054Y-5596100D01*
X81818838Y-5361789D01*
X81850500Y-5121288D01*
X81850500Y-4878712D01*
X81818838Y-4638211D01*
X81756054Y-4403900D01*
X81663224Y-4179788D01*
X81541936Y-3969711D01*
X81394265Y-3777262D01*
X81394260Y-3777256D01*
X81222743Y-3605739D01*
X81222736Y-3605733D01*
X81030293Y-3458067D01*
X81030292Y-3458066D01*
X81030289Y-3458064D01*
X80820212Y-3336776D01*
X80820205Y-3336773D01*
X80596104Y-3243947D01*
X80361785Y-3181161D01*
X80121289Y-3149500D01*
X80121288Y-3149500D01*
X79878712Y-3149500D01*
X79878711Y-3149500D01*
X79638214Y-3181161D01*
X79403895Y-3243947D01*
X79179794Y-3336773D01*
X79179785Y-3336777D01*
X78969706Y-3458067D01*
X78777263Y-3605733D01*
X78777256Y-3605739D01*
X78605739Y-3777256D01*
X78605733Y-3777263D01*
X78458067Y-3969706D01*
X78336777Y-4179785D01*
X78336773Y-4179794D01*
X78243947Y-4403895D01*
X78181161Y-4638214D01*
X78149500Y-4878711D01*
X32000000Y-4878711D01*
X32000000Y-624500D01*
X32019685Y-557461D01*
X32072489Y-511706D01*
X32124000Y-500500D01*
X79934108Y-500500D01*
X79997294Y-500500D01*
X80002702Y-500617D01*
G37*
%TD.AperFunction*%
%TD*%
%TA.AperFunction,Conductor*%
%TO.N,GNDPWR*%
G36*
X28943039Y-520185D02*
G01*
X28988794Y-572989D01*
X29000000Y-624500D01*
X29000000Y-49375500D01*
X28980315Y-49442539D01*
X28927511Y-49488294D01*
X28876000Y-49499500D01*
X5002706Y-49499500D01*
X4997297Y-49499382D01*
X4613249Y-49482614D01*
X4602473Y-49481671D01*
X4224042Y-49431849D01*
X4213389Y-49429971D01*
X3840727Y-49347354D01*
X3830278Y-49344554D01*
X3466244Y-49229775D01*
X3456078Y-49226075D01*
X3103427Y-49080002D01*
X3093623Y-49075430D01*
X2755057Y-48899183D01*
X2745689Y-48893775D01*
X2423755Y-48688681D01*
X2414894Y-48682476D01*
X2112069Y-48450110D01*
X2103782Y-48443156D01*
X1822364Y-48185284D01*
X1814715Y-48177635D01*
X1556843Y-47896217D01*
X1549889Y-47887930D01*
X1317523Y-47585105D01*
X1311318Y-47576244D01*
X1106224Y-47254310D01*
X1100816Y-47244942D01*
X924569Y-46906376D01*
X919997Y-46896572D01*
X773920Y-46543911D01*
X770224Y-46533755D01*
X655442Y-46169710D01*
X652648Y-46159284D01*
X570025Y-45786597D01*
X568152Y-45775971D01*
X518326Y-45397506D01*
X517386Y-45386771D01*
X500618Y-45002702D01*
X500500Y-44997293D01*
X500500Y-44878711D01*
X3149500Y-44878711D01*
X3149500Y-45121288D01*
X3181161Y-45361785D01*
X3243947Y-45596104D01*
X3336773Y-45820205D01*
X3336776Y-45820212D01*
X3458064Y-46030289D01*
X3458066Y-46030292D01*
X3458067Y-46030293D01*
X3605733Y-46222736D01*
X3605739Y-46222743D01*
X3777256Y-46394260D01*
X3777262Y-46394265D01*
X3969711Y-46541936D01*
X4179788Y-46663224D01*
X4403900Y-46756054D01*
X4638211Y-46818838D01*
X4818586Y-46842584D01*
X4878711Y-46850500D01*
X4878712Y-46850500D01*
X5121289Y-46850500D01*
X5169388Y-46844167D01*
X5361789Y-46818838D01*
X5596100Y-46756054D01*
X5820212Y-46663224D01*
X6030289Y-46541936D01*
X6222738Y-46394265D01*
X6394265Y-46222738D01*
X6541936Y-46030289D01*
X6663224Y-45820212D01*
X6756054Y-45596100D01*
X6818838Y-45361789D01*
X6850500Y-45121288D01*
X6850500Y-44878712D01*
X6818838Y-44638211D01*
X6756054Y-44403900D01*
X6663224Y-44179788D01*
X6541936Y-43969711D01*
X6394265Y-43777262D01*
X6394260Y-43777256D01*
X6222743Y-43605739D01*
X6222736Y-43605733D01*
X6030293Y-43458067D01*
X6030292Y-43458066D01*
X6030289Y-43458064D01*
X5820212Y-43336776D01*
X5820205Y-43336773D01*
X5596104Y-43243947D01*
X5361785Y-43181161D01*
X5121289Y-43149500D01*
X5121288Y-43149500D01*
X4878712Y-43149500D01*
X4878711Y-43149500D01*
X4638214Y-43181161D01*
X4403895Y-43243947D01*
X4179794Y-43336773D01*
X4179785Y-43336777D01*
X3969706Y-43458067D01*
X3777263Y-43605733D01*
X3777256Y-43605739D01*
X3605739Y-43777256D01*
X3605733Y-43777263D01*
X3458067Y-43969706D01*
X3336777Y-44179785D01*
X3336773Y-44179794D01*
X3243947Y-44403895D01*
X3181161Y-44638214D01*
X3149500Y-44878711D01*
X500500Y-44878711D01*
X500500Y-33886388D01*
X7825500Y-33886388D01*
X7825500Y-34113611D01*
X7861042Y-34338020D01*
X7931257Y-34554116D01*
X8034408Y-34756559D01*
X8167960Y-34940377D01*
X8328623Y-35101040D01*
X8512441Y-35234592D01*
X8608088Y-35283326D01*
X8714883Y-35337742D01*
X8714885Y-35337742D01*
X8714888Y-35337744D01*
X8830717Y-35375379D01*
X8930979Y-35407957D01*
X9155389Y-35443500D01*
X9155394Y-35443500D01*
X9382611Y-35443500D01*
X9607020Y-35407957D01*
X9823112Y-35337744D01*
X10025559Y-35234592D01*
X10209377Y-35101040D01*
X10370040Y-34940377D01*
X10503592Y-34756559D01*
X10606744Y-34554112D01*
X10676957Y-34338020D01*
X10712500Y-34113611D01*
X10712500Y-33886388D01*
X12270500Y-33886388D01*
X12270500Y-34113611D01*
X12306042Y-34338020D01*
X12376257Y-34554116D01*
X12479408Y-34756559D01*
X12612960Y-34940377D01*
X12773623Y-35101040D01*
X12957441Y-35234592D01*
X13053088Y-35283326D01*
X13159883Y-35337742D01*
X13159885Y-35337742D01*
X13159888Y-35337744D01*
X13275717Y-35375379D01*
X13375979Y-35407957D01*
X13600389Y-35443500D01*
X13600394Y-35443500D01*
X13827611Y-35443500D01*
X14052020Y-35407957D01*
X14268112Y-35337744D01*
X14470559Y-35234592D01*
X14654377Y-35101040D01*
X14815040Y-34940377D01*
X14948592Y-34756559D01*
X15051744Y-34554112D01*
X15121957Y-34338020D01*
X15157500Y-34113611D01*
X15157500Y-33886388D01*
X15121957Y-33661979D01*
X15051742Y-33445883D01*
X14948591Y-33243440D01*
X14815040Y-33059623D01*
X14654377Y-32898960D01*
X14470559Y-32765408D01*
X14268116Y-32662257D01*
X14052020Y-32592042D01*
X13827611Y-32556500D01*
X13827606Y-32556500D01*
X13600394Y-32556500D01*
X13600389Y-32556500D01*
X13375979Y-32592042D01*
X13159883Y-32662257D01*
X12957440Y-32765408D01*
X12852565Y-32841604D01*
X12773623Y-32898960D01*
X12773621Y-32898962D01*
X12773620Y-32898962D01*
X12612962Y-33059620D01*
X12612962Y-33059621D01*
X12612960Y-33059623D01*
X12555604Y-33138565D01*
X12479408Y-33243440D01*
X12376257Y-33445883D01*
X12306042Y-33661979D01*
X12270500Y-33886388D01*
X10712500Y-33886388D01*
X10676957Y-33661979D01*
X10606742Y-33445883D01*
X10503591Y-33243440D01*
X10370040Y-33059623D01*
X10209377Y-32898960D01*
X10025559Y-32765408D01*
X9823116Y-32662257D01*
X9607020Y-32592042D01*
X9382611Y-32556500D01*
X9382606Y-32556500D01*
X9155394Y-32556500D01*
X9155389Y-32556500D01*
X8930979Y-32592042D01*
X8714883Y-32662257D01*
X8512440Y-32765408D01*
X8407565Y-32841604D01*
X8328623Y-32898960D01*
X8328621Y-32898962D01*
X8328620Y-32898962D01*
X8167962Y-33059620D01*
X8167962Y-33059621D01*
X8167960Y-33059623D01*
X8110604Y-33138565D01*
X8034408Y-33243440D01*
X7931257Y-33445883D01*
X7861042Y-33661979D01*
X7825500Y-33886388D01*
X500500Y-33886388D01*
X500500Y-20950131D01*
X25777500Y-20950131D01*
X25777500Y-22639856D01*
X25777502Y-22639882D01*
X25780413Y-22664987D01*
X25780415Y-22664991D01*
X25825793Y-22767764D01*
X25825794Y-22767765D01*
X25905235Y-22847206D01*
X26008009Y-22892585D01*
X26033135Y-22895500D01*
X27722864Y-22895499D01*
X27722879Y-22895497D01*
X27722882Y-22895497D01*
X27747987Y-22892586D01*
X27747988Y-22892585D01*
X27747991Y-22892585D01*
X27850765Y-22847206D01*
X27930206Y-22767765D01*
X27975585Y-22664991D01*
X27978500Y-22639865D01*
X27978499Y-20950136D01*
X27978497Y-20950117D01*
X27975586Y-20925012D01*
X27975585Y-20925010D01*
X27975585Y-20925009D01*
X27930206Y-20822235D01*
X27850765Y-20742794D01*
X27850763Y-20742793D01*
X27747992Y-20697415D01*
X27722865Y-20694500D01*
X26033143Y-20694500D01*
X26033117Y-20694502D01*
X26008012Y-20697413D01*
X26008008Y-20697415D01*
X25905235Y-20742793D01*
X25825794Y-20822234D01*
X25780415Y-20925006D01*
X25780415Y-20925008D01*
X25777500Y-20950131D01*
X500500Y-20950131D01*
X500500Y-5002706D01*
X500618Y-4997297D01*
X505796Y-4878711D01*
X3149500Y-4878711D01*
X3149500Y-5121288D01*
X3181161Y-5361785D01*
X3243947Y-5596104D01*
X3336773Y-5820205D01*
X3336776Y-5820212D01*
X3458064Y-6030289D01*
X3458066Y-6030292D01*
X3458067Y-6030293D01*
X3605733Y-6222736D01*
X3605739Y-6222743D01*
X3777256Y-6394260D01*
X3777262Y-6394265D01*
X3969711Y-6541936D01*
X4179788Y-6663224D01*
X4403900Y-6756054D01*
X4638211Y-6818838D01*
X4818586Y-6842584D01*
X4878711Y-6850500D01*
X4878712Y-6850500D01*
X5121289Y-6850500D01*
X5169388Y-6844167D01*
X5361789Y-6818838D01*
X5596100Y-6756054D01*
X5820212Y-6663224D01*
X6030289Y-6541936D01*
X6222738Y-6394265D01*
X6394265Y-6222738D01*
X6541936Y-6030289D01*
X6663224Y-5820212D01*
X6756054Y-5596100D01*
X6818838Y-5361789D01*
X6850500Y-5121288D01*
X6850500Y-4878712D01*
X6849253Y-4869243D01*
X6818838Y-4638214D01*
X6818838Y-4638211D01*
X6756054Y-4403900D01*
X6663224Y-4179788D01*
X6541936Y-3969711D01*
X6394265Y-3777262D01*
X6394260Y-3777256D01*
X6222743Y-3605739D01*
X6222736Y-3605733D01*
X6030293Y-3458067D01*
X6030292Y-3458066D01*
X6030289Y-3458064D01*
X5820212Y-3336776D01*
X5820205Y-3336773D01*
X5596104Y-3243947D01*
X5361785Y-3181161D01*
X5121289Y-3149500D01*
X5121288Y-3149500D01*
X4878712Y-3149500D01*
X4878711Y-3149500D01*
X4638214Y-3181161D01*
X4403895Y-3243947D01*
X4179794Y-3336773D01*
X4179785Y-3336777D01*
X3969706Y-3458067D01*
X3777263Y-3605733D01*
X3777256Y-3605739D01*
X3605739Y-3777256D01*
X3605733Y-3777263D01*
X3458067Y-3969706D01*
X3336777Y-4179785D01*
X3336773Y-4179794D01*
X3243947Y-4403895D01*
X3181161Y-4638214D01*
X3149500Y-4878711D01*
X505796Y-4878711D01*
X506209Y-4869244D01*
X506209Y-4869243D01*
X510433Y-4772498D01*
X517386Y-4613228D01*
X518326Y-4602495D01*
X568152Y-4224025D01*
X570025Y-4213405D01*
X652649Y-3840709D01*
X655440Y-3830295D01*
X770230Y-3466227D01*
X773917Y-3456095D01*
X920003Y-3103412D01*
X924561Y-3093638D01*
X1100822Y-2755045D01*
X1106217Y-2745700D01*
X1311325Y-2423744D01*
X1317515Y-2414905D01*
X1549896Y-2112060D01*
X1556834Y-2103791D01*
X1814726Y-1822352D01*
X1822352Y-1814726D01*
X2103791Y-1556834D01*
X2112060Y-1549896D01*
X2414905Y-1317515D01*
X2423744Y-1311325D01*
X2745700Y-1106217D01*
X2755045Y-1100822D01*
X3093638Y-924561D01*
X3103412Y-920003D01*
X3456095Y-773917D01*
X3466227Y-770230D01*
X3830295Y-655440D01*
X3840709Y-652649D01*
X4213405Y-570025D01*
X4224025Y-568152D01*
X4602495Y-518326D01*
X4613226Y-517386D01*
X4997297Y-500617D01*
X5002706Y-500500D01*
X28876000Y-500500D01*
X28943039Y-520185D01*
G37*
%TD.AperFunction*%
%TD*%
M02*
