%TF.GenerationSoftware,KiCad,Pcbnew,9.0.0*%
%TF.CreationDate,2025-04-18T20:07:31-05:00*%
%TF.ProjectId,RML,524d4c2e-6b69-4636-9164-5f7063625858,rev?*%
%TF.SameCoordinates,PX3473bc0PY2160ec0*%
%TF.FileFunction,Copper,L2,Inr*%
%TF.FilePolarity,Positive*%
%FSLAX46Y46*%
G04 Gerber Fmt 4.6, Leading zero omitted, Abs format (unit mm)*
G04 Created by KiCad (PCBNEW 9.0.0) date 2025-04-18 20:07:31*
%MOMM*%
%LPD*%
G01*
G04 APERTURE LIST*
%TA.AperFunction,ComponentPad*%
%ADD10R,1.905000X2.000000*%
%TD*%
%TA.AperFunction,ComponentPad*%
%ADD11O,1.905000X2.000000*%
%TD*%
%TA.AperFunction,ComponentPad*%
%ADD12R,1.600000X1.600000*%
%TD*%
%TA.AperFunction,ComponentPad*%
%ADD13O,1.600000X1.600000*%
%TD*%
%TA.AperFunction,ComponentPad*%
%ADD14C,2.286000*%
%TD*%
%TA.AperFunction,ViaPad*%
%ADD15C,0.800000*%
%TD*%
%TA.AperFunction,ViaPad*%
%ADD16C,0.700000*%
%TD*%
G04 APERTURE END LIST*
D10*
%TO.N,/DRIVE*%
%TO.C,Q102*%
X58960000Y-26745000D03*
D11*
%TO.N,Net-(Q102-D)*%
X61500000Y-26745000D03*
%TO.N,GND*%
X64040000Y-26745000D03*
%TD*%
D12*
%TO.N,12.5 mA*%
%TO.C,U103*%
X26878000Y-21795000D03*
D13*
%TO.N,GNDPWR*%
X26878000Y-24335000D03*
%TO.N,GND*%
X34498000Y-24335000D03*
%TO.N,Net-(R109-Pad2)*%
X34498000Y-21795000D03*
%TD*%
D14*
%TO.N,352.8V*%
%TO.C,U101*%
X13714000Y-34000000D03*
%TO.N,GNDPWR*%
X20064000Y-34000000D03*
%TO.N,N/C*%
X9269000Y-34000000D03*
%TD*%
%TO.N,+12V*%
%TO.C,U106*%
X41714000Y-7000000D03*
%TO.N,GND*%
X48064000Y-7000000D03*
%TO.N,N/C*%
X37269000Y-7000000D03*
%TD*%
D10*
%TO.N,+12V*%
%TO.C,U107*%
X36420000Y-16611000D03*
D11*
%TO.N,GND*%
X38960000Y-16611000D03*
%TO.N,+5V*%
X41500000Y-16611000D03*
%TD*%
D10*
%TO.N,/DRIVE*%
%TO.C,Q101*%
X58920000Y-36300000D03*
D11*
%TO.N,Net-(Q101-D)*%
X61460000Y-36300000D03*
%TO.N,GND*%
X64000000Y-36300000D03*
%TD*%
D14*
%TO.N,Net-(Q101-D)*%
%TO.C,U105*%
X75200000Y-33486000D03*
%TO.N,Net-(Q102-D)*%
X75200000Y-27136000D03*
%TO.N,N/C*%
X75200000Y-37931000D03*
%TD*%
D15*
%TO.N,GND*%
X57500000Y-17500000D03*
X57500000Y-20000000D03*
X37500000Y-40000000D03*
X77500000Y-12500000D03*
X57500000Y-42500000D03*
X57500000Y-12500000D03*
X52500000Y-40000000D03*
X67500000Y-45000000D03*
X70000000Y-10000000D03*
X67500000Y-42500000D03*
X45000000Y-32500000D03*
X57500000Y-45000000D03*
X52500000Y-33000000D03*
X67500000Y-30000000D03*
X55000000Y-45000000D03*
X60000000Y-20000000D03*
X55000000Y-12500000D03*
X70000000Y-30000000D03*
X57500000Y-40000000D03*
X67500000Y-5000000D03*
X55000000Y-40000000D03*
X70000000Y-37500000D03*
X62500000Y-47500000D03*
X67500000Y-10000000D03*
X52500000Y-45000000D03*
X75000000Y-45000000D03*
X45000000Y-15000000D03*
X70000000Y-42500000D03*
X37500000Y-42500000D03*
X72500000Y-20000000D03*
X40000000Y-40000000D03*
X70000000Y-20000000D03*
X82500000Y-22500000D03*
X72500000Y-7500000D03*
X75000000Y-12500000D03*
X42500000Y-32500000D03*
X55000000Y-15000000D03*
X55000000Y-42500000D03*
X82500000Y-37500000D03*
X70000000Y-45000000D03*
D16*
X37100000Y-23600000D03*
D15*
X60000000Y-10000000D03*
X60000000Y-15000000D03*
X70000000Y-12500000D03*
X70000000Y-25000000D03*
X35000000Y-32500000D03*
X70000000Y-5000000D03*
X55000000Y-30000000D03*
X40000000Y-45000000D03*
X65000000Y-45000000D03*
X47500000Y-45000000D03*
X75000000Y-10000000D03*
X80000000Y-22500000D03*
X57500000Y-7500000D03*
X35000000Y-45000000D03*
X75000000Y-2500000D03*
X42500000Y-42500000D03*
X55000000Y-47500000D03*
X70000000Y-35000000D03*
X65000000Y-20000000D03*
X67500000Y-47500000D03*
X67500000Y-7500000D03*
X67500000Y-2500000D03*
X45000000Y-42500000D03*
X42500000Y-27500000D03*
X55000000Y-5000000D03*
X62500000Y-10000000D03*
X57500000Y-15000000D03*
X72500000Y-15000000D03*
X65000000Y-40000000D03*
X72500000Y-2500000D03*
X67500000Y-20000000D03*
X47500000Y-15000000D03*
X50000000Y-45000000D03*
X35000000Y-42500000D03*
X47500000Y-33000000D03*
X37500000Y-37500000D03*
X47500000Y-40000000D03*
X82500000Y-15000000D03*
X37500000Y-47500000D03*
X45000000Y-27500000D03*
X55000000Y-10000000D03*
X67500000Y-17500000D03*
X47500000Y-12500000D03*
X60000000Y-5000000D03*
X82500000Y-12500000D03*
X60000000Y-40000000D03*
X55000000Y-32500000D03*
X57500000Y-5000000D03*
X65000000Y-7500000D03*
X47500000Y-35000000D03*
X47500000Y-42500000D03*
X77500000Y-15000000D03*
X82500000Y-40000000D03*
X65000000Y-5000000D03*
X77500000Y-20000000D03*
X67500000Y-25000000D03*
X50000000Y-47500000D03*
X80000000Y-10000000D03*
X62500000Y-7500000D03*
X70000000Y-27500000D03*
X72500000Y-45000000D03*
X75000000Y-15000000D03*
X70000000Y-2500000D03*
X67500000Y-40000000D03*
X50000000Y-40000000D03*
X72500000Y-17500000D03*
X37500000Y-30000000D03*
X80000000Y-12500000D03*
X37500000Y-35000000D03*
X42500000Y-40000000D03*
X47500000Y-47500000D03*
X67500000Y-27500000D03*
X62500000Y-20000000D03*
X40000000Y-47500000D03*
X75000000Y-47500000D03*
X57500000Y-2500000D03*
X60000000Y-42500000D03*
D16*
X50076000Y-17740860D03*
D15*
X60000000Y-12500000D03*
X65000000Y-12500000D03*
X35000000Y-35000000D03*
X62500000Y-2500000D03*
X42500000Y-45000000D03*
X72500000Y-47500000D03*
X45000000Y-30000000D03*
X40000000Y-37500000D03*
X50000000Y-42500000D03*
X35000000Y-30000000D03*
X77500000Y-17500000D03*
D16*
X47576000Y-31340860D03*
D15*
X75000000Y-17500000D03*
X62500000Y-12500000D03*
X75000000Y-20000000D03*
X60000000Y-47500000D03*
X57500000Y-10000000D03*
D16*
X51300000Y-20900000D03*
D15*
X45000000Y-12500000D03*
X52500000Y-35000000D03*
X67500000Y-15000000D03*
X82500000Y-10000000D03*
X50000000Y-15000000D03*
D16*
X43500000Y-18800000D03*
D15*
X42500000Y-47500000D03*
X80000000Y-15000000D03*
X50000000Y-12500000D03*
X62500000Y-42500000D03*
X52500000Y-15000000D03*
X55000000Y-35000000D03*
X80000000Y-17500000D03*
X70000000Y-15000000D03*
X45000000Y-45000000D03*
X80000000Y-37500000D03*
X62500000Y-40000000D03*
X62500000Y-17500000D03*
X67500000Y-35000000D03*
X60000000Y-2500000D03*
X57500000Y-47500000D03*
X72500000Y-12500000D03*
X82500000Y-20000000D03*
X65000000Y-2500000D03*
X42500000Y-30000000D03*
D16*
X34700000Y-18800000D03*
D15*
X67500000Y-12500000D03*
X52500000Y-42500000D03*
X65000000Y-17500000D03*
X62500000Y-5000000D03*
X50000000Y-35000000D03*
X55000000Y-2500000D03*
X60000000Y-17500000D03*
X55000000Y-7500000D03*
X65000000Y-42500000D03*
X80000000Y-40000000D03*
X62500000Y-15000000D03*
X70000000Y-47500000D03*
X75000000Y-7500000D03*
X35000000Y-40000000D03*
X50000000Y-33000000D03*
X52500000Y-12500000D03*
X67500000Y-37500000D03*
X45000000Y-47500000D03*
X52500000Y-47500000D03*
X37500000Y-45000000D03*
X75000000Y-42500000D03*
X35000000Y-47500000D03*
X40000000Y-42500000D03*
X80000000Y-20000000D03*
D16*
X38600000Y-27000000D03*
D15*
X65000000Y-15000000D03*
X82500000Y-17500000D03*
X65000000Y-47500000D03*
X37500000Y-32500000D03*
X77500000Y-10000000D03*
X72500000Y-10000000D03*
X60000000Y-45000000D03*
X72500000Y-5000000D03*
X60000000Y-7500000D03*
X75000000Y-5000000D03*
X72500000Y-42500000D03*
X35000000Y-37500000D03*
X70000000Y-17500000D03*
X45000000Y-40000000D03*
X62500000Y-45000000D03*
X70000000Y-7500000D03*
X65000000Y-10000000D03*
X77500000Y-22500000D03*
%TO.N,GNDPWR*%
X2500000Y-10000000D03*
X2500000Y-40000000D03*
X25000000Y-20000000D03*
X7500000Y-17500000D03*
X25000000Y-30000000D03*
X20000000Y-25000000D03*
X27500000Y-7500000D03*
X2500000Y-12500000D03*
X22500000Y-22500000D03*
X5000000Y-40000000D03*
X2500000Y-27500000D03*
X25000000Y-47500000D03*
X10000000Y-47500000D03*
X25000000Y-32500000D03*
X7500000Y-25000000D03*
X22506701Y-7503820D03*
X12500000Y-2500000D03*
X5000000Y-27500000D03*
X2500000Y-30000000D03*
X27500000Y-45000000D03*
X20000000Y-27500000D03*
X5000000Y-12500000D03*
X2500000Y-37500000D03*
X10000000Y-42500000D03*
X25000000Y-35000000D03*
X27500000Y-42500000D03*
X5000000Y-25000000D03*
X12500000Y-45000000D03*
X20000000Y-20000000D03*
X2500000Y-22500000D03*
X7500000Y-22500000D03*
X25000000Y-45000000D03*
X5000000Y-35000000D03*
X20006701Y-7503820D03*
X15000000Y-47500000D03*
X12500000Y-5000000D03*
X7500000Y-27500000D03*
X20000000Y-22500000D03*
X27500000Y-2500000D03*
X25000000Y-40000000D03*
X24993299Y-2496180D03*
X25000000Y-25000000D03*
X17500000Y-2500000D03*
X17500000Y-7500000D03*
X17500000Y-45000000D03*
X22500000Y-25000000D03*
X5000000Y-32500000D03*
X20000000Y-42500000D03*
X5000000Y-22500000D03*
X22500000Y-47500000D03*
X20000000Y-47500000D03*
X2500000Y-17500000D03*
X7500000Y-20000000D03*
X25000000Y-22500000D03*
X12500000Y-7500000D03*
X27500000Y-32500000D03*
X7500000Y-12500000D03*
X27500000Y-5000000D03*
X5000000Y-10000000D03*
X15000000Y-7500000D03*
X7500000Y-15000000D03*
X20000000Y-40000000D03*
X7500000Y-10000000D03*
X10000000Y-7500000D03*
X10000000Y-5000000D03*
X5000000Y-20000000D03*
X27500000Y-47500000D03*
X22500000Y-27500000D03*
X25000000Y-42500000D03*
X2500000Y-32500000D03*
X27500000Y-37500000D03*
X10000000Y-2500000D03*
X25000000Y-7500000D03*
X22500000Y-2500000D03*
X5000000Y-30000000D03*
X2500000Y-35000000D03*
X20000000Y-45000000D03*
X10000000Y-45000000D03*
X27500000Y-40000000D03*
X5000000Y-17500000D03*
X5000000Y-15000000D03*
X27500000Y-30000000D03*
X2500000Y-20000000D03*
X12500000Y-47500000D03*
X2500000Y-25000000D03*
X15000000Y-45000000D03*
X17500000Y-47500000D03*
X22500000Y-45000000D03*
X25000000Y-37500000D03*
X5000000Y-37500000D03*
X22500000Y-40000000D03*
X22500000Y-42500000D03*
X25000000Y-27500000D03*
X2500000Y-15000000D03*
X27500000Y-35000000D03*
X15000000Y-2500000D03*
X7500000Y-40000000D03*
X20000000Y-2500000D03*
X22500000Y-20000000D03*
X27500000Y-27500000D03*
X10000000Y-40000000D03*
%TD*%
M02*
