%TF.GenerationSoftware,KiCad,Pcbnew,9.0.0*%
%TF.CreationDate,2025-04-18T20:07:31-05:00*%
%TF.ProjectId,RML,524d4c2e-6b69-4636-9164-5f7063625858,rev?*%
%TF.SameCoordinates,PX3473bc0PY2160ec0*%
%TF.FileFunction,Copper,L1,Top*%
%TF.FilePolarity,Positive*%
%FSLAX46Y46*%
G04 Gerber Fmt 4.6, Leading zero omitted, Abs format (unit mm)*
G04 Created by KiCad (PCBNEW 9.0.0) date 2025-04-18 20:07:31*
%MOMM*%
%LPD*%
G01*
G04 APERTURE LIST*
G04 Aperture macros list*
%AMRoundRect*
0 Rectangle with rounded corners*
0 $1 Rounding radius*
0 $2 $3 $4 $5 $6 $7 $8 $9 X,Y pos of 4 corners*
0 Add a 4 corners polygon primitive as box body*
4,1,4,$2,$3,$4,$5,$6,$7,$8,$9,$2,$3,0*
0 Add four circle primitives for the rounded corners*
1,1,$1+$1,$2,$3*
1,1,$1+$1,$4,$5*
1,1,$1+$1,$6,$7*
1,1,$1+$1,$8,$9*
0 Add four rect primitives between the rounded corners*
20,1,$1+$1,$2,$3,$4,$5,0*
20,1,$1+$1,$4,$5,$6,$7,0*
20,1,$1+$1,$6,$7,$8,$9,0*
20,1,$1+$1,$8,$9,$2,$3,0*%
G04 Aperture macros list end*
%TA.AperFunction,ComponentPad*%
%ADD10R,1.905000X2.000000*%
%TD*%
%TA.AperFunction,ComponentPad*%
%ADD11O,1.905000X2.000000*%
%TD*%
%TA.AperFunction,SMDPad,CuDef*%
%ADD12RoundRect,0.140000X-0.140000X-0.170000X0.140000X-0.170000X0.140000X0.170000X-0.140000X0.170000X0*%
%TD*%
%TA.AperFunction,SMDPad,CuDef*%
%ADD13RoundRect,0.249999X0.450001X1.425001X-0.450001X1.425001X-0.450001X-1.425001X0.450001X-1.425001X0*%
%TD*%
%TA.AperFunction,ComponentPad*%
%ADD14R,1.600000X1.600000*%
%TD*%
%TA.AperFunction,ComponentPad*%
%ADD15O,1.600000X1.600000*%
%TD*%
%TA.AperFunction,ComponentPad*%
%ADD16C,2.286000*%
%TD*%
%TA.AperFunction,SMDPad,CuDef*%
%ADD17RoundRect,0.140000X-0.170000X0.140000X-0.170000X-0.140000X0.170000X-0.140000X0.170000X0.140000X0*%
%TD*%
%TA.AperFunction,SMDPad,CuDef*%
%ADD18RoundRect,0.140000X0.140000X0.170000X-0.140000X0.170000X-0.140000X-0.170000X0.140000X-0.170000X0*%
%TD*%
%TA.AperFunction,SMDPad,CuDef*%
%ADD19RoundRect,0.225000X-0.225000X-0.250000X0.225000X-0.250000X0.225000X0.250000X-0.225000X0.250000X0*%
%TD*%
%TA.AperFunction,SMDPad,CuDef*%
%ADD20RoundRect,0.140000X0.170000X-0.140000X0.170000X0.140000X-0.170000X0.140000X-0.170000X-0.140000X0*%
%TD*%
%TA.AperFunction,SMDPad,CuDef*%
%ADD21RoundRect,0.249999X-0.450001X-1.425001X0.450001X-1.425001X0.450001X1.425001X-0.450001X1.425001X0*%
%TD*%
%TA.AperFunction,SMDPad,CuDef*%
%ADD22RoundRect,0.150000X-0.150000X0.825000X-0.150000X-0.825000X0.150000X-0.825000X0.150000X0.825000X0*%
%TD*%
%TA.AperFunction,SMDPad,CuDef*%
%ADD23RoundRect,0.150000X-0.512500X-0.150000X0.512500X-0.150000X0.512500X0.150000X-0.512500X0.150000X0*%
%TD*%
%TA.AperFunction,ViaPad*%
%ADD24C,0.800000*%
%TD*%
%TA.AperFunction,ViaPad*%
%ADD25C,0.700000*%
%TD*%
%TA.AperFunction,Conductor*%
%ADD26C,0.300000*%
%TD*%
%TA.AperFunction,Conductor*%
%ADD27C,0.500000*%
%TD*%
%TA.AperFunction,Conductor*%
%ADD28C,0.600000*%
%TD*%
%TA.AperFunction,Conductor*%
%ADD29C,2.000000*%
%TD*%
G04 APERTURE END LIST*
D10*
%TO.P,Q102,1,G*%
%TO.N,/DRIVE*%
X58960000Y-26745000D03*
D11*
%TO.P,Q102,2,D*%
%TO.N,Net-(Q102-D)*%
X61500000Y-26745000D03*
%TO.P,Q102,3,S*%
%TO.N,GND*%
X64040000Y-26745000D03*
%TD*%
D12*
%TO.P,C102,1*%
%TO.N,+5V*%
X51500992Y-31200000D03*
%TO.P,C102,2*%
%TO.N,GND*%
X52460992Y-31200000D03*
%TD*%
D13*
%TO.P,R104,1*%
%TO.N,Net-(R104-Pad1)*%
X17050000Y-12000000D03*
%TO.P,R104,2*%
%TO.N,Net-(R103-Pad1)*%
X10950000Y-12000000D03*
%TD*%
D14*
%TO.P,U103,1*%
%TO.N,12.5 mA*%
X26878000Y-21795000D03*
D15*
%TO.P,U103,2*%
%TO.N,GNDPWR*%
X26878000Y-24335000D03*
%TO.P,U103,3*%
%TO.N,GND*%
X34498000Y-24335000D03*
%TO.P,U103,4*%
%TO.N,Net-(R109-Pad2)*%
X34498000Y-21795000D03*
%TD*%
D16*
%TO.P,U101,1,1*%
%TO.N,352.8V*%
X13714000Y-34000000D03*
%TO.P,U101,2,2*%
%TO.N,GNDPWR*%
X20064000Y-34000000D03*
%TO.P,U101,3*%
%TO.N,N/C*%
X9269000Y-34000000D03*
%TD*%
D12*
%TO.P,R105,1*%
%TO.N,CLOCK*%
X49105000Y-20825860D03*
%TO.P,R105,2*%
%TO.N,/THRESH*%
X50065000Y-20825860D03*
%TD*%
D17*
%TO.P,C103,1*%
%TO.N,Net-(U102-CV)*%
X47540000Y-29460860D03*
%TO.P,C103,2*%
%TO.N,GND*%
X47540000Y-30420860D03*
%TD*%
D13*
%TO.P,R106,1*%
%TO.N,Net-(R106-Pad1)*%
X26050000Y-12000000D03*
%TO.P,R106,2*%
%TO.N,Net-(R104-Pad1)*%
X19950000Y-12000000D03*
%TD*%
D16*
%TO.P,U106,1,1*%
%TO.N,+12V*%
X41714000Y-7000000D03*
%TO.P,U106,2,2*%
%TO.N,GND*%
X48064000Y-7000000D03*
%TO.P,U106,3*%
%TO.N,N/C*%
X37269000Y-7000000D03*
%TD*%
D18*
%TO.P,C105,1*%
%TO.N,+12V*%
X36580000Y-18800000D03*
%TO.P,C105,2*%
%TO.N,GND*%
X35620000Y-18800000D03*
%TD*%
D13*
%TO.P,R108,1*%
%TO.N,12.5 mA*%
X26050000Y-16700000D03*
%TO.P,R108,2*%
%TO.N,Net-(R106-Pad1)*%
X19950000Y-16700000D03*
%TD*%
%TO.P,R102,1*%
%TO.N,Net-(R102-Pad1)*%
X17050000Y-20988000D03*
%TO.P,R102,2*%
%TO.N,Net-(R101-Pad1)*%
X10950000Y-20988000D03*
%TD*%
D12*
%TO.P,C106,1*%
%TO.N,+5V*%
X41520000Y-18800000D03*
%TO.P,C106,2*%
%TO.N,GND*%
X42480000Y-18800000D03*
%TD*%
D19*
%TO.P,C101,1*%
%TO.N,+5V*%
X51425000Y-29800000D03*
%TO.P,C101,2*%
%TO.N,GND*%
X52975000Y-29800000D03*
%TD*%
D17*
%TO.P,C104,1*%
%TO.N,GND*%
X50060000Y-18715860D03*
%TO.P,C104,2*%
%TO.N,/THRESH*%
X50060000Y-19675860D03*
%TD*%
%TO.P,R109,1*%
%TO.N,+5V*%
X36600000Y-20820000D03*
%TO.P,R109,2*%
%TO.N,Net-(R109-Pad2)*%
X36600000Y-21780000D03*
%TD*%
D20*
%TO.P,R107,1*%
%TO.N,/THRESH*%
X48610000Y-19700860D03*
%TO.P,R107,2*%
%TO.N,+5V*%
X48610000Y-18740860D03*
%TD*%
D21*
%TO.P,R103,1*%
%TO.N,Net-(R103-Pad1)*%
X10950000Y-16621000D03*
%TO.P,R103,2*%
%TO.N,Net-(R102-Pad1)*%
X17050000Y-16621000D03*
%TD*%
D12*
%TO.P,R110,1*%
%TO.N,GND*%
X39520000Y-27000000D03*
%TO.P,R110,2*%
%TO.N,/DRIVE*%
X40480000Y-27000000D03*
%TD*%
D22*
%TO.P,U102,1,GND*%
%TO.N,GND*%
X51340000Y-22675860D03*
%TO.P,U102,2,TR*%
%TO.N,/THRESH*%
X50070000Y-22675860D03*
%TO.P,U102,3,Q*%
%TO.N,CLOCK*%
X48800000Y-22675860D03*
%TO.P,U102,4,R*%
%TO.N,+5V*%
X47530000Y-22675860D03*
%TO.P,U102,5,CV*%
%TO.N,Net-(U102-CV)*%
X47530000Y-27625860D03*
%TO.P,U102,6,THR*%
%TO.N,/THRESH*%
X48800000Y-27625860D03*
%TO.P,U102,7,DIS*%
%TO.N,unconnected-(U102-DIS-Pad7)*%
X50070000Y-27625860D03*
%TO.P,U102,8,VCC*%
%TO.N,+5V*%
X51340000Y-27625860D03*
%TD*%
D21*
%TO.P,R101,1*%
%TO.N,Net-(R101-Pad1)*%
X10950000Y-25306000D03*
%TO.P,R101,2*%
%TO.N,352.8V*%
X17050000Y-25306000D03*
%TD*%
D10*
%TO.P,U107,1,VI*%
%TO.N,+12V*%
X36420000Y-16611000D03*
D11*
%TO.P,U107,2,GND*%
%TO.N,GND*%
X38960000Y-16611000D03*
%TO.P,U107,3,VO*%
%TO.N,+5V*%
X41500000Y-16611000D03*
%TD*%
D10*
%TO.P,Q101,1,G*%
%TO.N,/DRIVE*%
X58920000Y-36300000D03*
D11*
%TO.P,Q101,2,D*%
%TO.N,Net-(Q101-D)*%
X61460000Y-36300000D03*
%TO.P,Q101,3,S*%
%TO.N,GND*%
X64000000Y-36300000D03*
%TD*%
D16*
%TO.P,U105,1,1*%
%TO.N,Net-(Q101-D)*%
X75200000Y-33486000D03*
%TO.P,U105,2,2*%
%TO.N,Net-(Q102-D)*%
X75200000Y-27136000D03*
%TO.P,U105,3*%
%TO.N,N/C*%
X75200000Y-37931000D03*
%TD*%
D23*
%TO.P,U104,1*%
%TO.N,Net-(R109-Pad2)*%
X38462500Y-21750000D03*
%TO.P,U104,2*%
%TO.N,CLOCK*%
X38462500Y-22700000D03*
%TO.P,U104,3,GND*%
%TO.N,GND*%
X38462500Y-23650000D03*
%TO.P,U104,4*%
%TO.N,/DRIVE*%
X40737500Y-23650000D03*
%TO.P,U104,5,VCC*%
%TO.N,+5V*%
X40737500Y-21750000D03*
%TD*%
D24*
%TO.N,GND*%
X57500000Y-17500000D03*
X57500000Y-20000000D03*
X37500000Y-40000000D03*
X77500000Y-12500000D03*
X57500000Y-42500000D03*
X57500000Y-12500000D03*
X52500000Y-40000000D03*
X67500000Y-45000000D03*
X70000000Y-10000000D03*
X67500000Y-42500000D03*
X45000000Y-32500000D03*
X57500000Y-45000000D03*
X52500000Y-33000000D03*
X67500000Y-30000000D03*
X55000000Y-45000000D03*
X60000000Y-20000000D03*
X55000000Y-12500000D03*
X70000000Y-30000000D03*
X57500000Y-40000000D03*
X67500000Y-5000000D03*
X55000000Y-40000000D03*
X70000000Y-37500000D03*
X62500000Y-47500000D03*
X67500000Y-10000000D03*
X52500000Y-45000000D03*
X75000000Y-45000000D03*
X45000000Y-15000000D03*
X70000000Y-42500000D03*
X37500000Y-42500000D03*
X72500000Y-20000000D03*
X40000000Y-40000000D03*
X70000000Y-20000000D03*
X82500000Y-22500000D03*
X72500000Y-7500000D03*
X75000000Y-12500000D03*
X42500000Y-32500000D03*
X55000000Y-15000000D03*
X55000000Y-42500000D03*
X82500000Y-37500000D03*
X70000000Y-45000000D03*
D25*
X37100000Y-23600000D03*
D24*
X60000000Y-10000000D03*
X60000000Y-15000000D03*
X70000000Y-12500000D03*
X70000000Y-25000000D03*
X35000000Y-32500000D03*
X70000000Y-5000000D03*
X55000000Y-30000000D03*
X40000000Y-45000000D03*
X65000000Y-45000000D03*
X47500000Y-45000000D03*
X75000000Y-10000000D03*
X80000000Y-22500000D03*
X57500000Y-7500000D03*
X35000000Y-45000000D03*
X75000000Y-2500000D03*
X42500000Y-42500000D03*
X55000000Y-47500000D03*
X70000000Y-35000000D03*
X65000000Y-20000000D03*
X67500000Y-47500000D03*
X67500000Y-7500000D03*
X67500000Y-2500000D03*
X45000000Y-42500000D03*
X42500000Y-27500000D03*
X55000000Y-5000000D03*
X62500000Y-10000000D03*
X57500000Y-15000000D03*
X72500000Y-15000000D03*
X65000000Y-40000000D03*
X72500000Y-2500000D03*
X67500000Y-20000000D03*
X47500000Y-15000000D03*
X50000000Y-45000000D03*
X35000000Y-42500000D03*
X47500000Y-33000000D03*
X37500000Y-37500000D03*
X47500000Y-40000000D03*
X82500000Y-15000000D03*
X37500000Y-47500000D03*
X45000000Y-27500000D03*
X55000000Y-10000000D03*
X67500000Y-17500000D03*
X47500000Y-12500000D03*
X60000000Y-5000000D03*
X82500000Y-12500000D03*
X60000000Y-40000000D03*
X55000000Y-32500000D03*
X57500000Y-5000000D03*
X65000000Y-7500000D03*
X47500000Y-35000000D03*
X47500000Y-42500000D03*
X77500000Y-15000000D03*
X82500000Y-40000000D03*
X65000000Y-5000000D03*
X77500000Y-20000000D03*
X67500000Y-25000000D03*
X50000000Y-47500000D03*
X80000000Y-10000000D03*
X62500000Y-7500000D03*
X70000000Y-27500000D03*
X72500000Y-45000000D03*
X75000000Y-15000000D03*
X70000000Y-2500000D03*
X67500000Y-40000000D03*
X50000000Y-40000000D03*
X72500000Y-17500000D03*
X37500000Y-30000000D03*
X80000000Y-12500000D03*
X37500000Y-35000000D03*
X42500000Y-40000000D03*
X47500000Y-47500000D03*
X67500000Y-27500000D03*
X62500000Y-20000000D03*
X40000000Y-47500000D03*
X75000000Y-47500000D03*
X57500000Y-2500000D03*
X60000000Y-42500000D03*
D25*
X50076000Y-17740860D03*
D24*
X60000000Y-12500000D03*
X65000000Y-12500000D03*
X35000000Y-35000000D03*
X62500000Y-2500000D03*
X42500000Y-45000000D03*
X72500000Y-47500000D03*
X45000000Y-30000000D03*
X40000000Y-37500000D03*
X50000000Y-42500000D03*
X35000000Y-30000000D03*
X77500000Y-17500000D03*
D25*
X47576000Y-31340860D03*
D24*
X75000000Y-17500000D03*
X62500000Y-12500000D03*
X75000000Y-20000000D03*
X60000000Y-47500000D03*
X57500000Y-10000000D03*
D25*
X51300000Y-20900000D03*
D24*
X45000000Y-12500000D03*
X52500000Y-35000000D03*
X67500000Y-15000000D03*
X82500000Y-10000000D03*
X50000000Y-15000000D03*
D25*
X43500000Y-18800000D03*
D24*
X42500000Y-47500000D03*
X80000000Y-15000000D03*
X50000000Y-12500000D03*
X62500000Y-42500000D03*
X52500000Y-15000000D03*
X55000000Y-35000000D03*
X80000000Y-17500000D03*
X70000000Y-15000000D03*
X45000000Y-45000000D03*
X80000000Y-37500000D03*
X62500000Y-40000000D03*
X62500000Y-17500000D03*
X67500000Y-35000000D03*
X60000000Y-2500000D03*
X57500000Y-47500000D03*
X72500000Y-12500000D03*
X82500000Y-20000000D03*
X65000000Y-2500000D03*
X42500000Y-30000000D03*
D25*
X34700000Y-18800000D03*
D24*
X67500000Y-12500000D03*
X52500000Y-42500000D03*
X65000000Y-17500000D03*
X62500000Y-5000000D03*
X50000000Y-35000000D03*
X55000000Y-2500000D03*
X60000000Y-17500000D03*
X55000000Y-7500000D03*
X65000000Y-42500000D03*
X80000000Y-40000000D03*
X62500000Y-15000000D03*
X70000000Y-47500000D03*
X75000000Y-7500000D03*
X35000000Y-40000000D03*
X50000000Y-33000000D03*
X52500000Y-12500000D03*
X67500000Y-37500000D03*
X45000000Y-47500000D03*
X52500000Y-47500000D03*
X37500000Y-45000000D03*
X75000000Y-42500000D03*
X35000000Y-47500000D03*
X40000000Y-42500000D03*
X80000000Y-20000000D03*
D25*
X38600000Y-27000000D03*
D24*
X65000000Y-15000000D03*
X82500000Y-17500000D03*
X65000000Y-47500000D03*
X37500000Y-32500000D03*
X77500000Y-10000000D03*
X72500000Y-10000000D03*
X60000000Y-45000000D03*
X72500000Y-5000000D03*
X60000000Y-7500000D03*
X75000000Y-5000000D03*
X72500000Y-42500000D03*
X35000000Y-37500000D03*
X70000000Y-17500000D03*
X45000000Y-40000000D03*
X62500000Y-45000000D03*
X70000000Y-7500000D03*
X65000000Y-10000000D03*
X77500000Y-22500000D03*
%TO.N,GNDPWR*%
X2500000Y-10000000D03*
X2500000Y-40000000D03*
X25000000Y-20000000D03*
X7500000Y-17500000D03*
X25000000Y-30000000D03*
X20000000Y-25000000D03*
X27500000Y-7500000D03*
X2500000Y-12500000D03*
X22500000Y-22500000D03*
X5000000Y-40000000D03*
X2500000Y-27500000D03*
X25000000Y-47500000D03*
X10000000Y-47500000D03*
X25000000Y-32500000D03*
X7500000Y-25000000D03*
X22506701Y-7503820D03*
X12500000Y-2500000D03*
X5000000Y-27500000D03*
X2500000Y-30000000D03*
X27500000Y-45000000D03*
X20000000Y-27500000D03*
X5000000Y-12500000D03*
X2500000Y-37500000D03*
X10000000Y-42500000D03*
X25000000Y-35000000D03*
X27500000Y-42500000D03*
X5000000Y-25000000D03*
X12500000Y-45000000D03*
X20000000Y-20000000D03*
X2500000Y-22500000D03*
X7500000Y-22500000D03*
X25000000Y-45000000D03*
X5000000Y-35000000D03*
X20006701Y-7503820D03*
X15000000Y-47500000D03*
X12500000Y-5000000D03*
X7500000Y-27500000D03*
X20000000Y-22500000D03*
X27500000Y-2500000D03*
X25000000Y-40000000D03*
X24993299Y-2496180D03*
X25000000Y-25000000D03*
X17500000Y-2500000D03*
X17500000Y-7500000D03*
X17500000Y-45000000D03*
X22500000Y-25000000D03*
X5000000Y-32500000D03*
X20000000Y-42500000D03*
X5000000Y-22500000D03*
X22500000Y-47500000D03*
X20000000Y-47500000D03*
X2500000Y-17500000D03*
X7500000Y-20000000D03*
X25000000Y-22500000D03*
X12500000Y-7500000D03*
X27500000Y-32500000D03*
X7500000Y-12500000D03*
X27500000Y-5000000D03*
X5000000Y-10000000D03*
X15000000Y-7500000D03*
X7500000Y-15000000D03*
X20000000Y-40000000D03*
X7500000Y-10000000D03*
X10000000Y-7500000D03*
X10000000Y-5000000D03*
X5000000Y-20000000D03*
X27500000Y-47500000D03*
X22500000Y-27500000D03*
X25000000Y-42500000D03*
X2500000Y-32500000D03*
X27500000Y-37500000D03*
X10000000Y-2500000D03*
X25000000Y-7500000D03*
X22500000Y-2500000D03*
X5000000Y-30000000D03*
X2500000Y-35000000D03*
X20000000Y-45000000D03*
X10000000Y-45000000D03*
X27500000Y-40000000D03*
X5000000Y-17500000D03*
X5000000Y-15000000D03*
X27500000Y-30000000D03*
X2500000Y-20000000D03*
X12500000Y-47500000D03*
X2500000Y-25000000D03*
X15000000Y-45000000D03*
X17500000Y-47500000D03*
X22500000Y-45000000D03*
X25000000Y-37500000D03*
X5000000Y-37500000D03*
X22500000Y-40000000D03*
X22500000Y-42500000D03*
X25000000Y-27500000D03*
X2500000Y-15000000D03*
X27500000Y-35000000D03*
X15000000Y-2500000D03*
X7500000Y-40000000D03*
X20000000Y-2500000D03*
X22500000Y-20000000D03*
X27500000Y-27500000D03*
X10000000Y-40000000D03*
%TD*%
D26*
%TO.N,Net-(U102-CV)*%
X47540000Y-29335860D02*
X47540000Y-29460860D01*
X47530000Y-29325860D02*
X47540000Y-29335860D01*
X47530000Y-27625860D02*
X47530000Y-29325860D01*
D27*
%TO.N,+12V*%
X36420000Y-16611000D02*
X36600000Y-16791000D01*
X36600000Y-18780000D02*
X36580000Y-18800000D01*
X36420000Y-12294000D02*
X36420000Y-16611000D01*
X36600000Y-16791000D02*
X36600000Y-18780000D01*
X41714000Y-7000000D02*
X36420000Y-12294000D01*
D28*
%TO.N,GND*%
X51340000Y-20940000D02*
X51300000Y-20900000D01*
D27*
X47540000Y-31304860D02*
X47576000Y-31340860D01*
X37150000Y-23650000D02*
X37100000Y-23600000D01*
X50060000Y-17756860D02*
X50076000Y-17740860D01*
%TO.N,+5V*%
X54000000Y-24965860D02*
X51340000Y-27625860D01*
X51340000Y-29715000D02*
X51425000Y-29800000D01*
X41520000Y-20000000D02*
X41520000Y-20967500D01*
X41500000Y-18826000D02*
X41560000Y-18886000D01*
X48600000Y-16611000D02*
X48600000Y-17100000D01*
X52611000Y-16611000D02*
X48600000Y-16611000D01*
X48600000Y-17100000D02*
X48610000Y-17110000D01*
X51340000Y-27066760D02*
X51340000Y-27625860D01*
X54000000Y-18000000D02*
X52611000Y-16611000D01*
X41500000Y-16611000D02*
X41500000Y-18826000D01*
X51340000Y-27625860D02*
X51340000Y-29715000D01*
X48600000Y-16611000D02*
X41500000Y-16611000D01*
X51425000Y-31124008D02*
X51500992Y-31200000D01*
X47530000Y-19480000D02*
X48269140Y-18740860D01*
X47566000Y-22639860D02*
X47530000Y-22675860D01*
X47530000Y-22675860D02*
X47530000Y-19480000D01*
X36600000Y-20400000D02*
X36600000Y-20820000D01*
X47530000Y-22675860D02*
X47530000Y-23256760D01*
X41520000Y-18800000D02*
X41520000Y-20000000D01*
X41520000Y-20967500D02*
X40737500Y-21750000D01*
X41520000Y-20000000D02*
X37000000Y-20000000D01*
X51425000Y-29800000D02*
X51425000Y-31124008D01*
X48269140Y-18740860D02*
X48610000Y-18740860D01*
X54000000Y-18000000D02*
X54000000Y-24965860D01*
X48610000Y-17110000D02*
X48610000Y-18740860D01*
X37000000Y-20000000D02*
X36600000Y-20400000D01*
X36580000Y-20800000D02*
X36600000Y-20820000D01*
D29*
%TO.N,Net-(Q101-D)*%
X73714000Y-32000000D02*
X75200000Y-33486000D01*
X63000000Y-32000000D02*
X73714000Y-32000000D01*
X61500000Y-36345000D02*
X61500000Y-33500000D01*
X61500000Y-33500000D02*
X63000000Y-32000000D01*
D26*
%TO.N,/THRESH*%
X48635000Y-19675860D02*
X48610000Y-19700860D01*
D27*
X48800000Y-25900000D02*
X48800000Y-27625860D01*
X50070000Y-24630000D02*
X48800000Y-25900000D01*
X50070000Y-22675860D02*
X50070000Y-24630000D01*
D26*
X50060000Y-19675860D02*
X48635000Y-19675860D01*
X50060000Y-19675860D02*
X50060000Y-22665860D01*
X48790000Y-27615860D02*
X48800000Y-27625860D01*
X50060000Y-22665860D02*
X50070000Y-22675860D01*
D27*
%TO.N,/DRIVE*%
X40737500Y-32637500D02*
X40737500Y-23650000D01*
X58920000Y-36300000D02*
X44400000Y-36300000D01*
X44400000Y-36300000D02*
X40737500Y-32637500D01*
D28*
X58960000Y-26745000D02*
X58960000Y-36345000D01*
D27*
%TO.N,352.8V*%
X17050000Y-25306000D02*
X17050000Y-30664000D01*
X17050000Y-30664000D02*
X13714000Y-34000000D01*
D29*
%TO.N,Net-(Q102-D)*%
X61500000Y-24255000D02*
X62755000Y-23000000D01*
X73000000Y-23000000D02*
X75200000Y-25200000D01*
X75200000Y-25200000D02*
X75200000Y-27136000D01*
X62755000Y-23000000D02*
X73000000Y-23000000D01*
X61500000Y-26745000D02*
X61500000Y-24255000D01*
D27*
%TO.N,Net-(R101-Pad1)*%
X10950000Y-25306000D02*
X10950000Y-20988000D01*
%TO.N,Net-(R102-Pad1)*%
X17050000Y-20988000D02*
X17050000Y-16621000D01*
%TO.N,Net-(R103-Pad1)*%
X10950000Y-16621000D02*
X10950000Y-12000000D01*
%TO.N,Net-(R104-Pad1)*%
X17050000Y-12000000D02*
X19950000Y-12000000D01*
D26*
%TO.N,CLOCK*%
X49105000Y-20825860D02*
X49105000Y-22370860D01*
D27*
X45000000Y-25000000D02*
X47450859Y-25000000D01*
X38462500Y-22700000D02*
X42700000Y-22700000D01*
X42700000Y-22700000D02*
X45000000Y-25000000D01*
D26*
X49105000Y-22370860D02*
X48800000Y-22675860D01*
D27*
X47450859Y-25000000D02*
X48800000Y-23650859D01*
X48800000Y-23650859D02*
X48800000Y-22675860D01*
%TO.N,12.5 mA*%
X26400000Y-17050000D02*
X26400000Y-21317000D01*
X26050000Y-16700000D02*
X26400000Y-17050000D01*
X26400000Y-21317000D02*
X26878000Y-21795000D01*
%TO.N,Net-(R106-Pad1)*%
X26050000Y-12000000D02*
X25400000Y-12000000D01*
X20700000Y-16700000D02*
X19950000Y-16700000D01*
X25400000Y-12000000D02*
X20700000Y-16700000D01*
%TO.N,Net-(R109-Pad2)*%
X34498000Y-21795000D02*
X38417500Y-21795000D01*
X38417500Y-21795000D02*
X38462500Y-21750000D01*
%TD*%
%TA.AperFunction,Conductor*%
%TO.N,GND*%
G36*
X52398652Y-17181185D02*
G01*
X52419294Y-17197819D01*
X53413181Y-18191705D01*
X53446666Y-18253028D01*
X53449500Y-18279386D01*
X53449500Y-24686472D01*
X53429815Y-24753511D01*
X53413181Y-24774153D01*
X51821969Y-26365364D01*
X51760646Y-26398849D01*
X51693334Y-26394725D01*
X51574697Y-26353213D01*
X51574699Y-26353213D01*
X51544270Y-26350360D01*
X51544266Y-26350360D01*
X51135734Y-26350360D01*
X51135730Y-26350360D01*
X51105300Y-26353213D01*
X51105298Y-26353213D01*
X50977119Y-26398066D01*
X50977117Y-26398067D01*
X50924330Y-26437026D01*
X50867850Y-26478710D01*
X50813088Y-26552911D01*
X50804770Y-26564181D01*
X50749123Y-26606431D01*
X50679466Y-26611890D01*
X50617917Y-26578822D01*
X50605230Y-26564181D01*
X50600941Y-26558369D01*
X50542150Y-26478710D01*
X50432882Y-26398067D01*
X50432880Y-26398066D01*
X50304700Y-26353213D01*
X50274270Y-26350360D01*
X50274266Y-26350360D01*
X49865734Y-26350360D01*
X49865730Y-26350360D01*
X49835300Y-26353213D01*
X49835298Y-26353213D01*
X49707119Y-26398066D01*
X49707117Y-26398067D01*
X49597850Y-26478710D01*
X49574270Y-26510660D01*
X49518622Y-26552911D01*
X49448966Y-26558369D01*
X49387417Y-26525301D01*
X49353516Y-26464207D01*
X49350500Y-26437026D01*
X49350500Y-26179387D01*
X49370185Y-26112348D01*
X49386819Y-26091706D01*
X49928025Y-25550500D01*
X50510510Y-24968015D01*
X50582984Y-24842485D01*
X50606635Y-24754218D01*
X50606825Y-24753511D01*
X50617510Y-24713632D01*
X50620500Y-24702475D01*
X50620500Y-23741363D01*
X50627459Y-23700408D01*
X50667645Y-23585561D01*
X50667646Y-23585559D01*
X50670500Y-23555129D01*
X50670500Y-21796590D01*
X50667646Y-21766160D01*
X50667646Y-21766158D01*
X50634006Y-21670023D01*
X50622793Y-21637978D01*
X50542150Y-21528710D01*
X50542148Y-21528709D01*
X50536632Y-21521234D01*
X50539162Y-21519366D01*
X50532107Y-21506437D01*
X50515523Y-21480632D01*
X50514627Y-21474407D01*
X50513327Y-21472023D01*
X50510500Y-21445697D01*
X50510500Y-21364532D01*
X50530185Y-21297493D01*
X50534717Y-21290916D01*
X50598852Y-21204017D01*
X50642710Y-21078679D01*
X50645500Y-21048926D01*
X50645500Y-20602794D01*
X50642710Y-20573041D01*
X50642708Y-20573036D01*
X50642708Y-20573033D01*
X50604230Y-20463073D01*
X50598852Y-20447703D01*
X50534729Y-20360819D01*
X50527272Y-20340404D01*
X50515523Y-20322121D01*
X50512229Y-20299217D01*
X50510759Y-20295190D01*
X50510500Y-20287186D01*
X50510500Y-20216721D01*
X50530185Y-20149682D01*
X50541155Y-20136068D01*
X50623851Y-20024018D01*
X50623852Y-20024017D01*
X50667708Y-19898686D01*
X50667708Y-19898683D01*
X50667710Y-19898679D01*
X50670500Y-19868926D01*
X50670500Y-19482794D01*
X50667710Y-19453041D01*
X50667708Y-19453037D01*
X50667708Y-19453033D01*
X50623852Y-19327704D01*
X50623852Y-19327703D01*
X50544999Y-19220861D01*
X50438157Y-19142008D01*
X50438155Y-19142007D01*
X50312826Y-19098151D01*
X50312814Y-19098149D01*
X50283070Y-19095360D01*
X50283066Y-19095360D01*
X49836934Y-19095360D01*
X49836930Y-19095360D01*
X49807185Y-19098149D01*
X49807173Y-19098151D01*
X49681844Y-19142007D01*
X49601736Y-19201130D01*
X49581321Y-19208586D01*
X49563037Y-19220337D01*
X49540134Y-19223629D01*
X49536107Y-19225101D01*
X49528102Y-19225360D01*
X49300905Y-19225360D01*
X49233866Y-19205675D01*
X49188111Y-19152871D01*
X49178167Y-19083713D01*
X49183864Y-19060404D01*
X49206472Y-18995794D01*
X49217710Y-18963679D01*
X49220500Y-18933926D01*
X49220500Y-18547794D01*
X49220442Y-18547177D01*
X49217710Y-18518045D01*
X49217710Y-18518041D01*
X49217708Y-18518037D01*
X49217708Y-18518033D01*
X49170784Y-18383933D01*
X49172101Y-18383471D01*
X49160500Y-18336686D01*
X49160500Y-17285500D01*
X49180185Y-17218461D01*
X49232989Y-17172706D01*
X49284500Y-17161500D01*
X52331613Y-17161500D01*
X52398652Y-17181185D01*
G37*
%TD.AperFunction*%
%TA.AperFunction,Conductor*%
G36*
X48002539Y-17181185D02*
G01*
X48048294Y-17233989D01*
X48059500Y-17285500D01*
X48059500Y-18154641D01*
X48039815Y-18221680D01*
X47997500Y-18262028D01*
X47931128Y-18300347D01*
X47931123Y-18300351D01*
X47089491Y-19141983D01*
X47089487Y-19141988D01*
X47032606Y-19240511D01*
X47017018Y-19267510D01*
X47017016Y-19267513D01*
X47012331Y-19284998D01*
X46979500Y-19407525D01*
X46979500Y-19407527D01*
X46979500Y-21610355D01*
X46972542Y-21651309D01*
X46932353Y-21766162D01*
X46929500Y-21796590D01*
X46929500Y-23555129D01*
X46932353Y-23585559D01*
X46932353Y-23585561D01*
X46972541Y-23700408D01*
X46977207Y-23713742D01*
X47057850Y-23823010D01*
X47167118Y-23903653D01*
X47209845Y-23918604D01*
X47295299Y-23948506D01*
X47325730Y-23951360D01*
X47325734Y-23951360D01*
X47421612Y-23951360D01*
X47488651Y-23971045D01*
X47534406Y-24023849D01*
X47544350Y-24093007D01*
X47515325Y-24156563D01*
X47509293Y-24163041D01*
X47259153Y-24413181D01*
X47197830Y-24446666D01*
X47171472Y-24449500D01*
X45279387Y-24449500D01*
X45212348Y-24429815D01*
X45191706Y-24413181D01*
X43038016Y-22259491D01*
X43038015Y-22259490D01*
X42912485Y-22187016D01*
X42912486Y-22187016D01*
X42822394Y-22162876D01*
X42822394Y-22162875D01*
X42772475Y-22149500D01*
X41814742Y-22149500D01*
X41747703Y-22129815D01*
X41701948Y-22077011D01*
X41692004Y-22007853D01*
X41697513Y-21985307D01*
X41697646Y-21984699D01*
X41700500Y-21954269D01*
X41700500Y-21616887D01*
X41720185Y-21549848D01*
X41736819Y-21529206D01*
X41820328Y-21445697D01*
X41960510Y-21305515D01*
X42032984Y-21179985D01*
X42040388Y-21152354D01*
X42040389Y-21152352D01*
X42053652Y-21102853D01*
X42070500Y-21039975D01*
X42070500Y-19927525D01*
X42070500Y-19151648D01*
X42073270Y-19125583D01*
X42074897Y-19118011D01*
X42097710Y-19052819D01*
X42100500Y-19023066D01*
X42100500Y-18998937D01*
X42103270Y-18986054D01*
X42104143Y-18984445D01*
X42104725Y-18980026D01*
X42110500Y-18958474D01*
X42110500Y-18813526D01*
X42104725Y-18791972D01*
X42100500Y-18759880D01*
X42100500Y-18576929D01*
X42097710Y-18547185D01*
X42097710Y-18547181D01*
X42097708Y-18547177D01*
X42097708Y-18547173D01*
X42057459Y-18432148D01*
X42050500Y-18391193D01*
X42050500Y-17860268D01*
X42070185Y-17793229D01*
X42118205Y-17749783D01*
X42156715Y-17730162D01*
X42316275Y-17614235D01*
X42455735Y-17474775D01*
X42571662Y-17315215D01*
X42615486Y-17229203D01*
X42663460Y-17178409D01*
X42725971Y-17161500D01*
X47935500Y-17161500D01*
X48002539Y-17181185D01*
G37*
%TD.AperFunction*%
%TA.AperFunction,Conductor*%
G36*
X80002702Y-500617D02*
G01*
X80386771Y-517386D01*
X80397506Y-518326D01*
X80775971Y-568152D01*
X80786597Y-570025D01*
X81159284Y-652648D01*
X81169710Y-655442D01*
X81533765Y-770227D01*
X81543911Y-773920D01*
X81896578Y-920000D01*
X81906369Y-924566D01*
X82244942Y-1100816D01*
X82254310Y-1106224D01*
X82576244Y-1311318D01*
X82585105Y-1317523D01*
X82887930Y-1549889D01*
X82896217Y-1556843D01*
X83177635Y-1814715D01*
X83185284Y-1822364D01*
X83443156Y-2103782D01*
X83450110Y-2112069D01*
X83682476Y-2414894D01*
X83688681Y-2423755D01*
X83893775Y-2745689D01*
X83899183Y-2755057D01*
X84075430Y-3093623D01*
X84080002Y-3103427D01*
X84226075Y-3456078D01*
X84229775Y-3466244D01*
X84344554Y-3830278D01*
X84347354Y-3840727D01*
X84429971Y-4213389D01*
X84431849Y-4224042D01*
X84481671Y-4602473D01*
X84482614Y-4613249D01*
X84499382Y-4997297D01*
X84499500Y-5002706D01*
X84499500Y-44997293D01*
X84499382Y-45002702D01*
X84482614Y-45386750D01*
X84481671Y-45397526D01*
X84431849Y-45775957D01*
X84429971Y-45786610D01*
X84347354Y-46159272D01*
X84344554Y-46169721D01*
X84229775Y-46533755D01*
X84226075Y-46543921D01*
X84080002Y-46896572D01*
X84075430Y-46906376D01*
X83899183Y-47244942D01*
X83893775Y-47254310D01*
X83688681Y-47576244D01*
X83682476Y-47585105D01*
X83450110Y-47887930D01*
X83443156Y-47896217D01*
X83185284Y-48177635D01*
X83177635Y-48185284D01*
X82896217Y-48443156D01*
X82887930Y-48450110D01*
X82585105Y-48682476D01*
X82576244Y-48688681D01*
X82254310Y-48893775D01*
X82244942Y-48899183D01*
X81906376Y-49075430D01*
X81896572Y-49080002D01*
X81543921Y-49226075D01*
X81533755Y-49229775D01*
X81169721Y-49344554D01*
X81159272Y-49347354D01*
X80786610Y-49429971D01*
X80775957Y-49431849D01*
X80397526Y-49481671D01*
X80386750Y-49482614D01*
X80002703Y-49499382D01*
X79997294Y-49499500D01*
X32124000Y-49499500D01*
X32056961Y-49479815D01*
X32011206Y-49427011D01*
X32000000Y-49375500D01*
X32000000Y-44878711D01*
X78149500Y-44878711D01*
X78149500Y-45121288D01*
X78181161Y-45361785D01*
X78243947Y-45596104D01*
X78336773Y-45820205D01*
X78336776Y-45820212D01*
X78458064Y-46030289D01*
X78458066Y-46030292D01*
X78458067Y-46030293D01*
X78605733Y-46222736D01*
X78605739Y-46222743D01*
X78777256Y-46394260D01*
X78777262Y-46394265D01*
X78969711Y-46541936D01*
X79179788Y-46663224D01*
X79403900Y-46756054D01*
X79638211Y-46818838D01*
X79818586Y-46842584D01*
X79878711Y-46850500D01*
X79878712Y-46850500D01*
X80121289Y-46850500D01*
X80169388Y-46844167D01*
X80361789Y-46818838D01*
X80596100Y-46756054D01*
X80820212Y-46663224D01*
X81030289Y-46541936D01*
X81222738Y-46394265D01*
X81394265Y-46222738D01*
X81541936Y-46030289D01*
X81663224Y-45820212D01*
X81756054Y-45596100D01*
X81818838Y-45361789D01*
X81850500Y-45121288D01*
X81850500Y-44878712D01*
X81818838Y-44638211D01*
X81756054Y-44403900D01*
X81663224Y-44179788D01*
X81541936Y-43969711D01*
X81394265Y-43777262D01*
X81394260Y-43777256D01*
X81222743Y-43605739D01*
X81222736Y-43605733D01*
X81030293Y-43458067D01*
X81030292Y-43458066D01*
X81030289Y-43458064D01*
X80820212Y-43336776D01*
X80820205Y-43336773D01*
X80596104Y-43243947D01*
X80361785Y-43181161D01*
X80121289Y-43149500D01*
X80121288Y-43149500D01*
X79878712Y-43149500D01*
X79878711Y-43149500D01*
X79638214Y-43181161D01*
X79403895Y-43243947D01*
X79179794Y-43336773D01*
X79179785Y-43336777D01*
X78969706Y-43458067D01*
X78777263Y-43605733D01*
X78777256Y-43605739D01*
X78605739Y-43777256D01*
X78605733Y-43777263D01*
X78458067Y-43969706D01*
X78336777Y-44179785D01*
X78336773Y-44179794D01*
X78243947Y-44403895D01*
X78181161Y-44638214D01*
X78149500Y-44878711D01*
X32000000Y-44878711D01*
X32000000Y-37817388D01*
X73756500Y-37817388D01*
X73756500Y-38044611D01*
X73792042Y-38269020D01*
X73862257Y-38485116D01*
X73965408Y-38687559D01*
X74098960Y-38871377D01*
X74259623Y-39032040D01*
X74443441Y-39165592D01*
X74539088Y-39214326D01*
X74645883Y-39268742D01*
X74645885Y-39268742D01*
X74645888Y-39268744D01*
X74761717Y-39306379D01*
X74861979Y-39338957D01*
X75086389Y-39374500D01*
X75086394Y-39374500D01*
X75313611Y-39374500D01*
X75538020Y-39338957D01*
X75754112Y-39268744D01*
X75956559Y-39165592D01*
X76140377Y-39032040D01*
X76301040Y-38871377D01*
X76434592Y-38687559D01*
X76537744Y-38485112D01*
X76607957Y-38269020D01*
X76643500Y-38044611D01*
X76643500Y-37817388D01*
X76607957Y-37592979D01*
X76575379Y-37492717D01*
X76537744Y-37376888D01*
X76537742Y-37376885D01*
X76537742Y-37376883D01*
X76443647Y-37192213D01*
X76434592Y-37174441D01*
X76301040Y-36990623D01*
X76140377Y-36829960D01*
X75956559Y-36696408D01*
X75754116Y-36593257D01*
X75538020Y-36523042D01*
X75313611Y-36487500D01*
X75313606Y-36487500D01*
X75086394Y-36487500D01*
X75086389Y-36487500D01*
X74861979Y-36523042D01*
X74645883Y-36593257D01*
X74443440Y-36696408D01*
X74382740Y-36740510D01*
X74259623Y-36829960D01*
X74259621Y-36829962D01*
X74259620Y-36829962D01*
X74098962Y-36990620D01*
X74098962Y-36990621D01*
X74098960Y-36990623D01*
X74092204Y-36999922D01*
X73965408Y-37174440D01*
X73862257Y-37376883D01*
X73792042Y-37592979D01*
X73756500Y-37817388D01*
X32000000Y-37817388D01*
X32000000Y-21708389D01*
X33397500Y-21708389D01*
X33397500Y-21881611D01*
X33398467Y-21887714D01*
X33423928Y-22048475D01*
X33424598Y-22052701D01*
X33478127Y-22217445D01*
X33556768Y-22371788D01*
X33658586Y-22511928D01*
X33781072Y-22634414D01*
X33921212Y-22736232D01*
X34075555Y-22814873D01*
X34240299Y-22868402D01*
X34411389Y-22895500D01*
X34411390Y-22895500D01*
X34584610Y-22895500D01*
X34584611Y-22895500D01*
X34755701Y-22868402D01*
X34920445Y-22814873D01*
X35074788Y-22736232D01*
X35214928Y-22634414D01*
X35337414Y-22511928D01*
X35421195Y-22396614D01*
X35476526Y-22353949D01*
X35521513Y-22345500D01*
X36291218Y-22345500D01*
X36332174Y-22352459D01*
X36336433Y-22353949D01*
X36347181Y-22357710D01*
X36362057Y-22359105D01*
X36376930Y-22360500D01*
X36376934Y-22360500D01*
X36823070Y-22360500D01*
X36836289Y-22359260D01*
X36852819Y-22357710D01*
X36864037Y-22353784D01*
X36867826Y-22352459D01*
X36908782Y-22345500D01*
X37377416Y-22345500D01*
X37444455Y-22365185D01*
X37490210Y-22417989D01*
X37500874Y-22481077D01*
X37499500Y-22495729D01*
X37499500Y-22904269D01*
X37502353Y-22934699D01*
X37502353Y-22934701D01*
X37547206Y-23062880D01*
X37547207Y-23062882D01*
X37627850Y-23172150D01*
X37737118Y-23252793D01*
X37750453Y-23257459D01*
X37865299Y-23297646D01*
X37895730Y-23300500D01*
X37895734Y-23300500D01*
X39029270Y-23300500D01*
X39059699Y-23297646D01*
X39098025Y-23284235D01*
X39174549Y-23257459D01*
X39215504Y-23250500D01*
X39660258Y-23250500D01*
X39727297Y-23270185D01*
X39773052Y-23322989D01*
X39782996Y-23392147D01*
X39777486Y-23414692D01*
X39777353Y-23415300D01*
X39774500Y-23445730D01*
X39774500Y-23854269D01*
X39777353Y-23884699D01*
X39777353Y-23884701D01*
X39822206Y-24012880D01*
X39822207Y-24012882D01*
X39902850Y-24122150D01*
X40012118Y-24202793D01*
X40103957Y-24234929D01*
X40160731Y-24275649D01*
X40186478Y-24340602D01*
X40187000Y-24351969D01*
X40187000Y-26332842D01*
X40167315Y-26399881D01*
X40136634Y-26432612D01*
X40025001Y-26515001D01*
X39946147Y-26621844D01*
X39902291Y-26747173D01*
X39902289Y-26747185D01*
X39899500Y-26776929D01*
X39899500Y-27223070D01*
X39902289Y-27252814D01*
X39902291Y-27252826D01*
X39946147Y-27378155D01*
X39946148Y-27378157D01*
X39995505Y-27445033D01*
X40025002Y-27485000D01*
X40136633Y-27567387D01*
X40178884Y-27623034D01*
X40187000Y-27667157D01*
X40187000Y-32709975D01*
X40216050Y-32818389D01*
X40216049Y-32818389D01*
X40224514Y-32849980D01*
X40224516Y-32849985D01*
X40296990Y-32975515D01*
X44061985Y-36740510D01*
X44187515Y-36812984D01*
X44327525Y-36850500D01*
X57543001Y-36850500D01*
X57610040Y-36870185D01*
X57655795Y-36922989D01*
X57667001Y-36974500D01*
X57667001Y-37344856D01*
X57667002Y-37344882D01*
X57669913Y-37369987D01*
X57669915Y-37369991D01*
X57715293Y-37472764D01*
X57715294Y-37472765D01*
X57794735Y-37552206D01*
X57897509Y-37597585D01*
X57922635Y-37600500D01*
X59917364Y-37600499D01*
X59917379Y-37600497D01*
X59917382Y-37600497D01*
X59942487Y-37597586D01*
X59942488Y-37597585D01*
X59942491Y-37597585D01*
X60045265Y-37552206D01*
X60124706Y-37472765D01*
X60170085Y-37369991D01*
X60173000Y-37344865D01*
X60172999Y-37112713D01*
X60192683Y-37045677D01*
X60245487Y-36999922D01*
X60314646Y-36989978D01*
X60378201Y-37019003D01*
X60397317Y-37039831D01*
X60508028Y-37192212D01*
X60508032Y-37192217D01*
X60652786Y-37336971D01*
X60807749Y-37449556D01*
X60818390Y-37457287D01*
X60934607Y-37516503D01*
X61000776Y-37550218D01*
X61000778Y-37550218D01*
X61000781Y-37550220D01*
X61105137Y-37584127D01*
X61195465Y-37613477D01*
X61296557Y-37629488D01*
X61397648Y-37645500D01*
X61397649Y-37645500D01*
X61602351Y-37645500D01*
X61602352Y-37645500D01*
X61804534Y-37613477D01*
X61999219Y-37550220D01*
X62181610Y-37457287D01*
X62301769Y-37369987D01*
X62347213Y-37336971D01*
X62347215Y-37336968D01*
X62347219Y-37336966D01*
X62491966Y-37192219D01*
X62491968Y-37192215D01*
X62491971Y-37192213D01*
X62549727Y-37112717D01*
X62612287Y-37026610D01*
X62705220Y-36844219D01*
X62768477Y-36649534D01*
X62800500Y-36447352D01*
X62800500Y-34090047D01*
X62820185Y-34023008D01*
X62836819Y-34002366D01*
X63502366Y-33336819D01*
X63563689Y-33303334D01*
X63590047Y-33300500D01*
X73123953Y-33300500D01*
X73190992Y-33320185D01*
X73211634Y-33336819D01*
X73815853Y-33941038D01*
X73846102Y-33990398D01*
X73862256Y-34040112D01*
X73965408Y-34242559D01*
X74098960Y-34426377D01*
X74259623Y-34587040D01*
X74443441Y-34720592D01*
X74539088Y-34769326D01*
X74645883Y-34823742D01*
X74645885Y-34823742D01*
X74645888Y-34823744D01*
X74761717Y-34861379D01*
X74861979Y-34893957D01*
X75086389Y-34929500D01*
X75086394Y-34929500D01*
X75313611Y-34929500D01*
X75538020Y-34893957D01*
X75594824Y-34875500D01*
X75754112Y-34823744D01*
X75956559Y-34720592D01*
X76140377Y-34587040D01*
X76301040Y-34426377D01*
X76434592Y-34242559D01*
X76537744Y-34040112D01*
X76607957Y-33824020D01*
X76643500Y-33599611D01*
X76643500Y-33372388D01*
X76607957Y-33147979D01*
X76560129Y-33000781D01*
X76537744Y-32931888D01*
X76537742Y-32931885D01*
X76537742Y-32931883D01*
X76434591Y-32729440D01*
X76420449Y-32709975D01*
X76301040Y-32545623D01*
X76140377Y-32384960D01*
X75956559Y-32251408D01*
X75754112Y-32148256D01*
X75733925Y-32141696D01*
X75704398Y-32132102D01*
X75655038Y-32101853D01*
X74561221Y-31008036D01*
X74561219Y-31008034D01*
X74395611Y-30887713D01*
X74266333Y-30821843D01*
X74213223Y-30794781D01*
X74150078Y-30774264D01*
X74115876Y-30763151D01*
X74092003Y-30755394D01*
X74018535Y-30731522D01*
X73843995Y-30703878D01*
X73816352Y-30699500D01*
X62897648Y-30699500D01*
X62873329Y-30703351D01*
X62695465Y-30731522D01*
X62500776Y-30794781D01*
X62447667Y-30821843D01*
X62318388Y-30887713D01*
X62152778Y-31008036D01*
X60508036Y-32652778D01*
X60387716Y-32818384D01*
X60387708Y-32818397D01*
X60365203Y-32862565D01*
X60365204Y-32862566D01*
X60294332Y-33001658D01*
X60293272Y-33005420D01*
X60231522Y-33195467D01*
X60219959Y-33268477D01*
X60199500Y-33397648D01*
X60199500Y-34925594D01*
X60179815Y-34992633D01*
X60127011Y-35038388D01*
X60057853Y-35048332D01*
X60025414Y-35039029D01*
X60023962Y-35038388D01*
X59942491Y-35002415D01*
X59936209Y-35001686D01*
X59917368Y-34999500D01*
X59917365Y-34999500D01*
X59684500Y-34999500D01*
X59617461Y-34979815D01*
X59571706Y-34927011D01*
X59560500Y-34875500D01*
X59560500Y-28169499D01*
X59580185Y-28102460D01*
X59632989Y-28056705D01*
X59684500Y-28045499D01*
X59957356Y-28045499D01*
X59957364Y-28045499D01*
X59957379Y-28045497D01*
X59957382Y-28045497D01*
X59982487Y-28042586D01*
X59982488Y-28042585D01*
X59982491Y-28042585D01*
X60085265Y-27997206D01*
X60164706Y-27917765D01*
X60210085Y-27814991D01*
X60213000Y-27789865D01*
X60212999Y-27567769D01*
X60232683Y-27500732D01*
X60285487Y-27454977D01*
X60354645Y-27445033D01*
X60418201Y-27474058D01*
X60437317Y-27494886D01*
X60508028Y-27592212D01*
X60508032Y-27592217D01*
X60652786Y-27736971D01*
X60807749Y-27849556D01*
X60818390Y-27857287D01*
X60934607Y-27916503D01*
X61000776Y-27950218D01*
X61000778Y-27950218D01*
X61000781Y-27950220D01*
X61105137Y-27984127D01*
X61195465Y-28013477D01*
X61296557Y-28029488D01*
X61397648Y-28045500D01*
X61397649Y-28045500D01*
X61602351Y-28045500D01*
X61602352Y-28045500D01*
X61804534Y-28013477D01*
X61999219Y-27950220D01*
X62181610Y-27857287D01*
X62276690Y-27788208D01*
X62347213Y-27736971D01*
X62347215Y-27736968D01*
X62347219Y-27736966D01*
X62491966Y-27592219D01*
X62491968Y-27592215D01*
X62491971Y-27592213D01*
X62544732Y-27519590D01*
X62612287Y-27426610D01*
X62705220Y-27244219D01*
X62768477Y-27049534D01*
X62800500Y-26847352D01*
X62800500Y-24845047D01*
X62820185Y-24778008D01*
X62836819Y-24757366D01*
X63257366Y-24336819D01*
X63318689Y-24303334D01*
X63345047Y-24300500D01*
X72409953Y-24300500D01*
X72476992Y-24320185D01*
X72497634Y-24336819D01*
X73863181Y-25702365D01*
X73896666Y-25763688D01*
X73899500Y-25790046D01*
X73899500Y-26479022D01*
X73885985Y-26535317D01*
X73862257Y-26581883D01*
X73792042Y-26797979D01*
X73756500Y-27022388D01*
X73756500Y-27249611D01*
X73792042Y-27474020D01*
X73862257Y-27690116D01*
X73947434Y-27857284D01*
X73965408Y-27892559D01*
X74098960Y-28076377D01*
X74259623Y-28237040D01*
X74443441Y-28370592D01*
X74539088Y-28419326D01*
X74645883Y-28473742D01*
X74645885Y-28473742D01*
X74645888Y-28473744D01*
X74761717Y-28511379D01*
X74861979Y-28543957D01*
X75086389Y-28579500D01*
X75086394Y-28579500D01*
X75313611Y-28579500D01*
X75538020Y-28543957D01*
X75563866Y-28535559D01*
X75754112Y-28473744D01*
X75956559Y-28370592D01*
X76140377Y-28237040D01*
X76301040Y-28076377D01*
X76434592Y-27892559D01*
X76537744Y-27690112D01*
X76607957Y-27474020D01*
X76612548Y-27445033D01*
X76643500Y-27249611D01*
X76643500Y-27022388D01*
X76607957Y-26797979D01*
X76575379Y-26697717D01*
X76537744Y-26581888D01*
X76537742Y-26581885D01*
X76537742Y-26581883D01*
X76514015Y-26535317D01*
X76500500Y-26479022D01*
X76500500Y-25097648D01*
X76479968Y-24968015D01*
X76468477Y-24895466D01*
X76457000Y-24860145D01*
X76451262Y-24842484D01*
X76409395Y-24713632D01*
X76405220Y-24700782D01*
X76405220Y-24700781D01*
X76358753Y-24609585D01*
X76312287Y-24518389D01*
X76252126Y-24435585D01*
X76252126Y-24435584D01*
X76252124Y-24435583D01*
X76224424Y-24397456D01*
X76191971Y-24352787D01*
X76191968Y-24352784D01*
X76191966Y-24352781D01*
X76047219Y-24208034D01*
X76047218Y-24208033D01*
X76044107Y-24204922D01*
X76044092Y-24204908D01*
X73847221Y-22008036D01*
X73847220Y-22008035D01*
X73847219Y-22008034D01*
X73681611Y-21887713D01*
X73553571Y-21822474D01*
X73553569Y-21822472D01*
X73517336Y-21804011D01*
X73499219Y-21794780D01*
X73401876Y-21763151D01*
X73378003Y-21755394D01*
X73304535Y-21731522D01*
X73129995Y-21703878D01*
X73102352Y-21699500D01*
X62857352Y-21699500D01*
X62652648Y-21699500D01*
X62596526Y-21708389D01*
X62450463Y-21731523D01*
X62353123Y-21763150D01*
X62353123Y-21763151D01*
X62255781Y-21794780D01*
X62255779Y-21794780D01*
X62255779Y-21794781D01*
X62201428Y-21822473D01*
X62201429Y-21822474D01*
X62073387Y-21887714D01*
X62073384Y-21887716D01*
X61907778Y-22008036D01*
X60508036Y-23407778D01*
X60387713Y-23573388D01*
X60341246Y-23664585D01*
X60341245Y-23664584D01*
X60294779Y-23755781D01*
X60272936Y-23823010D01*
X60231522Y-23950467D01*
X60209785Y-24087713D01*
X60199500Y-24152648D01*
X60199500Y-25352932D01*
X60179815Y-25419971D01*
X60127011Y-25465726D01*
X60057853Y-25475670D01*
X60025415Y-25466367D01*
X59982492Y-25447415D01*
X59957365Y-25444500D01*
X57962643Y-25444500D01*
X57962617Y-25444502D01*
X57937512Y-25447413D01*
X57937508Y-25447415D01*
X57834735Y-25492793D01*
X57755294Y-25572234D01*
X57709915Y-25675006D01*
X57709915Y-25675008D01*
X57707000Y-25700131D01*
X57707000Y-27789856D01*
X57707002Y-27789882D01*
X57709913Y-27814987D01*
X57709915Y-27814991D01*
X57755293Y-27917764D01*
X57755294Y-27917765D01*
X57834735Y-27997206D01*
X57937509Y-28042585D01*
X57962635Y-28045500D01*
X58235501Y-28045499D01*
X58302539Y-28065183D01*
X58348294Y-28117987D01*
X58359500Y-28169499D01*
X58359500Y-34875500D01*
X58339815Y-34942539D01*
X58287011Y-34988294D01*
X58235500Y-34999500D01*
X57922643Y-34999500D01*
X57922617Y-34999502D01*
X57897512Y-35002413D01*
X57897508Y-35002415D01*
X57794735Y-35047793D01*
X57715294Y-35127234D01*
X57669915Y-35230006D01*
X57669915Y-35230008D01*
X57667000Y-35255131D01*
X57667000Y-35625500D01*
X57647315Y-35692539D01*
X57594511Y-35738294D01*
X57543000Y-35749500D01*
X44679387Y-35749500D01*
X44612348Y-35729815D01*
X44591706Y-35713181D01*
X41324319Y-32445794D01*
X41290834Y-32384471D01*
X41288000Y-32358113D01*
X41288000Y-24351969D01*
X41307685Y-24284930D01*
X41360489Y-24239175D01*
X41371025Y-24234934D01*
X41462882Y-24202793D01*
X41572150Y-24122150D01*
X41652793Y-24012882D01*
X41691014Y-23903653D01*
X41697646Y-23884701D01*
X41697646Y-23884699D01*
X41700500Y-23854269D01*
X41700500Y-23445730D01*
X41697646Y-23415300D01*
X41696036Y-23407927D01*
X41697301Y-23407650D01*
X41694139Y-23345673D01*
X41728870Y-23285046D01*
X41790864Y-23252821D01*
X41814742Y-23250500D01*
X42420613Y-23250500D01*
X42487652Y-23270185D01*
X42508294Y-23286819D01*
X44661985Y-25440510D01*
X44752545Y-25492794D01*
X44787515Y-25512984D01*
X44927525Y-25550500D01*
X44927528Y-25550500D01*
X47523331Y-25550500D01*
X47523333Y-25550500D01*
X47523334Y-25550500D01*
X47663344Y-25512984D01*
X47698314Y-25492794D01*
X47788874Y-25440510D01*
X49240509Y-23988874D01*
X49288113Y-23906422D01*
X49338680Y-23858206D01*
X49407287Y-23844984D01*
X49472152Y-23870952D01*
X49512680Y-23927866D01*
X49519500Y-23968422D01*
X49519500Y-24350613D01*
X49499815Y-24417652D01*
X49483181Y-24438294D01*
X48359491Y-25561983D01*
X48359489Y-25561985D01*
X48322626Y-25625837D01*
X48322625Y-25625838D01*
X48287017Y-25687512D01*
X48287016Y-25687513D01*
X48273305Y-25738684D01*
X48249500Y-25827525D01*
X48249500Y-25827527D01*
X48249500Y-26437026D01*
X48229815Y-26504065D01*
X48177011Y-26549820D01*
X48107853Y-26559764D01*
X48044297Y-26530739D01*
X48025730Y-26510660D01*
X48024351Y-26508792D01*
X48002150Y-26478710D01*
X47892882Y-26398067D01*
X47892880Y-26398066D01*
X47764700Y-26353213D01*
X47734270Y-26350360D01*
X47734266Y-26350360D01*
X47325734Y-26350360D01*
X47325730Y-26350360D01*
X47295300Y-26353213D01*
X47295298Y-26353213D01*
X47167119Y-26398066D01*
X47167117Y-26398067D01*
X47057850Y-26478710D01*
X46977207Y-26587977D01*
X46977206Y-26587979D01*
X46932353Y-26716158D01*
X46932353Y-26716160D01*
X46929500Y-26746590D01*
X46929500Y-28505129D01*
X46932353Y-28535559D01*
X46932353Y-28535561D01*
X46977206Y-28663740D01*
X46977209Y-28663746D01*
X47055270Y-28769515D01*
X47062725Y-28789927D01*
X47074477Y-28808213D01*
X47077770Y-28831117D01*
X47079241Y-28835144D01*
X47079500Y-28843148D01*
X47079500Y-28931863D01*
X47059815Y-28998902D01*
X47055270Y-29005497D01*
X46976147Y-29112704D01*
X46932291Y-29238033D01*
X46932289Y-29238045D01*
X46929500Y-29267789D01*
X46929500Y-29653930D01*
X46932289Y-29683674D01*
X46932291Y-29683686D01*
X46976147Y-29809015D01*
X46976148Y-29809017D01*
X47055001Y-29915859D01*
X47161843Y-29994712D01*
X47200003Y-30008064D01*
X47287173Y-30038568D01*
X47287177Y-30038568D01*
X47287181Y-30038570D01*
X47302057Y-30039965D01*
X47316930Y-30041360D01*
X47316934Y-30041360D01*
X47763070Y-30041360D01*
X47776289Y-30040120D01*
X47792819Y-30038570D01*
X47792823Y-30038568D01*
X47792826Y-30038568D01*
X47841836Y-30021417D01*
X47918157Y-29994712D01*
X48024999Y-29915859D01*
X48103852Y-29809017D01*
X48147710Y-29683679D01*
X48150500Y-29653926D01*
X48150500Y-29267794D01*
X48147710Y-29238041D01*
X48147708Y-29238037D01*
X48147708Y-29238033D01*
X48103852Y-29112704D01*
X48103852Y-29112703D01*
X48024999Y-29005861D01*
X48024995Y-29005858D01*
X48018425Y-28999287D01*
X48019495Y-28998217D01*
X48006913Y-28978640D01*
X47988602Y-28954507D01*
X47987479Y-28948399D01*
X47985523Y-28945355D01*
X47980500Y-28910420D01*
X47980500Y-28843148D01*
X48000185Y-28776109D01*
X48004729Y-28769515D01*
X48065231Y-28687537D01*
X48120876Y-28645288D01*
X48190533Y-28639829D01*
X48252082Y-28672896D01*
X48264763Y-28687530D01*
X48327850Y-28773010D01*
X48437118Y-28853653D01*
X48479845Y-28868604D01*
X48565299Y-28898506D01*
X48595730Y-28901360D01*
X48595734Y-28901360D01*
X49004270Y-28901360D01*
X49034699Y-28898506D01*
X49034701Y-28898506D01*
X49098790Y-28876079D01*
X49162882Y-28853653D01*
X49272150Y-28773010D01*
X49335231Y-28687537D01*
X49390877Y-28645288D01*
X49460533Y-28639829D01*
X49522083Y-28672896D01*
X49534763Y-28687530D01*
X49597850Y-28773010D01*
X49707118Y-28853653D01*
X49749845Y-28868604D01*
X49835299Y-28898506D01*
X49865730Y-28901360D01*
X49865734Y-28901360D01*
X50274270Y-28901360D01*
X50304699Y-28898506D01*
X50304701Y-28898506D01*
X50368790Y-28876079D01*
X50432882Y-28853653D01*
X50542150Y-28773010D01*
X50565731Y-28741058D01*
X50621377Y-28698809D01*
X50691033Y-28693350D01*
X50752582Y-28726417D01*
X50786484Y-28787511D01*
X50789500Y-28814693D01*
X50789500Y-29179932D01*
X50769815Y-29246971D01*
X50764304Y-29254857D01*
X50737636Y-29290023D01*
X50684640Y-29424411D01*
X50679065Y-29470841D01*
X50674500Y-29508856D01*
X50674500Y-30091144D01*
X50679825Y-30135494D01*
X50684640Y-30175588D01*
X50737636Y-30309976D01*
X50824918Y-30425073D01*
X50824922Y-30425078D01*
X50825425Y-30425459D01*
X50825767Y-30425923D01*
X50830917Y-30431072D01*
X50830143Y-30431845D01*
X50866948Y-30481650D01*
X50874500Y-30524263D01*
X50874500Y-31051534D01*
X50874500Y-31196482D01*
X50912016Y-31336493D01*
X50912017Y-31336494D01*
X50914120Y-31344343D01*
X50913129Y-31344608D01*
X50920492Y-31381620D01*
X50920492Y-31423070D01*
X50923281Y-31452814D01*
X50923283Y-31452826D01*
X50967139Y-31578155D01*
X50967140Y-31578157D01*
X51045993Y-31684999D01*
X51152835Y-31763852D01*
X51190995Y-31777204D01*
X51278165Y-31807708D01*
X51278169Y-31807708D01*
X51278173Y-31807710D01*
X51293049Y-31809105D01*
X51307922Y-31810500D01*
X51307926Y-31810500D01*
X51694062Y-31810500D01*
X51707281Y-31809260D01*
X51723811Y-31807710D01*
X51723815Y-31807708D01*
X51723818Y-31807708D01*
X51772828Y-31790557D01*
X51849149Y-31763852D01*
X51955991Y-31684999D01*
X52034844Y-31578157D01*
X52078702Y-31452819D01*
X52081492Y-31423066D01*
X52081492Y-30976934D01*
X52078702Y-30947181D01*
X52078700Y-30947177D01*
X52078700Y-30947173D01*
X52034844Y-30821843D01*
X51999728Y-30774262D01*
X51992272Y-30753849D01*
X51980523Y-30735566D01*
X51977229Y-30712662D01*
X51975759Y-30708635D01*
X51975500Y-30700631D01*
X51975500Y-30524263D01*
X51995185Y-30457224D01*
X52019238Y-30431227D01*
X52019083Y-30431072D01*
X52023074Y-30427080D01*
X52024573Y-30425460D01*
X52025078Y-30425078D01*
X52112364Y-30309975D01*
X52165359Y-30175590D01*
X52175500Y-30091144D01*
X52175500Y-29508856D01*
X52165359Y-29424410D01*
X52112364Y-29290025D01*
X52112363Y-29290024D01*
X52112363Y-29290023D01*
X52025079Y-29174923D01*
X51943030Y-29112703D01*
X51939573Y-29110081D01*
X51898051Y-29053889D01*
X51890500Y-29011278D01*
X51890500Y-28691363D01*
X51897459Y-28650408D01*
X51937645Y-28535561D01*
X51937646Y-28535559D01*
X51940500Y-28505129D01*
X51940500Y-27855247D01*
X51960185Y-27788208D01*
X51976819Y-27767566D01*
X53194565Y-26549820D01*
X54440510Y-25303875D01*
X54512984Y-25178345D01*
X54550500Y-25038334D01*
X54550500Y-24893386D01*
X54550500Y-17927525D01*
X54512984Y-17787515D01*
X54479871Y-17730162D01*
X54440510Y-17661986D01*
X52949015Y-16170490D01*
X52823485Y-16098016D01*
X52823486Y-16098016D01*
X52714592Y-16068838D01*
X52714592Y-16068837D01*
X52683475Y-16060500D01*
X48672475Y-16060500D01*
X42725971Y-16060500D01*
X42658932Y-16040815D01*
X42615486Y-15992795D01*
X42571661Y-15906784D01*
X42455735Y-15747225D01*
X42316275Y-15607765D01*
X42156715Y-15491838D01*
X41980982Y-15402297D01*
X41793413Y-15341353D01*
X41598618Y-15310500D01*
X41598613Y-15310500D01*
X41401387Y-15310500D01*
X41401382Y-15310500D01*
X41206586Y-15341353D01*
X41019017Y-15402297D01*
X40843284Y-15491838D01*
X40683722Y-15607767D01*
X40544267Y-15747222D01*
X40428338Y-15906784D01*
X40338797Y-16082517D01*
X40277853Y-16270086D01*
X40247000Y-16464881D01*
X40247000Y-16757118D01*
X40277853Y-16951913D01*
X40338797Y-17139482D01*
X40386951Y-17233989D01*
X40428338Y-17315215D01*
X40544265Y-17474775D01*
X40683725Y-17614235D01*
X40843285Y-17730162D01*
X40881794Y-17749783D01*
X40932590Y-17797756D01*
X40949500Y-17860268D01*
X40949500Y-18505506D01*
X40943680Y-18539756D01*
X40943901Y-18539805D01*
X40942872Y-18544513D01*
X40942542Y-18546460D01*
X40942290Y-18547177D01*
X40942289Y-18547185D01*
X40939500Y-18576929D01*
X40939500Y-19023070D01*
X40942289Y-19052814D01*
X40942289Y-19052818D01*
X40942290Y-19052819D01*
X40958152Y-19098151D01*
X40962541Y-19110692D01*
X40963235Y-19114781D01*
X40964477Y-19116713D01*
X40969500Y-19151648D01*
X40969500Y-19325500D01*
X40949815Y-19392539D01*
X40897011Y-19438294D01*
X40845500Y-19449500D01*
X37159222Y-19449500D01*
X37092183Y-19429815D01*
X37046428Y-19377011D01*
X37036484Y-19307853D01*
X37059452Y-19251866D01*
X37113852Y-19178157D01*
X37157710Y-19052819D01*
X37160500Y-19023066D01*
X37160500Y-18576934D01*
X37157710Y-18547181D01*
X37157707Y-18547173D01*
X37157458Y-18546460D01*
X37157127Y-18544513D01*
X37156099Y-18539805D01*
X37156319Y-18539756D01*
X37150500Y-18505506D01*
X37150500Y-18035499D01*
X37170185Y-17968460D01*
X37222989Y-17922705D01*
X37274500Y-17911499D01*
X37417356Y-17911499D01*
X37417364Y-17911499D01*
X37417379Y-17911497D01*
X37417382Y-17911497D01*
X37442487Y-17908586D01*
X37442488Y-17908585D01*
X37442491Y-17908585D01*
X37545265Y-17863206D01*
X37624706Y-17783765D01*
X37670085Y-17680991D01*
X37673000Y-17655865D01*
X37672999Y-15566136D01*
X37672997Y-15566117D01*
X37670086Y-15541012D01*
X37670085Y-15541010D01*
X37670085Y-15541009D01*
X37624706Y-15438235D01*
X37545265Y-15358794D01*
X37505765Y-15341353D01*
X37442492Y-15313415D01*
X37417368Y-15310500D01*
X37417365Y-15310500D01*
X37094500Y-15310500D01*
X37027461Y-15290815D01*
X36981706Y-15238011D01*
X36970500Y-15186500D01*
X36970500Y-12573385D01*
X36990185Y-12506346D01*
X37006814Y-12485709D01*
X41102302Y-8390220D01*
X41163623Y-8356737D01*
X41228298Y-8359971D01*
X41321114Y-8390130D01*
X41375979Y-8407957D01*
X41600389Y-8443500D01*
X41600394Y-8443500D01*
X41827611Y-8443500D01*
X42052020Y-8407957D01*
X42106602Y-8390222D01*
X42268112Y-8337744D01*
X42271498Y-8336019D01*
X42275546Y-8333955D01*
X42470559Y-8234592D01*
X42654377Y-8101040D01*
X42815040Y-7940377D01*
X42948592Y-7756559D01*
X43051744Y-7554112D01*
X43121957Y-7338020D01*
X43157500Y-7113611D01*
X43157500Y-6886388D01*
X43121957Y-6661979D01*
X43051742Y-6445883D01*
X42948591Y-6243440D01*
X42933550Y-6222738D01*
X42815040Y-6059623D01*
X42654377Y-5898960D01*
X42470559Y-5765408D01*
X42268116Y-5662257D01*
X42052020Y-5592042D01*
X41827611Y-5556500D01*
X41827606Y-5556500D01*
X41600394Y-5556500D01*
X41600389Y-5556500D01*
X41375979Y-5592042D01*
X41159883Y-5662257D01*
X40957440Y-5765408D01*
X40882010Y-5820212D01*
X40773623Y-5898960D01*
X40773621Y-5898962D01*
X40773620Y-5898962D01*
X40612962Y-6059620D01*
X40612962Y-6059621D01*
X40612960Y-6059623D01*
X40555604Y-6138565D01*
X40479408Y-6243440D01*
X40376257Y-6445883D01*
X40306042Y-6661979D01*
X40270500Y-6886388D01*
X40270500Y-7113611D01*
X40306043Y-7338021D01*
X40306043Y-7338024D01*
X40354026Y-7485699D01*
X40356021Y-7555540D01*
X40323776Y-7611698D01*
X35979491Y-11955983D01*
X35979489Y-11955986D01*
X35907016Y-12081514D01*
X35907016Y-12081515D01*
X35869500Y-12221525D01*
X35869500Y-12221527D01*
X35869500Y-15186500D01*
X35849815Y-15253539D01*
X35797011Y-15299294D01*
X35745500Y-15310500D01*
X35422643Y-15310500D01*
X35422617Y-15310502D01*
X35397512Y-15313413D01*
X35397508Y-15313415D01*
X35294735Y-15358793D01*
X35215294Y-15438234D01*
X35169915Y-15541006D01*
X35169915Y-15541008D01*
X35167000Y-15566131D01*
X35167000Y-17655856D01*
X35167002Y-17655882D01*
X35169913Y-17680987D01*
X35169915Y-17680991D01*
X35215293Y-17783764D01*
X35215294Y-17783765D01*
X35294735Y-17863206D01*
X35397509Y-17908585D01*
X35422635Y-17911500D01*
X35925500Y-17911499D01*
X35992539Y-17931183D01*
X36038294Y-17983987D01*
X36049500Y-18035499D01*
X36049500Y-18391193D01*
X36042541Y-18432148D01*
X36002291Y-18547173D01*
X36002289Y-18547185D01*
X35999500Y-18576929D01*
X35999500Y-19023070D01*
X36002289Y-19052814D01*
X36002291Y-19052826D01*
X36046147Y-19178155D01*
X36046148Y-19178157D01*
X36125001Y-19284999D01*
X36231843Y-19363852D01*
X36269449Y-19377011D01*
X36357173Y-19407708D01*
X36357177Y-19407708D01*
X36357181Y-19407710D01*
X36372057Y-19409105D01*
X36386930Y-19410500D01*
X36511613Y-19410500D01*
X36578652Y-19430185D01*
X36624407Y-19482989D01*
X36634351Y-19552147D01*
X36605326Y-19615703D01*
X36599294Y-19622181D01*
X36159491Y-20061983D01*
X36159489Y-20061986D01*
X36087016Y-20187514D01*
X36087016Y-20187515D01*
X36049500Y-20327525D01*
X36049500Y-20327527D01*
X36049500Y-20415826D01*
X36037898Y-20462611D01*
X36039216Y-20463073D01*
X35992291Y-20597173D01*
X35992289Y-20597185D01*
X35989500Y-20626929D01*
X35989500Y-21013070D01*
X35992289Y-21042814D01*
X35992290Y-21042821D01*
X36005141Y-21079546D01*
X36008702Y-21149324D01*
X35973973Y-21209952D01*
X35911980Y-21242179D01*
X35888099Y-21244500D01*
X35521513Y-21244500D01*
X35454474Y-21224815D01*
X35421195Y-21193386D01*
X35362922Y-21113181D01*
X35337414Y-21078072D01*
X35214928Y-20955586D01*
X35074788Y-20853768D01*
X34920445Y-20775127D01*
X34755701Y-20721598D01*
X34755699Y-20721597D01*
X34755698Y-20721597D01*
X34624271Y-20700781D01*
X34584611Y-20694500D01*
X34411389Y-20694500D01*
X34371728Y-20700781D01*
X34240302Y-20721597D01*
X34075552Y-20775128D01*
X33921211Y-20853768D01*
X33841256Y-20911859D01*
X33781072Y-20955586D01*
X33781070Y-20955588D01*
X33781069Y-20955588D01*
X33658588Y-21078069D01*
X33658588Y-21078070D01*
X33658586Y-21078072D01*
X33633078Y-21113181D01*
X33556768Y-21218211D01*
X33478128Y-21372552D01*
X33478127Y-21372554D01*
X33478127Y-21372555D01*
X33473395Y-21387118D01*
X33424597Y-21537302D01*
X33398908Y-21699500D01*
X33397500Y-21708389D01*
X32000000Y-21708389D01*
X32000000Y-6886388D01*
X35825500Y-6886388D01*
X35825500Y-7113611D01*
X35861042Y-7338020D01*
X35931257Y-7554116D01*
X36034408Y-7756559D01*
X36167960Y-7940377D01*
X36328623Y-8101040D01*
X36512441Y-8234592D01*
X36608088Y-8283326D01*
X36714883Y-8337742D01*
X36714885Y-8337742D01*
X36714888Y-8337744D01*
X36830717Y-8375379D01*
X36930979Y-8407957D01*
X37155389Y-8443500D01*
X37155394Y-8443500D01*
X37382611Y-8443500D01*
X37607020Y-8407957D01*
X37661602Y-8390222D01*
X37823112Y-8337744D01*
X37826498Y-8336019D01*
X37830546Y-8333955D01*
X38025559Y-8234592D01*
X38209377Y-8101040D01*
X38370040Y-7940377D01*
X38503592Y-7756559D01*
X38606744Y-7554112D01*
X38676957Y-7338020D01*
X38712500Y-7113611D01*
X38712500Y-6886388D01*
X38676957Y-6661979D01*
X38606742Y-6445883D01*
X38503591Y-6243440D01*
X38488550Y-6222738D01*
X38370040Y-6059623D01*
X38209377Y-5898960D01*
X38025559Y-5765408D01*
X37823116Y-5662257D01*
X37607020Y-5592042D01*
X37382611Y-5556500D01*
X37382606Y-5556500D01*
X37155394Y-5556500D01*
X37155389Y-5556500D01*
X36930979Y-5592042D01*
X36714883Y-5662257D01*
X36512440Y-5765408D01*
X36437010Y-5820212D01*
X36328623Y-5898960D01*
X36328621Y-5898962D01*
X36328620Y-5898962D01*
X36167962Y-6059620D01*
X36167962Y-6059621D01*
X36167960Y-6059623D01*
X36110604Y-6138565D01*
X36034408Y-6243440D01*
X35931257Y-6445883D01*
X35861042Y-6661979D01*
X35825500Y-6886388D01*
X32000000Y-6886388D01*
X32000000Y-4878711D01*
X78149500Y-4878711D01*
X78149500Y-5121288D01*
X78181161Y-5361785D01*
X78243947Y-5596104D01*
X78271349Y-5662257D01*
X78336776Y-5820212D01*
X78458064Y-6030289D01*
X78458066Y-6030292D01*
X78458067Y-6030293D01*
X78605733Y-6222736D01*
X78605739Y-6222743D01*
X78777256Y-6394260D01*
X78777263Y-6394266D01*
X78890321Y-6481018D01*
X78969711Y-6541936D01*
X79179788Y-6663224D01*
X79403900Y-6756054D01*
X79638211Y-6818838D01*
X79818586Y-6842584D01*
X79878711Y-6850500D01*
X79878712Y-6850500D01*
X80121289Y-6850500D01*
X80169388Y-6844167D01*
X80361789Y-6818838D01*
X80596100Y-6756054D01*
X80820212Y-6663224D01*
X81030289Y-6541936D01*
X81222738Y-6394265D01*
X81394265Y-6222738D01*
X81541936Y-6030289D01*
X81663224Y-5820212D01*
X81756054Y-5596100D01*
X81818838Y-5361789D01*
X81850500Y-5121288D01*
X81850500Y-4878712D01*
X81818838Y-4638211D01*
X81756054Y-4403900D01*
X81663224Y-4179788D01*
X81541936Y-3969711D01*
X81394265Y-3777262D01*
X81394260Y-3777256D01*
X81222743Y-3605739D01*
X81222736Y-3605733D01*
X81030293Y-3458067D01*
X81030292Y-3458066D01*
X81030289Y-3458064D01*
X80820212Y-3336776D01*
X80820205Y-3336773D01*
X80596104Y-3243947D01*
X80361785Y-3181161D01*
X80121289Y-3149500D01*
X80121288Y-3149500D01*
X79878712Y-3149500D01*
X79878711Y-3149500D01*
X79638214Y-3181161D01*
X79403895Y-3243947D01*
X79179794Y-3336773D01*
X79179785Y-3336777D01*
X78969706Y-3458067D01*
X78777263Y-3605733D01*
X78777256Y-3605739D01*
X78605739Y-3777256D01*
X78605733Y-3777263D01*
X78458067Y-3969706D01*
X78336777Y-4179785D01*
X78336773Y-4179794D01*
X78243947Y-4403895D01*
X78181161Y-4638214D01*
X78149500Y-4878711D01*
X32000000Y-4878711D01*
X32000000Y-624500D01*
X32019685Y-557461D01*
X32072489Y-511706D01*
X32124000Y-500500D01*
X79934108Y-500500D01*
X79997294Y-500500D01*
X80002702Y-500617D01*
G37*
%TD.AperFunction*%
%TD*%
%TA.AperFunction,Conductor*%
%TO.N,GNDPWR*%
G36*
X28943039Y-520185D02*
G01*
X28988794Y-572989D01*
X29000000Y-624500D01*
X29000000Y-49375500D01*
X28980315Y-49442539D01*
X28927511Y-49488294D01*
X28876000Y-49499500D01*
X5002706Y-49499500D01*
X4997297Y-49499382D01*
X4613249Y-49482614D01*
X4602473Y-49481671D01*
X4224042Y-49431849D01*
X4213389Y-49429971D01*
X3840727Y-49347354D01*
X3830278Y-49344554D01*
X3466244Y-49229775D01*
X3456078Y-49226075D01*
X3103427Y-49080002D01*
X3093623Y-49075430D01*
X2755057Y-48899183D01*
X2745689Y-48893775D01*
X2423755Y-48688681D01*
X2414894Y-48682476D01*
X2112069Y-48450110D01*
X2103782Y-48443156D01*
X1822364Y-48185284D01*
X1814715Y-48177635D01*
X1556843Y-47896217D01*
X1549889Y-47887930D01*
X1317523Y-47585105D01*
X1311318Y-47576244D01*
X1106224Y-47254310D01*
X1100816Y-47244942D01*
X924569Y-46906376D01*
X919997Y-46896572D01*
X773920Y-46543911D01*
X770224Y-46533755D01*
X655442Y-46169710D01*
X652648Y-46159284D01*
X570025Y-45786597D01*
X568152Y-45775971D01*
X518326Y-45397506D01*
X517386Y-45386771D01*
X500618Y-45002702D01*
X500500Y-44997293D01*
X500500Y-44878711D01*
X3149500Y-44878711D01*
X3149500Y-45121288D01*
X3181161Y-45361785D01*
X3243947Y-45596104D01*
X3336773Y-45820205D01*
X3336776Y-45820212D01*
X3458064Y-46030289D01*
X3458066Y-46030292D01*
X3458067Y-46030293D01*
X3605733Y-46222736D01*
X3605739Y-46222743D01*
X3777256Y-46394260D01*
X3777262Y-46394265D01*
X3969711Y-46541936D01*
X4179788Y-46663224D01*
X4403900Y-46756054D01*
X4638211Y-46818838D01*
X4818586Y-46842584D01*
X4878711Y-46850500D01*
X4878712Y-46850500D01*
X5121289Y-46850500D01*
X5169388Y-46844167D01*
X5361789Y-46818838D01*
X5596100Y-46756054D01*
X5820212Y-46663224D01*
X6030289Y-46541936D01*
X6222738Y-46394265D01*
X6394265Y-46222738D01*
X6541936Y-46030289D01*
X6663224Y-45820212D01*
X6756054Y-45596100D01*
X6818838Y-45361789D01*
X6850500Y-45121288D01*
X6850500Y-44878712D01*
X6818838Y-44638211D01*
X6756054Y-44403900D01*
X6663224Y-44179788D01*
X6541936Y-43969711D01*
X6394265Y-43777262D01*
X6394260Y-43777256D01*
X6222743Y-43605739D01*
X6222736Y-43605733D01*
X6030293Y-43458067D01*
X6030292Y-43458066D01*
X6030289Y-43458064D01*
X5820212Y-43336776D01*
X5820205Y-43336773D01*
X5596104Y-43243947D01*
X5361785Y-43181161D01*
X5121289Y-43149500D01*
X5121288Y-43149500D01*
X4878712Y-43149500D01*
X4878711Y-43149500D01*
X4638214Y-43181161D01*
X4403895Y-43243947D01*
X4179794Y-43336773D01*
X4179785Y-43336777D01*
X3969706Y-43458067D01*
X3777263Y-43605733D01*
X3777256Y-43605739D01*
X3605739Y-43777256D01*
X3605733Y-43777263D01*
X3458067Y-43969706D01*
X3336777Y-44179785D01*
X3336773Y-44179794D01*
X3243947Y-44403895D01*
X3181161Y-44638214D01*
X3149500Y-44878711D01*
X500500Y-44878711D01*
X500500Y-33886388D01*
X7825500Y-33886388D01*
X7825500Y-34113611D01*
X7861042Y-34338020D01*
X7931257Y-34554116D01*
X8034408Y-34756559D01*
X8167960Y-34940377D01*
X8328623Y-35101040D01*
X8512441Y-35234592D01*
X8608088Y-35283326D01*
X8714883Y-35337742D01*
X8714885Y-35337742D01*
X8714888Y-35337744D01*
X8830717Y-35375379D01*
X8930979Y-35407957D01*
X9155389Y-35443500D01*
X9155394Y-35443500D01*
X9382611Y-35443500D01*
X9607020Y-35407957D01*
X9823112Y-35337744D01*
X10025559Y-35234592D01*
X10209377Y-35101040D01*
X10370040Y-34940377D01*
X10503592Y-34756559D01*
X10606744Y-34554112D01*
X10676957Y-34338020D01*
X10712500Y-34113611D01*
X10712500Y-33886388D01*
X12270500Y-33886388D01*
X12270500Y-34113611D01*
X12306042Y-34338020D01*
X12376257Y-34554116D01*
X12479408Y-34756559D01*
X12612960Y-34940377D01*
X12773623Y-35101040D01*
X12957441Y-35234592D01*
X13053088Y-35283326D01*
X13159883Y-35337742D01*
X13159885Y-35337742D01*
X13159888Y-35337744D01*
X13275717Y-35375379D01*
X13375979Y-35407957D01*
X13600389Y-35443500D01*
X13600394Y-35443500D01*
X13827611Y-35443500D01*
X14052020Y-35407957D01*
X14268112Y-35337744D01*
X14470559Y-35234592D01*
X14654377Y-35101040D01*
X14815040Y-34940377D01*
X14948592Y-34756559D01*
X15051744Y-34554112D01*
X15121957Y-34338020D01*
X15157500Y-34113611D01*
X15157500Y-33886388D01*
X15121957Y-33661979D01*
X15108958Y-33621976D01*
X15073971Y-33514298D01*
X15071977Y-33444460D01*
X15104220Y-33388303D01*
X17490510Y-31002015D01*
X17562984Y-30876485D01*
X17600500Y-30736475D01*
X17600500Y-27367521D01*
X17620185Y-27300482D01*
X17672989Y-27254727D01*
X17678977Y-27252179D01*
X17772343Y-27215361D01*
X17892923Y-27123923D01*
X17984361Y-27003343D01*
X18039877Y-26862565D01*
X18050500Y-26774103D01*
X18050499Y-23837898D01*
X18039877Y-23749435D01*
X17984361Y-23608657D01*
X17984359Y-23608654D01*
X17892923Y-23488076D01*
X17772345Y-23396640D01*
X17772339Y-23396637D01*
X17631566Y-23341123D01*
X17618927Y-23339605D01*
X17543103Y-23330500D01*
X17543097Y-23330500D01*
X16556903Y-23330500D01*
X16468435Y-23341123D01*
X16468431Y-23341124D01*
X16327660Y-23396637D01*
X16327654Y-23396640D01*
X16207076Y-23488076D01*
X16115640Y-23608654D01*
X16115637Y-23608660D01*
X16060123Y-23749433D01*
X16060123Y-23749435D01*
X16049500Y-23837897D01*
X16049500Y-23837898D01*
X16049500Y-23837902D01*
X16049500Y-26774096D01*
X16049501Y-26774102D01*
X16060123Y-26862565D01*
X16060123Y-26862566D01*
X16060124Y-26862568D01*
X16115637Y-27003339D01*
X16115640Y-27003345D01*
X16207076Y-27123923D01*
X16327654Y-27215359D01*
X16327657Y-27215361D01*
X16420992Y-27252168D01*
X16476134Y-27295072D01*
X16499327Y-27360980D01*
X16499500Y-27367521D01*
X16499500Y-30384612D01*
X16479815Y-30451651D01*
X16463181Y-30472293D01*
X14325697Y-32609776D01*
X14264374Y-32643261D01*
X14199698Y-32640026D01*
X14052022Y-32592043D01*
X13827611Y-32556500D01*
X13827606Y-32556500D01*
X13600394Y-32556500D01*
X13600389Y-32556500D01*
X13375979Y-32592042D01*
X13159883Y-32662257D01*
X12957440Y-32765408D01*
X12852565Y-32841604D01*
X12773623Y-32898960D01*
X12773621Y-32898962D01*
X12773620Y-32898962D01*
X12612962Y-33059620D01*
X12612962Y-33059621D01*
X12612960Y-33059623D01*
X12555604Y-33138565D01*
X12479408Y-33243440D01*
X12376257Y-33445883D01*
X12306042Y-33661979D01*
X12270500Y-33886388D01*
X10712500Y-33886388D01*
X10676957Y-33661979D01*
X10606742Y-33445883D01*
X10503591Y-33243440D01*
X10370040Y-33059623D01*
X10209377Y-32898960D01*
X10025559Y-32765408D01*
X9823116Y-32662257D01*
X9607020Y-32592042D01*
X9382611Y-32556500D01*
X9382606Y-32556500D01*
X9155394Y-32556500D01*
X9155389Y-32556500D01*
X8930979Y-32592042D01*
X8714883Y-32662257D01*
X8512440Y-32765408D01*
X8407565Y-32841604D01*
X8328623Y-32898960D01*
X8328621Y-32898962D01*
X8328620Y-32898962D01*
X8167962Y-33059620D01*
X8167962Y-33059621D01*
X8167960Y-33059623D01*
X8110604Y-33138565D01*
X8034408Y-33243440D01*
X7931257Y-33445883D01*
X7861042Y-33661979D01*
X7825500Y-33886388D01*
X500500Y-33886388D01*
X500500Y-19519897D01*
X9949500Y-19519897D01*
X9949500Y-19519898D01*
X9949500Y-19519902D01*
X9949500Y-22456096D01*
X9949501Y-22456102D01*
X9960123Y-22544565D01*
X9960123Y-22544566D01*
X9960124Y-22544568D01*
X10015637Y-22685339D01*
X10015640Y-22685345D01*
X10107076Y-22805923D01*
X10225203Y-22895500D01*
X10227657Y-22897361D01*
X10320992Y-22934168D01*
X10337581Y-22947075D01*
X10356703Y-22955808D01*
X10364602Y-22968099D01*
X10376134Y-22977072D01*
X10383112Y-22996901D01*
X10394477Y-23014586D01*
X10398029Y-23039292D01*
X10399327Y-23042980D01*
X10399500Y-23049521D01*
X10399500Y-23244478D01*
X10379815Y-23311517D01*
X10327011Y-23357272D01*
X10320991Y-23359832D01*
X10227658Y-23396638D01*
X10227654Y-23396640D01*
X10107076Y-23488076D01*
X10015640Y-23608654D01*
X10015637Y-23608660D01*
X9960123Y-23749433D01*
X9960123Y-23749435D01*
X9949500Y-23837897D01*
X9949500Y-23837898D01*
X9949500Y-23837902D01*
X9949500Y-26774096D01*
X9949501Y-26774102D01*
X9960123Y-26862565D01*
X9960123Y-26862566D01*
X9960124Y-26862568D01*
X10015637Y-27003339D01*
X10015640Y-27003345D01*
X10107076Y-27123923D01*
X10227654Y-27215359D01*
X10227657Y-27215361D01*
X10368435Y-27270877D01*
X10456897Y-27281500D01*
X11443102Y-27281499D01*
X11531565Y-27270877D01*
X11672343Y-27215361D01*
X11792923Y-27123923D01*
X11884361Y-27003343D01*
X11939877Y-26862565D01*
X11950500Y-26774103D01*
X11950499Y-23837898D01*
X11939877Y-23749435D01*
X11884361Y-23608657D01*
X11884359Y-23608654D01*
X11792923Y-23488076D01*
X11672345Y-23396640D01*
X11672341Y-23396638D01*
X11579009Y-23359832D01*
X11562419Y-23346923D01*
X11543297Y-23338191D01*
X11535396Y-23325897D01*
X11523866Y-23316926D01*
X11516888Y-23297098D01*
X11505523Y-23279413D01*
X11501970Y-23254704D01*
X11500673Y-23251018D01*
X11500500Y-23244478D01*
X11500500Y-23049521D01*
X11520185Y-22982482D01*
X11572989Y-22936727D01*
X11578977Y-22934179D01*
X11672343Y-22897361D01*
X11792923Y-22805923D01*
X11884361Y-22685343D01*
X11939877Y-22544565D01*
X11950500Y-22456103D01*
X11950499Y-19519898D01*
X11939877Y-19431435D01*
X11884361Y-19290657D01*
X11884359Y-19290654D01*
X11792923Y-19170076D01*
X11672345Y-19078640D01*
X11672339Y-19078637D01*
X11531566Y-19023123D01*
X11518927Y-19021605D01*
X11443103Y-19012500D01*
X11443097Y-19012500D01*
X10456903Y-19012500D01*
X10368435Y-19023123D01*
X10368431Y-19023124D01*
X10227660Y-19078637D01*
X10227654Y-19078640D01*
X10107076Y-19170076D01*
X10015640Y-19290654D01*
X10015637Y-19290660D01*
X9960123Y-19431433D01*
X9960123Y-19431435D01*
X9949500Y-19519897D01*
X500500Y-19519897D01*
X500500Y-10531897D01*
X9949500Y-10531897D01*
X9949500Y-10531898D01*
X9949500Y-10531902D01*
X9949500Y-13468096D01*
X9949501Y-13468102D01*
X9960123Y-13556565D01*
X9960123Y-13556566D01*
X9960124Y-13556568D01*
X10015637Y-13697339D01*
X10015640Y-13697345D01*
X10107076Y-13817923D01*
X10227654Y-13909359D01*
X10227657Y-13909361D01*
X10320992Y-13946168D01*
X10376134Y-13989072D01*
X10399327Y-14054980D01*
X10399500Y-14061521D01*
X10399500Y-14559478D01*
X10379815Y-14626517D01*
X10327011Y-14672272D01*
X10320991Y-14674832D01*
X10227658Y-14711638D01*
X10227654Y-14711640D01*
X10107076Y-14803076D01*
X10015640Y-14923654D01*
X10015637Y-14923660D01*
X9960123Y-15064433D01*
X9960123Y-15064435D01*
X9949500Y-15152897D01*
X9949500Y-15152898D01*
X9949500Y-15152902D01*
X9949500Y-18089096D01*
X9949501Y-18089102D01*
X9960123Y-18177565D01*
X9960123Y-18177566D01*
X9960124Y-18177568D01*
X10015637Y-18318339D01*
X10015640Y-18318345D01*
X10107076Y-18438923D01*
X10227654Y-18530359D01*
X10227657Y-18530361D01*
X10368435Y-18585877D01*
X10456897Y-18596500D01*
X11443102Y-18596499D01*
X11531565Y-18585877D01*
X11672343Y-18530361D01*
X11792923Y-18438923D01*
X11884361Y-18318343D01*
X11939877Y-18177565D01*
X11950500Y-18089103D01*
X11950499Y-15152898D01*
X11950499Y-15152897D01*
X16049500Y-15152897D01*
X16049500Y-15152898D01*
X16049500Y-15152902D01*
X16049500Y-18089096D01*
X16049501Y-18089102D01*
X16060123Y-18177565D01*
X16060123Y-18177566D01*
X16060124Y-18177568D01*
X16115637Y-18318339D01*
X16115640Y-18318345D01*
X16207076Y-18438923D01*
X16327654Y-18530359D01*
X16327657Y-18530361D01*
X16420992Y-18567168D01*
X16437581Y-18580075D01*
X16456703Y-18588808D01*
X16464602Y-18601099D01*
X16476134Y-18610072D01*
X16483112Y-18629901D01*
X16494477Y-18647586D01*
X16498029Y-18672292D01*
X16499327Y-18675980D01*
X16499500Y-18682521D01*
X16499500Y-18926478D01*
X16479815Y-18993517D01*
X16427011Y-19039272D01*
X16420991Y-19041832D01*
X16327658Y-19078638D01*
X16327654Y-19078640D01*
X16207076Y-19170076D01*
X16115640Y-19290654D01*
X16115637Y-19290660D01*
X16060123Y-19431433D01*
X16060123Y-19431435D01*
X16049500Y-19519897D01*
X16049500Y-19519898D01*
X16049500Y-19519902D01*
X16049500Y-22456096D01*
X16049501Y-22456102D01*
X16060123Y-22544565D01*
X16060123Y-22544566D01*
X16060124Y-22544568D01*
X16115637Y-22685339D01*
X16115640Y-22685345D01*
X16207076Y-22805923D01*
X16325203Y-22895500D01*
X16327657Y-22897361D01*
X16468435Y-22952877D01*
X16556897Y-22963500D01*
X17543102Y-22963499D01*
X17631565Y-22952877D01*
X17772343Y-22897361D01*
X17892923Y-22805923D01*
X17984361Y-22685343D01*
X18039877Y-22544565D01*
X18050500Y-22456103D01*
X18050499Y-19519898D01*
X18039877Y-19431435D01*
X17984361Y-19290657D01*
X17984359Y-19290654D01*
X17892923Y-19170076D01*
X17772345Y-19078640D01*
X17772341Y-19078638D01*
X17679009Y-19041832D01*
X17662419Y-19028923D01*
X17643297Y-19020191D01*
X17635396Y-19007897D01*
X17623866Y-18998926D01*
X17616888Y-18979098D01*
X17605523Y-18961413D01*
X17601970Y-18936704D01*
X17600673Y-18933018D01*
X17600500Y-18926478D01*
X17600500Y-18682521D01*
X17620185Y-18615482D01*
X17672989Y-18569727D01*
X17678977Y-18567179D01*
X17772343Y-18530361D01*
X17892923Y-18438923D01*
X17984361Y-18318343D01*
X18039877Y-18177565D01*
X18050500Y-18089103D01*
X18050499Y-15231897D01*
X18949500Y-15231897D01*
X18949500Y-15231898D01*
X18949500Y-15231902D01*
X18949500Y-18168096D01*
X18956931Y-18229983D01*
X18960123Y-18256565D01*
X18960123Y-18256566D01*
X18960124Y-18256568D01*
X19015637Y-18397339D01*
X19015640Y-18397345D01*
X19107076Y-18517923D01*
X19227654Y-18609359D01*
X19227657Y-18609361D01*
X19368435Y-18664877D01*
X19456897Y-18675500D01*
X20443102Y-18675499D01*
X20531565Y-18664877D01*
X20672343Y-18609361D01*
X20792923Y-18517923D01*
X20884361Y-18397343D01*
X20939877Y-18256565D01*
X20950500Y-18168103D01*
X20950499Y-17262627D01*
X20970183Y-17195589D01*
X21012500Y-17155240D01*
X21038015Y-17140510D01*
X22946627Y-15231897D01*
X25049500Y-15231897D01*
X25049500Y-15231898D01*
X25049500Y-15231902D01*
X25049500Y-18168096D01*
X25056931Y-18229983D01*
X25060123Y-18256565D01*
X25060123Y-18256566D01*
X25060124Y-18256568D01*
X25115637Y-18397339D01*
X25115640Y-18397345D01*
X25207076Y-18517923D01*
X25327654Y-18609359D01*
X25327657Y-18609361D01*
X25468435Y-18664877D01*
X25556897Y-18675500D01*
X25725500Y-18675499D01*
X25792539Y-18695183D01*
X25838294Y-18747987D01*
X25849500Y-18799499D01*
X25849500Y-20749230D01*
X25829815Y-20816269D01*
X25827802Y-20819303D01*
X25825795Y-20822232D01*
X25780415Y-20925006D01*
X25780415Y-20925008D01*
X25777500Y-20950131D01*
X25777500Y-22639856D01*
X25777502Y-22639882D01*
X25780413Y-22664987D01*
X25780415Y-22664991D01*
X25825793Y-22767764D01*
X25825794Y-22767765D01*
X25905235Y-22847206D01*
X26008009Y-22892585D01*
X26033135Y-22895500D01*
X27722864Y-22895499D01*
X27722879Y-22895497D01*
X27722882Y-22895497D01*
X27747987Y-22892586D01*
X27747988Y-22892585D01*
X27747991Y-22892585D01*
X27850765Y-22847206D01*
X27930206Y-22767765D01*
X27975585Y-22664991D01*
X27978500Y-22639865D01*
X27978499Y-20950136D01*
X27978497Y-20950117D01*
X27975586Y-20925012D01*
X27975585Y-20925010D01*
X27975585Y-20925009D01*
X27930206Y-20822235D01*
X27850765Y-20742794D01*
X27747992Y-20697415D01*
X27722868Y-20694500D01*
X27722865Y-20694500D01*
X27074500Y-20694500D01*
X27007461Y-20674815D01*
X26961706Y-20622011D01*
X26950500Y-20570500D01*
X26950500Y-18483694D01*
X26970185Y-18416655D01*
X26975691Y-18408775D01*
X26984361Y-18397343D01*
X27039877Y-18256565D01*
X27050500Y-18168103D01*
X27050499Y-15231898D01*
X27039877Y-15143435D01*
X26984361Y-15002657D01*
X26984359Y-15002654D01*
X26892923Y-14882076D01*
X26772345Y-14790640D01*
X26772339Y-14790637D01*
X26631566Y-14735123D01*
X26618927Y-14733605D01*
X26543103Y-14724500D01*
X26543097Y-14724500D01*
X25556903Y-14724500D01*
X25468435Y-14735123D01*
X25468431Y-14735124D01*
X25327660Y-14790637D01*
X25327654Y-14790640D01*
X25207076Y-14882076D01*
X25115640Y-15002654D01*
X25115637Y-15002660D01*
X25060123Y-15143433D01*
X25058986Y-15152902D01*
X25049500Y-15231897D01*
X22946627Y-15231897D01*
X24837821Y-13340702D01*
X24899142Y-13307219D01*
X24968834Y-13312203D01*
X25024767Y-13354075D01*
X25049184Y-13419539D01*
X25049500Y-13428382D01*
X25049500Y-13468096D01*
X25049501Y-13468102D01*
X25060123Y-13556565D01*
X25060123Y-13556566D01*
X25060124Y-13556568D01*
X25115637Y-13697339D01*
X25115640Y-13697345D01*
X25207076Y-13817923D01*
X25327654Y-13909359D01*
X25327657Y-13909361D01*
X25468435Y-13964877D01*
X25556897Y-13975500D01*
X26543102Y-13975499D01*
X26631565Y-13964877D01*
X26772343Y-13909361D01*
X26892923Y-13817923D01*
X26984361Y-13697343D01*
X27039877Y-13556565D01*
X27050500Y-13468103D01*
X27050499Y-10531898D01*
X27039877Y-10443435D01*
X26984361Y-10302657D01*
X26984359Y-10302654D01*
X26892923Y-10182076D01*
X26772345Y-10090640D01*
X26772339Y-10090637D01*
X26631566Y-10035123D01*
X26618927Y-10033605D01*
X26543103Y-10024500D01*
X26543097Y-10024500D01*
X25556903Y-10024500D01*
X25468435Y-10035123D01*
X25468431Y-10035124D01*
X25327660Y-10090637D01*
X25327654Y-10090640D01*
X25207076Y-10182076D01*
X25115640Y-10302654D01*
X25115637Y-10302660D01*
X25060123Y-10443433D01*
X25060123Y-10443435D01*
X25049500Y-10531897D01*
X25049500Y-10531898D01*
X25049500Y-10531902D01*
X25049500Y-11520612D01*
X25029815Y-11587651D01*
X25013181Y-11608293D01*
X21162180Y-15459294D01*
X21100857Y-15492779D01*
X21031165Y-15487795D01*
X20975232Y-15445923D01*
X20950815Y-15380459D01*
X20950499Y-15371613D01*
X20950499Y-15231903D01*
X20950499Y-15231902D01*
X20950499Y-15231898D01*
X20939877Y-15143435D01*
X20884361Y-15002657D01*
X20884359Y-15002654D01*
X20792923Y-14882076D01*
X20672345Y-14790640D01*
X20672339Y-14790637D01*
X20531566Y-14735123D01*
X20518927Y-14733605D01*
X20443103Y-14724500D01*
X20443097Y-14724500D01*
X19456903Y-14724500D01*
X19368435Y-14735123D01*
X19368431Y-14735124D01*
X19227660Y-14790637D01*
X19227654Y-14790640D01*
X19107076Y-14882076D01*
X19015640Y-15002654D01*
X19015637Y-15002660D01*
X18960123Y-15143433D01*
X18958986Y-15152902D01*
X18949500Y-15231897D01*
X18050499Y-15231897D01*
X18050499Y-15152898D01*
X18039877Y-15064435D01*
X17984361Y-14923657D01*
X17984359Y-14923654D01*
X17892923Y-14803076D01*
X17772345Y-14711640D01*
X17772339Y-14711637D01*
X17631566Y-14656123D01*
X17618927Y-14654605D01*
X17543103Y-14645500D01*
X17543097Y-14645500D01*
X16556903Y-14645500D01*
X16468435Y-14656123D01*
X16468431Y-14656124D01*
X16327660Y-14711637D01*
X16327654Y-14711640D01*
X16207076Y-14803076D01*
X16115640Y-14923654D01*
X16115637Y-14923660D01*
X16060123Y-15064433D01*
X16060123Y-15064435D01*
X16049500Y-15152897D01*
X11950499Y-15152897D01*
X11939877Y-15064435D01*
X11884361Y-14923657D01*
X11884359Y-14923654D01*
X11792923Y-14803076D01*
X11672345Y-14711640D01*
X11672341Y-14711638D01*
X11579009Y-14674832D01*
X11523866Y-14631926D01*
X11500673Y-14566018D01*
X11500500Y-14559478D01*
X11500500Y-14061521D01*
X11520185Y-13994482D01*
X11572989Y-13948727D01*
X11578977Y-13946179D01*
X11672343Y-13909361D01*
X11792923Y-13817923D01*
X11884361Y-13697343D01*
X11939877Y-13556565D01*
X11950500Y-13468103D01*
X11950499Y-10531898D01*
X11950499Y-10531897D01*
X16049500Y-10531897D01*
X16049500Y-10531898D01*
X16049500Y-10531902D01*
X16049500Y-13468096D01*
X16049501Y-13468102D01*
X16060123Y-13556565D01*
X16060123Y-13556566D01*
X16060124Y-13556568D01*
X16115637Y-13697339D01*
X16115640Y-13697345D01*
X16207076Y-13817923D01*
X16327654Y-13909359D01*
X16327657Y-13909361D01*
X16468435Y-13964877D01*
X16556897Y-13975500D01*
X17543102Y-13975499D01*
X17631565Y-13964877D01*
X17772343Y-13909361D01*
X17892923Y-13817923D01*
X17984361Y-13697343D01*
X18039877Y-13556565D01*
X18050500Y-13468103D01*
X18050500Y-12674500D01*
X18070185Y-12607461D01*
X18122989Y-12561706D01*
X18174500Y-12550500D01*
X18825501Y-12550500D01*
X18892540Y-12570185D01*
X18938295Y-12622989D01*
X18949501Y-12674500D01*
X18949501Y-13468102D01*
X18960123Y-13556565D01*
X18960123Y-13556566D01*
X18960124Y-13556568D01*
X19015637Y-13697339D01*
X19015640Y-13697345D01*
X19107076Y-13817923D01*
X19227654Y-13909359D01*
X19227657Y-13909361D01*
X19368435Y-13964877D01*
X19456897Y-13975500D01*
X20443102Y-13975499D01*
X20531565Y-13964877D01*
X20672343Y-13909361D01*
X20792923Y-13817923D01*
X20884361Y-13697343D01*
X20939877Y-13556565D01*
X20950500Y-13468103D01*
X20950499Y-10531898D01*
X20939877Y-10443435D01*
X20884361Y-10302657D01*
X20884359Y-10302654D01*
X20792923Y-10182076D01*
X20672345Y-10090640D01*
X20672339Y-10090637D01*
X20531566Y-10035123D01*
X20518927Y-10033605D01*
X20443103Y-10024500D01*
X20443097Y-10024500D01*
X19456903Y-10024500D01*
X19368435Y-10035123D01*
X19368431Y-10035124D01*
X19227660Y-10090637D01*
X19227654Y-10090640D01*
X19107076Y-10182076D01*
X19015640Y-10302654D01*
X19015637Y-10302660D01*
X18960123Y-10443433D01*
X18960123Y-10443435D01*
X18949500Y-10531897D01*
X18949500Y-10531898D01*
X18949500Y-10531902D01*
X18949500Y-11325500D01*
X18929815Y-11392539D01*
X18877011Y-11438294D01*
X18825500Y-11449500D01*
X18174499Y-11449500D01*
X18107460Y-11429815D01*
X18061705Y-11377011D01*
X18050499Y-11325500D01*
X18050499Y-10531903D01*
X18050499Y-10531902D01*
X18050499Y-10531898D01*
X18039877Y-10443435D01*
X17984361Y-10302657D01*
X17984359Y-10302654D01*
X17892923Y-10182076D01*
X17772345Y-10090640D01*
X17772339Y-10090637D01*
X17631566Y-10035123D01*
X17618927Y-10033605D01*
X17543103Y-10024500D01*
X17543097Y-10024500D01*
X16556903Y-10024500D01*
X16468435Y-10035123D01*
X16468431Y-10035124D01*
X16327660Y-10090637D01*
X16327654Y-10090640D01*
X16207076Y-10182076D01*
X16115640Y-10302654D01*
X16115637Y-10302660D01*
X16060123Y-10443433D01*
X16060123Y-10443435D01*
X16049500Y-10531897D01*
X11950499Y-10531897D01*
X11939877Y-10443435D01*
X11884361Y-10302657D01*
X11884359Y-10302654D01*
X11792923Y-10182076D01*
X11672345Y-10090640D01*
X11672339Y-10090637D01*
X11531566Y-10035123D01*
X11518927Y-10033605D01*
X11443103Y-10024500D01*
X11443097Y-10024500D01*
X10456903Y-10024500D01*
X10368435Y-10035123D01*
X10368431Y-10035124D01*
X10227660Y-10090637D01*
X10227654Y-10090640D01*
X10107076Y-10182076D01*
X10015640Y-10302654D01*
X10015637Y-10302660D01*
X9960123Y-10443433D01*
X9960123Y-10443435D01*
X9949500Y-10531897D01*
X500500Y-10531897D01*
X500500Y-5002706D01*
X500618Y-4997297D01*
X505796Y-4878711D01*
X3149500Y-4878711D01*
X3149500Y-5121288D01*
X3181161Y-5361785D01*
X3243947Y-5596104D01*
X3336773Y-5820205D01*
X3336776Y-5820212D01*
X3458064Y-6030289D01*
X3458066Y-6030292D01*
X3458067Y-6030293D01*
X3605733Y-6222736D01*
X3605739Y-6222743D01*
X3777256Y-6394260D01*
X3777262Y-6394265D01*
X3969711Y-6541936D01*
X4179788Y-6663224D01*
X4403900Y-6756054D01*
X4638211Y-6818838D01*
X4818586Y-6842584D01*
X4878711Y-6850500D01*
X4878712Y-6850500D01*
X5121289Y-6850500D01*
X5169388Y-6844167D01*
X5361789Y-6818838D01*
X5596100Y-6756054D01*
X5820212Y-6663224D01*
X6030289Y-6541936D01*
X6222738Y-6394265D01*
X6394265Y-6222738D01*
X6541936Y-6030289D01*
X6663224Y-5820212D01*
X6756054Y-5596100D01*
X6818838Y-5361789D01*
X6850500Y-5121288D01*
X6850500Y-4878712D01*
X6849253Y-4869243D01*
X6818838Y-4638214D01*
X6818838Y-4638211D01*
X6756054Y-4403900D01*
X6663224Y-4179788D01*
X6541936Y-3969711D01*
X6394265Y-3777262D01*
X6394260Y-3777256D01*
X6222743Y-3605739D01*
X6222736Y-3605733D01*
X6030293Y-3458067D01*
X6030292Y-3458066D01*
X6030289Y-3458064D01*
X5820212Y-3336776D01*
X5820205Y-3336773D01*
X5596104Y-3243947D01*
X5361785Y-3181161D01*
X5121289Y-3149500D01*
X5121288Y-3149500D01*
X4878712Y-3149500D01*
X4878711Y-3149500D01*
X4638214Y-3181161D01*
X4403895Y-3243947D01*
X4179794Y-3336773D01*
X4179785Y-3336777D01*
X3969706Y-3458067D01*
X3777263Y-3605733D01*
X3777256Y-3605739D01*
X3605739Y-3777256D01*
X3605733Y-3777263D01*
X3458067Y-3969706D01*
X3336777Y-4179785D01*
X3336773Y-4179794D01*
X3243947Y-4403895D01*
X3181161Y-4638214D01*
X3149500Y-4878711D01*
X505796Y-4878711D01*
X506209Y-4869244D01*
X506209Y-4869243D01*
X510433Y-4772498D01*
X517386Y-4613228D01*
X518326Y-4602495D01*
X568152Y-4224025D01*
X570025Y-4213405D01*
X652649Y-3840709D01*
X655440Y-3830295D01*
X770230Y-3466227D01*
X773917Y-3456095D01*
X920003Y-3103412D01*
X924561Y-3093638D01*
X1100822Y-2755045D01*
X1106217Y-2745700D01*
X1311325Y-2423744D01*
X1317515Y-2414905D01*
X1549896Y-2112060D01*
X1556834Y-2103791D01*
X1814726Y-1822352D01*
X1822352Y-1814726D01*
X2103791Y-1556834D01*
X2112060Y-1549896D01*
X2414905Y-1317515D01*
X2423744Y-1311325D01*
X2745700Y-1106217D01*
X2755045Y-1100822D01*
X3093638Y-924561D01*
X3103412Y-920003D01*
X3456095Y-773917D01*
X3466227Y-770230D01*
X3830295Y-655440D01*
X3840709Y-652649D01*
X4213405Y-570025D01*
X4224025Y-568152D01*
X4602495Y-518326D01*
X4613226Y-517386D01*
X4997297Y-500617D01*
X5002706Y-500500D01*
X28876000Y-500500D01*
X28943039Y-520185D01*
G37*
%TD.AperFunction*%
%TD*%
M02*
