M48
; DRILL file {KiCad 9.0.0} date 2025-04-18T20:07:39-0500
; FORMAT={-:-/ absolute / metric / decimal}
; #@! TF.CreationDate,2025-04-18T20:07:39-05:00
; #@! TF.GenerationSoftware,Kicad,Pcbnew,9.0.0
; #@! TF.FileFunction,MixedPlating,1,4
FMAT,2
METRIC
; #@! TA.AperFunction,Plated,PTH,ViaDrill
T1C0.300
; #@! TA.AperFunction,Plated,PTH,ViaDrill
T2C0.400
; #@! TA.AperFunction,Plated,PTH,ComponentDrill
T3C0.800
; #@! TA.AperFunction,Plated,PTH,ComponentDrill
T4C1.100
; #@! TA.AperFunction,Plated,PTH,ComponentDrill
T5C1.778
; #@! TA.AperFunction,NonPlated,NPTH,ComponentDrill
T6C3.200
%
G90
G05
T1
X34.7Y-18.8
X37.1Y-23.6
X38.6Y-27.0
X43.5Y-18.8
X47.576Y-31.341
X50.076Y-17.741
X51.3Y-20.9
T2
X2.5Y-10.0
X2.5Y-12.5
X2.5Y-15.0
X2.5Y-17.5
X2.5Y-20.0
X2.5Y-22.5
X2.5Y-25.0
X2.5Y-27.5
X2.5Y-30.0
X2.5Y-32.5
X2.5Y-35.0
X2.5Y-37.5
X2.5Y-40.0
X5.0Y-10.0
X5.0Y-12.5
X5.0Y-15.0
X5.0Y-17.5
X5.0Y-20.0
X5.0Y-22.5
X5.0Y-25.0
X5.0Y-27.5
X5.0Y-30.0
X5.0Y-32.5
X5.0Y-35.0
X5.0Y-37.5
X5.0Y-40.0
X7.5Y-10.0
X7.5Y-12.5
X7.5Y-15.0
X7.5Y-17.5
X7.5Y-20.0
X7.5Y-22.5
X7.5Y-25.0
X7.5Y-27.5
X7.5Y-40.0
X10.0Y-2.5
X10.0Y-5.0
X10.0Y-7.5
X10.0Y-40.0
X10.0Y-42.5
X10.0Y-45.0
X10.0Y-47.5
X12.5Y-2.5
X12.5Y-5.0
X12.5Y-7.5
X12.5Y-45.0
X12.5Y-47.5
X15.0Y-2.5
X15.0Y-7.5
X15.0Y-45.0
X15.0Y-47.5
X17.5Y-2.5
X17.5Y-7.5
X17.5Y-45.0
X17.5Y-47.5
X20.0Y-2.5
X20.0Y-20.0
X20.0Y-22.5
X20.0Y-25.0
X20.0Y-27.5
X20.0Y-40.0
X20.0Y-42.5
X20.0Y-45.0
X20.0Y-47.5
X20.007Y-7.504
X22.5Y-2.5
X22.5Y-20.0
X22.5Y-22.5
X22.5Y-25.0
X22.5Y-27.5
X22.5Y-40.0
X22.5Y-42.5
X22.5Y-45.0
X22.5Y-47.5
X22.507Y-7.504
X24.993Y-2.496
X25.0Y-7.5
X25.0Y-20.0
X25.0Y-22.5
X25.0Y-25.0
X25.0Y-27.5
X25.0Y-30.0
X25.0Y-32.5
X25.0Y-35.0
X25.0Y-37.5
X25.0Y-40.0
X25.0Y-42.5
X25.0Y-45.0
X25.0Y-47.5
X27.5Y-2.5
X27.5Y-5.0
X27.5Y-7.5
X27.5Y-27.5
X27.5Y-30.0
X27.5Y-32.5
X27.5Y-35.0
X27.5Y-37.5
X27.5Y-40.0
X27.5Y-42.5
X27.5Y-45.0
X27.5Y-47.5
X35.0Y-30.0
X35.0Y-32.5
X35.0Y-35.0
X35.0Y-37.5
X35.0Y-40.0
X35.0Y-42.5
X35.0Y-45.0
X35.0Y-47.5
X37.5Y-30.0
X37.5Y-32.5
X37.5Y-35.0
X37.5Y-37.5
X37.5Y-40.0
X37.5Y-42.5
X37.5Y-45.0
X37.5Y-47.5
X40.0Y-37.5
X40.0Y-40.0
X40.0Y-42.5
X40.0Y-45.0
X40.0Y-47.5
X42.5Y-27.5
X42.5Y-30.0
X42.5Y-32.5
X42.5Y-40.0
X42.5Y-42.5
X42.5Y-45.0
X42.5Y-47.5
X45.0Y-12.5
X45.0Y-15.0
X45.0Y-27.5
X45.0Y-30.0
X45.0Y-32.5
X45.0Y-40.0
X45.0Y-42.5
X45.0Y-45.0
X45.0Y-47.5
X47.5Y-12.5
X47.5Y-15.0
X47.5Y-33.0
X47.5Y-35.0
X47.5Y-40.0
X47.5Y-42.5
X47.5Y-45.0
X47.5Y-47.5
X50.0Y-12.5
X50.0Y-15.0
X50.0Y-33.0
X50.0Y-35.0
X50.0Y-40.0
X50.0Y-42.5
X50.0Y-45.0
X50.0Y-47.5
X52.5Y-12.5
X52.5Y-15.0
X52.5Y-33.0
X52.5Y-35.0
X52.5Y-40.0
X52.5Y-42.5
X52.5Y-45.0
X52.5Y-47.5
X55.0Y-2.5
X55.0Y-5.0
X55.0Y-7.5
X55.0Y-10.0
X55.0Y-12.5
X55.0Y-15.0
X55.0Y-30.0
X55.0Y-32.5
X55.0Y-35.0
X55.0Y-40.0
X55.0Y-42.5
X55.0Y-45.0
X55.0Y-47.5
X57.5Y-2.5
X57.5Y-5.0
X57.5Y-7.5
X57.5Y-10.0
X57.5Y-12.5
X57.5Y-15.0
X57.5Y-17.5
X57.5Y-20.0
X57.5Y-40.0
X57.5Y-42.5
X57.5Y-45.0
X57.5Y-47.5
X60.0Y-2.5
X60.0Y-5.0
X60.0Y-7.5
X60.0Y-10.0
X60.0Y-12.5
X60.0Y-15.0
X60.0Y-17.5
X60.0Y-20.0
X60.0Y-40.0
X60.0Y-42.5
X60.0Y-45.0
X60.0Y-47.5
X62.5Y-2.5
X62.5Y-5.0
X62.5Y-7.5
X62.5Y-10.0
X62.5Y-12.5
X62.5Y-15.0
X62.5Y-17.5
X62.5Y-20.0
X62.5Y-40.0
X62.5Y-42.5
X62.5Y-45.0
X62.5Y-47.5
X65.0Y-2.5
X65.0Y-5.0
X65.0Y-7.5
X65.0Y-10.0
X65.0Y-12.5
X65.0Y-15.0
X65.0Y-17.5
X65.0Y-20.0
X65.0Y-40.0
X65.0Y-42.5
X65.0Y-45.0
X65.0Y-47.5
X67.5Y-2.5
X67.5Y-5.0
X67.5Y-7.5
X67.5Y-10.0
X67.5Y-12.5
X67.5Y-15.0
X67.5Y-17.5
X67.5Y-20.0
X67.5Y-25.0
X67.5Y-27.5
X67.5Y-30.0
X67.5Y-35.0
X67.5Y-37.5
X67.5Y-40.0
X67.5Y-42.5
X67.5Y-45.0
X67.5Y-47.5
X70.0Y-2.5
X70.0Y-5.0
X70.0Y-7.5
X70.0Y-10.0
X70.0Y-12.5
X70.0Y-15.0
X70.0Y-17.5
X70.0Y-20.0
X70.0Y-25.0
X70.0Y-27.5
X70.0Y-30.0
X70.0Y-35.0
X70.0Y-37.5
X70.0Y-42.5
X70.0Y-45.0
X70.0Y-47.5
X72.5Y-2.5
X72.5Y-5.0
X72.5Y-7.5
X72.5Y-10.0
X72.5Y-12.5
X72.5Y-15.0
X72.5Y-17.5
X72.5Y-20.0
X72.5Y-42.5
X72.5Y-45.0
X72.5Y-47.5
X75.0Y-2.5
X75.0Y-5.0
X75.0Y-7.5
X75.0Y-10.0
X75.0Y-12.5
X75.0Y-15.0
X75.0Y-17.5
X75.0Y-20.0
X75.0Y-42.5
X75.0Y-45.0
X75.0Y-47.5
X77.5Y-10.0
X77.5Y-12.5
X77.5Y-15.0
X77.5Y-17.5
X77.5Y-20.0
X77.5Y-22.5
X80.0Y-10.0
X80.0Y-12.5
X80.0Y-15.0
X80.0Y-17.5
X80.0Y-20.0
X80.0Y-22.5
X80.0Y-37.5
X80.0Y-40.0
X82.5Y-10.0
X82.5Y-12.5
X82.5Y-15.0
X82.5Y-17.5
X82.5Y-20.0
X82.5Y-22.5
X82.5Y-37.5
X82.5Y-40.0
T3
X26.878Y-21.795
X26.878Y-24.335
X34.498Y-21.795
X34.498Y-24.335
T4
X36.42Y-16.611
X38.96Y-16.611
X41.5Y-16.611
X58.92Y-36.3
X58.96Y-26.745
X61.46Y-36.3
X61.5Y-26.745
X64.0Y-36.3
X64.04Y-26.745
T5
X9.269Y-34.0
X13.714Y-34.0
X20.064Y-34.0
X37.269Y-7.0
X41.714Y-7.0
X48.064Y-7.0
X75.2Y-27.136
X75.2Y-33.486
X75.2Y-37.931
T6
X5.0Y-5.0
X5.0Y-45.0
X80.0Y-5.0
X80.0Y-45.0
M30
