G04 #@! TF.GenerationSoftware,KiCad,Pcbnew,9.0.0*
G04 #@! TF.CreationDate,2025-04-14T20:21:17-05:00*
G04 #@! TF.ProjectId,Charging_PCB,43686172-6769-46e6-975f-5043422e6b69,rev?*
G04 #@! TF.SameCoordinates,Original*
G04 #@! TF.FileFunction,Copper,L1,Top*
G04 #@! TF.FilePolarity,Positive*
%FSLAX46Y46*%
G04 Gerber Fmt 4.6, Leading zero omitted, Abs format (unit mm)*
G04 Created by KiCad (PCBNEW 9.0.0) date 2025-04-14 20:21:17*
%MOMM*%
%LPD*%
G01*
G04 APERTURE LIST*
G04 Aperture macros list*
%AMRoundRect*
0 Rectangle with rounded corners*
0 $1 Rounding radius*
0 $2 $3 $4 $5 $6 $7 $8 $9 X,Y pos of 4 corners*
0 Add a 4 corners polygon primitive as box body*
4,1,4,$2,$3,$4,$5,$6,$7,$8,$9,$2,$3,0*
0 Add four circle primitives for the rounded corners*
1,1,$1+$1,$2,$3*
1,1,$1+$1,$4,$5*
1,1,$1+$1,$6,$7*
1,1,$1+$1,$8,$9*
0 Add four rect primitives between the rounded corners*
20,1,$1+$1,$2,$3,$4,$5,0*
20,1,$1+$1,$4,$5,$6,$7,0*
20,1,$1+$1,$6,$7,$8,$9,0*
20,1,$1+$1,$8,$9,$2,$3,0*%
G04 Aperture macros list end*
G04 #@! TA.AperFunction,ComponentPad*
%ADD10R,2.210000X2.210000*%
G04 #@! TD*
G04 #@! TA.AperFunction,ComponentPad*
%ADD11C,2.210000*%
G04 #@! TD*
G04 #@! TA.AperFunction,ComponentPad*
%ADD12C,2.000000*%
G04 #@! TD*
G04 #@! TA.AperFunction,ComponentPad*
%ADD13R,2.000000X2.000000*%
G04 #@! TD*
G04 #@! TA.AperFunction,SMDPad,CuDef*
%ADD14RoundRect,0.250000X-0.450000X0.350000X-0.450000X-0.350000X0.450000X-0.350000X0.450000X0.350000X0*%
G04 #@! TD*
G04 #@! TA.AperFunction,SMDPad,CuDef*
%ADD15RoundRect,0.100000X-0.100000X0.155000X-0.100000X-0.155000X0.100000X-0.155000X0.100000X0.155000X0*%
G04 #@! TD*
G04 #@! TA.AperFunction,SMDPad,CuDef*
%ADD16RoundRect,0.250000X1.000000X0.650000X-1.000000X0.650000X-1.000000X-0.650000X1.000000X-0.650000X0*%
G04 #@! TD*
G04 #@! TA.AperFunction,Conductor*
%ADD17C,0.500000*%
G04 #@! TD*
G04 #@! TA.AperFunction,Conductor*
%ADD18C,0.200000*%
G04 #@! TD*
G04 #@! TA.AperFunction,Conductor*
%ADD19C,0.300000*%
G04 #@! TD*
G04 APERTURE END LIST*
D10*
X117000000Y-115350000D03*
D11*
X117000000Y-109000000D03*
D12*
X165312500Y-114962500D03*
X157812500Y-111462500D03*
X157812500Y-118462500D03*
D13*
X157812500Y-94962500D03*
D12*
X165312500Y-94962500D03*
D14*
X162500000Y-84000000D03*
X162500000Y-86000000D03*
D12*
X136500000Y-115000000D03*
X129000000Y-111500000D03*
X129000000Y-118500000D03*
D13*
X129000000Y-95000000D03*
D12*
X136500000Y-95000000D03*
D14*
X134687500Y-84500000D03*
X134687500Y-86500000D03*
D10*
X175000000Y-115172500D03*
D11*
X175000000Y-108822500D03*
D15*
X128187500Y-86120000D03*
X129187500Y-86120000D03*
X128687500Y-84830000D03*
X156950000Y-85707500D03*
X157950000Y-85707500D03*
X157450000Y-84417500D03*
D16*
X163500000Y-89500000D03*
X159500000Y-89500000D03*
X134687500Y-89537500D03*
X130687500Y-89537500D03*
D10*
X146365000Y-92387500D03*
D11*
X146365000Y-86037500D03*
D17*
X175000000Y-113000000D02*
X175000000Y-115172500D01*
X132000000Y-78500000D02*
X171812500Y-78500000D01*
X171812500Y-78500000D02*
X171812500Y-109812500D01*
X132000000Y-84537500D02*
X132000000Y-78500000D01*
X171812500Y-109812500D02*
X175000000Y-113000000D01*
X134687500Y-93187500D02*
X136500000Y-95000000D01*
X134687500Y-89537500D02*
X134687500Y-93187500D01*
X128926000Y-87601000D02*
X132751000Y-87601000D01*
X132751000Y-87601000D02*
X134687500Y-89537500D01*
X128187500Y-86862500D02*
X128926000Y-87601000D01*
X128187500Y-86120000D02*
X128187500Y-86862500D01*
X130687500Y-93312500D02*
X129000000Y-95000000D01*
X130687500Y-91537500D02*
X130687500Y-93312500D01*
X159500000Y-93275000D02*
X157812500Y-94962500D01*
X159500000Y-89500000D02*
X159500000Y-91500000D01*
X159500000Y-91500000D02*
X159500000Y-93275000D01*
X130687500Y-89537500D02*
X130687500Y-91537500D01*
X156950000Y-85707500D02*
X156950000Y-86450000D01*
X165500000Y-91900000D02*
X163500000Y-91900000D01*
X163500000Y-89500000D02*
X163500000Y-91900000D01*
X165500000Y-87700000D02*
X165500000Y-91900000D01*
X163500000Y-91900000D02*
X163500000Y-93150000D01*
X158200000Y-87700000D02*
X165500000Y-87700000D01*
X156950000Y-86450000D02*
X158200000Y-87700000D01*
X163500000Y-93150000D02*
X165312500Y-94962500D01*
X131707500Y-84830000D02*
X132000000Y-84537500D01*
X149500000Y-84250000D02*
X149500000Y-89500000D01*
X149500000Y-89500000D02*
X145500000Y-89500000D01*
X132000000Y-84537500D02*
X134650000Y-84537500D01*
X140500000Y-84500000D02*
X134687500Y-84500000D01*
D18*
X134650000Y-84537500D02*
X134687500Y-84500000D01*
D17*
X157157500Y-84125000D02*
X149625000Y-84125000D01*
X128687500Y-84830000D02*
X131707500Y-84830000D01*
X157450000Y-84417500D02*
X157157500Y-84125000D01*
X145500000Y-89500000D02*
X140500000Y-84500000D01*
X149625000Y-84125000D02*
X149500000Y-84250000D01*
D19*
X129187500Y-86120000D02*
X129480000Y-86412500D01*
X134687500Y-86500000D02*
X140477500Y-86500000D01*
D18*
X134600000Y-86412500D02*
X134687500Y-86500000D01*
D19*
X129480000Y-86412500D02*
X134600000Y-86412500D01*
X140477500Y-86500000D02*
X146365000Y-92387500D01*
X162500000Y-84000000D02*
X160400000Y-84000000D01*
X160400000Y-84000000D02*
X158692500Y-85707500D01*
X146500000Y-81000000D02*
X162500000Y-81000000D01*
X158692500Y-85707500D02*
X157950000Y-85707500D01*
X162500000Y-81000000D02*
X162500000Y-84000000D01*
X146365000Y-86037500D02*
X146365000Y-81135000D01*
D18*
X146365000Y-81135000D02*
X146500000Y-81000000D01*
G04 #@! TA.AperFunction,Conductor*
G36*
X181459088Y-74525540D02*
G01*
X181459175Y-74525564D01*
X181521099Y-74525563D01*
X181522394Y-74525563D01*
X181527774Y-74525680D01*
X181908787Y-74542313D01*
X181909636Y-74542351D01*
X181920413Y-74543294D01*
X182296686Y-74592829D01*
X182307317Y-74594703D01*
X182677877Y-74676851D01*
X182688292Y-74679642D01*
X182971256Y-74768858D01*
X183050262Y-74793769D01*
X183060427Y-74797469D01*
X183173267Y-74844207D01*
X183411061Y-74942703D01*
X183420841Y-74947263D01*
X183757495Y-75122512D01*
X183766863Y-75127921D01*
X184086952Y-75331837D01*
X184095803Y-75338034D01*
X184231283Y-75441991D01*
X184396899Y-75569072D01*
X184405186Y-75576025D01*
X184685007Y-75832431D01*
X184692651Y-75840075D01*
X184949056Y-76119891D01*
X184955997Y-76128162D01*
X185187044Y-76429267D01*
X185193248Y-76438128D01*
X185397163Y-76758207D01*
X185402572Y-76767576D01*
X185577811Y-77104208D01*
X185582383Y-77114012D01*
X185727620Y-77464641D01*
X185731320Y-77474806D01*
X185845444Y-77836759D01*
X185848244Y-77847208D01*
X185930389Y-78217739D01*
X185932267Y-78228393D01*
X185981803Y-78604655D01*
X185982746Y-78615431D01*
X185999382Y-78996449D01*
X185999500Y-79001858D01*
X185999500Y-128497293D01*
X185999382Y-128502702D01*
X185982614Y-128886750D01*
X185981671Y-128897526D01*
X185931849Y-129275957D01*
X185929971Y-129286610D01*
X185847354Y-129659272D01*
X185844554Y-129669721D01*
X185729775Y-130033755D01*
X185726075Y-130043921D01*
X185580002Y-130396572D01*
X185575430Y-130406376D01*
X185399183Y-130744942D01*
X185393775Y-130754310D01*
X185188681Y-131076244D01*
X185182476Y-131085105D01*
X184950110Y-131387930D01*
X184943156Y-131396217D01*
X184685284Y-131677635D01*
X184677635Y-131685284D01*
X184396217Y-131943156D01*
X184387930Y-131950110D01*
X184085105Y-132182476D01*
X184076244Y-132188681D01*
X183754310Y-132393775D01*
X183744942Y-132399183D01*
X183406376Y-132575430D01*
X183396572Y-132580002D01*
X183043921Y-132726075D01*
X183033755Y-132729775D01*
X182669721Y-132844554D01*
X182659272Y-132847354D01*
X182286610Y-132929971D01*
X182275957Y-132931849D01*
X181897526Y-132981671D01*
X181886750Y-132982614D01*
X181502703Y-132999382D01*
X181497294Y-132999500D01*
X111502706Y-132999500D01*
X111497297Y-132999382D01*
X111113249Y-132982614D01*
X111102473Y-132981671D01*
X110724042Y-132931849D01*
X110713389Y-132929971D01*
X110340727Y-132847354D01*
X110330278Y-132844554D01*
X109966244Y-132729775D01*
X109956078Y-132726075D01*
X109603427Y-132580002D01*
X109593623Y-132575430D01*
X109255057Y-132399183D01*
X109245689Y-132393775D01*
X108923755Y-132188681D01*
X108914894Y-132182476D01*
X108612069Y-131950110D01*
X108603782Y-131943156D01*
X108322364Y-131685284D01*
X108314715Y-131677635D01*
X108056843Y-131396217D01*
X108049889Y-131387930D01*
X107817523Y-131085105D01*
X107811318Y-131076244D01*
X107606224Y-130754310D01*
X107600816Y-130744942D01*
X107424569Y-130406376D01*
X107419997Y-130396572D01*
X107273920Y-130043911D01*
X107270224Y-130033755D01*
X107155442Y-129669710D01*
X107152648Y-129659284D01*
X107070025Y-129286597D01*
X107068152Y-129275971D01*
X107018326Y-128897506D01*
X107017386Y-128886771D01*
X107000618Y-128502702D01*
X107000500Y-128497293D01*
X107000500Y-127378711D01*
X111149500Y-127378711D01*
X111149500Y-127621288D01*
X111181161Y-127861785D01*
X111243947Y-128096104D01*
X111261390Y-128138214D01*
X111336776Y-128320212D01*
X111458064Y-128530289D01*
X111458066Y-128530292D01*
X111458067Y-128530293D01*
X111605733Y-128722736D01*
X111605739Y-128722743D01*
X111777256Y-128894260D01*
X111777262Y-128894265D01*
X111969711Y-129041936D01*
X112179788Y-129163224D01*
X112403900Y-129256054D01*
X112638211Y-129318838D01*
X112818586Y-129342584D01*
X112878711Y-129350500D01*
X112878712Y-129350500D01*
X113121289Y-129350500D01*
X113169388Y-129344167D01*
X113361789Y-129318838D01*
X113596100Y-129256054D01*
X113820212Y-129163224D01*
X114030289Y-129041936D01*
X114222738Y-128894265D01*
X114394265Y-128722738D01*
X114541936Y-128530289D01*
X114629450Y-128378711D01*
X179649500Y-128378711D01*
X179649500Y-128621288D01*
X179681161Y-128861785D01*
X179743947Y-129096104D01*
X179836207Y-129318838D01*
X179836776Y-129320212D01*
X179958064Y-129530289D01*
X179958066Y-129530292D01*
X179958067Y-129530293D01*
X180105733Y-129722736D01*
X180105739Y-129722743D01*
X180277256Y-129894260D01*
X180277262Y-129894265D01*
X180469711Y-130041936D01*
X180679788Y-130163224D01*
X180903900Y-130256054D01*
X181138211Y-130318838D01*
X181318586Y-130342584D01*
X181378711Y-130350500D01*
X181378712Y-130350500D01*
X181621289Y-130350500D01*
X181669388Y-130344167D01*
X181861789Y-130318838D01*
X182096100Y-130256054D01*
X182320212Y-130163224D01*
X182530289Y-130041936D01*
X182722738Y-129894265D01*
X182894265Y-129722738D01*
X183041936Y-129530289D01*
X183163224Y-129320212D01*
X183256054Y-129096100D01*
X183318838Y-128861789D01*
X183350500Y-128621288D01*
X183350500Y-128378712D01*
X183318838Y-128138211D01*
X183256054Y-127903900D01*
X183163224Y-127679788D01*
X183041936Y-127469711D01*
X182894265Y-127277262D01*
X182894260Y-127277256D01*
X182722743Y-127105739D01*
X182722736Y-127105733D01*
X182530293Y-126958067D01*
X182530292Y-126958066D01*
X182530289Y-126958064D01*
X182320212Y-126836776D01*
X182320205Y-126836773D01*
X182096104Y-126743947D01*
X181861785Y-126681161D01*
X181621289Y-126649500D01*
X181621288Y-126649500D01*
X181378712Y-126649500D01*
X181378711Y-126649500D01*
X181138214Y-126681161D01*
X180903895Y-126743947D01*
X180679794Y-126836773D01*
X180679785Y-126836777D01*
X180469706Y-126958067D01*
X180277263Y-127105733D01*
X180277256Y-127105739D01*
X180105739Y-127277256D01*
X180105733Y-127277263D01*
X179958067Y-127469706D01*
X179836777Y-127679785D01*
X179836773Y-127679794D01*
X179743947Y-127903895D01*
X179681161Y-128138214D01*
X179649500Y-128378711D01*
X114629450Y-128378711D01*
X114663224Y-128320212D01*
X114756054Y-128096100D01*
X114818838Y-127861789D01*
X114850500Y-127621288D01*
X114850500Y-127378712D01*
X114818838Y-127138211D01*
X114756054Y-126903900D01*
X114663224Y-126679788D01*
X114541936Y-126469711D01*
X114394265Y-126277262D01*
X114394260Y-126277256D01*
X114222743Y-126105739D01*
X114222736Y-126105733D01*
X114030293Y-125958067D01*
X114030292Y-125958066D01*
X114030289Y-125958064D01*
X113820212Y-125836776D01*
X113820205Y-125836773D01*
X113596104Y-125743947D01*
X113361785Y-125681161D01*
X113121289Y-125649500D01*
X113121288Y-125649500D01*
X112878712Y-125649500D01*
X112878711Y-125649500D01*
X112638214Y-125681161D01*
X112403895Y-125743947D01*
X112179794Y-125836773D01*
X112179785Y-125836777D01*
X111969706Y-125958067D01*
X111777263Y-126105733D01*
X111777256Y-126105739D01*
X111605739Y-126277256D01*
X111605733Y-126277263D01*
X111458067Y-126469706D01*
X111336777Y-126679785D01*
X111336773Y-126679794D01*
X111243947Y-126903895D01*
X111181161Y-127138214D01*
X111149500Y-127378711D01*
X107000500Y-127378711D01*
X107000500Y-119707093D01*
X115819500Y-119707093D01*
X115819500Y-119892906D01*
X115848568Y-120076435D01*
X115848568Y-120076438D01*
X115905986Y-120253152D01*
X115905988Y-120253155D01*
X115990346Y-120418717D01*
X116099565Y-120569044D01*
X116230956Y-120700435D01*
X116381283Y-120809654D01*
X116546845Y-120894012D01*
X116546847Y-120894013D01*
X116723562Y-120951431D01*
X116723563Y-120951431D01*
X116723566Y-120951432D01*
X116907093Y-120980500D01*
X116907094Y-120980500D01*
X117092906Y-120980500D01*
X117092907Y-120980500D01*
X117276434Y-120951432D01*
X117276437Y-120951431D01*
X117276438Y-120951431D01*
X117453152Y-120894013D01*
X117453152Y-120894012D01*
X117453155Y-120894012D01*
X117618717Y-120809654D01*
X117769044Y-120700435D01*
X117900435Y-120569044D01*
X118009654Y-120418717D01*
X118094012Y-120253155D01*
X118151432Y-120076434D01*
X118180500Y-119892907D01*
X118180500Y-119707093D01*
X118151432Y-119523566D01*
X118151431Y-119523562D01*
X118151431Y-119523561D01*
X118094013Y-119346847D01*
X118093613Y-119346061D01*
X118009654Y-119181283D01*
X117900435Y-119030956D01*
X117769044Y-118899565D01*
X117618717Y-118790346D01*
X117453152Y-118705986D01*
X117276437Y-118648568D01*
X117138788Y-118626767D01*
X117092907Y-118619500D01*
X116907093Y-118619500D01*
X116845917Y-118629189D01*
X116723564Y-118648568D01*
X116723561Y-118648568D01*
X116546847Y-118705986D01*
X116381282Y-118790346D01*
X116297293Y-118851368D01*
X116230956Y-118899565D01*
X116230954Y-118899567D01*
X116230953Y-118899567D01*
X116099567Y-119030953D01*
X116099567Y-119030954D01*
X116099565Y-119030956D01*
X116066842Y-119075996D01*
X115990346Y-119181282D01*
X115905986Y-119346847D01*
X115848568Y-119523561D01*
X115848568Y-119523564D01*
X115819500Y-119707093D01*
X107000500Y-119707093D01*
X107000500Y-118381902D01*
X127499500Y-118381902D01*
X127499500Y-118618097D01*
X127536446Y-118851368D01*
X127609433Y-119075996D01*
X127663080Y-119181283D01*
X127716657Y-119286433D01*
X127855483Y-119477510D01*
X128022490Y-119644517D01*
X128213567Y-119783343D01*
X128312991Y-119834002D01*
X128424003Y-119890566D01*
X128424005Y-119890566D01*
X128424008Y-119890568D01*
X128533219Y-119926053D01*
X128648631Y-119963553D01*
X128881903Y-120000500D01*
X128881908Y-120000500D01*
X129118097Y-120000500D01*
X129351368Y-119963553D01*
X129353070Y-119963000D01*
X129575992Y-119890568D01*
X129786433Y-119783343D01*
X129977510Y-119644517D01*
X130144517Y-119477510D01*
X130283343Y-119286433D01*
X130390568Y-119075992D01*
X130463553Y-118851368D01*
X130473218Y-118790346D01*
X130500500Y-118618097D01*
X130500500Y-118381902D01*
X130496862Y-118358934D01*
X130494560Y-118344402D01*
X156312000Y-118344402D01*
X156312000Y-118580597D01*
X156348946Y-118813868D01*
X156421933Y-119038496D01*
X156529157Y-119248933D01*
X156667983Y-119440010D01*
X156834990Y-119607017D01*
X157026067Y-119745843D01*
X157099663Y-119783342D01*
X157236503Y-119853066D01*
X157236505Y-119853066D01*
X157236508Y-119853068D01*
X157351915Y-119890566D01*
X157461131Y-119926053D01*
X157694403Y-119963000D01*
X157694408Y-119963000D01*
X157930597Y-119963000D01*
X158163868Y-119926053D01*
X158388492Y-119853068D01*
X158598933Y-119745843D01*
X158790010Y-119607017D01*
X158867434Y-119529593D01*
X173819500Y-119529593D01*
X173819500Y-119715407D01*
X173824321Y-119745843D01*
X173848568Y-119898935D01*
X173848568Y-119898938D01*
X173905986Y-120075652D01*
X173990346Y-120241217D01*
X174099565Y-120391544D01*
X174230956Y-120522935D01*
X174381283Y-120632154D01*
X174515286Y-120700432D01*
X174546847Y-120716513D01*
X174723562Y-120773931D01*
X174723563Y-120773931D01*
X174723566Y-120773932D01*
X174907093Y-120803000D01*
X174907094Y-120803000D01*
X175092906Y-120803000D01*
X175092907Y-120803000D01*
X175276434Y-120773932D01*
X175276437Y-120773931D01*
X175276438Y-120773931D01*
X175453152Y-120716513D01*
X175453152Y-120716512D01*
X175453155Y-120716512D01*
X175618717Y-120632154D01*
X175769044Y-120522935D01*
X175900435Y-120391544D01*
X176009654Y-120241217D01*
X176094012Y-120075655D01*
X176151432Y-119898934D01*
X176180500Y-119715407D01*
X176180500Y-119529593D01*
X176151432Y-119346066D01*
X176151431Y-119346062D01*
X176151431Y-119346061D01*
X176094013Y-119169347D01*
X176023498Y-119030954D01*
X176009654Y-119003783D01*
X175900435Y-118853456D01*
X175769044Y-118722065D01*
X175618717Y-118612846D01*
X175555415Y-118580592D01*
X175453152Y-118528486D01*
X175276437Y-118471068D01*
X175138788Y-118449267D01*
X175092907Y-118442000D01*
X174907093Y-118442000D01*
X174845917Y-118451689D01*
X174723564Y-118471068D01*
X174723561Y-118471068D01*
X174546847Y-118528486D01*
X174381282Y-118612846D01*
X174295515Y-118675159D01*
X174230956Y-118722065D01*
X174230954Y-118722067D01*
X174230953Y-118722067D01*
X174099567Y-118853453D01*
X174099567Y-118853454D01*
X174099565Y-118853456D01*
X174052659Y-118918015D01*
X173990346Y-119003782D01*
X173905986Y-119169347D01*
X173848568Y-119346061D01*
X173848568Y-119346064D01*
X173833688Y-119440011D01*
X173819500Y-119529593D01*
X158867434Y-119529593D01*
X158957017Y-119440010D01*
X159095843Y-119248933D01*
X159203068Y-119038492D01*
X159276053Y-118813868D01*
X159313000Y-118580597D01*
X159313000Y-118344402D01*
X159276053Y-118111131D01*
X159242189Y-118006912D01*
X159203068Y-117886508D01*
X159203066Y-117886505D01*
X159203066Y-117886503D01*
X159114950Y-117713567D01*
X159095843Y-117676067D01*
X158957017Y-117484990D01*
X158790010Y-117317983D01*
X158598933Y-117179157D01*
X158388496Y-117071933D01*
X158163868Y-116998946D01*
X157930597Y-116962000D01*
X157930592Y-116962000D01*
X157694408Y-116962000D01*
X157694403Y-116962000D01*
X157461131Y-116998946D01*
X157236503Y-117071933D01*
X157026066Y-117179157D01*
X156917050Y-117258362D01*
X156834990Y-117317983D01*
X156834988Y-117317985D01*
X156834987Y-117317985D01*
X156667985Y-117484987D01*
X156667985Y-117484988D01*
X156667983Y-117484990D01*
X156640740Y-117522487D01*
X156529157Y-117676066D01*
X156421933Y-117886503D01*
X156348946Y-118111131D01*
X156312000Y-118344402D01*
X130494560Y-118344402D01*
X130463553Y-118148631D01*
X130390566Y-117924003D01*
X130283342Y-117713566D01*
X130144517Y-117522490D01*
X129977510Y-117355483D01*
X129786433Y-117216657D01*
X129575996Y-117109433D01*
X129351368Y-117036446D01*
X129118097Y-116999500D01*
X129118092Y-116999500D01*
X128881908Y-116999500D01*
X128881903Y-116999500D01*
X128648631Y-117036446D01*
X128424003Y-117109433D01*
X128213566Y-117216657D01*
X128104550Y-117295862D01*
X128022490Y-117355483D01*
X128022488Y-117355485D01*
X128022487Y-117355485D01*
X127855485Y-117522487D01*
X127855485Y-117522488D01*
X127855483Y-117522490D01*
X127795862Y-117604550D01*
X127716657Y-117713566D01*
X127609433Y-117924003D01*
X127536446Y-118148631D01*
X127499500Y-118381902D01*
X107000500Y-118381902D01*
X107000500Y-114197135D01*
X115394500Y-114197135D01*
X115394500Y-116502870D01*
X115394501Y-116502876D01*
X115400908Y-116562483D01*
X115451202Y-116697328D01*
X115451206Y-116697335D01*
X115537452Y-116812544D01*
X115537455Y-116812547D01*
X115652664Y-116898793D01*
X115652671Y-116898797D01*
X115787517Y-116949091D01*
X115787516Y-116949091D01*
X115794444Y-116949835D01*
X115847127Y-116955500D01*
X118152872Y-116955499D01*
X118212483Y-116949091D01*
X118347331Y-116898796D01*
X118462546Y-116812546D01*
X118548796Y-116697331D01*
X118599091Y-116562483D01*
X118605500Y-116502873D01*
X118605499Y-114881902D01*
X134999500Y-114881902D01*
X134999500Y-115118097D01*
X135036446Y-115351368D01*
X135109433Y-115575996D01*
X135197550Y-115748933D01*
X135216657Y-115786433D01*
X135355483Y-115977510D01*
X135522490Y-116144517D01*
X135713567Y-116283343D01*
X135796075Y-116325383D01*
X135924003Y-116390566D01*
X135924005Y-116390566D01*
X135924008Y-116390568D01*
X136033219Y-116426053D01*
X136148631Y-116463553D01*
X136381903Y-116500500D01*
X136381908Y-116500500D01*
X136618097Y-116500500D01*
X136851368Y-116463553D01*
X136853070Y-116463000D01*
X137075992Y-116390568D01*
X137286433Y-116283343D01*
X137477510Y-116144517D01*
X137644517Y-115977510D01*
X137783343Y-115786433D01*
X137890568Y-115575992D01*
X137963553Y-115351368D01*
X137969492Y-115313868D01*
X138000500Y-115118097D01*
X138000500Y-114881902D01*
X137996862Y-114858934D01*
X137994560Y-114844402D01*
X163812000Y-114844402D01*
X163812000Y-115080597D01*
X163848946Y-115313868D01*
X163921933Y-115538496D01*
X164029157Y-115748933D01*
X164167983Y-115940010D01*
X164334990Y-116107017D01*
X164526067Y-116245843D01*
X164599663Y-116283342D01*
X164736503Y-116353066D01*
X164736505Y-116353066D01*
X164736508Y-116353068D01*
X164834729Y-116384982D01*
X164961131Y-116426053D01*
X165194403Y-116463000D01*
X165194408Y-116463000D01*
X165430597Y-116463000D01*
X165663868Y-116426053D01*
X165888492Y-116353068D01*
X166098933Y-116245843D01*
X166290010Y-116107017D01*
X166457017Y-115940010D01*
X166595843Y-115748933D01*
X166703068Y-115538492D01*
X166776053Y-115313868D01*
X166813000Y-115080597D01*
X166813000Y-114844402D01*
X166776053Y-114611131D01*
X166742189Y-114506912D01*
X166703068Y-114386508D01*
X166703066Y-114386505D01*
X166703066Y-114386503D01*
X166614950Y-114213567D01*
X166595843Y-114176067D01*
X166457017Y-113984990D01*
X166290010Y-113817983D01*
X166098933Y-113679157D01*
X165888496Y-113571933D01*
X165663868Y-113498946D01*
X165430597Y-113462000D01*
X165430592Y-113462000D01*
X165194408Y-113462000D01*
X165194403Y-113462000D01*
X164961131Y-113498946D01*
X164736503Y-113571933D01*
X164526066Y-113679157D01*
X164427309Y-113750909D01*
X164334990Y-113817983D01*
X164334988Y-113817985D01*
X164334987Y-113817985D01*
X164167985Y-113984987D01*
X164167985Y-113984988D01*
X164167983Y-113984990D01*
X164142812Y-114019635D01*
X164029157Y-114176066D01*
X163921933Y-114386503D01*
X163848946Y-114611131D01*
X163812000Y-114844402D01*
X137994560Y-114844402D01*
X137963553Y-114648631D01*
X137890566Y-114424003D01*
X137783342Y-114213566D01*
X137771399Y-114197128D01*
X137644517Y-114022490D01*
X137477510Y-113855483D01*
X137286433Y-113716657D01*
X137273274Y-113709952D01*
X137075996Y-113609433D01*
X136851368Y-113536446D01*
X136618097Y-113499500D01*
X136618092Y-113499500D01*
X136381908Y-113499500D01*
X136381903Y-113499500D01*
X136148631Y-113536446D01*
X135924003Y-113609433D01*
X135713566Y-113716657D01*
X135666423Y-113750909D01*
X135522490Y-113855483D01*
X135522488Y-113855485D01*
X135522487Y-113855485D01*
X135355485Y-114022487D01*
X135355485Y-114022488D01*
X135355483Y-114022490D01*
X135295862Y-114104550D01*
X135216657Y-114213566D01*
X135109433Y-114424003D01*
X135036446Y-114648631D01*
X134999500Y-114881902D01*
X118605499Y-114881902D01*
X118605499Y-114197128D01*
X118599091Y-114137517D01*
X118555121Y-114019628D01*
X118548797Y-114002671D01*
X118548793Y-114002664D01*
X118462547Y-113887455D01*
X118462544Y-113887452D01*
X118347335Y-113801206D01*
X118347328Y-113801202D01*
X118212482Y-113750908D01*
X118212483Y-113750908D01*
X118152883Y-113744501D01*
X118152881Y-113744500D01*
X118152873Y-113744500D01*
X118152864Y-113744500D01*
X115847129Y-113744500D01*
X115847123Y-113744501D01*
X115787516Y-113750908D01*
X115652671Y-113801202D01*
X115652664Y-113801206D01*
X115537455Y-113887452D01*
X115537452Y-113887455D01*
X115451206Y-114002664D01*
X115451202Y-114002671D01*
X115400908Y-114137517D01*
X115396764Y-114176066D01*
X115394501Y-114197123D01*
X115394500Y-114197135D01*
X107000500Y-114197135D01*
X107000500Y-111381902D01*
X127499500Y-111381902D01*
X127499500Y-111618097D01*
X127536446Y-111851368D01*
X127609433Y-112075996D01*
X127697550Y-112248933D01*
X127716657Y-112286433D01*
X127855483Y-112477510D01*
X128022490Y-112644517D01*
X128213567Y-112783343D01*
X128312991Y-112834002D01*
X128424003Y-112890566D01*
X128424005Y-112890566D01*
X128424008Y-112890568D01*
X128544412Y-112929689D01*
X128648631Y-112963553D01*
X128881903Y-113000500D01*
X128881908Y-113000500D01*
X129118097Y-113000500D01*
X129351368Y-112963553D01*
X129353070Y-112963000D01*
X129575992Y-112890568D01*
X129786433Y-112783343D01*
X129977510Y-112644517D01*
X130144517Y-112477510D01*
X130283343Y-112286433D01*
X130390568Y-112075992D01*
X130463553Y-111851368D01*
X130469492Y-111813868D01*
X130500500Y-111618097D01*
X130500500Y-111381902D01*
X130496862Y-111358934D01*
X130494560Y-111344402D01*
X156312000Y-111344402D01*
X156312000Y-111580597D01*
X156348946Y-111813868D01*
X156421933Y-112038496D01*
X156529157Y-112248933D01*
X156667983Y-112440010D01*
X156834990Y-112607017D01*
X157026067Y-112745843D01*
X157095245Y-112781091D01*
X157236503Y-112853066D01*
X157236505Y-112853066D01*
X157236508Y-112853068D01*
X157351915Y-112890566D01*
X157461131Y-112926053D01*
X157694403Y-112963000D01*
X157694408Y-112963000D01*
X157930597Y-112963000D01*
X158163868Y-112926053D01*
X158388492Y-112853068D01*
X158598933Y-112745843D01*
X158790010Y-112607017D01*
X158957017Y-112440010D01*
X159095843Y-112248933D01*
X159203068Y-112038492D01*
X159276053Y-111813868D01*
X159313000Y-111580597D01*
X159313000Y-111344402D01*
X159276053Y-111111131D01*
X159242189Y-111006912D01*
X159203068Y-110886508D01*
X159203066Y-110886505D01*
X159203066Y-110886503D01*
X159114950Y-110713567D01*
X159095843Y-110676067D01*
X158957017Y-110484990D01*
X158790010Y-110317983D01*
X158598933Y-110179157D01*
X158388496Y-110071933D01*
X158163868Y-109998946D01*
X157930597Y-109962000D01*
X157930592Y-109962000D01*
X157694408Y-109962000D01*
X157694403Y-109962000D01*
X157461131Y-109998946D01*
X157236503Y-110071933D01*
X157026066Y-110179157D01*
X156917050Y-110258362D01*
X156834990Y-110317983D01*
X156834988Y-110317985D01*
X156834987Y-110317985D01*
X156667985Y-110484987D01*
X156667985Y-110484988D01*
X156667983Y-110484990D01*
X156640740Y-110522487D01*
X156529157Y-110676066D01*
X156421933Y-110886503D01*
X156348946Y-111111131D01*
X156312000Y-111344402D01*
X130494560Y-111344402D01*
X130463553Y-111148631D01*
X130390566Y-110924003D01*
X130283342Y-110713566D01*
X130144517Y-110522490D01*
X129977510Y-110355483D01*
X129786433Y-110216657D01*
X129744357Y-110195218D01*
X129575996Y-110109433D01*
X129351368Y-110036446D01*
X129118097Y-109999500D01*
X129118092Y-109999500D01*
X128881908Y-109999500D01*
X128881903Y-109999500D01*
X128648631Y-110036446D01*
X128424003Y-110109433D01*
X128213566Y-110216657D01*
X128111367Y-110290910D01*
X128022490Y-110355483D01*
X128022488Y-110355485D01*
X128022487Y-110355485D01*
X127855485Y-110522487D01*
X127855485Y-110522488D01*
X127855483Y-110522490D01*
X127795862Y-110604550D01*
X127716657Y-110713566D01*
X127609433Y-110924003D01*
X127536446Y-111148631D01*
X127499500Y-111381902D01*
X107000500Y-111381902D01*
X107000500Y-108873638D01*
X115394500Y-108873638D01*
X115394500Y-109126361D01*
X115434032Y-109375956D01*
X115512125Y-109616302D01*
X115581522Y-109752500D01*
X115626853Y-109841466D01*
X115775393Y-110045913D01*
X115954087Y-110224607D01*
X116158534Y-110373147D01*
X116264916Y-110427351D01*
X116383697Y-110487874D01*
X116383699Y-110487874D01*
X116383702Y-110487876D01*
X116624044Y-110565968D01*
X116752638Y-110586335D01*
X116873639Y-110605500D01*
X116873644Y-110605500D01*
X117126361Y-110605500D01*
X117236665Y-110588028D01*
X117375956Y-110565968D01*
X117616298Y-110487876D01*
X117841466Y-110373147D01*
X118045913Y-110224607D01*
X118224607Y-110045913D01*
X118373147Y-109841466D01*
X118487876Y-109616298D01*
X118565968Y-109375956D01*
X118588028Y-109236665D01*
X118605500Y-109126361D01*
X118605500Y-108873638D01*
X118582892Y-108730903D01*
X118565968Y-108624044D01*
X118487876Y-108383702D01*
X118487874Y-108383699D01*
X118487874Y-108383697D01*
X118373146Y-108158533D01*
X118224607Y-107954087D01*
X118045913Y-107775393D01*
X117841466Y-107626853D01*
X117616302Y-107512125D01*
X117375956Y-107434032D01*
X117126361Y-107394500D01*
X117126356Y-107394500D01*
X116873644Y-107394500D01*
X116873639Y-107394500D01*
X116624043Y-107434032D01*
X116383697Y-107512125D01*
X116158533Y-107626853D01*
X116041889Y-107711600D01*
X115954087Y-107775393D01*
X115954085Y-107775395D01*
X115954084Y-107775395D01*
X115775395Y-107954084D01*
X115775395Y-107954085D01*
X115775393Y-107954087D01*
X115743238Y-107998345D01*
X115626853Y-108158533D01*
X115512125Y-108383697D01*
X115434032Y-108624043D01*
X115394500Y-108873638D01*
X107000500Y-108873638D01*
X107000500Y-96744593D01*
X145184500Y-96744593D01*
X145184500Y-96930406D01*
X145213568Y-97113935D01*
X145213568Y-97113938D01*
X145270986Y-97290652D01*
X145270988Y-97290655D01*
X145355346Y-97456217D01*
X145464565Y-97606544D01*
X145595956Y-97737935D01*
X145746283Y-97847154D01*
X145911845Y-97931512D01*
X145911847Y-97931513D01*
X146088562Y-97988931D01*
X146088563Y-97988931D01*
X146088566Y-97988932D01*
X146272093Y-98018000D01*
X146272094Y-98018000D01*
X146457906Y-98018000D01*
X146457907Y-98018000D01*
X146641434Y-97988932D01*
X146641437Y-97988931D01*
X146641438Y-97988931D01*
X146818152Y-97931513D01*
X146818152Y-97931512D01*
X146818155Y-97931512D01*
X146983717Y-97847154D01*
X147134044Y-97737935D01*
X147265435Y-97606544D01*
X147374654Y-97456217D01*
X147459012Y-97290655D01*
X147516432Y-97113934D01*
X147545500Y-96930407D01*
X147545500Y-96744593D01*
X147516432Y-96561066D01*
X147516431Y-96561062D01*
X147516431Y-96561061D01*
X147459013Y-96384347D01*
X147445174Y-96357187D01*
X147374654Y-96218783D01*
X147265435Y-96068456D01*
X147134044Y-95937065D01*
X146983717Y-95827846D01*
X146818152Y-95743486D01*
X146641437Y-95686068D01*
X146503788Y-95664267D01*
X146457907Y-95657000D01*
X146272093Y-95657000D01*
X146210917Y-95666689D01*
X146088564Y-95686068D01*
X146088561Y-95686068D01*
X145911847Y-95743486D01*
X145746282Y-95827846D01*
X145660515Y-95890159D01*
X145595956Y-95937065D01*
X145595954Y-95937067D01*
X145595953Y-95937067D01*
X145464567Y-96068453D01*
X145464567Y-96068454D01*
X145464565Y-96068456D01*
X145436551Y-96107014D01*
X145355346Y-96218782D01*
X145270986Y-96384347D01*
X145213568Y-96561061D01*
X145213568Y-96561064D01*
X145184500Y-96744593D01*
X107000500Y-96744593D01*
X107000500Y-93952155D01*
X127500000Y-93952155D01*
X127500000Y-94750000D01*
X128399999Y-94750000D01*
X128374979Y-94810402D01*
X128350000Y-94935981D01*
X128350000Y-95064019D01*
X128374979Y-95189598D01*
X128399999Y-95250000D01*
X127500000Y-95250000D01*
X127500000Y-96047844D01*
X127506401Y-96107372D01*
X127506403Y-96107379D01*
X127556645Y-96242086D01*
X127556649Y-96242093D01*
X127642809Y-96357187D01*
X127642812Y-96357190D01*
X127757906Y-96443350D01*
X127757913Y-96443354D01*
X127892620Y-96493596D01*
X127892627Y-96493598D01*
X127952155Y-96499999D01*
X127952172Y-96500000D01*
X128750000Y-96500000D01*
X128750000Y-95600001D01*
X128810402Y-95625021D01*
X128935981Y-95650000D01*
X129064019Y-95650000D01*
X129189598Y-95625021D01*
X129250000Y-95600001D01*
X129250000Y-96500000D01*
X130047828Y-96500000D01*
X130047844Y-96499999D01*
X130107372Y-96493598D01*
X130107379Y-96493596D01*
X130242086Y-96443354D01*
X130242093Y-96443350D01*
X130357187Y-96357190D01*
X130357190Y-96357187D01*
X130443350Y-96242093D01*
X130443354Y-96242086D01*
X130493596Y-96107379D01*
X130493598Y-96107372D01*
X130499999Y-96047844D01*
X130500000Y-96047827D01*
X130500000Y-95250000D01*
X129600001Y-95250000D01*
X129625021Y-95189598D01*
X129650000Y-95064019D01*
X129650000Y-94935981D01*
X129625021Y-94810402D01*
X129600001Y-94750000D01*
X130500000Y-94750000D01*
X130500000Y-93952172D01*
X130499999Y-93952155D01*
X130493598Y-93892627D01*
X130493596Y-93892620D01*
X130443354Y-93757913D01*
X130443350Y-93757906D01*
X130357190Y-93642812D01*
X130357187Y-93642809D01*
X130242093Y-93556649D01*
X130242086Y-93556645D01*
X130107379Y-93506403D01*
X130107372Y-93506401D01*
X130047844Y-93500000D01*
X129250000Y-93500000D01*
X129250000Y-94399998D01*
X129189598Y-94374979D01*
X129064019Y-94350000D01*
X128935981Y-94350000D01*
X128810402Y-94374979D01*
X128750000Y-94399998D01*
X128750000Y-93500000D01*
X127952155Y-93500000D01*
X127892627Y-93506401D01*
X127892620Y-93506403D01*
X127757913Y-93556645D01*
X127757906Y-93556649D01*
X127642812Y-93642809D01*
X127642809Y-93642812D01*
X127556649Y-93757906D01*
X127556645Y-93757913D01*
X127506403Y-93892620D01*
X127506401Y-93892627D01*
X127500000Y-93952155D01*
X107000500Y-93952155D01*
X107000500Y-90237486D01*
X128937501Y-90237486D01*
X128947994Y-90340197D01*
X129003141Y-90506619D01*
X129003143Y-90506624D01*
X129095184Y-90655845D01*
X129219154Y-90779815D01*
X129368375Y-90871856D01*
X129368380Y-90871858D01*
X129534802Y-90927005D01*
X129534809Y-90927006D01*
X129637519Y-90937499D01*
X130437499Y-90937499D01*
X130937500Y-90937499D01*
X131737472Y-90937499D01*
X131737486Y-90937498D01*
X131840197Y-90927005D01*
X132006619Y-90871858D01*
X132006624Y-90871856D01*
X132155845Y-90779815D01*
X132279815Y-90655845D01*
X132371856Y-90506624D01*
X132371858Y-90506619D01*
X132427005Y-90340197D01*
X132427006Y-90340190D01*
X132437499Y-90237486D01*
X132437500Y-90237473D01*
X132437500Y-89787500D01*
X130937500Y-89787500D01*
X130937500Y-90937499D01*
X130437499Y-90937499D01*
X130437500Y-90937498D01*
X130437500Y-89787500D01*
X128937501Y-89787500D01*
X128937501Y-90237486D01*
X107000500Y-90237486D01*
X107000500Y-86936420D01*
X127436999Y-86936420D01*
X127465840Y-87081407D01*
X127465843Y-87081417D01*
X127522412Y-87217988D01*
X127522420Y-87218002D01*
X127551131Y-87260970D01*
X127551132Y-87260973D01*
X127551133Y-87260973D01*
X127589675Y-87318657D01*
X127604551Y-87340920D01*
X127604552Y-87340921D01*
X128447584Y-88183952D01*
X128447586Y-88183954D01*
X128475621Y-88202685D01*
X128521270Y-88233186D01*
X128570505Y-88266084D01*
X128611226Y-88282951D01*
X128707088Y-88322659D01*
X128823241Y-88345763D01*
X128852082Y-88351500D01*
X128852083Y-88351500D01*
X128919092Y-88351500D01*
X128923422Y-88351804D01*
X128952266Y-88362519D01*
X128981778Y-88371185D01*
X128984713Y-88374573D01*
X128988918Y-88376135D01*
X129007392Y-88400745D01*
X129027533Y-88423989D01*
X129028170Y-88428425D01*
X129030864Y-88432013D01*
X129033099Y-88462702D01*
X129037477Y-88493147D01*
X129035678Y-88498108D01*
X129035940Y-88501698D01*
X129031263Y-88510289D01*
X129020278Y-88540597D01*
X129003143Y-88568375D01*
X129003141Y-88568380D01*
X128947994Y-88734802D01*
X128947993Y-88734809D01*
X128937500Y-88837513D01*
X128937500Y-89287500D01*
X132437499Y-89287500D01*
X132437499Y-88837528D01*
X132437498Y-88837513D01*
X132427006Y-88734804D01*
X132395110Y-88638551D01*
X132392708Y-88568722D01*
X132428439Y-88508680D01*
X132490959Y-88477487D01*
X132560419Y-88485047D01*
X132600497Y-88511865D01*
X132900681Y-88812048D01*
X132934166Y-88873371D01*
X132937000Y-88899729D01*
X132937000Y-90237501D01*
X132937001Y-90237518D01*
X132947500Y-90340296D01*
X132947501Y-90340299D01*
X132967569Y-90400858D01*
X133002686Y-90506834D01*
X133094788Y-90656156D01*
X133218844Y-90780212D01*
X133368166Y-90872314D01*
X133534703Y-90927499D01*
X133637491Y-90938000D01*
X133813000Y-90937999D01*
X133880039Y-90957683D01*
X133925794Y-91010487D01*
X133937000Y-91061999D01*
X133937000Y-93261418D01*
X133937000Y-93261420D01*
X133936999Y-93261420D01*
X133965840Y-93406407D01*
X133965843Y-93406417D01*
X134022414Y-93542992D01*
X134041750Y-93571930D01*
X134041751Y-93571933D01*
X134104546Y-93665914D01*
X134104552Y-93665921D01*
X134998719Y-94560087D01*
X135032204Y-94621410D01*
X135033511Y-94667166D01*
X134999500Y-94881902D01*
X134999500Y-95118097D01*
X135036446Y-95351368D01*
X135109433Y-95575996D01*
X135165518Y-95686068D01*
X135216657Y-95786433D01*
X135355483Y-95977510D01*
X135522490Y-96144517D01*
X135713567Y-96283343D01*
X135784896Y-96319687D01*
X135924003Y-96390566D01*
X135924005Y-96390566D01*
X135924008Y-96390568D01*
X136033219Y-96426053D01*
X136148631Y-96463553D01*
X136381903Y-96500500D01*
X136381908Y-96500500D01*
X136618097Y-96500500D01*
X136851368Y-96463553D01*
X136874318Y-96456096D01*
X137075992Y-96390568D01*
X137286433Y-96283343D01*
X137477510Y-96144517D01*
X137644517Y-95977510D01*
X137783343Y-95786433D01*
X137890568Y-95575992D01*
X137963553Y-95351368D01*
X137979608Y-95250000D01*
X137996755Y-95141740D01*
X137996755Y-95141739D01*
X138000500Y-95118095D01*
X138000500Y-94881902D01*
X137963553Y-94648631D01*
X137913671Y-94495112D01*
X137890568Y-94424008D01*
X137890566Y-94424005D01*
X137890566Y-94424003D01*
X137783342Y-94213566D01*
X137644517Y-94022490D01*
X137477510Y-93855483D01*
X137286433Y-93716657D01*
X137075996Y-93609433D01*
X136851368Y-93536446D01*
X136618097Y-93499500D01*
X136618092Y-93499500D01*
X136381908Y-93499500D01*
X136381903Y-93499500D01*
X136167166Y-93533511D01*
X136097872Y-93524556D01*
X136060087Y-93498719D01*
X135474319Y-92912951D01*
X135440834Y-92851628D01*
X135438000Y-92825270D01*
X135438000Y-91061999D01*
X135457685Y-90994960D01*
X135510489Y-90949205D01*
X135562000Y-90937999D01*
X135737502Y-90937999D01*
X135737508Y-90937999D01*
X135840297Y-90927499D01*
X136006834Y-90872314D01*
X136156156Y-90780212D01*
X136280212Y-90656156D01*
X136372314Y-90506834D01*
X136427499Y-90340297D01*
X136438000Y-90237509D01*
X136437999Y-88837492D01*
X136434170Y-88800013D01*
X136427499Y-88734703D01*
X136427498Y-88734700D01*
X136415106Y-88697304D01*
X136372314Y-88568166D01*
X136280212Y-88418844D01*
X136156156Y-88294788D01*
X136006834Y-88202686D01*
X135840297Y-88147501D01*
X135840295Y-88147500D01*
X135737516Y-88137000D01*
X135737509Y-88137000D01*
X134399730Y-88137000D01*
X134332691Y-88117315D01*
X134312049Y-88100681D01*
X134015590Y-87804222D01*
X133982105Y-87742899D01*
X133987089Y-87673207D01*
X134028961Y-87617274D01*
X134094425Y-87592857D01*
X134115868Y-87593182D01*
X134187491Y-87600500D01*
X135187508Y-87600499D01*
X135187516Y-87600498D01*
X135187519Y-87600498D01*
X135259127Y-87593183D01*
X135290297Y-87589999D01*
X135456834Y-87534814D01*
X135606156Y-87442712D01*
X135730212Y-87318656D01*
X135797599Y-87209402D01*
X135849547Y-87162679D01*
X135903138Y-87150500D01*
X140156692Y-87150500D01*
X140223731Y-87170185D01*
X140244373Y-87186819D01*
X144723181Y-91665627D01*
X144756666Y-91726950D01*
X144759500Y-91753308D01*
X144759501Y-93540370D01*
X144765908Y-93599983D01*
X144816202Y-93734828D01*
X144816206Y-93734835D01*
X144902452Y-93850044D01*
X144902455Y-93850047D01*
X145017664Y-93936293D01*
X145017671Y-93936297D01*
X145152517Y-93986591D01*
X145152516Y-93986591D01*
X145159444Y-93987335D01*
X145212127Y-93993000D01*
X147517872Y-93992999D01*
X147577483Y-93986591D01*
X147712331Y-93936296D01*
X147741240Y-93914655D01*
X156312500Y-93914655D01*
X156312500Y-94712500D01*
X157212499Y-94712500D01*
X157187479Y-94772902D01*
X157162500Y-94898481D01*
X157162500Y-95026519D01*
X157187479Y-95152098D01*
X157212499Y-95212500D01*
X156312500Y-95212500D01*
X156312500Y-96010344D01*
X156318901Y-96069872D01*
X156318903Y-96069879D01*
X156369145Y-96204586D01*
X156369149Y-96204593D01*
X156455309Y-96319687D01*
X156455312Y-96319690D01*
X156570406Y-96405850D01*
X156570413Y-96405854D01*
X156705120Y-96456096D01*
X156705127Y-96456098D01*
X156764655Y-96462499D01*
X156764672Y-96462500D01*
X157562500Y-96462500D01*
X157562500Y-95562501D01*
X157622902Y-95587521D01*
X157748481Y-95612500D01*
X157876519Y-95612500D01*
X158002098Y-95587521D01*
X158062500Y-95562501D01*
X158062500Y-96462500D01*
X158860328Y-96462500D01*
X158860344Y-96462499D01*
X158919872Y-96456098D01*
X158919879Y-96456096D01*
X159054586Y-96405854D01*
X159054593Y-96405850D01*
X159169687Y-96319690D01*
X159169690Y-96319687D01*
X159255850Y-96204593D01*
X159255854Y-96204586D01*
X159306096Y-96069879D01*
X159306098Y-96069872D01*
X159312499Y-96010344D01*
X159312500Y-96010327D01*
X159312500Y-95212500D01*
X158412501Y-95212500D01*
X158437521Y-95152098D01*
X158462500Y-95026519D01*
X158462500Y-94898481D01*
X158437521Y-94772902D01*
X158412501Y-94712500D01*
X159312500Y-94712500D01*
X159312500Y-93914672D01*
X159312499Y-93914655D01*
X159306098Y-93855127D01*
X159306096Y-93855120D01*
X159255854Y-93720413D01*
X159255850Y-93720406D01*
X159169690Y-93605312D01*
X159169687Y-93605309D01*
X159054593Y-93519149D01*
X159054586Y-93519145D01*
X158919879Y-93468903D01*
X158919872Y-93468901D01*
X158860344Y-93462500D01*
X158062500Y-93462500D01*
X158062500Y-94362498D01*
X158002098Y-94337479D01*
X157876519Y-94312500D01*
X157748481Y-94312500D01*
X157622902Y-94337479D01*
X157562500Y-94362498D01*
X157562500Y-93462500D01*
X156764655Y-93462500D01*
X156705127Y-93468901D01*
X156705120Y-93468903D01*
X156570413Y-93519145D01*
X156570406Y-93519149D01*
X156455312Y-93605309D01*
X156455309Y-93605312D01*
X156369149Y-93720406D01*
X156369145Y-93720413D01*
X156318903Y-93855120D01*
X156318901Y-93855127D01*
X156312500Y-93914655D01*
X147741240Y-93914655D01*
X147827546Y-93850046D01*
X147913796Y-93734831D01*
X147964091Y-93599983D01*
X147970500Y-93540373D01*
X147970499Y-91234628D01*
X147964091Y-91175017D01*
X147953622Y-91146949D01*
X147913797Y-91040171D01*
X147913793Y-91040164D01*
X147827547Y-90924955D01*
X147827544Y-90924952D01*
X147712335Y-90838706D01*
X147712328Y-90838702D01*
X147577482Y-90788408D01*
X147577483Y-90788408D01*
X147517883Y-90782001D01*
X147517881Y-90782000D01*
X147517873Y-90782000D01*
X147517865Y-90782000D01*
X145730808Y-90782000D01*
X145663769Y-90762315D01*
X145643127Y-90745681D01*
X145359627Y-90462181D01*
X145326142Y-90400858D01*
X145331126Y-90331166D01*
X145372998Y-90275233D01*
X145438462Y-90250816D01*
X145447308Y-90250500D01*
X149573920Y-90250500D01*
X149671462Y-90231096D01*
X149718913Y-90221658D01*
X149771234Y-90199986D01*
X157750001Y-90199986D01*
X157760494Y-90302697D01*
X157815641Y-90469119D01*
X157815643Y-90469124D01*
X157907684Y-90618345D01*
X158031654Y-90742315D01*
X158180875Y-90834356D01*
X158180880Y-90834358D01*
X158347302Y-90889505D01*
X158347309Y-90889506D01*
X158450019Y-90899999D01*
X159249999Y-90899999D01*
X159750000Y-90899999D01*
X160549972Y-90899999D01*
X160549986Y-90899998D01*
X160652697Y-90889505D01*
X160819119Y-90834358D01*
X160819124Y-90834356D01*
X160968345Y-90742315D01*
X161092315Y-90618345D01*
X161184356Y-90469124D01*
X161184358Y-90469119D01*
X161239505Y-90302697D01*
X161239506Y-90302690D01*
X161249999Y-90199986D01*
X161250000Y-90199973D01*
X161250000Y-89750000D01*
X159750000Y-89750000D01*
X159750000Y-90899999D01*
X159249999Y-90899999D01*
X159250000Y-90899998D01*
X159250000Y-89750000D01*
X157750001Y-89750000D01*
X157750001Y-90199986D01*
X149771234Y-90199986D01*
X149855495Y-90165084D01*
X149978416Y-90082951D01*
X150082951Y-89978416D01*
X150165084Y-89855495D01*
X150221658Y-89718913D01*
X150221659Y-89718908D01*
X150230504Y-89674445D01*
X150230504Y-89674443D01*
X150250499Y-89573922D01*
X150250500Y-89573920D01*
X150250500Y-84999500D01*
X150270185Y-84932461D01*
X150322989Y-84886706D01*
X150374500Y-84875500D01*
X156380562Y-84875500D01*
X156447601Y-84895185D01*
X156493356Y-84947989D01*
X156503300Y-85017147D01*
X156474275Y-85080703D01*
X156456048Y-85097876D01*
X156421719Y-85124216D01*
X156325463Y-85249660D01*
X156264955Y-85395739D01*
X156263677Y-85400509D01*
X156258466Y-85415859D01*
X156228341Y-85488590D01*
X156228340Y-85488593D01*
X156199500Y-85633579D01*
X156199500Y-85633582D01*
X156199500Y-86523918D01*
X156199500Y-86523920D01*
X156199499Y-86523920D01*
X156228340Y-86668907D01*
X156228342Y-86668913D01*
X156284915Y-86805493D01*
X156286668Y-86808116D01*
X156286672Y-86808128D01*
X156286675Y-86808127D01*
X156356868Y-86913181D01*
X156367051Y-86928420D01*
X156367052Y-86928421D01*
X157721583Y-88282951D01*
X157721586Y-88282954D01*
X157739298Y-88294788D01*
X157781010Y-88322658D01*
X157797066Y-88333386D01*
X157808944Y-88347600D01*
X157841867Y-88386995D01*
X157841867Y-88386998D01*
X157841869Y-88387000D01*
X157845096Y-88412697D01*
X157850576Y-88456320D01*
X157850574Y-88456323D01*
X157850575Y-88456325D01*
X157850571Y-88456333D01*
X157833712Y-88501581D01*
X157815645Y-88530873D01*
X157815641Y-88530880D01*
X157760494Y-88697302D01*
X157760493Y-88697309D01*
X157750000Y-88800013D01*
X157750000Y-89250000D01*
X161249999Y-89250000D01*
X161249999Y-88800028D01*
X161249998Y-88800013D01*
X161239506Y-88697304D01*
X161211737Y-88613505D01*
X161209335Y-88543676D01*
X161245066Y-88483634D01*
X161307587Y-88452441D01*
X161329443Y-88450500D01*
X161670031Y-88450500D01*
X161737070Y-88470185D01*
X161782825Y-88522989D01*
X161792769Y-88592147D01*
X161787739Y-88613492D01*
X161760138Y-88696788D01*
X161760000Y-88697206D01*
X161749500Y-88799983D01*
X161749500Y-90200001D01*
X161749501Y-90200018D01*
X161760000Y-90302796D01*
X161760001Y-90302799D01*
X161815185Y-90469331D01*
X161815187Y-90469336D01*
X161838314Y-90506831D01*
X161907288Y-90618656D01*
X162031344Y-90742712D01*
X162180666Y-90834814D01*
X162347203Y-90889999D01*
X162449991Y-90900500D01*
X162625500Y-90900499D01*
X162692539Y-90920183D01*
X162738294Y-90972987D01*
X162749500Y-91024499D01*
X162749500Y-91826082D01*
X162749500Y-93223918D01*
X162749500Y-93223920D01*
X162749499Y-93223920D01*
X162778340Y-93368907D01*
X162778343Y-93368917D01*
X162834914Y-93505492D01*
X162834915Y-93505494D01*
X162834916Y-93505495D01*
X162855597Y-93536447D01*
X162858219Y-93540370D01*
X162858220Y-93540373D01*
X162917046Y-93628414D01*
X162917052Y-93628421D01*
X163811219Y-94522587D01*
X163844704Y-94583910D01*
X163846011Y-94629666D01*
X163812000Y-94844402D01*
X163812000Y-95080597D01*
X163848946Y-95313868D01*
X163921933Y-95538496D01*
X164026382Y-95743486D01*
X164029157Y-95748933D01*
X164167983Y-95940010D01*
X164334990Y-96107017D01*
X164526067Y-96245843D01*
X164599663Y-96283342D01*
X164736503Y-96353066D01*
X164736505Y-96353066D01*
X164736508Y-96353068D01*
X164832775Y-96384347D01*
X164961131Y-96426053D01*
X165194403Y-96463000D01*
X165194408Y-96463000D01*
X165430597Y-96463000D01*
X165663868Y-96426053D01*
X165888492Y-96353068D01*
X166098933Y-96245843D01*
X166290010Y-96107017D01*
X166457017Y-95940010D01*
X166595843Y-95748933D01*
X166703068Y-95538492D01*
X166776053Y-95313868D01*
X166792108Y-95212500D01*
X166813000Y-95080597D01*
X166813000Y-94844402D01*
X166776053Y-94611131D01*
X166726171Y-94457612D01*
X166703068Y-94386508D01*
X166703066Y-94386505D01*
X166703066Y-94386503D01*
X166614950Y-94213567D01*
X166595843Y-94176067D01*
X166457017Y-93984990D01*
X166290010Y-93817983D01*
X166098933Y-93679157D01*
X166072942Y-93665914D01*
X165888496Y-93571933D01*
X165663868Y-93498946D01*
X165430597Y-93462000D01*
X165430592Y-93462000D01*
X165194408Y-93462000D01*
X165194403Y-93462000D01*
X164979666Y-93496011D01*
X164910372Y-93487056D01*
X164872587Y-93461219D01*
X164286819Y-92875451D01*
X164272115Y-92848523D01*
X164255523Y-92822705D01*
X164254631Y-92816504D01*
X164253334Y-92814128D01*
X164250500Y-92787770D01*
X164250500Y-92774500D01*
X164270185Y-92707461D01*
X164322989Y-92661706D01*
X164374500Y-92650500D01*
X165573920Y-92650500D01*
X165671462Y-92631096D01*
X165718913Y-92621658D01*
X165855495Y-92565084D01*
X165978416Y-92482951D01*
X166082951Y-92378416D01*
X166165084Y-92255495D01*
X166221658Y-92118913D01*
X166250500Y-91973918D01*
X166250500Y-87626082D01*
X166250500Y-87626079D01*
X166221659Y-87481092D01*
X166221658Y-87481091D01*
X166221658Y-87481087D01*
X166192481Y-87410647D01*
X166165087Y-87344511D01*
X166165080Y-87344498D01*
X166082951Y-87221584D01*
X166082948Y-87221580D01*
X165978419Y-87117051D01*
X165978415Y-87117048D01*
X165855501Y-87034919D01*
X165855488Y-87034912D01*
X165718917Y-86978343D01*
X165718907Y-86978340D01*
X165573920Y-86949500D01*
X165573918Y-86949500D01*
X163683594Y-86949500D01*
X163616555Y-86929815D01*
X163570800Y-86877011D01*
X163560856Y-86807853D01*
X163578055Y-86760403D01*
X163634356Y-86669124D01*
X163634358Y-86669119D01*
X163689505Y-86502697D01*
X163689506Y-86502690D01*
X163699999Y-86399986D01*
X163700000Y-86399973D01*
X163700000Y-86250000D01*
X161300001Y-86250000D01*
X161300001Y-86399986D01*
X161310494Y-86502697D01*
X161365641Y-86669119D01*
X161365643Y-86669124D01*
X161421945Y-86760403D01*
X161440385Y-86827796D01*
X161419462Y-86894459D01*
X161365820Y-86939229D01*
X161316406Y-86949500D01*
X158562230Y-86949500D01*
X158495191Y-86929815D01*
X158474549Y-86913181D01*
X158198084Y-86636716D01*
X158183362Y-86609755D01*
X158166768Y-86583902D01*
X158166770Y-86579369D01*
X158164599Y-86575393D01*
X158166790Y-86544750D01*
X158166808Y-86514032D01*
X158169259Y-86510221D01*
X158169583Y-86505701D01*
X158187994Y-86481106D01*
X158204616Y-86455276D01*
X158209665Y-86452158D01*
X158211455Y-86449768D01*
X158234318Y-86436211D01*
X158236258Y-86435325D01*
X158352841Y-86387036D01*
X158368485Y-86375031D01*
X158381327Y-86369176D01*
X158402504Y-86366143D01*
X158422457Y-86358430D01*
X158432774Y-86358000D01*
X158756571Y-86358000D01*
X158841115Y-86341182D01*
X158882244Y-86333001D01*
X159000627Y-86283965D01*
X159024196Y-86268217D01*
X159024197Y-86268217D01*
X159086284Y-86226731D01*
X159107169Y-86212777D01*
X160633127Y-84686819D01*
X160694450Y-84653334D01*
X160720808Y-84650500D01*
X161284362Y-84650500D01*
X161351401Y-84670185D01*
X161389899Y-84709401D01*
X161453735Y-84812895D01*
X161457289Y-84818657D01*
X161551304Y-84912672D01*
X161584789Y-84973995D01*
X161579805Y-85043687D01*
X161551305Y-85088034D01*
X161457682Y-85181657D01*
X161365643Y-85330875D01*
X161365641Y-85330880D01*
X161310494Y-85497302D01*
X161310493Y-85497309D01*
X161300000Y-85600013D01*
X161300000Y-85750000D01*
X163699999Y-85750000D01*
X163699999Y-85600028D01*
X163699998Y-85600013D01*
X163689505Y-85497302D01*
X163634358Y-85330880D01*
X163634356Y-85330875D01*
X163542315Y-85181654D01*
X163448695Y-85088034D01*
X163415210Y-85026711D01*
X163420194Y-84957019D01*
X163448691Y-84912676D01*
X163542712Y-84818656D01*
X163634814Y-84669334D01*
X163689999Y-84502797D01*
X163700500Y-84400009D01*
X163700499Y-83599992D01*
X163689999Y-83497203D01*
X163634814Y-83330666D01*
X163542712Y-83181344D01*
X163418656Y-83057288D01*
X163269334Y-82965186D01*
X163269328Y-82965184D01*
X163235494Y-82953972D01*
X163178050Y-82914199D01*
X163151228Y-82849683D01*
X163150500Y-82836267D01*
X163150500Y-80935928D01*
X163125502Y-80810261D01*
X163125501Y-80810260D01*
X163125501Y-80810256D01*
X163076465Y-80691873D01*
X163076464Y-80691872D01*
X163076461Y-80691866D01*
X163005276Y-80585331D01*
X163005273Y-80585327D01*
X162914672Y-80494726D01*
X162914668Y-80494723D01*
X162808133Y-80423538D01*
X162808124Y-80423533D01*
X162689744Y-80374499D01*
X162689738Y-80374497D01*
X162564071Y-80349500D01*
X162564069Y-80349500D01*
X146435931Y-80349500D01*
X146435929Y-80349500D01*
X146310261Y-80374497D01*
X146310255Y-80374499D01*
X146191875Y-80423533D01*
X146191866Y-80423538D01*
X146085332Y-80494722D01*
X145994723Y-80585332D01*
X145994719Y-80585337D01*
X145990639Y-80591443D01*
X145956443Y-80625639D01*
X145950337Y-80629719D01*
X145950332Y-80629723D01*
X145859722Y-80720332D01*
X145788538Y-80826866D01*
X145788533Y-80826875D01*
X145739499Y-80945255D01*
X145739497Y-80945261D01*
X145714500Y-81070928D01*
X145714500Y-84491062D01*
X145694815Y-84558101D01*
X145646796Y-84601546D01*
X145523536Y-84664351D01*
X145492612Y-84686819D01*
X145319087Y-84812893D01*
X145319085Y-84812895D01*
X145319084Y-84812895D01*
X145140395Y-84991584D01*
X145140395Y-84991585D01*
X145140393Y-84991587D01*
X145076600Y-85079389D01*
X144991853Y-85196033D01*
X144877125Y-85421197D01*
X144799032Y-85661543D01*
X144759500Y-85911138D01*
X144759500Y-86163861D01*
X144799032Y-86413456D01*
X144877125Y-86653802D01*
X144990857Y-86877011D01*
X144991853Y-86878966D01*
X145140393Y-87083413D01*
X145319087Y-87262107D01*
X145523534Y-87410647D01*
X145586461Y-87442710D01*
X145748697Y-87525374D01*
X145748699Y-87525374D01*
X145748702Y-87525376D01*
X145989044Y-87603468D01*
X146117638Y-87623835D01*
X146238639Y-87643000D01*
X146238644Y-87643000D01*
X146491361Y-87643000D01*
X146601665Y-87625528D01*
X146740956Y-87603468D01*
X146981298Y-87525376D01*
X147206466Y-87410647D01*
X147410913Y-87262107D01*
X147589607Y-87083413D01*
X147738147Y-86878966D01*
X147852876Y-86653798D01*
X147930968Y-86413456D01*
X147953971Y-86268216D01*
X147970500Y-86163861D01*
X147970500Y-85911138D01*
X147944978Y-85750000D01*
X147930968Y-85661544D01*
X147852876Y-85421202D01*
X147852874Y-85421199D01*
X147852874Y-85421197D01*
X147738146Y-85196033D01*
X147727699Y-85181654D01*
X147589607Y-84991587D01*
X147410913Y-84812893D01*
X147206466Y-84664353D01*
X147206465Y-84664352D01*
X147206463Y-84664351D01*
X147083204Y-84601546D01*
X147032409Y-84553571D01*
X147015500Y-84491062D01*
X147015500Y-81774500D01*
X147035185Y-81707461D01*
X147087989Y-81661706D01*
X147139500Y-81650500D01*
X161725500Y-81650500D01*
X161792539Y-81670185D01*
X161838294Y-81722989D01*
X161849500Y-81774500D01*
X161849500Y-82836267D01*
X161829815Y-82903306D01*
X161777011Y-82949061D01*
X161764506Y-82953972D01*
X161730671Y-82965184D01*
X161730663Y-82965187D01*
X161581342Y-83057289D01*
X161457289Y-83181342D01*
X161389901Y-83290597D01*
X161337953Y-83337321D01*
X161284362Y-83349500D01*
X160335929Y-83349500D01*
X160210261Y-83374497D01*
X160210251Y-83374500D01*
X160161220Y-83394810D01*
X160091881Y-83423530D01*
X160091863Y-83423540D01*
X159985332Y-83494721D01*
X159985325Y-83494727D01*
X158481607Y-84998446D01*
X158465380Y-85007306D01*
X158452163Y-85020239D01*
X158435348Y-85023705D01*
X158420284Y-85031931D01*
X158401841Y-85030612D01*
X158383732Y-85034345D01*
X158354251Y-85027208D01*
X158350592Y-85026947D01*
X158349328Y-85026467D01*
X158347872Y-85025905D01*
X158206762Y-84967456D01*
X158190771Y-84965350D01*
X158176996Y-84960041D01*
X158160504Y-84947412D01*
X158141512Y-84939011D01*
X158133327Y-84926602D01*
X158121522Y-84917563D01*
X158114475Y-84898022D01*
X158103041Y-84880687D01*
X158102864Y-84865821D01*
X158097821Y-84851836D01*
X158102457Y-84831589D01*
X158102210Y-84810822D01*
X158107033Y-84796886D01*
X158135044Y-84729262D01*
X158135044Y-84729255D01*
X158136315Y-84724513D01*
X158141535Y-84709133D01*
X158171656Y-84636416D01*
X158171658Y-84636412D01*
X158200499Y-84491417D01*
X158200499Y-84343582D01*
X158171658Y-84198587D01*
X158141532Y-84125858D01*
X158136316Y-84110489D01*
X158135042Y-84105732D01*
X158074536Y-83959660D01*
X158074536Y-83959659D01*
X157978282Y-83834218D01*
X157852841Y-83737964D01*
X157852839Y-83737963D01*
X157839759Y-83732545D01*
X157799533Y-83705666D01*
X157635915Y-83542047D01*
X157635914Y-83542046D01*
X157562229Y-83492812D01*
X157562229Y-83492813D01*
X157512991Y-83459913D01*
X157376417Y-83403343D01*
X157376407Y-83403340D01*
X157231420Y-83374500D01*
X157231418Y-83374500D01*
X149551082Y-83374500D01*
X149551076Y-83374500D01*
X149522242Y-83380234D01*
X149522243Y-83380235D01*
X149406093Y-83403339D01*
X149406083Y-83403342D01*
X149326081Y-83436479D01*
X149326082Y-83436480D01*
X149269502Y-83459917D01*
X149220269Y-83492813D01*
X149146588Y-83542044D01*
X149146580Y-83542050D01*
X148917048Y-83771583D01*
X148897244Y-83801222D01*
X148877572Y-83830666D01*
X148856244Y-83862585D01*
X148834916Y-83894504D01*
X148834912Y-83894511D01*
X148778343Y-84031082D01*
X148778340Y-84031092D01*
X148749500Y-84176079D01*
X148749500Y-88625500D01*
X148729815Y-88692539D01*
X148677011Y-88738294D01*
X148625500Y-88749500D01*
X145862230Y-88749500D01*
X145795191Y-88729815D01*
X145774549Y-88713181D01*
X140978421Y-83917052D01*
X140978414Y-83917046D01*
X140904729Y-83867812D01*
X140904729Y-83867813D01*
X140855491Y-83834913D01*
X140718917Y-83778343D01*
X140718907Y-83778340D01*
X140573920Y-83749500D01*
X140573918Y-83749500D01*
X135841458Y-83749500D01*
X135774419Y-83729815D01*
X135735920Y-83690598D01*
X135730212Y-83681344D01*
X135606157Y-83557289D01*
X135606156Y-83557288D01*
X135456834Y-83465186D01*
X135290297Y-83410001D01*
X135290295Y-83410000D01*
X135187510Y-83399500D01*
X134187498Y-83399500D01*
X134187480Y-83399501D01*
X134084703Y-83410000D01*
X134084700Y-83410001D01*
X133918168Y-83465185D01*
X133918163Y-83465187D01*
X133768842Y-83557289D01*
X133644789Y-83681342D01*
X133644788Y-83681344D01*
X133624331Y-83714511D01*
X133615951Y-83728097D01*
X133564003Y-83774821D01*
X133510412Y-83787000D01*
X132874500Y-83787000D01*
X132807461Y-83767315D01*
X132761706Y-83714511D01*
X132750500Y-83663000D01*
X132750500Y-79374500D01*
X132770185Y-79307461D01*
X132822989Y-79261706D01*
X132874500Y-79250500D01*
X170938000Y-79250500D01*
X171005039Y-79270185D01*
X171050794Y-79322989D01*
X171062000Y-79374500D01*
X171062000Y-109886418D01*
X171062000Y-109886420D01*
X171061999Y-109886420D01*
X171090840Y-110031407D01*
X171090843Y-110031417D01*
X171147412Y-110167988D01*
X171147416Y-110167995D01*
X171179931Y-110216657D01*
X171179932Y-110216659D01*
X171229543Y-110290910D01*
X171229547Y-110290915D01*
X174213181Y-113274549D01*
X174227884Y-113301476D01*
X174244477Y-113327295D01*
X174245368Y-113333495D01*
X174246666Y-113335872D01*
X174249500Y-113362230D01*
X174249500Y-113443000D01*
X174229815Y-113510039D01*
X174177011Y-113555794D01*
X174125500Y-113567000D01*
X173847130Y-113567000D01*
X173847123Y-113567001D01*
X173787516Y-113573408D01*
X173652671Y-113623702D01*
X173652664Y-113623706D01*
X173537455Y-113709952D01*
X173537452Y-113709955D01*
X173451206Y-113825164D01*
X173451202Y-113825171D01*
X173400908Y-113960017D01*
X173396323Y-114002669D01*
X173394501Y-114019623D01*
X173394500Y-114019635D01*
X173394500Y-116325370D01*
X173394501Y-116325376D01*
X173400908Y-116384983D01*
X173451202Y-116519828D01*
X173451206Y-116519835D01*
X173537452Y-116635044D01*
X173537455Y-116635047D01*
X173652664Y-116721293D01*
X173652671Y-116721297D01*
X173787517Y-116771591D01*
X173787516Y-116771591D01*
X173794444Y-116772335D01*
X173847127Y-116778000D01*
X176152872Y-116777999D01*
X176212483Y-116771591D01*
X176347331Y-116721296D01*
X176462546Y-116635046D01*
X176548796Y-116519831D01*
X176599091Y-116384983D01*
X176605500Y-116325373D01*
X176605499Y-114019628D01*
X176599091Y-113960017D01*
X176560102Y-113855483D01*
X176548797Y-113825171D01*
X176548793Y-113825164D01*
X176462547Y-113709955D01*
X176462544Y-113709952D01*
X176347335Y-113623706D01*
X176347328Y-113623702D01*
X176212482Y-113573408D01*
X176212483Y-113573408D01*
X176152883Y-113567001D01*
X176152881Y-113567000D01*
X176152873Y-113567000D01*
X176152865Y-113567000D01*
X175874500Y-113567000D01*
X175807461Y-113547315D01*
X175761706Y-113494511D01*
X175750500Y-113443000D01*
X175750500Y-112926081D01*
X175750499Y-112926080D01*
X175743436Y-112890568D01*
X175721659Y-112781088D01*
X175665084Y-112644506D01*
X175665084Y-112644505D01*
X175612770Y-112566211D01*
X175593613Y-112537540D01*
X175582954Y-112521586D01*
X172599319Y-109537951D01*
X172565834Y-109476628D01*
X172563000Y-109450270D01*
X172563000Y-108696178D01*
X173395000Y-108696178D01*
X173395000Y-108948821D01*
X173434519Y-109198338D01*
X173512589Y-109438610D01*
X173627281Y-109663703D01*
X173702169Y-109766776D01*
X173702169Y-109766777D01*
X174187893Y-109281052D01*
X174277622Y-109415341D01*
X174407159Y-109544878D01*
X174541446Y-109634605D01*
X174055721Y-110120329D01*
X174158796Y-110195218D01*
X174383889Y-110309910D01*
X174624161Y-110387980D01*
X174873679Y-110427500D01*
X175126321Y-110427500D01*
X175375838Y-110387980D01*
X175616110Y-110309910D01*
X175841202Y-110195219D01*
X175944276Y-110120329D01*
X175944277Y-110120329D01*
X175458553Y-109634605D01*
X175592841Y-109544878D01*
X175722378Y-109415341D01*
X175812105Y-109281053D01*
X176297829Y-109766777D01*
X176297829Y-109766776D01*
X176372719Y-109663702D01*
X176487410Y-109438610D01*
X176565480Y-109198338D01*
X176605000Y-108948821D01*
X176605000Y-108696178D01*
X176565480Y-108446661D01*
X176487410Y-108206389D01*
X176372718Y-107981296D01*
X176297829Y-107878222D01*
X176297829Y-107878221D01*
X175812105Y-108363945D01*
X175722378Y-108229659D01*
X175592841Y-108100122D01*
X175458551Y-108010393D01*
X175944277Y-107524669D01*
X175841203Y-107449781D01*
X175616110Y-107335089D01*
X175375838Y-107257019D01*
X175126321Y-107217500D01*
X174873679Y-107217500D01*
X174624161Y-107257019D01*
X174383889Y-107335089D01*
X174158793Y-107449783D01*
X174055722Y-107524668D01*
X174055721Y-107524669D01*
X174541446Y-108010394D01*
X174407159Y-108100122D01*
X174277622Y-108229659D01*
X174187894Y-108363946D01*
X173702169Y-107878221D01*
X173702168Y-107878222D01*
X173627283Y-107981293D01*
X173512589Y-108206389D01*
X173434519Y-108446661D01*
X173395000Y-108696178D01*
X172563000Y-108696178D01*
X172563000Y-78878711D01*
X179649500Y-78878711D01*
X179649500Y-79121288D01*
X179681161Y-79361785D01*
X179743947Y-79596104D01*
X179754379Y-79621288D01*
X179836776Y-79820212D01*
X179958064Y-80030289D01*
X179958066Y-80030292D01*
X179958067Y-80030293D01*
X180105733Y-80222736D01*
X180105739Y-80222743D01*
X180277256Y-80394260D01*
X180277262Y-80394265D01*
X180469711Y-80541936D01*
X180679788Y-80663224D01*
X180903900Y-80756054D01*
X181138211Y-80818838D01*
X181318586Y-80842584D01*
X181378711Y-80850500D01*
X181378712Y-80850500D01*
X181621289Y-80850500D01*
X181669388Y-80844167D01*
X181861789Y-80818838D01*
X182096100Y-80756054D01*
X182320212Y-80663224D01*
X182530289Y-80541936D01*
X182722738Y-80394265D01*
X182894265Y-80222738D01*
X183041936Y-80030289D01*
X183163224Y-79820212D01*
X183256054Y-79596100D01*
X183318838Y-79361789D01*
X183350500Y-79121288D01*
X183350500Y-78878712D01*
X183318838Y-78638211D01*
X183256054Y-78403900D01*
X183163224Y-78179788D01*
X183041936Y-77969711D01*
X182934946Y-77830278D01*
X182894266Y-77777263D01*
X182894260Y-77777256D01*
X182722743Y-77605739D01*
X182722736Y-77605733D01*
X182530293Y-77458067D01*
X182530292Y-77458066D01*
X182530289Y-77458064D01*
X182320212Y-77336776D01*
X182320205Y-77336773D01*
X182096104Y-77243947D01*
X181861785Y-77181161D01*
X181621289Y-77149500D01*
X181621288Y-77149500D01*
X181378712Y-77149500D01*
X181378711Y-77149500D01*
X181138214Y-77181161D01*
X180903895Y-77243947D01*
X180679794Y-77336773D01*
X180679785Y-77336777D01*
X180469706Y-77458067D01*
X180277263Y-77605733D01*
X180277256Y-77605739D01*
X180105739Y-77777256D01*
X180105733Y-77777263D01*
X179958067Y-77969706D01*
X179836777Y-78179785D01*
X179836773Y-78179794D01*
X179743947Y-78403895D01*
X179681161Y-78638214D01*
X179649500Y-78878711D01*
X172563000Y-78878711D01*
X172563000Y-78426079D01*
X172534159Y-78281092D01*
X172534158Y-78281091D01*
X172534158Y-78281087D01*
X172532571Y-78277256D01*
X172477587Y-78144511D01*
X172477580Y-78144498D01*
X172395451Y-78021584D01*
X172395448Y-78021580D01*
X172290919Y-77917051D01*
X172290915Y-77917048D01*
X172168001Y-77834919D01*
X172167988Y-77834912D01*
X172031417Y-77778343D01*
X172031407Y-77778340D01*
X171886420Y-77749500D01*
X171886418Y-77749500D01*
X132073918Y-77749500D01*
X131926082Y-77749500D01*
X131926080Y-77749500D01*
X131781092Y-77778340D01*
X131781082Y-77778343D01*
X131644511Y-77834912D01*
X131644498Y-77834919D01*
X131521584Y-77917048D01*
X131521580Y-77917051D01*
X131417051Y-78021580D01*
X131417048Y-78021584D01*
X131334919Y-78144498D01*
X131334912Y-78144511D01*
X131278343Y-78281082D01*
X131278340Y-78281092D01*
X131249500Y-78426079D01*
X131249500Y-83955500D01*
X131229815Y-84022539D01*
X131177011Y-84068294D01*
X131125500Y-84079500D01*
X128872966Y-84079500D01*
X128856781Y-84078439D01*
X128826861Y-84074500D01*
X128548136Y-84074500D01*
X128430746Y-84089953D01*
X128430737Y-84089956D01*
X128284660Y-84150463D01*
X128159218Y-84246718D01*
X128062963Y-84372160D01*
X128002455Y-84518239D01*
X128001177Y-84523009D01*
X127995966Y-84538359D01*
X127965841Y-84611090D01*
X127965840Y-84611093D01*
X127937000Y-84756079D01*
X127937000Y-84756082D01*
X127937000Y-84903918D01*
X127937000Y-84903920D01*
X127936999Y-84903920D01*
X127965840Y-85048907D01*
X127965843Y-85048917D01*
X127995964Y-85121635D01*
X127996803Y-85123714D01*
X128001729Y-85136243D01*
X128002456Y-85141762D01*
X128030875Y-85210372D01*
X128031305Y-85211465D01*
X128034314Y-85245182D01*
X128037935Y-85278855D01*
X128037413Y-85279897D01*
X128037517Y-85281058D01*
X128021819Y-85311049D01*
X128006660Y-85341334D01*
X128005657Y-85341929D01*
X128005117Y-85342961D01*
X127975700Y-85359702D01*
X127946571Y-85376986D01*
X127944698Y-85377346D01*
X127944393Y-85377521D01*
X127943926Y-85377495D01*
X127932094Y-85379777D01*
X127930743Y-85379954D01*
X127930737Y-85379956D01*
X127784660Y-85440463D01*
X127659218Y-85536718D01*
X127562963Y-85662160D01*
X127502455Y-85808239D01*
X127501177Y-85813009D01*
X127495966Y-85828359D01*
X127465841Y-85901090D01*
X127465840Y-85901093D01*
X127437000Y-86046079D01*
X127437000Y-86046082D01*
X127437000Y-86936418D01*
X127437000Y-86936420D01*
X127436999Y-86936420D01*
X107000500Y-86936420D01*
X107000500Y-79378711D01*
X110149500Y-79378711D01*
X110149500Y-79621288D01*
X110181161Y-79861785D01*
X110243947Y-80096104D01*
X110296400Y-80222736D01*
X110336776Y-80320212D01*
X110458064Y-80530289D01*
X110458066Y-80530292D01*
X110458067Y-80530293D01*
X110605733Y-80722736D01*
X110605739Y-80722743D01*
X110777256Y-80894260D01*
X110777263Y-80894266D01*
X110843715Y-80945256D01*
X110969711Y-81041936D01*
X111179788Y-81163224D01*
X111403900Y-81256054D01*
X111638211Y-81318838D01*
X111818586Y-81342584D01*
X111878711Y-81350500D01*
X111878712Y-81350500D01*
X112121289Y-81350500D01*
X112169388Y-81344167D01*
X112361789Y-81318838D01*
X112596100Y-81256054D01*
X112820212Y-81163224D01*
X113030289Y-81041936D01*
X113222738Y-80894265D01*
X113394265Y-80722738D01*
X113541936Y-80530289D01*
X113663224Y-80320212D01*
X113756054Y-80096100D01*
X113818838Y-79861789D01*
X113850500Y-79621288D01*
X113850500Y-79378712D01*
X113849945Y-79374500D01*
X113818838Y-79138214D01*
X113818838Y-79138211D01*
X113756054Y-78903900D01*
X113663224Y-78679788D01*
X113541936Y-78469711D01*
X113481018Y-78390321D01*
X113394266Y-78277263D01*
X113394260Y-78277256D01*
X113222743Y-78105739D01*
X113222736Y-78105733D01*
X113030293Y-77958067D01*
X113030292Y-77958066D01*
X113030289Y-77958064D01*
X112838281Y-77847208D01*
X112820214Y-77836777D01*
X112820205Y-77836773D01*
X112596104Y-77743947D01*
X112361785Y-77681161D01*
X112121289Y-77649500D01*
X112121288Y-77649500D01*
X111878712Y-77649500D01*
X111878711Y-77649500D01*
X111638214Y-77681161D01*
X111403895Y-77743947D01*
X111179794Y-77836773D01*
X111179785Y-77836777D01*
X110969706Y-77958067D01*
X110777263Y-78105733D01*
X110777256Y-78105739D01*
X110605739Y-78277256D01*
X110605733Y-78277263D01*
X110458067Y-78469706D01*
X110336777Y-78679785D01*
X110336773Y-78679794D01*
X110243947Y-78903895D01*
X110181161Y-79138214D01*
X110149500Y-79378711D01*
X107000500Y-79378711D01*
X107000500Y-79002706D01*
X107000618Y-78997297D01*
X107004696Y-78903895D01*
X107017386Y-78613226D01*
X107018326Y-78602495D01*
X107068152Y-78224025D01*
X107070025Y-78213405D01*
X107152649Y-77840709D01*
X107155440Y-77830295D01*
X107270230Y-77466227D01*
X107273917Y-77456095D01*
X107420003Y-77103412D01*
X107424561Y-77093638D01*
X107600822Y-76755045D01*
X107606217Y-76745700D01*
X107811325Y-76423744D01*
X107817515Y-76414905D01*
X108049896Y-76112060D01*
X108056834Y-76103791D01*
X108314726Y-75822352D01*
X108322352Y-75814726D01*
X108603791Y-75556834D01*
X108612060Y-75549896D01*
X108914905Y-75317515D01*
X108923744Y-75311325D01*
X109245700Y-75106217D01*
X109255045Y-75100822D01*
X109593638Y-74924561D01*
X109603412Y-74920003D01*
X109956095Y-74773917D01*
X109966227Y-74770230D01*
X110330295Y-74655440D01*
X110340709Y-74652649D01*
X110713405Y-74570025D01*
X110724025Y-74568152D01*
X111102495Y-74518326D01*
X111113226Y-74517386D01*
X111497312Y-74500617D01*
X111502706Y-74500500D01*
X181459088Y-74525540D01*
G37*
G04 #@! TD.AperFunction*
M02*
