%TF.GenerationSoftware,KiCad,Pcbnew,9.0.0*%
%TF.CreationDate,2025-04-14T20:20:30-05:00*%
%TF.ProjectId,Charging_PCB,43686172-6769-46e6-975f-5043422e6b69,rev?*%
%TF.SameCoordinates,Original*%
%TF.FileFunction,Drillmap*%
%TF.FilePolarity,Positive*%
%FSLAX45Y45*%
G04 Gerber Fmt 4.5, Leading zero omitted, Abs format (unit mm)*
G04 Created by KiCad (PCBNEW 9.0.0) date 2025-04-14 20:20:30*
%MOMM*%
%LPD*%
G01*
G04 APERTURE LIST*
%ADD10C,0.050000*%
%ADD11C,0.200000*%
%ADD12C,0.130000*%
%ADD13C,0.186000*%
G04 APERTURE END LIST*
D10*
X18152506Y-7402506D02*
X11150000Y-7400000D01*
X11150000Y-13350000D02*
X18150000Y-13350000D01*
X18650000Y-12850000D02*
X18650000Y-7900000D01*
X18152506Y-7402506D02*
G75*
G02*
X18650000Y-7900000I0J-497494D01*
G01*
X10650000Y-7900000D02*
X10650000Y-12850000D01*
X18650000Y-12850000D02*
G75*
G02*
X18150000Y-13350000I-500000J0D01*
G01*
X11150000Y-13350000D02*
G75*
G02*
X10650000Y-12850000I0J500000D01*
G01*
X10650000Y-7900000D02*
G75*
G02*
X11150000Y-7400000I500000J0D01*
G01*
D11*
D12*
X12835000Y-9435000D02*
X12965000Y-9565000D01*
X12965000Y-9435000D02*
X12835000Y-9565000D01*
X12835000Y-11085000D02*
X12965000Y-11215000D01*
X12965000Y-11085000D02*
X12835000Y-11215000D01*
X12835000Y-11785000D02*
X12965000Y-11915000D01*
X12965000Y-11785000D02*
X12835000Y-11915000D01*
X13585000Y-9435000D02*
X13715000Y-9565000D01*
X13715000Y-9435000D02*
X13585000Y-9565000D01*
X13585000Y-11435000D02*
X13715000Y-11565000D01*
X13715000Y-11435000D02*
X13585000Y-11565000D01*
X15716250Y-9431250D02*
X15846250Y-9561250D01*
X15846250Y-9431250D02*
X15716250Y-9561250D01*
X15716250Y-11081250D02*
X15846250Y-11211250D01*
X15846250Y-11081250D02*
X15716250Y-11211250D01*
X15716250Y-11781250D02*
X15846250Y-11911250D01*
X15846250Y-11781250D02*
X15716250Y-11911250D01*
X16466250Y-9431250D02*
X16596250Y-9561250D01*
X16596250Y-9431250D02*
X16466250Y-9561250D01*
X16466250Y-11431250D02*
X16596250Y-11561250D01*
X16596250Y-11431250D02*
X16466250Y-11561250D01*
D13*
X11793000Y-10900000D02*
G75*
G02*
X11607000Y-10900000I-93000J0D01*
G01*
X11607000Y-10900000D02*
G75*
G02*
X11793000Y-10900000I93000J0D01*
G01*
X11793000Y-11535000D02*
G75*
G02*
X11607000Y-11535000I-93000J0D01*
G01*
X11607000Y-11535000D02*
G75*
G02*
X11793000Y-11535000I93000J0D01*
G01*
X14729500Y-8603750D02*
G75*
G02*
X14543500Y-8603750I-93000J0D01*
G01*
X14543500Y-8603750D02*
G75*
G02*
X14729500Y-8603750I93000J0D01*
G01*
X14729500Y-9238750D02*
G75*
G02*
X14543500Y-9238750I-93000J0D01*
G01*
X14543500Y-9238750D02*
G75*
G02*
X14729500Y-9238750I93000J0D01*
G01*
X17593000Y-10882250D02*
G75*
G02*
X17407000Y-10882250I-93000J0D01*
G01*
X17407000Y-10882250D02*
G75*
G02*
X17593000Y-10882250I93000J0D01*
G01*
X17593000Y-11517250D02*
G75*
G02*
X17407000Y-11517250I-93000J0D01*
G01*
X17407000Y-11517250D02*
G75*
G02*
X17593000Y-11517250I93000J0D01*
G01*
D11*
X10908277Y-13663984D02*
X10908277Y-13463984D01*
X10908277Y-13463984D02*
X10955896Y-13463984D01*
X10955896Y-13463984D02*
X10984467Y-13473508D01*
X10984467Y-13473508D02*
X11003515Y-13492555D01*
X11003515Y-13492555D02*
X11013039Y-13511603D01*
X11013039Y-13511603D02*
X11022563Y-13549698D01*
X11022563Y-13549698D02*
X11022563Y-13578269D01*
X11022563Y-13578269D02*
X11013039Y-13616365D01*
X11013039Y-13616365D02*
X11003515Y-13635412D01*
X11003515Y-13635412D02*
X10984467Y-13654460D01*
X10984467Y-13654460D02*
X10955896Y-13663984D01*
X10955896Y-13663984D02*
X10908277Y-13663984D01*
X11108277Y-13663984D02*
X11108277Y-13530650D01*
X11108277Y-13568746D02*
X11117801Y-13549698D01*
X11117801Y-13549698D02*
X11127324Y-13540174D01*
X11127324Y-13540174D02*
X11146372Y-13530650D01*
X11146372Y-13530650D02*
X11165420Y-13530650D01*
X11232086Y-13663984D02*
X11232086Y-13530650D01*
X11232086Y-13463984D02*
X11222562Y-13473508D01*
X11222562Y-13473508D02*
X11232086Y-13483031D01*
X11232086Y-13483031D02*
X11241610Y-13473508D01*
X11241610Y-13473508D02*
X11232086Y-13463984D01*
X11232086Y-13463984D02*
X11232086Y-13483031D01*
X11355896Y-13663984D02*
X11336848Y-13654460D01*
X11336848Y-13654460D02*
X11327324Y-13635412D01*
X11327324Y-13635412D02*
X11327324Y-13463984D01*
X11460658Y-13663984D02*
X11441610Y-13654460D01*
X11441610Y-13654460D02*
X11432086Y-13635412D01*
X11432086Y-13635412D02*
X11432086Y-13463984D01*
X11689229Y-13663984D02*
X11689229Y-13463984D01*
X11689229Y-13463984D02*
X11755896Y-13606841D01*
X11755896Y-13606841D02*
X11822562Y-13463984D01*
X11822562Y-13463984D02*
X11822562Y-13663984D01*
X12003515Y-13663984D02*
X12003515Y-13559222D01*
X12003515Y-13559222D02*
X11993991Y-13540174D01*
X11993991Y-13540174D02*
X11974943Y-13530650D01*
X11974943Y-13530650D02*
X11936848Y-13530650D01*
X11936848Y-13530650D02*
X11917801Y-13540174D01*
X12003515Y-13654460D02*
X11984467Y-13663984D01*
X11984467Y-13663984D02*
X11936848Y-13663984D01*
X11936848Y-13663984D02*
X11917801Y-13654460D01*
X11917801Y-13654460D02*
X11908277Y-13635412D01*
X11908277Y-13635412D02*
X11908277Y-13616365D01*
X11908277Y-13616365D02*
X11917801Y-13597317D01*
X11917801Y-13597317D02*
X11936848Y-13587793D01*
X11936848Y-13587793D02*
X11984467Y-13587793D01*
X11984467Y-13587793D02*
X12003515Y-13578269D01*
X12098753Y-13530650D02*
X12098753Y-13730650D01*
X12098753Y-13540174D02*
X12117801Y-13530650D01*
X12117801Y-13530650D02*
X12155896Y-13530650D01*
X12155896Y-13530650D02*
X12174943Y-13540174D01*
X12174943Y-13540174D02*
X12184467Y-13549698D01*
X12184467Y-13549698D02*
X12193991Y-13568746D01*
X12193991Y-13568746D02*
X12193991Y-13625888D01*
X12193991Y-13625888D02*
X12184467Y-13644936D01*
X12184467Y-13644936D02*
X12174943Y-13654460D01*
X12174943Y-13654460D02*
X12155896Y-13663984D01*
X12155896Y-13663984D02*
X12117801Y-13663984D01*
X12117801Y-13663984D02*
X12098753Y-13654460D01*
X12279705Y-13644936D02*
X12289229Y-13654460D01*
X12289229Y-13654460D02*
X12279705Y-13663984D01*
X12279705Y-13663984D02*
X12270182Y-13654460D01*
X12270182Y-13654460D02*
X12279705Y-13644936D01*
X12279705Y-13644936D02*
X12279705Y-13663984D01*
X12279705Y-13540174D02*
X12289229Y-13549698D01*
X12289229Y-13549698D02*
X12279705Y-13559222D01*
X12279705Y-13559222D02*
X12270182Y-13549698D01*
X12270182Y-13549698D02*
X12279705Y-13540174D01*
X12279705Y-13540174D02*
X12279705Y-13559222D01*
D12*
X10517500Y-13927500D02*
X10647500Y-14057500D01*
X10647500Y-13927500D02*
X10517500Y-14057500D01*
D11*
X11013039Y-14083984D02*
X10898753Y-14083984D01*
X10955896Y-14083984D02*
X10955896Y-13883984D01*
X10955896Y-13883984D02*
X10936848Y-13912555D01*
X10936848Y-13912555D02*
X10917801Y-13931603D01*
X10917801Y-13931603D02*
X10898753Y-13941127D01*
X11098753Y-14064936D02*
X11108277Y-14074460D01*
X11108277Y-14074460D02*
X11098753Y-14083984D01*
X11098753Y-14083984D02*
X11089229Y-14074460D01*
X11089229Y-14074460D02*
X11098753Y-14064936D01*
X11098753Y-14064936D02*
X11098753Y-14083984D01*
X11174944Y-13883984D02*
X11298753Y-13883984D01*
X11298753Y-13883984D02*
X11232086Y-13960174D01*
X11232086Y-13960174D02*
X11260658Y-13960174D01*
X11260658Y-13960174D02*
X11279705Y-13969698D01*
X11279705Y-13969698D02*
X11289229Y-13979222D01*
X11289229Y-13979222D02*
X11298753Y-13998269D01*
X11298753Y-13998269D02*
X11298753Y-14045888D01*
X11298753Y-14045888D02*
X11289229Y-14064936D01*
X11289229Y-14064936D02*
X11279705Y-14074460D01*
X11279705Y-14074460D02*
X11260658Y-14083984D01*
X11260658Y-14083984D02*
X11203515Y-14083984D01*
X11203515Y-14083984D02*
X11184467Y-14074460D01*
X11184467Y-14074460D02*
X11174944Y-14064936D01*
X11422562Y-13883984D02*
X11441610Y-13883984D01*
X11441610Y-13883984D02*
X11460658Y-13893508D01*
X11460658Y-13893508D02*
X11470182Y-13903031D01*
X11470182Y-13903031D02*
X11479705Y-13922079D01*
X11479705Y-13922079D02*
X11489229Y-13960174D01*
X11489229Y-13960174D02*
X11489229Y-14007793D01*
X11489229Y-14007793D02*
X11479705Y-14045888D01*
X11479705Y-14045888D02*
X11470182Y-14064936D01*
X11470182Y-14064936D02*
X11460658Y-14074460D01*
X11460658Y-14074460D02*
X11441610Y-14083984D01*
X11441610Y-14083984D02*
X11422562Y-14083984D01*
X11422562Y-14083984D02*
X11403515Y-14074460D01*
X11403515Y-14074460D02*
X11393991Y-14064936D01*
X11393991Y-14064936D02*
X11384467Y-14045888D01*
X11384467Y-14045888D02*
X11374943Y-14007793D01*
X11374943Y-14007793D02*
X11374943Y-13960174D01*
X11374943Y-13960174D02*
X11384467Y-13922079D01*
X11384467Y-13922079D02*
X11393991Y-13903031D01*
X11393991Y-13903031D02*
X11403515Y-13893508D01*
X11403515Y-13893508D02*
X11422562Y-13883984D01*
X11613039Y-13883984D02*
X11632086Y-13883984D01*
X11632086Y-13883984D02*
X11651134Y-13893508D01*
X11651134Y-13893508D02*
X11660658Y-13903031D01*
X11660658Y-13903031D02*
X11670182Y-13922079D01*
X11670182Y-13922079D02*
X11679705Y-13960174D01*
X11679705Y-13960174D02*
X11679705Y-14007793D01*
X11679705Y-14007793D02*
X11670182Y-14045888D01*
X11670182Y-14045888D02*
X11660658Y-14064936D01*
X11660658Y-14064936D02*
X11651134Y-14074460D01*
X11651134Y-14074460D02*
X11632086Y-14083984D01*
X11632086Y-14083984D02*
X11613039Y-14083984D01*
X11613039Y-14083984D02*
X11593991Y-14074460D01*
X11593991Y-14074460D02*
X11584467Y-14064936D01*
X11584467Y-14064936D02*
X11574943Y-14045888D01*
X11574943Y-14045888D02*
X11565420Y-14007793D01*
X11565420Y-14007793D02*
X11565420Y-13960174D01*
X11565420Y-13960174D02*
X11574943Y-13922079D01*
X11574943Y-13922079D02*
X11584467Y-13903031D01*
X11584467Y-13903031D02*
X11593991Y-13893508D01*
X11593991Y-13893508D02*
X11613039Y-13883984D01*
X11765420Y-14083984D02*
X11765420Y-13950650D01*
X11765420Y-13969698D02*
X11774943Y-13960174D01*
X11774943Y-13960174D02*
X11793991Y-13950650D01*
X11793991Y-13950650D02*
X11822563Y-13950650D01*
X11822563Y-13950650D02*
X11841610Y-13960174D01*
X11841610Y-13960174D02*
X11851134Y-13979222D01*
X11851134Y-13979222D02*
X11851134Y-14083984D01*
X11851134Y-13979222D02*
X11860658Y-13960174D01*
X11860658Y-13960174D02*
X11879705Y-13950650D01*
X11879705Y-13950650D02*
X11908277Y-13950650D01*
X11908277Y-13950650D02*
X11927324Y-13960174D01*
X11927324Y-13960174D02*
X11936848Y-13979222D01*
X11936848Y-13979222D02*
X11936848Y-14083984D01*
X12032086Y-14083984D02*
X12032086Y-13950650D01*
X12032086Y-13969698D02*
X12041610Y-13960174D01*
X12041610Y-13960174D02*
X12060658Y-13950650D01*
X12060658Y-13950650D02*
X12089229Y-13950650D01*
X12089229Y-13950650D02*
X12108277Y-13960174D01*
X12108277Y-13960174D02*
X12117801Y-13979222D01*
X12117801Y-13979222D02*
X12117801Y-14083984D01*
X12117801Y-13979222D02*
X12127324Y-13960174D01*
X12127324Y-13960174D02*
X12146372Y-13950650D01*
X12146372Y-13950650D02*
X12174943Y-13950650D01*
X12174943Y-13950650D02*
X12193991Y-13960174D01*
X12193991Y-13960174D02*
X12203515Y-13979222D01*
X12203515Y-13979222D02*
X12203515Y-14083984D01*
X12593991Y-13874460D02*
X12422563Y-14131603D01*
X12851134Y-13883984D02*
X12870182Y-13883984D01*
X12870182Y-13883984D02*
X12889229Y-13893508D01*
X12889229Y-13893508D02*
X12898753Y-13903031D01*
X12898753Y-13903031D02*
X12908277Y-13922079D01*
X12908277Y-13922079D02*
X12917801Y-13960174D01*
X12917801Y-13960174D02*
X12917801Y-14007793D01*
X12917801Y-14007793D02*
X12908277Y-14045888D01*
X12908277Y-14045888D02*
X12898753Y-14064936D01*
X12898753Y-14064936D02*
X12889229Y-14074460D01*
X12889229Y-14074460D02*
X12870182Y-14083984D01*
X12870182Y-14083984D02*
X12851134Y-14083984D01*
X12851134Y-14083984D02*
X12832086Y-14074460D01*
X12832086Y-14074460D02*
X12822563Y-14064936D01*
X12822563Y-14064936D02*
X12813039Y-14045888D01*
X12813039Y-14045888D02*
X12803515Y-14007793D01*
X12803515Y-14007793D02*
X12803515Y-13960174D01*
X12803515Y-13960174D02*
X12813039Y-13922079D01*
X12813039Y-13922079D02*
X12822563Y-13903031D01*
X12822563Y-13903031D02*
X12832086Y-13893508D01*
X12832086Y-13893508D02*
X12851134Y-13883984D01*
X13003515Y-14064936D02*
X13013039Y-14074460D01*
X13013039Y-14074460D02*
X13003515Y-14083984D01*
X13003515Y-14083984D02*
X12993991Y-14074460D01*
X12993991Y-14074460D02*
X13003515Y-14064936D01*
X13003515Y-14064936D02*
X13003515Y-14083984D01*
X13136848Y-13883984D02*
X13155896Y-13883984D01*
X13155896Y-13883984D02*
X13174944Y-13893508D01*
X13174944Y-13893508D02*
X13184467Y-13903031D01*
X13184467Y-13903031D02*
X13193991Y-13922079D01*
X13193991Y-13922079D02*
X13203515Y-13960174D01*
X13203515Y-13960174D02*
X13203515Y-14007793D01*
X13203515Y-14007793D02*
X13193991Y-14045888D01*
X13193991Y-14045888D02*
X13184467Y-14064936D01*
X13184467Y-14064936D02*
X13174944Y-14074460D01*
X13174944Y-14074460D02*
X13155896Y-14083984D01*
X13155896Y-14083984D02*
X13136848Y-14083984D01*
X13136848Y-14083984D02*
X13117801Y-14074460D01*
X13117801Y-14074460D02*
X13108277Y-14064936D01*
X13108277Y-14064936D02*
X13098753Y-14045888D01*
X13098753Y-14045888D02*
X13089229Y-14007793D01*
X13089229Y-14007793D02*
X13089229Y-13960174D01*
X13089229Y-13960174D02*
X13098753Y-13922079D01*
X13098753Y-13922079D02*
X13108277Y-13903031D01*
X13108277Y-13903031D02*
X13117801Y-13893508D01*
X13117801Y-13893508D02*
X13136848Y-13883984D01*
X13384467Y-13883984D02*
X13289229Y-13883984D01*
X13289229Y-13883984D02*
X13279706Y-13979222D01*
X13279706Y-13979222D02*
X13289229Y-13969698D01*
X13289229Y-13969698D02*
X13308277Y-13960174D01*
X13308277Y-13960174D02*
X13355896Y-13960174D01*
X13355896Y-13960174D02*
X13374944Y-13969698D01*
X13374944Y-13969698D02*
X13384467Y-13979222D01*
X13384467Y-13979222D02*
X13393991Y-13998269D01*
X13393991Y-13998269D02*
X13393991Y-14045888D01*
X13393991Y-14045888D02*
X13384467Y-14064936D01*
X13384467Y-14064936D02*
X13374944Y-14074460D01*
X13374944Y-14074460D02*
X13355896Y-14083984D01*
X13355896Y-14083984D02*
X13308277Y-14083984D01*
X13308277Y-14083984D02*
X13289229Y-14074460D01*
X13289229Y-14074460D02*
X13279706Y-14064936D01*
X13584467Y-14083984D02*
X13470182Y-14083984D01*
X13527325Y-14083984D02*
X13527325Y-13883984D01*
X13527325Y-13883984D02*
X13508277Y-13912555D01*
X13508277Y-13912555D02*
X13489229Y-13931603D01*
X13489229Y-13931603D02*
X13470182Y-13941127D01*
X13660658Y-13903031D02*
X13670182Y-13893508D01*
X13670182Y-13893508D02*
X13689229Y-13883984D01*
X13689229Y-13883984D02*
X13736848Y-13883984D01*
X13736848Y-13883984D02*
X13755896Y-13893508D01*
X13755896Y-13893508D02*
X13765420Y-13903031D01*
X13765420Y-13903031D02*
X13774944Y-13922079D01*
X13774944Y-13922079D02*
X13774944Y-13941127D01*
X13774944Y-13941127D02*
X13765420Y-13969698D01*
X13765420Y-13969698D02*
X13651134Y-14083984D01*
X13651134Y-14083984D02*
X13774944Y-14083984D01*
X13851134Y-13883984D02*
X13851134Y-13922079D01*
X13927325Y-13883984D02*
X13927325Y-13922079D01*
X14222563Y-14160174D02*
X14213039Y-14150650D01*
X14213039Y-14150650D02*
X14193991Y-14122079D01*
X14193991Y-14122079D02*
X14184468Y-14103031D01*
X14184468Y-14103031D02*
X14174944Y-14074460D01*
X14174944Y-14074460D02*
X14165420Y-14026841D01*
X14165420Y-14026841D02*
X14165420Y-13988746D01*
X14165420Y-13988746D02*
X14174944Y-13941127D01*
X14174944Y-13941127D02*
X14184468Y-13912555D01*
X14184468Y-13912555D02*
X14193991Y-13893508D01*
X14193991Y-13893508D02*
X14213039Y-13864936D01*
X14213039Y-13864936D02*
X14222563Y-13855412D01*
X14403515Y-14083984D02*
X14289229Y-14083984D01*
X14346372Y-14083984D02*
X14346372Y-13883984D01*
X14346372Y-13883984D02*
X14327325Y-13912555D01*
X14327325Y-13912555D02*
X14308277Y-13931603D01*
X14308277Y-13931603D02*
X14289229Y-13941127D01*
X14527325Y-13883984D02*
X14546372Y-13883984D01*
X14546372Y-13883984D02*
X14565420Y-13893508D01*
X14565420Y-13893508D02*
X14574944Y-13903031D01*
X14574944Y-13903031D02*
X14584468Y-13922079D01*
X14584468Y-13922079D02*
X14593991Y-13960174D01*
X14593991Y-13960174D02*
X14593991Y-14007793D01*
X14593991Y-14007793D02*
X14584468Y-14045888D01*
X14584468Y-14045888D02*
X14574944Y-14064936D01*
X14574944Y-14064936D02*
X14565420Y-14074460D01*
X14565420Y-14074460D02*
X14546372Y-14083984D01*
X14546372Y-14083984D02*
X14527325Y-14083984D01*
X14527325Y-14083984D02*
X14508277Y-14074460D01*
X14508277Y-14074460D02*
X14498753Y-14064936D01*
X14498753Y-14064936D02*
X14489229Y-14045888D01*
X14489229Y-14045888D02*
X14479706Y-14007793D01*
X14479706Y-14007793D02*
X14479706Y-13960174D01*
X14479706Y-13960174D02*
X14489229Y-13922079D01*
X14489229Y-13922079D02*
X14498753Y-13903031D01*
X14498753Y-13903031D02*
X14508277Y-13893508D01*
X14508277Y-13893508D02*
X14527325Y-13883984D01*
X14832087Y-14083984D02*
X14832087Y-13883984D01*
X14917801Y-14083984D02*
X14917801Y-13979222D01*
X14917801Y-13979222D02*
X14908277Y-13960174D01*
X14908277Y-13960174D02*
X14889230Y-13950650D01*
X14889230Y-13950650D02*
X14860658Y-13950650D01*
X14860658Y-13950650D02*
X14841610Y-13960174D01*
X14841610Y-13960174D02*
X14832087Y-13969698D01*
X15041610Y-14083984D02*
X15022563Y-14074460D01*
X15022563Y-14074460D02*
X15013039Y-14064936D01*
X15013039Y-14064936D02*
X15003515Y-14045888D01*
X15003515Y-14045888D02*
X15003515Y-13988746D01*
X15003515Y-13988746D02*
X15013039Y-13969698D01*
X15013039Y-13969698D02*
X15022563Y-13960174D01*
X15022563Y-13960174D02*
X15041610Y-13950650D01*
X15041610Y-13950650D02*
X15070182Y-13950650D01*
X15070182Y-13950650D02*
X15089230Y-13960174D01*
X15089230Y-13960174D02*
X15098753Y-13969698D01*
X15098753Y-13969698D02*
X15108277Y-13988746D01*
X15108277Y-13988746D02*
X15108277Y-14045888D01*
X15108277Y-14045888D02*
X15098753Y-14064936D01*
X15098753Y-14064936D02*
X15089230Y-14074460D01*
X15089230Y-14074460D02*
X15070182Y-14083984D01*
X15070182Y-14083984D02*
X15041610Y-14083984D01*
X15222563Y-14083984D02*
X15203515Y-14074460D01*
X15203515Y-14074460D02*
X15193991Y-14055412D01*
X15193991Y-14055412D02*
X15193991Y-13883984D01*
X15374944Y-14074460D02*
X15355896Y-14083984D01*
X15355896Y-14083984D02*
X15317801Y-14083984D01*
X15317801Y-14083984D02*
X15298753Y-14074460D01*
X15298753Y-14074460D02*
X15289230Y-14055412D01*
X15289230Y-14055412D02*
X15289230Y-13979222D01*
X15289230Y-13979222D02*
X15298753Y-13960174D01*
X15298753Y-13960174D02*
X15317801Y-13950650D01*
X15317801Y-13950650D02*
X15355896Y-13950650D01*
X15355896Y-13950650D02*
X15374944Y-13960174D01*
X15374944Y-13960174D02*
X15384468Y-13979222D01*
X15384468Y-13979222D02*
X15384468Y-13998269D01*
X15384468Y-13998269D02*
X15289230Y-14017317D01*
X15460658Y-14074460D02*
X15479706Y-14083984D01*
X15479706Y-14083984D02*
X15517801Y-14083984D01*
X15517801Y-14083984D02*
X15536849Y-14074460D01*
X15536849Y-14074460D02*
X15546372Y-14055412D01*
X15546372Y-14055412D02*
X15546372Y-14045888D01*
X15546372Y-14045888D02*
X15536849Y-14026841D01*
X15536849Y-14026841D02*
X15517801Y-14017317D01*
X15517801Y-14017317D02*
X15489230Y-14017317D01*
X15489230Y-14017317D02*
X15470182Y-14007793D01*
X15470182Y-14007793D02*
X15460658Y-13988746D01*
X15460658Y-13988746D02*
X15460658Y-13979222D01*
X15460658Y-13979222D02*
X15470182Y-13960174D01*
X15470182Y-13960174D02*
X15489230Y-13950650D01*
X15489230Y-13950650D02*
X15517801Y-13950650D01*
X15517801Y-13950650D02*
X15536849Y-13960174D01*
X15613039Y-14160174D02*
X15622563Y-14150650D01*
X15622563Y-14150650D02*
X15641611Y-14122079D01*
X15641611Y-14122079D02*
X15651134Y-14103031D01*
X15651134Y-14103031D02*
X15660658Y-14074460D01*
X15660658Y-14074460D02*
X15670182Y-14026841D01*
X15670182Y-14026841D02*
X15670182Y-13988746D01*
X15670182Y-13988746D02*
X15660658Y-13941127D01*
X15660658Y-13941127D02*
X15651134Y-13912555D01*
X15651134Y-13912555D02*
X15641611Y-13893508D01*
X15641611Y-13893508D02*
X15622563Y-13864936D01*
X15622563Y-13864936D02*
X15613039Y-13855412D01*
D13*
X10647500Y-14256500D02*
G75*
G02*
X10461500Y-14256500I-93000J0D01*
G01*
X10461500Y-14256500D02*
G75*
G02*
X10647500Y-14256500I93000J0D01*
G01*
D11*
X11013039Y-14347984D02*
X10898753Y-14347984D01*
X10955896Y-14347984D02*
X10955896Y-14147984D01*
X10955896Y-14147984D02*
X10936848Y-14176555D01*
X10936848Y-14176555D02*
X10917801Y-14195603D01*
X10917801Y-14195603D02*
X10898753Y-14205127D01*
X11098753Y-14328936D02*
X11108277Y-14338460D01*
X11108277Y-14338460D02*
X11098753Y-14347984D01*
X11098753Y-14347984D02*
X11089229Y-14338460D01*
X11089229Y-14338460D02*
X11098753Y-14328936D01*
X11098753Y-14328936D02*
X11098753Y-14347984D01*
X11222562Y-14233698D02*
X11203515Y-14224174D01*
X11203515Y-14224174D02*
X11193991Y-14214650D01*
X11193991Y-14214650D02*
X11184467Y-14195603D01*
X11184467Y-14195603D02*
X11184467Y-14186079D01*
X11184467Y-14186079D02*
X11193991Y-14167031D01*
X11193991Y-14167031D02*
X11203515Y-14157508D01*
X11203515Y-14157508D02*
X11222562Y-14147984D01*
X11222562Y-14147984D02*
X11260658Y-14147984D01*
X11260658Y-14147984D02*
X11279705Y-14157508D01*
X11279705Y-14157508D02*
X11289229Y-14167031D01*
X11289229Y-14167031D02*
X11298753Y-14186079D01*
X11298753Y-14186079D02*
X11298753Y-14195603D01*
X11298753Y-14195603D02*
X11289229Y-14214650D01*
X11289229Y-14214650D02*
X11279705Y-14224174D01*
X11279705Y-14224174D02*
X11260658Y-14233698D01*
X11260658Y-14233698D02*
X11222562Y-14233698D01*
X11222562Y-14233698D02*
X11203515Y-14243222D01*
X11203515Y-14243222D02*
X11193991Y-14252746D01*
X11193991Y-14252746D02*
X11184467Y-14271793D01*
X11184467Y-14271793D02*
X11184467Y-14309888D01*
X11184467Y-14309888D02*
X11193991Y-14328936D01*
X11193991Y-14328936D02*
X11203515Y-14338460D01*
X11203515Y-14338460D02*
X11222562Y-14347984D01*
X11222562Y-14347984D02*
X11260658Y-14347984D01*
X11260658Y-14347984D02*
X11279705Y-14338460D01*
X11279705Y-14338460D02*
X11289229Y-14328936D01*
X11289229Y-14328936D02*
X11298753Y-14309888D01*
X11298753Y-14309888D02*
X11298753Y-14271793D01*
X11298753Y-14271793D02*
X11289229Y-14252746D01*
X11289229Y-14252746D02*
X11279705Y-14243222D01*
X11279705Y-14243222D02*
X11260658Y-14233698D01*
X11470182Y-14147984D02*
X11432086Y-14147984D01*
X11432086Y-14147984D02*
X11413039Y-14157508D01*
X11413039Y-14157508D02*
X11403515Y-14167031D01*
X11403515Y-14167031D02*
X11384467Y-14195603D01*
X11384467Y-14195603D02*
X11374943Y-14233698D01*
X11374943Y-14233698D02*
X11374943Y-14309888D01*
X11374943Y-14309888D02*
X11384467Y-14328936D01*
X11384467Y-14328936D02*
X11393991Y-14338460D01*
X11393991Y-14338460D02*
X11413039Y-14347984D01*
X11413039Y-14347984D02*
X11451134Y-14347984D01*
X11451134Y-14347984D02*
X11470182Y-14338460D01*
X11470182Y-14338460D02*
X11479705Y-14328936D01*
X11479705Y-14328936D02*
X11489229Y-14309888D01*
X11489229Y-14309888D02*
X11489229Y-14262269D01*
X11489229Y-14262269D02*
X11479705Y-14243222D01*
X11479705Y-14243222D02*
X11470182Y-14233698D01*
X11470182Y-14233698D02*
X11451134Y-14224174D01*
X11451134Y-14224174D02*
X11413039Y-14224174D01*
X11413039Y-14224174D02*
X11393991Y-14233698D01*
X11393991Y-14233698D02*
X11384467Y-14243222D01*
X11384467Y-14243222D02*
X11374943Y-14262269D01*
X11613039Y-14147984D02*
X11632086Y-14147984D01*
X11632086Y-14147984D02*
X11651134Y-14157508D01*
X11651134Y-14157508D02*
X11660658Y-14167031D01*
X11660658Y-14167031D02*
X11670182Y-14186079D01*
X11670182Y-14186079D02*
X11679705Y-14224174D01*
X11679705Y-14224174D02*
X11679705Y-14271793D01*
X11679705Y-14271793D02*
X11670182Y-14309888D01*
X11670182Y-14309888D02*
X11660658Y-14328936D01*
X11660658Y-14328936D02*
X11651134Y-14338460D01*
X11651134Y-14338460D02*
X11632086Y-14347984D01*
X11632086Y-14347984D02*
X11613039Y-14347984D01*
X11613039Y-14347984D02*
X11593991Y-14338460D01*
X11593991Y-14338460D02*
X11584467Y-14328936D01*
X11584467Y-14328936D02*
X11574943Y-14309888D01*
X11574943Y-14309888D02*
X11565420Y-14271793D01*
X11565420Y-14271793D02*
X11565420Y-14224174D01*
X11565420Y-14224174D02*
X11574943Y-14186079D01*
X11574943Y-14186079D02*
X11584467Y-14167031D01*
X11584467Y-14167031D02*
X11593991Y-14157508D01*
X11593991Y-14157508D02*
X11613039Y-14147984D01*
X11765420Y-14347984D02*
X11765420Y-14214650D01*
X11765420Y-14233698D02*
X11774943Y-14224174D01*
X11774943Y-14224174D02*
X11793991Y-14214650D01*
X11793991Y-14214650D02*
X11822563Y-14214650D01*
X11822563Y-14214650D02*
X11841610Y-14224174D01*
X11841610Y-14224174D02*
X11851134Y-14243222D01*
X11851134Y-14243222D02*
X11851134Y-14347984D01*
X11851134Y-14243222D02*
X11860658Y-14224174D01*
X11860658Y-14224174D02*
X11879705Y-14214650D01*
X11879705Y-14214650D02*
X11908277Y-14214650D01*
X11908277Y-14214650D02*
X11927324Y-14224174D01*
X11927324Y-14224174D02*
X11936848Y-14243222D01*
X11936848Y-14243222D02*
X11936848Y-14347984D01*
X12032086Y-14347984D02*
X12032086Y-14214650D01*
X12032086Y-14233698D02*
X12041610Y-14224174D01*
X12041610Y-14224174D02*
X12060658Y-14214650D01*
X12060658Y-14214650D02*
X12089229Y-14214650D01*
X12089229Y-14214650D02*
X12108277Y-14224174D01*
X12108277Y-14224174D02*
X12117801Y-14243222D01*
X12117801Y-14243222D02*
X12117801Y-14347984D01*
X12117801Y-14243222D02*
X12127324Y-14224174D01*
X12127324Y-14224174D02*
X12146372Y-14214650D01*
X12146372Y-14214650D02*
X12174943Y-14214650D01*
X12174943Y-14214650D02*
X12193991Y-14224174D01*
X12193991Y-14224174D02*
X12203515Y-14243222D01*
X12203515Y-14243222D02*
X12203515Y-14347984D01*
X12593991Y-14138460D02*
X12422563Y-14395603D01*
X12851134Y-14147984D02*
X12870182Y-14147984D01*
X12870182Y-14147984D02*
X12889229Y-14157508D01*
X12889229Y-14157508D02*
X12898753Y-14167031D01*
X12898753Y-14167031D02*
X12908277Y-14186079D01*
X12908277Y-14186079D02*
X12917801Y-14224174D01*
X12917801Y-14224174D02*
X12917801Y-14271793D01*
X12917801Y-14271793D02*
X12908277Y-14309888D01*
X12908277Y-14309888D02*
X12898753Y-14328936D01*
X12898753Y-14328936D02*
X12889229Y-14338460D01*
X12889229Y-14338460D02*
X12870182Y-14347984D01*
X12870182Y-14347984D02*
X12851134Y-14347984D01*
X12851134Y-14347984D02*
X12832086Y-14338460D01*
X12832086Y-14338460D02*
X12822563Y-14328936D01*
X12822563Y-14328936D02*
X12813039Y-14309888D01*
X12813039Y-14309888D02*
X12803515Y-14271793D01*
X12803515Y-14271793D02*
X12803515Y-14224174D01*
X12803515Y-14224174D02*
X12813039Y-14186079D01*
X12813039Y-14186079D02*
X12822563Y-14167031D01*
X12822563Y-14167031D02*
X12832086Y-14157508D01*
X12832086Y-14157508D02*
X12851134Y-14147984D01*
X13003515Y-14328936D02*
X13013039Y-14338460D01*
X13013039Y-14338460D02*
X13003515Y-14347984D01*
X13003515Y-14347984D02*
X12993991Y-14338460D01*
X12993991Y-14338460D02*
X13003515Y-14328936D01*
X13003515Y-14328936D02*
X13003515Y-14347984D01*
X13136848Y-14147984D02*
X13155896Y-14147984D01*
X13155896Y-14147984D02*
X13174944Y-14157508D01*
X13174944Y-14157508D02*
X13184467Y-14167031D01*
X13184467Y-14167031D02*
X13193991Y-14186079D01*
X13193991Y-14186079D02*
X13203515Y-14224174D01*
X13203515Y-14224174D02*
X13203515Y-14271793D01*
X13203515Y-14271793D02*
X13193991Y-14309888D01*
X13193991Y-14309888D02*
X13184467Y-14328936D01*
X13184467Y-14328936D02*
X13174944Y-14338460D01*
X13174944Y-14338460D02*
X13155896Y-14347984D01*
X13155896Y-14347984D02*
X13136848Y-14347984D01*
X13136848Y-14347984D02*
X13117801Y-14338460D01*
X13117801Y-14338460D02*
X13108277Y-14328936D01*
X13108277Y-14328936D02*
X13098753Y-14309888D01*
X13098753Y-14309888D02*
X13089229Y-14271793D01*
X13089229Y-14271793D02*
X13089229Y-14224174D01*
X13089229Y-14224174D02*
X13098753Y-14186079D01*
X13098753Y-14186079D02*
X13108277Y-14167031D01*
X13108277Y-14167031D02*
X13117801Y-14157508D01*
X13117801Y-14157508D02*
X13136848Y-14147984D01*
X13270182Y-14147984D02*
X13403515Y-14147984D01*
X13403515Y-14147984D02*
X13317801Y-14347984D01*
X13460658Y-14147984D02*
X13584467Y-14147984D01*
X13584467Y-14147984D02*
X13517801Y-14224174D01*
X13517801Y-14224174D02*
X13546372Y-14224174D01*
X13546372Y-14224174D02*
X13565420Y-14233698D01*
X13565420Y-14233698D02*
X13574944Y-14243222D01*
X13574944Y-14243222D02*
X13584467Y-14262269D01*
X13584467Y-14262269D02*
X13584467Y-14309888D01*
X13584467Y-14309888D02*
X13574944Y-14328936D01*
X13574944Y-14328936D02*
X13565420Y-14338460D01*
X13565420Y-14338460D02*
X13546372Y-14347984D01*
X13546372Y-14347984D02*
X13489229Y-14347984D01*
X13489229Y-14347984D02*
X13470182Y-14338460D01*
X13470182Y-14338460D02*
X13460658Y-14328936D01*
X13660658Y-14167031D02*
X13670182Y-14157508D01*
X13670182Y-14157508D02*
X13689229Y-14147984D01*
X13689229Y-14147984D02*
X13736848Y-14147984D01*
X13736848Y-14147984D02*
X13755896Y-14157508D01*
X13755896Y-14157508D02*
X13765420Y-14167031D01*
X13765420Y-14167031D02*
X13774944Y-14186079D01*
X13774944Y-14186079D02*
X13774944Y-14205127D01*
X13774944Y-14205127D02*
X13765420Y-14233698D01*
X13765420Y-14233698D02*
X13651134Y-14347984D01*
X13651134Y-14347984D02*
X13774944Y-14347984D01*
X13851134Y-14147984D02*
X13851134Y-14186079D01*
X13927325Y-14147984D02*
X13927325Y-14186079D01*
X14222563Y-14424174D02*
X14213039Y-14414650D01*
X14213039Y-14414650D02*
X14193991Y-14386079D01*
X14193991Y-14386079D02*
X14184468Y-14367031D01*
X14184468Y-14367031D02*
X14174944Y-14338460D01*
X14174944Y-14338460D02*
X14165420Y-14290841D01*
X14165420Y-14290841D02*
X14165420Y-14252746D01*
X14165420Y-14252746D02*
X14174944Y-14205127D01*
X14174944Y-14205127D02*
X14184468Y-14176555D01*
X14184468Y-14176555D02*
X14193991Y-14157508D01*
X14193991Y-14157508D02*
X14213039Y-14128936D01*
X14213039Y-14128936D02*
X14222563Y-14119412D01*
X14384468Y-14147984D02*
X14346372Y-14147984D01*
X14346372Y-14147984D02*
X14327325Y-14157508D01*
X14327325Y-14157508D02*
X14317801Y-14167031D01*
X14317801Y-14167031D02*
X14298753Y-14195603D01*
X14298753Y-14195603D02*
X14289229Y-14233698D01*
X14289229Y-14233698D02*
X14289229Y-14309888D01*
X14289229Y-14309888D02*
X14298753Y-14328936D01*
X14298753Y-14328936D02*
X14308277Y-14338460D01*
X14308277Y-14338460D02*
X14327325Y-14347984D01*
X14327325Y-14347984D02*
X14365420Y-14347984D01*
X14365420Y-14347984D02*
X14384468Y-14338460D01*
X14384468Y-14338460D02*
X14393991Y-14328936D01*
X14393991Y-14328936D02*
X14403515Y-14309888D01*
X14403515Y-14309888D02*
X14403515Y-14262269D01*
X14403515Y-14262269D02*
X14393991Y-14243222D01*
X14393991Y-14243222D02*
X14384468Y-14233698D01*
X14384468Y-14233698D02*
X14365420Y-14224174D01*
X14365420Y-14224174D02*
X14327325Y-14224174D01*
X14327325Y-14224174D02*
X14308277Y-14233698D01*
X14308277Y-14233698D02*
X14298753Y-14243222D01*
X14298753Y-14243222D02*
X14289229Y-14262269D01*
X14641610Y-14347984D02*
X14641610Y-14147984D01*
X14727325Y-14347984D02*
X14727325Y-14243222D01*
X14727325Y-14243222D02*
X14717801Y-14224174D01*
X14717801Y-14224174D02*
X14698753Y-14214650D01*
X14698753Y-14214650D02*
X14670182Y-14214650D01*
X14670182Y-14214650D02*
X14651134Y-14224174D01*
X14651134Y-14224174D02*
X14641610Y-14233698D01*
X14851134Y-14347984D02*
X14832087Y-14338460D01*
X14832087Y-14338460D02*
X14822563Y-14328936D01*
X14822563Y-14328936D02*
X14813039Y-14309888D01*
X14813039Y-14309888D02*
X14813039Y-14252746D01*
X14813039Y-14252746D02*
X14822563Y-14233698D01*
X14822563Y-14233698D02*
X14832087Y-14224174D01*
X14832087Y-14224174D02*
X14851134Y-14214650D01*
X14851134Y-14214650D02*
X14879706Y-14214650D01*
X14879706Y-14214650D02*
X14898753Y-14224174D01*
X14898753Y-14224174D02*
X14908277Y-14233698D01*
X14908277Y-14233698D02*
X14917801Y-14252746D01*
X14917801Y-14252746D02*
X14917801Y-14309888D01*
X14917801Y-14309888D02*
X14908277Y-14328936D01*
X14908277Y-14328936D02*
X14898753Y-14338460D01*
X14898753Y-14338460D02*
X14879706Y-14347984D01*
X14879706Y-14347984D02*
X14851134Y-14347984D01*
X15032087Y-14347984D02*
X15013039Y-14338460D01*
X15013039Y-14338460D02*
X15003515Y-14319412D01*
X15003515Y-14319412D02*
X15003515Y-14147984D01*
X15184468Y-14338460D02*
X15165420Y-14347984D01*
X15165420Y-14347984D02*
X15127325Y-14347984D01*
X15127325Y-14347984D02*
X15108277Y-14338460D01*
X15108277Y-14338460D02*
X15098753Y-14319412D01*
X15098753Y-14319412D02*
X15098753Y-14243222D01*
X15098753Y-14243222D02*
X15108277Y-14224174D01*
X15108277Y-14224174D02*
X15127325Y-14214650D01*
X15127325Y-14214650D02*
X15165420Y-14214650D01*
X15165420Y-14214650D02*
X15184468Y-14224174D01*
X15184468Y-14224174D02*
X15193991Y-14243222D01*
X15193991Y-14243222D02*
X15193991Y-14262269D01*
X15193991Y-14262269D02*
X15098753Y-14281317D01*
X15270182Y-14338460D02*
X15289230Y-14347984D01*
X15289230Y-14347984D02*
X15327325Y-14347984D01*
X15327325Y-14347984D02*
X15346372Y-14338460D01*
X15346372Y-14338460D02*
X15355896Y-14319412D01*
X15355896Y-14319412D02*
X15355896Y-14309888D01*
X15355896Y-14309888D02*
X15346372Y-14290841D01*
X15346372Y-14290841D02*
X15327325Y-14281317D01*
X15327325Y-14281317D02*
X15298753Y-14281317D01*
X15298753Y-14281317D02*
X15279706Y-14271793D01*
X15279706Y-14271793D02*
X15270182Y-14252746D01*
X15270182Y-14252746D02*
X15270182Y-14243222D01*
X15270182Y-14243222D02*
X15279706Y-14224174D01*
X15279706Y-14224174D02*
X15298753Y-14214650D01*
X15298753Y-14214650D02*
X15327325Y-14214650D01*
X15327325Y-14214650D02*
X15346372Y-14224174D01*
X15422563Y-14424174D02*
X15432087Y-14414650D01*
X15432087Y-14414650D02*
X15451134Y-14386079D01*
X15451134Y-14386079D02*
X15460658Y-14367031D01*
X15460658Y-14367031D02*
X15470182Y-14338460D01*
X15470182Y-14338460D02*
X15479706Y-14290841D01*
X15479706Y-14290841D02*
X15479706Y-14252746D01*
X15479706Y-14252746D02*
X15470182Y-14205127D01*
X15470182Y-14205127D02*
X15460658Y-14176555D01*
X15460658Y-14176555D02*
X15451134Y-14157508D01*
X15451134Y-14157508D02*
X15432087Y-14128936D01*
X15432087Y-14128936D02*
X15422563Y-14119412D01*
M02*
