G04 #@! TF.GenerationSoftware,KiCad,Pcbnew,9.0.0*
G04 #@! TF.CreationDate,2025-04-22T19:29:30-05:00*
G04 #@! TF.ProjectId,Fault Latch 2,4661756c-7420-44c6-9174-636820322e6b,rev?*
G04 #@! TF.SameCoordinates,Original*
G04 #@! TF.FileFunction,Soldermask,Bot*
G04 #@! TF.FilePolarity,Negative*
%FSLAX46Y46*%
G04 Gerber Fmt 4.6, Leading zero omitted, Abs format (unit mm)*
G04 Created by KiCad (PCBNEW 9.0.0) date 2025-04-22 19:29:30*
%MOMM*%
%LPD*%
G01*
G04 APERTURE LIST*
G04 Aperture macros list*
%AMRoundRect*
0 Rectangle with rounded corners*
0 $1 Rounding radius*
0 $2 $3 $4 $5 $6 $7 $8 $9 X,Y pos of 4 corners*
0 Add a 4 corners polygon primitive as box body*
4,1,4,$2,$3,$4,$5,$6,$7,$8,$9,$2,$3,0*
0 Add four circle primitives for the rounded corners*
1,1,$1+$1,$2,$3*
1,1,$1+$1,$4,$5*
1,1,$1+$1,$6,$7*
1,1,$1+$1,$8,$9*
0 Add four rect primitives between the rounded corners*
20,1,$1+$1,$2,$3,$4,$5,0*
20,1,$1+$1,$4,$5,$6,$7,0*
20,1,$1+$1,$6,$7,$8,$9,0*
20,1,$1+$1,$8,$9,$2,$3,0*%
G04 Aperture macros list end*
%ADD10RoundRect,0.250000X0.550000X-0.550000X0.550000X0.550000X-0.550000X0.550000X-0.550000X-0.550000X0*%
%ADD11C,1.600000*%
%ADD12C,1.860000*%
%ADD13R,2.210000X2.210000*%
%ADD14C,2.210000*%
%ADD15C,3.200000*%
%ADD16C,1.725000*%
%ADD17RoundRect,0.250000X-0.550000X0.550000X-0.550000X-0.550000X0.550000X-0.550000X0.550000X0.550000X0*%
%ADD18C,2.400000*%
%ADD19R,2.000000X2.000000*%
%ADD20C,2.000000*%
G04 APERTURE END LIST*
D10*
X119507000Y-86584500D03*
D11*
X122047000Y-86584500D03*
X122047000Y-78964500D03*
X119507000Y-78964500D03*
D12*
X115562000Y-107072000D03*
D13*
X115562000Y-111522000D03*
D14*
X115562000Y-117872000D03*
D12*
X137597000Y-107072000D03*
D13*
X137597000Y-111522000D03*
D14*
X137597000Y-117872000D03*
D12*
X104022000Y-107072000D03*
D13*
X104022000Y-111522000D03*
D14*
X104022000Y-117872000D03*
D12*
X127022000Y-107072000D03*
D13*
X127022000Y-111522000D03*
D14*
X127022000Y-117872000D03*
D10*
X128097000Y-86604500D03*
D11*
X130637000Y-86604500D03*
X130637000Y-78984500D03*
X128097000Y-78984500D03*
D10*
X137472000Y-86584500D03*
D11*
X140012000Y-86584500D03*
X140012000Y-78964500D03*
X137472000Y-78964500D03*
D15*
X174222000Y-49072000D03*
D16*
X79222000Y-86582000D03*
X79222000Y-84042000D03*
X79222000Y-81502000D03*
X79222000Y-78962000D03*
D15*
X74222000Y-129072000D03*
D12*
X91757000Y-107084500D03*
D13*
X91757000Y-111534500D03*
D14*
X91757000Y-117884500D03*
D12*
X78057000Y-105134500D03*
D13*
X78057000Y-109584500D03*
D14*
X78057000Y-115934500D03*
D17*
X91922000Y-78992000D03*
D11*
X89382000Y-78992000D03*
X89382000Y-86612000D03*
X91922000Y-86612000D03*
D12*
X162122000Y-106397000D03*
D13*
X162122000Y-110847000D03*
D14*
X162122000Y-117197000D03*
D18*
X173177000Y-94387000D03*
X173177000Y-99427000D03*
D19*
X173177000Y-74227000D03*
D20*
X173177000Y-78007000D03*
D12*
X151629465Y-106386340D03*
D13*
X151629465Y-110836340D03*
D14*
X151629465Y-117186340D03*
D18*
X151724500Y-94104500D03*
X151724500Y-99144500D03*
D19*
X151724500Y-73944500D03*
D20*
X151724500Y-77724500D03*
D17*
X101397000Y-78667000D03*
D11*
X98857000Y-78667000D03*
X98857000Y-86287000D03*
X101397000Y-86287000D03*
D18*
X162927000Y-94387000D03*
X162927000Y-99427000D03*
D19*
X162927000Y-74227000D03*
D20*
X162927000Y-78007000D03*
D15*
X174222000Y-129072000D03*
D17*
X110922000Y-78992000D03*
D11*
X108382000Y-78992000D03*
X108382000Y-86612000D03*
X110922000Y-86612000D03*
D15*
X74222000Y-49072000D03*
D12*
X173647000Y-106372000D03*
D13*
X173647000Y-110822000D03*
D14*
X173647000Y-117172000D03*
M02*
