G04 #@! TF.GenerationSoftware,KiCad,Pcbnew,9.0.0*
G04 #@! TF.CreationDate,2025-04-14T20:08:49-05:00*
G04 #@! TF.ProjectId,Fault Latch 2,4661756c-7420-44c6-9174-636820322e6b,rev?*
G04 #@! TF.SameCoordinates,Original*
G04 #@! TF.FileFunction,Paste,Top*
G04 #@! TF.FilePolarity,Positive*
%FSLAX46Y46*%
G04 Gerber Fmt 4.6, Leading zero omitted, Abs format (unit mm)*
G04 Created by KiCad (PCBNEW 9.0.0) date 2025-04-14 20:08:49*
%MOMM*%
%LPD*%
G01*
G04 APERTURE LIST*
G04 Aperture macros list*
%AMRoundRect*
0 Rectangle with rounded corners*
0 $1 Rounding radius*
0 $2 $3 $4 $5 $6 $7 $8 $9 X,Y pos of 4 corners*
0 Add a 4 corners polygon primitive as box body*
4,1,4,$2,$3,$4,$5,$6,$7,$8,$9,$2,$3,0*
0 Add four circle primitives for the rounded corners*
1,1,$1+$1,$2,$3*
1,1,$1+$1,$4,$5*
1,1,$1+$1,$6,$7*
1,1,$1+$1,$8,$9*
0 Add four rect primitives between the rounded corners*
20,1,$1+$1,$2,$3,$4,$5,0*
20,1,$1+$1,$4,$5,$6,$7,0*
20,1,$1+$1,$6,$7,$8,$9,0*
20,1,$1+$1,$8,$9,$2,$3,0*%
G04 Aperture macros list end*
%ADD10RoundRect,0.150000X0.587500X0.150000X-0.587500X0.150000X-0.587500X-0.150000X0.587500X-0.150000X0*%
%ADD11RoundRect,0.250000X0.450000X-0.325000X0.450000X0.325000X-0.450000X0.325000X-0.450000X-0.325000X0*%
%ADD12RoundRect,0.250000X-0.450000X0.350000X-0.450000X-0.350000X0.450000X-0.350000X0.450000X0.350000X0*%
%ADD13RoundRect,0.250000X-0.850000X-0.350000X0.850000X-0.350000X0.850000X0.350000X-0.850000X0.350000X0*%
%ADD14RoundRect,0.250000X-1.275000X-1.125000X1.275000X-1.125000X1.275000X1.125000X-1.275000X1.125000X0*%
%ADD15RoundRect,0.250000X0.450000X-0.350000X0.450000X0.350000X-0.450000X0.350000X-0.450000X-0.350000X0*%
%ADD16RoundRect,0.237500X-0.300000X-0.237500X0.300000X-0.237500X0.300000X0.237500X-0.300000X0.237500X0*%
%ADD17RoundRect,0.250000X-1.000000X-0.650000X1.000000X-0.650000X1.000000X0.650000X-1.000000X0.650000X0*%
%ADD18R,1.400000X1.600000*%
%ADD19RoundRect,0.150000X0.150000X-0.587500X0.150000X0.587500X-0.150000X0.587500X-0.150000X-0.587500X0*%
%ADD20RoundRect,0.250000X-1.500000X-0.550000X1.500000X-0.550000X1.500000X0.550000X-1.500000X0.550000X0*%
%ADD21RoundRect,0.150000X0.150000X-0.825000X0.150000X0.825000X-0.150000X0.825000X-0.150000X-0.825000X0*%
%ADD22RoundRect,0.237500X0.300000X0.237500X-0.300000X0.237500X-0.300000X-0.237500X0.300000X-0.237500X0*%
%ADD23RoundRect,0.150000X0.150000X-0.512500X0.150000X0.512500X-0.150000X0.512500X-0.150000X-0.512500X0*%
%ADD24RoundRect,0.250000X-0.350000X-0.450000X0.350000X-0.450000X0.350000X0.450000X-0.350000X0.450000X0*%
%ADD25RoundRect,0.250000X0.350000X0.450000X-0.350000X0.450000X-0.350000X-0.450000X0.350000X-0.450000X0*%
%ADD26RoundRect,0.237500X-0.237500X0.300000X-0.237500X-0.300000X0.237500X-0.300000X0.237500X0.300000X0*%
%ADD27RoundRect,0.250000X-0.337500X-0.475000X0.337500X-0.475000X0.337500X0.475000X-0.337500X0.475000X0*%
G04 APERTURE END LIST*
D10*
X94937500Y-116450000D03*
X94937500Y-114550000D03*
X93062500Y-115500000D03*
D11*
X103436535Y-114023869D03*
X103436535Y-111973869D03*
D12*
X90750000Y-113500000D03*
X90750000Y-115500000D03*
D13*
X120025000Y-68445000D03*
D14*
X124650000Y-69200000D03*
X124650000Y-72250000D03*
X128000000Y-69200000D03*
X128000000Y-72250000D03*
D13*
X120025000Y-73005000D03*
D15*
X86450000Y-138600000D03*
X86450000Y-136600000D03*
X95500000Y-105300000D03*
X95500000Y-103300000D03*
X100936535Y-113998869D03*
X100936535Y-111998869D03*
X86750000Y-122000000D03*
X86750000Y-120000000D03*
D16*
X93037500Y-134750000D03*
X94762500Y-134750000D03*
X114137500Y-134500000D03*
X115862500Y-134500000D03*
D17*
X133220000Y-78750000D03*
X137220000Y-78750000D03*
D11*
X103434561Y-105006854D03*
X103434561Y-102956854D03*
D18*
X86500000Y-126000000D03*
X86500000Y-134000000D03*
X82000000Y-126000000D03*
X82000000Y-134000000D03*
D11*
X103500000Y-95775000D03*
X103500000Y-93725000D03*
D15*
X94900000Y-138500000D03*
X94900000Y-136500000D03*
D19*
X88800000Y-138437500D03*
X90700000Y-138437500D03*
X89750000Y-136562500D03*
D20*
X130200000Y-138400000D03*
X135800000Y-138400000D03*
D15*
X93250000Y-105300000D03*
X93250000Y-103300000D03*
D16*
X93387500Y-101550000D03*
X95112500Y-101550000D03*
D18*
X86750000Y-109250000D03*
X86750000Y-117250000D03*
X82250000Y-109250000D03*
X82250000Y-117250000D03*
D19*
X89050000Y-105237500D03*
X90950000Y-105237500D03*
X90000000Y-103362500D03*
D21*
X87055000Y-70475000D03*
X88325000Y-70475000D03*
X89595000Y-70475000D03*
X90865000Y-70475000D03*
X92135000Y-70475000D03*
X93405000Y-70475000D03*
X94675000Y-70475000D03*
X95945000Y-70475000D03*
X95945000Y-65525000D03*
X94675000Y-65525000D03*
X93405000Y-65525000D03*
X92135000Y-65525000D03*
X90865000Y-65525000D03*
X89595000Y-65525000D03*
X88325000Y-65525000D03*
X87055000Y-65525000D03*
D22*
X95862500Y-78200000D03*
X94137500Y-78200000D03*
D23*
X82035000Y-82262500D03*
X82985000Y-82262500D03*
X83935000Y-82262500D03*
X83935000Y-79987500D03*
X82035000Y-79987500D03*
D12*
X117000000Y-111750000D03*
X117000000Y-113750000D03*
D22*
X82097500Y-78187500D03*
X80372500Y-78187500D03*
D15*
X92750000Y-138500000D03*
X92750000Y-136500000D03*
D12*
X84050000Y-136600000D03*
X84050000Y-138600000D03*
D24*
X114300000Y-57350000D03*
X116300000Y-57350000D03*
D25*
X106700000Y-57350000D03*
X104700000Y-57350000D03*
X106700000Y-76750000D03*
X104700000Y-76750000D03*
D15*
X95250000Y-122000000D03*
X95250000Y-120000000D03*
D22*
X89062500Y-78200000D03*
X87337500Y-78200000D03*
D19*
X88900000Y-121937500D03*
X90800000Y-121937500D03*
X89850000Y-120062500D03*
D25*
X106700000Y-66950000D03*
X104700000Y-66950000D03*
D17*
X133000000Y-56050000D03*
X137000000Y-56050000D03*
D12*
X90750000Y-96800000D03*
X90750000Y-98800000D03*
X84350000Y-120000000D03*
X84350000Y-122000000D03*
D26*
X104600000Y-134637500D03*
X104600000Y-136362500D03*
D16*
X93387500Y-118250000D03*
X95112500Y-118250000D03*
D26*
X85250497Y-65496594D03*
X85250497Y-67221594D03*
D23*
X95877500Y-82367500D03*
X96827500Y-82367500D03*
X97777500Y-82367500D03*
X97777500Y-80092500D03*
X95877500Y-80092500D03*
D24*
X114300000Y-66950000D03*
X116300000Y-66950000D03*
D12*
X84500000Y-103300000D03*
X84500000Y-105300000D03*
X90500000Y-130000000D03*
X90500000Y-132000000D03*
D13*
X120000000Y-58970000D03*
D14*
X124625000Y-59725000D03*
X124625000Y-62775000D03*
X127975000Y-59725000D03*
X127975000Y-62775000D03*
D13*
X120000000Y-63530000D03*
D18*
X86750000Y-92750000D03*
X86750000Y-100750000D03*
X82250000Y-92750000D03*
X82250000Y-100750000D03*
D17*
X133520000Y-67250000D03*
X137520000Y-67250000D03*
D15*
X93000000Y-122000000D03*
X93000000Y-120000000D03*
D12*
X117000000Y-95750000D03*
X117000000Y-97750000D03*
D13*
X120100000Y-78470000D03*
D14*
X124725000Y-79225000D03*
X124725000Y-82275000D03*
X128075000Y-79225000D03*
X128075000Y-82275000D03*
D13*
X120100000Y-83030000D03*
D23*
X89050000Y-82362500D03*
X90000000Y-82362500D03*
X90950000Y-82362500D03*
X90950000Y-80087500D03*
X89050000Y-80087500D03*
D15*
X86750000Y-105300000D03*
X86750000Y-103300000D03*
D27*
X113962500Y-136500000D03*
X116037500Y-136500000D03*
D24*
X114300000Y-76750000D03*
X116300000Y-76750000D03*
D15*
X100934561Y-104981854D03*
X100934561Y-102981854D03*
X101000000Y-95750000D03*
X101000000Y-93750000D03*
D10*
X94937500Y-99750000D03*
X94937500Y-97850000D03*
X93062500Y-98800000D03*
X94687500Y-132950000D03*
X94687500Y-131050000D03*
X92812500Y-132000000D03*
D15*
X117000000Y-104750000D03*
X117000000Y-102750000D03*
M02*
