%TF.GenerationSoftware,KiCad,Pcbnew,9.0.0*%
%TF.CreationDate,2025-04-14T20:03:46-05:00*%
%TF.ProjectId,Fault Latch 2,4661756c-7420-44c6-9174-636820322e6b,rev?*%
%TF.SameCoordinates,Original*%
%TF.FileFunction,Plated,1,2,PTH,Drill*%
%TF.FilePolarity,Positive*%
%FSLAX46Y46*%
G04 Gerber Fmt 4.6, Leading zero omitted, Abs format (unit mm)*
G04 Created by KiCad (PCBNEW 9.0.0) date 2025-04-14 20:03:46*
%MOMM*%
%LPD*%
G01*
G04 APERTURE LIST*
%TA.AperFunction,ViaDrill*%
%ADD10C,0.300000*%
%TD*%
%TA.AperFunction,ViaDrill*%
%ADD11C,0.400000*%
%TD*%
%TA.AperFunction,ComponentDrill*%
%ADD12C,0.800000*%
%TD*%
%TA.AperFunction,ComponentDrill*%
%ADD13C,1.000000*%
%TD*%
%TA.AperFunction,ComponentDrill*%
%ADD14C,1.150000*%
%TD*%
%TA.AperFunction,ComponentDrill*%
%ADD15C,1.300000*%
%TD*%
%TA.AperFunction,ComponentDrill*%
%ADD16C,1.860000*%
%TD*%
G04 APERTURE END LIST*
D10*
X77750000Y-126925000D03*
X81950000Y-136000000D03*
X83525000Y-142575000D03*
X84000000Y-78000000D03*
X86750000Y-94150000D03*
X86750000Y-99250000D03*
X90500000Y-126525000D03*
X90725000Y-94400000D03*
X90775000Y-110750000D03*
X95600000Y-126525000D03*
X95975000Y-110750000D03*
X96275000Y-94400000D03*
X96850000Y-83525000D03*
X96850000Y-89700000D03*
D11*
X82035000Y-83965000D03*
X84500000Y-91000000D03*
X87000000Y-72500000D03*
X87500000Y-82000000D03*
X88000000Y-72500000D03*
X89000000Y-115500000D03*
X90000000Y-92000000D03*
X90500000Y-72500000D03*
X90500000Y-134000000D03*
X91000000Y-78000000D03*
X92000000Y-72500000D03*
X93405000Y-60095000D03*
X93500000Y-72500000D03*
X94500000Y-63000000D03*
X94500000Y-82500000D03*
X97000000Y-92500000D03*
X97780000Y-78260000D03*
X98450000Y-62500000D03*
X99275000Y-72225000D03*
X103000000Y-115500000D03*
X103500000Y-97000000D03*
X105000000Y-106250000D03*
X118500000Y-56500000D03*
X118500000Y-66000000D03*
X118500000Y-76000000D03*
X133000000Y-89500000D03*
D12*
%TO.C,U114*%
X106685000Y-93210000D03*
X106685000Y-95750000D03*
%TO.C,U116*%
X106685000Y-102485000D03*
X106685000Y-105025000D03*
%TO.C,U115*%
X106685000Y-111485000D03*
X106685000Y-114025000D03*
%TO.C,U107*%
X106695000Y-60075000D03*
X106695000Y-62615000D03*
%TO.C,U108*%
X106695000Y-69675000D03*
X106695000Y-72215000D03*
%TO.C,U109*%
X106695000Y-79475000D03*
X106695000Y-82015000D03*
%TO.C,U114*%
X114305000Y-93210000D03*
X114305000Y-95750000D03*
%TO.C,U116*%
X114305000Y-102485000D03*
X114305000Y-105025000D03*
%TO.C,U115*%
X114305000Y-111485000D03*
X114305000Y-114025000D03*
%TO.C,U107*%
X114315000Y-60075000D03*
X114315000Y-62615000D03*
%TO.C,U108*%
X114315000Y-69675000D03*
X114315000Y-72215000D03*
%TO.C,U109*%
X114315000Y-79475000D03*
X114315000Y-82015000D03*
D13*
%TO.C,K101*%
X132872500Y-60047500D03*
%TO.C,K103*%
X133240000Y-82750000D03*
%TO.C,K102*%
X133340000Y-71250000D03*
%TO.C,K101*%
X136652500Y-60047500D03*
%TO.C,K103*%
X137020000Y-82750000D03*
%TO.C,K102*%
X137120000Y-71250000D03*
D14*
%TO.C,PS101*%
X106690000Y-140500000D03*
X109230000Y-140500000D03*
X111770000Y-140500000D03*
X114310000Y-140500000D03*
D15*
%TO.C,K101*%
X153032500Y-60047500D03*
%TO.C,K103*%
X153400000Y-82750000D03*
%TO.C,K102*%
X153500000Y-71250000D03*
%TO.C,K101*%
X158072500Y-60047500D03*
%TO.C,K103*%
X158440000Y-82750000D03*
%TO.C,K102*%
X158540000Y-71250000D03*
D16*
%TO.C,U101*%
X135037500Y-98750000D03*
%TO.C,U113*%
X135145563Y-127818634D03*
%TO.C,U105*%
X135150000Y-110115000D03*
%TO.C,U101*%
X141387500Y-98750000D03*
%TO.C,U113*%
X141495563Y-127818634D03*
%TO.C,U105*%
X141500000Y-110115000D03*
%TO.C,U110*%
X169500000Y-70400000D03*
X169500000Y-76750000D03*
%TO.C,U111*%
X169500000Y-95287500D03*
X169500000Y-101637500D03*
%TO.C,U112*%
X169500000Y-120750000D03*
X169500000Y-127100000D03*
M02*
