M48
; DRILL file {KiCad 9.0.0} date 2025-04-22T19:29:34-0500
; FORMAT={-:-/ absolute / metric / decimal}
; #@! TF.CreationDate,2025-04-22T19:29:34-05:00
; #@! TF.GenerationSoftware,Kicad,Pcbnew,9.0.0
; #@! TF.FileFunction,Plated,1,2,PTH
FMAT,2
METRIC
; #@! TA.AperFunction,Plated,PTH,ViaDrill
T1C0.300
; #@! TA.AperFunction,Plated,PTH,ComponentDrill
T2C0.800
; #@! TA.AperFunction,Plated,PTH,ComponentDrill
T3C1.000
; #@! TA.AperFunction,Plated,PTH,ComponentDrill
T4C1.150
; #@! TA.AperFunction,Plated,PTH,ComponentDrill
T5C1.300
; #@! TA.AperFunction,Plated,PTH,ComponentDrill
T6C1.860
%
G90
G05
T1
X71.722Y-86.572
X71.722Y-89.072
X71.722Y-91.572
X71.722Y-94.072
X71.722Y-99.072
X73.822Y-64.672
X74.222Y-58.072
X74.222Y-60.072
X74.222Y-62.072
X74.222Y-89.072
X74.972Y-91.222
X75.222Y-57.072
X75.222Y-59.072
X75.222Y-61.072
X76.022Y-69.672
X76.222Y-115.922
X76.272Y-90.922
X76.322Y-54.887
X76.422Y-75.572
X76.672Y-117.172
X76.722Y-89.072
X76.722Y-131.572
X76.975Y-68.544
X77.572Y-91.272
X77.687Y-53.45
X77.822Y-75.572
X78.022Y-117.672
X78.222Y-74.372
X78.522Y-69.572
X79.153Y-51.998
X79.222Y-91.572
X79.222Y-99.072
X79.222Y-101.572
X79.222Y-126.572
X79.222Y-129.072
X79.222Y-131.572
X79.422Y-74.472
X79.422Y-75.572
X79.522Y-64.372
X80.422Y-73.972
X80.822Y-50.972
X81.122Y-58.072
X81.722Y-91.572
X81.722Y-101.572
X81.722Y-126.572
X81.722Y-129.072
X81.722Y-131.572
X83.222Y-85.122
X83.493Y-66.479
X83.564Y-68.408
X84.222Y-72.072
X84.222Y-74.072
X84.222Y-96.572
X84.222Y-104.072
X84.222Y-106.572
X84.222Y-109.072
X84.222Y-111.572
X84.222Y-114.072
X84.222Y-116.572
X84.222Y-121.572
X84.222Y-124.072
X84.222Y-126.572
X84.222Y-129.072
X84.222Y-131.572
X85.041Y-65.085
X85.196Y-68.415
X85.222Y-55.072
X85.222Y-85.372
X85.322Y-63.872
X85.422Y-76.772
X86.122Y-60.472
X86.222Y-72.072
X86.222Y-74.072
X86.222Y-76.072
X86.722Y-91.572
X86.722Y-129.072
X86.722Y-131.572
X86.773Y-59.272
X86.822Y-70.172
X87.222Y-50.072
X87.222Y-64.072
X87.222Y-66.072
X87.272Y-94.072
X87.422Y-70.772
X87.502Y-61.692
X88.122Y-85.872
X88.172Y-87.572
X88.322Y-67.472
X88.764Y-66.321
X89.222Y-52.072
X89.222Y-111.572
X89.222Y-114.072
X89.222Y-116.572
X89.222Y-119.072
X89.222Y-129.072
X89.222Y-131.572
X89.372Y-85.272
X89.872Y-67.122
X90.622Y-68.472
X91.122Y-61.772
X91.222Y-50.072
X91.722Y-114.072
X91.722Y-129.072
X91.722Y-131.572
X92.022Y-57.672
X92.022Y-69.872
X92.222Y-64.972
X92.472Y-60.472
X93.222Y-67.072
X94.222Y-68.072
X94.222Y-101.572
X94.222Y-119.072
X94.222Y-129.072
X94.222Y-131.572
X95.075Y-50.139
X95.922Y-54.172
X96.222Y-61.072
X96.222Y-69.072
X96.222Y-71.872
X96.722Y-104.072
X96.722Y-106.572
X96.722Y-109.072
X96.722Y-111.572
X96.722Y-114.072
X96.722Y-116.572
X96.722Y-119.072
X96.722Y-129.072
X96.722Y-131.572
X97.222Y-53.072
X97.282Y-50.139
X97.722Y-85.572
X98.222Y-56.072
X98.222Y-69.072
X98.222Y-71.872
X98.222Y-73.272
X98.342Y-62.524
X98.522Y-87.772
X99.222Y-54.072
X99.222Y-58.072
X99.222Y-129.072
X99.222Y-131.572
X99.3Y-50.139
X99.668Y-63.918
X100.822Y-56.072
X100.922Y-59.772
X101.122Y-64.272
X101.579Y-50.154
X101.722Y-106.572
X101.722Y-109.072
X101.722Y-111.572
X101.722Y-114.072
X101.722Y-116.572
X101.722Y-119.072
X101.722Y-129.072
X101.722Y-131.572
X103.725Y-89.514
X103.757Y-50.11
X104.222Y-71.872
X104.222Y-109.072
X104.222Y-114.072
X104.222Y-129.072
X104.222Y-131.572
X104.238Y-73.715
X105.222Y-75.272
X106.022Y-71.872
X106.022Y-73.672
X106.122Y-51.172
X106.172Y-90.472
X106.443Y-55.613
X106.722Y-119.072
X106.722Y-129.072
X106.722Y-131.572
X106.872Y-87.072
X106.972Y-85.822
X107.372Y-50.227
X107.422Y-75.072
X108.222Y-70.072
X108.372Y-85.222
X108.722Y-62.172
X108.922Y-65.972
X109.222Y-71.072
X109.222Y-91.572
X109.222Y-96.572
X109.222Y-99.072
X109.222Y-129.072
X109.222Y-131.572
X109.274Y-53.188
X110.222Y-63.072
X110.222Y-72.072
X110.581Y-51.737
X111.222Y-73.072
X111.222Y-76.072
X111.722Y-61.572
X111.722Y-66.572
X111.722Y-89.072
X111.722Y-91.572
X111.722Y-96.572
X111.722Y-99.072
X111.722Y-129.072
X111.722Y-131.572
X112.222Y-59.072
X112.222Y-77.072
X113.122Y-74.572
X113.122Y-75.372
X113.222Y-79.072
X114.222Y-59.072
X114.222Y-64.072
X114.222Y-68.072
X114.222Y-72.072
X114.222Y-76.072
X114.222Y-78.072
X114.222Y-86.572
X114.222Y-89.072
X114.222Y-91.572
X114.222Y-99.072
X114.222Y-101.572
X114.222Y-104.072
X114.222Y-114.072
X114.222Y-129.072
X114.222Y-131.572
X115.222Y-66.072
X115.222Y-79.072
X115.422Y-73.072
X116.122Y-74.572
X116.222Y-65.072
X116.222Y-78.072
X116.722Y-54.072
X116.722Y-56.572
X116.722Y-59.072
X116.722Y-71.572
X116.722Y-86.572
X116.722Y-89.072
X116.722Y-91.572
X116.722Y-94.072
X116.722Y-114.072
X116.722Y-129.072
X116.722Y-131.572
X117.222Y-73.072
X119.222Y-54.072
X119.222Y-56.572
X119.222Y-59.072
X119.222Y-71.572
X119.222Y-129.072
X119.222Y-131.572
X120.222Y-73.072
X121.622Y-53.772
X121.722Y-71.572
X121.722Y-94.072
X121.722Y-101.572
X121.722Y-104.072
X121.722Y-106.572
X121.722Y-109.072
X121.722Y-129.072
X121.722Y-131.572
X121.972Y-92.122
X122.222Y-73.072
X123.722Y-117.072
X124.222Y-60.072
X124.222Y-66.072
X124.222Y-77.072
X124.222Y-119.072
X124.222Y-126.572
X124.222Y-129.072
X124.222Y-131.572
X124.722Y-74.572
X124.722Y-75.372
X125.222Y-59.072
X125.222Y-61.072
X125.222Y-65.072
X125.222Y-71.072
X125.222Y-79.072
X126.222Y-77.072
X126.722Y-114.072
X126.722Y-126.572
X126.722Y-129.072
X126.722Y-131.572
X127.222Y-67.072
X127.222Y-71.072
X127.222Y-73.772
X127.222Y-74.572
X127.222Y-91.572
X127.222Y-94.072
X127.222Y-101.572
X127.222Y-104.072
X128.372Y-90.572
X129.222Y-67.072
X129.222Y-71.072
X129.222Y-73.072
X129.222Y-91.572
X129.222Y-94.072
X129.222Y-101.572
X129.222Y-104.072
X129.222Y-114.072
X129.222Y-116.572
X129.222Y-119.072
X129.222Y-126.572
X129.222Y-129.072
X129.222Y-131.572
X130.522Y-59.172
X131.222Y-73.072
X131.722Y-91.572
X131.722Y-94.072
X131.722Y-101.572
X131.722Y-104.072
X131.722Y-126.572
X131.722Y-129.072
X131.722Y-131.572
X132.222Y-55.072
X132.222Y-57.072
X133.222Y-56.072
X133.222Y-58.072
X133.222Y-77.072
X133.622Y-74.572
X133.622Y-75.372
X133.822Y-69.872
X134.222Y-57.072
X134.222Y-79.072
X134.222Y-126.572
X134.222Y-129.072
X134.222Y-131.572
X134.422Y-71.872
X135.002Y-53.336
X135.222Y-58.072
X135.222Y-77.072
X136.222Y-69.872
X136.622Y-71.872
X136.622Y-73.472
X136.622Y-74.572
X136.722Y-126.572
X136.722Y-129.072
X136.722Y-131.572
X136.886Y-53.639
X136.922Y-55.172
X139.022Y-69.872
X139.022Y-71.872
X139.222Y-126.572
X139.222Y-129.072
X139.222Y-131.572
X139.422Y-73.872
X141.222Y-66.072
X141.422Y-69.872
X141.422Y-71.872
X141.722Y-126.572
X141.722Y-129.072
X141.722Y-131.572
X142.222Y-65.072
X142.222Y-77.072
X142.222Y-79.072
X144.222Y-67.072
X144.222Y-86.572
X144.222Y-89.072
X144.222Y-91.572
X144.222Y-94.072
X144.222Y-96.572
X144.222Y-99.072
X144.222Y-101.572
X144.222Y-104.072
X144.222Y-106.572
X144.222Y-109.072
X144.222Y-111.572
X144.222Y-114.072
X144.222Y-116.572
X144.222Y-119.072
X144.222Y-121.572
X144.222Y-124.072
X144.222Y-126.572
X144.222Y-129.072
X144.222Y-131.572
X145.353Y-51.737
X145.622Y-60.272
X146.222Y-67.072
X146.622Y-69.672
X146.622Y-71.272
X149.022Y-69.672
X149.022Y-71.272
X149.055Y-55.192
X151.222Y-51.072
X151.422Y-69.672
X151.422Y-71.272
X151.712Y-57.486
X152.222Y-53.072
X153.222Y-51.072
X153.622Y-55.472
X154.017Y-91.555
X154.017Y-94.055
X154.222Y-53.072
X154.222Y-86.572
X154.222Y-89.072
X155.222Y-51.072
X156.222Y-53.072
X156.722Y-86.572
X156.722Y-91.572
X156.722Y-94.072
X156.722Y-96.572
X156.722Y-99.072
X156.722Y-101.572
X156.722Y-104.072
X156.822Y-80.172
X156.927Y-89.089
X157.222Y-51.072
X158.222Y-53.072
X159.222Y-51.072
X160.222Y-53.072
X160.222Y-76.072
X160.222Y-78.072
X160.222Y-80.072
X161.222Y-51.072
X162.222Y-53.072
X163.222Y-51.072
X163.722Y-59.472
X163.722Y-66.172
X164.222Y-53.072
X164.222Y-62.072
X164.222Y-64.072
X164.222Y-126.572
X165.222Y-51.072
X165.222Y-55.072
X165.222Y-57.072
X166.222Y-53.072
X166.222Y-60.072
X166.222Y-62.072
X166.222Y-64.072
X166.222Y-68.072
X166.722Y-86.572
X166.722Y-89.072
X166.722Y-91.572
X166.722Y-94.072
X166.722Y-96.572
X166.722Y-99.072
X166.722Y-101.572
X166.722Y-104.072
X166.722Y-116.572
X166.722Y-119.072
X166.722Y-121.572
X166.722Y-124.072
X166.722Y-126.572
X167.222Y-55.072
X167.222Y-80.172
X168.222Y-53.072
X168.222Y-63.072
X168.222Y-68.072
X168.322Y-61.072
X169.222Y-126.572
X170.222Y-63.072
X170.222Y-76.072
X170.222Y-78.072
X170.222Y-80.072
X172.222Y-61.072
X172.222Y-63.072
X174.222Y-63.072
T2
X89.382Y-78.992
X89.382Y-86.612
X91.922Y-78.992
X91.922Y-86.612
X98.857Y-78.667
X98.857Y-86.287
X101.397Y-78.667
X101.397Y-86.287
X108.382Y-78.992
X108.382Y-86.612
X110.922Y-78.992
X110.922Y-86.612
X119.507Y-78.965
X119.507Y-86.584
X122.047Y-78.965
X122.047Y-86.584
X128.097Y-78.984
X128.097Y-86.605
X130.637Y-78.984
X130.637Y-86.605
X137.472Y-78.965
X137.472Y-86.584
X140.012Y-78.965
X140.012Y-86.584
T3
X151.725Y-73.944
X151.725Y-77.724
X162.927Y-74.227
X162.927Y-78.007
X173.177Y-74.227
X173.177Y-78.007
T4
X79.222Y-78.962
X79.222Y-81.502
X79.222Y-84.042
X79.222Y-86.582
T5
X151.725Y-94.105
X151.725Y-99.144
X162.927Y-94.387
X162.927Y-99.427
X173.177Y-94.387
X173.177Y-99.427
T6
X78.057Y-109.584
X78.057Y-115.934
X91.757Y-111.534
X91.757Y-117.884
X104.022Y-111.522
X104.022Y-117.872
X115.562Y-111.522
X115.562Y-117.872
X127.022Y-111.522
X127.022Y-117.872
X137.597Y-111.522
X137.597Y-117.872
X151.629Y-110.836
X151.629Y-117.186
X162.122Y-110.847
X162.122Y-117.197
X173.647Y-110.822
X173.647Y-117.172
M30
