M48
; DRILL file {KiCad 9.0.0} date 2025-04-14T20:08:18-0500
; FORMAT={-:-/ absolute / metric / decimal}
; #@! TF.CreationDate,2025-04-14T20:08:18-05:00
; #@! TF.GenerationSoftware,Kicad,Pcbnew,9.0.0
; #@! TF.FileFunction,Plated,1,2,PTH
FMAT,2
METRIC
; #@! TA.AperFunction,Plated,PTH,ViaDrill
T1C0.300
; #@! TA.AperFunction,Plated,PTH,ViaDrill
T2C0.400
; #@! TA.AperFunction,Plated,PTH,ComponentDrill
T3C0.800
; #@! TA.AperFunction,Plated,PTH,ComponentDrill
T4C1.000
; #@! TA.AperFunction,Plated,PTH,ComponentDrill
T5C1.150
; #@! TA.AperFunction,Plated,PTH,ComponentDrill
T6C1.300
; #@! TA.AperFunction,Plated,PTH,ComponentDrill
T7C1.860
%
G90
G05
T1
X77.75Y-126.925
X81.95Y-136.0
X83.525Y-142.575
X84.0Y-78.0
X86.75Y-94.15
X86.75Y-99.25
X90.5Y-126.525
X90.725Y-94.4
X90.775Y-110.75
X95.6Y-126.525
X95.975Y-110.75
X96.275Y-94.4
X96.85Y-83.525
X96.85Y-89.7
T2
X82.035Y-83.965
X84.5Y-91.0
X87.0Y-72.5
X87.5Y-82.0
X88.0Y-72.5
X89.0Y-115.5
X90.0Y-92.0
X90.5Y-72.5
X90.5Y-134.0
X91.0Y-78.0
X92.0Y-72.5
X93.405Y-60.095
X93.5Y-72.5
X94.5Y-63.0
X94.5Y-82.5
X97.0Y-92.5
X97.78Y-78.26
X98.45Y-62.5
X99.275Y-72.225
X103.0Y-115.5
X103.5Y-97.0
X105.0Y-106.25
X118.5Y-56.5
X118.5Y-66.0
X118.5Y-76.0
X133.0Y-89.5
T3
X106.685Y-93.21
X106.685Y-95.75
X106.685Y-102.485
X106.685Y-105.025
X106.685Y-111.485
X106.685Y-114.025
X106.695Y-60.075
X106.695Y-62.615
X106.695Y-69.675
X106.695Y-72.215
X106.695Y-79.475
X106.695Y-82.015
X114.305Y-93.21
X114.305Y-95.75
X114.305Y-102.485
X114.305Y-105.025
X114.305Y-111.485
X114.305Y-114.025
X114.315Y-60.075
X114.315Y-62.615
X114.315Y-69.675
X114.315Y-72.215
X114.315Y-79.475
X114.315Y-82.015
T4
X132.873Y-60.047
X133.24Y-82.75
X133.34Y-71.25
X136.653Y-60.047
X137.02Y-82.75
X137.12Y-71.25
T5
X106.69Y-140.5
X109.23Y-140.5
X111.77Y-140.5
X114.31Y-140.5
T6
X153.032Y-60.047
X153.4Y-82.75
X153.5Y-71.25
X158.072Y-60.047
X158.44Y-82.75
X158.54Y-71.25
T7
X135.037Y-98.75
X135.146Y-127.819
X135.15Y-110.115
X141.387Y-98.75
X141.496Y-127.819
X141.5Y-110.115
X169.5Y-70.4
X169.5Y-76.75
X169.5Y-95.287
X169.5Y-101.637
X169.5Y-120.75
X169.5Y-127.1
M30
