G04 #@! TF.GenerationSoftware,KiCad,Pcbnew,9.0.0*
G04 #@! TF.CreationDate,2025-04-14T20:08:49-05:00*
G04 #@! TF.ProjectId,Fault Latch 2,4661756c-7420-44c6-9174-636820322e6b,rev?*
G04 #@! TF.SameCoordinates,Original*
G04 #@! TF.FileFunction,Copper,L2,Bot*
G04 #@! TF.FilePolarity,Positive*
%FSLAX46Y46*%
G04 Gerber Fmt 4.6, Leading zero omitted, Abs format (unit mm)*
G04 Created by KiCad (PCBNEW 9.0.0) date 2025-04-14 20:08:49*
%MOMM*%
%LPD*%
G01*
G04 APERTURE LIST*
G04 Aperture macros list*
%AMRoundRect*
0 Rectangle with rounded corners*
0 $1 Rounding radius*
0 $2 $3 $4 $5 $6 $7 $8 $9 X,Y pos of 4 corners*
0 Add a 4 corners polygon primitive as box body*
4,1,4,$2,$3,$4,$5,$6,$7,$8,$9,$2,$3,0*
0 Add four circle primitives for the rounded corners*
1,1,$1+$1,$2,$3*
1,1,$1+$1,$4,$5*
1,1,$1+$1,$6,$7*
1,1,$1+$1,$8,$9*
0 Add four rect primitives between the rounded corners*
20,1,$1+$1,$2,$3,$4,$5,0*
20,1,$1+$1,$4,$5,$6,$7,0*
20,1,$1+$1,$6,$7,$8,$9,0*
20,1,$1+$1,$8,$9,$2,$3,0*%
G04 Aperture macros list end*
G04 #@! TA.AperFunction,ComponentPad*
%ADD10RoundRect,0.250000X0.550000X0.550000X-0.550000X0.550000X-0.550000X-0.550000X0.550000X-0.550000X0*%
G04 #@! TD*
G04 #@! TA.AperFunction,ComponentPad*
%ADD11C,1.600000*%
G04 #@! TD*
G04 #@! TA.AperFunction,ComponentPad*
%ADD12C,2.400000*%
G04 #@! TD*
G04 #@! TA.AperFunction,ComponentPad*
%ADD13R,2.000000X2.000000*%
G04 #@! TD*
G04 #@! TA.AperFunction,ComponentPad*
%ADD14C,2.000000*%
G04 #@! TD*
G04 #@! TA.AperFunction,ComponentPad*
%ADD15R,2.210000X2.210000*%
G04 #@! TD*
G04 #@! TA.AperFunction,ComponentPad*
%ADD16C,2.210000*%
G04 #@! TD*
G04 #@! TA.AperFunction,ComponentPad*
%ADD17RoundRect,0.250000X-0.550000X-0.550000X0.550000X-0.550000X0.550000X0.550000X-0.550000X0.550000X0*%
G04 #@! TD*
G04 #@! TA.AperFunction,ComponentPad*
%ADD18C,1.725000*%
G04 #@! TD*
G04 #@! TA.AperFunction,ViaPad*
%ADD19C,0.800000*%
G04 #@! TD*
G04 #@! TA.AperFunction,ViaPad*
%ADD20C,0.600000*%
G04 #@! TD*
G04 #@! TA.AperFunction,Conductor*
%ADD21C,0.500000*%
G04 #@! TD*
G04 #@! TA.AperFunction,Conductor*
%ADD22C,0.300000*%
G04 #@! TD*
G04 APERTURE END LIST*
D10*
X114305000Y-105025000D03*
D11*
X114305000Y-102485000D03*
X106685000Y-102485000D03*
X106685000Y-105025000D03*
D12*
X153032500Y-60047500D03*
X158072500Y-60047500D03*
D13*
X132872500Y-60047500D03*
D14*
X136652500Y-60047500D03*
D15*
X135037500Y-98750000D03*
D16*
X141387500Y-98750000D03*
D15*
X135150000Y-110115000D03*
D16*
X141500000Y-110115000D03*
D17*
X106695000Y-60075000D03*
D11*
X106695000Y-62615000D03*
X114315000Y-62615000D03*
X114315000Y-60075000D03*
D10*
X114305000Y-114025000D03*
D11*
X114305000Y-111485000D03*
X106685000Y-111485000D03*
X106685000Y-114025000D03*
D10*
X114305000Y-95750000D03*
D11*
X114305000Y-93210000D03*
X106685000Y-93210000D03*
X106685000Y-95750000D03*
D12*
X153500000Y-71250000D03*
X158540000Y-71250000D03*
D13*
X133340000Y-71250000D03*
D14*
X137120000Y-71250000D03*
D18*
X114310000Y-140500000D03*
X111770000Y-140500000D03*
X109230000Y-140500000D03*
X106690000Y-140500000D03*
D15*
X135145563Y-127818634D03*
D16*
X141495563Y-127818634D03*
D15*
X169500000Y-101637500D03*
D16*
X169500000Y-95287500D03*
D17*
X106695000Y-79475000D03*
D11*
X106695000Y-82015000D03*
X114315000Y-82015000D03*
X114315000Y-79475000D03*
D15*
X169500000Y-127100000D03*
D16*
X169500000Y-120750000D03*
D12*
X153400000Y-82750000D03*
X158440000Y-82750000D03*
D13*
X133240000Y-82750000D03*
D14*
X137020000Y-82750000D03*
D15*
X169500000Y-76750000D03*
D16*
X169500000Y-70400000D03*
D17*
X106695000Y-69675000D03*
D11*
X106695000Y-72215000D03*
X114315000Y-72215000D03*
X114315000Y-69675000D03*
D19*
X118500000Y-76000000D03*
X133000000Y-89500000D03*
X118500000Y-66000000D03*
X118500000Y-56500000D03*
D20*
X90725000Y-94400000D03*
X83525000Y-142575000D03*
X77750000Y-126925000D03*
X95600000Y-126525000D03*
X95975000Y-110750000D03*
X81950000Y-136000000D03*
X90775000Y-110750000D03*
X96275000Y-94400000D03*
X90500000Y-126525000D03*
D19*
X103000000Y-115500000D03*
X87500000Y-82000000D03*
X92000000Y-72500000D03*
X105000000Y-106250000D03*
X94500000Y-63000000D03*
X94500000Y-82500000D03*
X82035000Y-83965000D03*
X84500000Y-91000000D03*
X103500000Y-97000000D03*
X87000000Y-72500000D03*
X90000000Y-92000000D03*
X89000000Y-115500000D03*
D20*
X96850000Y-83525000D03*
X96850000Y-89700000D03*
D19*
X90500000Y-134000000D03*
X97000000Y-92500000D03*
D20*
X86750000Y-99250000D03*
X86750000Y-94150000D03*
D19*
X88000000Y-72500000D03*
D20*
X84000000Y-78000000D03*
D19*
X93500000Y-72500000D03*
X91000000Y-78000000D03*
X93405000Y-60095000D03*
X97780000Y-78260000D03*
X99275000Y-72225000D03*
X98450000Y-62500000D03*
X90500000Y-72500000D03*
D21*
X118500000Y-56500000D02*
X124000000Y-62000000D01*
X133240000Y-71350000D02*
X133340000Y-71250000D01*
X133240000Y-89260000D02*
X133000000Y-89500000D01*
X118500000Y-66000000D02*
X124000000Y-71500000D01*
X118500000Y-76000000D02*
X124000000Y-76000000D01*
X125952500Y-60047500D02*
X124000000Y-62000000D01*
X124000000Y-62000000D02*
X124000000Y-71500000D01*
X124000000Y-76000000D02*
X129740000Y-76000000D01*
X133240000Y-82750000D02*
X133240000Y-79500000D01*
X132872500Y-60047500D02*
X125952500Y-60047500D01*
X129740000Y-76000000D02*
X133240000Y-79500000D01*
X124000000Y-71500000D02*
X124000000Y-76000000D01*
X133240000Y-82750000D02*
X133240000Y-89260000D01*
X133240000Y-79500000D02*
X133240000Y-71350000D01*
X81950000Y-134950000D02*
X77750000Y-130750000D01*
X81950000Y-141000000D02*
X81950000Y-136000000D01*
X81950000Y-136000000D02*
X81950000Y-134950000D01*
X90775000Y-110750000D02*
X95975000Y-110750000D01*
X77750000Y-126925000D02*
X77750000Y-130750000D01*
X90725000Y-94400000D02*
X96275000Y-94400000D01*
X83525000Y-142575000D02*
X81950000Y-141000000D01*
X90500000Y-126525000D02*
X95600000Y-126525000D01*
D22*
X89500000Y-75000000D02*
X92000000Y-72500000D01*
X89500000Y-80000000D02*
X89500000Y-75000000D01*
X87500000Y-82000000D02*
X89500000Y-80000000D01*
D21*
X94250000Y-136250000D02*
X89500000Y-136250000D01*
X103000000Y-115500000D02*
X103000000Y-127500000D01*
X103000000Y-127500000D02*
X94250000Y-136250000D01*
X77800000Y-91700000D02*
X87500000Y-82000000D01*
X89500000Y-136250000D02*
X77800000Y-124550000D01*
X77800000Y-124550000D02*
X77800000Y-91700000D01*
X105000000Y-106250000D02*
X105000000Y-87500000D01*
X100000000Y-82500000D02*
X94500000Y-82500000D01*
D22*
X94500000Y-63000000D02*
X94500000Y-82500000D01*
D21*
X105000000Y-87500000D02*
X100000000Y-82500000D01*
D22*
X82035000Y-83965000D02*
X82035000Y-77465000D01*
X82035000Y-77465000D02*
X87000000Y-72500000D01*
X84500000Y-91000000D02*
X97500000Y-91000000D01*
X97500000Y-91000000D02*
X103500000Y-97000000D01*
X135847500Y-93210000D02*
X114305000Y-93210000D01*
X141387500Y-98750000D02*
X135847500Y-93210000D01*
X90000000Y-92000000D02*
X90000000Y-114500000D01*
X90000000Y-114500000D02*
X89000000Y-115500000D01*
X97000000Y-93000000D02*
X97000000Y-92500000D01*
X97000000Y-127500000D02*
X97000000Y-93000000D01*
X90500000Y-134000000D02*
X97000000Y-127500000D01*
X96850000Y-83525000D02*
X96850000Y-89700000D01*
X86750000Y-94150000D02*
X86750000Y-99250000D01*
X88000000Y-73000000D02*
X88000000Y-72500000D01*
X84000000Y-78000000D02*
X84000000Y-77000000D01*
X84000000Y-77000000D02*
X88000000Y-73000000D01*
X91000000Y-78000000D02*
X91000000Y-75000000D01*
X91000000Y-75000000D02*
X93500000Y-72500000D01*
X97400000Y-77400000D02*
X97400000Y-58900000D01*
X97780000Y-77780000D02*
X97400000Y-77400000D01*
X93750000Y-58250000D02*
X93405000Y-58595000D01*
X97400000Y-58900000D02*
X96750000Y-58250000D01*
X97780000Y-78260000D02*
X97780000Y-77780000D01*
X96750000Y-58250000D02*
X93750000Y-58250000D01*
X93405000Y-58595000D02*
X93405000Y-60095000D01*
X99275000Y-72225000D02*
X100705000Y-72225000D01*
X100705000Y-72225000D02*
X100715000Y-72215000D01*
X100715000Y-72215000D02*
X106695000Y-72215000D01*
X98450000Y-62500000D02*
X98450000Y-73770000D01*
X98450000Y-73770000D02*
X106695000Y-82015000D01*
X90500000Y-72500000D02*
X90500000Y-60000000D01*
X106695000Y-62195000D02*
X106695000Y-62615000D01*
X90500000Y-60000000D02*
X93000000Y-57500000D01*
X93000000Y-57500000D02*
X102000000Y-57500000D01*
X102000000Y-57500000D02*
X106695000Y-62195000D01*
G04 #@! TA.AperFunction,Conductor*
G36*
X109515677Y-139019685D02*
G01*
X109536319Y-139036319D01*
X110163681Y-139663681D01*
X110197166Y-139725004D01*
X110200000Y-139751362D01*
X110200000Y-141248638D01*
X110180315Y-141315677D01*
X110163681Y-141336319D01*
X109536319Y-141963681D01*
X109474996Y-141997166D01*
X109448638Y-142000000D01*
X108500000Y-142000000D01*
X108500000Y-139000000D01*
X109448638Y-139000000D01*
X109515677Y-139019685D01*
G37*
G04 #@! TD.AperFunction*
G04 #@! TA.AperFunction,Conductor*
G36*
X112500000Y-142000000D02*
G01*
X111551362Y-142000000D01*
X111484323Y-141980315D01*
X111463681Y-141963681D01*
X110736319Y-141236319D01*
X110702834Y-141174996D01*
X110700000Y-141148638D01*
X110700000Y-139851362D01*
X110719685Y-139784323D01*
X110736319Y-139763681D01*
X111463681Y-139036319D01*
X111525004Y-139002834D01*
X111551362Y-139000000D01*
X112500000Y-139000000D01*
X112500000Y-142000000D01*
G37*
G04 #@! TD.AperFunction*
G04 #@! TA.AperFunction,Conductor*
G36*
X108443039Y-50520185D02*
G01*
X108488794Y-50572989D01*
X108500000Y-50624500D01*
X108500000Y-142000000D01*
X108500000Y-149375500D01*
X108480315Y-149442539D01*
X108427511Y-149488294D01*
X108376000Y-149499500D01*
X80002706Y-149499500D01*
X79997297Y-149499382D01*
X79613249Y-149482614D01*
X79602473Y-149481671D01*
X79224042Y-149431849D01*
X79213389Y-149429971D01*
X78840727Y-149347354D01*
X78830278Y-149344554D01*
X78466244Y-149229775D01*
X78456078Y-149226075D01*
X78103427Y-149080002D01*
X78093623Y-149075430D01*
X77755057Y-148899183D01*
X77745689Y-148893775D01*
X77423755Y-148688681D01*
X77414894Y-148682476D01*
X77112069Y-148450110D01*
X77103782Y-148443156D01*
X76822364Y-148185284D01*
X76814715Y-148177635D01*
X76556843Y-147896217D01*
X76549889Y-147887930D01*
X76317523Y-147585105D01*
X76311318Y-147576244D01*
X76106224Y-147254310D01*
X76100816Y-147244942D01*
X75924569Y-146906376D01*
X75919997Y-146896572D01*
X75773920Y-146543911D01*
X75770224Y-146533755D01*
X75655442Y-146169710D01*
X75652648Y-146159284D01*
X75570025Y-145786597D01*
X75568152Y-145775971D01*
X75518326Y-145397506D01*
X75517386Y-145386771D01*
X75500618Y-145002702D01*
X75500500Y-144997293D01*
X75500500Y-144878711D01*
X78149500Y-144878711D01*
X78149500Y-145121288D01*
X78181161Y-145361785D01*
X78243947Y-145596104D01*
X78336773Y-145820205D01*
X78336776Y-145820212D01*
X78458064Y-146030289D01*
X78458066Y-146030292D01*
X78458067Y-146030293D01*
X78605733Y-146222736D01*
X78605739Y-146222743D01*
X78777256Y-146394260D01*
X78777262Y-146394265D01*
X78969711Y-146541936D01*
X79179788Y-146663224D01*
X79403900Y-146756054D01*
X79638211Y-146818838D01*
X79818586Y-146842584D01*
X79878711Y-146850500D01*
X79878712Y-146850500D01*
X80121289Y-146850500D01*
X80169388Y-146844167D01*
X80361789Y-146818838D01*
X80596100Y-146756054D01*
X80820212Y-146663224D01*
X81030289Y-146541936D01*
X81222738Y-146394265D01*
X81394265Y-146222738D01*
X81541936Y-146030289D01*
X81663224Y-145820212D01*
X81756054Y-145596100D01*
X81818838Y-145361789D01*
X81850500Y-145121288D01*
X81850500Y-144878712D01*
X81818838Y-144638211D01*
X81756054Y-144403900D01*
X81663224Y-144179788D01*
X81541936Y-143969711D01*
X81394265Y-143777262D01*
X81394260Y-143777256D01*
X81222743Y-143605739D01*
X81222736Y-143605733D01*
X81030293Y-143458067D01*
X81030292Y-143458066D01*
X81030289Y-143458064D01*
X80834001Y-143344737D01*
X80820214Y-143336777D01*
X80820205Y-143336773D01*
X80596104Y-143243947D01*
X80361785Y-143181161D01*
X80121289Y-143149500D01*
X80121288Y-143149500D01*
X79878712Y-143149500D01*
X79878711Y-143149500D01*
X79638214Y-143181161D01*
X79403895Y-143243947D01*
X79179794Y-143336773D01*
X79179785Y-143336777D01*
X78969706Y-143458067D01*
X78777263Y-143605733D01*
X78777256Y-143605739D01*
X78605739Y-143777256D01*
X78605733Y-143777263D01*
X78458067Y-143969706D01*
X78336777Y-144179785D01*
X78336773Y-144179794D01*
X78243947Y-144403895D01*
X78181161Y-144638214D01*
X78149500Y-144878711D01*
X75500500Y-144878711D01*
X75500500Y-126846153D01*
X76949500Y-126846153D01*
X76949500Y-127003846D01*
X76980261Y-127158489D01*
X76980263Y-127158497D01*
X76990061Y-127182151D01*
X76999500Y-127229604D01*
X76999500Y-130823918D01*
X76999500Y-130823920D01*
X76999499Y-130823920D01*
X77028340Y-130968907D01*
X77028343Y-130968917D01*
X77084914Y-131105492D01*
X77117812Y-131154727D01*
X77117813Y-131154730D01*
X77167046Y-131228414D01*
X77167052Y-131228421D01*
X81163181Y-135224549D01*
X81196666Y-135285872D01*
X81199500Y-135312230D01*
X81199500Y-135695396D01*
X81190062Y-135742844D01*
X81180263Y-135766503D01*
X81180262Y-135766506D01*
X81180260Y-135766511D01*
X81149500Y-135921153D01*
X81149500Y-136078846D01*
X81180261Y-136233489D01*
X81180263Y-136233497D01*
X81190061Y-136257151D01*
X81199500Y-136304604D01*
X81199500Y-141073918D01*
X81199500Y-141073920D01*
X81199499Y-141073920D01*
X81228340Y-141218907D01*
X81228343Y-141218917D01*
X81284913Y-141355490D01*
X81284914Y-141355491D01*
X81284916Y-141355495D01*
X81306591Y-141387933D01*
X81306592Y-141387935D01*
X81367051Y-141478420D01*
X81367052Y-141478421D01*
X82778926Y-142890293D01*
X82805805Y-142930519D01*
X82815603Y-142954172D01*
X82815606Y-142954178D01*
X82815609Y-142954185D01*
X82903210Y-143085288D01*
X82903213Y-143085292D01*
X83014707Y-143196786D01*
X83014711Y-143196789D01*
X83145814Y-143284390D01*
X83145827Y-143284397D01*
X83291498Y-143344735D01*
X83291503Y-143344737D01*
X83446153Y-143375499D01*
X83446156Y-143375500D01*
X83446158Y-143375500D01*
X83603844Y-143375500D01*
X83603845Y-143375499D01*
X83758497Y-143344737D01*
X83904179Y-143284394D01*
X84035289Y-143196789D01*
X84146789Y-143085289D01*
X84234394Y-142954179D01*
X84294737Y-142808497D01*
X84325500Y-142653842D01*
X84325500Y-142496158D01*
X84325500Y-142496155D01*
X84325499Y-142496153D01*
X84294738Y-142341510D01*
X84294737Y-142341503D01*
X84294735Y-142341498D01*
X84234397Y-142195827D01*
X84234390Y-142195814D01*
X84146789Y-142064711D01*
X84146786Y-142064707D01*
X84035292Y-141953213D01*
X84035288Y-141953210D01*
X83904185Y-141865609D01*
X83904180Y-141865607D01*
X83904179Y-141865606D01*
X83880519Y-141855805D01*
X83840293Y-141828926D01*
X82736819Y-140725451D01*
X82722115Y-140698523D01*
X82705523Y-140672705D01*
X82704631Y-140666504D01*
X82703334Y-140664128D01*
X82700500Y-140637770D01*
X82700500Y-140392724D01*
X105327000Y-140392724D01*
X105327000Y-140607275D01*
X105360560Y-140819170D01*
X105426859Y-141023215D01*
X105524258Y-141214368D01*
X105650362Y-141387935D01*
X105802065Y-141539638D01*
X105975632Y-141665742D01*
X106065943Y-141711758D01*
X106166784Y-141763140D01*
X106166786Y-141763140D01*
X106166789Y-141763142D01*
X106276160Y-141798678D01*
X106370829Y-141829439D01*
X106582725Y-141863000D01*
X106582730Y-141863000D01*
X106797275Y-141863000D01*
X107009170Y-141829439D01*
X107010749Y-141828926D01*
X107213211Y-141763142D01*
X107404368Y-141665742D01*
X107577935Y-141539638D01*
X107729638Y-141387935D01*
X107855742Y-141214368D01*
X107953142Y-141023211D01*
X108019439Y-140819170D01*
X108053000Y-140607275D01*
X108053000Y-140392724D01*
X108019439Y-140180829D01*
X107953140Y-139976784D01*
X107855741Y-139785631D01*
X107729638Y-139612065D01*
X107577935Y-139460362D01*
X107404368Y-139334258D01*
X107213215Y-139236859D01*
X107009170Y-139170560D01*
X106797275Y-139137000D01*
X106797270Y-139137000D01*
X106582730Y-139137000D01*
X106582725Y-139137000D01*
X106370829Y-139170560D01*
X106166784Y-139236859D01*
X105975631Y-139334258D01*
X105876605Y-139406205D01*
X105802065Y-139460362D01*
X105802063Y-139460364D01*
X105802062Y-139460364D01*
X105650364Y-139612062D01*
X105650364Y-139612063D01*
X105650362Y-139612065D01*
X105596205Y-139686605D01*
X105524258Y-139785631D01*
X105426859Y-139976784D01*
X105360560Y-140180829D01*
X105327000Y-140392724D01*
X82700500Y-140392724D01*
X82700500Y-136304604D01*
X82709939Y-136257151D01*
X82719737Y-136233497D01*
X82750500Y-136078842D01*
X82750500Y-135921158D01*
X82750500Y-135921155D01*
X82750499Y-135921153D01*
X82719739Y-135766511D01*
X82719738Y-135766508D01*
X82719737Y-135766503D01*
X82709937Y-135742844D01*
X82700500Y-135695396D01*
X82700500Y-134876079D01*
X82671659Y-134731092D01*
X82671658Y-134731091D01*
X82671658Y-134731087D01*
X82615084Y-134594505D01*
X82555464Y-134505277D01*
X82532952Y-134471584D01*
X78536819Y-130475451D01*
X78503334Y-130414128D01*
X78500500Y-130387770D01*
X78500500Y-127229604D01*
X78509939Y-127182151D01*
X78512900Y-127175003D01*
X78519737Y-127158497D01*
X78550500Y-127003842D01*
X78550500Y-126846158D01*
X78550500Y-126846155D01*
X78550499Y-126846153D01*
X78519738Y-126691510D01*
X78519737Y-126691503D01*
X78503457Y-126652201D01*
X78495989Y-126582734D01*
X78527264Y-126520255D01*
X78587353Y-126484602D01*
X78657178Y-126487095D01*
X78705700Y-126517069D01*
X88917049Y-136728416D01*
X89021584Y-136832951D01*
X89021587Y-136832953D01*
X89021588Y-136832954D01*
X89144503Y-136915083D01*
X89144506Y-136915085D01*
X89194665Y-136935861D01*
X89201080Y-136938518D01*
X89281088Y-136971659D01*
X89397241Y-136994763D01*
X89420380Y-136999365D01*
X89426081Y-137000500D01*
X89426082Y-137000500D01*
X94323920Y-137000500D01*
X94421462Y-136981096D01*
X94468913Y-136971658D01*
X94605495Y-136915084D01*
X94654729Y-136882186D01*
X94728416Y-136832952D01*
X103582952Y-127978415D01*
X103625545Y-127914669D01*
X103665084Y-127855495D01*
X103718930Y-127725500D01*
X103721659Y-127718912D01*
X103750500Y-127573917D01*
X103750500Y-127426082D01*
X103750500Y-116035269D01*
X103770185Y-115968230D01*
X103771398Y-115966378D01*
X103798013Y-115926547D01*
X103865894Y-115762666D01*
X103900500Y-115588691D01*
X103900500Y-115411309D01*
X103900500Y-115411306D01*
X103900499Y-115411304D01*
X103865896Y-115237341D01*
X103865893Y-115237332D01*
X103798016Y-115073459D01*
X103798009Y-115073446D01*
X103699464Y-114925965D01*
X103699461Y-114925961D01*
X103574038Y-114800538D01*
X103574034Y-114800535D01*
X103426553Y-114701990D01*
X103426540Y-114701983D01*
X103262667Y-114634106D01*
X103262658Y-114634103D01*
X103088694Y-114599500D01*
X103088691Y-114599500D01*
X102911309Y-114599500D01*
X102911306Y-114599500D01*
X102737341Y-114634103D01*
X102737332Y-114634106D01*
X102573459Y-114701983D01*
X102573446Y-114701990D01*
X102425965Y-114800535D01*
X102425961Y-114800538D01*
X102300538Y-114925961D01*
X102300535Y-114925965D01*
X102201990Y-115073446D01*
X102201983Y-115073459D01*
X102134106Y-115237332D01*
X102134103Y-115237341D01*
X102099500Y-115411304D01*
X102099500Y-115588695D01*
X102134103Y-115762658D01*
X102134106Y-115762667D01*
X102201984Y-115926542D01*
X102201985Y-115926543D01*
X102201987Y-115926547D01*
X102228602Y-115966378D01*
X102249480Y-116033055D01*
X102249500Y-116035269D01*
X102249500Y-127137770D01*
X102229815Y-127204809D01*
X102213181Y-127225451D01*
X93975451Y-135463181D01*
X93914128Y-135496666D01*
X93887770Y-135499500D01*
X89862229Y-135499500D01*
X89795190Y-135479815D01*
X89774548Y-135463181D01*
X78586819Y-124275451D01*
X78553334Y-124214128D01*
X78550500Y-124187770D01*
X78550500Y-94071153D01*
X85949500Y-94071153D01*
X85949500Y-94228846D01*
X85980261Y-94383489D01*
X85980264Y-94383501D01*
X86040602Y-94529172D01*
X86040606Y-94529179D01*
X86078602Y-94586044D01*
X86099480Y-94652721D01*
X86099500Y-94654935D01*
X86099500Y-98745064D01*
X86079815Y-98812103D01*
X86078603Y-98813954D01*
X86040608Y-98870817D01*
X86040602Y-98870828D01*
X85980264Y-99016498D01*
X85980261Y-99016510D01*
X85949500Y-99171153D01*
X85949500Y-99328846D01*
X85980261Y-99483489D01*
X85980264Y-99483501D01*
X86040602Y-99629172D01*
X86040609Y-99629185D01*
X86128210Y-99760288D01*
X86128213Y-99760292D01*
X86239707Y-99871786D01*
X86239711Y-99871789D01*
X86370814Y-99959390D01*
X86370827Y-99959397D01*
X86516498Y-100019735D01*
X86516503Y-100019737D01*
X86671153Y-100050499D01*
X86671156Y-100050500D01*
X86671158Y-100050500D01*
X86828844Y-100050500D01*
X86828845Y-100050499D01*
X86983497Y-100019737D01*
X87129179Y-99959394D01*
X87260289Y-99871789D01*
X87371789Y-99760289D01*
X87459394Y-99629179D01*
X87519737Y-99483497D01*
X87550500Y-99328842D01*
X87550500Y-99171158D01*
X87550500Y-99171155D01*
X87550499Y-99171153D01*
X87519738Y-99016510D01*
X87519737Y-99016503D01*
X87459394Y-98870821D01*
X87421396Y-98813953D01*
X87400520Y-98747276D01*
X87400500Y-98745064D01*
X87400500Y-94654935D01*
X87420185Y-94587896D01*
X87421366Y-94586090D01*
X87459394Y-94529179D01*
X87519737Y-94383497D01*
X87550500Y-94228842D01*
X87550500Y-94071158D01*
X87550500Y-94071155D01*
X87550499Y-94071153D01*
X87519738Y-93916510D01*
X87519737Y-93916503D01*
X87519735Y-93916498D01*
X87459397Y-93770827D01*
X87459390Y-93770814D01*
X87371789Y-93639711D01*
X87371786Y-93639707D01*
X87260292Y-93528213D01*
X87260288Y-93528210D01*
X87129185Y-93440609D01*
X87129172Y-93440602D01*
X86983501Y-93380264D01*
X86983489Y-93380261D01*
X86828845Y-93349500D01*
X86828842Y-93349500D01*
X86671158Y-93349500D01*
X86671155Y-93349500D01*
X86516510Y-93380261D01*
X86516498Y-93380264D01*
X86370827Y-93440602D01*
X86370814Y-93440609D01*
X86239711Y-93528210D01*
X86239707Y-93528213D01*
X86128213Y-93639707D01*
X86128210Y-93639711D01*
X86040609Y-93770814D01*
X86040602Y-93770827D01*
X85980264Y-93916498D01*
X85980261Y-93916510D01*
X85949500Y-94071153D01*
X78550500Y-94071153D01*
X78550500Y-92062228D01*
X78570185Y-91995189D01*
X78586814Y-91974552D01*
X87652190Y-82909175D01*
X87713513Y-82875691D01*
X87715609Y-82875254D01*
X87762666Y-82865894D01*
X87926547Y-82798013D01*
X88074035Y-82699464D01*
X88199464Y-82574035D01*
X88298013Y-82426547D01*
X88365894Y-82262666D01*
X88370932Y-82237341D01*
X88400499Y-82088695D01*
X88400500Y-82088693D01*
X88400500Y-82070807D01*
X88420185Y-82003768D01*
X88436819Y-81983126D01*
X90005273Y-80414672D01*
X90005276Y-80414669D01*
X90076465Y-80308127D01*
X90125501Y-80189744D01*
X90128539Y-80174467D01*
X90128540Y-80174467D01*
X90128540Y-80174464D01*
X90150500Y-80064069D01*
X90150500Y-78723362D01*
X90170185Y-78656323D01*
X90222989Y-78610568D01*
X90292147Y-78600624D01*
X90355703Y-78629649D01*
X90362181Y-78635681D01*
X90425961Y-78699461D01*
X90425965Y-78699464D01*
X90573446Y-78798009D01*
X90573459Y-78798016D01*
X90660426Y-78834038D01*
X90737334Y-78865894D01*
X90737336Y-78865894D01*
X90737341Y-78865896D01*
X90911304Y-78900499D01*
X90911307Y-78900500D01*
X90911309Y-78900500D01*
X91088693Y-78900500D01*
X91088694Y-78900499D01*
X91146682Y-78888964D01*
X91262658Y-78865896D01*
X91262661Y-78865894D01*
X91262666Y-78865894D01*
X91426547Y-78798013D01*
X91574035Y-78699464D01*
X91699464Y-78574035D01*
X91798013Y-78426547D01*
X91865894Y-78262666D01*
X91870366Y-78240187D01*
X91900499Y-78088695D01*
X91900500Y-78088693D01*
X91900500Y-77911306D01*
X91900499Y-77911304D01*
X91865896Y-77737341D01*
X91865893Y-77737332D01*
X91798016Y-77573459D01*
X91798009Y-77573446D01*
X91699464Y-77425965D01*
X91699461Y-77425961D01*
X91686819Y-77413319D01*
X91653334Y-77351996D01*
X91650500Y-77325638D01*
X91650500Y-75320808D01*
X91670185Y-75253769D01*
X91686819Y-75233127D01*
X93483127Y-73436819D01*
X93544450Y-73403334D01*
X93551191Y-73402061D01*
X93560934Y-73400500D01*
X93588691Y-73400500D01*
X93703606Y-73377641D01*
X93705883Y-73377277D01*
X93738331Y-73381411D01*
X93770900Y-73384326D01*
X93772803Y-73385804D01*
X93775193Y-73386109D01*
X93800254Y-73407129D01*
X93826077Y-73427189D01*
X93826878Y-73429459D01*
X93828725Y-73431009D01*
X93838444Y-73462244D01*
X93849322Y-73493078D01*
X93849443Y-73497592D01*
X93849484Y-73497724D01*
X93849449Y-73497847D01*
X93849500Y-73499716D01*
X93849500Y-81825638D01*
X93829815Y-81892677D01*
X93813181Y-81913319D01*
X93800538Y-81925961D01*
X93800535Y-81925965D01*
X93701990Y-82073446D01*
X93701983Y-82073459D01*
X93634106Y-82237332D01*
X93634103Y-82237341D01*
X93599500Y-82411304D01*
X93599500Y-82588695D01*
X93634103Y-82762658D01*
X93634106Y-82762667D01*
X93701983Y-82926540D01*
X93701990Y-82926553D01*
X93800535Y-83074034D01*
X93800538Y-83074038D01*
X93925961Y-83199461D01*
X93925965Y-83199464D01*
X94073446Y-83298009D01*
X94073459Y-83298016D01*
X94196363Y-83348923D01*
X94237334Y-83365894D01*
X94237336Y-83365894D01*
X94237341Y-83365896D01*
X94411304Y-83400499D01*
X94411307Y-83400500D01*
X94411309Y-83400500D01*
X94588693Y-83400500D01*
X94588694Y-83400499D01*
X94646682Y-83388964D01*
X94762658Y-83365896D01*
X94762661Y-83365894D01*
X94762666Y-83365894D01*
X94926547Y-83298013D01*
X94926550Y-83298010D01*
X94926552Y-83298010D01*
X94966378Y-83271399D01*
X95033055Y-83250520D01*
X95035270Y-83250500D01*
X95937324Y-83250500D01*
X96004363Y-83270185D01*
X96050118Y-83322989D01*
X96060062Y-83392147D01*
X96058941Y-83398691D01*
X96049500Y-83446153D01*
X96049500Y-83603846D01*
X96080261Y-83758489D01*
X96080264Y-83758501D01*
X96140602Y-83904172D01*
X96140606Y-83904179D01*
X96178602Y-83961044D01*
X96199480Y-84027721D01*
X96199500Y-84029935D01*
X96199500Y-89195064D01*
X96179815Y-89262103D01*
X96178603Y-89263954D01*
X96140608Y-89320817D01*
X96140602Y-89320828D01*
X96080264Y-89466498D01*
X96080261Y-89466510D01*
X96049500Y-89621153D01*
X96049500Y-89778846D01*
X96080261Y-89933489D01*
X96080264Y-89933501D01*
X96140602Y-90079172D01*
X96140609Y-90079184D01*
X96192343Y-90156609D01*
X96213221Y-90223286D01*
X96194737Y-90290666D01*
X96142758Y-90337357D01*
X96089241Y-90349500D01*
X85174362Y-90349500D01*
X85107323Y-90329815D01*
X85086681Y-90313181D01*
X85074038Y-90300538D01*
X85074034Y-90300535D01*
X84926553Y-90201990D01*
X84926540Y-90201983D01*
X84762667Y-90134106D01*
X84762658Y-90134103D01*
X84588694Y-90099500D01*
X84588691Y-90099500D01*
X84411309Y-90099500D01*
X84411306Y-90099500D01*
X84237341Y-90134103D01*
X84237332Y-90134106D01*
X84073459Y-90201983D01*
X84073446Y-90201990D01*
X83925965Y-90300535D01*
X83925961Y-90300538D01*
X83800538Y-90425961D01*
X83800535Y-90425965D01*
X83701990Y-90573446D01*
X83701983Y-90573459D01*
X83634106Y-90737332D01*
X83634103Y-90737341D01*
X83599500Y-90911304D01*
X83599500Y-91088695D01*
X83634103Y-91262658D01*
X83634106Y-91262667D01*
X83701983Y-91426540D01*
X83701990Y-91426553D01*
X83800535Y-91574034D01*
X83800538Y-91574038D01*
X83925961Y-91699461D01*
X83925965Y-91699464D01*
X84073446Y-91798009D01*
X84073459Y-91798016D01*
X84160158Y-91833927D01*
X84237334Y-91865894D01*
X84237336Y-91865894D01*
X84237341Y-91865896D01*
X84411304Y-91900499D01*
X84411307Y-91900500D01*
X84411309Y-91900500D01*
X84588693Y-91900500D01*
X84588694Y-91900499D01*
X84646682Y-91888964D01*
X84762658Y-91865896D01*
X84762661Y-91865894D01*
X84762666Y-91865894D01*
X84926547Y-91798013D01*
X85074035Y-91699464D01*
X85074038Y-91699461D01*
X85086681Y-91686819D01*
X85148004Y-91653334D01*
X85174362Y-91650500D01*
X89000284Y-91650500D01*
X89067323Y-91670185D01*
X89113078Y-91722989D01*
X89123022Y-91792147D01*
X89121901Y-91798692D01*
X89099500Y-91911306D01*
X89099500Y-92088695D01*
X89134103Y-92262658D01*
X89134106Y-92262667D01*
X89201983Y-92426540D01*
X89201990Y-92426553D01*
X89300534Y-92574033D01*
X89300535Y-92574034D01*
X89300536Y-92574035D01*
X89313180Y-92586679D01*
X89346665Y-92647999D01*
X89349500Y-92674361D01*
X89349500Y-114179192D01*
X89329815Y-114246231D01*
X89313181Y-114266873D01*
X89016873Y-114563181D01*
X88955550Y-114596666D01*
X88929192Y-114599500D01*
X88911306Y-114599500D01*
X88737341Y-114634103D01*
X88737332Y-114634106D01*
X88573459Y-114701983D01*
X88573446Y-114701990D01*
X88425965Y-114800535D01*
X88425961Y-114800538D01*
X88300538Y-114925961D01*
X88300535Y-114925965D01*
X88201990Y-115073446D01*
X88201983Y-115073459D01*
X88134106Y-115237332D01*
X88134103Y-115237341D01*
X88099500Y-115411304D01*
X88099500Y-115588695D01*
X88134103Y-115762658D01*
X88134106Y-115762667D01*
X88201983Y-115926540D01*
X88201990Y-115926553D01*
X88300535Y-116074034D01*
X88300538Y-116074038D01*
X88425961Y-116199461D01*
X88425965Y-116199464D01*
X88573446Y-116298009D01*
X88573459Y-116298016D01*
X88696363Y-116348923D01*
X88737334Y-116365894D01*
X88737336Y-116365894D01*
X88737341Y-116365896D01*
X88911304Y-116400499D01*
X88911307Y-116400500D01*
X88911309Y-116400500D01*
X89088693Y-116400500D01*
X89088694Y-116400499D01*
X89146682Y-116388964D01*
X89262658Y-116365896D01*
X89262661Y-116365894D01*
X89262666Y-116365894D01*
X89426547Y-116298013D01*
X89574035Y-116199464D01*
X89699464Y-116074035D01*
X89798013Y-115926547D01*
X89865894Y-115762666D01*
X89900500Y-115588691D01*
X89900500Y-115570808D01*
X89920185Y-115503769D01*
X89936819Y-115483127D01*
X90505272Y-114914674D01*
X90505277Y-114914669D01*
X90576466Y-114808126D01*
X90618515Y-114706610D01*
X90625501Y-114689744D01*
X90650500Y-114564069D01*
X90650500Y-111674500D01*
X90670185Y-111607461D01*
X90722989Y-111561706D01*
X90774500Y-111550500D01*
X90853844Y-111550500D01*
X90853845Y-111550499D01*
X90970003Y-111527394D01*
X91008488Y-111519739D01*
X91008489Y-111519738D01*
X91008497Y-111519737D01*
X91032155Y-111509937D01*
X91079604Y-111500500D01*
X95670396Y-111500500D01*
X95717844Y-111509937D01*
X95741503Y-111519737D01*
X95741508Y-111519738D01*
X95741511Y-111519739D01*
X95896153Y-111550499D01*
X95896156Y-111550500D01*
X95896158Y-111550500D01*
X96053844Y-111550500D01*
X96201308Y-111521167D01*
X96270900Y-111527394D01*
X96326077Y-111570257D01*
X96349322Y-111636146D01*
X96349500Y-111642784D01*
X96349500Y-125843059D01*
X96329815Y-125910098D01*
X96277011Y-125955853D01*
X96207853Y-125965797D01*
X96144297Y-125936772D01*
X96137819Y-125930740D01*
X96110292Y-125903213D01*
X96110288Y-125903210D01*
X95979185Y-125815609D01*
X95979172Y-125815602D01*
X95833501Y-125755264D01*
X95833489Y-125755261D01*
X95678845Y-125724500D01*
X95678842Y-125724500D01*
X95521158Y-125724500D01*
X95521155Y-125724500D01*
X95366511Y-125755260D01*
X95366506Y-125755262D01*
X95366504Y-125755262D01*
X95366503Y-125755263D01*
X95342844Y-125765062D01*
X95295396Y-125774500D01*
X90804604Y-125774500D01*
X90757155Y-125765062D01*
X90733497Y-125755263D01*
X90733493Y-125755262D01*
X90733488Y-125755260D01*
X90578845Y-125724500D01*
X90578842Y-125724500D01*
X90421158Y-125724500D01*
X90421155Y-125724500D01*
X90266510Y-125755261D01*
X90266498Y-125755264D01*
X90120827Y-125815602D01*
X90120814Y-125815609D01*
X89989711Y-125903210D01*
X89989707Y-125903213D01*
X89878213Y-126014707D01*
X89878210Y-126014711D01*
X89790609Y-126145814D01*
X89790602Y-126145827D01*
X89730264Y-126291498D01*
X89730261Y-126291510D01*
X89699500Y-126446153D01*
X89699500Y-126603846D01*
X89730261Y-126758489D01*
X89730264Y-126758501D01*
X89790602Y-126904172D01*
X89790609Y-126904185D01*
X89878210Y-127035288D01*
X89878213Y-127035292D01*
X89989707Y-127146786D01*
X89989711Y-127146789D01*
X90120814Y-127234390D01*
X90120827Y-127234397D01*
X90220060Y-127275500D01*
X90266503Y-127294737D01*
X90421153Y-127325499D01*
X90421156Y-127325500D01*
X90421158Y-127325500D01*
X90578844Y-127325500D01*
X90578845Y-127325499D01*
X90655152Y-127310320D01*
X90733488Y-127294739D01*
X90733489Y-127294738D01*
X90733497Y-127294737D01*
X90757155Y-127284937D01*
X90804604Y-127275500D01*
X95295396Y-127275500D01*
X95342844Y-127284937D01*
X95366503Y-127294737D01*
X95366508Y-127294738D01*
X95366511Y-127294739D01*
X95521153Y-127325499D01*
X95521156Y-127325500D01*
X95521158Y-127325500D01*
X95678844Y-127325500D01*
X95678845Y-127325499D01*
X95833497Y-127294737D01*
X95979179Y-127234394D01*
X95979184Y-127234390D01*
X95979187Y-127234389D01*
X96036816Y-127195882D01*
X96103493Y-127175003D01*
X96170873Y-127193487D01*
X96217564Y-127245465D01*
X96228741Y-127314435D01*
X96200856Y-127378499D01*
X96193389Y-127386664D01*
X90516873Y-133063181D01*
X90455550Y-133096666D01*
X90429192Y-133099500D01*
X90411306Y-133099500D01*
X90237341Y-133134103D01*
X90237332Y-133134106D01*
X90073459Y-133201983D01*
X90073446Y-133201990D01*
X89925965Y-133300535D01*
X89925961Y-133300538D01*
X89800538Y-133425961D01*
X89800535Y-133425965D01*
X89701990Y-133573446D01*
X89701983Y-133573459D01*
X89634106Y-133737332D01*
X89634103Y-133737341D01*
X89599500Y-133911304D01*
X89599500Y-134088695D01*
X89634103Y-134262658D01*
X89634106Y-134262667D01*
X89701983Y-134426540D01*
X89701990Y-134426553D01*
X89800535Y-134574034D01*
X89800538Y-134574038D01*
X89925961Y-134699461D01*
X89925965Y-134699464D01*
X90073446Y-134798009D01*
X90073459Y-134798016D01*
X90196363Y-134848923D01*
X90237334Y-134865894D01*
X90237336Y-134865894D01*
X90237341Y-134865896D01*
X90411304Y-134900499D01*
X90411307Y-134900500D01*
X90411309Y-134900500D01*
X90588693Y-134900500D01*
X90588694Y-134900499D01*
X90646682Y-134888964D01*
X90762658Y-134865896D01*
X90762661Y-134865894D01*
X90762666Y-134865894D01*
X90926547Y-134798013D01*
X91074035Y-134699464D01*
X91199464Y-134574035D01*
X91298013Y-134426547D01*
X91365894Y-134262666D01*
X91400500Y-134088691D01*
X91400500Y-134070807D01*
X91420185Y-134003768D01*
X91436819Y-133983126D01*
X97505273Y-127914672D01*
X97505276Y-127914669D01*
X97576465Y-127808127D01*
X97625501Y-127689744D01*
X97636511Y-127634394D01*
X97650500Y-127564069D01*
X97650500Y-113922648D01*
X105384500Y-113922648D01*
X105384500Y-114127351D01*
X105416522Y-114329534D01*
X105479781Y-114524223D01*
X105535769Y-114634103D01*
X105570357Y-114701987D01*
X105572715Y-114706613D01*
X105693028Y-114872213D01*
X105837786Y-115016971D01*
X105992749Y-115129556D01*
X106003390Y-115137287D01*
X106119607Y-115196503D01*
X106185776Y-115230218D01*
X106185778Y-115230218D01*
X106185781Y-115230220D01*
X106290137Y-115264127D01*
X106380465Y-115293477D01*
X106481557Y-115309488D01*
X106582648Y-115325500D01*
X106582649Y-115325500D01*
X106787351Y-115325500D01*
X106787352Y-115325500D01*
X106989534Y-115293477D01*
X107184219Y-115230220D01*
X107366610Y-115137287D01*
X107459590Y-115069732D01*
X107532213Y-115016971D01*
X107532215Y-115016968D01*
X107532219Y-115016966D01*
X107676966Y-114872219D01*
X107676968Y-114872215D01*
X107676971Y-114872213D01*
X107729732Y-114799590D01*
X107797287Y-114706610D01*
X107890220Y-114524219D01*
X107953477Y-114329534D01*
X107985500Y-114127352D01*
X107985500Y-113922648D01*
X107953477Y-113720466D01*
X107890220Y-113525781D01*
X107890218Y-113525778D01*
X107890218Y-113525776D01*
X107856503Y-113459607D01*
X107797287Y-113343390D01*
X107789556Y-113332749D01*
X107676971Y-113177786D01*
X107532213Y-113033028D01*
X107366613Y-112912715D01*
X107366612Y-112912714D01*
X107366610Y-112912713D01*
X107309653Y-112883691D01*
X107184223Y-112819781D01*
X106989534Y-112756522D01*
X106814995Y-112728878D01*
X106787352Y-112724500D01*
X106582648Y-112724500D01*
X106558329Y-112728351D01*
X106380465Y-112756522D01*
X106185776Y-112819781D01*
X106003386Y-112912715D01*
X105837786Y-113033028D01*
X105693028Y-113177786D01*
X105572715Y-113343386D01*
X105479781Y-113525776D01*
X105416522Y-113720465D01*
X105384500Y-113922648D01*
X97650500Y-113922648D01*
X97650500Y-93174361D01*
X97670185Y-93107322D01*
X97686816Y-93086682D01*
X97699464Y-93074035D01*
X97798013Y-92926547D01*
X97865894Y-92762666D01*
X97899746Y-92592479D01*
X97932130Y-92530569D01*
X97992846Y-92495995D01*
X98062616Y-92499734D01*
X98109044Y-92528990D01*
X102563181Y-96983127D01*
X102596666Y-97044450D01*
X102599500Y-97070808D01*
X102599500Y-97088695D01*
X102634103Y-97262658D01*
X102634106Y-97262667D01*
X102701983Y-97426540D01*
X102701990Y-97426553D01*
X102800535Y-97574034D01*
X102800538Y-97574038D01*
X102925961Y-97699461D01*
X102925965Y-97699464D01*
X103073446Y-97798009D01*
X103073459Y-97798016D01*
X103112556Y-97814210D01*
X103237334Y-97865894D01*
X103237336Y-97865894D01*
X103237341Y-97865896D01*
X103411304Y-97900499D01*
X103411307Y-97900500D01*
X103411309Y-97900500D01*
X103588693Y-97900500D01*
X103588694Y-97900499D01*
X103646682Y-97888964D01*
X103762658Y-97865896D01*
X103762661Y-97865894D01*
X103762666Y-97865894D01*
X103926547Y-97798013D01*
X104056609Y-97711108D01*
X104123286Y-97690230D01*
X104190666Y-97708714D01*
X104237357Y-97760693D01*
X104249500Y-97814210D01*
X104249500Y-105714729D01*
X104229815Y-105781768D01*
X104228602Y-105783620D01*
X104201988Y-105823449D01*
X104201987Y-105823452D01*
X104134106Y-105987332D01*
X104134103Y-105987341D01*
X104099500Y-106161304D01*
X104099500Y-106338695D01*
X104134103Y-106512658D01*
X104134106Y-106512667D01*
X104201983Y-106676540D01*
X104201990Y-106676553D01*
X104300535Y-106824034D01*
X104300538Y-106824038D01*
X104425961Y-106949461D01*
X104425965Y-106949464D01*
X104573446Y-107048009D01*
X104573459Y-107048016D01*
X104696363Y-107098923D01*
X104737334Y-107115894D01*
X104737336Y-107115894D01*
X104737341Y-107115896D01*
X104911304Y-107150499D01*
X104911307Y-107150500D01*
X104911309Y-107150500D01*
X105088693Y-107150500D01*
X105088694Y-107150499D01*
X105146682Y-107138964D01*
X105262658Y-107115896D01*
X105262661Y-107115894D01*
X105262666Y-107115894D01*
X105426547Y-107048013D01*
X105574035Y-106949464D01*
X105699464Y-106824035D01*
X105798013Y-106676547D01*
X105865894Y-106512666D01*
X105900500Y-106338691D01*
X105900500Y-106287211D01*
X105920185Y-106220172D01*
X105972989Y-106174417D01*
X106042147Y-106164473D01*
X106080793Y-106176726D01*
X106123457Y-106198464D01*
X106185774Y-106230217D01*
X106185777Y-106230217D01*
X106185781Y-106230220D01*
X106320245Y-106273910D01*
X106380465Y-106293477D01*
X106481557Y-106309488D01*
X106582648Y-106325500D01*
X106582649Y-106325500D01*
X106787351Y-106325500D01*
X106787352Y-106325500D01*
X106989534Y-106293477D01*
X107184219Y-106230220D01*
X107366610Y-106137287D01*
X107459590Y-106069732D01*
X107532213Y-106016971D01*
X107532215Y-106016968D01*
X107532219Y-106016966D01*
X107676966Y-105872219D01*
X107676968Y-105872215D01*
X107676971Y-105872213D01*
X107742682Y-105781768D01*
X107797287Y-105706610D01*
X107890220Y-105524219D01*
X107953477Y-105329534D01*
X107985500Y-105127352D01*
X107985500Y-104922648D01*
X107953477Y-104720466D01*
X107890220Y-104525781D01*
X107890218Y-104525778D01*
X107890218Y-104525776D01*
X107856503Y-104459607D01*
X107797287Y-104343390D01*
X107789556Y-104332749D01*
X107676971Y-104177786D01*
X107532213Y-104033028D01*
X107366613Y-103912715D01*
X107366612Y-103912714D01*
X107366610Y-103912713D01*
X107309653Y-103883691D01*
X107184223Y-103819781D01*
X106989534Y-103756522D01*
X106814995Y-103728878D01*
X106787352Y-103724500D01*
X106582648Y-103724500D01*
X106558329Y-103728351D01*
X106380465Y-103756522D01*
X106185776Y-103819781D01*
X106003387Y-103912714D01*
X105947384Y-103953402D01*
X105881577Y-103976881D01*
X105813524Y-103961055D01*
X105764829Y-103910948D01*
X105750500Y-103853083D01*
X105750500Y-96921916D01*
X105770185Y-96854877D01*
X105822989Y-96809122D01*
X105892147Y-96799178D01*
X105947385Y-96821598D01*
X105993191Y-96854877D01*
X106003390Y-96862287D01*
X106119607Y-96921503D01*
X106185776Y-96955218D01*
X106185778Y-96955218D01*
X106185781Y-96955220D01*
X106271670Y-96983127D01*
X106380465Y-97018477D01*
X106481557Y-97034488D01*
X106582648Y-97050500D01*
X106582649Y-97050500D01*
X106787351Y-97050500D01*
X106787352Y-97050500D01*
X106989534Y-97018477D01*
X107184219Y-96955220D01*
X107366610Y-96862287D01*
X107459590Y-96794732D01*
X107532213Y-96741971D01*
X107532215Y-96741968D01*
X107532219Y-96741966D01*
X107676966Y-96597219D01*
X107676968Y-96597215D01*
X107676971Y-96597213D01*
X107746983Y-96500848D01*
X107797287Y-96431610D01*
X107890220Y-96249219D01*
X107953477Y-96054534D01*
X107985500Y-95852352D01*
X107985500Y-95647648D01*
X107953477Y-95445466D01*
X107890220Y-95250781D01*
X107890218Y-95250778D01*
X107890218Y-95250776D01*
X107839124Y-95150500D01*
X107797287Y-95068390D01*
X107789556Y-95057749D01*
X107676971Y-94902786D01*
X107532213Y-94758028D01*
X107366613Y-94637715D01*
X107366612Y-94637714D01*
X107366610Y-94637713D01*
X107268839Y-94587896D01*
X107184223Y-94544781D01*
X106989534Y-94481522D01*
X106814995Y-94453878D01*
X106787352Y-94449500D01*
X106582648Y-94449500D01*
X106558329Y-94453351D01*
X106380465Y-94481522D01*
X106185776Y-94544781D01*
X106003387Y-94637714D01*
X105947384Y-94678402D01*
X105881577Y-94701881D01*
X105813524Y-94686055D01*
X105764829Y-94635948D01*
X105750500Y-94578083D01*
X105750500Y-87426079D01*
X105721659Y-87281092D01*
X105721658Y-87281091D01*
X105721658Y-87281087D01*
X105665084Y-87144505D01*
X105632186Y-87095270D01*
X105632185Y-87095268D01*
X105582956Y-87021589D01*
X105582952Y-87021584D01*
X100478421Y-81917052D01*
X100478414Y-81917046D01*
X100404729Y-81867812D01*
X100404729Y-81867813D01*
X100355491Y-81834913D01*
X100218917Y-81778343D01*
X100218907Y-81778340D01*
X100073920Y-81749500D01*
X100073918Y-81749500D01*
X95274500Y-81749500D01*
X95207461Y-81729815D01*
X95161706Y-81677011D01*
X95150500Y-81625500D01*
X95150500Y-63674361D01*
X95170185Y-63607322D01*
X95186816Y-63586682D01*
X95199464Y-63574035D01*
X95298013Y-63426547D01*
X95365894Y-63262666D01*
X95400500Y-63088691D01*
X95400500Y-62911309D01*
X95400500Y-62911306D01*
X95400499Y-62911304D01*
X95365896Y-62737341D01*
X95365893Y-62737332D01*
X95298016Y-62573459D01*
X95298009Y-62573446D01*
X95199464Y-62425965D01*
X95199461Y-62425961D01*
X95074038Y-62300538D01*
X95074034Y-62300535D01*
X94926553Y-62201990D01*
X94926540Y-62201983D01*
X94762667Y-62134106D01*
X94762658Y-62134103D01*
X94588694Y-62099500D01*
X94588691Y-62099500D01*
X94411309Y-62099500D01*
X94411306Y-62099500D01*
X94237341Y-62134103D01*
X94237332Y-62134106D01*
X94073459Y-62201983D01*
X94073446Y-62201990D01*
X93925965Y-62300535D01*
X93925961Y-62300538D01*
X93800538Y-62425961D01*
X93800535Y-62425965D01*
X93701990Y-62573446D01*
X93701983Y-62573459D01*
X93634106Y-62737332D01*
X93634103Y-62737341D01*
X93599500Y-62911304D01*
X93599500Y-63088695D01*
X93634103Y-63262658D01*
X93634106Y-63262667D01*
X93701983Y-63426540D01*
X93701990Y-63426553D01*
X93800534Y-63574033D01*
X93800535Y-63574034D01*
X93800536Y-63574035D01*
X93813180Y-63586679D01*
X93846665Y-63647999D01*
X93849500Y-63674361D01*
X93849500Y-71500283D01*
X93829815Y-71567322D01*
X93777011Y-71613077D01*
X93707853Y-71623021D01*
X93701309Y-71621900D01*
X93588695Y-71599500D01*
X93588691Y-71599500D01*
X93411309Y-71599500D01*
X93411306Y-71599500D01*
X93237341Y-71634103D01*
X93237332Y-71634106D01*
X93073459Y-71701983D01*
X93073446Y-71701990D01*
X92925965Y-71800535D01*
X92925961Y-71800538D01*
X92837681Y-71888819D01*
X92776358Y-71922304D01*
X92706666Y-71917320D01*
X92662319Y-71888819D01*
X92574038Y-71800538D01*
X92574034Y-71800535D01*
X92426553Y-71701990D01*
X92426540Y-71701983D01*
X92262667Y-71634106D01*
X92262658Y-71634103D01*
X92088694Y-71599500D01*
X92088691Y-71599500D01*
X91911309Y-71599500D01*
X91911306Y-71599500D01*
X91737341Y-71634103D01*
X91737332Y-71634106D01*
X91573459Y-71701983D01*
X91573446Y-71701990D01*
X91425965Y-71800535D01*
X91425961Y-71800538D01*
X91362181Y-71864319D01*
X91300858Y-71897804D01*
X91231166Y-71892820D01*
X91175233Y-71850948D01*
X91150816Y-71785484D01*
X91150500Y-71776638D01*
X91150500Y-60320808D01*
X91170185Y-60253769D01*
X91186819Y-60233127D01*
X92542819Y-58877127D01*
X92604142Y-58843642D01*
X92673834Y-58848626D01*
X92729767Y-58890498D01*
X92754184Y-58955962D01*
X92754500Y-58964808D01*
X92754500Y-59420638D01*
X92734815Y-59487677D01*
X92718181Y-59508319D01*
X92705538Y-59520961D01*
X92705535Y-59520965D01*
X92606990Y-59668446D01*
X92606983Y-59668459D01*
X92539106Y-59832332D01*
X92539103Y-59832341D01*
X92504500Y-60006304D01*
X92504500Y-60183695D01*
X92539103Y-60357658D01*
X92539106Y-60357667D01*
X92606983Y-60521540D01*
X92606990Y-60521553D01*
X92705535Y-60669034D01*
X92705538Y-60669038D01*
X92830961Y-60794461D01*
X92830965Y-60794464D01*
X92978446Y-60893009D01*
X92978459Y-60893016D01*
X93101363Y-60943923D01*
X93142334Y-60960894D01*
X93142336Y-60960894D01*
X93142341Y-60960896D01*
X93316304Y-60995499D01*
X93316307Y-60995500D01*
X93316309Y-60995500D01*
X93493693Y-60995500D01*
X93493694Y-60995499D01*
X93551682Y-60983964D01*
X93667658Y-60960896D01*
X93667661Y-60960894D01*
X93667666Y-60960894D01*
X93831547Y-60893013D01*
X93979035Y-60794464D01*
X94104464Y-60669035D01*
X94203013Y-60521547D01*
X94270894Y-60357666D01*
X94305500Y-60183691D01*
X94305500Y-60006309D01*
X94305500Y-60006306D01*
X94305499Y-60006304D01*
X94270896Y-59832341D01*
X94270893Y-59832332D01*
X94203016Y-59668459D01*
X94203009Y-59668446D01*
X94104464Y-59520965D01*
X94104461Y-59520961D01*
X94091819Y-59508319D01*
X94058334Y-59446996D01*
X94055500Y-59420638D01*
X94055500Y-59024500D01*
X94075185Y-58957461D01*
X94127989Y-58911706D01*
X94179500Y-58900500D01*
X96429192Y-58900500D01*
X96496231Y-58920185D01*
X96516873Y-58936819D01*
X96713181Y-59133127D01*
X96746666Y-59194450D01*
X96749500Y-59220808D01*
X96749500Y-77464070D01*
X96756106Y-77497276D01*
X96771257Y-77573446D01*
X96771857Y-77576459D01*
X96771857Y-77576468D01*
X96771859Y-77576468D01*
X96774499Y-77589745D01*
X96823533Y-77708125D01*
X96894726Y-77814673D01*
X96903342Y-77823289D01*
X96936827Y-77884612D01*
X96931843Y-77954304D01*
X96930223Y-77958420D01*
X96914107Y-77997328D01*
X96914104Y-77997336D01*
X96879500Y-78171304D01*
X96879500Y-78348695D01*
X96914103Y-78522658D01*
X96914106Y-78522667D01*
X96981983Y-78686540D01*
X96981990Y-78686553D01*
X97080535Y-78834034D01*
X97080538Y-78834038D01*
X97205961Y-78959461D01*
X97205965Y-78959464D01*
X97353446Y-79058009D01*
X97353459Y-79058016D01*
X97476363Y-79108923D01*
X97517334Y-79125894D01*
X97517336Y-79125894D01*
X97517341Y-79125896D01*
X97691304Y-79160499D01*
X97691307Y-79160500D01*
X97691309Y-79160500D01*
X97868693Y-79160500D01*
X97868694Y-79160499D01*
X97926682Y-79148964D01*
X98042658Y-79125896D01*
X98042661Y-79125894D01*
X98042666Y-79125894D01*
X98206547Y-79058013D01*
X98354035Y-78959464D01*
X98479464Y-78834035D01*
X98578013Y-78686547D01*
X98645894Y-78522666D01*
X98648356Y-78510292D01*
X98674434Y-78379185D01*
X98680500Y-78348691D01*
X98680500Y-78171309D01*
X98680500Y-78171306D01*
X98680499Y-78171304D01*
X98645896Y-77997341D01*
X98645893Y-77997332D01*
X98645891Y-77997328D01*
X98610262Y-77911309D01*
X98578016Y-77833459D01*
X98578009Y-77833446D01*
X98479464Y-77685965D01*
X98479461Y-77685961D01*
X98436933Y-77643434D01*
X98408314Y-77595684D01*
X98407832Y-77595884D01*
X98406485Y-77592633D01*
X98405950Y-77591740D01*
X98405503Y-77590268D01*
X98405501Y-77590256D01*
X98380542Y-77529999D01*
X98356468Y-77471879D01*
X98356461Y-77471866D01*
X98285277Y-77365332D01*
X98240753Y-77320808D01*
X98194669Y-77274724D01*
X98086818Y-77166872D01*
X98053334Y-77105549D01*
X98050500Y-77079191D01*
X98050500Y-74589808D01*
X98070185Y-74522769D01*
X98122989Y-74477014D01*
X98192147Y-74467070D01*
X98255703Y-74496095D01*
X98262181Y-74502127D01*
X105387862Y-81627808D01*
X105421347Y-81689131D01*
X105422654Y-81734886D01*
X105394500Y-81912647D01*
X105394500Y-82117351D01*
X105426522Y-82319534D01*
X105489781Y-82514223D01*
X105582715Y-82696613D01*
X105703028Y-82862213D01*
X105847786Y-83006971D01*
X105940094Y-83074035D01*
X106013390Y-83127287D01*
X106129607Y-83186503D01*
X106195776Y-83220218D01*
X106195778Y-83220218D01*
X106195781Y-83220220D01*
X106288973Y-83250500D01*
X106390465Y-83283477D01*
X106441139Y-83291503D01*
X106592648Y-83315500D01*
X106592649Y-83315500D01*
X106797351Y-83315500D01*
X106797352Y-83315500D01*
X106999534Y-83283477D01*
X107194219Y-83220220D01*
X107376610Y-83127287D01*
X107469590Y-83059732D01*
X107542213Y-83006971D01*
X107542215Y-83006968D01*
X107542219Y-83006966D01*
X107686966Y-82862219D01*
X107686968Y-82862215D01*
X107686971Y-82862213D01*
X107759295Y-82762666D01*
X107807287Y-82696610D01*
X107900220Y-82514219D01*
X107963477Y-82319534D01*
X107995500Y-82117352D01*
X107995500Y-81912648D01*
X107974227Y-81778340D01*
X107963477Y-81710465D01*
X107900218Y-81515776D01*
X107854454Y-81425961D01*
X107807287Y-81333390D01*
X107783419Y-81300538D01*
X107686971Y-81167786D01*
X107542219Y-81023034D01*
X107448547Y-80954978D01*
X107405882Y-80899649D01*
X107399903Y-80830036D01*
X107432508Y-80768240D01*
X107482426Y-80736955D01*
X107564334Y-80709814D01*
X107713656Y-80617712D01*
X107837712Y-80493656D01*
X107929814Y-80344334D01*
X107984999Y-80177797D01*
X107995500Y-80075009D01*
X107995499Y-78874992D01*
X107984999Y-78772203D01*
X107929814Y-78605666D01*
X107837712Y-78456344D01*
X107713656Y-78332288D01*
X107564334Y-78240186D01*
X107397797Y-78185001D01*
X107397795Y-78185000D01*
X107295010Y-78174500D01*
X106094998Y-78174500D01*
X106094981Y-78174501D01*
X105992203Y-78185000D01*
X105992200Y-78185001D01*
X105825668Y-78240185D01*
X105825663Y-78240187D01*
X105676342Y-78332289D01*
X105552289Y-78456342D01*
X105460187Y-78605663D01*
X105460185Y-78605668D01*
X105454844Y-78621786D01*
X105405001Y-78772203D01*
X105405001Y-78772204D01*
X105405000Y-78772204D01*
X105394500Y-78874983D01*
X105394500Y-79495192D01*
X105374815Y-79562231D01*
X105322011Y-79607986D01*
X105252853Y-79617930D01*
X105189297Y-79588905D01*
X105182819Y-79582873D01*
X99136819Y-73536873D01*
X99122115Y-73509945D01*
X99105523Y-73484127D01*
X99104631Y-73477926D01*
X99103334Y-73475550D01*
X99100500Y-73449192D01*
X99100500Y-73249500D01*
X99120185Y-73182461D01*
X99172989Y-73136706D01*
X99224500Y-73125500D01*
X99363693Y-73125500D01*
X99363694Y-73125499D01*
X99436421Y-73111033D01*
X99537658Y-73090896D01*
X99537661Y-73090894D01*
X99537666Y-73090894D01*
X99701547Y-73023013D01*
X99849035Y-72924464D01*
X99849038Y-72924461D01*
X99861681Y-72911819D01*
X99923004Y-72878334D01*
X99949362Y-72875500D01*
X100769070Y-72875500D01*
X100807361Y-72867883D01*
X100831554Y-72865500D01*
X105496929Y-72865500D01*
X105563968Y-72885185D01*
X105597245Y-72916613D01*
X105674552Y-73023016D01*
X105703034Y-73062219D01*
X105847786Y-73206971D01*
X106002749Y-73319556D01*
X106013390Y-73327287D01*
X106129607Y-73386503D01*
X106195776Y-73420218D01*
X106195778Y-73420218D01*
X106195781Y-73420220D01*
X106284948Y-73449192D01*
X106390465Y-73483477D01*
X106481193Y-73497847D01*
X106592648Y-73515500D01*
X106592649Y-73515500D01*
X106797351Y-73515500D01*
X106797352Y-73515500D01*
X106999534Y-73483477D01*
X107194219Y-73420220D01*
X107376610Y-73327287D01*
X107469590Y-73259732D01*
X107542213Y-73206971D01*
X107542215Y-73206968D01*
X107542219Y-73206966D01*
X107686966Y-73062219D01*
X107686968Y-73062215D01*
X107686971Y-73062213D01*
X107785532Y-72926553D01*
X107807287Y-72896610D01*
X107900220Y-72714219D01*
X107963477Y-72519534D01*
X107995500Y-72317352D01*
X107995500Y-72112648D01*
X107963477Y-71910466D01*
X107957743Y-71892820D01*
X107922868Y-71785484D01*
X107900220Y-71715781D01*
X107900218Y-71715778D01*
X107900218Y-71715776D01*
X107852385Y-71621900D01*
X107807287Y-71533390D01*
X107729984Y-71426990D01*
X107686971Y-71367786D01*
X107542219Y-71223034D01*
X107511203Y-71200500D01*
X107448547Y-71154978D01*
X107405882Y-71099649D01*
X107399903Y-71030036D01*
X107432508Y-70968240D01*
X107482426Y-70936955D01*
X107564334Y-70909814D01*
X107713656Y-70817712D01*
X107837712Y-70693656D01*
X107929814Y-70544334D01*
X107984999Y-70377797D01*
X107995500Y-70275009D01*
X107995499Y-69074992D01*
X107984999Y-68972203D01*
X107929814Y-68805666D01*
X107837712Y-68656344D01*
X107713656Y-68532288D01*
X107564334Y-68440186D01*
X107397797Y-68385001D01*
X107397795Y-68385000D01*
X107295010Y-68374500D01*
X106094998Y-68374500D01*
X106094981Y-68374501D01*
X105992203Y-68385000D01*
X105992200Y-68385001D01*
X105825668Y-68440185D01*
X105825663Y-68440187D01*
X105676342Y-68532289D01*
X105552289Y-68656342D01*
X105460187Y-68805663D01*
X105460186Y-68805666D01*
X105405001Y-68972203D01*
X105405001Y-68972204D01*
X105405000Y-68972204D01*
X105394500Y-69074983D01*
X105394500Y-70275001D01*
X105394501Y-70275018D01*
X105405000Y-70377796D01*
X105405001Y-70377799D01*
X105460185Y-70544331D01*
X105460186Y-70544334D01*
X105552288Y-70693656D01*
X105676344Y-70817712D01*
X105825666Y-70909814D01*
X105907570Y-70936954D01*
X105965015Y-70976727D01*
X105991838Y-71041243D01*
X105979523Y-71110018D01*
X105941451Y-71154978D01*
X105847787Y-71223028D01*
X105847782Y-71223032D01*
X105703034Y-71367780D01*
X105660019Y-71426987D01*
X105597246Y-71513386D01*
X105541918Y-71556051D01*
X105496929Y-71564500D01*
X100650930Y-71564500D01*
X100612639Y-71572117D01*
X100588446Y-71574500D01*
X99949362Y-71574500D01*
X99882323Y-71554815D01*
X99861681Y-71538181D01*
X99849038Y-71525538D01*
X99849034Y-71525535D01*
X99701553Y-71426990D01*
X99701540Y-71426983D01*
X99537667Y-71359106D01*
X99537658Y-71359103D01*
X99363694Y-71324500D01*
X99363691Y-71324500D01*
X99224500Y-71324500D01*
X99157461Y-71304815D01*
X99111706Y-71252011D01*
X99100500Y-71200500D01*
X99100500Y-63174361D01*
X99120185Y-63107322D01*
X99136816Y-63086682D01*
X99149464Y-63074035D01*
X99248013Y-62926547D01*
X99315894Y-62762666D01*
X99320932Y-62737341D01*
X99350499Y-62588695D01*
X99350500Y-62588693D01*
X99350500Y-62411306D01*
X99350499Y-62411304D01*
X99315896Y-62237341D01*
X99315893Y-62237332D01*
X99248016Y-62073459D01*
X99248009Y-62073446D01*
X99149464Y-61925965D01*
X99149461Y-61925961D01*
X99024038Y-61800538D01*
X99024034Y-61800535D01*
X98876553Y-61701990D01*
X98876540Y-61701983D01*
X98712667Y-61634106D01*
X98712658Y-61634103D01*
X98538694Y-61599500D01*
X98538691Y-61599500D01*
X98361309Y-61599500D01*
X98361304Y-61599500D01*
X98198691Y-61631846D01*
X98129100Y-61625619D01*
X98073922Y-61582756D01*
X98050678Y-61516866D01*
X98050500Y-61510229D01*
X98050500Y-58835928D01*
X98025502Y-58710261D01*
X98025501Y-58710260D01*
X98025501Y-58710256D01*
X97976465Y-58591873D01*
X97935745Y-58530931D01*
X97935743Y-58530928D01*
X97905279Y-58485333D01*
X97782127Y-58362181D01*
X97748642Y-58300858D01*
X97753626Y-58231166D01*
X97795498Y-58175233D01*
X97860962Y-58150816D01*
X97869808Y-58150500D01*
X101679192Y-58150500D01*
X101746231Y-58170185D01*
X101766873Y-58186819D01*
X105495627Y-61915573D01*
X105529112Y-61976896D01*
X105524128Y-62046588D01*
X105518432Y-62059547D01*
X105489778Y-62115784D01*
X105426523Y-62310461D01*
X105426523Y-62310464D01*
X105394500Y-62512648D01*
X105394500Y-62717351D01*
X105426522Y-62919534D01*
X105489781Y-63114223D01*
X105582715Y-63296613D01*
X105703028Y-63462213D01*
X105847786Y-63606971D01*
X106002749Y-63719556D01*
X106013390Y-63727287D01*
X106129607Y-63786503D01*
X106195776Y-63820218D01*
X106195778Y-63820218D01*
X106195781Y-63820220D01*
X106300137Y-63854127D01*
X106390465Y-63883477D01*
X106491557Y-63899488D01*
X106592648Y-63915500D01*
X106592649Y-63915500D01*
X106797351Y-63915500D01*
X106797352Y-63915500D01*
X106999534Y-63883477D01*
X107194219Y-63820220D01*
X107376610Y-63727287D01*
X107469590Y-63659732D01*
X107542213Y-63606971D01*
X107542215Y-63606968D01*
X107542219Y-63606966D01*
X107686966Y-63462219D01*
X107686968Y-63462215D01*
X107686971Y-63462213D01*
X107739732Y-63389590D01*
X107807287Y-63296610D01*
X107900220Y-63114219D01*
X107963477Y-62919534D01*
X107995500Y-62717352D01*
X107995500Y-62512648D01*
X107979449Y-62411306D01*
X107963477Y-62310465D01*
X107900218Y-62115776D01*
X107864964Y-62046588D01*
X107807287Y-61933390D01*
X107794342Y-61915573D01*
X107686971Y-61767786D01*
X107542219Y-61623034D01*
X107509827Y-61599500D01*
X107448547Y-61554978D01*
X107405882Y-61499649D01*
X107399903Y-61430036D01*
X107432508Y-61368240D01*
X107482426Y-61336955D01*
X107564334Y-61309814D01*
X107713656Y-61217712D01*
X107837712Y-61093656D01*
X107929814Y-60944334D01*
X107984999Y-60777797D01*
X107995500Y-60675009D01*
X107995499Y-59474992D01*
X107995193Y-59472001D01*
X107984999Y-59372203D01*
X107984998Y-59372200D01*
X107929814Y-59205666D01*
X107837712Y-59056344D01*
X107713656Y-58932288D01*
X107620888Y-58875069D01*
X107564336Y-58840187D01*
X107564331Y-58840185D01*
X107551484Y-58835928D01*
X107397797Y-58785001D01*
X107397795Y-58785000D01*
X107295010Y-58774500D01*
X106094998Y-58774500D01*
X106094981Y-58774501D01*
X105992203Y-58785000D01*
X105992200Y-58785001D01*
X105825668Y-58840185D01*
X105825663Y-58840187D01*
X105676342Y-58932289D01*
X105552289Y-59056342D01*
X105460187Y-59205663D01*
X105460186Y-59205666D01*
X105405001Y-59372203D01*
X105405001Y-59372204D01*
X105405000Y-59372204D01*
X105394500Y-59474983D01*
X105394500Y-59675191D01*
X105374815Y-59742230D01*
X105322011Y-59787985D01*
X105252853Y-59797929D01*
X105189297Y-59768904D01*
X105182819Y-59762872D01*
X102414673Y-56994726D01*
X102414669Y-56994723D01*
X102308127Y-56923535D01*
X102189744Y-56874499D01*
X102189738Y-56874497D01*
X102064071Y-56849500D01*
X102064069Y-56849500D01*
X92935931Y-56849500D01*
X92935929Y-56849500D01*
X92810261Y-56874497D01*
X92810255Y-56874499D01*
X92691874Y-56923534D01*
X92585326Y-56994726D01*
X89994724Y-59585328D01*
X89952546Y-59648452D01*
X89952547Y-59648453D01*
X89923534Y-59691874D01*
X89874499Y-59810255D01*
X89874497Y-59810261D01*
X89849500Y-59935928D01*
X89849500Y-71825638D01*
X89829815Y-71892677D01*
X89813181Y-71913319D01*
X89800538Y-71925961D01*
X89800535Y-71925965D01*
X89701990Y-72073446D01*
X89701983Y-72073459D01*
X89634106Y-72237332D01*
X89634103Y-72237341D01*
X89599500Y-72411304D01*
X89599500Y-72588695D01*
X89634103Y-72762658D01*
X89634106Y-72762667D01*
X89701983Y-72926540D01*
X89701990Y-72926553D01*
X89800535Y-73074034D01*
X89800538Y-73074038D01*
X89925961Y-73199461D01*
X89925965Y-73199464D01*
X90072861Y-73297618D01*
X90117666Y-73351230D01*
X90126373Y-73420555D01*
X90096218Y-73483583D01*
X90091651Y-73488401D01*
X88994726Y-74585326D01*
X88923534Y-74691874D01*
X88874499Y-74810255D01*
X88874497Y-74810261D01*
X88849500Y-74935928D01*
X88849500Y-79679192D01*
X88829815Y-79746231D01*
X88813181Y-79766873D01*
X87516873Y-81063181D01*
X87455550Y-81096666D01*
X87429192Y-81099500D01*
X87411306Y-81099500D01*
X87237341Y-81134103D01*
X87237332Y-81134106D01*
X87073459Y-81201983D01*
X87073446Y-81201990D01*
X86925965Y-81300535D01*
X86925961Y-81300538D01*
X86800538Y-81425961D01*
X86800535Y-81425965D01*
X86701990Y-81573446D01*
X86701983Y-81573459D01*
X86634106Y-81737331D01*
X86634104Y-81737337D01*
X86624759Y-81784320D01*
X86592373Y-81846230D01*
X86590823Y-81847808D01*
X77217049Y-91221582D01*
X77189598Y-91262667D01*
X77189597Y-91262668D01*
X77134919Y-91344498D01*
X77134912Y-91344511D01*
X77078343Y-91481082D01*
X77078340Y-91481092D01*
X77049500Y-91626079D01*
X77049500Y-91626082D01*
X77049500Y-124623918D01*
X77049500Y-124623920D01*
X77049499Y-124623920D01*
X77078340Y-124768907D01*
X77078343Y-124768917D01*
X77134914Y-124905492D01*
X77167812Y-124954727D01*
X77167813Y-124954730D01*
X77217046Y-125028414D01*
X77217052Y-125028421D01*
X78157930Y-125969299D01*
X78191415Y-126030622D01*
X78186431Y-126100314D01*
X78144559Y-126156247D01*
X78079095Y-126180664D01*
X78022797Y-126171541D01*
X77983501Y-126155264D01*
X77983489Y-126155261D01*
X77828845Y-126124500D01*
X77828842Y-126124500D01*
X77671158Y-126124500D01*
X77671155Y-126124500D01*
X77516510Y-126155261D01*
X77516498Y-126155264D01*
X77370827Y-126215602D01*
X77370814Y-126215609D01*
X77239711Y-126303210D01*
X77239707Y-126303213D01*
X77128213Y-126414707D01*
X77128210Y-126414711D01*
X77040609Y-126545814D01*
X77040602Y-126545827D01*
X76980264Y-126691498D01*
X76980261Y-126691510D01*
X76949500Y-126846153D01*
X75500500Y-126846153D01*
X75500500Y-83876304D01*
X81134500Y-83876304D01*
X81134500Y-84053695D01*
X81169103Y-84227658D01*
X81169106Y-84227667D01*
X81236983Y-84391540D01*
X81236990Y-84391553D01*
X81335535Y-84539034D01*
X81335538Y-84539038D01*
X81460961Y-84664461D01*
X81460965Y-84664464D01*
X81608446Y-84763009D01*
X81608459Y-84763016D01*
X81731363Y-84813923D01*
X81772334Y-84830894D01*
X81772336Y-84830894D01*
X81772341Y-84830896D01*
X81946304Y-84865499D01*
X81946307Y-84865500D01*
X81946309Y-84865500D01*
X82123693Y-84865500D01*
X82123694Y-84865499D01*
X82181682Y-84853964D01*
X82297658Y-84830896D01*
X82297661Y-84830894D01*
X82297666Y-84830894D01*
X82461547Y-84763013D01*
X82609035Y-84664464D01*
X82734464Y-84539035D01*
X82833013Y-84391547D01*
X82900894Y-84227666D01*
X82935500Y-84053691D01*
X82935500Y-83876309D01*
X82935500Y-83876306D01*
X82935499Y-83876304D01*
X82900896Y-83702341D01*
X82900893Y-83702332D01*
X82833016Y-83538459D01*
X82833009Y-83538446D01*
X82734464Y-83390965D01*
X82734461Y-83390961D01*
X82721819Y-83378319D01*
X82688334Y-83316996D01*
X82685500Y-83290638D01*
X82685500Y-77785808D01*
X82705185Y-77718769D01*
X82721819Y-77698127D01*
X83137819Y-77282127D01*
X83157255Y-77271514D01*
X83173989Y-77257014D01*
X83187320Y-77255097D01*
X83199142Y-77248642D01*
X83221228Y-77250221D01*
X83243147Y-77247070D01*
X83255398Y-77252665D01*
X83268834Y-77253626D01*
X83286560Y-77266896D01*
X83306703Y-77276095D01*
X83313985Y-77287426D01*
X83324767Y-77295498D01*
X83332504Y-77316243D01*
X83344477Y-77334873D01*
X83347628Y-77356791D01*
X83349184Y-77360962D01*
X83349500Y-77369808D01*
X83349500Y-77495064D01*
X83329815Y-77562103D01*
X83328603Y-77563954D01*
X83290608Y-77620817D01*
X83290602Y-77620828D01*
X83230264Y-77766498D01*
X83230261Y-77766510D01*
X83199500Y-77921153D01*
X83199500Y-78078846D01*
X83230261Y-78233489D01*
X83230264Y-78233501D01*
X83290602Y-78379172D01*
X83290609Y-78379185D01*
X83378210Y-78510288D01*
X83378213Y-78510292D01*
X83489707Y-78621786D01*
X83489711Y-78621789D01*
X83620814Y-78709390D01*
X83620827Y-78709397D01*
X83766498Y-78769735D01*
X83766503Y-78769737D01*
X83908635Y-78798009D01*
X83921153Y-78800499D01*
X83921156Y-78800500D01*
X83921158Y-78800500D01*
X84078844Y-78800500D01*
X84078845Y-78800499D01*
X84233497Y-78769737D01*
X84379179Y-78709394D01*
X84510289Y-78621789D01*
X84621789Y-78510289D01*
X84709394Y-78379179D01*
X84769737Y-78233497D01*
X84800500Y-78078842D01*
X84800500Y-77921158D01*
X84800500Y-77921155D01*
X84800499Y-77921153D01*
X84783053Y-77833446D01*
X84769737Y-77766503D01*
X84741415Y-77698127D01*
X84709397Y-77620828D01*
X84709396Y-77620827D01*
X84709394Y-77620821D01*
X84671396Y-77563953D01*
X84665746Y-77545907D01*
X84655523Y-77529999D01*
X84651071Y-77499036D01*
X84650520Y-77497276D01*
X84650500Y-77495064D01*
X84650500Y-77320808D01*
X84670185Y-77253769D01*
X84686819Y-77233127D01*
X88505271Y-73414675D01*
X88505276Y-73414670D01*
X88576465Y-73308127D01*
X88625501Y-73189744D01*
X88628527Y-73174526D01*
X88660910Y-73112616D01*
X88662465Y-73111033D01*
X88665067Y-73108431D01*
X88699464Y-73074035D01*
X88798013Y-72926547D01*
X88804114Y-72911819D01*
X88810413Y-72896610D01*
X88865894Y-72762666D01*
X88900500Y-72588691D01*
X88900500Y-72411309D01*
X88900500Y-72411306D01*
X88900499Y-72411304D01*
X88865896Y-72237341D01*
X88865893Y-72237332D01*
X88798016Y-72073459D01*
X88798009Y-72073446D01*
X88699464Y-71925965D01*
X88699461Y-71925961D01*
X88574038Y-71800538D01*
X88574034Y-71800535D01*
X88426553Y-71701990D01*
X88426540Y-71701983D01*
X88262667Y-71634106D01*
X88262658Y-71634103D01*
X88088694Y-71599500D01*
X88088691Y-71599500D01*
X87911309Y-71599500D01*
X87911306Y-71599500D01*
X87737341Y-71634103D01*
X87737332Y-71634106D01*
X87573459Y-71701983D01*
X87573446Y-71701990D01*
X87568887Y-71705037D01*
X87502208Y-71725912D01*
X87434829Y-71707425D01*
X87431113Y-71705037D01*
X87426553Y-71701990D01*
X87426540Y-71701983D01*
X87262667Y-71634106D01*
X87262658Y-71634103D01*
X87088694Y-71599500D01*
X87088691Y-71599500D01*
X86911309Y-71599500D01*
X86911306Y-71599500D01*
X86737341Y-71634103D01*
X86737332Y-71634106D01*
X86573459Y-71701983D01*
X86573446Y-71701990D01*
X86425965Y-71800535D01*
X86425961Y-71800538D01*
X86300538Y-71925961D01*
X86300535Y-71925965D01*
X86201990Y-72073446D01*
X86201983Y-72073459D01*
X86134106Y-72237332D01*
X86134103Y-72237341D01*
X86099500Y-72411304D01*
X86099500Y-72429191D01*
X86079815Y-72496230D01*
X86063181Y-72516872D01*
X81529727Y-77050325D01*
X81529724Y-77050328D01*
X81496869Y-77099499D01*
X81496870Y-77099500D01*
X81458534Y-77156874D01*
X81409499Y-77275255D01*
X81409497Y-77275261D01*
X81384500Y-77400928D01*
X81384500Y-83290638D01*
X81364815Y-83357677D01*
X81348181Y-83378319D01*
X81335538Y-83390961D01*
X81335535Y-83390965D01*
X81236990Y-83538446D01*
X81236983Y-83538459D01*
X81169106Y-83702332D01*
X81169103Y-83702341D01*
X81134500Y-83876304D01*
X75500500Y-83876304D01*
X75500500Y-55002706D01*
X75500618Y-54997297D01*
X75505796Y-54878711D01*
X78149500Y-54878711D01*
X78149500Y-55121288D01*
X78181161Y-55361785D01*
X78243947Y-55596104D01*
X78336773Y-55820205D01*
X78336776Y-55820212D01*
X78458064Y-56030289D01*
X78458066Y-56030292D01*
X78458067Y-56030293D01*
X78605733Y-56222736D01*
X78605739Y-56222743D01*
X78777256Y-56394260D01*
X78777262Y-56394265D01*
X78969711Y-56541936D01*
X79179788Y-56663224D01*
X79403900Y-56756054D01*
X79638211Y-56818838D01*
X79818586Y-56842584D01*
X79878711Y-56850500D01*
X79878712Y-56850500D01*
X80121289Y-56850500D01*
X80169388Y-56844167D01*
X80361789Y-56818838D01*
X80596100Y-56756054D01*
X80820212Y-56663224D01*
X81030289Y-56541936D01*
X81222738Y-56394265D01*
X81394265Y-56222738D01*
X81541936Y-56030289D01*
X81663224Y-55820212D01*
X81756054Y-55596100D01*
X81818838Y-55361789D01*
X81850500Y-55121288D01*
X81850500Y-54878712D01*
X81849253Y-54869243D01*
X81818838Y-54638214D01*
X81818838Y-54638211D01*
X81756054Y-54403900D01*
X81663224Y-54179788D01*
X81541936Y-53969711D01*
X81394265Y-53777262D01*
X81394260Y-53777256D01*
X81222743Y-53605739D01*
X81222736Y-53605733D01*
X81030293Y-53458067D01*
X81030292Y-53458066D01*
X81030289Y-53458064D01*
X80820212Y-53336776D01*
X80820205Y-53336773D01*
X80596104Y-53243947D01*
X80361785Y-53181161D01*
X80121289Y-53149500D01*
X80121288Y-53149500D01*
X79878712Y-53149500D01*
X79878711Y-53149500D01*
X79638214Y-53181161D01*
X79403895Y-53243947D01*
X79179794Y-53336773D01*
X79179785Y-53336777D01*
X78969706Y-53458067D01*
X78777263Y-53605733D01*
X78777256Y-53605739D01*
X78605739Y-53777256D01*
X78605733Y-53777263D01*
X78458067Y-53969706D01*
X78336777Y-54179785D01*
X78336773Y-54179794D01*
X78243947Y-54403895D01*
X78181161Y-54638214D01*
X78149500Y-54878711D01*
X75505796Y-54878711D01*
X75506209Y-54869244D01*
X75506209Y-54869243D01*
X75510433Y-54772498D01*
X75517386Y-54613228D01*
X75518326Y-54602495D01*
X75568152Y-54224025D01*
X75570025Y-54213405D01*
X75652649Y-53840709D01*
X75655440Y-53830295D01*
X75770230Y-53466227D01*
X75773917Y-53456095D01*
X75920003Y-53103412D01*
X75924561Y-53093638D01*
X76100822Y-52755045D01*
X76106217Y-52745700D01*
X76311325Y-52423744D01*
X76317515Y-52414905D01*
X76549896Y-52112060D01*
X76556834Y-52103791D01*
X76814726Y-51822352D01*
X76822352Y-51814726D01*
X77103791Y-51556834D01*
X77112060Y-51549896D01*
X77414905Y-51317515D01*
X77423744Y-51311325D01*
X77745700Y-51106217D01*
X77755045Y-51100822D01*
X78093638Y-50924561D01*
X78103412Y-50920003D01*
X78456095Y-50773917D01*
X78466227Y-50770230D01*
X78830295Y-50655440D01*
X78840709Y-50652649D01*
X79213405Y-50570025D01*
X79224025Y-50568152D01*
X79602495Y-50518326D01*
X79613226Y-50517386D01*
X79997297Y-50500617D01*
X80002706Y-50500500D01*
X108376000Y-50500500D01*
X108443039Y-50520185D01*
G37*
G04 #@! TD.AperFunction*
G04 #@! TA.AperFunction,Conductor*
G36*
X175002702Y-50500617D02*
G01*
X175386771Y-50517386D01*
X175397506Y-50518326D01*
X175775971Y-50568152D01*
X175786597Y-50570025D01*
X176159284Y-50652648D01*
X176169710Y-50655442D01*
X176533765Y-50770227D01*
X176543911Y-50773920D01*
X176896578Y-50920000D01*
X176906369Y-50924566D01*
X177244942Y-51100816D01*
X177254310Y-51106224D01*
X177576244Y-51311318D01*
X177585105Y-51317523D01*
X177887930Y-51549889D01*
X177896217Y-51556843D01*
X178177635Y-51814715D01*
X178185284Y-51822364D01*
X178443156Y-52103782D01*
X178450110Y-52112069D01*
X178682476Y-52414894D01*
X178688681Y-52423755D01*
X178893775Y-52745689D01*
X178899183Y-52755057D01*
X179075430Y-53093623D01*
X179080002Y-53103427D01*
X179226075Y-53456078D01*
X179229775Y-53466244D01*
X179344554Y-53830278D01*
X179347354Y-53840727D01*
X179429971Y-54213389D01*
X179431849Y-54224042D01*
X179481671Y-54602473D01*
X179482614Y-54613249D01*
X179499382Y-54997297D01*
X179499500Y-55002706D01*
X179499500Y-144997293D01*
X179499382Y-145002702D01*
X179482614Y-145386750D01*
X179481671Y-145397526D01*
X179431849Y-145775957D01*
X179429971Y-145786610D01*
X179347354Y-146159272D01*
X179344554Y-146169721D01*
X179229775Y-146533755D01*
X179226075Y-146543921D01*
X179080002Y-146896572D01*
X179075430Y-146906376D01*
X178899183Y-147244942D01*
X178893775Y-147254310D01*
X178688681Y-147576244D01*
X178682476Y-147585105D01*
X178450110Y-147887930D01*
X178443156Y-147896217D01*
X178185284Y-148177635D01*
X178177635Y-148185284D01*
X177896217Y-148443156D01*
X177887930Y-148450110D01*
X177585105Y-148682476D01*
X177576244Y-148688681D01*
X177254310Y-148893775D01*
X177244942Y-148899183D01*
X176906376Y-149075430D01*
X176896572Y-149080002D01*
X176543921Y-149226075D01*
X176533755Y-149229775D01*
X176169721Y-149344554D01*
X176159272Y-149347354D01*
X175786610Y-149429971D01*
X175775957Y-149431849D01*
X175397526Y-149481671D01*
X175386750Y-149482614D01*
X175002703Y-149499382D01*
X174997294Y-149499500D01*
X112624000Y-149499500D01*
X112556961Y-149479815D01*
X112511206Y-149427011D01*
X112500000Y-149375500D01*
X112500000Y-144878711D01*
X173149500Y-144878711D01*
X173149500Y-145121288D01*
X173181161Y-145361785D01*
X173243947Y-145596104D01*
X173336773Y-145820205D01*
X173336776Y-145820212D01*
X173458064Y-146030289D01*
X173458066Y-146030292D01*
X173458067Y-146030293D01*
X173605733Y-146222736D01*
X173605739Y-146222743D01*
X173777256Y-146394260D01*
X173777262Y-146394265D01*
X173969711Y-146541936D01*
X174179788Y-146663224D01*
X174403900Y-146756054D01*
X174638211Y-146818838D01*
X174818586Y-146842584D01*
X174878711Y-146850500D01*
X174878712Y-146850500D01*
X175121289Y-146850500D01*
X175169388Y-146844167D01*
X175361789Y-146818838D01*
X175596100Y-146756054D01*
X175820212Y-146663224D01*
X176030289Y-146541936D01*
X176222738Y-146394265D01*
X176394265Y-146222738D01*
X176541936Y-146030289D01*
X176663224Y-145820212D01*
X176756054Y-145596100D01*
X176818838Y-145361789D01*
X176850500Y-145121288D01*
X176850500Y-144878712D01*
X176818838Y-144638211D01*
X176756054Y-144403900D01*
X176663224Y-144179788D01*
X176541936Y-143969711D01*
X176394265Y-143777262D01*
X176394260Y-143777256D01*
X176222743Y-143605739D01*
X176222736Y-143605733D01*
X176030293Y-143458067D01*
X176030292Y-143458066D01*
X176030289Y-143458064D01*
X175820212Y-143336776D01*
X175820205Y-143336773D01*
X175596104Y-143243947D01*
X175361785Y-143181161D01*
X175121289Y-143149500D01*
X175121288Y-143149500D01*
X174878712Y-143149500D01*
X174878711Y-143149500D01*
X174638214Y-143181161D01*
X174403895Y-143243947D01*
X174179794Y-143336773D01*
X174179785Y-143336777D01*
X173969706Y-143458067D01*
X173777263Y-143605733D01*
X173777256Y-143605739D01*
X173605739Y-143777256D01*
X173605733Y-143777263D01*
X173458067Y-143969706D01*
X173336777Y-144179785D01*
X173336773Y-144179794D01*
X173243947Y-144403895D01*
X173181161Y-144638214D01*
X173149500Y-144878711D01*
X112500000Y-144878711D01*
X112500000Y-142000000D01*
X112500000Y-140392724D01*
X112947000Y-140392724D01*
X112947000Y-140607275D01*
X112980560Y-140819170D01*
X113046859Y-141023215D01*
X113144258Y-141214368D01*
X113270362Y-141387935D01*
X113422065Y-141539638D01*
X113595632Y-141665742D01*
X113685943Y-141711758D01*
X113786784Y-141763140D01*
X113786786Y-141763140D01*
X113786789Y-141763142D01*
X113896160Y-141798678D01*
X113990829Y-141829439D01*
X114202725Y-141863000D01*
X114202730Y-141863000D01*
X114417275Y-141863000D01*
X114629170Y-141829439D01*
X114833211Y-141763142D01*
X115024368Y-141665742D01*
X115197935Y-141539638D01*
X115349638Y-141387935D01*
X115475742Y-141214368D01*
X115573142Y-141023211D01*
X115639439Y-140819170D01*
X115673000Y-140607275D01*
X115673000Y-140392724D01*
X115639439Y-140180829D01*
X115573140Y-139976784D01*
X115475741Y-139785631D01*
X115349638Y-139612065D01*
X115197935Y-139460362D01*
X115024368Y-139334258D01*
X114833215Y-139236859D01*
X114629170Y-139170560D01*
X114417275Y-139137000D01*
X114417270Y-139137000D01*
X114202730Y-139137000D01*
X114202725Y-139137000D01*
X113990829Y-139170560D01*
X113786784Y-139236859D01*
X113595631Y-139334258D01*
X113496605Y-139406205D01*
X113422065Y-139460362D01*
X113422063Y-139460364D01*
X113422062Y-139460364D01*
X113270364Y-139612062D01*
X113270364Y-139612063D01*
X113270362Y-139612065D01*
X113216205Y-139686605D01*
X113144258Y-139785631D01*
X113046859Y-139976784D01*
X112980560Y-140180829D01*
X112947000Y-140392724D01*
X112500000Y-140392724D01*
X112500000Y-131457093D01*
X168319500Y-131457093D01*
X168319500Y-131642906D01*
X168348568Y-131826435D01*
X168348568Y-131826438D01*
X168405986Y-132003152D01*
X168405988Y-132003155D01*
X168490346Y-132168717D01*
X168599565Y-132319044D01*
X168730956Y-132450435D01*
X168881283Y-132559654D01*
X169046845Y-132644012D01*
X169046847Y-132644013D01*
X169223562Y-132701431D01*
X169223563Y-132701431D01*
X169223566Y-132701432D01*
X169407093Y-132730500D01*
X169407094Y-132730500D01*
X169592906Y-132730500D01*
X169592907Y-132730500D01*
X169776434Y-132701432D01*
X169776437Y-132701431D01*
X169776438Y-132701431D01*
X169953152Y-132644013D01*
X169953152Y-132644012D01*
X169953155Y-132644012D01*
X170118717Y-132559654D01*
X170269044Y-132450435D01*
X170400435Y-132319044D01*
X170509654Y-132168717D01*
X170594012Y-132003155D01*
X170651432Y-131826434D01*
X170680500Y-131642907D01*
X170680500Y-131457093D01*
X170651432Y-131273566D01*
X170651431Y-131273562D01*
X170651431Y-131273561D01*
X170594013Y-131096847D01*
X170509653Y-130931282D01*
X170400435Y-130780956D01*
X170269044Y-130649565D01*
X170118717Y-130540346D01*
X169953152Y-130455986D01*
X169776437Y-130398568D01*
X169638788Y-130376767D01*
X169592907Y-130369500D01*
X169407093Y-130369500D01*
X169345917Y-130379189D01*
X169223564Y-130398568D01*
X169223561Y-130398568D01*
X169046847Y-130455986D01*
X168881282Y-130540346D01*
X168795515Y-130602659D01*
X168730956Y-130649565D01*
X168730954Y-130649567D01*
X168730953Y-130649567D01*
X168599567Y-130780953D01*
X168599567Y-130780954D01*
X168599565Y-130780956D01*
X168552659Y-130845515D01*
X168490346Y-130931282D01*
X168405986Y-131096847D01*
X168348568Y-131273561D01*
X168348568Y-131273564D01*
X168319500Y-131457093D01*
X112500000Y-131457093D01*
X112500000Y-127725727D01*
X129515063Y-127725727D01*
X129515063Y-127911540D01*
X129544131Y-128095069D01*
X129544131Y-128095072D01*
X129601549Y-128271786D01*
X129685909Y-128437351D01*
X129795128Y-128587678D01*
X129926519Y-128719069D01*
X130076846Y-128828288D01*
X130242408Y-128912646D01*
X130242410Y-128912647D01*
X130419125Y-128970065D01*
X130419126Y-128970065D01*
X130419129Y-128970066D01*
X130602656Y-128999134D01*
X130602657Y-128999134D01*
X130788469Y-128999134D01*
X130788470Y-128999134D01*
X130971997Y-128970066D01*
X130972000Y-128970065D01*
X130972001Y-128970065D01*
X131148715Y-128912647D01*
X131148715Y-128912646D01*
X131148718Y-128912646D01*
X131314280Y-128828288D01*
X131464607Y-128719069D01*
X131595998Y-128587678D01*
X131705217Y-128437351D01*
X131789575Y-128271789D01*
X131795721Y-128252873D01*
X131846994Y-128095072D01*
X131846994Y-128095071D01*
X131846995Y-128095068D01*
X131876063Y-127911541D01*
X131876063Y-127725727D01*
X131846995Y-127542200D01*
X131846994Y-127542196D01*
X131846994Y-127542195D01*
X131789576Y-127365481D01*
X131705216Y-127199916D01*
X131595998Y-127049590D01*
X131464607Y-126918199D01*
X131314280Y-126808980D01*
X131240137Y-126771202D01*
X131148715Y-126724620D01*
X130972000Y-126667202D01*
X130962952Y-126665769D01*
X133540063Y-126665769D01*
X133540063Y-128971504D01*
X133540064Y-128971510D01*
X133546471Y-129031117D01*
X133596765Y-129165962D01*
X133596769Y-129165969D01*
X133683015Y-129281178D01*
X133683018Y-129281181D01*
X133798227Y-129367427D01*
X133798234Y-129367431D01*
X133933080Y-129417725D01*
X133933079Y-129417725D01*
X133940007Y-129418469D01*
X133992690Y-129424134D01*
X136298435Y-129424133D01*
X136358046Y-129417725D01*
X136492894Y-129367430D01*
X136608109Y-129281180D01*
X136694359Y-129165965D01*
X136744654Y-129031117D01*
X136751063Y-128971507D01*
X136751062Y-126665762D01*
X136744654Y-126606151D01*
X136694359Y-126471303D01*
X136694358Y-126471302D01*
X136694356Y-126471298D01*
X136608110Y-126356089D01*
X136608107Y-126356086D01*
X136492898Y-126269840D01*
X136492891Y-126269836D01*
X136358045Y-126219542D01*
X136358046Y-126219542D01*
X136298446Y-126213135D01*
X136298444Y-126213134D01*
X136298436Y-126213134D01*
X136298427Y-126213134D01*
X133992692Y-126213134D01*
X133992686Y-126213135D01*
X133933079Y-126219542D01*
X133798234Y-126269836D01*
X133798227Y-126269840D01*
X133683018Y-126356086D01*
X133683015Y-126356089D01*
X133596769Y-126471298D01*
X133596765Y-126471305D01*
X133546471Y-126606151D01*
X133543033Y-126638134D01*
X133540064Y-126665757D01*
X133540063Y-126665769D01*
X130962952Y-126665769D01*
X130834351Y-126645401D01*
X130788470Y-126638134D01*
X130602656Y-126638134D01*
X130541480Y-126647823D01*
X130419127Y-126667202D01*
X130419124Y-126667202D01*
X130242410Y-126724620D01*
X130076845Y-126808980D01*
X129991078Y-126871293D01*
X129926519Y-126918199D01*
X129926517Y-126918201D01*
X129926516Y-126918201D01*
X129795130Y-127049587D01*
X129795130Y-127049588D01*
X129795128Y-127049590D01*
X129748222Y-127114149D01*
X129685909Y-127199916D01*
X129601549Y-127365481D01*
X129544131Y-127542195D01*
X129544131Y-127542198D01*
X129515063Y-127725727D01*
X112500000Y-127725727D01*
X112500000Y-125947135D01*
X167894500Y-125947135D01*
X167894500Y-128252870D01*
X167894501Y-128252876D01*
X167900908Y-128312483D01*
X167951202Y-128447328D01*
X167951206Y-128447335D01*
X168037452Y-128562544D01*
X168037455Y-128562547D01*
X168152664Y-128648793D01*
X168152671Y-128648797D01*
X168287517Y-128699091D01*
X168287516Y-128699091D01*
X168294444Y-128699835D01*
X168347127Y-128705500D01*
X170652872Y-128705499D01*
X170712483Y-128699091D01*
X170847331Y-128648796D01*
X170962546Y-128562546D01*
X171048796Y-128447331D01*
X171099091Y-128312483D01*
X171105500Y-128252873D01*
X171105499Y-125947128D01*
X171099091Y-125887517D01*
X171048796Y-125752669D01*
X171048795Y-125752668D01*
X171048793Y-125752664D01*
X170962547Y-125637455D01*
X170962544Y-125637452D01*
X170847335Y-125551206D01*
X170847328Y-125551202D01*
X170712482Y-125500908D01*
X170712483Y-125500908D01*
X170652883Y-125494501D01*
X170652881Y-125494500D01*
X170652873Y-125494500D01*
X170652864Y-125494500D01*
X168347129Y-125494500D01*
X168347123Y-125494501D01*
X168287516Y-125500908D01*
X168152671Y-125551202D01*
X168152664Y-125551206D01*
X168037455Y-125637452D01*
X168037452Y-125637455D01*
X167951206Y-125752664D01*
X167951202Y-125752671D01*
X167900908Y-125887517D01*
X167894501Y-125947116D01*
X167894501Y-125947123D01*
X167894500Y-125947135D01*
X112500000Y-125947135D01*
X112500000Y-120623638D01*
X167894500Y-120623638D01*
X167894500Y-120876361D01*
X167934032Y-121125956D01*
X168012125Y-121366302D01*
X168126853Y-121591466D01*
X168275393Y-121795913D01*
X168454087Y-121974607D01*
X168658534Y-122123147D01*
X168764916Y-122177351D01*
X168883697Y-122237874D01*
X168883699Y-122237874D01*
X168883702Y-122237876D01*
X169124044Y-122315968D01*
X169252638Y-122336335D01*
X169373639Y-122355500D01*
X169373644Y-122355500D01*
X169626361Y-122355500D01*
X169736665Y-122338028D01*
X169875956Y-122315968D01*
X170116298Y-122237876D01*
X170341466Y-122123147D01*
X170545913Y-121974607D01*
X170724607Y-121795913D01*
X170873147Y-121591466D01*
X170987876Y-121366298D01*
X171065968Y-121125956D01*
X171088028Y-120986665D01*
X171105500Y-120876361D01*
X171105500Y-120623638D01*
X171084534Y-120491272D01*
X171065968Y-120374044D01*
X170987876Y-120133702D01*
X170987874Y-120133699D01*
X170987874Y-120133697D01*
X170873146Y-119908533D01*
X170724607Y-119704087D01*
X170545913Y-119525393D01*
X170341466Y-119376853D01*
X170116302Y-119262125D01*
X169875956Y-119184032D01*
X169626361Y-119144500D01*
X169626356Y-119144500D01*
X169373644Y-119144500D01*
X169373639Y-119144500D01*
X169124043Y-119184032D01*
X168883697Y-119262125D01*
X168658533Y-119376853D01*
X168541889Y-119461600D01*
X168454087Y-119525393D01*
X168454085Y-119525395D01*
X168454084Y-119525395D01*
X168275395Y-119704084D01*
X168275395Y-119704085D01*
X168275393Y-119704087D01*
X168211600Y-119791889D01*
X168126853Y-119908533D01*
X168012125Y-120133697D01*
X167934032Y-120374043D01*
X167894500Y-120623638D01*
X112500000Y-120623638D01*
X112500000Y-111382648D01*
X113004500Y-111382648D01*
X113004500Y-111587352D01*
X113006959Y-111602876D01*
X113036522Y-111789534D01*
X113099781Y-111984223D01*
X113192715Y-112166613D01*
X113313028Y-112332213D01*
X113313034Y-112332219D01*
X113457781Y-112476966D01*
X113551452Y-112545021D01*
X113594117Y-112600350D01*
X113600096Y-112669963D01*
X113567491Y-112731759D01*
X113517571Y-112763045D01*
X113435666Y-112790186D01*
X113435663Y-112790187D01*
X113286342Y-112882289D01*
X113162289Y-113006342D01*
X113070187Y-113155663D01*
X113070186Y-113155666D01*
X113015001Y-113322203D01*
X113015001Y-113322204D01*
X113015000Y-113322204D01*
X113004500Y-113424983D01*
X113004500Y-114625001D01*
X113004501Y-114625018D01*
X113015000Y-114727796D01*
X113015001Y-114727799D01*
X113070185Y-114894331D01*
X113070186Y-114894334D01*
X113162288Y-115043656D01*
X113286344Y-115167712D01*
X113435666Y-115259814D01*
X113602203Y-115314999D01*
X113704991Y-115325500D01*
X114905008Y-115325499D01*
X115007797Y-115314999D01*
X115174334Y-115259814D01*
X115323656Y-115167712D01*
X115447712Y-115043656D01*
X115539814Y-114894334D01*
X115594999Y-114727797D01*
X115605500Y-114625009D01*
X115605499Y-113424992D01*
X115594999Y-113322203D01*
X115539814Y-113155666D01*
X115447712Y-113006344D01*
X115323656Y-112882288D01*
X115174334Y-112790186D01*
X115092427Y-112763044D01*
X115034984Y-112723272D01*
X115008161Y-112658756D01*
X115020476Y-112589980D01*
X115058547Y-112545021D01*
X115152219Y-112476966D01*
X115296966Y-112332219D01*
X115296968Y-112332215D01*
X115296971Y-112332213D01*
X115349732Y-112259590D01*
X115417287Y-112166610D01*
X115510220Y-111984219D01*
X115573477Y-111789534D01*
X115605500Y-111587352D01*
X115605500Y-111382648D01*
X115587093Y-111266431D01*
X115573477Y-111180465D01*
X115510218Y-110985776D01*
X115458382Y-110884044D01*
X115417287Y-110803390D01*
X115409556Y-110792749D01*
X115296971Y-110637786D01*
X115152213Y-110493028D01*
X114986613Y-110372715D01*
X114986612Y-110372714D01*
X114986610Y-110372713D01*
X114929653Y-110343691D01*
X114804223Y-110279781D01*
X114609534Y-110216522D01*
X114434995Y-110188878D01*
X114407352Y-110184500D01*
X114202648Y-110184500D01*
X114178329Y-110188351D01*
X114000465Y-110216522D01*
X113805776Y-110279781D01*
X113623386Y-110372715D01*
X113457786Y-110493028D01*
X113313028Y-110637786D01*
X113192715Y-110803386D01*
X113099781Y-110985776D01*
X113036522Y-111180465D01*
X113011317Y-111339607D01*
X113004500Y-111382648D01*
X112500000Y-111382648D01*
X112500000Y-110022093D01*
X129519500Y-110022093D01*
X129519500Y-110207907D01*
X129520865Y-110216523D01*
X129548568Y-110391435D01*
X129548568Y-110391438D01*
X129605986Y-110568152D01*
X129689113Y-110731298D01*
X129690346Y-110733717D01*
X129799565Y-110884044D01*
X129930956Y-111015435D01*
X130081283Y-111124654D01*
X130246845Y-111209012D01*
X130246847Y-111209013D01*
X130423562Y-111266431D01*
X130423563Y-111266431D01*
X130423566Y-111266432D01*
X130607093Y-111295500D01*
X130607094Y-111295500D01*
X130792906Y-111295500D01*
X130792907Y-111295500D01*
X130976434Y-111266432D01*
X130976437Y-111266431D01*
X130976438Y-111266431D01*
X131153152Y-111209013D01*
X131153152Y-111209012D01*
X131153155Y-111209012D01*
X131318717Y-111124654D01*
X131469044Y-111015435D01*
X131600435Y-110884044D01*
X131709654Y-110733717D01*
X131794012Y-110568155D01*
X131818422Y-110493028D01*
X131851431Y-110391438D01*
X131851431Y-110391437D01*
X131851432Y-110391434D01*
X131880500Y-110207907D01*
X131880500Y-110022093D01*
X131851432Y-109838566D01*
X131851431Y-109838562D01*
X131851431Y-109838561D01*
X131794013Y-109661847D01*
X131794012Y-109661845D01*
X131709654Y-109496283D01*
X131600435Y-109345956D01*
X131469044Y-109214565D01*
X131318717Y-109105346D01*
X131244574Y-109067568D01*
X131153152Y-109020986D01*
X130976437Y-108963568D01*
X130967389Y-108962135D01*
X133544500Y-108962135D01*
X133544500Y-111267870D01*
X133544501Y-111267876D01*
X133550908Y-111327483D01*
X133601202Y-111462328D01*
X133601206Y-111462335D01*
X133687452Y-111577544D01*
X133687455Y-111577547D01*
X133802664Y-111663793D01*
X133802671Y-111663797D01*
X133937517Y-111714091D01*
X133937516Y-111714091D01*
X133944444Y-111714835D01*
X133997127Y-111720500D01*
X136302872Y-111720499D01*
X136362483Y-111714091D01*
X136497331Y-111663796D01*
X136612546Y-111577546D01*
X136698796Y-111462331D01*
X136749091Y-111327483D01*
X136755500Y-111267873D01*
X136755499Y-109988638D01*
X139894500Y-109988638D01*
X139894500Y-110241361D01*
X139934032Y-110490956D01*
X140012125Y-110731302D01*
X140089953Y-110884046D01*
X140126853Y-110956466D01*
X140275393Y-111160913D01*
X140454087Y-111339607D01*
X140658534Y-111488147D01*
X140764916Y-111542351D01*
X140883697Y-111602874D01*
X140883699Y-111602874D01*
X140883702Y-111602876D01*
X141124044Y-111680968D01*
X141252638Y-111701335D01*
X141373639Y-111720500D01*
X141373644Y-111720500D01*
X141626361Y-111720500D01*
X141736665Y-111703028D01*
X141875956Y-111680968D01*
X142116298Y-111602876D01*
X142341466Y-111488147D01*
X142545913Y-111339607D01*
X142724607Y-111160913D01*
X142873147Y-110956466D01*
X142987876Y-110731298D01*
X143065968Y-110490956D01*
X143088028Y-110351665D01*
X143105500Y-110241361D01*
X143105500Y-109988638D01*
X143081730Y-109838561D01*
X143065968Y-109739044D01*
X142987876Y-109498702D01*
X142987874Y-109498699D01*
X142987874Y-109498697D01*
X142873146Y-109273533D01*
X142724607Y-109069087D01*
X142545913Y-108890393D01*
X142341466Y-108741853D01*
X142116302Y-108627125D01*
X141875956Y-108549032D01*
X141626361Y-108509500D01*
X141626356Y-108509500D01*
X141373644Y-108509500D01*
X141373639Y-108509500D01*
X141124043Y-108549032D01*
X140883697Y-108627125D01*
X140658533Y-108741853D01*
X140541889Y-108826600D01*
X140454087Y-108890393D01*
X140454085Y-108890395D01*
X140454084Y-108890395D01*
X140275395Y-109069084D01*
X140275395Y-109069085D01*
X140275393Y-109069087D01*
X140211600Y-109156889D01*
X140126853Y-109273533D01*
X140012125Y-109498697D01*
X139934032Y-109739043D01*
X139894500Y-109988638D01*
X136755499Y-109988638D01*
X136755499Y-108962128D01*
X136749091Y-108902517D01*
X136698796Y-108767669D01*
X136698795Y-108767668D01*
X136698793Y-108767664D01*
X136612547Y-108652455D01*
X136612544Y-108652452D01*
X136497335Y-108566206D01*
X136497328Y-108566202D01*
X136362482Y-108515908D01*
X136362483Y-108515908D01*
X136302883Y-108509501D01*
X136302881Y-108509500D01*
X136302873Y-108509500D01*
X136302864Y-108509500D01*
X133997129Y-108509500D01*
X133997123Y-108509501D01*
X133937516Y-108515908D01*
X133802671Y-108566202D01*
X133802664Y-108566206D01*
X133687455Y-108652452D01*
X133687452Y-108652455D01*
X133601206Y-108767664D01*
X133601202Y-108767671D01*
X133550908Y-108902517D01*
X133547470Y-108934500D01*
X133544501Y-108962123D01*
X133544500Y-108962135D01*
X130967389Y-108962135D01*
X130838788Y-108941767D01*
X130792907Y-108934500D01*
X130607093Y-108934500D01*
X130545917Y-108944189D01*
X130423564Y-108963568D01*
X130423561Y-108963568D01*
X130246847Y-109020986D01*
X130081282Y-109105346D01*
X129995515Y-109167659D01*
X129930956Y-109214565D01*
X129930954Y-109214567D01*
X129930953Y-109214567D01*
X129799567Y-109345953D01*
X129799567Y-109345954D01*
X129799565Y-109345956D01*
X129752659Y-109410515D01*
X129690346Y-109496282D01*
X129605986Y-109661847D01*
X129548568Y-109838561D01*
X129548568Y-109838564D01*
X129548568Y-109838566D01*
X129519500Y-110022093D01*
X112500000Y-110022093D01*
X112500000Y-102382648D01*
X113004500Y-102382648D01*
X113004500Y-102587351D01*
X113036522Y-102789534D01*
X113099781Y-102984223D01*
X113192715Y-103166613D01*
X113313028Y-103332213D01*
X113313034Y-103332219D01*
X113457781Y-103476966D01*
X113551452Y-103545021D01*
X113594117Y-103600350D01*
X113600096Y-103669963D01*
X113567491Y-103731759D01*
X113517571Y-103763045D01*
X113435666Y-103790186D01*
X113435663Y-103790187D01*
X113286342Y-103882289D01*
X113162289Y-104006342D01*
X113070187Y-104155663D01*
X113070186Y-104155666D01*
X113015001Y-104322203D01*
X113015001Y-104322204D01*
X113015000Y-104322204D01*
X113004500Y-104424983D01*
X113004500Y-105625001D01*
X113004501Y-105625018D01*
X113015000Y-105727796D01*
X113015001Y-105727799D01*
X113070185Y-105894331D01*
X113070187Y-105894336D01*
X113088868Y-105924622D01*
X113162288Y-106043656D01*
X113286344Y-106167712D01*
X113435666Y-106259814D01*
X113602203Y-106314999D01*
X113704991Y-106325500D01*
X114905008Y-106325499D01*
X115007797Y-106314999D01*
X115174334Y-106259814D01*
X115323656Y-106167712D01*
X115447712Y-106043656D01*
X115477974Y-105994593D01*
X168319500Y-105994593D01*
X168319500Y-106180406D01*
X168348568Y-106363935D01*
X168348568Y-106363938D01*
X168405986Y-106540652D01*
X168405988Y-106540655D01*
X168490346Y-106706217D01*
X168599565Y-106856544D01*
X168730956Y-106987935D01*
X168881283Y-107097154D01*
X169046845Y-107181512D01*
X169046847Y-107181513D01*
X169223562Y-107238931D01*
X169223563Y-107238931D01*
X169223566Y-107238932D01*
X169407093Y-107268000D01*
X169407094Y-107268000D01*
X169592906Y-107268000D01*
X169592907Y-107268000D01*
X169776434Y-107238932D01*
X169776437Y-107238931D01*
X169776438Y-107238931D01*
X169953152Y-107181513D01*
X169953152Y-107181512D01*
X169953155Y-107181512D01*
X170118717Y-107097154D01*
X170269044Y-106987935D01*
X170400435Y-106856544D01*
X170509654Y-106706217D01*
X170594012Y-106540655D01*
X170651432Y-106363934D01*
X170680500Y-106180407D01*
X170680500Y-105994593D01*
X170651432Y-105811066D01*
X170651431Y-105811062D01*
X170651431Y-105811061D01*
X170594013Y-105634347D01*
X170509653Y-105468782D01*
X170400435Y-105318456D01*
X170269044Y-105187065D01*
X170118717Y-105077846D01*
X169953152Y-104993486D01*
X169776437Y-104936068D01*
X169638788Y-104914267D01*
X169592907Y-104907000D01*
X169407093Y-104907000D01*
X169345917Y-104916689D01*
X169223564Y-104936068D01*
X169223561Y-104936068D01*
X169046847Y-104993486D01*
X168881282Y-105077846D01*
X168795515Y-105140159D01*
X168730956Y-105187065D01*
X168730954Y-105187067D01*
X168730953Y-105187067D01*
X168599567Y-105318453D01*
X168599567Y-105318454D01*
X168599565Y-105318456D01*
X168552659Y-105383015D01*
X168490346Y-105468782D01*
X168405986Y-105634347D01*
X168348568Y-105811061D01*
X168348568Y-105811064D01*
X168319500Y-105994593D01*
X115477974Y-105994593D01*
X115539814Y-105894334D01*
X115594999Y-105727797D01*
X115605500Y-105625009D01*
X115605499Y-104424992D01*
X115594999Y-104322203D01*
X115539814Y-104155666D01*
X115447712Y-104006344D01*
X115323656Y-103882288D01*
X115174334Y-103790186D01*
X115092427Y-103763044D01*
X115034984Y-103723272D01*
X115008161Y-103658756D01*
X115020476Y-103589980D01*
X115058547Y-103545021D01*
X115152219Y-103476966D01*
X115296966Y-103332219D01*
X115296968Y-103332215D01*
X115296971Y-103332213D01*
X115361787Y-103243000D01*
X115417287Y-103166610D01*
X115510220Y-102984219D01*
X115573477Y-102789534D01*
X115605500Y-102587352D01*
X115605500Y-102382648D01*
X115573477Y-102180466D01*
X115510220Y-101985781D01*
X115510218Y-101985778D01*
X115510218Y-101985776D01*
X115476503Y-101919607D01*
X115417287Y-101803390D01*
X115409556Y-101792749D01*
X115296971Y-101637786D01*
X115152213Y-101493028D01*
X114986613Y-101372715D01*
X114986612Y-101372714D01*
X114986610Y-101372713D01*
X114929653Y-101343691D01*
X114804223Y-101279781D01*
X114609534Y-101216522D01*
X114434995Y-101188878D01*
X114407352Y-101184500D01*
X114202648Y-101184500D01*
X114178329Y-101188351D01*
X114000465Y-101216522D01*
X113805776Y-101279781D01*
X113623386Y-101372715D01*
X113457786Y-101493028D01*
X113313028Y-101637786D01*
X113192715Y-101803386D01*
X113099781Y-101985776D01*
X113036522Y-102180465D01*
X113004500Y-102382648D01*
X112500000Y-102382648D01*
X112500000Y-100484635D01*
X167894500Y-100484635D01*
X167894500Y-102790370D01*
X167894501Y-102790376D01*
X167900908Y-102849983D01*
X167951202Y-102984828D01*
X167951206Y-102984835D01*
X168037452Y-103100044D01*
X168037455Y-103100047D01*
X168152664Y-103186293D01*
X168152671Y-103186297D01*
X168287517Y-103236591D01*
X168287516Y-103236591D01*
X168294444Y-103237335D01*
X168347127Y-103243000D01*
X170652872Y-103242999D01*
X170712483Y-103236591D01*
X170847331Y-103186296D01*
X170962546Y-103100046D01*
X171048796Y-102984831D01*
X171099091Y-102849983D01*
X171105500Y-102790373D01*
X171105499Y-100484628D01*
X171099091Y-100425017D01*
X171073162Y-100355499D01*
X171048797Y-100290171D01*
X171048793Y-100290164D01*
X170962547Y-100174955D01*
X170962544Y-100174952D01*
X170847335Y-100088706D01*
X170847328Y-100088702D01*
X170712482Y-100038408D01*
X170712483Y-100038408D01*
X170652883Y-100032001D01*
X170652881Y-100032000D01*
X170652873Y-100032000D01*
X170652864Y-100032000D01*
X168347129Y-100032000D01*
X168347123Y-100032001D01*
X168287516Y-100038408D01*
X168152671Y-100088702D01*
X168152664Y-100088706D01*
X168037455Y-100174952D01*
X168037452Y-100174955D01*
X167951206Y-100290164D01*
X167951202Y-100290171D01*
X167900908Y-100425017D01*
X167894501Y-100484616D01*
X167894501Y-100484623D01*
X167894500Y-100484635D01*
X112500000Y-100484635D01*
X112500000Y-98657093D01*
X129407000Y-98657093D01*
X129407000Y-98842906D01*
X129436068Y-99026435D01*
X129436068Y-99026438D01*
X129493486Y-99203152D01*
X129493488Y-99203155D01*
X129577846Y-99368717D01*
X129687065Y-99519044D01*
X129818456Y-99650435D01*
X129968783Y-99759654D01*
X130134345Y-99844012D01*
X130134347Y-99844013D01*
X130311062Y-99901431D01*
X130311063Y-99901431D01*
X130311066Y-99901432D01*
X130494593Y-99930500D01*
X130494594Y-99930500D01*
X130680406Y-99930500D01*
X130680407Y-99930500D01*
X130863934Y-99901432D01*
X130863937Y-99901431D01*
X130863938Y-99901431D01*
X131040652Y-99844013D01*
X131040652Y-99844012D01*
X131040655Y-99844012D01*
X131206217Y-99759654D01*
X131356544Y-99650435D01*
X131487935Y-99519044D01*
X131597154Y-99368717D01*
X131681512Y-99203155D01*
X131681513Y-99203152D01*
X131738931Y-99026438D01*
X131738931Y-99026437D01*
X131738932Y-99026434D01*
X131768000Y-98842907D01*
X131768000Y-98657093D01*
X131738932Y-98473566D01*
X131738931Y-98473562D01*
X131738931Y-98473561D01*
X131681513Y-98296847D01*
X131653808Y-98242473D01*
X131597154Y-98131283D01*
X131487935Y-97980956D01*
X131356544Y-97849565D01*
X131206217Y-97740346D01*
X131132074Y-97702568D01*
X131040652Y-97655986D01*
X130863937Y-97598568D01*
X130854889Y-97597135D01*
X133432000Y-97597135D01*
X133432000Y-99902870D01*
X133432001Y-99902876D01*
X133438408Y-99962483D01*
X133488702Y-100097328D01*
X133488706Y-100097335D01*
X133574952Y-100212544D01*
X133574955Y-100212547D01*
X133690164Y-100298793D01*
X133690171Y-100298797D01*
X133825017Y-100349091D01*
X133825016Y-100349091D01*
X133831944Y-100349835D01*
X133884627Y-100355500D01*
X136190372Y-100355499D01*
X136249983Y-100349091D01*
X136384831Y-100298796D01*
X136500046Y-100212546D01*
X136586296Y-100097331D01*
X136636591Y-99962483D01*
X136643000Y-99902873D01*
X136642999Y-97597128D01*
X136636591Y-97537517D01*
X136586296Y-97402669D01*
X136586295Y-97402668D01*
X136586293Y-97402664D01*
X136500047Y-97287455D01*
X136500044Y-97287452D01*
X136384835Y-97201206D01*
X136384828Y-97201202D01*
X136249982Y-97150908D01*
X136249983Y-97150908D01*
X136190383Y-97144501D01*
X136190381Y-97144500D01*
X136190373Y-97144500D01*
X136190364Y-97144500D01*
X133884629Y-97144500D01*
X133884623Y-97144501D01*
X133825016Y-97150908D01*
X133690171Y-97201202D01*
X133690164Y-97201206D01*
X133574955Y-97287452D01*
X133574952Y-97287455D01*
X133488706Y-97402664D01*
X133488702Y-97402671D01*
X133438408Y-97537517D01*
X133434970Y-97569500D01*
X133432001Y-97597123D01*
X133432000Y-97597135D01*
X130854889Y-97597135D01*
X130726288Y-97576767D01*
X130680407Y-97569500D01*
X130494593Y-97569500D01*
X130433417Y-97579189D01*
X130311064Y-97598568D01*
X130311061Y-97598568D01*
X130134347Y-97655986D01*
X129968782Y-97740346D01*
X129883015Y-97802659D01*
X129818456Y-97849565D01*
X129818454Y-97849567D01*
X129818453Y-97849567D01*
X129687067Y-97980953D01*
X129687067Y-97980954D01*
X129687065Y-97980956D01*
X129640159Y-98045515D01*
X129577846Y-98131282D01*
X129493486Y-98296847D01*
X129436068Y-98473561D01*
X129436068Y-98473564D01*
X129407000Y-98657093D01*
X112500000Y-98657093D01*
X112500000Y-93107648D01*
X113004500Y-93107648D01*
X113004500Y-93312351D01*
X113036522Y-93514534D01*
X113099781Y-93709223D01*
X113192715Y-93891613D01*
X113313028Y-94057213D01*
X113313034Y-94057219D01*
X113457781Y-94201966D01*
X113551452Y-94270021D01*
X113594117Y-94325350D01*
X113600096Y-94394963D01*
X113567491Y-94456759D01*
X113517571Y-94488045D01*
X113435666Y-94515186D01*
X113435663Y-94515187D01*
X113286342Y-94607289D01*
X113162289Y-94731342D01*
X113070187Y-94880663D01*
X113070186Y-94880666D01*
X113015001Y-95047203D01*
X113015001Y-95047204D01*
X113015000Y-95047204D01*
X113004500Y-95149983D01*
X113004500Y-96350001D01*
X113004501Y-96350018D01*
X113015000Y-96452796D01*
X113015001Y-96452799D01*
X113034653Y-96512104D01*
X113070186Y-96619334D01*
X113162288Y-96768656D01*
X113286344Y-96892712D01*
X113435666Y-96984814D01*
X113602203Y-97039999D01*
X113704991Y-97050500D01*
X114905008Y-97050499D01*
X115007797Y-97039999D01*
X115174334Y-96984814D01*
X115323656Y-96892712D01*
X115447712Y-96768656D01*
X115539814Y-96619334D01*
X115594999Y-96452797D01*
X115605500Y-96350009D01*
X115605499Y-95149992D01*
X115594999Y-95047203D01*
X115539814Y-94880666D01*
X115447712Y-94731344D01*
X115323656Y-94607288D01*
X115174334Y-94515186D01*
X115092427Y-94488044D01*
X115034984Y-94448272D01*
X115008161Y-94383756D01*
X115020476Y-94314980D01*
X115058547Y-94270021D01*
X115152219Y-94201966D01*
X115296966Y-94057219D01*
X115402753Y-93911613D01*
X115458082Y-93868949D01*
X115503071Y-93860500D01*
X135526692Y-93860500D01*
X135593731Y-93880185D01*
X135614373Y-93896819D01*
X139834030Y-98116475D01*
X139867515Y-98177798D01*
X139864280Y-98242473D01*
X139821532Y-98374040D01*
X139782000Y-98623638D01*
X139782000Y-98876361D01*
X139821532Y-99125956D01*
X139899625Y-99366302D01*
X139977453Y-99519046D01*
X140014353Y-99591466D01*
X140162893Y-99795913D01*
X140341587Y-99974607D01*
X140546034Y-100123147D01*
X140647707Y-100174952D01*
X140771197Y-100237874D01*
X140771199Y-100237874D01*
X140771202Y-100237876D01*
X141011544Y-100315968D01*
X141140138Y-100336335D01*
X141261139Y-100355500D01*
X141261144Y-100355500D01*
X141513861Y-100355500D01*
X141624165Y-100338028D01*
X141763456Y-100315968D01*
X142003798Y-100237876D01*
X142228966Y-100123147D01*
X142433413Y-99974607D01*
X142612107Y-99795913D01*
X142760647Y-99591466D01*
X142875376Y-99366298D01*
X142953468Y-99125956D01*
X142975528Y-98986665D01*
X142993000Y-98876361D01*
X142993000Y-98623638D01*
X142969230Y-98473561D01*
X142953468Y-98374044D01*
X142875376Y-98133702D01*
X142875374Y-98133699D01*
X142875374Y-98133697D01*
X142760646Y-97908533D01*
X142612107Y-97704087D01*
X142433413Y-97525393D01*
X142228966Y-97376853D01*
X142003802Y-97262125D01*
X141763456Y-97184032D01*
X141513861Y-97144500D01*
X141513856Y-97144500D01*
X141261144Y-97144500D01*
X141261139Y-97144500D01*
X141011540Y-97184032D01*
X140879973Y-97226780D01*
X140810132Y-97228775D01*
X140753975Y-97196530D01*
X138801399Y-95243953D01*
X138718584Y-95161138D01*
X167894500Y-95161138D01*
X167894500Y-95413861D01*
X167934032Y-95663456D01*
X168012125Y-95903802D01*
X168126853Y-96128966D01*
X168275393Y-96333413D01*
X168454087Y-96512107D01*
X168658534Y-96660647D01*
X168764916Y-96714851D01*
X168883697Y-96775374D01*
X168883699Y-96775374D01*
X168883702Y-96775376D01*
X169124044Y-96853468D01*
X169252638Y-96873835D01*
X169373639Y-96893000D01*
X169373644Y-96893000D01*
X169626361Y-96893000D01*
X169736665Y-96875528D01*
X169875956Y-96853468D01*
X170116298Y-96775376D01*
X170341466Y-96660647D01*
X170545913Y-96512107D01*
X170724607Y-96333413D01*
X170873147Y-96128966D01*
X170987876Y-95903798D01*
X171065968Y-95663456D01*
X171088028Y-95524165D01*
X171105500Y-95413861D01*
X171105500Y-95161138D01*
X171084534Y-95028772D01*
X171065968Y-94911544D01*
X170987876Y-94671202D01*
X170987874Y-94671199D01*
X170987874Y-94671197D01*
X170908382Y-94515186D01*
X170873147Y-94446034D01*
X170724607Y-94241587D01*
X170545913Y-94062893D01*
X170341466Y-93914353D01*
X170307054Y-93896819D01*
X170116302Y-93799625D01*
X169875956Y-93721532D01*
X169626361Y-93682000D01*
X169626356Y-93682000D01*
X169373644Y-93682000D01*
X169373639Y-93682000D01*
X169124043Y-93721532D01*
X168883697Y-93799625D01*
X168658533Y-93914353D01*
X168541889Y-93999100D01*
X168454087Y-94062893D01*
X168454085Y-94062895D01*
X168454084Y-94062895D01*
X168275395Y-94241584D01*
X168275395Y-94241585D01*
X168275393Y-94241587D01*
X168222070Y-94314980D01*
X168126853Y-94446033D01*
X168012125Y-94671197D01*
X167934032Y-94911543D01*
X167894500Y-95161138D01*
X138718584Y-95161138D01*
X136262174Y-92704727D01*
X136262173Y-92704726D01*
X136262169Y-92704723D01*
X136155627Y-92633535D01*
X136037244Y-92584499D01*
X136037238Y-92584497D01*
X135911571Y-92559500D01*
X135911569Y-92559500D01*
X115503071Y-92559500D01*
X115436032Y-92539815D01*
X115402754Y-92508386D01*
X115296966Y-92362781D01*
X115152219Y-92218034D01*
X115152213Y-92218028D01*
X114986613Y-92097715D01*
X114986612Y-92097714D01*
X114986610Y-92097713D01*
X114929653Y-92068691D01*
X114804223Y-92004781D01*
X114609534Y-91941522D01*
X114434995Y-91913878D01*
X114407352Y-91909500D01*
X114202648Y-91909500D01*
X114178329Y-91913351D01*
X114000465Y-91941522D01*
X113805776Y-92004781D01*
X113623386Y-92097715D01*
X113457786Y-92218028D01*
X113313028Y-92362786D01*
X113192715Y-92528386D01*
X113099781Y-92710776D01*
X113036522Y-92905465D01*
X113004500Y-93107648D01*
X112500000Y-93107648D01*
X112500000Y-79372648D01*
X113014500Y-79372648D01*
X113014500Y-79577351D01*
X113046522Y-79779534D01*
X113109781Y-79974223D01*
X113202715Y-80156613D01*
X113323028Y-80322213D01*
X113467786Y-80466971D01*
X113622749Y-80579556D01*
X113633390Y-80587287D01*
X113749607Y-80646503D01*
X113815776Y-80680218D01*
X113815778Y-80680218D01*
X113815781Y-80680220D01*
X113920137Y-80714127D01*
X114010465Y-80743477D01*
X114111557Y-80759488D01*
X114212648Y-80775500D01*
X114212649Y-80775500D01*
X114417351Y-80775500D01*
X114417352Y-80775500D01*
X114619534Y-80743477D01*
X114814219Y-80680220D01*
X114996610Y-80587287D01*
X115089590Y-80519732D01*
X115162213Y-80466971D01*
X115162215Y-80466968D01*
X115162219Y-80466966D01*
X115306966Y-80322219D01*
X115306968Y-80322215D01*
X115306971Y-80322213D01*
X115359732Y-80249590D01*
X115427287Y-80156610D01*
X115520220Y-79974219D01*
X115583477Y-79779534D01*
X115615500Y-79577352D01*
X115615500Y-79372648D01*
X115583477Y-79170466D01*
X115520220Y-78975781D01*
X115520218Y-78975778D01*
X115520218Y-78975776D01*
X115486503Y-78909607D01*
X115427287Y-78793390D01*
X115419556Y-78782749D01*
X115306971Y-78627786D01*
X115162213Y-78483028D01*
X114996613Y-78362715D01*
X114996612Y-78362714D01*
X114996610Y-78362713D01*
X114939653Y-78333691D01*
X114814223Y-78269781D01*
X114619534Y-78206522D01*
X114444995Y-78178878D01*
X114417352Y-78174500D01*
X114212648Y-78174500D01*
X114188329Y-78178351D01*
X114010465Y-78206522D01*
X113815776Y-78269781D01*
X113633386Y-78362715D01*
X113467786Y-78483028D01*
X113323028Y-78627786D01*
X113202715Y-78793386D01*
X113109781Y-78975776D01*
X113046522Y-79170465D01*
X113014500Y-79372648D01*
X112500000Y-79372648D01*
X112500000Y-69572648D01*
X113014500Y-69572648D01*
X113014500Y-69777351D01*
X113046522Y-69979534D01*
X113109781Y-70174223D01*
X113173691Y-70299653D01*
X113189548Y-70330773D01*
X113202715Y-70356613D01*
X113323028Y-70522213D01*
X113467786Y-70666971D01*
X113617794Y-70775956D01*
X113633390Y-70787287D01*
X113749607Y-70846503D01*
X113815776Y-70880218D01*
X113815778Y-70880218D01*
X113815781Y-70880220D01*
X113920137Y-70914127D01*
X114010465Y-70943477D01*
X114111557Y-70959488D01*
X114212648Y-70975500D01*
X114212649Y-70975500D01*
X114417351Y-70975500D01*
X114417352Y-70975500D01*
X114619534Y-70943477D01*
X114814219Y-70880220D01*
X114996610Y-70787287D01*
X115113711Y-70702209D01*
X115162213Y-70666971D01*
X115162215Y-70666968D01*
X115162219Y-70666966D01*
X115306966Y-70522219D01*
X115306968Y-70522215D01*
X115306971Y-70522213D01*
X115359732Y-70449590D01*
X115427287Y-70356610D01*
X115520220Y-70174219D01*
X115583477Y-69979534D01*
X115615500Y-69777352D01*
X115615500Y-69572648D01*
X115583477Y-69370466D01*
X115578154Y-69354085D01*
X115520218Y-69175776D01*
X115444337Y-69026853D01*
X115427287Y-68993390D01*
X115419556Y-68982749D01*
X115306971Y-68827786D01*
X115162213Y-68683028D01*
X114996613Y-68562715D01*
X114996612Y-68562714D01*
X114996610Y-68562713D01*
X114939653Y-68533691D01*
X114814223Y-68469781D01*
X114619534Y-68406522D01*
X114444995Y-68378878D01*
X114417352Y-68374500D01*
X114212648Y-68374500D01*
X114188329Y-68378351D01*
X114010465Y-68406522D01*
X113815776Y-68469781D01*
X113633386Y-68562715D01*
X113467786Y-68683028D01*
X113323028Y-68827786D01*
X113202715Y-68993386D01*
X113109781Y-69175776D01*
X113046522Y-69370465D01*
X113014500Y-69572648D01*
X112500000Y-69572648D01*
X112500000Y-59972648D01*
X113014500Y-59972648D01*
X113014500Y-60177351D01*
X113046522Y-60379534D01*
X113109781Y-60574223D01*
X113202715Y-60756613D01*
X113323028Y-60922213D01*
X113467786Y-61066971D01*
X113611143Y-61171124D01*
X113633390Y-61187287D01*
X113749607Y-61246503D01*
X113815776Y-61280218D01*
X113815778Y-61280218D01*
X113815781Y-61280220D01*
X113920137Y-61314127D01*
X114010465Y-61343477D01*
X114111557Y-61359488D01*
X114212648Y-61375500D01*
X114212649Y-61375500D01*
X114417351Y-61375500D01*
X114417352Y-61375500D01*
X114619534Y-61343477D01*
X114814219Y-61280220D01*
X114996610Y-61187287D01*
X115123120Y-61095373D01*
X115162213Y-61066971D01*
X115162215Y-61066968D01*
X115162219Y-61066966D01*
X115306966Y-60922219D01*
X115306968Y-60922215D01*
X115306971Y-60922213D01*
X115359732Y-60849590D01*
X115427287Y-60756610D01*
X115520220Y-60574219D01*
X115583477Y-60379534D01*
X115615500Y-60177352D01*
X115615500Y-59972648D01*
X115583477Y-59770466D01*
X115520220Y-59575781D01*
X115520218Y-59575778D01*
X115520218Y-59575776D01*
X115467090Y-59471508D01*
X115427287Y-59393390D01*
X115378211Y-59325842D01*
X115306971Y-59227786D01*
X115162213Y-59083028D01*
X114996613Y-58962715D01*
X114996612Y-58962714D01*
X114996610Y-58962713D01*
X114920390Y-58923877D01*
X114814223Y-58869781D01*
X114619534Y-58806522D01*
X114444995Y-58778878D01*
X114417352Y-58774500D01*
X114212648Y-58774500D01*
X114188329Y-58778351D01*
X114010465Y-58806522D01*
X113815776Y-58869781D01*
X113633386Y-58962715D01*
X113467786Y-59083028D01*
X113323028Y-59227786D01*
X113202715Y-59393386D01*
X113109781Y-59575776D01*
X113046522Y-59770465D01*
X113014500Y-59972648D01*
X112500000Y-59972648D01*
X112500000Y-56411304D01*
X117599500Y-56411304D01*
X117599500Y-56588695D01*
X117634103Y-56762658D01*
X117634106Y-56762667D01*
X117701983Y-56926540D01*
X117701990Y-56926553D01*
X117800535Y-57074034D01*
X117800538Y-57074038D01*
X117925961Y-57199461D01*
X117925965Y-57199464D01*
X118073446Y-57298009D01*
X118073459Y-57298016D01*
X118150106Y-57329763D01*
X118237334Y-57365894D01*
X118284318Y-57375239D01*
X118346227Y-57407622D01*
X118347807Y-57409175D01*
X123213181Y-62274548D01*
X123246666Y-62335871D01*
X123249500Y-62362229D01*
X123249500Y-69388770D01*
X123229815Y-69455809D01*
X123177011Y-69501564D01*
X123107853Y-69511508D01*
X123044297Y-69482483D01*
X123037819Y-69476451D01*
X119409175Y-65847807D01*
X119375690Y-65786484D01*
X119375262Y-65784432D01*
X119365894Y-65737334D01*
X119348923Y-65696363D01*
X119298016Y-65573459D01*
X119298009Y-65573446D01*
X119199464Y-65425965D01*
X119199461Y-65425961D01*
X119074038Y-65300538D01*
X119074034Y-65300535D01*
X118926553Y-65201990D01*
X118926540Y-65201983D01*
X118762667Y-65134106D01*
X118762658Y-65134103D01*
X118588694Y-65099500D01*
X118588691Y-65099500D01*
X118411309Y-65099500D01*
X118411306Y-65099500D01*
X118237341Y-65134103D01*
X118237332Y-65134106D01*
X118073459Y-65201983D01*
X118073446Y-65201990D01*
X117925965Y-65300535D01*
X117925961Y-65300538D01*
X117800538Y-65425961D01*
X117800535Y-65425965D01*
X117701990Y-65573446D01*
X117701983Y-65573459D01*
X117634106Y-65737332D01*
X117634103Y-65737341D01*
X117599500Y-65911304D01*
X117599500Y-66088695D01*
X117634103Y-66262658D01*
X117634106Y-66262667D01*
X117701983Y-66426540D01*
X117701990Y-66426553D01*
X117800535Y-66574034D01*
X117800538Y-66574038D01*
X117925961Y-66699461D01*
X117925965Y-66699464D01*
X118073446Y-66798009D01*
X118073459Y-66798016D01*
X118150106Y-66829763D01*
X118237334Y-66865894D01*
X118284318Y-66875239D01*
X118346227Y-66907622D01*
X118347807Y-66909175D01*
X123213181Y-71774548D01*
X123246666Y-71835871D01*
X123249500Y-71862229D01*
X123249500Y-75125500D01*
X123229815Y-75192539D01*
X123177011Y-75238294D01*
X123125500Y-75249500D01*
X119035270Y-75249500D01*
X118968231Y-75229815D01*
X118966378Y-75228601D01*
X118926552Y-75201989D01*
X118926547Y-75201987D01*
X118762667Y-75134106D01*
X118762658Y-75134103D01*
X118588694Y-75099500D01*
X118588691Y-75099500D01*
X118411309Y-75099500D01*
X118411306Y-75099500D01*
X118237341Y-75134103D01*
X118237332Y-75134106D01*
X118073459Y-75201983D01*
X118073446Y-75201990D01*
X117925965Y-75300535D01*
X117925961Y-75300538D01*
X117800538Y-75425961D01*
X117800535Y-75425965D01*
X117701990Y-75573446D01*
X117701983Y-75573459D01*
X117634106Y-75737332D01*
X117634103Y-75737341D01*
X117599500Y-75911304D01*
X117599500Y-76088695D01*
X117634103Y-76262658D01*
X117634106Y-76262667D01*
X117701983Y-76426540D01*
X117701990Y-76426553D01*
X117800535Y-76574034D01*
X117800538Y-76574038D01*
X117925961Y-76699461D01*
X117925965Y-76699464D01*
X118073446Y-76798009D01*
X118073459Y-76798016D01*
X118196363Y-76848923D01*
X118237334Y-76865894D01*
X118237336Y-76865894D01*
X118237341Y-76865896D01*
X118411304Y-76900499D01*
X118411307Y-76900500D01*
X118411309Y-76900500D01*
X118588693Y-76900500D01*
X118588694Y-76900499D01*
X118646682Y-76888964D01*
X118762658Y-76865896D01*
X118762661Y-76865894D01*
X118762666Y-76865894D01*
X118926547Y-76798013D01*
X118926550Y-76798010D01*
X118926552Y-76798010D01*
X118966378Y-76771399D01*
X119033055Y-76750520D01*
X119035270Y-76750500D01*
X123926082Y-76750500D01*
X124073918Y-76750500D01*
X129377770Y-76750500D01*
X129444809Y-76770185D01*
X129465451Y-76786819D01*
X132453181Y-79774548D01*
X132486666Y-79835871D01*
X132489500Y-79862229D01*
X132489500Y-81125500D01*
X132469815Y-81192539D01*
X132417011Y-81238294D01*
X132365501Y-81249500D01*
X132192130Y-81249500D01*
X132192123Y-81249501D01*
X132132516Y-81255908D01*
X131997671Y-81306202D01*
X131997664Y-81306206D01*
X131882455Y-81392452D01*
X131882452Y-81392455D01*
X131796206Y-81507664D01*
X131796202Y-81507671D01*
X131745908Y-81642517D01*
X131739501Y-81702116D01*
X131739501Y-81702123D01*
X131739500Y-81702135D01*
X131739500Y-83797870D01*
X131739501Y-83797876D01*
X131745908Y-83857483D01*
X131796202Y-83992328D01*
X131796206Y-83992335D01*
X131882452Y-84107544D01*
X131882455Y-84107547D01*
X131997664Y-84193793D01*
X131997671Y-84193797D01*
X132042618Y-84210561D01*
X132132517Y-84244091D01*
X132192127Y-84250500D01*
X132365500Y-84250499D01*
X132432539Y-84270183D01*
X132478294Y-84322987D01*
X132489500Y-84374499D01*
X132489500Y-88691803D01*
X132469815Y-88758842D01*
X132434396Y-88794902D01*
X132425967Y-88800534D01*
X132300534Y-88925966D01*
X132201990Y-89073446D01*
X132201983Y-89073459D01*
X132134106Y-89237332D01*
X132134103Y-89237341D01*
X132099500Y-89411304D01*
X132099500Y-89588695D01*
X132134103Y-89762658D01*
X132134106Y-89762667D01*
X132201983Y-89926540D01*
X132201990Y-89926553D01*
X132300535Y-90074034D01*
X132300538Y-90074038D01*
X132425961Y-90199461D01*
X132425965Y-90199464D01*
X132573446Y-90298009D01*
X132573459Y-90298016D01*
X132696363Y-90348923D01*
X132737334Y-90365894D01*
X132737336Y-90365894D01*
X132737341Y-90365896D01*
X132911304Y-90400499D01*
X132911307Y-90400500D01*
X132911309Y-90400500D01*
X133088693Y-90400500D01*
X133088694Y-90400499D01*
X133146682Y-90388964D01*
X133262658Y-90365896D01*
X133262661Y-90365894D01*
X133262666Y-90365894D01*
X133426547Y-90298013D01*
X133574035Y-90199464D01*
X133699464Y-90074035D01*
X133798013Y-89926547D01*
X133865894Y-89762666D01*
X133886153Y-89660811D01*
X133902613Y-89621082D01*
X133902212Y-89620868D01*
X133904393Y-89616786D01*
X133904676Y-89616105D01*
X133905084Y-89615495D01*
X133961658Y-89478913D01*
X133990500Y-89333918D01*
X133990500Y-89186083D01*
X133990500Y-84374499D01*
X134010185Y-84307460D01*
X134062989Y-84261705D01*
X134114500Y-84250499D01*
X134287871Y-84250499D01*
X134287872Y-84250499D01*
X134347483Y-84244091D01*
X134482331Y-84193796D01*
X134597546Y-84107546D01*
X134683796Y-83992331D01*
X134734091Y-83857483D01*
X134740500Y-83797873D01*
X134740499Y-82631902D01*
X135519500Y-82631902D01*
X135519500Y-82868097D01*
X135556446Y-83101368D01*
X135629433Y-83325996D01*
X135719990Y-83503722D01*
X135736657Y-83536433D01*
X135875483Y-83727510D01*
X136042490Y-83894517D01*
X136233567Y-84033343D01*
X136332991Y-84084002D01*
X136444003Y-84140566D01*
X136444005Y-84140566D01*
X136444008Y-84140568D01*
X136525194Y-84166947D01*
X136668631Y-84213553D01*
X136901903Y-84250500D01*
X136901908Y-84250500D01*
X137138097Y-84250500D01*
X137371368Y-84213553D01*
X137595992Y-84140568D01*
X137806433Y-84033343D01*
X137997510Y-83894517D01*
X138164517Y-83727510D01*
X138303343Y-83536433D01*
X138410568Y-83325992D01*
X138483553Y-83101368D01*
X138486549Y-83082452D01*
X138520500Y-82868097D01*
X138520500Y-82638549D01*
X151699500Y-82638549D01*
X151699500Y-82861450D01*
X151699501Y-82861466D01*
X151728594Y-83082452D01*
X151728595Y-83082457D01*
X151728596Y-83082463D01*
X151728597Y-83082465D01*
X151786290Y-83297780D01*
X151786293Y-83297790D01*
X151871593Y-83503722D01*
X151871595Y-83503726D01*
X151983052Y-83696774D01*
X151983057Y-83696780D01*
X151983058Y-83696782D01*
X152118751Y-83873622D01*
X152118757Y-83873629D01*
X152276370Y-84031242D01*
X152276377Y-84031248D01*
X152375809Y-84107544D01*
X152453226Y-84166948D01*
X152646274Y-84278405D01*
X152852219Y-84363710D01*
X153067537Y-84421404D01*
X153288543Y-84450500D01*
X153288550Y-84450500D01*
X153511450Y-84450500D01*
X153511457Y-84450500D01*
X153732463Y-84421404D01*
X153947781Y-84363710D01*
X154153726Y-84278405D01*
X154346774Y-84166948D01*
X154523624Y-84031247D01*
X154681247Y-83873624D01*
X154816948Y-83696774D01*
X154928405Y-83503726D01*
X155013710Y-83297781D01*
X155071404Y-83082463D01*
X155100500Y-82861457D01*
X155100500Y-82638549D01*
X156739500Y-82638549D01*
X156739500Y-82861450D01*
X156739501Y-82861466D01*
X156768594Y-83082452D01*
X156768595Y-83082457D01*
X156768596Y-83082463D01*
X156768597Y-83082465D01*
X156826290Y-83297780D01*
X156826293Y-83297790D01*
X156911593Y-83503722D01*
X156911595Y-83503726D01*
X157023052Y-83696774D01*
X157023057Y-83696780D01*
X157023058Y-83696782D01*
X157158751Y-83873622D01*
X157158757Y-83873629D01*
X157316370Y-84031242D01*
X157316377Y-84031248D01*
X157415809Y-84107544D01*
X157493226Y-84166948D01*
X157686274Y-84278405D01*
X157892219Y-84363710D01*
X158107537Y-84421404D01*
X158328543Y-84450500D01*
X158328550Y-84450500D01*
X158551450Y-84450500D01*
X158551457Y-84450500D01*
X158772463Y-84421404D01*
X158987781Y-84363710D01*
X159193726Y-84278405D01*
X159386774Y-84166948D01*
X159563624Y-84031247D01*
X159721247Y-83873624D01*
X159856948Y-83696774D01*
X159968405Y-83503726D01*
X160053710Y-83297781D01*
X160111404Y-83082463D01*
X160140500Y-82861457D01*
X160140500Y-82638543D01*
X160111404Y-82417537D01*
X160053710Y-82202219D01*
X159968405Y-81996274D01*
X159856948Y-81803226D01*
X159779373Y-81702128D01*
X159721248Y-81626377D01*
X159721242Y-81626370D01*
X159563629Y-81468757D01*
X159563622Y-81468751D01*
X159386782Y-81333058D01*
X159386780Y-81333057D01*
X159386774Y-81333052D01*
X159193726Y-81221595D01*
X159193717Y-81221590D01*
X159182108Y-81216782D01*
X159182107Y-81216782D01*
X158987790Y-81136293D01*
X158987783Y-81136291D01*
X158987781Y-81136290D01*
X158878816Y-81107093D01*
X168319500Y-81107093D01*
X168319500Y-81292907D01*
X168325858Y-81333052D01*
X168348568Y-81476435D01*
X168348568Y-81476438D01*
X168405986Y-81653152D01*
X168466791Y-81772487D01*
X168490346Y-81818717D01*
X168599565Y-81969044D01*
X168730956Y-82100435D01*
X168881283Y-82209654D01*
X169046845Y-82294012D01*
X169046847Y-82294013D01*
X169223562Y-82351431D01*
X169223563Y-82351431D01*
X169223566Y-82351432D01*
X169407093Y-82380500D01*
X169407094Y-82380500D01*
X169592906Y-82380500D01*
X169592907Y-82380500D01*
X169776434Y-82351432D01*
X169776437Y-82351431D01*
X169776438Y-82351431D01*
X169953152Y-82294013D01*
X169953152Y-82294012D01*
X169953155Y-82294012D01*
X170118717Y-82209654D01*
X170269044Y-82100435D01*
X170400435Y-81969044D01*
X170509654Y-81818717D01*
X170594012Y-81653155D01*
X170594013Y-81653152D01*
X170651431Y-81476438D01*
X170651431Y-81476437D01*
X170651432Y-81476434D01*
X170680500Y-81292907D01*
X170680500Y-81107093D01*
X170651432Y-80923566D01*
X170651431Y-80923562D01*
X170651431Y-80923561D01*
X170594013Y-80746847D01*
X170512713Y-80587287D01*
X170509654Y-80581283D01*
X170400435Y-80430956D01*
X170269044Y-80299565D01*
X170118717Y-80190346D01*
X169953152Y-80105986D01*
X169776437Y-80048568D01*
X169638788Y-80026767D01*
X169592907Y-80019500D01*
X169407093Y-80019500D01*
X169345917Y-80029189D01*
X169223564Y-80048568D01*
X169223561Y-80048568D01*
X169046847Y-80105986D01*
X168881282Y-80190346D01*
X168795515Y-80252659D01*
X168730956Y-80299565D01*
X168730954Y-80299567D01*
X168730953Y-80299567D01*
X168599567Y-80430953D01*
X168599567Y-80430954D01*
X168599565Y-80430956D01*
X168573402Y-80466966D01*
X168490346Y-80581282D01*
X168405986Y-80746847D01*
X168348568Y-80923561D01*
X168348568Y-80923564D01*
X168324013Y-81078597D01*
X168319500Y-81107093D01*
X158878816Y-81107093D01*
X158772463Y-81078596D01*
X158772457Y-81078595D01*
X158772452Y-81078594D01*
X158551466Y-81049501D01*
X158551463Y-81049500D01*
X158551457Y-81049500D01*
X158328543Y-81049500D01*
X158328537Y-81049500D01*
X158328533Y-81049501D01*
X158107547Y-81078594D01*
X158107540Y-81078595D01*
X158107537Y-81078596D01*
X157932488Y-81125500D01*
X157892219Y-81136290D01*
X157892209Y-81136293D01*
X157686277Y-81221593D01*
X157686273Y-81221595D01*
X157493226Y-81333052D01*
X157493217Y-81333058D01*
X157316377Y-81468751D01*
X157316370Y-81468757D01*
X157158757Y-81626370D01*
X157158751Y-81626377D01*
X157023058Y-81803217D01*
X157023052Y-81803226D01*
X156911595Y-81996273D01*
X156911593Y-81996277D01*
X156826293Y-82202209D01*
X156826290Y-82202219D01*
X156768597Y-82417534D01*
X156768594Y-82417547D01*
X156739501Y-82638533D01*
X156739500Y-82638549D01*
X155100500Y-82638549D01*
X155100500Y-82638543D01*
X155071404Y-82417537D01*
X155013710Y-82202219D01*
X154928405Y-81996274D01*
X154816948Y-81803226D01*
X154739373Y-81702128D01*
X154681248Y-81626377D01*
X154681242Y-81626370D01*
X154523629Y-81468757D01*
X154523622Y-81468751D01*
X154346782Y-81333058D01*
X154346780Y-81333057D01*
X154346774Y-81333052D01*
X154153726Y-81221595D01*
X154153722Y-81221593D01*
X153947790Y-81136293D01*
X153947783Y-81136291D01*
X153947781Y-81136290D01*
X153732463Y-81078596D01*
X153732457Y-81078595D01*
X153732452Y-81078594D01*
X153511466Y-81049501D01*
X153511463Y-81049500D01*
X153511457Y-81049500D01*
X153288543Y-81049500D01*
X153288537Y-81049500D01*
X153288533Y-81049501D01*
X153067547Y-81078594D01*
X153067540Y-81078595D01*
X153067537Y-81078596D01*
X152892488Y-81125500D01*
X152852219Y-81136290D01*
X152852209Y-81136293D01*
X152646277Y-81221593D01*
X152646273Y-81221595D01*
X152453226Y-81333052D01*
X152453217Y-81333058D01*
X152276377Y-81468751D01*
X152276370Y-81468757D01*
X152118757Y-81626370D01*
X152118751Y-81626377D01*
X151983058Y-81803217D01*
X151983052Y-81803226D01*
X151871595Y-81996273D01*
X151871593Y-81996277D01*
X151786293Y-82202209D01*
X151786290Y-82202219D01*
X151728597Y-82417534D01*
X151728594Y-82417547D01*
X151699501Y-82638533D01*
X151699500Y-82638549D01*
X138520500Y-82638549D01*
X138520500Y-82631902D01*
X138483553Y-82398631D01*
X138410566Y-82174003D01*
X138354002Y-82062991D01*
X138303343Y-81963567D01*
X138164517Y-81772490D01*
X137997510Y-81605483D01*
X137806433Y-81466657D01*
X137595996Y-81359433D01*
X137371368Y-81286446D01*
X137138097Y-81249500D01*
X137138092Y-81249500D01*
X136901908Y-81249500D01*
X136901903Y-81249500D01*
X136668631Y-81286446D01*
X136444003Y-81359433D01*
X136233566Y-81466657D01*
X136177119Y-81507669D01*
X136042490Y-81605483D01*
X136042488Y-81605485D01*
X136042487Y-81605485D01*
X135875485Y-81772487D01*
X135875485Y-81772488D01*
X135875483Y-81772490D01*
X135853152Y-81803226D01*
X135736657Y-81963566D01*
X135629433Y-82174003D01*
X135556446Y-82398631D01*
X135519500Y-82631902D01*
X134740499Y-82631902D01*
X134740499Y-81702128D01*
X134734091Y-81642517D01*
X134728071Y-81626377D01*
X134683797Y-81507671D01*
X134683793Y-81507664D01*
X134597547Y-81392455D01*
X134597544Y-81392452D01*
X134482335Y-81306206D01*
X134482328Y-81306202D01*
X134347482Y-81255908D01*
X134347483Y-81255908D01*
X134287883Y-81249501D01*
X134287881Y-81249500D01*
X134287873Y-81249500D01*
X134287865Y-81249500D01*
X134114500Y-81249500D01*
X134047461Y-81229815D01*
X134001706Y-81177011D01*
X133990500Y-81125500D01*
X133990500Y-75597135D01*
X167894500Y-75597135D01*
X167894500Y-77902870D01*
X167894501Y-77902876D01*
X167900908Y-77962483D01*
X167951202Y-78097328D01*
X167951206Y-78097335D01*
X168037452Y-78212544D01*
X168037455Y-78212547D01*
X168152664Y-78298793D01*
X168152671Y-78298797D01*
X168287517Y-78349091D01*
X168287516Y-78349091D01*
X168294444Y-78349835D01*
X168347127Y-78355500D01*
X170652872Y-78355499D01*
X170712483Y-78349091D01*
X170847331Y-78298796D01*
X170962546Y-78212546D01*
X171048796Y-78097331D01*
X171099091Y-77962483D01*
X171105500Y-77902873D01*
X171105499Y-75597128D01*
X171099091Y-75537517D01*
X171057483Y-75425961D01*
X171048797Y-75402671D01*
X171048793Y-75402664D01*
X170962547Y-75287455D01*
X170962544Y-75287452D01*
X170847335Y-75201206D01*
X170847328Y-75201202D01*
X170712482Y-75150908D01*
X170712483Y-75150908D01*
X170652883Y-75144501D01*
X170652881Y-75144500D01*
X170652873Y-75144500D01*
X170652864Y-75144500D01*
X168347129Y-75144500D01*
X168347123Y-75144501D01*
X168287516Y-75150908D01*
X168152671Y-75201202D01*
X168152664Y-75201206D01*
X168037455Y-75287452D01*
X168037452Y-75287455D01*
X167951206Y-75402664D01*
X167951202Y-75402671D01*
X167900908Y-75537517D01*
X167894501Y-75597116D01*
X167894501Y-75597123D01*
X167894500Y-75597135D01*
X133990500Y-75597135D01*
X133990500Y-72874499D01*
X134010185Y-72807460D01*
X134062989Y-72761705D01*
X134114500Y-72750499D01*
X134387871Y-72750499D01*
X134387872Y-72750499D01*
X134447483Y-72744091D01*
X134582331Y-72693796D01*
X134697546Y-72607546D01*
X134783796Y-72492331D01*
X134834091Y-72357483D01*
X134840500Y-72297873D01*
X134840499Y-71131902D01*
X135619500Y-71131902D01*
X135619500Y-71368097D01*
X135656446Y-71601368D01*
X135729433Y-71825996D01*
X135800753Y-71965968D01*
X135836657Y-72036433D01*
X135975483Y-72227510D01*
X136142490Y-72394517D01*
X136333567Y-72533343D01*
X136432991Y-72584002D01*
X136544003Y-72640566D01*
X136544005Y-72640566D01*
X136544008Y-72640568D01*
X136625194Y-72666947D01*
X136768631Y-72713553D01*
X137001903Y-72750500D01*
X137001908Y-72750500D01*
X137238097Y-72750500D01*
X137471368Y-72713553D01*
X137695992Y-72640568D01*
X137906433Y-72533343D01*
X138097510Y-72394517D01*
X138264517Y-72227510D01*
X138403343Y-72036433D01*
X138510568Y-71825992D01*
X138583553Y-71601368D01*
X138586549Y-71582452D01*
X138620500Y-71368097D01*
X138620500Y-71138549D01*
X151799500Y-71138549D01*
X151799500Y-71361450D01*
X151799501Y-71361466D01*
X151828594Y-71582452D01*
X151828595Y-71582457D01*
X151828596Y-71582463D01*
X151880065Y-71774548D01*
X151886290Y-71797780D01*
X151886293Y-71797790D01*
X151955955Y-71965968D01*
X151971595Y-72003726D01*
X152083052Y-72196774D01*
X152083057Y-72196780D01*
X152083058Y-72196782D01*
X152218751Y-72373622D01*
X152218757Y-72373629D01*
X152376370Y-72531242D01*
X152376377Y-72531248D01*
X152475809Y-72607544D01*
X152553226Y-72666948D01*
X152746274Y-72778405D01*
X152952219Y-72863710D01*
X153167537Y-72921404D01*
X153388543Y-72950500D01*
X153388550Y-72950500D01*
X153611450Y-72950500D01*
X153611457Y-72950500D01*
X153832463Y-72921404D01*
X154047781Y-72863710D01*
X154253726Y-72778405D01*
X154446774Y-72666948D01*
X154623624Y-72531247D01*
X154781247Y-72373624D01*
X154916948Y-72196774D01*
X155028405Y-72003726D01*
X155113710Y-71797781D01*
X155171404Y-71582463D01*
X155200500Y-71361457D01*
X155200500Y-71138549D01*
X156839500Y-71138549D01*
X156839500Y-71361450D01*
X156839501Y-71361466D01*
X156868594Y-71582452D01*
X156868595Y-71582457D01*
X156868596Y-71582463D01*
X156920065Y-71774548D01*
X156926290Y-71797780D01*
X156926293Y-71797790D01*
X156995955Y-71965968D01*
X157011595Y-72003726D01*
X157123052Y-72196774D01*
X157123057Y-72196780D01*
X157123058Y-72196782D01*
X157258751Y-72373622D01*
X157258757Y-72373629D01*
X157416370Y-72531242D01*
X157416377Y-72531248D01*
X157515809Y-72607544D01*
X157593226Y-72666948D01*
X157786274Y-72778405D01*
X157992219Y-72863710D01*
X158207537Y-72921404D01*
X158428543Y-72950500D01*
X158428550Y-72950500D01*
X158651450Y-72950500D01*
X158651457Y-72950500D01*
X158872463Y-72921404D01*
X159087781Y-72863710D01*
X159293726Y-72778405D01*
X159486774Y-72666948D01*
X159663624Y-72531247D01*
X159821247Y-72373624D01*
X159956948Y-72196774D01*
X160068405Y-72003726D01*
X160153710Y-71797781D01*
X160211404Y-71582463D01*
X160240500Y-71361457D01*
X160240500Y-71138543D01*
X160211404Y-70917537D01*
X160153710Y-70702219D01*
X160068405Y-70496274D01*
X160068403Y-70496271D01*
X160068401Y-70496266D01*
X159972853Y-70330774D01*
X159972852Y-70330773D01*
X159956948Y-70303226D01*
X159934244Y-70273638D01*
X167894500Y-70273638D01*
X167894500Y-70526361D01*
X167934032Y-70775956D01*
X168012125Y-71016302D01*
X168074411Y-71138543D01*
X168126853Y-71241466D01*
X168275393Y-71445913D01*
X168454087Y-71624607D01*
X168658534Y-71773147D01*
X168706879Y-71797780D01*
X168883697Y-71887874D01*
X168883699Y-71887874D01*
X168883702Y-71887876D01*
X169124044Y-71965968D01*
X169252638Y-71986335D01*
X169373639Y-72005500D01*
X169373644Y-72005500D01*
X169626361Y-72005500D01*
X169736665Y-71988028D01*
X169875956Y-71965968D01*
X170116298Y-71887876D01*
X170341466Y-71773147D01*
X170545913Y-71624607D01*
X170724607Y-71445913D01*
X170873147Y-71241466D01*
X170987876Y-71016298D01*
X171065968Y-70775956D01*
X171088028Y-70636665D01*
X171105500Y-70526361D01*
X171105500Y-70273638D01*
X171082175Y-70126376D01*
X171065968Y-70024044D01*
X170987876Y-69783702D01*
X170987874Y-69783699D01*
X170987874Y-69783697D01*
X170912766Y-69636290D01*
X170873147Y-69558534D01*
X170724607Y-69354087D01*
X170545913Y-69175393D01*
X170341466Y-69026853D01*
X170116302Y-68912125D01*
X169875956Y-68834032D01*
X169626361Y-68794500D01*
X169626356Y-68794500D01*
X169373644Y-68794500D01*
X169373639Y-68794500D01*
X169124043Y-68834032D01*
X168883697Y-68912125D01*
X168658533Y-69026853D01*
X168541889Y-69111600D01*
X168454087Y-69175393D01*
X168454085Y-69175395D01*
X168454084Y-69175395D01*
X168275395Y-69354084D01*
X168275395Y-69354085D01*
X168275393Y-69354087D01*
X168211600Y-69441889D01*
X168126853Y-69558533D01*
X168012125Y-69783697D01*
X167934032Y-70024043D01*
X167894500Y-70273638D01*
X159934244Y-70273638D01*
X159879373Y-70202128D01*
X159821248Y-70126377D01*
X159821242Y-70126370D01*
X159663629Y-69968757D01*
X159663622Y-69968751D01*
X159486782Y-69833058D01*
X159486780Y-69833057D01*
X159486774Y-69833052D01*
X159293726Y-69721595D01*
X159293722Y-69721593D01*
X159087790Y-69636293D01*
X159087783Y-69636291D01*
X159087781Y-69636290D01*
X158872463Y-69578596D01*
X158872457Y-69578595D01*
X158872452Y-69578594D01*
X158651466Y-69549501D01*
X158651463Y-69549500D01*
X158651457Y-69549500D01*
X158428543Y-69549500D01*
X158428537Y-69549500D01*
X158428533Y-69549501D01*
X158207547Y-69578594D01*
X158207540Y-69578595D01*
X158207537Y-69578596D01*
X157992219Y-69636290D01*
X157992209Y-69636293D01*
X157786277Y-69721593D01*
X157786273Y-69721595D01*
X157593226Y-69833052D01*
X157593217Y-69833058D01*
X157416377Y-69968751D01*
X157416370Y-69968757D01*
X157258757Y-70126370D01*
X157258751Y-70126377D01*
X157123058Y-70303217D01*
X157123052Y-70303226D01*
X157011595Y-70496273D01*
X157011593Y-70496277D01*
X156926293Y-70702209D01*
X156926290Y-70702219D01*
X156868597Y-70917534D01*
X156868594Y-70917547D01*
X156839501Y-71138533D01*
X156839500Y-71138549D01*
X155200500Y-71138549D01*
X155200500Y-71138543D01*
X155171404Y-70917537D01*
X155113710Y-70702219D01*
X155028405Y-70496274D01*
X154916948Y-70303226D01*
X154839373Y-70202128D01*
X154781248Y-70126377D01*
X154781242Y-70126370D01*
X154623629Y-69968757D01*
X154623622Y-69968751D01*
X154446782Y-69833058D01*
X154446780Y-69833057D01*
X154446774Y-69833052D01*
X154253726Y-69721595D01*
X154253722Y-69721593D01*
X154047790Y-69636293D01*
X154047783Y-69636291D01*
X154047781Y-69636290D01*
X153832463Y-69578596D01*
X153832457Y-69578595D01*
X153832452Y-69578594D01*
X153611466Y-69549501D01*
X153611463Y-69549500D01*
X153611457Y-69549500D01*
X153388543Y-69549500D01*
X153388537Y-69549500D01*
X153388533Y-69549501D01*
X153167547Y-69578594D01*
X153167540Y-69578595D01*
X153167537Y-69578596D01*
X152952219Y-69636290D01*
X152952209Y-69636293D01*
X152746277Y-69721593D01*
X152746273Y-69721595D01*
X152553226Y-69833052D01*
X152553217Y-69833058D01*
X152376377Y-69968751D01*
X152376370Y-69968757D01*
X152218757Y-70126370D01*
X152218751Y-70126377D01*
X152083058Y-70303217D01*
X152083052Y-70303226D01*
X151971595Y-70496273D01*
X151971593Y-70496277D01*
X151886293Y-70702209D01*
X151886290Y-70702219D01*
X151828597Y-70917534D01*
X151828594Y-70917547D01*
X151799501Y-71138533D01*
X151799500Y-71138549D01*
X138620500Y-71138549D01*
X138620500Y-71131902D01*
X138583553Y-70898631D01*
X138510566Y-70674003D01*
X138435338Y-70526361D01*
X138403343Y-70463567D01*
X138264517Y-70272490D01*
X138097510Y-70105483D01*
X137906433Y-69966657D01*
X137695996Y-69859433D01*
X137471368Y-69786446D01*
X137238097Y-69749500D01*
X137238092Y-69749500D01*
X137001908Y-69749500D01*
X137001903Y-69749500D01*
X136768631Y-69786446D01*
X136544003Y-69859433D01*
X136333566Y-69966657D01*
X136277119Y-70007669D01*
X136142490Y-70105483D01*
X136142488Y-70105485D01*
X136142487Y-70105485D01*
X135975485Y-70272487D01*
X135975485Y-70272488D01*
X135975483Y-70272490D01*
X135953152Y-70303226D01*
X135836657Y-70463566D01*
X135729433Y-70674003D01*
X135656446Y-70898631D01*
X135619500Y-71131902D01*
X134840499Y-71131902D01*
X134840499Y-70202128D01*
X134834091Y-70142517D01*
X134828071Y-70126377D01*
X134783797Y-70007671D01*
X134783793Y-70007664D01*
X134697547Y-69892455D01*
X134697544Y-69892452D01*
X134582335Y-69806206D01*
X134582328Y-69806202D01*
X134447482Y-69755908D01*
X134447483Y-69755908D01*
X134387883Y-69749501D01*
X134387881Y-69749500D01*
X134387873Y-69749500D01*
X134387864Y-69749500D01*
X132292129Y-69749500D01*
X132292123Y-69749501D01*
X132232516Y-69755908D01*
X132097671Y-69806202D01*
X132097664Y-69806206D01*
X131982455Y-69892452D01*
X131982452Y-69892455D01*
X131896206Y-70007664D01*
X131896202Y-70007671D01*
X131845908Y-70142517D01*
X131842500Y-70174223D01*
X131839501Y-70202123D01*
X131839500Y-70202135D01*
X131839500Y-72297870D01*
X131839501Y-72297876D01*
X131845908Y-72357483D01*
X131896202Y-72492328D01*
X131896206Y-72492335D01*
X131982452Y-72607544D01*
X131982455Y-72607547D01*
X132097664Y-72693793D01*
X132097671Y-72693797D01*
X132142618Y-72710561D01*
X132232517Y-72744091D01*
X132292127Y-72750500D01*
X132365500Y-72750499D01*
X132432538Y-72770183D01*
X132478294Y-72822986D01*
X132489500Y-72874499D01*
X132489500Y-77388769D01*
X132469815Y-77455808D01*
X132417011Y-77501563D01*
X132347853Y-77511507D01*
X132284297Y-77482482D01*
X132277819Y-77476450D01*
X130218421Y-75417052D01*
X130218414Y-75417046D01*
X130144729Y-75367812D01*
X130144729Y-75367813D01*
X130095491Y-75334913D01*
X129958917Y-75278343D01*
X129958907Y-75278340D01*
X129813920Y-75249500D01*
X129813918Y-75249500D01*
X124874500Y-75249500D01*
X124807461Y-75229815D01*
X124761706Y-75177011D01*
X124750500Y-75125500D01*
X124750500Y-62362230D01*
X124770185Y-62295191D01*
X124786819Y-62274549D01*
X126227049Y-60834319D01*
X126288372Y-60800834D01*
X126314730Y-60798000D01*
X131248001Y-60798000D01*
X131315040Y-60817685D01*
X131360795Y-60870489D01*
X131372001Y-60922000D01*
X131372001Y-61095376D01*
X131378408Y-61154983D01*
X131428702Y-61289828D01*
X131428706Y-61289835D01*
X131514952Y-61405044D01*
X131514955Y-61405047D01*
X131630164Y-61491293D01*
X131630171Y-61491297D01*
X131765017Y-61541591D01*
X131765016Y-61541591D01*
X131771944Y-61542335D01*
X131824627Y-61548000D01*
X133920372Y-61547999D01*
X133979983Y-61541591D01*
X134114831Y-61491296D01*
X134230046Y-61405046D01*
X134316296Y-61289831D01*
X134366591Y-61154983D01*
X134373000Y-61095373D01*
X134372999Y-59929402D01*
X135152000Y-59929402D01*
X135152000Y-60165597D01*
X135188946Y-60398868D01*
X135261933Y-60623496D01*
X135350848Y-60798000D01*
X135369157Y-60833933D01*
X135507983Y-61025010D01*
X135674990Y-61192017D01*
X135866067Y-61330843D01*
X135890863Y-61343477D01*
X136076503Y-61438066D01*
X136076505Y-61438066D01*
X136076508Y-61438068D01*
X136157694Y-61464447D01*
X136301131Y-61511053D01*
X136534403Y-61548000D01*
X136534408Y-61548000D01*
X136770597Y-61548000D01*
X137003868Y-61511053D01*
X137228492Y-61438068D01*
X137438933Y-61330843D01*
X137630010Y-61192017D01*
X137797017Y-61025010D01*
X137935843Y-60833933D01*
X138043068Y-60623492D01*
X138116053Y-60398868D01*
X138119115Y-60379534D01*
X138153000Y-60165597D01*
X138153000Y-59936049D01*
X151332000Y-59936049D01*
X151332000Y-60158950D01*
X151332001Y-60158966D01*
X151361094Y-60379952D01*
X151361095Y-60379957D01*
X151361096Y-60379963D01*
X151413148Y-60574223D01*
X151418790Y-60595280D01*
X151418793Y-60595290D01*
X151504093Y-60801222D01*
X151504095Y-60801226D01*
X151615552Y-60994274D01*
X151615557Y-60994280D01*
X151615558Y-60994282D01*
X151751251Y-61171122D01*
X151751257Y-61171129D01*
X151908870Y-61328742D01*
X151908877Y-61328748D01*
X151969806Y-61375500D01*
X152085726Y-61464448D01*
X152278774Y-61575905D01*
X152484719Y-61661210D01*
X152700037Y-61718904D01*
X152921043Y-61748000D01*
X152921050Y-61748000D01*
X153143950Y-61748000D01*
X153143957Y-61748000D01*
X153364963Y-61718904D01*
X153580281Y-61661210D01*
X153786226Y-61575905D01*
X153979274Y-61464448D01*
X154156124Y-61328747D01*
X154313747Y-61171124D01*
X154449448Y-60994274D01*
X154560905Y-60801226D01*
X154646210Y-60595281D01*
X154703904Y-60379963D01*
X154733000Y-60158957D01*
X154733000Y-59936049D01*
X156372000Y-59936049D01*
X156372000Y-60158950D01*
X156372001Y-60158966D01*
X156401094Y-60379952D01*
X156401095Y-60379957D01*
X156401096Y-60379963D01*
X156453148Y-60574223D01*
X156458790Y-60595280D01*
X156458793Y-60595290D01*
X156544093Y-60801222D01*
X156544095Y-60801226D01*
X156655552Y-60994274D01*
X156655557Y-60994280D01*
X156655558Y-60994282D01*
X156791251Y-61171122D01*
X156791257Y-61171129D01*
X156948870Y-61328742D01*
X156948877Y-61328748D01*
X157009806Y-61375500D01*
X157125726Y-61464448D01*
X157318774Y-61575905D01*
X157524719Y-61661210D01*
X157740037Y-61718904D01*
X157961043Y-61748000D01*
X157961050Y-61748000D01*
X158183950Y-61748000D01*
X158183957Y-61748000D01*
X158404963Y-61718904D01*
X158620281Y-61661210D01*
X158826226Y-61575905D01*
X159019274Y-61464448D01*
X159196124Y-61328747D01*
X159353747Y-61171124D01*
X159489448Y-60994274D01*
X159600905Y-60801226D01*
X159686210Y-60595281D01*
X159743904Y-60379963D01*
X159773000Y-60158957D01*
X159773000Y-59936043D01*
X159743904Y-59715037D01*
X159686210Y-59499719D01*
X159600905Y-59293774D01*
X159489448Y-59100726D01*
X159411873Y-58999628D01*
X159353748Y-58923877D01*
X159353742Y-58923870D01*
X159196129Y-58766257D01*
X159196122Y-58766251D01*
X159019282Y-58630558D01*
X159019280Y-58630557D01*
X159019274Y-58630552D01*
X158826226Y-58519095D01*
X158826222Y-58519093D01*
X158620290Y-58433793D01*
X158620283Y-58433791D01*
X158620281Y-58433790D01*
X158404963Y-58376096D01*
X158404957Y-58376095D01*
X158404952Y-58376094D01*
X158183966Y-58347001D01*
X158183963Y-58347000D01*
X158183957Y-58347000D01*
X157961043Y-58347000D01*
X157961037Y-58347000D01*
X157961033Y-58347001D01*
X157740047Y-58376094D01*
X157740040Y-58376095D01*
X157740037Y-58376096D01*
X157524719Y-58433790D01*
X157524709Y-58433793D01*
X157318777Y-58519093D01*
X157318773Y-58519095D01*
X157125726Y-58630552D01*
X157125717Y-58630558D01*
X156948877Y-58766251D01*
X156948870Y-58766257D01*
X156791257Y-58923870D01*
X156791251Y-58923877D01*
X156655558Y-59100717D01*
X156655552Y-59100726D01*
X156544095Y-59293773D01*
X156544093Y-59293777D01*
X156458793Y-59499709D01*
X156458790Y-59499719D01*
X156401097Y-59715034D01*
X156401094Y-59715047D01*
X156372001Y-59936033D01*
X156372000Y-59936049D01*
X154733000Y-59936049D01*
X154733000Y-59936043D01*
X154703904Y-59715037D01*
X154646210Y-59499719D01*
X154560905Y-59293774D01*
X154449448Y-59100726D01*
X154371873Y-58999628D01*
X154313748Y-58923877D01*
X154313742Y-58923870D01*
X154156129Y-58766257D01*
X154156122Y-58766251D01*
X153979282Y-58630558D01*
X153979280Y-58630557D01*
X153979274Y-58630552D01*
X153786226Y-58519095D01*
X153786222Y-58519093D01*
X153580290Y-58433793D01*
X153580283Y-58433791D01*
X153580281Y-58433790D01*
X153364963Y-58376096D01*
X153364957Y-58376095D01*
X153364952Y-58376094D01*
X153143966Y-58347001D01*
X153143963Y-58347000D01*
X153143957Y-58347000D01*
X152921043Y-58347000D01*
X152921037Y-58347000D01*
X152921033Y-58347001D01*
X152700047Y-58376094D01*
X152700040Y-58376095D01*
X152700037Y-58376096D01*
X152484719Y-58433790D01*
X152484709Y-58433793D01*
X152278777Y-58519093D01*
X152278773Y-58519095D01*
X152085726Y-58630552D01*
X152085717Y-58630558D01*
X151908877Y-58766251D01*
X151908870Y-58766257D01*
X151751257Y-58923870D01*
X151751251Y-58923877D01*
X151615558Y-59100717D01*
X151615552Y-59100726D01*
X151504095Y-59293773D01*
X151504093Y-59293777D01*
X151418793Y-59499709D01*
X151418790Y-59499719D01*
X151361097Y-59715034D01*
X151361094Y-59715047D01*
X151332001Y-59936033D01*
X151332000Y-59936049D01*
X138153000Y-59936049D01*
X138153000Y-59929402D01*
X138116053Y-59696131D01*
X138043066Y-59471503D01*
X137968846Y-59325840D01*
X137935843Y-59261067D01*
X137797017Y-59069990D01*
X137630010Y-58902983D01*
X137438933Y-58764157D01*
X137228496Y-58656933D01*
X137003868Y-58583946D01*
X136770597Y-58547000D01*
X136770592Y-58547000D01*
X136534408Y-58547000D01*
X136534403Y-58547000D01*
X136301131Y-58583946D01*
X136076503Y-58656933D01*
X135866066Y-58764157D01*
X135807755Y-58806523D01*
X135674990Y-58902983D01*
X135674988Y-58902985D01*
X135674987Y-58902985D01*
X135507985Y-59069987D01*
X135507985Y-59069988D01*
X135507983Y-59069990D01*
X135485652Y-59100726D01*
X135369157Y-59261066D01*
X135261933Y-59471503D01*
X135188946Y-59696131D01*
X135152000Y-59929402D01*
X134372999Y-59929402D01*
X134372999Y-58999628D01*
X134366591Y-58940017D01*
X134360571Y-58923877D01*
X134316297Y-58805171D01*
X134316293Y-58805164D01*
X134230047Y-58689955D01*
X134230044Y-58689952D01*
X134114835Y-58603706D01*
X134114828Y-58603702D01*
X133979982Y-58553408D01*
X133979983Y-58553408D01*
X133920383Y-58547001D01*
X133920381Y-58547000D01*
X133920373Y-58547000D01*
X133920364Y-58547000D01*
X131824629Y-58547000D01*
X131824623Y-58547001D01*
X131765016Y-58553408D01*
X131630171Y-58603702D01*
X131630164Y-58603706D01*
X131514955Y-58689952D01*
X131514952Y-58689955D01*
X131428706Y-58805164D01*
X131428702Y-58805171D01*
X131378408Y-58940017D01*
X131372001Y-58999616D01*
X131372001Y-58999623D01*
X131372000Y-58999635D01*
X131372000Y-59173000D01*
X131352315Y-59240039D01*
X131299511Y-59285794D01*
X131248000Y-59297000D01*
X125878580Y-59297000D01*
X125733592Y-59325840D01*
X125733582Y-59325843D01*
X125597009Y-59382413D01*
X125597007Y-59382414D01*
X125556145Y-59409718D01*
X125556143Y-59409719D01*
X125474089Y-59464543D01*
X125474084Y-59464547D01*
X124087680Y-60850951D01*
X124026357Y-60884436D01*
X123956665Y-60879452D01*
X123912318Y-60850951D01*
X121665073Y-58603706D01*
X119409175Y-56347807D01*
X119375690Y-56286484D01*
X119375262Y-56284432D01*
X119365894Y-56237334D01*
X119348923Y-56196363D01*
X119298016Y-56073459D01*
X119298009Y-56073446D01*
X119199464Y-55925965D01*
X119199461Y-55925961D01*
X119074038Y-55800538D01*
X119074034Y-55800535D01*
X118926553Y-55701990D01*
X118926540Y-55701983D01*
X118762667Y-55634106D01*
X118762658Y-55634103D01*
X118588694Y-55599500D01*
X118588691Y-55599500D01*
X118411309Y-55599500D01*
X118411306Y-55599500D01*
X118237341Y-55634103D01*
X118237332Y-55634106D01*
X118073459Y-55701983D01*
X118073446Y-55701990D01*
X117925965Y-55800535D01*
X117925961Y-55800538D01*
X117800538Y-55925961D01*
X117800535Y-55925965D01*
X117701990Y-56073446D01*
X117701983Y-56073459D01*
X117634106Y-56237332D01*
X117634103Y-56237341D01*
X117599500Y-56411304D01*
X112500000Y-56411304D01*
X112500000Y-54878711D01*
X173149500Y-54878711D01*
X173149500Y-55121288D01*
X173181161Y-55361785D01*
X173243947Y-55596104D01*
X173328626Y-55800536D01*
X173336776Y-55820212D01*
X173458064Y-56030289D01*
X173458066Y-56030292D01*
X173458067Y-56030293D01*
X173605733Y-56222736D01*
X173605739Y-56222743D01*
X173777256Y-56394260D01*
X173777263Y-56394266D01*
X173799474Y-56411309D01*
X173969711Y-56541936D01*
X174179788Y-56663224D01*
X174403900Y-56756054D01*
X174638211Y-56818838D01*
X174818586Y-56842584D01*
X174878711Y-56850500D01*
X174878712Y-56850500D01*
X175121289Y-56850500D01*
X175169388Y-56844167D01*
X175361789Y-56818838D01*
X175596100Y-56756054D01*
X175820212Y-56663224D01*
X176030289Y-56541936D01*
X176222738Y-56394265D01*
X176394265Y-56222738D01*
X176541936Y-56030289D01*
X176663224Y-55820212D01*
X176756054Y-55596100D01*
X176818838Y-55361789D01*
X176850500Y-55121288D01*
X176850500Y-54878712D01*
X176818838Y-54638211D01*
X176756054Y-54403900D01*
X176663224Y-54179788D01*
X176541936Y-53969711D01*
X176394265Y-53777262D01*
X176394260Y-53777256D01*
X176222743Y-53605739D01*
X176222736Y-53605733D01*
X176030293Y-53458067D01*
X176030292Y-53458066D01*
X176030289Y-53458064D01*
X175820212Y-53336776D01*
X175820205Y-53336773D01*
X175596104Y-53243947D01*
X175361785Y-53181161D01*
X175121289Y-53149500D01*
X175121288Y-53149500D01*
X174878712Y-53149500D01*
X174878711Y-53149500D01*
X174638214Y-53181161D01*
X174403895Y-53243947D01*
X174179794Y-53336773D01*
X174179785Y-53336777D01*
X173969706Y-53458067D01*
X173777263Y-53605733D01*
X173777256Y-53605739D01*
X173605739Y-53777256D01*
X173605733Y-53777263D01*
X173458067Y-53969706D01*
X173336777Y-54179785D01*
X173336773Y-54179794D01*
X173243947Y-54403895D01*
X173181161Y-54638214D01*
X173149500Y-54878711D01*
X112500000Y-54878711D01*
X112500000Y-50624500D01*
X112519685Y-50557461D01*
X112572489Y-50511706D01*
X112624000Y-50500500D01*
X174934108Y-50500500D01*
X174997294Y-50500500D01*
X175002702Y-50500617D01*
G37*
G04 #@! TD.AperFunction*
M02*
