G04 #@! TF.GenerationSoftware,KiCad,Pcbnew,9.0.0*
G04 #@! TF.CreationDate,2025-04-22T19:29:30-05:00*
G04 #@! TF.ProjectId,Fault Latch 2,4661756c-7420-44c6-9174-636820322e6b,rev?*
G04 #@! TF.SameCoordinates,Original*
G04 #@! TF.FileFunction,Soldermask,Top*
G04 #@! TF.FilePolarity,Negative*
%FSLAX46Y46*%
G04 Gerber Fmt 4.6, Leading zero omitted, Abs format (unit mm)*
G04 Created by KiCad (PCBNEW 9.0.0) date 2025-04-22 19:29:30*
%MOMM*%
%LPD*%
G01*
G04 APERTURE LIST*
G04 Aperture macros list*
%AMRoundRect*
0 Rectangle with rounded corners*
0 $1 Rounding radius*
0 $2 $3 $4 $5 $6 $7 $8 $9 X,Y pos of 4 corners*
0 Add a 4 corners polygon primitive as box body*
4,1,4,$2,$3,$4,$5,$6,$7,$8,$9,$2,$3,0*
0 Add four circle primitives for the rounded corners*
1,1,$1+$1,$2,$3*
1,1,$1+$1,$4,$5*
1,1,$1+$1,$6,$7*
1,1,$1+$1,$8,$9*
0 Add four rect primitives between the rounded corners*
20,1,$1+$1,$2,$3,$4,$5,0*
20,1,$1+$1,$4,$5,$6,$7,0*
20,1,$1+$1,$6,$7,$8,$9,0*
20,1,$1+$1,$8,$9,$2,$3,0*%
G04 Aperture macros list end*
%ADD10RoundRect,0.250000X0.550000X-0.550000X0.550000X0.550000X-0.550000X0.550000X-0.550000X-0.550000X0*%
%ADD11C,1.600000*%
%ADD12RoundRect,0.250000X-0.650000X1.000000X-0.650000X-1.000000X0.650000X-1.000000X0.650000X1.000000X0*%
%ADD13RoundRect,0.150000X-0.150000X0.587500X-0.150000X-0.587500X0.150000X-0.587500X0.150000X0.587500X0*%
%ADD14RoundRect,0.150000X-0.150000X0.512500X-0.150000X-0.512500X0.150000X-0.512500X0.150000X0.512500X0*%
%ADD15C,1.860000*%
%ADD16RoundRect,0.102000X-1.105000X1.105000X-1.105000X-1.105000X1.105000X-1.105000X1.105000X1.105000X0*%
%ADD17C,2.414000*%
%ADD18RoundRect,0.250000X-0.350000X-0.450000X0.350000X-0.450000X0.350000X0.450000X-0.350000X0.450000X0*%
%ADD19RoundRect,0.250000X1.000000X0.650000X-1.000000X0.650000X-1.000000X-0.650000X1.000000X-0.650000X0*%
%ADD20RoundRect,0.250000X0.350000X0.450000X-0.350000X0.450000X-0.350000X-0.450000X0.350000X-0.450000X0*%
%ADD21RoundRect,0.200000X-0.275000X0.200000X-0.275000X-0.200000X0.275000X-0.200000X0.275000X0.200000X0*%
%ADD22RoundRect,0.237500X0.237500X-0.300000X0.237500X0.300000X-0.237500X0.300000X-0.237500X-0.300000X0*%
%ADD23RoundRect,0.237500X-0.237500X0.300000X-0.237500X-0.300000X0.237500X-0.300000X0.237500X0.300000X0*%
%ADD24R,1.600000X1.400000*%
%ADD25RoundRect,0.200000X0.275000X-0.200000X0.275000X0.200000X-0.275000X0.200000X-0.275000X-0.200000X0*%
%ADD26RoundRect,0.250000X0.325000X0.450000X-0.325000X0.450000X-0.325000X-0.450000X0.325000X-0.450000X0*%
%ADD27RoundRect,0.140000X0.170000X-0.140000X0.170000X0.140000X-0.170000X0.140000X-0.170000X-0.140000X0*%
%ADD28RoundRect,0.100000X0.100000X-0.155000X0.100000X0.155000X-0.100000X0.155000X-0.100000X-0.155000X0*%
%ADD29RoundRect,0.150000X0.587500X0.150000X-0.587500X0.150000X-0.587500X-0.150000X0.587500X-0.150000X0*%
%ADD30RoundRect,0.250000X-0.550000X1.500000X-0.550000X-1.500000X0.550000X-1.500000X0.550000X1.500000X0*%
%ADD31C,3.200000*%
%ADD32C,1.725000*%
%ADD33RoundRect,0.150000X0.825000X0.150000X-0.825000X0.150000X-0.825000X-0.150000X0.825000X-0.150000X0*%
%ADD34RoundRect,0.150000X0.150000X-0.512500X0.150000X0.512500X-0.150000X0.512500X-0.150000X-0.512500X0*%
%ADD35RoundRect,0.140000X-0.170000X0.140000X-0.170000X-0.140000X0.170000X-0.140000X0.170000X0.140000X0*%
%ADD36RoundRect,0.140000X0.140000X0.170000X-0.140000X0.170000X-0.140000X-0.170000X0.140000X-0.170000X0*%
%ADD37RoundRect,0.200000X0.200000X0.275000X-0.200000X0.275000X-0.200000X-0.275000X0.200000X-0.275000X0*%
%ADD38RoundRect,0.150000X-0.587500X-0.150000X0.587500X-0.150000X0.587500X0.150000X-0.587500X0.150000X0*%
%ADD39RoundRect,0.200000X-0.200000X-0.275000X0.200000X-0.275000X0.200000X0.275000X-0.200000X0.275000X0*%
%ADD40RoundRect,0.237500X0.300000X0.237500X-0.300000X0.237500X-0.300000X-0.237500X0.300000X-0.237500X0*%
%ADD41RoundRect,0.250000X-0.550000X0.550000X-0.550000X-0.550000X0.550000X-0.550000X0.550000X0.550000X0*%
%ADD42RoundRect,0.100000X0.155000X0.100000X-0.155000X0.100000X-0.155000X-0.100000X0.155000X-0.100000X0*%
%ADD43RoundRect,0.237500X-0.300000X-0.237500X0.300000X-0.237500X0.300000X0.237500X-0.300000X0.237500X0*%
%ADD44RoundRect,0.150000X-0.150000X0.825000X-0.150000X-0.825000X0.150000X-0.825000X0.150000X0.825000X0*%
%ADD45C,2.400000*%
%ADD46R,2.000000X2.000000*%
%ADD47C,2.000000*%
%ADD48RoundRect,0.150000X0.512500X0.150000X-0.512500X0.150000X-0.512500X-0.150000X0.512500X-0.150000X0*%
%ADD49RoundRect,0.250000X-0.350000X0.850000X-0.350000X-0.850000X0.350000X-0.850000X0.350000X0.850000X0*%
%ADD50RoundRect,0.249997X-2.650003X2.950003X-2.650003X-2.950003X2.650003X-2.950003X2.650003X2.950003X0*%
%ADD51RoundRect,0.250000X-0.475000X0.337500X-0.475000X-0.337500X0.475000X-0.337500X0.475000X0.337500X0*%
%ADD52RoundRect,0.140000X-0.140000X-0.170000X0.140000X-0.170000X0.140000X0.170000X-0.140000X0.170000X0*%
%ADD53RoundRect,0.250000X0.450000X-0.325000X0.450000X0.325000X-0.450000X0.325000X-0.450000X-0.325000X0*%
G04 APERTURE END LIST*
D10*
X119507000Y-86584500D03*
D11*
X122047000Y-86584500D03*
X122047000Y-78964500D03*
X119507000Y-78964500D03*
D12*
X167204500Y-74259500D03*
X167204500Y-78259500D03*
D13*
X140212500Y-55212500D03*
X138312500Y-55212500D03*
X139262500Y-57087500D03*
D14*
X84272000Y-58134500D03*
X83322000Y-58134500D03*
X82372000Y-58134500D03*
X82372000Y-60409500D03*
X84272000Y-60409500D03*
D15*
X115562000Y-107072000D03*
D16*
X115562000Y-111522000D03*
D17*
X115562000Y-117872000D03*
D18*
X137262500Y-59400000D03*
X139262500Y-59400000D03*
D19*
X101422000Y-92172000D03*
X97422000Y-92172000D03*
D15*
X137597000Y-107072000D03*
D16*
X137597000Y-111522000D03*
D17*
X137597000Y-117872000D03*
D20*
X162362500Y-63700000D03*
X160362500Y-63700000D03*
D15*
X104022000Y-107072000D03*
D16*
X104022000Y-111522000D03*
D17*
X104022000Y-117872000D03*
D20*
X129062500Y-54650000D03*
X127062500Y-54650000D03*
X130123131Y-76779500D03*
X128123131Y-76779500D03*
D21*
X90822000Y-100247000D03*
X90822000Y-101897000D03*
D20*
X145762500Y-63400000D03*
X143762500Y-63400000D03*
D18*
X89147000Y-72897000D03*
X91147000Y-72897000D03*
D22*
X158512500Y-57112500D03*
X158512500Y-55387500D03*
D23*
X85222000Y-86409500D03*
X85222000Y-88134500D03*
D15*
X127022000Y-107072000D03*
D16*
X127022000Y-111522000D03*
D17*
X127022000Y-117872000D03*
D12*
X145224500Y-74104500D03*
X145224500Y-78104500D03*
D21*
X103722000Y-90447000D03*
X103722000Y-92097000D03*
D18*
X91772000Y-89447000D03*
X93772000Y-89447000D03*
D10*
X128097000Y-86604500D03*
D11*
X130637000Y-86604500D03*
X130637000Y-78984500D03*
X128097000Y-78984500D03*
D24*
X149762500Y-63650000D03*
X157762500Y-63650000D03*
X149762500Y-68150000D03*
X157762500Y-68150000D03*
D25*
X78522000Y-62997000D03*
X78522000Y-61347000D03*
D26*
X102547000Y-74072000D03*
X100497000Y-74072000D03*
D20*
X162262500Y-55250000D03*
X160262500Y-55250000D03*
D12*
X156829500Y-74209500D03*
X156829500Y-78209500D03*
D27*
X85222000Y-54132000D03*
X85222000Y-53172000D03*
D10*
X137472000Y-86584500D03*
D11*
X140012000Y-86584500D03*
X140012000Y-78964500D03*
X137472000Y-78964500D03*
D28*
X105922000Y-99472000D03*
X104922000Y-99472000D03*
X105422000Y-100762000D03*
D29*
X162200000Y-61350000D03*
X162200000Y-59450000D03*
X160325000Y-60400000D03*
D30*
X76322000Y-93272000D03*
X76322000Y-98872000D03*
D20*
X129062500Y-56900000D03*
X127062500Y-56900000D03*
D22*
X125312500Y-56762500D03*
X125312500Y-55037500D03*
D24*
X133012500Y-63400000D03*
X141012500Y-63400000D03*
X133012500Y-67900000D03*
X141012500Y-67900000D03*
D29*
X129000000Y-61100000D03*
X129000000Y-59200000D03*
X127125000Y-60150000D03*
D31*
X174222000Y-49072000D03*
D32*
X79222000Y-86582000D03*
X79222000Y-84042000D03*
X79222000Y-81502000D03*
X79222000Y-78962000D03*
D33*
X94237500Y-63095000D03*
X94237500Y-61825000D03*
X94237500Y-60555000D03*
X94237500Y-59285000D03*
X94237500Y-58015000D03*
X94237500Y-56745000D03*
X94237500Y-55475000D03*
X94237500Y-54205000D03*
X89287500Y-54205000D03*
X89287500Y-55475000D03*
X89287500Y-56745000D03*
X89287500Y-58015000D03*
X89287500Y-59285000D03*
X89287500Y-60555000D03*
X89287500Y-61825000D03*
X89287500Y-63095000D03*
D23*
X101962500Y-54287500D03*
X101962500Y-56012500D03*
D34*
X105772000Y-66509500D03*
X106722000Y-66509500D03*
X107672000Y-66509500D03*
X107672000Y-64234500D03*
X105772000Y-64234500D03*
D31*
X74222000Y-129072000D03*
D20*
X130372000Y-89299500D03*
X128372000Y-89299500D03*
D35*
X75722000Y-73192000D03*
X75722000Y-74152000D03*
D36*
X75705000Y-64625000D03*
X74745000Y-64625000D03*
D37*
X83997000Y-62147000D03*
X82347000Y-62147000D03*
D38*
X105484500Y-92122000D03*
X105484500Y-94022000D03*
X107359500Y-93072000D03*
D15*
X91757000Y-107084500D03*
D16*
X91757000Y-111534500D03*
D17*
X91757000Y-117884500D03*
D15*
X78057000Y-105134500D03*
D16*
X78057000Y-109584500D03*
D17*
X78057000Y-115934500D03*
D39*
X76875000Y-64415000D03*
X78525000Y-64415000D03*
D40*
X103984500Y-64272000D03*
X102259500Y-64272000D03*
D20*
X162262500Y-57400000D03*
X160262500Y-57400000D03*
D41*
X91922000Y-78992000D03*
D11*
X89382000Y-78992000D03*
X89382000Y-86612000D03*
X91922000Y-86612000D03*
D13*
X90172000Y-94084500D03*
X88272000Y-94084500D03*
X89222000Y-95959500D03*
D15*
X162122000Y-106397000D03*
D16*
X162122000Y-110847000D03*
D17*
X162122000Y-117197000D03*
D18*
X160362500Y-66100000D03*
X162362500Y-66100000D03*
D42*
X85022000Y-78972000D03*
X85022000Y-79972000D03*
X86312000Y-79472000D03*
D20*
X145762500Y-54900000D03*
X143762500Y-54900000D03*
D43*
X105759500Y-62172000D03*
X107484500Y-62172000D03*
D39*
X104597000Y-98072000D03*
X106247000Y-98072000D03*
D44*
X79515000Y-66430000D03*
X78245000Y-66430000D03*
X76975000Y-66430000D03*
X75705000Y-66430000D03*
X75705000Y-71380000D03*
X76975000Y-71380000D03*
X78245000Y-71380000D03*
X79515000Y-71380000D03*
D29*
X145700000Y-61250000D03*
X145700000Y-59350000D03*
X143825000Y-60300000D03*
D45*
X173177000Y-94387000D03*
X173177000Y-99427000D03*
D46*
X173177000Y-74227000D03*
D47*
X173177000Y-78007000D03*
D18*
X120562500Y-59400000D03*
X122562500Y-59400000D03*
D26*
X174622500Y-58090000D03*
X172572500Y-58090000D03*
D15*
X151629465Y-106386340D03*
D16*
X151629465Y-110836340D03*
D17*
X151629465Y-117186340D03*
D18*
X143762500Y-65800000D03*
X145762500Y-65800000D03*
D40*
X84197000Y-76772000D03*
X82472000Y-76772000D03*
D22*
X142012500Y-56762500D03*
X142012500Y-55037500D03*
D27*
X85322000Y-62852000D03*
X85322000Y-61892000D03*
D18*
X91772000Y-96997000D03*
X93772000Y-96997000D03*
D45*
X151724500Y-94104500D03*
X151724500Y-99144500D03*
D46*
X151724500Y-73944500D03*
D47*
X151724500Y-77724500D03*
D43*
X89259094Y-64899503D03*
X90984094Y-64899503D03*
D48*
X106130000Y-54272500D03*
X106130000Y-53322500D03*
X106130000Y-52372500D03*
X103855000Y-52372500D03*
X103855000Y-54272500D03*
D18*
X127062500Y-65650000D03*
X129062500Y-65650000D03*
D38*
X82984500Y-99122000D03*
X82984500Y-101022000D03*
X84859500Y-100072000D03*
D41*
X101397000Y-78667000D03*
D11*
X98857000Y-78667000D03*
X98857000Y-86287000D03*
X101397000Y-86287000D03*
D18*
X153762500Y-59650000D03*
X155762500Y-59650000D03*
D24*
X116512500Y-63400000D03*
X124512500Y-63400000D03*
X116512500Y-67900000D03*
X124512500Y-67900000D03*
D45*
X162927000Y-94387000D03*
X162927000Y-99427000D03*
D46*
X162927000Y-74227000D03*
D47*
X162927000Y-78007000D03*
D18*
X100522000Y-71972000D03*
X102522000Y-71972000D03*
D27*
X76970000Y-74152000D03*
X76970000Y-73192000D03*
D14*
X83972000Y-50934500D03*
X83022000Y-50934500D03*
X82072000Y-50934500D03*
X82072000Y-53209500D03*
X83972000Y-53209500D03*
D20*
X145762500Y-57150000D03*
X143762500Y-57150000D03*
X137472000Y-89279500D03*
X135472000Y-89279500D03*
D19*
X101422000Y-96772000D03*
X97422000Y-96772000D03*
D31*
X174222000Y-129072000D03*
D49*
X174630000Y-61040000D03*
D50*
X172350000Y-67340000D03*
D49*
X170070000Y-61040000D03*
D14*
X103972000Y-59734500D03*
X103022000Y-59734500D03*
X102072000Y-59734500D03*
X102072000Y-62009500D03*
X103972000Y-62009500D03*
D20*
X170747500Y-58090000D03*
X168747500Y-58090000D03*
D41*
X110922000Y-78992000D03*
D11*
X108382000Y-78992000D03*
X108382000Y-86612000D03*
X110922000Y-86612000D03*
D20*
X89722000Y-98072000D03*
X87722000Y-98072000D03*
X129062500Y-63400000D03*
X127062500Y-63400000D03*
D51*
X83222000Y-86234500D03*
X83222000Y-88309500D03*
D20*
X121472000Y-76779500D03*
X119472000Y-76779500D03*
X139472000Y-76779500D03*
X137472000Y-76779500D03*
D28*
X96322000Y-73527000D03*
X95322000Y-73527000D03*
X95822000Y-74817000D03*
D31*
X74222000Y-49072000D03*
D13*
X123512500Y-55212500D03*
X121612500Y-55212500D03*
X122562500Y-57087500D03*
D15*
X173647000Y-106372000D03*
D16*
X173647000Y-110822000D03*
D17*
X173647000Y-117172000D03*
D13*
X156712500Y-55462500D03*
X154812500Y-55462500D03*
X155762500Y-57337500D03*
D52*
X79495000Y-73100000D03*
X80455000Y-73100000D03*
D53*
X89147000Y-76847000D03*
X89147000Y-74797000D03*
D37*
X110697000Y-102147000D03*
X109047000Y-102147000D03*
D18*
X118722000Y-89072000D03*
X120722000Y-89072000D03*
M02*
