G04 #@! TF.GenerationSoftware,KiCad,Pcbnew,9.0.0*
G04 #@! TF.CreationDate,2025-04-14T20:08:49-05:00*
G04 #@! TF.ProjectId,Fault Latch 2,4661756c-7420-44c6-9174-636820322e6b,rev?*
G04 #@! TF.SameCoordinates,Original*
G04 #@! TF.FileFunction,Legend,Bot*
G04 #@! TF.FilePolarity,Positive*
%FSLAX46Y46*%
G04 Gerber Fmt 4.6, Leading zero omitted, Abs format (unit mm)*
G04 Created by KiCad (PCBNEW 9.0.0) date 2025-04-14 20:08:49*
%MOMM*%
%LPD*%
G01*
G04 APERTURE LIST*
G04 Aperture macros list*
%AMRoundRect*
0 Rectangle with rounded corners*
0 $1 Rounding radius*
0 $2 $3 $4 $5 $6 $7 $8 $9 X,Y pos of 4 corners*
0 Add a 4 corners polygon primitive as box body*
4,1,4,$2,$3,$4,$5,$6,$7,$8,$9,$2,$3,0*
0 Add four circle primitives for the rounded corners*
1,1,$1+$1,$2,$3*
1,1,$1+$1,$4,$5*
1,1,$1+$1,$6,$7*
1,1,$1+$1,$8,$9*
0 Add four rect primitives between the rounded corners*
20,1,$1+$1,$2,$3,$4,$5,0*
20,1,$1+$1,$4,$5,$6,$7,0*
20,1,$1+$1,$6,$7,$8,$9,0*
20,1,$1+$1,$8,$9,$2,$3,0*%
G04 Aperture macros list end*
%ADD10RoundRect,0.250000X0.550000X0.550000X-0.550000X0.550000X-0.550000X-0.550000X0.550000X-0.550000X0*%
%ADD11C,1.600000*%
%ADD12C,2.400000*%
%ADD13R,2.000000X2.000000*%
%ADD14C,2.000000*%
%ADD15C,1.860000*%
%ADD16R,2.210000X2.210000*%
%ADD17C,2.210000*%
%ADD18RoundRect,0.250000X-0.550000X-0.550000X0.550000X-0.550000X0.550000X0.550000X-0.550000X0.550000X0*%
%ADD19C,3.200000*%
%ADD20C,1.725000*%
G04 APERTURE END LIST*
%LPC*%
D10*
X114305000Y-105025000D03*
D11*
X114305000Y-102485000D03*
X106685000Y-102485000D03*
X106685000Y-105025000D03*
D12*
X153032500Y-60047500D03*
X158072500Y-60047500D03*
D13*
X132872500Y-60047500D03*
D14*
X136652500Y-60047500D03*
D15*
X130587500Y-98750000D03*
D16*
X135037500Y-98750000D03*
D17*
X141387500Y-98750000D03*
D15*
X130700000Y-110115000D03*
D16*
X135150000Y-110115000D03*
D17*
X141500000Y-110115000D03*
D18*
X106695000Y-60075000D03*
D11*
X106695000Y-62615000D03*
X114315000Y-62615000D03*
X114315000Y-60075000D03*
D10*
X114305000Y-114025000D03*
D11*
X114305000Y-111485000D03*
X106685000Y-111485000D03*
X106685000Y-114025000D03*
D10*
X114305000Y-95750000D03*
D11*
X114305000Y-93210000D03*
X106685000Y-93210000D03*
X106685000Y-95750000D03*
D12*
X153500000Y-71250000D03*
X158540000Y-71250000D03*
D13*
X133340000Y-71250000D03*
D14*
X137120000Y-71250000D03*
D19*
X80000000Y-55000000D03*
D20*
X114310000Y-140500000D03*
X111770000Y-140500000D03*
X109230000Y-140500000D03*
X106690000Y-140500000D03*
D19*
X175000000Y-145000000D03*
D15*
X130695563Y-127818634D03*
D16*
X135145563Y-127818634D03*
D17*
X141495563Y-127818634D03*
D15*
X169500000Y-106087500D03*
D16*
X169500000Y-101637500D03*
D17*
X169500000Y-95287500D03*
D18*
X106695000Y-79475000D03*
D11*
X106695000Y-82015000D03*
X114315000Y-82015000D03*
X114315000Y-79475000D03*
D15*
X169500000Y-131550000D03*
D16*
X169500000Y-127100000D03*
D17*
X169500000Y-120750000D03*
D12*
X153400000Y-82750000D03*
X158440000Y-82750000D03*
D13*
X133240000Y-82750000D03*
D14*
X137020000Y-82750000D03*
D15*
X169500000Y-81200000D03*
D16*
X169500000Y-76750000D03*
D17*
X169500000Y-70400000D03*
D19*
X175000000Y-55000000D03*
D18*
X106695000Y-69675000D03*
D11*
X106695000Y-72215000D03*
X114315000Y-72215000D03*
X114315000Y-69675000D03*
D19*
X80000000Y-145000000D03*
%LPD*%
M02*
