M48
; DRILL file {KiCad 9.0.0} date 2025-04-19T00:24:37-0500
; FORMAT={-:-/ absolute / metric / decimal}
; #@! TF.CreationDate,2025-04-19T00:24:37-05:00
; #@! TF.GenerationSoftware,Kicad,Pcbnew,9.0.0
; #@! TF.FileFunction,MixedPlating,1,2
FMAT,2
METRIC
; #@! TA.AperFunction,Plated,PTH,ViaDrill
T1C0.300
; #@! TA.AperFunction,Plated,PTH,ComponentDrill
T2C1.300
; #@! TA.AperFunction,Plated,PTH,ComponentDrill
T3C1.860
; #@! TA.AperFunction,NonPlated,NPTH,ComponentDrill
T4C1.860
; #@! TA.AperFunction,NonPlated,NPTH,ComponentDrill
T5C3.200
%
G90
G05
T1
X110.0Y-87.5
X110.0Y-90.0
X110.0Y-92.5
X110.0Y-95.0
X110.0Y-97.5
X110.0Y-100.0
X110.0Y-102.5
X110.0Y-105.0
X110.0Y-107.5
X110.0Y-110.0
X110.0Y-112.5
X110.0Y-115.0
X110.0Y-117.5
X110.0Y-120.0
X110.0Y-122.5
X110.07Y-85.019
X112.5Y-87.5
X112.5Y-95.0
X112.5Y-97.5
X112.5Y-100.0
X112.5Y-102.5
X112.5Y-105.0
X112.5Y-107.5
X112.5Y-110.0
X112.5Y-112.5
X112.5Y-115.0
X112.5Y-117.5
X112.5Y-120.0
X112.5Y-122.5
X112.57Y-85.019
X115.0Y-87.5
X115.0Y-97.5
X115.0Y-100.0
X115.0Y-102.5
X115.0Y-105.0
X115.0Y-107.5
X115.0Y-110.0
X115.0Y-112.5
X115.0Y-115.0
X115.0Y-117.5
X115.0Y-120.0
X115.0Y-122.5
X115.07Y-85.019
X117.5Y-77.5
X117.5Y-80.0
X117.5Y-82.5
X117.5Y-85.0
X117.5Y-87.5
X117.5Y-100.0
X117.5Y-102.5
X117.5Y-105.0
X117.5Y-107.5
X117.5Y-110.0
X117.5Y-112.5
X117.5Y-115.0
X117.5Y-117.5
X117.5Y-120.0
X117.5Y-122.5
X117.5Y-125.0
X120.0Y-77.5
X120.0Y-80.0
X120.0Y-82.5
X120.0Y-85.0
X120.0Y-87.5
X120.0Y-102.5
X120.0Y-105.0
X120.0Y-107.5
X120.0Y-110.0
X120.0Y-112.5
X120.0Y-115.0
X120.0Y-117.5
X120.0Y-120.0
X120.0Y-122.5
X120.0Y-125.0
X122.5Y-77.5
X122.5Y-80.0
X122.5Y-82.5
X122.5Y-85.0
X122.5Y-87.5
X122.5Y-90.0
X122.5Y-95.0
X122.5Y-97.5
X122.5Y-100.0
X122.5Y-102.5
X122.5Y-105.0
X122.5Y-107.5
X122.5Y-110.0
X122.5Y-112.5
X122.5Y-115.0
X122.5Y-117.5
X122.5Y-120.0
X122.5Y-122.5
X122.5Y-125.0
X125.0Y-77.5
X125.0Y-80.0
X125.0Y-82.5
X125.0Y-85.0
X125.0Y-87.5
X125.0Y-90.0
X125.0Y-92.5
X125.0Y-95.0
X125.0Y-97.5
X125.0Y-100.0
X125.0Y-125.0
X127.5Y-77.5
X127.5Y-90.0
X127.5Y-92.5
X127.5Y-95.0
X127.5Y-97.5
X127.5Y-100.0
X127.5Y-102.5
X127.5Y-105.0
X127.5Y-125.0
X128.0Y-86.5
X130.0Y-77.5
X130.0Y-90.0
X130.0Y-92.5
X130.0Y-95.0
X130.0Y-97.5
X130.0Y-100.0
X130.0Y-102.5
X130.0Y-105.0
X130.0Y-125.0
X130.5Y-89.0
X132.5Y-90.0
X132.5Y-92.5
X132.5Y-95.0
X132.5Y-97.5
X132.5Y-100.0
X132.5Y-125.0
X135.0Y-125.0
X137.5Y-97.5
X137.5Y-100.0
X137.5Y-102.5
X137.5Y-105.0
X137.5Y-107.5
X137.5Y-125.0
X140.0Y-80.0
X140.0Y-82.5
X140.0Y-97.5
X140.0Y-100.0
X140.0Y-102.5
X140.0Y-105.0
X140.0Y-107.5
X140.0Y-125.0
X142.5Y-80.0
X142.5Y-82.5
X142.5Y-97.5
X142.5Y-100.0
X142.5Y-102.5
X142.5Y-105.0
X142.5Y-107.5
X142.5Y-110.0
X142.5Y-112.5
X142.5Y-115.0
X142.5Y-117.5
X142.5Y-125.0
X145.0Y-97.5
X145.0Y-100.0
X145.0Y-102.5
X145.0Y-105.0
X145.0Y-107.5
X145.0Y-125.0
X147.5Y-97.5
X147.5Y-100.0
X147.5Y-102.5
X147.5Y-105.0
X147.5Y-107.5
X147.5Y-125.0
X150.0Y-125.0
X152.5Y-97.5
X152.5Y-100.0
X152.5Y-102.5
X152.5Y-105.0
X152.5Y-107.5
X154.0Y-83.5
X154.0Y-86.0
X154.0Y-88.5
X155.0Y-105.0
X155.0Y-107.5
X155.0Y-115.0
X155.0Y-117.5
X155.812Y-110.0
X155.812Y-112.5
X160.0Y-97.5
X160.0Y-100.0
X163.0Y-88.5
X165.0Y-92.5
X165.0Y-95.0
X165.0Y-97.5
X165.0Y-102.5
X165.0Y-105.0
X167.5Y-80.0
X167.5Y-92.5
X167.5Y-95.0
X167.5Y-97.5
X167.5Y-102.5
X167.5Y-105.0
X169.862Y-112.618
X169.862Y-115.118
X170.0Y-80.0
X170.0Y-82.5
X170.0Y-92.5
X170.0Y-95.0
X170.0Y-97.5
X170.0Y-102.5
X170.0Y-105.0
X170.0Y-107.5
X170.0Y-110.0
X170.0Y-117.5
X170.0Y-120.0
X170.0Y-125.0
X172.5Y-80.0
X172.5Y-82.5
X172.5Y-85.0
X172.5Y-87.5
X172.5Y-90.0
X172.5Y-92.5
X172.5Y-95.0
X172.5Y-97.5
X172.5Y-100.0
X172.5Y-102.5
X172.5Y-105.0
X172.5Y-107.5
X172.5Y-110.0
X172.5Y-112.5
X172.5Y-115.0
X172.5Y-117.5
X172.5Y-120.0
X172.5Y-125.0
X175.0Y-80.0
X175.0Y-82.5
X175.0Y-85.0
X175.0Y-87.5
X175.0Y-90.0
X175.0Y-92.5
X175.0Y-95.0
X175.0Y-97.5
X175.0Y-100.0
X175.0Y-102.5
X175.0Y-105.0
X175.0Y-107.5
X175.0Y-110.0
X175.0Y-112.5
X175.0Y-115.0
X175.0Y-117.5
X175.0Y-120.0
X175.0Y-125.0
X177.5Y-80.0
X177.5Y-82.5
X177.5Y-85.0
X177.5Y-87.5
X177.5Y-90.0
X177.5Y-92.5
X177.5Y-95.0
X177.5Y-97.5
X177.5Y-100.0
X177.5Y-102.5
X177.5Y-105.0
X177.5Y-107.5
X177.5Y-110.0
X177.5Y-112.5
X177.5Y-115.0
X177.5Y-117.5
X177.5Y-120.0
X179.936Y-85.02
X180.0Y-87.5
X180.0Y-90.0
X180.0Y-92.5
X180.0Y-95.0
X180.0Y-97.5
X180.0Y-100.0
X180.0Y-102.5
X180.0Y-105.0
X180.0Y-107.5
X180.0Y-110.0
X180.0Y-112.5
X180.0Y-115.0
X180.0Y-117.5
X180.0Y-120.0
X182.436Y-85.02
X182.5Y-87.5
X182.5Y-90.0
X182.5Y-92.5
X182.5Y-95.0
X182.5Y-97.5
X182.5Y-100.0
X182.5Y-102.5
X182.5Y-105.0
X182.5Y-107.5
X182.5Y-110.0
X182.5Y-112.5
X182.5Y-115.0
X182.5Y-117.5
X182.5Y-120.0
T2
X138.312Y-93.962
X138.312Y-110.462
X138.312Y-117.462
X145.812Y-93.962
X145.812Y-113.962
X152.125Y-93.925
X152.125Y-110.425
X152.125Y-117.425
X159.625Y-93.925
X159.625Y-113.925
T3
X129.812Y-107.812
X129.812Y-114.162
X145.037Y-85.135
X151.387Y-85.135
X166.812Y-107.785
X166.812Y-114.135
T4
X129.812Y-118.612
X155.838Y-85.135
X166.812Y-118.585
T5
X112.0Y-79.5
X112.0Y-129.5
X182.0Y-79.5
X182.0Y-129.5
M30
