G04 #@! TF.GenerationSoftware,KiCad,Pcbnew,9.0.0*
G04 #@! TF.CreationDate,2025-04-19T00:24:36-05:00*
G04 #@! TF.ProjectId,Charging_PCB,43686172-6769-46e6-975f-5043422e6b69,rev?*
G04 #@! TF.SameCoordinates,Original*
G04 #@! TF.FileFunction,Legend,Top*
G04 #@! TF.FilePolarity,Positive*
%FSLAX46Y46*%
G04 Gerber Fmt 4.6, Leading zero omitted, Abs format (unit mm)*
G04 Created by KiCad (PCBNEW 9.0.0) date 2025-04-19 00:24:36*
%MOMM*%
%LPD*%
G01*
G04 APERTURE LIST*
G04 Aperture macros list*
%AMRoundRect*
0 Rectangle with rounded corners*
0 $1 Rounding radius*
0 $2 $3 $4 $5 $6 $7 $8 $9 X,Y pos of 4 corners*
0 Add a 4 corners polygon primitive as box body*
4,1,4,$2,$3,$4,$5,$6,$7,$8,$9,$2,$3,0*
0 Add four circle primitives for the rounded corners*
1,1,$1+$1,$2,$3*
1,1,$1+$1,$4,$5*
1,1,$1+$1,$6,$7*
1,1,$1+$1,$8,$9*
0 Add four rect primitives between the rounded corners*
20,1,$1+$1,$2,$3,$4,$5,0*
20,1,$1+$1,$4,$5,$6,$7,0*
20,1,$1+$1,$6,$7,$8,$9,0*
20,1,$1+$1,$8,$9,$2,$3,0*%
G04 Aperture macros list end*
%ADD10C,0.300000*%
%ADD11C,0.200000*%
%ADD12C,0.250000*%
%ADD13C,0.000000*%
%ADD14C,0.127000*%
%ADD15C,0.120000*%
%ADD16C,0.150000*%
%ADD17RoundRect,0.102000X1.105000X-1.105000X1.105000X1.105000X-1.105000X1.105000X-1.105000X-1.105000X0*%
%ADD18C,1.860000*%
%ADD19C,2.414000*%
%ADD20C,2.000000*%
%ADD21R,2.000000X2.000000*%
%ADD22RoundRect,0.250000X-0.450000X0.350000X-0.450000X-0.350000X0.450000X-0.350000X0.450000X0.350000X0*%
%ADD23C,3.200000*%
%ADD24RoundRect,0.100000X-0.155000X-0.100000X0.155000X-0.100000X0.155000X0.100000X-0.155000X0.100000X0*%
%ADD25RoundRect,0.250000X1.000000X0.650000X-1.000000X0.650000X-1.000000X-0.650000X1.000000X-0.650000X0*%
%ADD26RoundRect,0.102000X1.105000X1.105000X-1.105000X1.105000X-1.105000X-1.105000X1.105000X-1.105000X0*%
G04 APERTURE END LIST*
D10*
X166340225Y-98872257D02*
X166197368Y-98800828D01*
X166197368Y-98800828D02*
X165983082Y-98800828D01*
X165983082Y-98800828D02*
X165768796Y-98872257D01*
X165768796Y-98872257D02*
X165625939Y-99015114D01*
X165625939Y-99015114D02*
X165554510Y-99157971D01*
X165554510Y-99157971D02*
X165483082Y-99443685D01*
X165483082Y-99443685D02*
X165483082Y-99657971D01*
X165483082Y-99657971D02*
X165554510Y-99943685D01*
X165554510Y-99943685D02*
X165625939Y-100086542D01*
X165625939Y-100086542D02*
X165768796Y-100229400D01*
X165768796Y-100229400D02*
X165983082Y-100300828D01*
X165983082Y-100300828D02*
X166125939Y-100300828D01*
X166125939Y-100300828D02*
X166340225Y-100229400D01*
X166340225Y-100229400D02*
X166411653Y-100157971D01*
X166411653Y-100157971D02*
X166411653Y-99657971D01*
X166411653Y-99657971D02*
X166125939Y-99657971D01*
X167054510Y-100300828D02*
X167054510Y-98800828D01*
X167054510Y-98800828D02*
X167911653Y-100300828D01*
X167911653Y-100300828D02*
X167911653Y-98800828D01*
X168625939Y-100300828D02*
X168625939Y-98800828D01*
X168625939Y-98800828D02*
X168983082Y-98800828D01*
X168983082Y-98800828D02*
X169197368Y-98872257D01*
X169197368Y-98872257D02*
X169340225Y-99015114D01*
X169340225Y-99015114D02*
X169411654Y-99157971D01*
X169411654Y-99157971D02*
X169483082Y-99443685D01*
X169483082Y-99443685D02*
X169483082Y-99657971D01*
X169483082Y-99657971D02*
X169411654Y-99943685D01*
X169411654Y-99943685D02*
X169340225Y-100086542D01*
X169340225Y-100086542D02*
X169197368Y-100229400D01*
X169197368Y-100229400D02*
X168983082Y-100300828D01*
X168983082Y-100300828D02*
X168625939Y-100300828D01*
X126554510Y-98300828D02*
X126554510Y-99515114D01*
X126554510Y-99515114D02*
X126625939Y-99657971D01*
X126625939Y-99657971D02*
X126697368Y-99729400D01*
X126697368Y-99729400D02*
X126840225Y-99800828D01*
X126840225Y-99800828D02*
X127125939Y-99800828D01*
X127125939Y-99800828D02*
X127268796Y-99729400D01*
X127268796Y-99729400D02*
X127340225Y-99657971D01*
X127340225Y-99657971D02*
X127411653Y-99515114D01*
X127411653Y-99515114D02*
X127411653Y-98300828D01*
X128125939Y-98800828D02*
X128125939Y-99800828D01*
X128125939Y-98943685D02*
X128197368Y-98872257D01*
X128197368Y-98872257D02*
X128340225Y-98800828D01*
X128340225Y-98800828D02*
X128554511Y-98800828D01*
X128554511Y-98800828D02*
X128697368Y-98872257D01*
X128697368Y-98872257D02*
X128768797Y-99015114D01*
X128768797Y-99015114D02*
X128768797Y-99800828D01*
X130125940Y-98800828D02*
X130125940Y-99800828D01*
X129483082Y-98800828D02*
X129483082Y-99586542D01*
X129483082Y-99586542D02*
X129554511Y-99729400D01*
X129554511Y-99729400D02*
X129697368Y-99800828D01*
X129697368Y-99800828D02*
X129911654Y-99800828D01*
X129911654Y-99800828D02*
X130054511Y-99729400D01*
X130054511Y-99729400D02*
X130125940Y-99657971D01*
X130768797Y-99729400D02*
X130911654Y-99800828D01*
X130911654Y-99800828D02*
X131197368Y-99800828D01*
X131197368Y-99800828D02*
X131340225Y-99729400D01*
X131340225Y-99729400D02*
X131411654Y-99586542D01*
X131411654Y-99586542D02*
X131411654Y-99515114D01*
X131411654Y-99515114D02*
X131340225Y-99372257D01*
X131340225Y-99372257D02*
X131197368Y-99300828D01*
X131197368Y-99300828D02*
X130983083Y-99300828D01*
X130983083Y-99300828D02*
X130840225Y-99229400D01*
X130840225Y-99229400D02*
X130768797Y-99086542D01*
X130768797Y-99086542D02*
X130768797Y-99015114D01*
X130768797Y-99015114D02*
X130840225Y-98872257D01*
X130840225Y-98872257D02*
X130983083Y-98800828D01*
X130983083Y-98800828D02*
X131197368Y-98800828D01*
X131197368Y-98800828D02*
X131340225Y-98872257D01*
X132625940Y-99729400D02*
X132483083Y-99800828D01*
X132483083Y-99800828D02*
X132197369Y-99800828D01*
X132197369Y-99800828D02*
X132054511Y-99729400D01*
X132054511Y-99729400D02*
X131983083Y-99586542D01*
X131983083Y-99586542D02*
X131983083Y-99015114D01*
X131983083Y-99015114D02*
X132054511Y-98872257D01*
X132054511Y-98872257D02*
X132197369Y-98800828D01*
X132197369Y-98800828D02*
X132483083Y-98800828D01*
X132483083Y-98800828D02*
X132625940Y-98872257D01*
X132625940Y-98872257D02*
X132697369Y-99015114D01*
X132697369Y-99015114D02*
X132697369Y-99157971D01*
X132697369Y-99157971D02*
X131983083Y-99300828D01*
X133983083Y-99800828D02*
X133983083Y-98300828D01*
X133983083Y-99729400D02*
X133840225Y-99800828D01*
X133840225Y-99800828D02*
X133554511Y-99800828D01*
X133554511Y-99800828D02*
X133411654Y-99729400D01*
X133411654Y-99729400D02*
X133340225Y-99657971D01*
X133340225Y-99657971D02*
X133268797Y-99515114D01*
X133268797Y-99515114D02*
X133268797Y-99086542D01*
X133268797Y-99086542D02*
X133340225Y-98943685D01*
X133340225Y-98943685D02*
X133411654Y-98872257D01*
X133411654Y-98872257D02*
X133554511Y-98800828D01*
X133554511Y-98800828D02*
X133840225Y-98800828D01*
X133840225Y-98800828D02*
X133983083Y-98872257D01*
D11*
X125869673Y-122486266D02*
X126631578Y-122486266D01*
X126250625Y-122867219D02*
X126250625Y-122105314D01*
X127631577Y-122867219D02*
X127060149Y-122867219D01*
X127345863Y-122867219D02*
X127345863Y-121867219D01*
X127345863Y-121867219D02*
X127250625Y-122010076D01*
X127250625Y-122010076D02*
X127155387Y-122105314D01*
X127155387Y-122105314D02*
X127060149Y-122152933D01*
X128012530Y-121962457D02*
X128060149Y-121914838D01*
X128060149Y-121914838D02*
X128155387Y-121867219D01*
X128155387Y-121867219D02*
X128393482Y-121867219D01*
X128393482Y-121867219D02*
X128488720Y-121914838D01*
X128488720Y-121914838D02*
X128536339Y-121962457D01*
X128536339Y-121962457D02*
X128583958Y-122057695D01*
X128583958Y-122057695D02*
X128583958Y-122152933D01*
X128583958Y-122152933D02*
X128536339Y-122295790D01*
X128536339Y-122295790D02*
X127964911Y-122867219D01*
X127964911Y-122867219D02*
X128583958Y-122867219D01*
X128869673Y-121867219D02*
X129203006Y-122867219D01*
X129203006Y-122867219D02*
X129536339Y-121867219D01*
X129631578Y-122962457D02*
X130393482Y-122962457D01*
X130822054Y-121867219D02*
X131012530Y-121867219D01*
X131012530Y-121867219D02*
X131107768Y-121914838D01*
X131107768Y-121914838D02*
X131203006Y-122010076D01*
X131203006Y-122010076D02*
X131250625Y-122200552D01*
X131250625Y-122200552D02*
X131250625Y-122533885D01*
X131250625Y-122533885D02*
X131203006Y-122724361D01*
X131203006Y-122724361D02*
X131107768Y-122819600D01*
X131107768Y-122819600D02*
X131012530Y-122867219D01*
X131012530Y-122867219D02*
X130822054Y-122867219D01*
X130822054Y-122867219D02*
X130726816Y-122819600D01*
X130726816Y-122819600D02*
X130631578Y-122724361D01*
X130631578Y-122724361D02*
X130583959Y-122533885D01*
X130583959Y-122533885D02*
X130583959Y-122200552D01*
X130583959Y-122200552D02*
X130631578Y-122010076D01*
X130631578Y-122010076D02*
X130726816Y-121914838D01*
X130726816Y-121914838D02*
X130822054Y-121867219D01*
X132107768Y-122200552D02*
X132107768Y-122867219D01*
X131679197Y-122200552D02*
X131679197Y-122724361D01*
X131679197Y-122724361D02*
X131726816Y-122819600D01*
X131726816Y-122819600D02*
X131822054Y-122867219D01*
X131822054Y-122867219D02*
X131964911Y-122867219D01*
X131964911Y-122867219D02*
X132060149Y-122819600D01*
X132060149Y-122819600D02*
X132107768Y-122771980D01*
X132441102Y-122200552D02*
X132822054Y-122200552D01*
X132583959Y-121867219D02*
X132583959Y-122724361D01*
X132583959Y-122724361D02*
X132631578Y-122819600D01*
X132631578Y-122819600D02*
X132726816Y-122867219D01*
X132726816Y-122867219D02*
X132822054Y-122867219D01*
X133155388Y-122200552D02*
X133155388Y-123200552D01*
X133155388Y-122248171D02*
X133250626Y-122200552D01*
X133250626Y-122200552D02*
X133441102Y-122200552D01*
X133441102Y-122200552D02*
X133536340Y-122248171D01*
X133536340Y-122248171D02*
X133583959Y-122295790D01*
X133583959Y-122295790D02*
X133631578Y-122391028D01*
X133631578Y-122391028D02*
X133631578Y-122676742D01*
X133631578Y-122676742D02*
X133583959Y-122771980D01*
X133583959Y-122771980D02*
X133536340Y-122819600D01*
X133536340Y-122819600D02*
X133441102Y-122867219D01*
X133441102Y-122867219D02*
X133250626Y-122867219D01*
X133250626Y-122867219D02*
X133155388Y-122819600D01*
X134488721Y-122200552D02*
X134488721Y-122867219D01*
X134060150Y-122200552D02*
X134060150Y-122724361D01*
X134060150Y-122724361D02*
X134107769Y-122819600D01*
X134107769Y-122819600D02*
X134203007Y-122867219D01*
X134203007Y-122867219D02*
X134345864Y-122867219D01*
X134345864Y-122867219D02*
X134441102Y-122819600D01*
X134441102Y-122819600D02*
X134488721Y-122771980D01*
X134822055Y-122200552D02*
X135203007Y-122200552D01*
X134964912Y-121867219D02*
X134964912Y-122724361D01*
X134964912Y-122724361D02*
X135012531Y-122819600D01*
X135012531Y-122819600D02*
X135107769Y-122867219D01*
X135107769Y-122867219D02*
X135203007Y-122867219D01*
D10*
X136554510Y-78800828D02*
X136554510Y-77300828D01*
X137268796Y-78800828D02*
X137268796Y-77300828D01*
X137268796Y-77300828D02*
X137768796Y-78372257D01*
X137768796Y-78372257D02*
X138268796Y-77300828D01*
X138268796Y-77300828D02*
X138268796Y-78800828D01*
X138983082Y-78800828D02*
X138983082Y-77300828D01*
X138983082Y-77300828D02*
X139340225Y-77300828D01*
X139340225Y-77300828D02*
X139554511Y-77372257D01*
X139554511Y-77372257D02*
X139697368Y-77515114D01*
X139697368Y-77515114D02*
X139768797Y-77657971D01*
X139768797Y-77657971D02*
X139840225Y-77943685D01*
X139840225Y-77943685D02*
X139840225Y-78157971D01*
X139840225Y-78157971D02*
X139768797Y-78443685D01*
X139768797Y-78443685D02*
X139697368Y-78586542D01*
X139697368Y-78586542D02*
X139554511Y-78729400D01*
X139554511Y-78729400D02*
X139340225Y-78800828D01*
X139340225Y-78800828D02*
X138983082Y-78800828D01*
X140125940Y-78943685D02*
X141268797Y-78943685D01*
X142197368Y-78729400D02*
X142054511Y-78800828D01*
X142054511Y-78800828D02*
X141768797Y-78800828D01*
X141768797Y-78800828D02*
X141625939Y-78729400D01*
X141625939Y-78729400D02*
X141554511Y-78586542D01*
X141554511Y-78586542D02*
X141554511Y-78015114D01*
X141554511Y-78015114D02*
X141625939Y-77872257D01*
X141625939Y-77872257D02*
X141768797Y-77800828D01*
X141768797Y-77800828D02*
X142054511Y-77800828D01*
X142054511Y-77800828D02*
X142197368Y-77872257D01*
X142197368Y-77872257D02*
X142268797Y-78015114D01*
X142268797Y-78015114D02*
X142268797Y-78157971D01*
X142268797Y-78157971D02*
X141554511Y-78300828D01*
X142911653Y-78800828D02*
X142911653Y-77800828D01*
X142911653Y-78086542D02*
X142983082Y-77943685D01*
X142983082Y-77943685D02*
X143054511Y-77872257D01*
X143054511Y-77872257D02*
X143197368Y-77800828D01*
X143197368Y-77800828D02*
X143340225Y-77800828D01*
X143840224Y-78800828D02*
X143840224Y-77800828D01*
X143840224Y-78086542D02*
X143911653Y-77943685D01*
X143911653Y-77943685D02*
X143983082Y-77872257D01*
X143983082Y-77872257D02*
X144125939Y-77800828D01*
X144125939Y-77800828D02*
X144268796Y-77800828D01*
X144983081Y-78800828D02*
X144840224Y-78729400D01*
X144840224Y-78729400D02*
X144768795Y-78657971D01*
X144768795Y-78657971D02*
X144697367Y-78515114D01*
X144697367Y-78515114D02*
X144697367Y-78086542D01*
X144697367Y-78086542D02*
X144768795Y-77943685D01*
X144768795Y-77943685D02*
X144840224Y-77872257D01*
X144840224Y-77872257D02*
X144983081Y-77800828D01*
X144983081Y-77800828D02*
X145197367Y-77800828D01*
X145197367Y-77800828D02*
X145340224Y-77872257D01*
X145340224Y-77872257D02*
X145411653Y-77943685D01*
X145411653Y-77943685D02*
X145483081Y-78086542D01*
X145483081Y-78086542D02*
X145483081Y-78515114D01*
X145483081Y-78515114D02*
X145411653Y-78657971D01*
X145411653Y-78657971D02*
X145340224Y-78729400D01*
X145340224Y-78729400D02*
X145197367Y-78800828D01*
X145197367Y-78800828D02*
X144983081Y-78800828D01*
X146125938Y-78800828D02*
X146125938Y-77800828D01*
X146125938Y-78086542D02*
X146197367Y-77943685D01*
X146197367Y-77943685D02*
X146268796Y-77872257D01*
X146268796Y-77872257D02*
X146411653Y-77800828D01*
X146411653Y-77800828D02*
X146554510Y-77800828D01*
X120411653Y-128657971D02*
X120340225Y-128729400D01*
X120340225Y-128729400D02*
X120125939Y-128800828D01*
X120125939Y-128800828D02*
X119983082Y-128800828D01*
X119983082Y-128800828D02*
X119768796Y-128729400D01*
X119768796Y-128729400D02*
X119625939Y-128586542D01*
X119625939Y-128586542D02*
X119554510Y-128443685D01*
X119554510Y-128443685D02*
X119483082Y-128157971D01*
X119483082Y-128157971D02*
X119483082Y-127943685D01*
X119483082Y-127943685D02*
X119554510Y-127657971D01*
X119554510Y-127657971D02*
X119625939Y-127515114D01*
X119625939Y-127515114D02*
X119768796Y-127372257D01*
X119768796Y-127372257D02*
X119983082Y-127300828D01*
X119983082Y-127300828D02*
X120125939Y-127300828D01*
X120125939Y-127300828D02*
X120340225Y-127372257D01*
X120340225Y-127372257D02*
X120411653Y-127443685D01*
X121054510Y-128800828D02*
X121054510Y-127300828D01*
X121697368Y-128800828D02*
X121697368Y-128015114D01*
X121697368Y-128015114D02*
X121625939Y-127872257D01*
X121625939Y-127872257D02*
X121483082Y-127800828D01*
X121483082Y-127800828D02*
X121268796Y-127800828D01*
X121268796Y-127800828D02*
X121125939Y-127872257D01*
X121125939Y-127872257D02*
X121054510Y-127943685D01*
X123054511Y-128800828D02*
X123054511Y-128015114D01*
X123054511Y-128015114D02*
X122983082Y-127872257D01*
X122983082Y-127872257D02*
X122840225Y-127800828D01*
X122840225Y-127800828D02*
X122554511Y-127800828D01*
X122554511Y-127800828D02*
X122411653Y-127872257D01*
X123054511Y-128729400D02*
X122911653Y-128800828D01*
X122911653Y-128800828D02*
X122554511Y-128800828D01*
X122554511Y-128800828D02*
X122411653Y-128729400D01*
X122411653Y-128729400D02*
X122340225Y-128586542D01*
X122340225Y-128586542D02*
X122340225Y-128443685D01*
X122340225Y-128443685D02*
X122411653Y-128300828D01*
X122411653Y-128300828D02*
X122554511Y-128229400D01*
X122554511Y-128229400D02*
X122911653Y-128229400D01*
X122911653Y-128229400D02*
X123054511Y-128157971D01*
X123768796Y-128800828D02*
X123768796Y-127800828D01*
X123768796Y-128086542D02*
X123840225Y-127943685D01*
X123840225Y-127943685D02*
X123911654Y-127872257D01*
X123911654Y-127872257D02*
X124054511Y-127800828D01*
X124054511Y-127800828D02*
X124197368Y-127800828D01*
X125340225Y-127800828D02*
X125340225Y-129015114D01*
X125340225Y-129015114D02*
X125268796Y-129157971D01*
X125268796Y-129157971D02*
X125197367Y-129229400D01*
X125197367Y-129229400D02*
X125054510Y-129300828D01*
X125054510Y-129300828D02*
X124840225Y-129300828D01*
X124840225Y-129300828D02*
X124697367Y-129229400D01*
X125340225Y-128729400D02*
X125197367Y-128800828D01*
X125197367Y-128800828D02*
X124911653Y-128800828D01*
X124911653Y-128800828D02*
X124768796Y-128729400D01*
X124768796Y-128729400D02*
X124697367Y-128657971D01*
X124697367Y-128657971D02*
X124625939Y-128515114D01*
X124625939Y-128515114D02*
X124625939Y-128086542D01*
X124625939Y-128086542D02*
X124697367Y-127943685D01*
X124697367Y-127943685D02*
X124768796Y-127872257D01*
X124768796Y-127872257D02*
X124911653Y-127800828D01*
X124911653Y-127800828D02*
X125197367Y-127800828D01*
X125197367Y-127800828D02*
X125340225Y-127872257D01*
X126625939Y-128729400D02*
X126483082Y-128800828D01*
X126483082Y-128800828D02*
X126197368Y-128800828D01*
X126197368Y-128800828D02*
X126054510Y-128729400D01*
X126054510Y-128729400D02*
X125983082Y-128586542D01*
X125983082Y-128586542D02*
X125983082Y-128015114D01*
X125983082Y-128015114D02*
X126054510Y-127872257D01*
X126054510Y-127872257D02*
X126197368Y-127800828D01*
X126197368Y-127800828D02*
X126483082Y-127800828D01*
X126483082Y-127800828D02*
X126625939Y-127872257D01*
X126625939Y-127872257D02*
X126697368Y-128015114D01*
X126697368Y-128015114D02*
X126697368Y-128157971D01*
X126697368Y-128157971D02*
X125983082Y-128300828D01*
X127340224Y-128800828D02*
X127340224Y-127800828D01*
X127340224Y-128086542D02*
X127411653Y-127943685D01*
X127411653Y-127943685D02*
X127483082Y-127872257D01*
X127483082Y-127872257D02*
X127625939Y-127800828D01*
X127625939Y-127800828D02*
X127768796Y-127800828D01*
X129340224Y-128729400D02*
X129554510Y-128800828D01*
X129554510Y-128800828D02*
X129911652Y-128800828D01*
X129911652Y-128800828D02*
X130054510Y-128729400D01*
X130054510Y-128729400D02*
X130125938Y-128657971D01*
X130125938Y-128657971D02*
X130197367Y-128515114D01*
X130197367Y-128515114D02*
X130197367Y-128372257D01*
X130197367Y-128372257D02*
X130125938Y-128229400D01*
X130125938Y-128229400D02*
X130054510Y-128157971D01*
X130054510Y-128157971D02*
X129911652Y-128086542D01*
X129911652Y-128086542D02*
X129625938Y-128015114D01*
X129625938Y-128015114D02*
X129483081Y-127943685D01*
X129483081Y-127943685D02*
X129411652Y-127872257D01*
X129411652Y-127872257D02*
X129340224Y-127729400D01*
X129340224Y-127729400D02*
X129340224Y-127586542D01*
X129340224Y-127586542D02*
X129411652Y-127443685D01*
X129411652Y-127443685D02*
X129483081Y-127372257D01*
X129483081Y-127372257D02*
X129625938Y-127300828D01*
X129625938Y-127300828D02*
X129983081Y-127300828D01*
X129983081Y-127300828D02*
X130197367Y-127372257D01*
X131483081Y-128800828D02*
X131483081Y-128015114D01*
X131483081Y-128015114D02*
X131411652Y-127872257D01*
X131411652Y-127872257D02*
X131268795Y-127800828D01*
X131268795Y-127800828D02*
X130983081Y-127800828D01*
X130983081Y-127800828D02*
X130840223Y-127872257D01*
X131483081Y-128729400D02*
X131340223Y-128800828D01*
X131340223Y-128800828D02*
X130983081Y-128800828D01*
X130983081Y-128800828D02*
X130840223Y-128729400D01*
X130840223Y-128729400D02*
X130768795Y-128586542D01*
X130768795Y-128586542D02*
X130768795Y-128443685D01*
X130768795Y-128443685D02*
X130840223Y-128300828D01*
X130840223Y-128300828D02*
X130983081Y-128229400D01*
X130983081Y-128229400D02*
X131340223Y-128229400D01*
X131340223Y-128229400D02*
X131483081Y-128157971D01*
X131983081Y-127800828D02*
X132554509Y-127800828D01*
X132197366Y-128800828D02*
X132197366Y-127515114D01*
X132197366Y-127515114D02*
X132268795Y-127372257D01*
X132268795Y-127372257D02*
X132411652Y-127300828D01*
X132411652Y-127300828D02*
X132554509Y-127300828D01*
X133625938Y-128729400D02*
X133483081Y-128800828D01*
X133483081Y-128800828D02*
X133197367Y-128800828D01*
X133197367Y-128800828D02*
X133054509Y-128729400D01*
X133054509Y-128729400D02*
X132983081Y-128586542D01*
X132983081Y-128586542D02*
X132983081Y-128015114D01*
X132983081Y-128015114D02*
X133054509Y-127872257D01*
X133054509Y-127872257D02*
X133197367Y-127800828D01*
X133197367Y-127800828D02*
X133483081Y-127800828D01*
X133483081Y-127800828D02*
X133625938Y-127872257D01*
X133625938Y-127872257D02*
X133697367Y-128015114D01*
X133697367Y-128015114D02*
X133697367Y-128157971D01*
X133697367Y-128157971D02*
X132983081Y-128300828D01*
X134125938Y-127800828D02*
X134697366Y-127800828D01*
X134340223Y-127300828D02*
X134340223Y-128586542D01*
X134340223Y-128586542D02*
X134411652Y-128729400D01*
X134411652Y-128729400D02*
X134554509Y-128800828D01*
X134554509Y-128800828D02*
X134697366Y-128800828D01*
X135054509Y-127800828D02*
X135411652Y-128800828D01*
X135768795Y-127800828D02*
X135411652Y-128800828D01*
X135411652Y-128800828D02*
X135268795Y-129157971D01*
X135268795Y-129157971D02*
X135197366Y-129229400D01*
X135197366Y-129229400D02*
X135054509Y-129300828D01*
X138340223Y-128657971D02*
X138268795Y-128729400D01*
X138268795Y-128729400D02*
X138054509Y-128800828D01*
X138054509Y-128800828D02*
X137911652Y-128800828D01*
X137911652Y-128800828D02*
X137697366Y-128729400D01*
X137697366Y-128729400D02*
X137554509Y-128586542D01*
X137554509Y-128586542D02*
X137483080Y-128443685D01*
X137483080Y-128443685D02*
X137411652Y-128157971D01*
X137411652Y-128157971D02*
X137411652Y-127943685D01*
X137411652Y-127943685D02*
X137483080Y-127657971D01*
X137483080Y-127657971D02*
X137554509Y-127515114D01*
X137554509Y-127515114D02*
X137697366Y-127372257D01*
X137697366Y-127372257D02*
X137911652Y-127300828D01*
X137911652Y-127300828D02*
X138054509Y-127300828D01*
X138054509Y-127300828D02*
X138268795Y-127372257D01*
X138268795Y-127372257D02*
X138340223Y-127443685D01*
X138983080Y-128800828D02*
X138983080Y-127800828D01*
X138983080Y-127300828D02*
X138911652Y-127372257D01*
X138911652Y-127372257D02*
X138983080Y-127443685D01*
X138983080Y-127443685D02*
X139054509Y-127372257D01*
X139054509Y-127372257D02*
X138983080Y-127300828D01*
X138983080Y-127300828D02*
X138983080Y-127443685D01*
X139697366Y-128800828D02*
X139697366Y-127800828D01*
X139697366Y-128086542D02*
X139768795Y-127943685D01*
X139768795Y-127943685D02*
X139840224Y-127872257D01*
X139840224Y-127872257D02*
X139983081Y-127800828D01*
X139983081Y-127800828D02*
X140125938Y-127800828D01*
X141268795Y-128729400D02*
X141125937Y-128800828D01*
X141125937Y-128800828D02*
X140840223Y-128800828D01*
X140840223Y-128800828D02*
X140697366Y-128729400D01*
X140697366Y-128729400D02*
X140625937Y-128657971D01*
X140625937Y-128657971D02*
X140554509Y-128515114D01*
X140554509Y-128515114D02*
X140554509Y-128086542D01*
X140554509Y-128086542D02*
X140625937Y-127943685D01*
X140625937Y-127943685D02*
X140697366Y-127872257D01*
X140697366Y-127872257D02*
X140840223Y-127800828D01*
X140840223Y-127800828D02*
X141125937Y-127800828D01*
X141125937Y-127800828D02*
X141268795Y-127872257D01*
X142554509Y-127800828D02*
X142554509Y-128800828D01*
X141911651Y-127800828D02*
X141911651Y-128586542D01*
X141911651Y-128586542D02*
X141983080Y-128729400D01*
X141983080Y-128729400D02*
X142125937Y-128800828D01*
X142125937Y-128800828D02*
X142340223Y-128800828D01*
X142340223Y-128800828D02*
X142483080Y-128729400D01*
X142483080Y-128729400D02*
X142554509Y-128657971D01*
X143268794Y-128800828D02*
X143268794Y-127800828D01*
X143268794Y-127300828D02*
X143197366Y-127372257D01*
X143197366Y-127372257D02*
X143268794Y-127443685D01*
X143268794Y-127443685D02*
X143340223Y-127372257D01*
X143340223Y-127372257D02*
X143268794Y-127300828D01*
X143268794Y-127300828D02*
X143268794Y-127443685D01*
X143768795Y-127800828D02*
X144340223Y-127800828D01*
X143983080Y-127300828D02*
X143983080Y-128586542D01*
X143983080Y-128586542D02*
X144054509Y-128729400D01*
X144054509Y-128729400D02*
X144197366Y-128800828D01*
X144197366Y-128800828D02*
X144340223Y-128800828D01*
X145840223Y-127800828D02*
X146197366Y-128800828D01*
X146197366Y-128800828D02*
X146554509Y-127800828D01*
X147911652Y-128800828D02*
X147054509Y-128800828D01*
X147483080Y-128800828D02*
X147483080Y-127300828D01*
X147483080Y-127300828D02*
X147340223Y-127515114D01*
X147340223Y-127515114D02*
X147197366Y-127657971D01*
X147197366Y-127657971D02*
X147054509Y-127729400D01*
X137554510Y-122515114D02*
X137768796Y-122586542D01*
X137768796Y-122586542D02*
X137840225Y-122657971D01*
X137840225Y-122657971D02*
X137911653Y-122800828D01*
X137911653Y-122800828D02*
X137911653Y-123015114D01*
X137911653Y-123015114D02*
X137840225Y-123157971D01*
X137840225Y-123157971D02*
X137768796Y-123229400D01*
X137768796Y-123229400D02*
X137625939Y-123300828D01*
X137625939Y-123300828D02*
X137054510Y-123300828D01*
X137054510Y-123300828D02*
X137054510Y-121800828D01*
X137054510Y-121800828D02*
X137554510Y-121800828D01*
X137554510Y-121800828D02*
X137697368Y-121872257D01*
X137697368Y-121872257D02*
X137768796Y-121943685D01*
X137768796Y-121943685D02*
X137840225Y-122086542D01*
X137840225Y-122086542D02*
X137840225Y-122229400D01*
X137840225Y-122229400D02*
X137768796Y-122372257D01*
X137768796Y-122372257D02*
X137697368Y-122443685D01*
X137697368Y-122443685D02*
X137554510Y-122515114D01*
X137554510Y-122515114D02*
X137054510Y-122515114D01*
X138554510Y-123300828D02*
X138554510Y-121800828D01*
X138554510Y-121800828D02*
X139054510Y-122872257D01*
X139054510Y-122872257D02*
X139554510Y-121800828D01*
X139554510Y-121800828D02*
X139554510Y-123300828D01*
X140197368Y-123229400D02*
X140411654Y-123300828D01*
X140411654Y-123300828D02*
X140768796Y-123300828D01*
X140768796Y-123300828D02*
X140911654Y-123229400D01*
X140911654Y-123229400D02*
X140983082Y-123157971D01*
X140983082Y-123157971D02*
X141054511Y-123015114D01*
X141054511Y-123015114D02*
X141054511Y-122872257D01*
X141054511Y-122872257D02*
X140983082Y-122729400D01*
X140983082Y-122729400D02*
X140911654Y-122657971D01*
X140911654Y-122657971D02*
X140768796Y-122586542D01*
X140768796Y-122586542D02*
X140483082Y-122515114D01*
X140483082Y-122515114D02*
X140340225Y-122443685D01*
X140340225Y-122443685D02*
X140268796Y-122372257D01*
X140268796Y-122372257D02*
X140197368Y-122229400D01*
X140197368Y-122229400D02*
X140197368Y-122086542D01*
X140197368Y-122086542D02*
X140268796Y-121943685D01*
X140268796Y-121943685D02*
X140340225Y-121872257D01*
X140340225Y-121872257D02*
X140483082Y-121800828D01*
X140483082Y-121800828D02*
X140840225Y-121800828D01*
X140840225Y-121800828D02*
X141054511Y-121872257D01*
X141340225Y-123443685D02*
X142483082Y-123443685D01*
X143697367Y-123300828D02*
X143197367Y-122586542D01*
X142840224Y-123300828D02*
X142840224Y-121800828D01*
X142840224Y-121800828D02*
X143411653Y-121800828D01*
X143411653Y-121800828D02*
X143554510Y-121872257D01*
X143554510Y-121872257D02*
X143625939Y-121943685D01*
X143625939Y-121943685D02*
X143697367Y-122086542D01*
X143697367Y-122086542D02*
X143697367Y-122300828D01*
X143697367Y-122300828D02*
X143625939Y-122443685D01*
X143625939Y-122443685D02*
X143554510Y-122515114D01*
X143554510Y-122515114D02*
X143411653Y-122586542D01*
X143411653Y-122586542D02*
X142840224Y-122586542D01*
X144911653Y-123229400D02*
X144768796Y-123300828D01*
X144768796Y-123300828D02*
X144483082Y-123300828D01*
X144483082Y-123300828D02*
X144340224Y-123229400D01*
X144340224Y-123229400D02*
X144268796Y-123086542D01*
X144268796Y-123086542D02*
X144268796Y-122515114D01*
X144268796Y-122515114D02*
X144340224Y-122372257D01*
X144340224Y-122372257D02*
X144483082Y-122300828D01*
X144483082Y-122300828D02*
X144768796Y-122300828D01*
X144768796Y-122300828D02*
X144911653Y-122372257D01*
X144911653Y-122372257D02*
X144983082Y-122515114D01*
X144983082Y-122515114D02*
X144983082Y-122657971D01*
X144983082Y-122657971D02*
X144268796Y-122800828D01*
X145840224Y-123300828D02*
X145697367Y-123229400D01*
X145697367Y-123229400D02*
X145625938Y-123086542D01*
X145625938Y-123086542D02*
X145625938Y-121800828D01*
X147054510Y-123300828D02*
X147054510Y-122515114D01*
X147054510Y-122515114D02*
X146983081Y-122372257D01*
X146983081Y-122372257D02*
X146840224Y-122300828D01*
X146840224Y-122300828D02*
X146554510Y-122300828D01*
X146554510Y-122300828D02*
X146411652Y-122372257D01*
X147054510Y-123229400D02*
X146911652Y-123300828D01*
X146911652Y-123300828D02*
X146554510Y-123300828D01*
X146554510Y-123300828D02*
X146411652Y-123229400D01*
X146411652Y-123229400D02*
X146340224Y-123086542D01*
X146340224Y-123086542D02*
X146340224Y-122943685D01*
X146340224Y-122943685D02*
X146411652Y-122800828D01*
X146411652Y-122800828D02*
X146554510Y-122729400D01*
X146554510Y-122729400D02*
X146911652Y-122729400D01*
X146911652Y-122729400D02*
X147054510Y-122657971D01*
X147625938Y-122300828D02*
X147983081Y-123300828D01*
X148340224Y-122300828D02*
X147983081Y-123300828D01*
X147983081Y-123300828D02*
X147840224Y-123657971D01*
X147840224Y-123657971D02*
X147768795Y-123729400D01*
X147768795Y-123729400D02*
X147625938Y-123800828D01*
D12*
X150735901Y-78340809D02*
X150878758Y-78388428D01*
X150878758Y-78388428D02*
X150926377Y-78436047D01*
X150926377Y-78436047D02*
X150973996Y-78531285D01*
X150973996Y-78531285D02*
X150973996Y-78674142D01*
X150973996Y-78674142D02*
X150926377Y-78769380D01*
X150926377Y-78769380D02*
X150878758Y-78817000D01*
X150878758Y-78817000D02*
X150783520Y-78864619D01*
X150783520Y-78864619D02*
X150402568Y-78864619D01*
X150402568Y-78864619D02*
X150402568Y-77864619D01*
X150402568Y-77864619D02*
X150735901Y-77864619D01*
X150735901Y-77864619D02*
X150831139Y-77912238D01*
X150831139Y-77912238D02*
X150878758Y-77959857D01*
X150878758Y-77959857D02*
X150926377Y-78055095D01*
X150926377Y-78055095D02*
X150926377Y-78150333D01*
X150926377Y-78150333D02*
X150878758Y-78245571D01*
X150878758Y-78245571D02*
X150831139Y-78293190D01*
X150831139Y-78293190D02*
X150735901Y-78340809D01*
X150735901Y-78340809D02*
X150402568Y-78340809D01*
X151402568Y-78864619D02*
X151402568Y-77864619D01*
X151402568Y-77864619D02*
X151735901Y-78578904D01*
X151735901Y-78578904D02*
X152069234Y-77864619D01*
X152069234Y-77864619D02*
X152069234Y-78864619D01*
X152497806Y-78817000D02*
X152640663Y-78864619D01*
X152640663Y-78864619D02*
X152878758Y-78864619D01*
X152878758Y-78864619D02*
X152973996Y-78817000D01*
X152973996Y-78817000D02*
X153021615Y-78769380D01*
X153021615Y-78769380D02*
X153069234Y-78674142D01*
X153069234Y-78674142D02*
X153069234Y-78578904D01*
X153069234Y-78578904D02*
X153021615Y-78483666D01*
X153021615Y-78483666D02*
X152973996Y-78436047D01*
X152973996Y-78436047D02*
X152878758Y-78388428D01*
X152878758Y-78388428D02*
X152688282Y-78340809D01*
X152688282Y-78340809D02*
X152593044Y-78293190D01*
X152593044Y-78293190D02*
X152545425Y-78245571D01*
X152545425Y-78245571D02*
X152497806Y-78150333D01*
X152497806Y-78150333D02*
X152497806Y-78055095D01*
X152497806Y-78055095D02*
X152545425Y-77959857D01*
X152545425Y-77959857D02*
X152593044Y-77912238D01*
X152593044Y-77912238D02*
X152688282Y-77864619D01*
X152688282Y-77864619D02*
X152926377Y-77864619D01*
X152926377Y-77864619D02*
X153069234Y-77912238D01*
X153259711Y-78959857D02*
X154021615Y-78959857D01*
X154831139Y-78769380D02*
X154783520Y-78817000D01*
X154783520Y-78817000D02*
X154640663Y-78864619D01*
X154640663Y-78864619D02*
X154545425Y-78864619D01*
X154545425Y-78864619D02*
X154402568Y-78817000D01*
X154402568Y-78817000D02*
X154307330Y-78721761D01*
X154307330Y-78721761D02*
X154259711Y-78626523D01*
X154259711Y-78626523D02*
X154212092Y-78436047D01*
X154212092Y-78436047D02*
X154212092Y-78293190D01*
X154212092Y-78293190D02*
X154259711Y-78102714D01*
X154259711Y-78102714D02*
X154307330Y-78007476D01*
X154307330Y-78007476D02*
X154402568Y-77912238D01*
X154402568Y-77912238D02*
X154545425Y-77864619D01*
X154545425Y-77864619D02*
X154640663Y-77864619D01*
X154640663Y-77864619D02*
X154783520Y-77912238D01*
X154783520Y-77912238D02*
X154831139Y-77959857D01*
X155259711Y-78864619D02*
X155259711Y-77864619D01*
X155688282Y-78864619D02*
X155688282Y-78340809D01*
X155688282Y-78340809D02*
X155640663Y-78245571D01*
X155640663Y-78245571D02*
X155545425Y-78197952D01*
X155545425Y-78197952D02*
X155402568Y-78197952D01*
X155402568Y-78197952D02*
X155307330Y-78245571D01*
X155307330Y-78245571D02*
X155259711Y-78293190D01*
X156593044Y-78864619D02*
X156593044Y-78340809D01*
X156593044Y-78340809D02*
X156545425Y-78245571D01*
X156545425Y-78245571D02*
X156450187Y-78197952D01*
X156450187Y-78197952D02*
X156259711Y-78197952D01*
X156259711Y-78197952D02*
X156164473Y-78245571D01*
X156593044Y-78817000D02*
X156497806Y-78864619D01*
X156497806Y-78864619D02*
X156259711Y-78864619D01*
X156259711Y-78864619D02*
X156164473Y-78817000D01*
X156164473Y-78817000D02*
X156116854Y-78721761D01*
X156116854Y-78721761D02*
X156116854Y-78626523D01*
X156116854Y-78626523D02*
X156164473Y-78531285D01*
X156164473Y-78531285D02*
X156259711Y-78483666D01*
X156259711Y-78483666D02*
X156497806Y-78483666D01*
X156497806Y-78483666D02*
X156593044Y-78436047D01*
X157069235Y-78864619D02*
X157069235Y-78197952D01*
X157069235Y-78388428D02*
X157116854Y-78293190D01*
X157116854Y-78293190D02*
X157164473Y-78245571D01*
X157164473Y-78245571D02*
X157259711Y-78197952D01*
X157259711Y-78197952D02*
X157354949Y-78197952D01*
X158116854Y-78197952D02*
X158116854Y-79007476D01*
X158116854Y-79007476D02*
X158069235Y-79102714D01*
X158069235Y-79102714D02*
X158021616Y-79150333D01*
X158021616Y-79150333D02*
X157926378Y-79197952D01*
X157926378Y-79197952D02*
X157783521Y-79197952D01*
X157783521Y-79197952D02*
X157688283Y-79150333D01*
X158116854Y-78817000D02*
X158021616Y-78864619D01*
X158021616Y-78864619D02*
X157831140Y-78864619D01*
X157831140Y-78864619D02*
X157735902Y-78817000D01*
X157735902Y-78817000D02*
X157688283Y-78769380D01*
X157688283Y-78769380D02*
X157640664Y-78674142D01*
X157640664Y-78674142D02*
X157640664Y-78388428D01*
X157640664Y-78388428D02*
X157688283Y-78293190D01*
X157688283Y-78293190D02*
X157735902Y-78245571D01*
X157735902Y-78245571D02*
X157831140Y-78197952D01*
X157831140Y-78197952D02*
X158021616Y-78197952D01*
X158021616Y-78197952D02*
X158116854Y-78245571D01*
X158973997Y-78817000D02*
X158878759Y-78864619D01*
X158878759Y-78864619D02*
X158688283Y-78864619D01*
X158688283Y-78864619D02*
X158593045Y-78817000D01*
X158593045Y-78817000D02*
X158545426Y-78721761D01*
X158545426Y-78721761D02*
X158545426Y-78340809D01*
X158545426Y-78340809D02*
X158593045Y-78245571D01*
X158593045Y-78245571D02*
X158688283Y-78197952D01*
X158688283Y-78197952D02*
X158878759Y-78197952D01*
X158878759Y-78197952D02*
X158973997Y-78245571D01*
X158973997Y-78245571D02*
X159021616Y-78340809D01*
X159021616Y-78340809D02*
X159021616Y-78436047D01*
X159021616Y-78436047D02*
X158545426Y-78531285D01*
X159402569Y-78817000D02*
X159545426Y-78864619D01*
X159545426Y-78864619D02*
X159783521Y-78864619D01*
X159783521Y-78864619D02*
X159878759Y-78817000D01*
X159878759Y-78817000D02*
X159926378Y-78769380D01*
X159926378Y-78769380D02*
X159973997Y-78674142D01*
X159973997Y-78674142D02*
X159973997Y-78578904D01*
X159973997Y-78578904D02*
X159926378Y-78483666D01*
X159926378Y-78483666D02*
X159878759Y-78436047D01*
X159878759Y-78436047D02*
X159783521Y-78388428D01*
X159783521Y-78388428D02*
X159593045Y-78340809D01*
X159593045Y-78340809D02*
X159497807Y-78293190D01*
X159497807Y-78293190D02*
X159450188Y-78245571D01*
X159450188Y-78245571D02*
X159402569Y-78150333D01*
X159402569Y-78150333D02*
X159402569Y-78055095D01*
X159402569Y-78055095D02*
X159450188Y-77959857D01*
X159450188Y-77959857D02*
X159497807Y-77912238D01*
X159497807Y-77912238D02*
X159593045Y-77864619D01*
X159593045Y-77864619D02*
X159831140Y-77864619D01*
X159831140Y-77864619D02*
X159973997Y-77912238D01*
X160831140Y-78864619D02*
X160831140Y-78340809D01*
X160831140Y-78340809D02*
X160783521Y-78245571D01*
X160783521Y-78245571D02*
X160688283Y-78197952D01*
X160688283Y-78197952D02*
X160497807Y-78197952D01*
X160497807Y-78197952D02*
X160402569Y-78245571D01*
X160831140Y-78817000D02*
X160735902Y-78864619D01*
X160735902Y-78864619D02*
X160497807Y-78864619D01*
X160497807Y-78864619D02*
X160402569Y-78817000D01*
X160402569Y-78817000D02*
X160354950Y-78721761D01*
X160354950Y-78721761D02*
X160354950Y-78626523D01*
X160354950Y-78626523D02*
X160402569Y-78531285D01*
X160402569Y-78531285D02*
X160497807Y-78483666D01*
X160497807Y-78483666D02*
X160735902Y-78483666D01*
X160735902Y-78483666D02*
X160831140Y-78436047D01*
X161164474Y-78197952D02*
X161545426Y-78197952D01*
X161307331Y-78864619D02*
X161307331Y-78007476D01*
X161307331Y-78007476D02*
X161354950Y-77912238D01*
X161354950Y-77912238D02*
X161450188Y-77864619D01*
X161450188Y-77864619D02*
X161545426Y-77864619D01*
X162259712Y-78817000D02*
X162164474Y-78864619D01*
X162164474Y-78864619D02*
X161973998Y-78864619D01*
X161973998Y-78864619D02*
X161878760Y-78817000D01*
X161878760Y-78817000D02*
X161831141Y-78721761D01*
X161831141Y-78721761D02*
X161831141Y-78340809D01*
X161831141Y-78340809D02*
X161878760Y-78245571D01*
X161878760Y-78245571D02*
X161973998Y-78197952D01*
X161973998Y-78197952D02*
X162164474Y-78197952D01*
X162164474Y-78197952D02*
X162259712Y-78245571D01*
X162259712Y-78245571D02*
X162307331Y-78340809D01*
X162307331Y-78340809D02*
X162307331Y-78436047D01*
X162307331Y-78436047D02*
X161831141Y-78531285D01*
X162593046Y-78197952D02*
X162973998Y-78197952D01*
X162735903Y-77864619D02*
X162735903Y-78721761D01*
X162735903Y-78721761D02*
X162783522Y-78817000D01*
X162783522Y-78817000D02*
X162878760Y-78864619D01*
X162878760Y-78864619D02*
X162973998Y-78864619D01*
X163212094Y-78197952D02*
X163450189Y-78864619D01*
X163688284Y-78197952D02*
X163450189Y-78864619D01*
X163450189Y-78864619D02*
X163354951Y-79102714D01*
X163354951Y-79102714D02*
X163307332Y-79150333D01*
X163307332Y-79150333D02*
X163212094Y-79197952D01*
D10*
G36*
X151480573Y-122031601D02*
G01*
X151188581Y-122008154D01*
X151178251Y-122211215D01*
X151174201Y-122506226D01*
X151173194Y-122963632D01*
X151450898Y-122960518D01*
X151507527Y-122970967D01*
X151552839Y-123001642D01*
X151583206Y-123046899D01*
X151593322Y-123100377D01*
X151583195Y-123153698D01*
X151552839Y-123198563D01*
X151507571Y-123228810D01*
X151450898Y-123239138D01*
X151278798Y-123241702D01*
X151106607Y-123244267D01*
X151030680Y-123248017D01*
X150903733Y-123262219D01*
X150776786Y-123276420D01*
X150700859Y-123280170D01*
X150644223Y-123269742D01*
X150598918Y-123239138D01*
X150568575Y-123193893D01*
X150558435Y-123140036D01*
X150568564Y-123086022D01*
X150598918Y-123040385D01*
X150644267Y-123009353D01*
X150700859Y-122998803D01*
X150884224Y-122987079D01*
X150882209Y-122525918D01*
X150887465Y-122251535D01*
X150902725Y-121996430D01*
X150680342Y-122002292D01*
X150623460Y-121992100D01*
X150577394Y-121962175D01*
X150546365Y-121917303D01*
X150535903Y-121862249D01*
X150546359Y-121806651D01*
X150576844Y-121763422D01*
X150618679Y-121736087D01*
X150670084Y-121723306D01*
X150776949Y-121717595D01*
X150983692Y-121715062D01*
X151198478Y-121724162D01*
X151501090Y-121756095D01*
X151558275Y-121772354D01*
X151595905Y-121800273D01*
X151618762Y-121840324D01*
X151627119Y-121896871D01*
X151621283Y-121937835D01*
X151604450Y-121971612D01*
X151575920Y-122000002D01*
X151531144Y-122023675D01*
X151480573Y-122031601D01*
G37*
G36*
X152189488Y-122434419D02*
G01*
X152060437Y-122937620D01*
X152022518Y-123169162D01*
X151994229Y-123238205D01*
X151959336Y-123281986D01*
X151917981Y-123306865D01*
X151867821Y-123315341D01*
X151822921Y-123309683D01*
X151786328Y-123293592D01*
X151756079Y-123266981D01*
X151730082Y-123222306D01*
X151721275Y-123169345D01*
X151728058Y-123059187D01*
X151750464Y-122925205D01*
X151791983Y-122763230D01*
X151905739Y-122365359D01*
X151966189Y-122048729D01*
X152002891Y-121902162D01*
X152036330Y-121810689D01*
X152066024Y-121758293D01*
X152106131Y-121717174D01*
X152150761Y-121693670D01*
X152201853Y-121685753D01*
X152258138Y-121696078D01*
X152302954Y-121726325D01*
X152339148Y-121780184D01*
X152376004Y-121893538D01*
X152427259Y-122145815D01*
X152481843Y-122417653D01*
X152561440Y-122722930D01*
X152672081Y-122410631D01*
X152778694Y-122055689D01*
X152836121Y-121820392D01*
X152870732Y-121751534D01*
X152910321Y-121707493D01*
X152955100Y-121682469D01*
X153007213Y-121674030D01*
X153055788Y-121683136D01*
X153098691Y-121710884D01*
X153137932Y-121761717D01*
X153173176Y-121844297D01*
X153193681Y-121928239D01*
X153221353Y-122100844D01*
X153266888Y-122392337D01*
X153317088Y-122640370D01*
X153370922Y-122849692D01*
X153450091Y-123136043D01*
X153462146Y-123194441D01*
X153456800Y-123232611D01*
X153441050Y-123266024D01*
X153413969Y-123296016D01*
X153365875Y-123323777D01*
X153312578Y-123332927D01*
X153263407Y-123324127D01*
X153220330Y-123297551D01*
X153181319Y-123249493D01*
X153146523Y-123172368D01*
X153089187Y-122923332D01*
X153041873Y-122717174D01*
X152982575Y-122391279D01*
X152829893Y-122823589D01*
X152768435Y-123012541D01*
X152727912Y-123118744D01*
X152689576Y-123196365D01*
X152647067Y-123250827D01*
X152597400Y-123281518D01*
X152537901Y-123291894D01*
X152493932Y-123285223D01*
X152455585Y-123265460D01*
X152421188Y-123230997D01*
X152390348Y-123177863D01*
X152332920Y-122986896D01*
X152257842Y-122720089D01*
X152189488Y-122434419D01*
G37*
G36*
X153872911Y-121661192D02*
G01*
X153998229Y-121714055D01*
X154186815Y-121799051D01*
X154333656Y-121855293D01*
X154467234Y-121924161D01*
X154588754Y-122005606D01*
X154699175Y-122099928D01*
X154794288Y-122204066D01*
X154864866Y-122308741D01*
X154913700Y-122414808D01*
X154942586Y-122523484D01*
X154952241Y-122636285D01*
X154942603Y-122752198D01*
X154913782Y-122863971D01*
X154865138Y-122973066D01*
X154799478Y-123074948D01*
X154720200Y-123161511D01*
X154626360Y-123234100D01*
X154540481Y-123279242D01*
X154434791Y-123313880D01*
X154305419Y-123336472D01*
X154147889Y-123344651D01*
X154070690Y-123339671D01*
X153975697Y-123323127D01*
X153865380Y-123290537D01*
X153790225Y-123253517D01*
X153734312Y-123242534D01*
X153688743Y-123212118D01*
X153658026Y-123167395D01*
X153647801Y-123114299D01*
X153650851Y-123017854D01*
X153939794Y-123017854D01*
X153982025Y-123040017D01*
X154031476Y-123056322D01*
X154084881Y-123065793D01*
X154146789Y-123069145D01*
X154294759Y-123060551D01*
X154396705Y-123038566D01*
X154464427Y-123007595D01*
X154520763Y-122964250D01*
X154568935Y-122911577D01*
X154609416Y-122848593D01*
X154639576Y-122779951D01*
X154657355Y-122710479D01*
X154663271Y-122639308D01*
X154652493Y-122544924D01*
X154620126Y-122455449D01*
X154564439Y-122368778D01*
X154481620Y-122283546D01*
X154366058Y-122199213D01*
X154237031Y-122131428D01*
X153939794Y-122002292D01*
X153939794Y-123017854D01*
X153650851Y-123017854D01*
X153657510Y-122807286D01*
X153667219Y-122500181D01*
X153662639Y-122159279D01*
X153658060Y-121818469D01*
X153663495Y-121782885D01*
X153680714Y-121745940D01*
X153712373Y-121706361D01*
X153751165Y-121674214D01*
X153789350Y-121656352D01*
X153828144Y-121650582D01*
X153872911Y-121661192D01*
G37*
G36*
X154939693Y-123596709D02*
G01*
X154939693Y-123403269D01*
X156413210Y-123403269D01*
X156413210Y-123596709D01*
X154939693Y-123596709D01*
G37*
G36*
X156872540Y-121687677D02*
G01*
X156967128Y-121703959D01*
X157047826Y-121727210D01*
X157116447Y-121756645D01*
X157264903Y-121843154D01*
X157376243Y-121930998D01*
X157456759Y-122020086D01*
X157511359Y-122111064D01*
X157543304Y-122205323D01*
X157553977Y-122304909D01*
X157543768Y-122391349D01*
X157513560Y-122470016D01*
X157462203Y-122543137D01*
X157395672Y-122604758D01*
X157305624Y-122663032D01*
X157187063Y-122717435D01*
X157363910Y-122826166D01*
X157497808Y-122928836D01*
X157596017Y-123025914D01*
X157623065Y-123069533D01*
X157631830Y-123116772D01*
X157621186Y-123169784D01*
X157588782Y-123215416D01*
X157541611Y-123246406D01*
X157486291Y-123256723D01*
X157434131Y-123246340D01*
X157384900Y-123213767D01*
X157222601Y-123077382D01*
X157055282Y-122965839D01*
X156882223Y-122877488D01*
X156702455Y-122811224D01*
X156713721Y-123141227D01*
X156703432Y-123195088D01*
X156672688Y-123239870D01*
X156627050Y-123269916D01*
X156570198Y-123280170D01*
X156513423Y-123269882D01*
X156467707Y-123239687D01*
X156437042Y-123194722D01*
X156426766Y-123140586D01*
X156428781Y-122910234D01*
X156430887Y-122679883D01*
X156431309Y-122506409D01*
X156709599Y-122506409D01*
X156754662Y-122507508D01*
X156922679Y-122498825D01*
X157042975Y-122476281D01*
X157126613Y-122444127D01*
X157176380Y-122413029D01*
X157222418Y-122372595D01*
X157257872Y-122328892D01*
X157266015Y-122305092D01*
X157258243Y-122251819D01*
X157233913Y-122197756D01*
X157189754Y-122141189D01*
X157120477Y-122080969D01*
X157024661Y-122021734D01*
X156928111Y-121983211D01*
X156829492Y-121963732D01*
X156709599Y-121955397D01*
X156709599Y-122506409D01*
X156431309Y-122506409D01*
X156432903Y-121851808D01*
X156442856Y-121788289D01*
X156472836Y-121730724D01*
X156512094Y-121692826D01*
X156559237Y-121672200D01*
X156617367Y-121668168D01*
X156872540Y-121687677D01*
G37*
G36*
X158387590Y-122179334D02*
G01*
X158485185Y-122198918D01*
X158565784Y-122229255D01*
X158635625Y-122273923D01*
X158682677Y-122326729D01*
X158710734Y-122388842D01*
X158720481Y-122463270D01*
X158713339Y-122515028D01*
X158691604Y-122564411D01*
X158653262Y-122612901D01*
X158594452Y-122661290D01*
X158521696Y-122703197D01*
X158363917Y-122777152D01*
X158018619Y-122928461D01*
X158073019Y-122979816D01*
X158137504Y-123016388D01*
X158210555Y-123038044D01*
X158297330Y-123045697D01*
X158387428Y-123039002D01*
X158464222Y-123020056D01*
X158529972Y-122989918D01*
X158612413Y-122950546D01*
X158666259Y-122940184D01*
X158715050Y-122947312D01*
X158746493Y-122966117D01*
X158765627Y-122996391D01*
X158772780Y-123042583D01*
X158763694Y-123093556D01*
X158735679Y-123140933D01*
X158684350Y-123186684D01*
X158601687Y-123231078D01*
X158504443Y-123264766D01*
X158403301Y-123285049D01*
X158297330Y-123291894D01*
X158174843Y-123283827D01*
X158068852Y-123260910D01*
X157976833Y-123224460D01*
X157896711Y-123174932D01*
X157834766Y-123119022D01*
X157787300Y-123055868D01*
X157753094Y-122984523D01*
X157731912Y-122903439D01*
X157724520Y-122810583D01*
X157733616Y-122681769D01*
X157736181Y-122670540D01*
X157998102Y-122670540D01*
X158228637Y-122571988D01*
X158358996Y-122509054D01*
X158448913Y-122457133D01*
X158401592Y-122436643D01*
X158342676Y-122423322D01*
X158269578Y-122418482D01*
X158208551Y-122425628D01*
X158154833Y-122446483D01*
X158106638Y-122481496D01*
X158066899Y-122527167D01*
X158030537Y-122588986D01*
X157998102Y-122670540D01*
X157736181Y-122670540D01*
X157759825Y-122567026D01*
X157802216Y-122464161D01*
X157860807Y-122371404D01*
X157926500Y-122298983D01*
X157999034Y-122243965D01*
X158079310Y-122204699D01*
X158168847Y-122180620D01*
X158269670Y-122172285D01*
X158387590Y-122179334D01*
G37*
G36*
X159270302Y-123096622D02*
G01*
X159262971Y-123175421D01*
X159244016Y-123228702D01*
X159216060Y-123263596D01*
X159178756Y-123284437D01*
X159128886Y-123291894D01*
X159072174Y-123281879D01*
X159027403Y-123252785D01*
X158997710Y-123208756D01*
X158987469Y-123152126D01*
X158987469Y-121730450D01*
X158992380Y-121692637D01*
X159006597Y-121660562D01*
X159030517Y-121632814D01*
X159075602Y-121606836D01*
X159132000Y-121597826D01*
X159187862Y-121607256D01*
X159231376Y-121634371D01*
X159260286Y-121675920D01*
X159270302Y-121730450D01*
X159270302Y-123096622D01*
G37*
G36*
X160164834Y-122177674D02*
G01*
X160239285Y-122195193D01*
X160326347Y-122227331D01*
X160403158Y-122267605D01*
X160449316Y-122306207D01*
X160473492Y-122343515D01*
X160481045Y-122381204D01*
X160475137Y-122415681D01*
X160457506Y-122445409D01*
X160441569Y-122547900D01*
X160435982Y-122692064D01*
X160444336Y-122873120D01*
X160463642Y-122972333D01*
X160510812Y-123078395D01*
X160550745Y-123178230D01*
X160540405Y-123227596D01*
X160509255Y-123267897D01*
X160464510Y-123294706D01*
X160413450Y-123303618D01*
X160383725Y-123296884D01*
X160336632Y-123270584D01*
X160263882Y-123212485D01*
X160171687Y-123253463D01*
X160097827Y-123280537D01*
X160028226Y-123298452D01*
X159975920Y-123303618D01*
X159852441Y-123294080D01*
X159752325Y-123267641D01*
X159671140Y-123226406D01*
X159605525Y-123170811D01*
X159554561Y-123101544D01*
X159516088Y-123014921D01*
X159491123Y-122907146D01*
X159482576Y-122781091D01*
X159765810Y-122781091D01*
X159772291Y-122872028D01*
X159789484Y-122939217D01*
X159814994Y-122988087D01*
X159852493Y-123026069D01*
X159900536Y-123049171D01*
X159962547Y-123057421D01*
X160024782Y-123052095D01*
X160082990Y-123036355D01*
X160137763Y-123010548D01*
X160190060Y-122974256D01*
X160165704Y-122744945D01*
X160159285Y-122608533D01*
X160163865Y-122533062D01*
X160177786Y-122437991D01*
X160141333Y-122423153D01*
X160114222Y-122418482D01*
X160047115Y-122425244D01*
X159984909Y-122445257D01*
X159926279Y-122478970D01*
X159870315Y-122527933D01*
X159823860Y-122585875D01*
X159791598Y-122646726D01*
X159772334Y-122711384D01*
X159765810Y-122781091D01*
X159482576Y-122781091D01*
X159482061Y-122773489D01*
X159489476Y-122676331D01*
X159511223Y-122586497D01*
X159547121Y-122502637D01*
X159597749Y-122423675D01*
X159664419Y-122348872D01*
X159760989Y-122271019D01*
X159864693Y-122216446D01*
X159977226Y-122183532D01*
X160100942Y-122172285D01*
X160164834Y-122177674D01*
G37*
G36*
X161714227Y-122377907D02*
G01*
X161360685Y-123108529D01*
X161239620Y-123365466D01*
X161160833Y-123552196D01*
X161093239Y-123740690D01*
X161070070Y-123784418D01*
X161041135Y-123813581D01*
X161005834Y-123830958D01*
X160962081Y-123837044D01*
X160907200Y-123827572D01*
X160859590Y-123799217D01*
X160834930Y-123771561D01*
X160820474Y-123740303D01*
X160815535Y-123704146D01*
X160828425Y-123635692D01*
X160887679Y-123470664D01*
X161032789Y-123140860D01*
X160901747Y-122893627D01*
X160675126Y-122487633D01*
X160624934Y-122408865D01*
X160603592Y-122362027D01*
X160597274Y-122323044D01*
X160608015Y-122271761D01*
X160641329Y-122225957D01*
X160689103Y-122194341D01*
X160742812Y-122184009D01*
X160785385Y-122189812D01*
X160819901Y-122206382D01*
X160848325Y-122234109D01*
X160940181Y-122367953D01*
X161052125Y-122557487D01*
X161187486Y-122815804D01*
X161320751Y-122521613D01*
X161394793Y-122373715D01*
X161463176Y-122252152D01*
X161497335Y-122210021D01*
X161536944Y-122186200D01*
X161584076Y-122178147D01*
X161638176Y-122187789D01*
X161686566Y-122217073D01*
X161711927Y-122245456D01*
X161726647Y-122276832D01*
X161731629Y-122312419D01*
X161727602Y-122342389D01*
X161714227Y-122377907D01*
G37*
X163554510Y-122729400D02*
X164697368Y-122729400D01*
X164125939Y-123300828D02*
X164125939Y-122157971D01*
X166197368Y-123300828D02*
X165340225Y-123300828D01*
X165768796Y-123300828D02*
X165768796Y-121800828D01*
X165768796Y-121800828D02*
X165625939Y-122015114D01*
X165625939Y-122015114D02*
X165483082Y-122157971D01*
X165483082Y-122157971D02*
X165340225Y-122229400D01*
X166768796Y-121943685D02*
X166840224Y-121872257D01*
X166840224Y-121872257D02*
X166983082Y-121800828D01*
X166983082Y-121800828D02*
X167340224Y-121800828D01*
X167340224Y-121800828D02*
X167483082Y-121872257D01*
X167483082Y-121872257D02*
X167554510Y-121943685D01*
X167554510Y-121943685D02*
X167625939Y-122086542D01*
X167625939Y-122086542D02*
X167625939Y-122229400D01*
X167625939Y-122229400D02*
X167554510Y-122443685D01*
X167554510Y-122443685D02*
X166697367Y-123300828D01*
X166697367Y-123300828D02*
X167625939Y-123300828D01*
X168054510Y-121800828D02*
X168554510Y-123300828D01*
X168554510Y-123300828D02*
X169054510Y-121800828D01*
X169197367Y-123443685D02*
X170340224Y-123443685D01*
X171554509Y-123157971D02*
X171483081Y-123229400D01*
X171483081Y-123229400D02*
X171268795Y-123300828D01*
X171268795Y-123300828D02*
X171125938Y-123300828D01*
X171125938Y-123300828D02*
X170911652Y-123229400D01*
X170911652Y-123229400D02*
X170768795Y-123086542D01*
X170768795Y-123086542D02*
X170697366Y-122943685D01*
X170697366Y-122943685D02*
X170625938Y-122657971D01*
X170625938Y-122657971D02*
X170625938Y-122443685D01*
X170625938Y-122443685D02*
X170697366Y-122157971D01*
X170697366Y-122157971D02*
X170768795Y-122015114D01*
X170768795Y-122015114D02*
X170911652Y-121872257D01*
X170911652Y-121872257D02*
X171125938Y-121800828D01*
X171125938Y-121800828D02*
X171268795Y-121800828D01*
X171268795Y-121800828D02*
X171483081Y-121872257D01*
X171483081Y-121872257D02*
X171554509Y-121943685D01*
X172197366Y-123300828D02*
X172197366Y-121800828D01*
X172840224Y-123300828D02*
X172840224Y-122515114D01*
X172840224Y-122515114D02*
X172768795Y-122372257D01*
X172768795Y-122372257D02*
X172625938Y-122300828D01*
X172625938Y-122300828D02*
X172411652Y-122300828D01*
X172411652Y-122300828D02*
X172268795Y-122372257D01*
X172268795Y-122372257D02*
X172197366Y-122443685D01*
X174197367Y-123300828D02*
X174197367Y-122515114D01*
X174197367Y-122515114D02*
X174125938Y-122372257D01*
X174125938Y-122372257D02*
X173983081Y-122300828D01*
X173983081Y-122300828D02*
X173697367Y-122300828D01*
X173697367Y-122300828D02*
X173554509Y-122372257D01*
X174197367Y-123229400D02*
X174054509Y-123300828D01*
X174054509Y-123300828D02*
X173697367Y-123300828D01*
X173697367Y-123300828D02*
X173554509Y-123229400D01*
X173554509Y-123229400D02*
X173483081Y-123086542D01*
X173483081Y-123086542D02*
X173483081Y-122943685D01*
X173483081Y-122943685D02*
X173554509Y-122800828D01*
X173554509Y-122800828D02*
X173697367Y-122729400D01*
X173697367Y-122729400D02*
X174054509Y-122729400D01*
X174054509Y-122729400D02*
X174197367Y-122657971D01*
X174911652Y-123300828D02*
X174911652Y-122300828D01*
X174911652Y-122586542D02*
X174983081Y-122443685D01*
X174983081Y-122443685D02*
X175054510Y-122372257D01*
X175054510Y-122372257D02*
X175197367Y-122300828D01*
X175197367Y-122300828D02*
X175340224Y-122300828D01*
X176483081Y-122300828D02*
X176483081Y-123515114D01*
X176483081Y-123515114D02*
X176411652Y-123657971D01*
X176411652Y-123657971D02*
X176340223Y-123729400D01*
X176340223Y-123729400D02*
X176197366Y-123800828D01*
X176197366Y-123800828D02*
X175983081Y-123800828D01*
X175983081Y-123800828D02*
X175840223Y-123729400D01*
X176483081Y-123229400D02*
X176340223Y-123300828D01*
X176340223Y-123300828D02*
X176054509Y-123300828D01*
X176054509Y-123300828D02*
X175911652Y-123229400D01*
X175911652Y-123229400D02*
X175840223Y-123157971D01*
X175840223Y-123157971D02*
X175768795Y-123015114D01*
X175768795Y-123015114D02*
X175768795Y-122586542D01*
X175768795Y-122586542D02*
X175840223Y-122443685D01*
X175840223Y-122443685D02*
X175911652Y-122372257D01*
X175911652Y-122372257D02*
X176054509Y-122300828D01*
X176054509Y-122300828D02*
X176340223Y-122300828D01*
X176340223Y-122300828D02*
X176483081Y-122372257D01*
X177768795Y-123229400D02*
X177625938Y-123300828D01*
X177625938Y-123300828D02*
X177340224Y-123300828D01*
X177340224Y-123300828D02*
X177197366Y-123229400D01*
X177197366Y-123229400D02*
X177125938Y-123086542D01*
X177125938Y-123086542D02*
X177125938Y-122515114D01*
X177125938Y-122515114D02*
X177197366Y-122372257D01*
X177197366Y-122372257D02*
X177340224Y-122300828D01*
X177340224Y-122300828D02*
X177625938Y-122300828D01*
X177625938Y-122300828D02*
X177768795Y-122372257D01*
X177768795Y-122372257D02*
X177840224Y-122515114D01*
X177840224Y-122515114D02*
X177840224Y-122657971D01*
X177840224Y-122657971D02*
X177125938Y-122800828D01*
X178483080Y-123300828D02*
X178483080Y-122300828D01*
X178483080Y-122586542D02*
X178554509Y-122443685D01*
X178554509Y-122443685D02*
X178625938Y-122372257D01*
X178625938Y-122372257D02*
X178768795Y-122300828D01*
X178768795Y-122300828D02*
X178911652Y-122300828D01*
D13*
G36*
X112696317Y-88372204D02*
G01*
X112766577Y-88404613D01*
X112818902Y-88432141D01*
X112920611Y-88483947D01*
X113011617Y-88523966D01*
X113041143Y-88534409D01*
X113096860Y-88544411D01*
X113107527Y-88517021D01*
X113101411Y-88488792D01*
X113091977Y-88434405D01*
X113095782Y-88419690D01*
X113121364Y-88445475D01*
X113171714Y-88513736D01*
X113238050Y-88610837D01*
X113311589Y-88723141D01*
X113383547Y-88837010D01*
X113445142Y-88938808D01*
X113487591Y-89014897D01*
X113502187Y-89050712D01*
X113532129Y-89085281D01*
X113613448Y-89125740D01*
X113698326Y-89155212D01*
X113822532Y-89197950D01*
X113884351Y-89232807D01*
X113886053Y-89261592D01*
X113853603Y-89278771D01*
X113829542Y-89305701D01*
X113835215Y-89317591D01*
X113876974Y-89322707D01*
X113956504Y-89307605D01*
X113998664Y-89294988D01*
X114099015Y-89250094D01*
X114145082Y-89196812D01*
X114150085Y-89177169D01*
X114163129Y-89136647D01*
X114197888Y-89115399D01*
X114270813Y-89107519D01*
X114346224Y-89106769D01*
X114488175Y-89118090D01*
X114614748Y-89157792D01*
X114708761Y-89204839D01*
X114821624Y-89257911D01*
X114928672Y-89293315D01*
X114987749Y-89302316D01*
X115076414Y-89320412D01*
X115139016Y-89385715D01*
X115144364Y-89394528D01*
X115216407Y-89470812D01*
X115339161Y-89533565D01*
X115380241Y-89548402D01*
X115495602Y-89592539D01*
X115549971Y-89628098D01*
X115546414Y-89659573D01*
X115487995Y-89691463D01*
X115479922Y-89694594D01*
X115419632Y-89725908D01*
X115398698Y-89750992D01*
X115425000Y-89816214D01*
X115484868Y-89859693D01*
X115554047Y-89870921D01*
X115606982Y-89841229D01*
X115642747Y-89810354D01*
X115696859Y-89811003D01*
X115758105Y-89829059D01*
X115865278Y-89871744D01*
X115926000Y-89920287D01*
X115957949Y-89993280D01*
X115969867Y-90051798D01*
X116004173Y-90155117D01*
X116069060Y-90212005D01*
X116070492Y-90212664D01*
X116129546Y-90249287D01*
X116150064Y-90278224D01*
X116178872Y-90306215D01*
X116249994Y-90326551D01*
X116340477Y-90335406D01*
X116427367Y-90328953D01*
X116438876Y-90326377D01*
X116483733Y-90312259D01*
X116485510Y-90297363D01*
X116437327Y-90274604D01*
X116362130Y-90247364D01*
X116199098Y-90190009D01*
X116419755Y-90187475D01*
X116530289Y-90183128D01*
X116609452Y-90174142D01*
X116640400Y-90162446D01*
X116640411Y-90162213D01*
X116620060Y-90126040D01*
X116594930Y-90095210D01*
X116720524Y-90095210D01*
X116741461Y-90130192D01*
X116745364Y-90134663D01*
X116808868Y-90178589D01*
X116866182Y-90173633D01*
X116883468Y-90155677D01*
X116874177Y-90123037D01*
X116820501Y-90096538D01*
X116750863Y-90086872D01*
X116720524Y-90095210D01*
X116594930Y-90095210D01*
X116569348Y-90063826D01*
X116550514Y-90043135D01*
X116460617Y-89946786D01*
X116542342Y-89968237D01*
X116629721Y-89987329D01*
X116737989Y-90006307D01*
X116754826Y-90008846D01*
X116843312Y-90015455D01*
X116904548Y-89994479D01*
X116969058Y-89934071D01*
X116980600Y-89921217D01*
X117027058Y-89861744D01*
X117035549Y-89833471D01*
X117023507Y-89834426D01*
X116944945Y-89860610D01*
X116850553Y-89886936D01*
X116762282Y-89907970D01*
X116702082Y-89918278D01*
X116688760Y-89917288D01*
X116701431Y-89887901D01*
X116751201Y-89827800D01*
X116826054Y-89749424D01*
X116913971Y-89665210D01*
X117002936Y-89587595D01*
X117022770Y-89571599D01*
X117235314Y-89441835D01*
X117467902Y-89374118D01*
X117629279Y-89362785D01*
X117730278Y-89361226D01*
X117798509Y-89355939D01*
X117817245Y-89349974D01*
X117788641Y-89334626D01*
X117715803Y-89311225D01*
X117664399Y-89297460D01*
X117576401Y-89273593D01*
X117544710Y-89257138D01*
X117561841Y-89241184D01*
X117590846Y-89229569D01*
X117679250Y-89217051D01*
X117813477Y-89222444D01*
X117977204Y-89243362D01*
X118154103Y-89277418D01*
X118327850Y-89322229D01*
X118414010Y-89349848D01*
X118647442Y-89450772D01*
X118845507Y-89575420D01*
X119004802Y-89717413D01*
X119121924Y-89870373D01*
X119193473Y-90027919D01*
X119216046Y-90183673D01*
X119186242Y-90331256D01*
X119100657Y-90464288D01*
X119038676Y-90521171D01*
X118981806Y-90591078D01*
X118961389Y-90660166D01*
X118988645Y-90736892D01*
X119054120Y-90785355D01*
X119133372Y-90788063D01*
X119137854Y-90786457D01*
X119197221Y-90791357D01*
X119268322Y-90830049D01*
X119348348Y-90892998D01*
X119095135Y-90878339D01*
X118841922Y-90863681D01*
X118737186Y-91021804D01*
X118681625Y-91115825D01*
X118647490Y-91193539D01*
X118641752Y-91228231D01*
X118670474Y-91257181D01*
X118749142Y-91283668D01*
X118884324Y-91309654D01*
X118945153Y-91318843D01*
X119208099Y-91364644D01*
X119419413Y-91420623D01*
X119592590Y-91491204D01*
X119738637Y-91579039D01*
X119835806Y-91639586D01*
X119922732Y-91679403D01*
X119964549Y-91688674D01*
X120029545Y-91699884D01*
X120134211Y-91728933D01*
X120258410Y-91768948D01*
X120382004Y-91813057D01*
X120484854Y-91854389D01*
X120546824Y-91886069D01*
X120550052Y-91888485D01*
X120596891Y-91906780D01*
X120691243Y-91930999D01*
X120816028Y-91956968D01*
X120871495Y-91967059D01*
X121192052Y-92043352D01*
X121511356Y-92156570D01*
X121800911Y-92296280D01*
X121851994Y-92326031D01*
X121963590Y-92385288D01*
X122066707Y-92426662D01*
X122132944Y-92440540D01*
X122209129Y-92455710D01*
X122316391Y-92495185D01*
X122415020Y-92542045D01*
X122544247Y-92604915D01*
X122678107Y-92661219D01*
X122759473Y-92689790D01*
X122846707Y-92720193D01*
X122901437Y-92757752D01*
X122941514Y-92821100D01*
X122982412Y-92922510D01*
X123037129Y-93075062D01*
X123066459Y-93181676D01*
X123070519Y-93256614D01*
X123049427Y-93314137D01*
X123003302Y-93368508D01*
X122986226Y-93384820D01*
X122923084Y-93450788D01*
X122887246Y-93501772D01*
X122884169Y-93512525D01*
X122856179Y-93544906D01*
X122788066Y-93581854D01*
X122703613Y-93614143D01*
X122626606Y-93632545D01*
X122582935Y-93629377D01*
X122526946Y-93611337D01*
X122445201Y-93599375D01*
X122347147Y-93574681D01*
X122283574Y-93544179D01*
X122604139Y-93544179D01*
X122636271Y-93549413D01*
X122678670Y-93543403D01*
X122679177Y-93532244D01*
X122635425Y-93524440D01*
X122616521Y-93529663D01*
X122604139Y-93544179D01*
X122283574Y-93544179D01*
X122239955Y-93523251D01*
X122202609Y-93497511D01*
X122372028Y-93497511D01*
X122376516Y-93516945D01*
X122393822Y-93519304D01*
X122420729Y-93507344D01*
X122415615Y-93497511D01*
X122376820Y-93493599D01*
X122372028Y-93497511D01*
X122202609Y-93497511D01*
X122146155Y-93458602D01*
X122097846Y-93404890D01*
X122230373Y-93404890D01*
X122246717Y-93421235D01*
X122263062Y-93404890D01*
X122246717Y-93388545D01*
X122230373Y-93404890D01*
X122097846Y-93404890D01*
X122088274Y-93394248D01*
X122082759Y-93381943D01*
X122065078Y-93353727D01*
X122238387Y-93353727D01*
X122242859Y-93355855D01*
X122272691Y-93332842D01*
X122279407Y-93323165D01*
X122287737Y-93292604D01*
X122283266Y-93290475D01*
X122253434Y-93313488D01*
X122246717Y-93323165D01*
X122238387Y-93353727D01*
X122065078Y-93353727D01*
X122050967Y-93331207D01*
X122031007Y-93306820D01*
X122132303Y-93306820D01*
X122148648Y-93323165D01*
X122164993Y-93306820D01*
X122148648Y-93290475D01*
X122132303Y-93306820D01*
X122031007Y-93306820D01*
X121986387Y-93252303D01*
X121905514Y-93164945D01*
X121820371Y-93077992D01*
X121903474Y-93077992D01*
X121919819Y-93094336D01*
X121936164Y-93077992D01*
X121919819Y-93061647D01*
X121903474Y-93077992D01*
X121820371Y-93077992D01*
X121756352Y-93012612D01*
X121870784Y-93012612D01*
X121887129Y-93028957D01*
X121903474Y-93012612D01*
X121887129Y-92996267D01*
X121870784Y-93012612D01*
X121756352Y-93012612D01*
X121747512Y-93003584D01*
X121147179Y-92988607D01*
X120911442Y-92981328D01*
X120729172Y-92972000D01*
X120588461Y-92959440D01*
X120477402Y-92942467D01*
X120384088Y-92919899D01*
X120350707Y-92909579D01*
X120235207Y-92875070D01*
X120153145Y-92862860D01*
X120077074Y-92871429D01*
X120007464Y-92890570D01*
X119877077Y-92915788D01*
X119699521Y-92924535D01*
X119525289Y-92920426D01*
X119386303Y-92916030D01*
X119275441Y-92916145D01*
X119206342Y-92920534D01*
X119190108Y-92926236D01*
X119196156Y-92963267D01*
X119213105Y-93054497D01*
X119239050Y-93190012D01*
X119272090Y-93359897D01*
X119310322Y-93554238D01*
X119319586Y-93601029D01*
X119352631Y-93768556D01*
X119396162Y-93990492D01*
X119448273Y-94257052D01*
X119507056Y-94558450D01*
X119570604Y-94884901D01*
X119637011Y-95226620D01*
X119704371Y-95573821D01*
X119762310Y-95872972D01*
X119830608Y-96225429D01*
X119901017Y-96587906D01*
X119971394Y-96949434D01*
X120039599Y-97299044D01*
X120103489Y-97625768D01*
X120160923Y-97918636D01*
X120209759Y-98166681D01*
X120240023Y-98319557D01*
X120283892Y-98543219D01*
X120322385Y-98744970D01*
X120353947Y-98916201D01*
X120377023Y-99048304D01*
X120390058Y-99132671D01*
X120391928Y-99160666D01*
X120357844Y-99157151D01*
X120269649Y-99140177D01*
X120136749Y-99111777D01*
X119968549Y-99073985D01*
X119774456Y-99028833D01*
X119697539Y-99010568D01*
X119496657Y-98963032D01*
X119318638Y-98921726D01*
X119172778Y-98888737D01*
X119068373Y-98866157D01*
X119014719Y-98856074D01*
X119009578Y-98855944D01*
X119021461Y-98887421D01*
X119060084Y-98973530D01*
X119123491Y-99110156D01*
X119209727Y-99293186D01*
X119316837Y-99518505D01*
X119442863Y-99781999D01*
X119585851Y-100079553D01*
X119743846Y-100407054D01*
X119911856Y-100754130D01*
X120000158Y-100937851D01*
X120076988Y-101100779D01*
X120138321Y-101234119D01*
X120180132Y-101329077D01*
X120198396Y-101376858D01*
X120198652Y-101380712D01*
X120174742Y-101359198D01*
X120107169Y-101293726D01*
X119998353Y-101186714D01*
X119850715Y-101040581D01*
X119666675Y-100857744D01*
X119448655Y-100640621D01*
X119199075Y-100391632D01*
X118920356Y-100113193D01*
X118614919Y-99807722D01*
X118285184Y-99477639D01*
X117933573Y-99125361D01*
X117562505Y-98753307D01*
X117174402Y-98363893D01*
X116771684Y-97959539D01*
X116414805Y-97600986D01*
X116269542Y-97454963D01*
X116586763Y-97454963D01*
X116629648Y-97499287D01*
X116650268Y-97518881D01*
X116731859Y-97578970D01*
X116819853Y-97601049D01*
X116930638Y-97585857D01*
X117071242Y-97537843D01*
X117253973Y-97490742D01*
X117416168Y-97503516D01*
X117543923Y-97562480D01*
X117649310Y-97595169D01*
X117765684Y-97565661D01*
X117830955Y-97524094D01*
X117873148Y-97485701D01*
X117869171Y-97451985D01*
X117833373Y-97409155D01*
X117750306Y-97351168D01*
X117624892Y-97301303D01*
X117480143Y-97265950D01*
X117339068Y-97251500D01*
X117275704Y-97254267D01*
X117172778Y-97276816D01*
X117041894Y-97320143D01*
X116922746Y-97369814D01*
X116779605Y-97428065D01*
X116673509Y-97452802D01*
X116634080Y-97450922D01*
X116589026Y-97442142D01*
X116586763Y-97454963D01*
X116269542Y-97454963D01*
X116000190Y-97184201D01*
X115864261Y-97047490D01*
X116213869Y-97047490D01*
X116236009Y-97083787D01*
X116296623Y-97150060D01*
X116350079Y-97205083D01*
X116456810Y-97305487D01*
X116538924Y-97359994D01*
X116608673Y-97376700D01*
X116609824Y-97376705D01*
X116684442Y-97365315D01*
X116723773Y-97341365D01*
X116764865Y-97301488D01*
X116836232Y-97251011D01*
X116845514Y-97245273D01*
X116945414Y-97184520D01*
X116861834Y-97163543D01*
X116773662Y-97150913D01*
X116717505Y-97152510D01*
X116654308Y-97144485D01*
X116560284Y-97113000D01*
X116502762Y-97087490D01*
X116397477Y-97045824D01*
X116302136Y-97023808D01*
X116265605Y-97022994D01*
X116225352Y-97030712D01*
X116213869Y-97047490D01*
X115864261Y-97047490D01*
X115597522Y-96779215D01*
X115209274Y-96388524D01*
X114837917Y-96014626D01*
X114485925Y-95660015D01*
X114155769Y-95327190D01*
X113849924Y-95018645D01*
X113570861Y-94736878D01*
X113321053Y-94484385D01*
X113102973Y-94263663D01*
X112919094Y-94077207D01*
X112771888Y-93927515D01*
X112663827Y-93817082D01*
X112597385Y-93748406D01*
X112575628Y-93724919D01*
X112508851Y-93640025D01*
X112588724Y-93656977D01*
X112639588Y-93669830D01*
X112744865Y-93697995D01*
X112896015Y-93739132D01*
X113084500Y-93790903D01*
X113301780Y-93850967D01*
X113539317Y-93916987D01*
X113621334Y-93939860D01*
X113861249Y-94006475D01*
X114081584Y-94066985D01*
X114274257Y-94119222D01*
X114431188Y-94161020D01*
X114544295Y-94190212D01*
X114605495Y-94204633D01*
X114613308Y-94205791D01*
X114623287Y-94181042D01*
X114596871Y-94112701D01*
X114571948Y-94066859D01*
X114522706Y-93979387D01*
X114453492Y-93853087D01*
X114374694Y-93707033D01*
X114318218Y-93601029D01*
X114252584Y-93477802D01*
X114162650Y-93309953D01*
X114055322Y-93110315D01*
X113937502Y-92891720D01*
X113816095Y-92666999D01*
X113746593Y-92538609D01*
X113630851Y-92324931D01*
X113518802Y-92117987D01*
X113416307Y-91928606D01*
X113329225Y-91767618D01*
X113263415Y-91645852D01*
X113233604Y-91590604D01*
X113044340Y-91239532D01*
X112863595Y-90904580D01*
X112693797Y-90590226D01*
X112537373Y-90300947D01*
X112396750Y-90041223D01*
X112274353Y-89815530D01*
X112178253Y-89638727D01*
X112796406Y-89638727D01*
X112807931Y-89669003D01*
X112843328Y-89750928D01*
X112899137Y-89876760D01*
X112971901Y-90038756D01*
X113058158Y-90229172D01*
X113154451Y-90440266D01*
X113157286Y-90446460D01*
X113355466Y-90879401D01*
X113528420Y-91257179D01*
X113678116Y-91584086D01*
X113806524Y-91864415D01*
X113915612Y-92102459D01*
X114007349Y-92302508D01*
X114083705Y-92468856D01*
X114146648Y-92605796D01*
X114198147Y-92717618D01*
X114240171Y-92808616D01*
X114274689Y-92883082D01*
X114296941Y-92930887D01*
X114359259Y-93065336D01*
X114437184Y-93234658D01*
X114519373Y-93414158D01*
X114574735Y-93535649D01*
X114655350Y-93712426D01*
X114742138Y-93901805D01*
X114822714Y-94076802D01*
X114867305Y-94173101D01*
X114945101Y-94342779D01*
X114996215Y-94461582D01*
X115022858Y-94537282D01*
X115027242Y-94577653D01*
X115011575Y-94590468D01*
X114984629Y-94585654D01*
X114860938Y-94547798D01*
X114702954Y-94500591D01*
X114520996Y-94446997D01*
X114325381Y-94389977D01*
X114126428Y-94332496D01*
X113934454Y-94277516D01*
X113759778Y-94228000D01*
X113612718Y-94186911D01*
X113503590Y-94157212D01*
X113442714Y-94141867D01*
X113434177Y-94140411D01*
X113441950Y-94162296D01*
X113489271Y-94222872D01*
X113569537Y-94314521D01*
X113676143Y-94429626D01*
X113766560Y-94523835D01*
X113932375Y-94694619D01*
X114122026Y-94890542D01*
X114314150Y-95089503D01*
X114487384Y-95269401D01*
X114516991Y-95300219D01*
X114684728Y-95474611D01*
X114876440Y-95673476D01*
X115070513Y-95874421D01*
X115245337Y-96055053D01*
X115274815Y-96085456D01*
X115415063Y-96230756D01*
X115551304Y-96373157D01*
X115671761Y-96500261D01*
X115764655Y-96599668D01*
X115799129Y-96637378D01*
X115872974Y-96716987D01*
X115931512Y-96765815D01*
X115995532Y-96793290D01*
X116085823Y-96808843D01*
X116201794Y-96819999D01*
X116357658Y-96841563D01*
X116495256Y-96874729D01*
X116601424Y-96914985D01*
X116663001Y-96957819D01*
X116673101Y-96981554D01*
X116702275Y-97002319D01*
X116776509Y-97023595D01*
X116827947Y-97032914D01*
X116945381Y-97058337D01*
X117052906Y-97094023D01*
X117080583Y-97106704D01*
X117168183Y-97137048D01*
X117289100Y-97161125D01*
X117373738Y-97170348D01*
X117552203Y-97196330D01*
X117705083Y-97245459D01*
X117819253Y-97312029D01*
X117881589Y-97390336D01*
X117881948Y-97391270D01*
X117914246Y-97456582D01*
X117939129Y-97473881D01*
X117948004Y-97442178D01*
X117927625Y-97401205D01*
X117875406Y-97331587D01*
X117832268Y-97281476D01*
X117773394Y-97207032D01*
X117745205Y-97151965D01*
X117748284Y-97133744D01*
X117791477Y-97137051D01*
X117800571Y-97147343D01*
X117848336Y-97178226D01*
X117866458Y-97180566D01*
X117916103Y-97196265D01*
X118002615Y-97237417D01*
X118107030Y-97294980D01*
X118218042Y-97353421D01*
X118317943Y-97394657D01*
X118382237Y-97409394D01*
X118470377Y-97429357D01*
X118549269Y-97479828D01*
X118607753Y-97546682D01*
X118634666Y-97615794D01*
X118618847Y-97673039D01*
X118601801Y-97687258D01*
X118575928Y-97677407D01*
X118569111Y-97641303D01*
X118543397Y-97563255D01*
X118470485Y-97522356D01*
X118356721Y-97518234D01*
X118208449Y-97550520D01*
X118032016Y-97618844D01*
X117910154Y-97679742D01*
X117657213Y-97816360D01*
X117507526Y-97743637D01*
X117405454Y-97700946D01*
X117316102Y-97675048D01*
X117285161Y-97671409D01*
X117204914Y-97680921D01*
X117107948Y-97704001D01*
X117016419Y-97733784D01*
X116952482Y-97763409D01*
X116936164Y-97779522D01*
X116953865Y-97814669D01*
X117006627Y-97882481D01*
X117083562Y-97969114D01*
X117094235Y-97980470D01*
X117185144Y-98072487D01*
X117255507Y-98127148D01*
X117327407Y-98156669D01*
X117422926Y-98173266D01*
X117448153Y-98176264D01*
X117600225Y-98183163D01*
X117720392Y-98161366D01*
X117758988Y-98146939D01*
X117950410Y-98100718D01*
X118147412Y-98118487D01*
X118267684Y-98160807D01*
X118392107Y-98201064D01*
X118493751Y-98189960D01*
X118591921Y-98123375D01*
X118632017Y-98083004D01*
X118738068Y-98015037D01*
X118876359Y-98001568D01*
X119042501Y-98042939D01*
X119059459Y-98049687D01*
X119173873Y-98096588D01*
X118986243Y-98079643D01*
X118876768Y-98072643D01*
X118805471Y-98082041D01*
X118745650Y-98116194D01*
X118678574Y-98175924D01*
X118555330Y-98271496D01*
X118439138Y-98310031D01*
X118312054Y-98294906D01*
X118223325Y-98261573D01*
X118067151Y-98207550D01*
X117931083Y-98199481D01*
X117789609Y-98236487D01*
X117766438Y-98245832D01*
X117615065Y-98282081D01*
X117492755Y-98276175D01*
X117343243Y-98254636D01*
X117655792Y-98575709D01*
X117785541Y-98709273D01*
X117945403Y-98874260D01*
X118120180Y-99054962D01*
X118294676Y-99235671D01*
X118409173Y-99354439D01*
X118583754Y-99535654D01*
X118778170Y-99737410D01*
X118974244Y-99940846D01*
X119153800Y-100127101D01*
X119244073Y-100220720D01*
X119383939Y-100366414D01*
X119517503Y-100506743D01*
X119634052Y-100630364D01*
X119722874Y-100725934D01*
X119761227Y-100768275D01*
X119830600Y-100843746D01*
X119881787Y-100894203D01*
X119899853Y-100907207D01*
X119892749Y-100881047D01*
X119859973Y-100811680D01*
X119808097Y-100712773D01*
X119793750Y-100686550D01*
X119747205Y-100601817D01*
X119674447Y-100468984D01*
X119580562Y-100297353D01*
X119470635Y-100096224D01*
X119349750Y-99874900D01*
X119222993Y-99642681D01*
X119181658Y-99566923D01*
X119059637Y-99343849D01*
X118946588Y-99138292D01*
X118846577Y-98957559D01*
X118763671Y-98808957D01*
X118701936Y-98699792D01*
X118665438Y-98637371D01*
X118658192Y-98626301D01*
X118639797Y-98579650D01*
X118645484Y-98564338D01*
X118681535Y-98566499D01*
X118771455Y-98583582D01*
X118906023Y-98613358D01*
X119076016Y-98653600D01*
X119272214Y-98702081D01*
X119485394Y-98756571D01*
X119706337Y-98814843D01*
X119897516Y-98866834D01*
X119907587Y-98871462D01*
X119917104Y-98877702D01*
X119925498Y-98882504D01*
X119932196Y-98882816D01*
X119936626Y-98875589D01*
X119938216Y-98857772D01*
X119936394Y-98826313D01*
X119930588Y-98778163D01*
X119920227Y-98710270D01*
X119904738Y-98619584D01*
X119883550Y-98503054D01*
X119856090Y-98357629D01*
X119821787Y-98180260D01*
X119780069Y-97967894D01*
X119730363Y-97717482D01*
X119672098Y-97425972D01*
X119604703Y-97090315D01*
X119527604Y-96707459D01*
X119440231Y-96274353D01*
X119342010Y-95787948D01*
X119232371Y-95245192D01*
X119110741Y-94643034D01*
X119039845Y-94291953D01*
X118789926Y-93054176D01*
X118937667Y-92906435D01*
X119019774Y-92826933D01*
X119075065Y-92786567D01*
X119122120Y-92777419D01*
X119179518Y-92791574D01*
X119194867Y-92796850D01*
X119379990Y-92839824D01*
X119596823Y-92856840D01*
X119816720Y-92847078D01*
X119976371Y-92819241D01*
X120098341Y-92791281D01*
X120181037Y-92782320D01*
X120247582Y-92791832D01*
X120303269Y-92811785D01*
X120422753Y-92846676D01*
X120590984Y-92876633D01*
X120792341Y-92900756D01*
X121011202Y-92918147D01*
X121231943Y-92927907D01*
X121438944Y-92929138D01*
X121616581Y-92920940D01*
X121749232Y-92902416D01*
X121772715Y-92896312D01*
X121817016Y-92878055D01*
X121808129Y-92868766D01*
X121778748Y-92854559D01*
X121783411Y-92843915D01*
X121819725Y-92846219D01*
X121871370Y-92883437D01*
X121917217Y-92936216D01*
X121936164Y-92983838D01*
X121962059Y-93030922D01*
X122005960Y-93064010D01*
X122047845Y-93099355D01*
X122042268Y-93122368D01*
X122033906Y-93157708D01*
X122060419Y-93191335D01*
X122097301Y-93221567D01*
X122097605Y-93202522D01*
X122090517Y-93183163D01*
X122080935Y-93134397D01*
X122099770Y-93130462D01*
X122134188Y-93165462D01*
X122164032Y-93216923D01*
X122197088Y-93268227D01*
X122219816Y-93268946D01*
X122220883Y-93266423D01*
X122210298Y-93220024D01*
X122167444Y-93144040D01*
X122126020Y-93086629D01*
X122045872Y-92966761D01*
X122008143Y-92868810D01*
X122015563Y-92801603D01*
X122032669Y-92784750D01*
X122063759Y-92788918D01*
X122066923Y-92803797D01*
X122086879Y-92857071D01*
X122124131Y-92909415D01*
X122156385Y-92951658D01*
X122141704Y-92952814D01*
X122132303Y-92947942D01*
X122123327Y-92952648D01*
X122153631Y-92993912D01*
X122189510Y-93033776D01*
X122254063Y-93114476D01*
X122293604Y-93187271D01*
X122299011Y-93210307D01*
X122304757Y-93245152D01*
X122318873Y-93220813D01*
X122328442Y-93192406D01*
X122347744Y-93136314D01*
X122355191Y-93140937D01*
X122357873Y-93186383D01*
X122345740Y-93276615D01*
X122327292Y-93325314D01*
X122304243Y-93378435D01*
X122314241Y-93382973D01*
X122350127Y-93341900D01*
X122375447Y-93305330D01*
X122405835Y-93231169D01*
X122408812Y-93159759D01*
X122387260Y-93111435D01*
X122347085Y-93105276D01*
X122305522Y-93090449D01*
X122255337Y-93033816D01*
X122245987Y-93018918D01*
X122185719Y-92916892D01*
X122297943Y-92987331D01*
X122406048Y-93080506D01*
X122450576Y-93183373D01*
X122430816Y-93293919D01*
X122416233Y-93321698D01*
X122386246Y-93390186D01*
X122386837Y-93432564D01*
X122389599Y-93434970D01*
X122418617Y-93430605D01*
X122497161Y-93430605D01*
X122505115Y-93448874D01*
X122538030Y-93483968D01*
X122556953Y-93476769D01*
X122557271Y-93472199D01*
X122534052Y-93444549D01*
X122519530Y-93434458D01*
X122497161Y-93430605D01*
X122418617Y-93430605D01*
X122431952Y-93428599D01*
X122476007Y-93376042D01*
X122497550Y-93325711D01*
X122517114Y-93317180D01*
X122548169Y-93367258D01*
X122554940Y-93382918D01*
X122595392Y-93457017D01*
X122631441Y-93485846D01*
X122653016Y-93463819D01*
X122655340Y-93438606D01*
X122666749Y-93421235D01*
X122791261Y-93421235D01*
X122796398Y-93467642D01*
X122807750Y-93462097D01*
X122812067Y-93395170D01*
X122807750Y-93380373D01*
X122795818Y-93376266D01*
X122791261Y-93421235D01*
X122666749Y-93421235D01*
X122677000Y-93405626D01*
X122704375Y-93409413D01*
X122741347Y-93405824D01*
X122753332Y-93349319D01*
X122753410Y-93341078D01*
X122763414Y-93283309D01*
X122786100Y-93274131D01*
X122811661Y-93267591D01*
X122819516Y-93216567D01*
X122818717Y-93208751D01*
X122884169Y-93208751D01*
X122900514Y-93225096D01*
X122916859Y-93208751D01*
X122900514Y-93192406D01*
X122884169Y-93208751D01*
X122818717Y-93208751D01*
X122813701Y-93159716D01*
X122949549Y-93159716D01*
X122961510Y-93186624D01*
X122971342Y-93181509D01*
X122975254Y-93142714D01*
X122971342Y-93137923D01*
X122951908Y-93142410D01*
X122949549Y-93159716D01*
X122813701Y-93159716D01*
X122811576Y-93138942D01*
X122789754Y-93052596D01*
X122786560Y-93045302D01*
X122851479Y-93045302D01*
X122867824Y-93061647D01*
X122916859Y-93061647D01*
X122928820Y-93088554D01*
X122938652Y-93083440D01*
X122942565Y-93044645D01*
X122938652Y-93039853D01*
X122919218Y-93044341D01*
X122916859Y-93061647D01*
X122867824Y-93061647D01*
X122884169Y-93045302D01*
X122867824Y-93028957D01*
X122851479Y-93045302D01*
X122786560Y-93045302D01*
X122755960Y-92975413D01*
X122753768Y-92971750D01*
X122746569Y-92963577D01*
X122818790Y-92963577D01*
X122830750Y-92990485D01*
X122840583Y-92985370D01*
X122842781Y-92963577D01*
X122884169Y-92963577D01*
X122896130Y-92990485D01*
X122905962Y-92985370D01*
X122909875Y-92946575D01*
X122905962Y-92941784D01*
X122886528Y-92946271D01*
X122884169Y-92963577D01*
X122842781Y-92963577D01*
X122844495Y-92946575D01*
X122840583Y-92941784D01*
X122821149Y-92946271D01*
X122818790Y-92963577D01*
X122746569Y-92963577D01*
X122679238Y-92887140D01*
X122613698Y-92865508D01*
X122568857Y-92861095D01*
X122520157Y-92846081D01*
X122730417Y-92846081D01*
X122753410Y-92865508D01*
X122805571Y-92894909D01*
X122812520Y-92883836D01*
X122811430Y-92881853D01*
X122851479Y-92881853D01*
X122867824Y-92898198D01*
X122884169Y-92881853D01*
X122867824Y-92865508D01*
X122851479Y-92881853D01*
X122811430Y-92881853D01*
X122802445Y-92865508D01*
X122754704Y-92834427D01*
X122743308Y-92833318D01*
X122730417Y-92846081D01*
X122520157Y-92846081D01*
X122514111Y-92844217D01*
X122440536Y-92811025D01*
X122600857Y-92811025D01*
X122605345Y-92830459D01*
X122622651Y-92832818D01*
X122649558Y-92820857D01*
X122647278Y-92816473D01*
X122818790Y-92816473D01*
X122835134Y-92832818D01*
X122851479Y-92816473D01*
X122835134Y-92800128D01*
X122818790Y-92816473D01*
X122647278Y-92816473D01*
X122644444Y-92811025D01*
X122605649Y-92807112D01*
X122600857Y-92811025D01*
X122440536Y-92811025D01*
X122436954Y-92809409D01*
X122377115Y-92778335D01*
X122502788Y-92778335D01*
X122507275Y-92797769D01*
X122524581Y-92800128D01*
X122551488Y-92788167D01*
X122549208Y-92783783D01*
X122753410Y-92783783D01*
X122769755Y-92800128D01*
X122786100Y-92783783D01*
X122769755Y-92767438D01*
X122753410Y-92783783D01*
X122549208Y-92783783D01*
X122546374Y-92778335D01*
X122507579Y-92774422D01*
X122502788Y-92778335D01*
X122377115Y-92778335D01*
X122324881Y-92751210D01*
X122214028Y-92690921D01*
X122190465Y-92677414D01*
X122338462Y-92677414D01*
X122372234Y-92710231D01*
X122429985Y-92757498D01*
X122453647Y-92762991D01*
X122446568Y-92745645D01*
X122600857Y-92745645D01*
X122605345Y-92765079D01*
X122622651Y-92767438D01*
X122649558Y-92755477D01*
X122644444Y-92745645D01*
X122605649Y-92741733D01*
X122600857Y-92745645D01*
X122446568Y-92745645D01*
X122440692Y-92731246D01*
X122443372Y-92709482D01*
X122495970Y-92718962D01*
X122550435Y-92731602D01*
X122546323Y-92718711D01*
X122484609Y-92681741D01*
X122463429Y-92670535D01*
X122411182Y-92649838D01*
X122408151Y-92666107D01*
X122410896Y-92697568D01*
X122375589Y-92696757D01*
X122342461Y-92677541D01*
X122338462Y-92677414D01*
X122190465Y-92677414D01*
X122150638Y-92654584D01*
X122141691Y-92639347D01*
X122184228Y-92635010D01*
X122197683Y-92634583D01*
X122252223Y-92630522D01*
X122245585Y-92618392D01*
X122214028Y-92603989D01*
X122134379Y-92583144D01*
X122041104Y-92573597D01*
X121939839Y-92556601D01*
X121829537Y-92517747D01*
X121812100Y-92509335D01*
X121601802Y-92411792D01*
X121365817Y-92318198D01*
X121127815Y-92236978D01*
X120911467Y-92176557D01*
X120824710Y-92157874D01*
X120690309Y-92130405D01*
X120575462Y-92102926D01*
X120499445Y-92080182D01*
X120486218Y-92074551D01*
X120444075Y-92059683D01*
X120447285Y-92078538D01*
X120455983Y-92105386D01*
X120429926Y-92109846D01*
X120360638Y-92090653D01*
X120244115Y-92048245D01*
X120197712Y-92031917D01*
X120367052Y-92031917D01*
X120383397Y-92048262D01*
X120399742Y-92031917D01*
X120383397Y-92015572D01*
X120367052Y-92031917D01*
X120197712Y-92031917D01*
X120142160Y-92012370D01*
X120096456Y-91999227D01*
X120301672Y-91999227D01*
X120318017Y-92015572D01*
X120334362Y-91999227D01*
X120318017Y-91982882D01*
X120301672Y-91999227D01*
X120096456Y-91999227D01*
X120062175Y-91989369D01*
X120031631Y-91984586D01*
X120036577Y-91995680D01*
X120090661Y-92022732D01*
X120162741Y-92052250D01*
X120256367Y-92093190D01*
X120318702Y-92129944D01*
X120334362Y-92148616D01*
X120363995Y-92165041D01*
X120440735Y-92176310D01*
X120522329Y-92179589D01*
X120710918Y-92192887D01*
X120922628Y-92228729D01*
X121143440Y-92282595D01*
X121359337Y-92349967D01*
X121556301Y-92426328D01*
X121720316Y-92507157D01*
X121837363Y-92587936D01*
X121860834Y-92611055D01*
X121897314Y-92660957D01*
X121886502Y-92692159D01*
X121869485Y-92704747D01*
X121802481Y-92720311D01*
X121700197Y-92714864D01*
X121588485Y-92690567D01*
X121552547Y-92678242D01*
X121517597Y-92674886D01*
X121524108Y-92696503D01*
X121533826Y-92717828D01*
X121523714Y-92731883D01*
X121482612Y-92741033D01*
X121399359Y-92747643D01*
X121262794Y-92754075D01*
X121249678Y-92754634D01*
X121120989Y-92760727D01*
X121004358Y-92767301D01*
X120939124Y-92771843D01*
X120758386Y-92771206D01*
X120570001Y-92744422D01*
X120397643Y-92696469D01*
X120264986Y-92632325D01*
X120260289Y-92629110D01*
X120192920Y-92591437D01*
X120123215Y-92581713D01*
X120022049Y-92596194D01*
X120015115Y-92597594D01*
X119766779Y-92618189D01*
X119520106Y-92583262D01*
X119294752Y-92495838D01*
X119272215Y-92483208D01*
X119223157Y-92446619D01*
X119232537Y-92429697D01*
X119296234Y-92433111D01*
X119410129Y-92457528D01*
X119418043Y-92459565D01*
X119556026Y-92486268D01*
X119701630Y-92501001D01*
X119761242Y-92502098D01*
X119925739Y-92498276D01*
X119763497Y-92471711D01*
X120242354Y-92471711D01*
X120277892Y-92483363D01*
X120366145Y-92489505D01*
X120469244Y-92491244D01*
X120595840Y-92490894D01*
X120664082Y-92486974D01*
X120680957Y-92478153D01*
X120653454Y-92463099D01*
X120641212Y-92458478D01*
X120544017Y-92417460D01*
X120442519Y-92367071D01*
X120442228Y-92366912D01*
X120358689Y-92323984D01*
X120316992Y-92314247D01*
X120302864Y-92337342D01*
X120301672Y-92363384D01*
X120277400Y-92427330D01*
X120252291Y-92453281D01*
X120242354Y-92471711D01*
X119763497Y-92471711D01*
X119745945Y-92468837D01*
X119580044Y-92428970D01*
X119425343Y-92369109D01*
X119297656Y-92297209D01*
X119212799Y-92221225D01*
X119194337Y-92191351D01*
X119169127Y-92127387D01*
X119164477Y-92097230D01*
X119253816Y-92046529D01*
X119393522Y-91997382D01*
X119539340Y-91961089D01*
X120214500Y-91961089D01*
X120218987Y-91980523D01*
X120236293Y-91982882D01*
X120263200Y-91970921D01*
X120258086Y-91961089D01*
X120226828Y-91957937D01*
X120469810Y-91957937D01*
X120480706Y-91972063D01*
X120506094Y-91992936D01*
X120570519Y-92023150D01*
X120672190Y-92049437D01*
X120738683Y-92059886D01*
X120928981Y-92096434D01*
X121154702Y-92162668D01*
X121396816Y-92252084D01*
X121636293Y-92358181D01*
X121690990Y-92385267D01*
X121911604Y-92484790D01*
X122105256Y-92543833D01*
X122263062Y-92566707D01*
X122295597Y-92565169D01*
X122271445Y-92544077D01*
X122263062Y-92538609D01*
X122196329Y-92515762D01*
X122109971Y-92506420D01*
X122033858Y-92490832D01*
X121917072Y-92448652D01*
X121775534Y-92386030D01*
X121694475Y-92345910D01*
X121399894Y-92205434D01*
X121142145Y-92106759D01*
X120910985Y-92046324D01*
X120775675Y-92026409D01*
X120658184Y-92010721D01*
X120559500Y-91990925D01*
X120514156Y-91976574D01*
X120469810Y-91957937D01*
X120226828Y-91957937D01*
X120219291Y-91957177D01*
X120214500Y-91961089D01*
X119539340Y-91961089D01*
X119568630Y-91953799D01*
X119714668Y-91928399D01*
X120083740Y-91928399D01*
X120088228Y-91947833D01*
X120105533Y-91950192D01*
X120132441Y-91938232D01*
X120127327Y-91928399D01*
X120088531Y-91924487D01*
X120083740Y-91928399D01*
X119714668Y-91928399D01*
X119764172Y-91919789D01*
X119876705Y-91906450D01*
X119903452Y-91900331D01*
X119871891Y-91894113D01*
X119789083Y-91888936D01*
X119762290Y-91887972D01*
X119647331Y-91882796D01*
X119590467Y-91875299D01*
X119584415Y-91863509D01*
X119615095Y-91848115D01*
X119696728Y-91815561D01*
X119615095Y-91753899D01*
X119392304Y-91623629D01*
X119343077Y-91606949D01*
X119582496Y-91606949D01*
X119598841Y-91623294D01*
X119615186Y-91606949D01*
X119631531Y-91606949D01*
X119705162Y-91690865D01*
X119785962Y-91753408D01*
X119909991Y-91799203D01*
X119983025Y-91815974D01*
X120109197Y-91845276D01*
X120223944Y-91878384D01*
X120285327Y-91901025D01*
X120379239Y-91938877D01*
X120421390Y-91944346D01*
X120417632Y-91920002D01*
X120372889Y-91889591D01*
X120282068Y-91852888D01*
X120163332Y-91815736D01*
X120034847Y-91783975D01*
X119942084Y-91767072D01*
X119831049Y-91737939D01*
X119734219Y-91691623D01*
X119713255Y-91676253D01*
X119631531Y-91606949D01*
X119615186Y-91606949D01*
X119598841Y-91590604D01*
X119582496Y-91606949D01*
X119343077Y-91606949D01*
X119246601Y-91574259D01*
X119517116Y-91574259D01*
X119533461Y-91590604D01*
X119549806Y-91574259D01*
X119533461Y-91557914D01*
X119517116Y-91574259D01*
X119246601Y-91574259D01*
X119150125Y-91541569D01*
X119451737Y-91541569D01*
X119468082Y-91557914D01*
X119484427Y-91541569D01*
X119468082Y-91525225D01*
X119451737Y-91541569D01*
X119150125Y-91541569D01*
X119123245Y-91532461D01*
X119018937Y-91510293D01*
X118802514Y-91470741D01*
X119266494Y-91470741D01*
X119270982Y-91490176D01*
X119288288Y-91492535D01*
X119315195Y-91480574D01*
X119310081Y-91470741D01*
X119271286Y-91466829D01*
X119266494Y-91470741D01*
X118802514Y-91470741D01*
X118781595Y-91466918D01*
X118994079Y-91459287D01*
X119206563Y-91451656D01*
X118945044Y-91405664D01*
X118810272Y-91378706D01*
X118691470Y-91349197D01*
X118610882Y-91322779D01*
X118601801Y-91318613D01*
X118534411Y-91251492D01*
X118517606Y-91143998D01*
X118525025Y-91111857D01*
X118536421Y-91111857D01*
X118547744Y-91131858D01*
X118583017Y-91096101D01*
X118635027Y-91017665D01*
X118692650Y-90931548D01*
X118745273Y-90864020D01*
X118754442Y-90854216D01*
X118783492Y-90816478D01*
X118761021Y-90806113D01*
X118759413Y-90806107D01*
X118723105Y-90831186D01*
X118668420Y-90893295D01*
X118609652Y-90972835D01*
X118561095Y-91050206D01*
X118537045Y-91105808D01*
X118536421Y-91111857D01*
X118525025Y-91111857D01*
X118551470Y-90997281D01*
X118573622Y-90940825D01*
X118616257Y-90834629D01*
X118628837Y-90774612D01*
X118608932Y-90747694D01*
X118554110Y-90740798D01*
X118536421Y-90740669D01*
X118465149Y-90728651D01*
X118437851Y-90699806D01*
X118435264Y-90691634D01*
X118569111Y-90691634D01*
X118585456Y-90707979D01*
X118601801Y-90691634D01*
X118585456Y-90675289D01*
X118569111Y-90691634D01*
X118435264Y-90691634D01*
X118429789Y-90674341D01*
X118411930Y-90695007D01*
X118391778Y-90744885D01*
X118376835Y-90807056D01*
X118373473Y-90844981D01*
X118356964Y-90928241D01*
X118314846Y-90959344D01*
X118256400Y-90932097D01*
X118250884Y-90926799D01*
X118221208Y-90887691D01*
X118219474Y-90841373D01*
X118245680Y-90763410D01*
X118250878Y-90750331D01*
X118280328Y-90667369D01*
X118279068Y-90613065D01*
X118242061Y-90555946D01*
X118214552Y-90523438D01*
X118148816Y-90458427D01*
X118145739Y-90457357D01*
X118449249Y-90457357D01*
X118453736Y-90476791D01*
X118471042Y-90479150D01*
X118497949Y-90467189D01*
X118492835Y-90457357D01*
X118454040Y-90453444D01*
X118449249Y-90457357D01*
X118145739Y-90457357D01*
X118093190Y-90439085D01*
X118046074Y-90447606D01*
X117995322Y-90465919D01*
X118004981Y-90474304D01*
X118029729Y-90476392D01*
X118105730Y-90492364D01*
X118136737Y-90506570D01*
X118173082Y-90550891D01*
X118192375Y-90611283D01*
X118189429Y-90661032D01*
X118169508Y-90675289D01*
X118149657Y-90689153D01*
X118155155Y-90697197D01*
X118155752Y-90737318D01*
X118129758Y-90791301D01*
X118102517Y-90845199D01*
X118114586Y-90888265D01*
X118163668Y-90939795D01*
X118255697Y-91005906D01*
X118349790Y-91050002D01*
X118427529Y-91088868D01*
X118460413Y-91151976D01*
X118464903Y-91181981D01*
X118489098Y-91266348D01*
X118527896Y-91320575D01*
X118567344Y-91363018D01*
X118556299Y-91383785D01*
X118506553Y-91381082D01*
X118429897Y-91353115D01*
X118403393Y-91339519D01*
X118274903Y-91269138D01*
X118274903Y-91345473D01*
X118270359Y-91425206D01*
X118263916Y-91465344D01*
X118261469Y-91490747D01*
X118266640Y-91484362D01*
X118296010Y-91454809D01*
X118313387Y-91477984D01*
X118313378Y-91541568D01*
X118307054Y-91576649D01*
X118256305Y-91711260D01*
X118164269Y-91827601D01*
X118021810Y-91935379D01*
X117908979Y-91999634D01*
X117815581Y-92055596D01*
X117746046Y-92109794D01*
X117725317Y-92134196D01*
X117684112Y-92168958D01*
X117644207Y-92150410D01*
X117622338Y-92088775D01*
X117621607Y-92070850D01*
X117625451Y-92034217D01*
X117686486Y-92034217D01*
X117710511Y-92033995D01*
X117751865Y-92015572D01*
X117803239Y-91981813D01*
X117817245Y-91964237D01*
X117793220Y-91964459D01*
X117751865Y-91982882D01*
X117700492Y-92016641D01*
X117686486Y-92034217D01*
X117625451Y-92034217D01*
X117627993Y-92009999D01*
X117654002Y-91959624D01*
X117687434Y-91928050D01*
X117865948Y-91928050D01*
X117869213Y-91947145D01*
X117924369Y-91928747D01*
X117982318Y-91900318D01*
X118055071Y-91859291D01*
X118074136Y-91834083D01*
X118045535Y-91813883D01*
X118033209Y-91808947D01*
X117981788Y-91818575D01*
X117918176Y-91865568D01*
X117913096Y-91870829D01*
X117865948Y-91928050D01*
X117687434Y-91928050D01*
X117711397Y-91905418D01*
X117811942Y-91833077D01*
X117823750Y-91825025D01*
X117911756Y-91761914D01*
X117941667Y-91737708D01*
X118103572Y-91737708D01*
X118179249Y-91665064D01*
X118226037Y-91610404D01*
X118237695Y-91575512D01*
X118236652Y-91574147D01*
X118209205Y-91585769D01*
X118166398Y-91638407D01*
X118160976Y-91646791D01*
X118103572Y-91737708D01*
X117941667Y-91737708D01*
X117976442Y-91709565D01*
X117998119Y-91686926D01*
X117983405Y-91687455D01*
X117925953Y-91718539D01*
X117837034Y-91773889D01*
X117806957Y-91793591D01*
X117696704Y-91866420D01*
X117601317Y-91929180D01*
X117539345Y-91969672D01*
X117534518Y-91972787D01*
X117495558Y-92002600D01*
X117512154Y-92012769D01*
X117527031Y-92013650D01*
X117570659Y-92044459D01*
X117599149Y-92135492D01*
X117600969Y-92146331D01*
X117624000Y-92240757D01*
X117656023Y-92273113D01*
X117702134Y-92246590D01*
X117723345Y-92223025D01*
X117774900Y-92182874D01*
X117867062Y-92129445D01*
X117979942Y-92074261D01*
X117980694Y-92073924D01*
X118107163Y-92009186D01*
X118225181Y-91935104D01*
X118300394Y-91875459D01*
X118397016Y-91801587D01*
X118509669Y-91762167D01*
X118578258Y-91751299D01*
X118674897Y-91739195D01*
X118709643Y-91732519D01*
X118685512Y-91728863D01*
X118609974Y-91725966D01*
X118512925Y-91714157D01*
X118472933Y-91685527D01*
X118471042Y-91674258D01*
X118486355Y-91623142D01*
X118538070Y-91605185D01*
X118634853Y-91619050D01*
X118705079Y-91638157D01*
X118823904Y-91671693D01*
X118882052Y-91683359D01*
X118880538Y-91672934D01*
X118820377Y-91640198D01*
X118781595Y-91621505D01*
X118650836Y-91559629D01*
X118814285Y-91558954D01*
X118943714Y-91566361D01*
X119071885Y-91585732D01*
X119108494Y-91594496D01*
X119210453Y-91631987D01*
X119308345Y-91682772D01*
X119383810Y-91735648D01*
X119418491Y-91779411D01*
X119419047Y-91784019D01*
X119391413Y-91806226D01*
X119318087Y-91847471D01*
X119213431Y-91900949D01*
X119091809Y-91959854D01*
X118967584Y-92017380D01*
X118855117Y-92066722D01*
X118768773Y-92101076D01*
X118723369Y-92113642D01*
X118721084Y-92093405D01*
X118757241Y-92042422D01*
X118781595Y-92015572D01*
X118842349Y-91947961D01*
X118857100Y-91921281D01*
X118829390Y-91933802D01*
X118762760Y-91983794D01*
X118660751Y-92069527D01*
X118647500Y-92081084D01*
X118498818Y-92201308D01*
X118354082Y-92300625D01*
X118226062Y-92371340D01*
X118127527Y-92405755D01*
X118105407Y-92407850D01*
X118062242Y-92421805D01*
X118064951Y-92444637D01*
X118058646Y-92467971D01*
X117994871Y-92470237D01*
X117971104Y-92467814D01*
X117898520Y-92463709D01*
X117866287Y-92470757D01*
X117866672Y-92473864D01*
X117844259Y-92484352D01*
X117773685Y-92490648D01*
X117703580Y-92491549D01*
X117552549Y-92470312D01*
X117439142Y-92414576D01*
X117372876Y-92330670D01*
X117359587Y-92262839D01*
X117347865Y-92204083D01*
X117303567Y-92193787D01*
X117294208Y-92195366D01*
X117249309Y-92195633D01*
X117232152Y-92165941D01*
X117240848Y-92094866D01*
X117263178Y-92007613D01*
X117296382Y-91929995D01*
X117358390Y-91850541D01*
X117460272Y-91756382D01*
X117524514Y-91703840D01*
X117625598Y-91621086D01*
X117703582Y-91553244D01*
X117746834Y-91510621D01*
X117751865Y-91502421D01*
X117731612Y-91504928D01*
X117694658Y-91532561D01*
X117626898Y-91580705D01*
X117535975Y-91632820D01*
X117523037Y-91639357D01*
X117423062Y-91700485D01*
X117321114Y-91779724D01*
X117302380Y-91796816D01*
X117196138Y-91897638D01*
X117196138Y-91747341D01*
X117202774Y-91646524D01*
X117232757Y-91578989D01*
X117301204Y-91513160D01*
X117312656Y-91503927D01*
X117412704Y-91421188D01*
X117511740Y-91335165D01*
X117529121Y-91319446D01*
X117593454Y-91265578D01*
X117635050Y-91239936D01*
X117641063Y-91240076D01*
X117631713Y-91271732D01*
X117595013Y-91340828D01*
X117556077Y-91404992D01*
X117507612Y-91487898D01*
X117483021Y-91543432D01*
X117484667Y-91557914D01*
X117524268Y-91541648D01*
X117599770Y-91499656D01*
X117667515Y-91458171D01*
X117754696Y-91406393D01*
X117817363Y-91375731D01*
X117838235Y-91371868D01*
X117828483Y-91403610D01*
X117789777Y-91473195D01*
X117736198Y-91556908D01*
X117676443Y-91652026D01*
X117657397Y-91700168D01*
X117677816Y-91704499D01*
X117678121Y-91704372D01*
X117759141Y-91679826D01*
X117792304Y-91674207D01*
X117855547Y-91648456D01*
X117925488Y-91596402D01*
X117991727Y-91548889D01*
X118030823Y-91560039D01*
X118046763Y-91631705D01*
X118047519Y-91653260D01*
X118050612Y-91702920D01*
X118063127Y-91703906D01*
X118093640Y-91652019D01*
X118108747Y-91623294D01*
X118170147Y-91496743D01*
X118195983Y-91416302D01*
X118187392Y-91373978D01*
X118146026Y-91361775D01*
X118073253Y-91338083D01*
X118022905Y-91297285D01*
X117936739Y-91237431D01*
X117809820Y-91196609D01*
X117665123Y-91179251D01*
X117525625Y-91189787D01*
X117498491Y-91196133D01*
X117401404Y-91227364D01*
X117335613Y-91268463D01*
X117274086Y-91338892D01*
X117245684Y-91378120D01*
X117212203Y-91422804D01*
X117207858Y-91412122D01*
X117217368Y-91372065D01*
X117255964Y-91293417D01*
X117297467Y-91244412D01*
X117345455Y-91180719D01*
X117359587Y-91132947D01*
X117383932Y-91065962D01*
X117441168Y-91007600D01*
X117507602Y-90978044D01*
X117538164Y-90980852D01*
X117584450Y-91015349D01*
X117568660Y-91055087D01*
X117493173Y-91094364D01*
X117490347Y-91095358D01*
X117412876Y-91126354D01*
X117393859Y-91142528D01*
X117427707Y-91142193D01*
X117508828Y-91123663D01*
X117547374Y-91112560D01*
X117661194Y-91088434D01*
X117767053Y-91082115D01*
X117800721Y-91085820D01*
X117907540Y-91114121D01*
X118001582Y-91150182D01*
X118063992Y-91185833D01*
X118078764Y-91206306D01*
X118105350Y-91228257D01*
X118127799Y-91231016D01*
X118171541Y-91214119D01*
X118168578Y-91178312D01*
X118122941Y-91145921D01*
X118111821Y-91142515D01*
X118065988Y-91119160D01*
X118061962Y-91100996D01*
X118041969Y-91083523D01*
X117974194Y-91065979D01*
X117919839Y-91057851D01*
X117790890Y-91030659D01*
X117653889Y-90984491D01*
X117609353Y-90964790D01*
X117508814Y-90921364D01*
X117437515Y-90908823D01*
X117369358Y-90923236D01*
X117358831Y-90927087D01*
X117285384Y-90945002D01*
X117262990Y-90928777D01*
X117296366Y-90883753D01*
X117310049Y-90871846D01*
X117369509Y-90850189D01*
X117478648Y-90835525D01*
X117612430Y-90830037D01*
X117715671Y-90827898D01*
X117772594Y-90823507D01*
X117773093Y-90822393D01*
X118013384Y-90822393D01*
X118029729Y-90838738D01*
X118046074Y-90822393D01*
X118029729Y-90806048D01*
X118013384Y-90822393D01*
X117773093Y-90822393D01*
X117775207Y-90817669D01*
X117760038Y-90815206D01*
X117708161Y-90798233D01*
X117896803Y-90798233D01*
X117928935Y-90803467D01*
X117971335Y-90797457D01*
X117971841Y-90786298D01*
X117928089Y-90778494D01*
X117909185Y-90783717D01*
X117896803Y-90798233D01*
X117708161Y-90798233D01*
X117677822Y-90788307D01*
X117656094Y-90738512D01*
X117696484Y-90670140D01*
X117702831Y-90663614D01*
X117751803Y-90578950D01*
X117748321Y-90553900D01*
X118051343Y-90553900D01*
X118059297Y-90572169D01*
X118092212Y-90607263D01*
X118111135Y-90600064D01*
X118111454Y-90595494D01*
X118088235Y-90567844D01*
X118073713Y-90557753D01*
X118051343Y-90553900D01*
X117748321Y-90553900D01*
X117739940Y-90493610D01*
X117670663Y-90418980D01*
X117661208Y-90413770D01*
X118372972Y-90413770D01*
X118384933Y-90440678D01*
X118394765Y-90435563D01*
X118398678Y-90396768D01*
X118394765Y-90391977D01*
X118375331Y-90396464D01*
X118372972Y-90413770D01*
X117661208Y-90413770D01*
X117621106Y-90391672D01*
X117576604Y-90369582D01*
X117583301Y-90362685D01*
X117647246Y-90368474D01*
X117670322Y-90371291D01*
X117768279Y-90374360D01*
X117832979Y-90347664D01*
X117863355Y-90318933D01*
X117904120Y-90269846D01*
X117895888Y-90253636D01*
X118316853Y-90253636D01*
X118323712Y-90286391D01*
X118326039Y-90292593D01*
X118351936Y-90332623D01*
X118366659Y-90332911D01*
X118362992Y-90298329D01*
X118344339Y-90274294D01*
X118316853Y-90253636D01*
X117895888Y-90253636D01*
X117895298Y-90252474D01*
X117840785Y-90250321D01*
X117742062Y-90262553D01*
X117672269Y-90282202D01*
X117606939Y-90298805D01*
X117591381Y-90285087D01*
X117622863Y-90249687D01*
X117697671Y-90201779D01*
X117797880Y-90163803D01*
X117916899Y-90155328D01*
X117983358Y-90159895D01*
X118159791Y-90176848D01*
X118017003Y-90050135D01*
X117932249Y-89981340D01*
X117861704Y-89935321D01*
X117829386Y-89923423D01*
X117788658Y-89903992D01*
X117784555Y-89890110D01*
X117808895Y-89865571D01*
X117873643Y-89873299D01*
X117966394Y-89907024D01*
X118074744Y-89960474D01*
X118186287Y-90027380D01*
X118288618Y-90101470D01*
X118369332Y-90176473D01*
X118383126Y-90192685D01*
X118490090Y-90287252D01*
X118605500Y-90318492D01*
X118724749Y-90285517D01*
X118757977Y-90264812D01*
X118817989Y-90194313D01*
X118823516Y-90103123D01*
X118773593Y-89989038D01*
X118667257Y-89849850D01*
X118503981Y-89683764D01*
X118488366Y-89668635D01*
X118582600Y-89668635D01*
X118614965Y-89709995D01*
X118679773Y-89778201D01*
X118807882Y-89922244D01*
X118882529Y-90044361D01*
X118907812Y-90153632D01*
X118891844Y-90248220D01*
X118827531Y-90354478D01*
X118724425Y-90408906D01*
X118661157Y-90417562D01*
X118615318Y-90422939D01*
X118632120Y-90433285D01*
X118644261Y-90436612D01*
X118679084Y-90455257D01*
X118690753Y-90498468D01*
X118683129Y-90584275D01*
X118680198Y-90604359D01*
X118668581Y-90694104D01*
X118671906Y-90730856D01*
X118693447Y-90725950D01*
X118711291Y-90712066D01*
X118750097Y-90647527D01*
X118765250Y-90558022D01*
X118781279Y-90465757D01*
X118836295Y-90411369D01*
X118838802Y-90410027D01*
X118904908Y-90366528D01*
X118936371Y-90335324D01*
X118961766Y-90243659D01*
X118945968Y-90123746D01*
X118894990Y-89992573D01*
X118814844Y-89867127D01*
X118743727Y-89791029D01*
X118649646Y-89709687D01*
X118595049Y-89668711D01*
X118582600Y-89668635D01*
X118488366Y-89668635D01*
X118417114Y-89599603D01*
X118356143Y-89535414D01*
X118330518Y-89501372D01*
X118331876Y-89498455D01*
X118378255Y-89514081D01*
X118461420Y-89554184D01*
X118562708Y-89608596D01*
X118663459Y-89667153D01*
X118745009Y-89719687D01*
X118765250Y-89734529D01*
X118878837Y-89848196D01*
X118967665Y-89985821D01*
X119019052Y-90125199D01*
X119026769Y-90192375D01*
X119011743Y-90299961D01*
X118956718Y-90389047D01*
X118928681Y-90418818D01*
X118842163Y-90543377D01*
X118810088Y-90645132D01*
X118805501Y-90738034D01*
X118823046Y-90773614D01*
X118851537Y-90750803D01*
X118879786Y-90668534D01*
X118883104Y-90652108D01*
X118934864Y-90525965D01*
X119015345Y-90427592D01*
X119087759Y-90346956D01*
X119119215Y-90267807D01*
X119124838Y-90186022D01*
X119096700Y-90005194D01*
X119009883Y-89840182D01*
X118887638Y-89707264D01*
X118784180Y-89630193D01*
X118640580Y-89544095D01*
X118478776Y-89460457D01*
X118320704Y-89390768D01*
X118209523Y-89352164D01*
X118127799Y-89328953D01*
X118201351Y-89382868D01*
X118255183Y-89429928D01*
X118274903Y-89460509D01*
X118245018Y-89470217D01*
X118166145Y-89473922D01*
X118054457Y-89470974D01*
X118037901Y-89470040D01*
X117779349Y-89457397D01*
X117576367Y-89453632D01*
X117431615Y-89458700D01*
X117347749Y-89472556D01*
X117330102Y-89482110D01*
X117336397Y-89503950D01*
X117407481Y-89517193D01*
X117467449Y-89520595D01*
X117569439Y-89524705D01*
X117716250Y-89531407D01*
X117887423Y-89539696D01*
X118062499Y-89548567D01*
X118221020Y-89557015D01*
X118299420Y-89561448D01*
X118337491Y-89582011D01*
X118340282Y-89592595D01*
X118310721Y-89611581D01*
X118234409Y-89626453D01*
X118129909Y-89636102D01*
X118015781Y-89639421D01*
X117910586Y-89635302D01*
X117833590Y-89622846D01*
X117750181Y-89607461D01*
X117628815Y-89595710D01*
X117506357Y-89590431D01*
X117358982Y-89594175D01*
X117250080Y-89614068D01*
X117153714Y-89655043D01*
X117146769Y-89658827D01*
X117077996Y-89700109D01*
X117068006Y-89716084D01*
X117098069Y-89712221D01*
X117249404Y-89682650D01*
X117366340Y-89669216D01*
X117438700Y-89672612D01*
X117457657Y-89687754D01*
X117431731Y-89728750D01*
X117416795Y-89736165D01*
X117413381Y-89741948D01*
X117462444Y-89736690D01*
X117462717Y-89736649D01*
X117542238Y-89736356D01*
X117566653Y-89760075D01*
X117535512Y-89795942D01*
X117466130Y-89826765D01*
X117334168Y-89885060D01*
X117184555Y-89983267D01*
X117007593Y-90127829D01*
X116991733Y-90141794D01*
X116922463Y-90205494D01*
X116898881Y-90237834D01*
X116916372Y-90249219D01*
X116943597Y-90250321D01*
X117028023Y-90231576D01*
X117090852Y-90199392D01*
X117155349Y-90168357D01*
X117196196Y-90168632D01*
X117228384Y-90216110D01*
X117208591Y-90268288D01*
X117155276Y-90299404D01*
X117084807Y-90326296D01*
X116984763Y-90372411D01*
X116920851Y-90404762D01*
X116793082Y-90458226D01*
X116674273Y-90484654D01*
X116642987Y-90485840D01*
X116525997Y-90482357D01*
X116624066Y-90562753D01*
X116714129Y-90623331D01*
X116830331Y-90685003D01*
X116885585Y-90709389D01*
X116959751Y-90742652D01*
X116972371Y-90757008D01*
X116924523Y-90752328D01*
X116817287Y-90728484D01*
X116787515Y-90721079D01*
X116742295Y-90711416D01*
X116748550Y-90724925D01*
X116786888Y-90756269D01*
X116861656Y-90800149D01*
X116960579Y-90840356D01*
X116975763Y-90845133D01*
X117051225Y-90875949D01*
X117088157Y-90907502D01*
X117088744Y-90915748D01*
X117048321Y-90965772D01*
X116970529Y-91022536D01*
X116879274Y-91069988D01*
X116836550Y-91085071D01*
X116796194Y-91092614D01*
X116796512Y-91077074D01*
X116841314Y-91031131D01*
X116885585Y-90990889D01*
X117016344Y-90873814D01*
X116892198Y-90935271D01*
X116787646Y-90974861D01*
X116697392Y-90974983D01*
X116664119Y-90966921D01*
X116572278Y-90951642D01*
X116498135Y-90956808D01*
X116455663Y-90960682D01*
X116456156Y-90944026D01*
X116447770Y-90908984D01*
X116419387Y-90892933D01*
X116358213Y-90871501D01*
X116260958Y-90836054D01*
X116185175Y-90807903D01*
X116071824Y-90770346D01*
X115988969Y-90759163D01*
X115908560Y-90771627D01*
X115883864Y-90778623D01*
X115809537Y-90807111D01*
X115774456Y-90833159D01*
X115774565Y-90839441D01*
X115753742Y-90854405D01*
X115687769Y-90870216D01*
X115596789Y-90884349D01*
X115500944Y-90894279D01*
X115420378Y-90897481D01*
X115375233Y-90891430D01*
X115372968Y-90889785D01*
X115383059Y-90874453D01*
X115410888Y-90871428D01*
X115474162Y-90858689D01*
X115566569Y-90826666D01*
X115604302Y-90810866D01*
X115703397Y-90768124D01*
X115786961Y-90733776D01*
X115806820Y-90726144D01*
X115815317Y-90711287D01*
X115781367Y-90686061D01*
X115700206Y-90648303D01*
X115567074Y-90595849D01*
X115377206Y-90526531D01*
X115333427Y-90510958D01*
X115158155Y-90449609D01*
X115005472Y-90397681D01*
X114885479Y-90358485D01*
X114808276Y-90335333D01*
X114783832Y-90330752D01*
X114793003Y-90362519D01*
X114826344Y-90439648D01*
X114878114Y-90549365D01*
X114922155Y-90638537D01*
X114985157Y-90768675D01*
X115034994Y-90880549D01*
X115065221Y-90959173D01*
X115071299Y-90985330D01*
X115081895Y-91009633D01*
X115121391Y-91024138D01*
X115201351Y-91030682D01*
X115333337Y-91031102D01*
X115357335Y-91030766D01*
X115500660Y-91033179D01*
X115630176Y-91043463D01*
X115723549Y-91059605D01*
X115741441Y-91065394D01*
X115826609Y-91111573D01*
X115912937Y-91176938D01*
X115982432Y-91245548D01*
X116017103Y-91301458D01*
X116018265Y-91310684D01*
X116002045Y-91317900D01*
X115977402Y-91293247D01*
X115899203Y-91217395D01*
X115792335Y-91164274D01*
X115646419Y-91130869D01*
X115451076Y-91114167D01*
X115351194Y-91111398D01*
X114993637Y-91105896D01*
X114981950Y-91013180D01*
X114963580Y-90946885D01*
X114922683Y-90837878D01*
X114865594Y-90702108D01*
X114808297Y-90575934D01*
X114743933Y-90433616D01*
X114691779Y-90308003D01*
X114664951Y-90233976D01*
X114711711Y-90233976D01*
X114728056Y-90250321D01*
X114744401Y-90233976D01*
X114728056Y-90217631D01*
X114711711Y-90233976D01*
X114664951Y-90233976D01*
X114657561Y-90213585D01*
X114646832Y-90167311D01*
X114654659Y-90127981D01*
X114672984Y-90143602D01*
X114690167Y-90145020D01*
X114698346Y-90089891D01*
X114698635Y-90071473D01*
X114693088Y-89999028D01*
X114673630Y-89982844D01*
X114658710Y-89992094D01*
X114630812Y-90004211D01*
X114634300Y-89965900D01*
X114621963Y-89901441D01*
X114565286Y-89809865D01*
X114535252Y-89772730D01*
X114471380Y-89696342D01*
X114447506Y-89658447D01*
X114460531Y-89648378D01*
X114500821Y-89654208D01*
X114564312Y-89650124D01*
X114579650Y-89608679D01*
X114547169Y-89536367D01*
X114491055Y-89465145D01*
X114368091Y-89374889D01*
X114214335Y-89341711D01*
X114032216Y-89365813D01*
X113947915Y-89396478D01*
X113901593Y-89427605D01*
X113898764Y-89449845D01*
X113944941Y-89453850D01*
X113984362Y-89446949D01*
X114124538Y-89417863D01*
X114220916Y-89404782D01*
X114292636Y-89406013D01*
X114341827Y-89415328D01*
X114398163Y-89436818D01*
X114393425Y-89460050D01*
X114386961Y-89464437D01*
X114367675Y-89489562D01*
X114408386Y-89511877D01*
X114413183Y-89513429D01*
X114468303Y-89544270D01*
X114482882Y-89569797D01*
X114459836Y-89577781D01*
X114403522Y-89551892D01*
X114395237Y-89546616D01*
X114335556Y-89511888D01*
X114295646Y-89514307D01*
X114249141Y-89559764D01*
X114229092Y-89583719D01*
X114179988Y-89639940D01*
X114163118Y-89647217D01*
X114170782Y-89608372D01*
X114171837Y-89604697D01*
X114182661Y-89543823D01*
X114167397Y-89537958D01*
X114131640Y-89584920D01*
X114106453Y-89630174D01*
X114077924Y-89708349D01*
X114077459Y-89765164D01*
X114103271Y-89784417D01*
X114122603Y-89776746D01*
X114183515Y-89772944D01*
X114247953Y-89828361D01*
X114303956Y-89925348D01*
X114345279Y-90004083D01*
X114380458Y-90049652D01*
X114389777Y-90054182D01*
X114398170Y-90085250D01*
X114405573Y-90171970D01*
X114411577Y-90304616D01*
X114415767Y-90473465D01*
X114417733Y-90668790D01*
X114417826Y-90716151D01*
X114418150Y-91378120D01*
X114571787Y-91484362D01*
X114659289Y-91548842D01*
X114692115Y-91582004D01*
X114673093Y-91583634D01*
X114605056Y-91553518D01*
X114490832Y-91491442D01*
X114489367Y-91490603D01*
X114387043Y-91425217D01*
X114338099Y-91374827D01*
X114333231Y-91335633D01*
X114339581Y-91285223D01*
X114346034Y-91181842D01*
X114352036Y-91037895D01*
X114357036Y-90865788D01*
X114359436Y-90747651D01*
X114368468Y-90215251D01*
X114180501Y-90033169D01*
X114092551Y-89944556D01*
X114026619Y-89871618D01*
X113994107Y-89827172D01*
X113992535Y-89821876D01*
X113972771Y-89799079D01*
X113968017Y-89799933D01*
X113926678Y-89788455D01*
X113859065Y-89750741D01*
X113852583Y-89746470D01*
X113780113Y-89709150D01*
X113738430Y-89708830D01*
X113738638Y-89744312D01*
X113746115Y-89757957D01*
X113782338Y-89792464D01*
X113857725Y-89850893D01*
X113956774Y-89921302D01*
X113968741Y-89929464D01*
X114060610Y-89995706D01*
X114121488Y-90047250D01*
X114140474Y-90074653D01*
X114138336Y-90076389D01*
X114099393Y-90069169D01*
X114008400Y-90043048D01*
X113874897Y-90001057D01*
X113708426Y-89946221D01*
X113518527Y-89881571D01*
X113454536Y-89859363D01*
X113261019Y-89792289D01*
X113089774Y-89733695D01*
X112949883Y-89686626D01*
X112850428Y-89654125D01*
X112828392Y-89647556D01*
X113861775Y-89647556D01*
X113883782Y-89691457D01*
X113931624Y-89730818D01*
X113978030Y-89745857D01*
X113990083Y-89740632D01*
X113983445Y-89709131D01*
X113965838Y-89687511D01*
X113935143Y-89632690D01*
X113928899Y-89572131D01*
X113948186Y-89534006D01*
X113959845Y-89531145D01*
X113975269Y-89517779D01*
X114038498Y-89517779D01*
X114042738Y-89533036D01*
X114077206Y-89538595D01*
X114113784Y-89512635D01*
X114161289Y-89483246D01*
X114185252Y-89489881D01*
X114224738Y-89497469D01*
X114286743Y-89475802D01*
X114337689Y-89447257D01*
X114336011Y-89436648D01*
X114276015Y-89437494D01*
X114254053Y-89438592D01*
X114144537Y-89453507D01*
X114068224Y-89481896D01*
X114038498Y-89517779D01*
X113975269Y-89517779D01*
X113989504Y-89505444D01*
X113991447Y-89490282D01*
X113976022Y-89480947D01*
X113941130Y-89510202D01*
X113901099Y-89560669D01*
X113870257Y-89614971D01*
X113861775Y-89647556D01*
X112828392Y-89647556D01*
X112800490Y-89639238D01*
X112796406Y-89638727D01*
X112178253Y-89638727D01*
X112172611Y-89628347D01*
X112093950Y-89484151D01*
X112040796Y-89387421D01*
X112015577Y-89342633D01*
X112013903Y-89340057D01*
X111987585Y-89354760D01*
X111933218Y-89404925D01*
X111901248Y-89438127D01*
X111799386Y-89547490D01*
X111809023Y-89335006D01*
X111812315Y-89220379D01*
X111806757Y-89156952D01*
X111788915Y-89130771D01*
X111757978Y-89127641D01*
X111715873Y-89119221D01*
X111710250Y-89072264D01*
X111714826Y-89045917D01*
X111735791Y-88959692D01*
X111752678Y-88906586D01*
X111750647Y-88869521D01*
X111704035Y-88838748D01*
X111621987Y-88811819D01*
X111542333Y-88783645D01*
X111504378Y-88758006D01*
X111507282Y-88747099D01*
X111493654Y-88726495D01*
X111429764Y-88686925D01*
X111325912Y-88634057D01*
X111192395Y-88573562D01*
X111190778Y-88572865D01*
X111059428Y-88514432D01*
X110959753Y-88466312D01*
X110901194Y-88433356D01*
X110893187Y-88420414D01*
X110894085Y-88420381D01*
X110940148Y-88426367D01*
X111038531Y-88443193D01*
X111177509Y-88468567D01*
X111345354Y-88500201D01*
X111530340Y-88535803D01*
X111720740Y-88573085D01*
X111904828Y-88609755D01*
X112070876Y-88643525D01*
X112207158Y-88672103D01*
X112301947Y-88693199D01*
X112336753Y-88702113D01*
X112379431Y-88705341D01*
X112379685Y-88666081D01*
X112375412Y-88651746D01*
X112368099Y-88612539D01*
X112387470Y-88592044D01*
X112447348Y-88584256D01*
X112533352Y-88583140D01*
X112713067Y-88583140D01*
X112683219Y-88479063D01*
X112665820Y-88405365D01*
X112663440Y-88365311D01*
X112664184Y-88364171D01*
X112696317Y-88372204D01*
G37*
G36*
X118445016Y-97666682D02*
G01*
X118475170Y-97737275D01*
X118488097Y-97827823D01*
X118481070Y-97916149D01*
X118451362Y-97980076D01*
X118443290Y-97987360D01*
X118343082Y-98023841D01*
X118216703Y-98004979D01*
X118104148Y-97952010D01*
X118039271Y-97910875D01*
X117981802Y-97870494D01*
X117943455Y-97840111D01*
X117935945Y-97828972D01*
X117968153Y-97844695D01*
X118013682Y-97838255D01*
X118066222Y-97796390D01*
X118155516Y-97725235D01*
X118271904Y-97667618D01*
X118382565Y-97639077D01*
X118400361Y-97638223D01*
X118445016Y-97666682D01*
G37*
G36*
X117619318Y-95672891D02*
G01*
X117663730Y-95736697D01*
X117687366Y-95783075D01*
X117736917Y-95904417D01*
X117750646Y-95971657D01*
X117728520Y-95985408D01*
X117678313Y-95952878D01*
X117658082Y-95939644D01*
X117679676Y-95966752D01*
X117727348Y-96016920D01*
X117796803Y-96097116D01*
X117841466Y-96166641D01*
X117850436Y-96195426D01*
X117856725Y-96229540D01*
X117879552Y-96203724D01*
X117905290Y-96181660D01*
X117926989Y-96218256D01*
X117930439Y-96228716D01*
X117957737Y-96276814D01*
X117979999Y-96282025D01*
X117995037Y-96294904D01*
X117991155Y-96338757D01*
X117984346Y-96386190D01*
X118000768Y-96376294D01*
X118010549Y-96363320D01*
X118039740Y-96335873D01*
X118059362Y-96364704D01*
X118066232Y-96387837D01*
X118093985Y-96445034D01*
X118118764Y-96461389D01*
X118137037Y-96485450D01*
X118131670Y-96512122D01*
X118129364Y-96545820D01*
X118143560Y-96543475D01*
X118172863Y-96556133D01*
X118196543Y-96610263D01*
X118219257Y-96664308D01*
X118242240Y-96657484D01*
X118267841Y-96653895D01*
X118298611Y-96711476D01*
X118301936Y-96720732D01*
X118342551Y-96808863D01*
X118387956Y-96873321D01*
X118424448Y-96947021D01*
X118437216Y-97052735D01*
X118424837Y-97161015D01*
X118404512Y-97215404D01*
X118344152Y-97266525D01*
X118253000Y-97275597D01*
X118149754Y-97243293D01*
X118089444Y-97204059D01*
X117996195Y-97137857D01*
X117889232Y-97073711D01*
X117875535Y-97066449D01*
X117781540Y-97002058D01*
X117691156Y-96915291D01*
X117623553Y-96826600D01*
X117610820Y-96797658D01*
X117659065Y-96797658D01*
X117667019Y-96815927D01*
X117699934Y-96851021D01*
X117718857Y-96843822D01*
X117719176Y-96839252D01*
X117695957Y-96811602D01*
X117681435Y-96801511D01*
X117659065Y-96797658D01*
X117610820Y-96797658D01*
X117599506Y-96771943D01*
X117583856Y-96726651D01*
X117549962Y-96640732D01*
X117509495Y-96543114D01*
X117472087Y-96461389D01*
X118013384Y-96461389D01*
X118025345Y-96488297D01*
X118035177Y-96483182D01*
X118039090Y-96444387D01*
X118035177Y-96439596D01*
X118015743Y-96444083D01*
X118013384Y-96461389D01*
X117472087Y-96461389D01*
X117463226Y-96442031D01*
X117454879Y-96428699D01*
X117915315Y-96428699D01*
X117927275Y-96455607D01*
X117937108Y-96450493D01*
X117941020Y-96411697D01*
X117937108Y-96406906D01*
X117917674Y-96411394D01*
X117915315Y-96428699D01*
X117454879Y-96428699D01*
X117435882Y-96398358D01*
X117427716Y-96406846D01*
X117438981Y-96462248D01*
X117469931Y-96559315D01*
X117504263Y-96651330D01*
X117542426Y-96761288D01*
X117556648Y-96832110D01*
X117547599Y-96853667D01*
X117542876Y-96873685D01*
X117577236Y-96923061D01*
X117588295Y-96935263D01*
X117643408Y-97002297D01*
X117653108Y-97033323D01*
X117625308Y-97030154D01*
X117567925Y-96994604D01*
X117488872Y-96928489D01*
X117466625Y-96907372D01*
X117383712Y-96830848D01*
X117318664Y-96777995D01*
X117279237Y-96753551D01*
X117273190Y-96762251D01*
X117308277Y-96808832D01*
X117311746Y-96812805D01*
X117386366Y-96901619D01*
X117454500Y-96989103D01*
X117504079Y-97059115D01*
X117523037Y-97095388D01*
X117494684Y-97113810D01*
X117422387Y-97117204D01*
X117325288Y-97107705D01*
X117222531Y-97087447D01*
X117133256Y-97058567D01*
X117114414Y-97049806D01*
X117017882Y-97008739D01*
X116933433Y-96986019D01*
X116914632Y-96984427D01*
X116848590Y-96963015D01*
X116764720Y-96908928D01*
X116728485Y-96878185D01*
X116635651Y-96794577D01*
X116552344Y-96722908D01*
X117163448Y-96722908D01*
X117175409Y-96749815D01*
X117185242Y-96744701D01*
X117189154Y-96705906D01*
X117185242Y-96701115D01*
X117165808Y-96705602D01*
X117163448Y-96722908D01*
X116552344Y-96722908D01*
X116543942Y-96715680D01*
X116520905Y-96696715D01*
X116462100Y-96647820D01*
X116452382Y-96631168D01*
X116489911Y-96638002D01*
X116509652Y-96643202D01*
X116548271Y-96649195D01*
X116546247Y-96635735D01*
X117141655Y-96635735D01*
X117146143Y-96655169D01*
X117163448Y-96657528D01*
X117190356Y-96645568D01*
X117185242Y-96635735D01*
X117146447Y-96631823D01*
X117141655Y-96635735D01*
X116546247Y-96635735D01*
X116545663Y-96631855D01*
X116497883Y-96584371D01*
X116452212Y-96544062D01*
X116379853Y-96473081D01*
X116337770Y-96415501D01*
X116337209Y-96412355D01*
X116378892Y-96412355D01*
X116395237Y-96428699D01*
X116411582Y-96412355D01*
X116395237Y-96396010D01*
X116378892Y-96412355D01*
X116337209Y-96412355D01*
X116333301Y-96390439D01*
X116324508Y-96349926D01*
X116279303Y-96283974D01*
X116245334Y-96246017D01*
X116179083Y-96167348D01*
X116162781Y-96116812D01*
X116172518Y-96098960D01*
X116215693Y-96098437D01*
X116302107Y-96128968D01*
X116420891Y-96184912D01*
X116561174Y-96260625D01*
X116712087Y-96350467D01*
X116862759Y-96448795D01*
X116910102Y-96481807D01*
X117000922Y-96538965D01*
X117054172Y-96559485D01*
X117063815Y-96546075D01*
X117023813Y-96501444D01*
X116967239Y-96456168D01*
X116905942Y-96401484D01*
X116900138Y-96366361D01*
X116910032Y-96357621D01*
X116927996Y-96336390D01*
X116895442Y-96331131D01*
X116835575Y-96309715D01*
X116761779Y-96257904D01*
X116751736Y-96248905D01*
X116685563Y-96194979D01*
X116636720Y-96167920D01*
X116631635Y-96167181D01*
X116619789Y-96148568D01*
X116634746Y-96124972D01*
X116647419Y-96082007D01*
X116606059Y-96042970D01*
X116549981Y-95994384D01*
X116556659Y-95959785D01*
X116624587Y-95941120D01*
X116686952Y-95938352D01*
X116809890Y-95930331D01*
X116948515Y-95910153D01*
X116997927Y-95899950D01*
X117098181Y-95879623D01*
X117158337Y-95879776D01*
X117201322Y-95903516D01*
X117229250Y-95931273D01*
X117276885Y-95998007D01*
X117294208Y-96049470D01*
X117310952Y-96103964D01*
X117322675Y-96115537D01*
X117348320Y-96157110D01*
X117371195Y-96233467D01*
X117371937Y-96237101D01*
X117390639Y-96302467D01*
X117408791Y-96324447D01*
X117410586Y-96323218D01*
X117411360Y-96297940D01*
X117882625Y-96297940D01*
X117894585Y-96324848D01*
X117904418Y-96319733D01*
X117908330Y-96280938D01*
X117904418Y-96276147D01*
X117884984Y-96280634D01*
X117882625Y-96297940D01*
X117411360Y-96297940D01*
X117411756Y-96285027D01*
X117397730Y-96201930D01*
X117371537Y-96091811D01*
X117371125Y-96090264D01*
X117346065Y-95987387D01*
X117490347Y-95987387D01*
X117506692Y-96003732D01*
X117523037Y-95987387D01*
X117506692Y-95971042D01*
X117490347Y-95987387D01*
X117346065Y-95987387D01*
X117344394Y-95980529D01*
X117329064Y-95898283D01*
X117328902Y-95889317D01*
X117457657Y-95889317D01*
X117474002Y-95905662D01*
X117490347Y-95889317D01*
X117474002Y-95872972D01*
X117457657Y-95889317D01*
X117328902Y-95889317D01*
X117328391Y-95861062D01*
X117328526Y-95860920D01*
X117368773Y-95845956D01*
X117424274Y-95835306D01*
X117473096Y-95836261D01*
X117510445Y-95864392D01*
X117548446Y-95932937D01*
X117578547Y-96003732D01*
X117616778Y-96091069D01*
X117643647Y-96140048D01*
X117652792Y-96141613D01*
X117641537Y-96085363D01*
X117612568Y-96001403D01*
X117606429Y-95986337D01*
X117580746Y-95913890D01*
X117575912Y-95875051D01*
X117578806Y-95872972D01*
X117574513Y-95852233D01*
X117536526Y-95802335D01*
X117536276Y-95802050D01*
X117496007Y-95753386D01*
X117499339Y-95742074D01*
X117533347Y-95752809D01*
X117575609Y-95758698D01*
X117575241Y-95720025D01*
X117572006Y-95709317D01*
X117563280Y-95652695D01*
X117582443Y-95642722D01*
X117619318Y-95672891D01*
G37*
G36*
X118235824Y-95481294D02*
G01*
X118230360Y-95552725D01*
X118223853Y-95598755D01*
X118200615Y-95727476D01*
X118171307Y-95855362D01*
X118162009Y-95889317D01*
X118123888Y-96020077D01*
X118105694Y-95922007D01*
X118090348Y-95809238D01*
X118082919Y-95691049D01*
X118083350Y-95585115D01*
X118091582Y-95509110D01*
X118107164Y-95480694D01*
X118163143Y-95469849D01*
X118193186Y-95459823D01*
X118224429Y-95454843D01*
X118235824Y-95481294D01*
G37*
G36*
X118040407Y-95531426D02*
G01*
X118041134Y-95565650D01*
X118030503Y-95641740D01*
X118023079Y-95681805D01*
X117987892Y-95786816D01*
X117938490Y-95832489D01*
X117879657Y-95816575D01*
X117836703Y-95769427D01*
X117796870Y-95687299D01*
X117784555Y-95624101D01*
X117797436Y-95574547D01*
X117847493Y-95548204D01*
X117907142Y-95537945D01*
X117988850Y-95530161D01*
X118036724Y-95530143D01*
X118040407Y-95531426D01*
G37*
G36*
X116586487Y-94382587D02*
G01*
X116651523Y-94398176D01*
X116655976Y-94401282D01*
X116715037Y-94426107D01*
X116809924Y-94443969D01*
X116851851Y-94447631D01*
X116961235Y-94467023D01*
X117062144Y-94506679D01*
X117136569Y-94557046D01*
X117166501Y-94608569D01*
X117166243Y-94614414D01*
X117134507Y-94635327D01*
X117060800Y-94646545D01*
X117037010Y-94647146D01*
X116940234Y-94658578D01*
X116865354Y-94686598D01*
X116857667Y-94692178D01*
X116787660Y-94732273D01*
X116697417Y-94764615D01*
X116637432Y-94780930D01*
X116635296Y-94785241D01*
X116694035Y-94778853D01*
X116722136Y-94775281D01*
X116834196Y-94762994D01*
X116969643Y-94750923D01*
X117032689Y-94746217D01*
X117159995Y-94734896D01*
X117280947Y-94719962D01*
X117328715Y-94712202D01*
X117423057Y-94705895D01*
X117480820Y-94734384D01*
X117487994Y-94742339D01*
X117553780Y-94779829D01*
X117656408Y-94794208D01*
X117656672Y-94794208D01*
X117764715Y-94810422D01*
X117857176Y-94868613D01*
X117882625Y-94892277D01*
X117960243Y-94953827D01*
X118031715Y-94987928D01*
X118048687Y-94990347D01*
X118124219Y-95016532D01*
X118201963Y-95080086D01*
X118259166Y-95158508D01*
X118274903Y-95214068D01*
X118254986Y-95284733D01*
X118212235Y-95354486D01*
X118169481Y-95396590D01*
X118114651Y-95420334D01*
X118028675Y-95430997D01*
X117926199Y-95433642D01*
X117779097Y-95438937D01*
X117629189Y-95450589D01*
X117535685Y-95462182D01*
X117415285Y-95473174D01*
X117307074Y-95459361D01*
X117185931Y-95420419D01*
X116907391Y-95344826D01*
X116635366Y-95331497D01*
X116358125Y-95379913D01*
X116346203Y-95383287D01*
X116118910Y-95439551D01*
X115933778Y-95463609D01*
X115776604Y-95456389D01*
X115659716Y-95428144D01*
X115530197Y-95398137D01*
X115422083Y-95406378D01*
X115405815Y-95410798D01*
X115300133Y-95420824D01*
X115233405Y-95378900D01*
X115207550Y-95286953D01*
X115211480Y-95215513D01*
X115210787Y-95118773D01*
X115172519Y-95072018D01*
X115091796Y-95072109D01*
X115021407Y-95093178D01*
X114907799Y-95115291D01*
X114775596Y-95098485D01*
X114772276Y-95097695D01*
X114629986Y-95063578D01*
X114771935Y-95059652D01*
X114906221Y-95036620D01*
X114996663Y-94990612D01*
X115078768Y-94945838D01*
X115176304Y-94941551D01*
X115203429Y-94945323D01*
X115324400Y-94946434D01*
X115402769Y-94912368D01*
X115488845Y-94871992D01*
X115557597Y-94859587D01*
X115639557Y-94830623D01*
X115740103Y-94747279D01*
X115760880Y-94725477D01*
X115884690Y-94591366D01*
X115764031Y-94612317D01*
X115604703Y-94638621D01*
X115494704Y-94652459D01*
X115419336Y-94654608D01*
X115363904Y-94645847D01*
X115332818Y-94635163D01*
X115290642Y-94615339D01*
X115296851Y-94605120D01*
X115358481Y-94600943D01*
X115401961Y-94600141D01*
X115553049Y-94576488D01*
X115635730Y-94532860D01*
X115733299Y-94484827D01*
X115815405Y-94487006D01*
X115930859Y-94484182D01*
X116006604Y-94458211D01*
X116093285Y-94428155D01*
X116213590Y-94403901D01*
X116348544Y-94387113D01*
X116479168Y-94379453D01*
X116586487Y-94382587D01*
G37*
G36*
X118123177Y-94818166D02*
G01*
X118138663Y-94857919D01*
X118154915Y-94925481D01*
X118148195Y-94957297D01*
X118145987Y-94957657D01*
X118118823Y-94929885D01*
X118097062Y-94872075D01*
X118084664Y-94794329D01*
X118095867Y-94775510D01*
X118123177Y-94818166D01*
G37*
G36*
X117986082Y-94717035D02*
G01*
X118009784Y-94771819D01*
X118038350Y-94849161D01*
X118038562Y-94883351D01*
X118006162Y-94892013D01*
X117980694Y-94892277D01*
X117928724Y-94875336D01*
X117917612Y-94851415D01*
X117931329Y-94788750D01*
X117946702Y-94745173D01*
X117967500Y-94705275D01*
X117986082Y-94717035D01*
G37*
G36*
X117833368Y-93595201D02*
G01*
X117837322Y-93639230D01*
X117832119Y-93658236D01*
X117802595Y-93729721D01*
X117780881Y-93762844D01*
X117755540Y-93820237D01*
X117751865Y-93852741D01*
X117735829Y-93902186D01*
X117716973Y-93911582D01*
X117696954Y-93937032D01*
X117702831Y-93976962D01*
X117705957Y-94029607D01*
X117688689Y-94042342D01*
X117662686Y-94070361D01*
X117653796Y-94125995D01*
X117643419Y-94181614D01*
X117621106Y-94189446D01*
X117597309Y-94201677D01*
X117587916Y-94261069D01*
X117571321Y-94360145D01*
X117529870Y-94417125D01*
X117474140Y-94423766D01*
X117426213Y-94387086D01*
X117404743Y-94323427D01*
X117402588Y-94222295D01*
X117404700Y-94200165D01*
X117415229Y-94102747D01*
X117422008Y-94029838D01*
X117422934Y-94015895D01*
X117444811Y-93990016D01*
X117461159Y-93995471D01*
X117483428Y-93992883D01*
X117475301Y-93948366D01*
X117470494Y-93892613D01*
X117488144Y-93878892D01*
X117519087Y-93852450D01*
X117523037Y-93829858D01*
X117540688Y-93786355D01*
X117555726Y-93780823D01*
X117585575Y-93754734D01*
X117588416Y-93736855D01*
X117616382Y-93672421D01*
X117683676Y-93615467D01*
X117765390Y-93585658D01*
X117781160Y-93584684D01*
X117833368Y-93595201D01*
G37*
G36*
X116590674Y-93658502D02*
G01*
X116643519Y-93688392D01*
X116665893Y-93723616D01*
X116701366Y-93797168D01*
X116703578Y-93719438D01*
X116710004Y-93671816D01*
X116737546Y-93653932D01*
X116804133Y-93658955D01*
X116844723Y-93665678D01*
X116963749Y-93684405D01*
X117102346Y-93703752D01*
X117157358Y-93710718D01*
X117331062Y-93731788D01*
X117265569Y-93801861D01*
X117225015Y-93857415D01*
X117219900Y-93891758D01*
X117213909Y-93909679D01*
X117198043Y-93911582D01*
X117170742Y-93936507D01*
X117176872Y-93993307D01*
X117181602Y-94054328D01*
X117165097Y-94075031D01*
X117144503Y-94098393D01*
X117147786Y-94115894D01*
X117144709Y-94176300D01*
X117131038Y-94205791D01*
X117102625Y-94234115D01*
X117060556Y-94229295D01*
X116992450Y-94194654D01*
X116885585Y-94134483D01*
X116966453Y-94220893D01*
X117016477Y-94281508D01*
X117021871Y-94316934D01*
X116999143Y-94337771D01*
X116907850Y-94364349D01*
X116786074Y-94359815D01*
X116660155Y-94325389D01*
X116651308Y-94321649D01*
X116647090Y-94320205D01*
X116771170Y-94320205D01*
X116787515Y-94336550D01*
X116803860Y-94320205D01*
X116787515Y-94303860D01*
X116771170Y-94320205D01*
X116647090Y-94320205D01*
X116577184Y-94296274D01*
X116531870Y-94293382D01*
X116529313Y-94295096D01*
X116492534Y-94291686D01*
X116481889Y-94287515D01*
X116901930Y-94287515D01*
X116918275Y-94303860D01*
X116934620Y-94287515D01*
X116918275Y-94271170D01*
X116901930Y-94287515D01*
X116481889Y-94287515D01*
X116418673Y-94262745D01*
X116364227Y-94235798D01*
X116289264Y-94182471D01*
X116449542Y-94182471D01*
X116457495Y-94200740D01*
X116490411Y-94235834D01*
X116509334Y-94228635D01*
X116509652Y-94224065D01*
X116486433Y-94196415D01*
X116471911Y-94186324D01*
X116449542Y-94182471D01*
X116289264Y-94182471D01*
X116237414Y-94145586D01*
X116215227Y-94117092D01*
X116253403Y-94117092D01*
X116261356Y-94135360D01*
X116294272Y-94170454D01*
X116313195Y-94163255D01*
X116313513Y-94158685D01*
X116290294Y-94131036D01*
X116280263Y-94124066D01*
X116558687Y-94124066D01*
X116620960Y-94197618D01*
X116678920Y-94259387D01*
X116704164Y-94268304D01*
X116705791Y-94259892D01*
X116683746Y-94233195D01*
X116632239Y-94186340D01*
X116578285Y-94140659D01*
X116740622Y-94140659D01*
X116748739Y-94157588D01*
X116767001Y-94181273D01*
X116814715Y-94232096D01*
X116836013Y-94231875D01*
X116836550Y-94226138D01*
X116814211Y-94198851D01*
X116779343Y-94168931D01*
X116740622Y-94140659D01*
X116578285Y-94140659D01*
X116558687Y-94124066D01*
X116280263Y-94124066D01*
X116275772Y-94120945D01*
X116253403Y-94117092D01*
X117070648Y-94117092D01*
X117078602Y-94135360D01*
X117111517Y-94170454D01*
X117130440Y-94163255D01*
X117130759Y-94158685D01*
X117107540Y-94131036D01*
X117093018Y-94120945D01*
X117070648Y-94117092D01*
X116253403Y-94117092D01*
X116215227Y-94117092D01*
X116154920Y-94039643D01*
X116119227Y-93929230D01*
X116132817Y-93825610D01*
X116198172Y-93740047D01*
X116248133Y-93708952D01*
X116360526Y-93670949D01*
X116483404Y-93652027D01*
X116496484Y-93651634D01*
X116590674Y-93658502D01*
G37*
G36*
X118035835Y-93654301D02*
G01*
X118041891Y-93677566D01*
X118021395Y-93735687D01*
X117998752Y-93787886D01*
X117964357Y-93890248D01*
X117937021Y-94012854D01*
X117932031Y-94046100D01*
X117911838Y-94149644D01*
X117883983Y-94231733D01*
X117872793Y-94251446D01*
X117849622Y-94273935D01*
X117839886Y-94251272D01*
X117840916Y-94174535D01*
X117842316Y-94149618D01*
X117857579Y-94025257D01*
X117885855Y-93897099D01*
X117921909Y-93781337D01*
X117960506Y-93694165D01*
X117996412Y-93651776D01*
X118003809Y-93650064D01*
X118035835Y-93654301D01*
G37*
G36*
X118970845Y-92418710D02*
G01*
X119013953Y-92465057D01*
X119047494Y-92499913D01*
X119058262Y-92479618D01*
X119058419Y-92475154D01*
X119069575Y-92453230D01*
X119104521Y-92487655D01*
X119107454Y-92491499D01*
X119144846Y-92528026D01*
X119156489Y-92510635D01*
X119175925Y-92503520D01*
X119224577Y-92539729D01*
X119250004Y-92565311D01*
X119304277Y-92615564D01*
X119367482Y-92652939D01*
X119453138Y-92681793D01*
X119574766Y-92706482D01*
X119745888Y-92731363D01*
X119778635Y-92735636D01*
X119958429Y-92758866D01*
X119706570Y-92763152D01*
X119525782Y-92757718D01*
X119369653Y-92730246D01*
X119233140Y-92687012D01*
X119117440Y-92646504D01*
X119047671Y-92628282D01*
X119008858Y-92630867D01*
X118986027Y-92652781D01*
X118980525Y-92662060D01*
X118938805Y-92715535D01*
X118867249Y-92789732D01*
X118822716Y-92831331D01*
X118734464Y-92924365D01*
X118640887Y-93043950D01*
X118585076Y-93127652D01*
X118516506Y-93233176D01*
X118450542Y-93322661D01*
X118409086Y-93369102D01*
X118365625Y-93422842D01*
X118373313Y-93473974D01*
X118381538Y-93488183D01*
X118400225Y-93544546D01*
X118370524Y-93601488D01*
X118358282Y-93615545D01*
X118303622Y-93665129D01*
X118267501Y-93682753D01*
X118263038Y-93664225D01*
X118288913Y-93631384D01*
X118335570Y-93567442D01*
X118325552Y-93530756D01*
X118260915Y-93526996D01*
X118251628Y-93528630D01*
X118167540Y-93526526D01*
X118056412Y-93501145D01*
X118002950Y-93482502D01*
X117906679Y-93447878D01*
X117833258Y-93436090D01*
X117752602Y-93446056D01*
X117658464Y-93470115D01*
X117442911Y-93526172D01*
X117275308Y-93561002D01*
X117142176Y-93575753D01*
X117030036Y-93571574D01*
X116925408Y-93549614D01*
X116882951Y-93536214D01*
X116771049Y-93502040D01*
X116690661Y-93491704D01*
X116613093Y-93503557D01*
X116564480Y-93517899D01*
X116488553Y-93537959D01*
X116403288Y-93550272D01*
X116295779Y-93555285D01*
X116153122Y-93553442D01*
X115962410Y-93545190D01*
X115888545Y-93541236D01*
X115730159Y-93533305D01*
X115556427Y-93525790D01*
X115463577Y-93522336D01*
X115352610Y-93515441D01*
X115302881Y-93505109D01*
X115310403Y-93492394D01*
X115371189Y-93478347D01*
X115481252Y-93464022D01*
X115636604Y-93450469D01*
X115767331Y-93442163D01*
X115969978Y-93426545D01*
X116131215Y-93400515D01*
X116273369Y-93356922D01*
X116322029Y-93334062D01*
X116585928Y-93334062D01*
X116590415Y-93353496D01*
X116607721Y-93355855D01*
X116634629Y-93343894D01*
X116629515Y-93334062D01*
X116590719Y-93330150D01*
X116585928Y-93334062D01*
X116322029Y-93334062D01*
X116418770Y-93288614D01*
X116589742Y-93188438D01*
X116621793Y-93168454D01*
X116688971Y-93130511D01*
X116732307Y-93130031D01*
X116782778Y-93168844D01*
X116793331Y-93178588D01*
X116867582Y-93228094D01*
X116975888Y-93278977D01*
X117048890Y-93305343D01*
X117150080Y-93341400D01*
X117223769Y-93375501D01*
X117248679Y-93394217D01*
X117297901Y-93411808D01*
X117400584Y-93391890D01*
X117556654Y-93334484D01*
X117766041Y-93239614D01*
X117825024Y-93210876D01*
X117914614Y-93173177D01*
X117953701Y-93170321D01*
X117939126Y-93199438D01*
X117872627Y-93254147D01*
X117837634Y-93284516D01*
X117844654Y-93307252D01*
X117902061Y-93334752D01*
X117936006Y-93347949D01*
X118044077Y-93380987D01*
X118146353Y-93399628D01*
X118160488Y-93400622D01*
X118218249Y-93396693D01*
X118261870Y-93369910D01*
X118305664Y-93306863D01*
X118349177Y-93223832D01*
X118403920Y-93091659D01*
X118445837Y-92949499D01*
X118459875Y-92873241D01*
X118479525Y-92770202D01*
X118502966Y-92726636D01*
X118523973Y-92743666D01*
X118536321Y-92822412D01*
X118537415Y-92859264D01*
X118540334Y-92933228D01*
X118550812Y-92949533D01*
X118574039Y-92915859D01*
X118574773Y-92914542D01*
X118617095Y-92858538D01*
X118691183Y-92777679D01*
X118769918Y-92700084D01*
X118863002Y-92601304D01*
X118917920Y-92518417D01*
X118928699Y-92479427D01*
X118939057Y-92418377D01*
X118970845Y-92418710D01*
G37*
G36*
X114603687Y-90463056D02*
G01*
X114674754Y-90567754D01*
X114755752Y-90719447D01*
X114843281Y-90913066D01*
X114850643Y-90930644D01*
X114888353Y-91022308D01*
X114902713Y-91074002D01*
X114893824Y-91106789D01*
X114861787Y-91141728D01*
X114851702Y-91151735D01*
X114823384Y-91183803D01*
X114831021Y-91196082D01*
X114884990Y-91191192D01*
X114957944Y-91178587D01*
X115152711Y-91156213D01*
X115346846Y-91156454D01*
X115528058Y-91176994D01*
X115684052Y-91215517D01*
X115802537Y-91269707D01*
X115871219Y-91337245D01*
X115877820Y-91351936D01*
X115918042Y-91421570D01*
X115957653Y-91467888D01*
X116004162Y-91539320D01*
X116036787Y-91634479D01*
X116037849Y-91639868D01*
X116040341Y-91754451D01*
X115997320Y-91822817D01*
X115910369Y-91844094D01*
X115781074Y-91817413D01*
X115741441Y-91802799D01*
X115713208Y-91799187D01*
X115730165Y-91830924D01*
X115782303Y-91889629D01*
X115856744Y-91974233D01*
X115884451Y-92023626D01*
X115868145Y-92045357D01*
X115839510Y-92048262D01*
X115795709Y-92067106D01*
X115801239Y-92108633D01*
X115831338Y-92136535D01*
X115868753Y-92179317D01*
X115919149Y-92259670D01*
X115948633Y-92314821D01*
X115987649Y-92398721D01*
X116006936Y-92468345D01*
X116008926Y-92547317D01*
X115996049Y-92659260D01*
X115989007Y-92707099D01*
X115969190Y-92854476D01*
X115952976Y-93002687D01*
X115944460Y-93110681D01*
X115938559Y-93201915D01*
X115931546Y-93233744D01*
X115920316Y-93212113D01*
X115910291Y-93176061D01*
X115884515Y-93069550D01*
X115872677Y-92985180D01*
X115873811Y-92896919D01*
X115886951Y-92778734D01*
X115893712Y-92729061D01*
X115911524Y-92586194D01*
X115913288Y-92482795D01*
X115890872Y-92406044D01*
X115836141Y-92343120D01*
X115740963Y-92281202D01*
X115597205Y-92207469D01*
X115547364Y-92183069D01*
X115383353Y-92094467D01*
X115237116Y-92001560D01*
X115542538Y-92001560D01*
X115562302Y-92032707D01*
X115604868Y-92066138D01*
X115625328Y-92055841D01*
X115618496Y-92036276D01*
X115659716Y-92036276D01*
X115675833Y-92084208D01*
X115708131Y-92102878D01*
X115720192Y-92096752D01*
X115715681Y-92063167D01*
X115698399Y-92041179D01*
X115665487Y-92022750D01*
X115659716Y-92036276D01*
X115618496Y-92036276D01*
X115612026Y-92017747D01*
X115567556Y-91984607D01*
X115555715Y-91982882D01*
X115542538Y-92001560D01*
X115237116Y-92001560D01*
X115224333Y-91993439D01*
X115080565Y-91888184D01*
X114962306Y-91786903D01*
X114879816Y-91697793D01*
X114843354Y-91629055D01*
X114842470Y-91619713D01*
X114862686Y-91614658D01*
X114914071Y-91649073D01*
X114948712Y-91680149D01*
X115022636Y-91742666D01*
X115119990Y-91813602D01*
X115226298Y-91883908D01*
X115327080Y-91944538D01*
X115407861Y-91986441D01*
X115454161Y-92000570D01*
X115458559Y-91998797D01*
X115451483Y-91966430D01*
X115410092Y-91914309D01*
X115353039Y-91861003D01*
X115298980Y-91825079D01*
X115278362Y-91819433D01*
X115228862Y-91794361D01*
X115194472Y-91754053D01*
X115175374Y-91730734D01*
X115599606Y-91730734D01*
X115607560Y-91749003D01*
X115640475Y-91784097D01*
X115659398Y-91776897D01*
X115659716Y-91772328D01*
X115636497Y-91744678D01*
X115621975Y-91734587D01*
X115599606Y-91730734D01*
X115175374Y-91730734D01*
X115152726Y-91703080D01*
X115127247Y-91688674D01*
X115090131Y-91665837D01*
X115034269Y-91611755D01*
X114979355Y-91548066D01*
X114945081Y-91496412D01*
X114941573Y-91484643D01*
X114968205Y-91483079D01*
X115038413Y-91501792D01*
X115135912Y-91534773D01*
X115244418Y-91576006D01*
X115347647Y-91619481D01*
X115429313Y-91659184D01*
X115454255Y-91673933D01*
X115525166Y-91713978D01*
X115552884Y-91715002D01*
X115532874Y-91677177D01*
X115527975Y-91671145D01*
X115509891Y-91641269D01*
X115530625Y-91630507D01*
X115601488Y-91635269D01*
X115630214Y-91638693D01*
X115690444Y-91645362D01*
X115720990Y-91645830D01*
X115716483Y-91637923D01*
X115671551Y-91619469D01*
X115580824Y-91588296D01*
X115438930Y-91542230D01*
X115240499Y-91479098D01*
X115218403Y-91472100D01*
X115024096Y-91406774D01*
X114953201Y-91378120D01*
X115823165Y-91378120D01*
X115839510Y-91394465D01*
X115855855Y-91378120D01*
X115839510Y-91361775D01*
X115823165Y-91378120D01*
X114953201Y-91378120D01*
X114884343Y-91350289D01*
X114789646Y-91298377D01*
X114739458Y-91256757D01*
X114666238Y-91196855D01*
X114597399Y-91166547D01*
X114587292Y-91165636D01*
X114546866Y-91157676D01*
X114531601Y-91122292D01*
X114535236Y-91042231D01*
X114536872Y-91026705D01*
X114545035Y-90941986D01*
X114541216Y-90914849D01*
X114520714Y-90937901D01*
X114500498Y-90969497D01*
X114477097Y-91002864D01*
X114463454Y-91006127D01*
X114458420Y-90970616D01*
X114460842Y-90887662D01*
X114469569Y-90748598D01*
X114470106Y-90740669D01*
X114480551Y-90605159D01*
X114491313Y-90496186D01*
X114500776Y-90428851D01*
X114504937Y-90414926D01*
X114545948Y-90410424D01*
X114603687Y-90463056D01*
G37*
G36*
X117062099Y-92887859D02*
G01*
X117196058Y-92956883D01*
X117282584Y-93007851D01*
X117333848Y-93049569D01*
X117362025Y-93090846D01*
X117370085Y-93110681D01*
X117399914Y-93118874D01*
X117441312Y-93094336D01*
X117483788Y-93063959D01*
X117489642Y-93078191D01*
X117485545Y-93092001D01*
X117446043Y-93144976D01*
X117406677Y-93173726D01*
X117348737Y-93210762D01*
X117326898Y-93230031D01*
X117277612Y-93248834D01*
X117188226Y-93249660D01*
X117080906Y-93234465D01*
X116977820Y-93205202D01*
X116959137Y-93197606D01*
X116882171Y-93154505D01*
X116839557Y-93111885D01*
X116836550Y-93101062D01*
X116819660Y-93072745D01*
X116806197Y-93076547D01*
X116779183Y-93064474D01*
X116765335Y-93021603D01*
X116733105Y-92958572D01*
X116693747Y-92936251D01*
X116651927Y-92939876D01*
X116654814Y-92960435D01*
X116649580Y-92991101D01*
X116625995Y-92996267D01*
X116581235Y-93010992D01*
X116575031Y-93024405D01*
X116545929Y-93050531D01*
X116470841Y-93083165D01*
X116368097Y-93117065D01*
X116256029Y-93146989D01*
X116152964Y-93167695D01*
X116077234Y-93173943D01*
X116060167Y-93171637D01*
X115999963Y-93138811D01*
X115994655Y-93082877D01*
X116044053Y-92997719D01*
X116054367Y-92984331D01*
X116113763Y-92926991D01*
X116188933Y-92902230D01*
X116267882Y-92898198D01*
X116380330Y-92887162D01*
X116517804Y-92858686D01*
X116613645Y-92830822D01*
X116813646Y-92763447D01*
X117062099Y-92887859D01*
G37*
G36*
X118127240Y-92894153D02*
G01*
X118094671Y-92922741D01*
X118016096Y-92967520D01*
X117965122Y-92992471D01*
X117834982Y-93043692D01*
X117741863Y-93059355D01*
X117692575Y-93038885D01*
X117686486Y-93016046D01*
X117716985Y-92979759D01*
X117800370Y-92956065D01*
X117809073Y-92954881D01*
X117925595Y-92933983D01*
X118036468Y-92905182D01*
X118038532Y-92904514D01*
X118109845Y-92886497D01*
X118127240Y-92894153D01*
G37*
G36*
X116285051Y-92457889D02*
G01*
X116297211Y-92467423D01*
X116419359Y-92524040D01*
X116580349Y-92537484D01*
X116769221Y-92506938D01*
X116781573Y-92503585D01*
X116878905Y-92485280D01*
X116940294Y-92498827D01*
X116954580Y-92508920D01*
X117006039Y-92531820D01*
X117040613Y-92511072D01*
X117110962Y-92471248D01*
X117171295Y-92492203D01*
X117210778Y-92569345D01*
X117214076Y-92584635D01*
X117250160Y-92677845D01*
X117305454Y-92714948D01*
X117419550Y-92730909D01*
X117566852Y-92732514D01*
X117716994Y-92720659D01*
X117828483Y-92699493D01*
X117925637Y-92677849D01*
X117964188Y-92681165D01*
X117942655Y-92706885D01*
X117859555Y-92752453D01*
X117859276Y-92752586D01*
X117723195Y-92795278D01*
X117554850Y-92817176D01*
X117384010Y-92816605D01*
X117240443Y-92791890D01*
X117228828Y-92788059D01*
X117146982Y-92762113D01*
X117092904Y-92749759D01*
X117088157Y-92749582D01*
X117049184Y-92729966D01*
X116988117Y-92679913D01*
X116978696Y-92671012D01*
X116895491Y-92590930D01*
X116734660Y-92648052D01*
X116636557Y-92676437D01*
X116561319Y-92686636D01*
X116536690Y-92682221D01*
X116514955Y-92678962D01*
X116522875Y-92697008D01*
X116525230Y-92724115D01*
X116483878Y-92737529D01*
X116390224Y-92739000D01*
X116329858Y-92736294D01*
X116212378Y-92723413D01*
X116200516Y-92718403D01*
X116411582Y-92718403D01*
X116427927Y-92734748D01*
X116444272Y-92718403D01*
X116427927Y-92702059D01*
X116411582Y-92718403D01*
X116200516Y-92718403D01*
X116146847Y-92695735D01*
X116120200Y-92645375D01*
X116117374Y-92608034D01*
X116133641Y-92516750D01*
X116162043Y-92457326D01*
X116195347Y-92419217D01*
X116228503Y-92418818D01*
X116285051Y-92457889D01*
G37*
G36*
X116212776Y-91077686D02*
G01*
X116357376Y-91102687D01*
X116503315Y-91140926D01*
X116529094Y-91149291D01*
X116679905Y-91197410D01*
X116784562Y-91222530D01*
X116857664Y-91225812D01*
X116913809Y-91208419D01*
X116952889Y-91183021D01*
X117025284Y-91139377D01*
X117061932Y-91143080D01*
X117065379Y-91158203D01*
X117039424Y-91188664D01*
X116975354Y-91231639D01*
X116958959Y-91240770D01*
X116889662Y-91273104D01*
X116829187Y-91281310D01*
X116749848Y-91266187D01*
X116689268Y-91248557D01*
X116567166Y-91214148D01*
X116505274Y-91203099D01*
X116503886Y-91215266D01*
X116563296Y-91250503D01*
X116624066Y-91280658D01*
X116709003Y-91323351D01*
X116737556Y-91344256D01*
X116713549Y-91347069D01*
X116689446Y-91343859D01*
X116591376Y-91328740D01*
X116699113Y-91378651D01*
X116765022Y-91417621D01*
X116791335Y-91450669D01*
X116790035Y-91455768D01*
X116803544Y-91486823D01*
X116857794Y-91521508D01*
X116915074Y-91557738D01*
X116929440Y-91609413D01*
X116921408Y-91665220D01*
X116900450Y-91770398D01*
X116956754Y-91688674D01*
X117078933Y-91559321D01*
X117207550Y-91483831D01*
X117228518Y-91487009D01*
X117200746Y-91532420D01*
X117151387Y-91590167D01*
X117072289Y-91682411D01*
X117036057Y-91735911D01*
X117044202Y-91747983D01*
X117070147Y-91734762D01*
X117090600Y-91742417D01*
X117086423Y-91799241D01*
X117058990Y-91894416D01*
X117045039Y-91932471D01*
X117040846Y-91968200D01*
X117077969Y-91973385D01*
X117118452Y-91965971D01*
X117180993Y-91954491D01*
X117186468Y-91964642D01*
X117149028Y-91997000D01*
X117111036Y-92034818D01*
X117112574Y-92048262D01*
X117129694Y-92058985D01*
X117101717Y-92085538D01*
X117044258Y-92119498D01*
X116972937Y-92152444D01*
X116903370Y-92175951D01*
X116864084Y-92182280D01*
X116794954Y-92185761D01*
X116786432Y-92193574D01*
X116833754Y-92210814D01*
X116836550Y-92211711D01*
X116880883Y-92228574D01*
X116873144Y-92238230D01*
X116807278Y-92244943D01*
X116787515Y-92246249D01*
X116639589Y-92254659D01*
X116541600Y-92256345D01*
X116478345Y-92250148D01*
X116434621Y-92234907D01*
X116405932Y-92217150D01*
X116379824Y-92188392D01*
X116449542Y-92188392D01*
X116457495Y-92206660D01*
X116490411Y-92241754D01*
X116509334Y-92234555D01*
X116509652Y-92229985D01*
X116503457Y-92222608D01*
X116618618Y-92222608D01*
X116623105Y-92242042D01*
X116640411Y-92244401D01*
X116667319Y-92232440D01*
X116662204Y-92222608D01*
X116623409Y-92218695D01*
X116618618Y-92222608D01*
X116503457Y-92222608D01*
X116486433Y-92202336D01*
X116471911Y-92192244D01*
X116449542Y-92188392D01*
X116379824Y-92188392D01*
X116354321Y-92160300D01*
X116351526Y-92155702D01*
X116514921Y-92155702D01*
X116522875Y-92173970D01*
X116555790Y-92209064D01*
X116574713Y-92201865D01*
X116575031Y-92197295D01*
X116551813Y-92169646D01*
X116537291Y-92159555D01*
X116514921Y-92155702D01*
X116351526Y-92155702D01*
X116336858Y-92131574D01*
X116654003Y-92131574D01*
X116656987Y-92146706D01*
X116691951Y-92173804D01*
X116729420Y-92178352D01*
X116738481Y-92166174D01*
X116712839Y-92145179D01*
X116693854Y-92136613D01*
X116824271Y-92136613D01*
X116869240Y-92141170D01*
X116915647Y-92136033D01*
X116910102Y-92124682D01*
X116843175Y-92120364D01*
X116828378Y-92124682D01*
X116824271Y-92136613D01*
X116693854Y-92136613D01*
X116687748Y-92133858D01*
X116654003Y-92131574D01*
X116336858Y-92131574D01*
X116316020Y-92097297D01*
X116738481Y-92097297D01*
X116754826Y-92113642D01*
X116771170Y-92097297D01*
X116754826Y-92080952D01*
X116738481Y-92097297D01*
X116316020Y-92097297D01*
X116298860Y-92069071D01*
X116294164Y-92059158D01*
X116880137Y-92059158D01*
X116884624Y-92078593D01*
X116901930Y-92080952D01*
X116928837Y-92068991D01*
X116923723Y-92059158D01*
X116884928Y-92055246D01*
X116880137Y-92059158D01*
X116294164Y-92059158D01*
X116276677Y-92022244D01*
X116243000Y-91924439D01*
X116208551Y-91792728D01*
X116176384Y-91643813D01*
X116149557Y-91494397D01*
X116131126Y-91361182D01*
X116124148Y-91260870D01*
X116128990Y-91215206D01*
X116158127Y-91190511D01*
X116360381Y-91190511D01*
X116392513Y-91195745D01*
X116434912Y-91189735D01*
X116435419Y-91178576D01*
X116391667Y-91170772D01*
X116372763Y-91175995D01*
X116360381Y-91190511D01*
X116158127Y-91190511D01*
X116172565Y-91178274D01*
X116236211Y-91165636D01*
X116304279Y-91162333D01*
X116317005Y-91154260D01*
X116283992Y-91144169D01*
X116214843Y-91134816D01*
X116119161Y-91128953D01*
X116107165Y-91128633D01*
X116010883Y-91121879D01*
X115951074Y-91108756D01*
X115940227Y-91095973D01*
X115988881Y-91072942D01*
X116084838Y-91067308D01*
X116212776Y-91077686D01*
G37*
G36*
X114515127Y-91250871D02*
G01*
X114544988Y-91284070D01*
X114612943Y-91356451D01*
X114661509Y-91402638D01*
X114699615Y-91445453D01*
X114682019Y-91455694D01*
X114609759Y-91433265D01*
X114558820Y-91412112D01*
X114488493Y-91371904D01*
X114468805Y-91326007D01*
X114473822Y-91294823D01*
X114491022Y-91244896D01*
X114515127Y-91250871D01*
G37*
G36*
X116967309Y-91312741D02*
G01*
X116950965Y-91329086D01*
X116934620Y-91312741D01*
X116950965Y-91296396D01*
X116967309Y-91312741D01*
G37*
G36*
X117288210Y-91080445D02*
G01*
X117293707Y-91108429D01*
X117263245Y-91190724D01*
X117173770Y-91258812D01*
X117093422Y-91292877D01*
X117062912Y-91284730D01*
X117082594Y-91234889D01*
X117121193Y-91181982D01*
X117194394Y-91104873D01*
X117253281Y-91069657D01*
X117288210Y-91080445D01*
G37*
G36*
X113948497Y-90147067D02*
G01*
X113906442Y-90223009D01*
X113899236Y-90234893D01*
X113862146Y-90308990D01*
X113865105Y-90354468D01*
X113879530Y-90371860D01*
X113920157Y-90399694D01*
X113931844Y-90400059D01*
X113968590Y-90386294D01*
X114040664Y-90366884D01*
X114041034Y-90366795D01*
X114138568Y-90343311D01*
X114041034Y-90418706D01*
X113944519Y-90495571D01*
X113892249Y-90547026D01*
X113875613Y-90586142D01*
X113886002Y-90625991D01*
X113894052Y-90641827D01*
X113940924Y-90694285D01*
X113977340Y-90707979D01*
X114019999Y-90731677D01*
X114025225Y-90751294D01*
X114053176Y-90814754D01*
X114130700Y-90895550D01*
X114205019Y-90953615D01*
X114251667Y-90990490D01*
X114242890Y-90994991D01*
X114179888Y-90967421D01*
X114099687Y-90926877D01*
X114011540Y-90869327D01*
X113964612Y-90813982D01*
X113960755Y-90797876D01*
X113937743Y-90749455D01*
X113912434Y-90740669D01*
X113854447Y-90715695D01*
X113838882Y-90697341D01*
X113786925Y-90648969D01*
X113754792Y-90632703D01*
X113717747Y-90613340D01*
X113725582Y-90585171D01*
X113762964Y-90545271D01*
X113820574Y-90464192D01*
X113815758Y-90399577D01*
X113768587Y-90361558D01*
X113738085Y-90340072D01*
X113741623Y-90311083D01*
X113785175Y-90261164D01*
X113833967Y-90214679D01*
X113914150Y-90143488D01*
X113951696Y-90120755D01*
X113948497Y-90147067D01*
G37*
G36*
X118519690Y-90797335D02*
G01*
X118555335Y-90827398D01*
X118532038Y-90861412D01*
X118525960Y-90866545D01*
X118483367Y-90886815D01*
X118457745Y-90851238D01*
X118448215Y-90791696D01*
X118482023Y-90780943D01*
X118519690Y-90797335D01*
G37*
G36*
X117685138Y-90489107D02*
G01*
X117685446Y-90503667D01*
X117654008Y-90596118D01*
X117569531Y-90692590D01*
X117499030Y-90746003D01*
X117415721Y-90794166D01*
X117377603Y-90801204D01*
X117387700Y-90768445D01*
X117430964Y-90716151D01*
X117505703Y-90627610D01*
X117570276Y-90538433D01*
X117571599Y-90536357D01*
X117627111Y-90466433D01*
X117667244Y-90450026D01*
X117685138Y-90489107D01*
G37*
G36*
X117422631Y-90528112D02*
G01*
X117424967Y-90557677D01*
X117395524Y-90625354D01*
X117316581Y-90674347D01*
X117202221Y-90701202D01*
X117066526Y-90702464D01*
X116934620Y-90677958D01*
X116889156Y-90662120D01*
X116893973Y-90649922D01*
X116955325Y-90635219D01*
X116983654Y-90629785D01*
X117101288Y-90596212D01*
X117107357Y-90593564D01*
X117294208Y-90593564D01*
X117310553Y-90609909D01*
X117326898Y-90593564D01*
X117310553Y-90577219D01*
X117294208Y-90593564D01*
X117107357Y-90593564D01*
X117182275Y-90560874D01*
X117359587Y-90560874D01*
X117375932Y-90577219D01*
X117392277Y-90560874D01*
X117375932Y-90544530D01*
X117359587Y-90560874D01*
X117182275Y-90560874D01*
X117213303Y-90547335D01*
X117222524Y-90542133D01*
X117328860Y-90490527D01*
X117393966Y-90485731D01*
X117422631Y-90528112D01*
G37*
G36*
X117120253Y-90385584D02*
G01*
X117113324Y-90409553D01*
X117078984Y-90449488D01*
X116996273Y-90524081D01*
X116899300Y-90568796D01*
X116820205Y-90588570D01*
X116757884Y-90599412D01*
X116752532Y-90590907D01*
X116783722Y-90568575D01*
X116852358Y-90519468D01*
X116933063Y-90456652D01*
X116935545Y-90454633D01*
X117012333Y-90404629D01*
X117078573Y-90381304D01*
X117083337Y-90381080D01*
X117120253Y-90385584D01*
G37*
G36*
X117475832Y-90174946D02*
G01*
X117484684Y-90212209D01*
X117478061Y-90290592D01*
X117458269Y-90331309D01*
X117407382Y-90370075D01*
X117333302Y-90405734D01*
X117262075Y-90427966D01*
X117219750Y-90426453D01*
X117219261Y-90425996D01*
X117232067Y-90396836D01*
X117280698Y-90336591D01*
X117339069Y-90274340D01*
X117414353Y-90200262D01*
X117456124Y-90168760D01*
X117475832Y-90174946D01*
G37*
G36*
X117927073Y-89681641D02*
G01*
X118062538Y-89721806D01*
X118086250Y-89729556D01*
X118277832Y-89809955D01*
X118420309Y-89912264D01*
X118519590Y-90032506D01*
X118552905Y-90110475D01*
X118554235Y-90178690D01*
X118524481Y-90215743D01*
X118511813Y-90217631D01*
X118477623Y-90195906D01*
X118446173Y-90168596D01*
X118503732Y-90168596D01*
X118520077Y-90184941D01*
X118536421Y-90168596D01*
X118520077Y-90152252D01*
X118503732Y-90168596D01*
X118446173Y-90168596D01*
X118411439Y-90138434D01*
X118374771Y-90103217D01*
X118471042Y-90103217D01*
X118487387Y-90119562D01*
X118503732Y-90103217D01*
X118487387Y-90086872D01*
X118471042Y-90103217D01*
X118374771Y-90103217D01*
X118326404Y-90056765D01*
X118309689Y-90039960D01*
X118192589Y-89933827D01*
X118060120Y-89832156D01*
X117951218Y-89762968D01*
X117857231Y-89707093D01*
X117822894Y-89674662D01*
X117846683Y-89666052D01*
X117927073Y-89681641D01*
G37*
G36*
X118296845Y-89670430D02*
G01*
X118372429Y-89701196D01*
X118466024Y-89752317D01*
X118560595Y-89814213D01*
X118639103Y-89877302D01*
X118656747Y-89894786D01*
X118710847Y-89963573D01*
X118756930Y-90041114D01*
X118788864Y-90112700D01*
X118800518Y-90163620D01*
X118785763Y-90179163D01*
X118772810Y-90173269D01*
X118734188Y-90173302D01*
X118727180Y-90184181D01*
X118705840Y-90176264D01*
X118660833Y-90123884D01*
X118646543Y-90103217D01*
X118699871Y-90103217D01*
X118716216Y-90119562D01*
X118732560Y-90103217D01*
X118716216Y-90086872D01*
X118699871Y-90103217D01*
X118646543Y-90103217D01*
X118606102Y-90044731D01*
X118522801Y-89932341D01*
X118426988Y-89827983D01*
X118369570Y-89777851D01*
X118298973Y-89720482D01*
X118259517Y-89679929D01*
X118256310Y-89669600D01*
X118296845Y-89670430D01*
G37*
G36*
X117769857Y-89989678D02*
G01*
X117904169Y-90026457D01*
X117924656Y-90035636D01*
X118007304Y-90081057D01*
X118028188Y-90106949D01*
X117988121Y-90112713D01*
X117887920Y-90097752D01*
X117850582Y-90090064D01*
X117654415Y-90061400D01*
X117462132Y-90057029D01*
X117295295Y-90076546D01*
X117210222Y-90102055D01*
X117142838Y-90124987D01*
X117113799Y-90124071D01*
X117115276Y-90118167D01*
X117186989Y-90056623D01*
X117305385Y-90011261D01*
X117453383Y-89983821D01*
X117613901Y-89976046D01*
X117769857Y-89989678D01*
G37*
G36*
X158377559Y-128246187D02*
G01*
X158354056Y-128270390D01*
X158330866Y-128289728D01*
X158302113Y-128304517D01*
X158261920Y-128315073D01*
X158204409Y-128321710D01*
X158123705Y-128324745D01*
X158013929Y-128324493D01*
X157869205Y-128321270D01*
X157683656Y-128315392D01*
X157451405Y-128307173D01*
X157326143Y-128302654D01*
X157166712Y-128296586D01*
X157054174Y-128290751D01*
X156980112Y-128283615D01*
X156936111Y-128273644D01*
X156913752Y-128259305D01*
X156904621Y-128239066D01*
X156902269Y-128225435D01*
X156893427Y-128163181D01*
X157675256Y-128163181D01*
X158457085Y-128163181D01*
X158377559Y-128246187D01*
G37*
G36*
X155790729Y-128166223D02*
G01*
X155930668Y-128167526D01*
X156031538Y-128170291D01*
X156098763Y-128174780D01*
X156137765Y-128181256D01*
X156153964Y-128189982D01*
X156152782Y-128201221D01*
X156150217Y-128204684D01*
X156129059Y-128219802D01*
X156089490Y-128230680D01*
X156024008Y-128237847D01*
X155925113Y-128241833D01*
X155785302Y-128243166D01*
X155614204Y-128242507D01*
X155433770Y-128239940D01*
X155254533Y-128235186D01*
X155091133Y-128228789D01*
X154958211Y-128221292D01*
X154891285Y-128215695D01*
X154779347Y-128203375D01*
X154683496Y-128191711D01*
X154621439Y-128182882D01*
X154614596Y-128181640D01*
X154626836Y-128178774D01*
X154688185Y-128175939D01*
X154792416Y-128173256D01*
X154933302Y-128170846D01*
X155104615Y-128168829D01*
X155300127Y-128167325D01*
X155371960Y-128166949D01*
X155606300Y-128166118D01*
X155790729Y-128166223D01*
G37*
G36*
X158120177Y-129684939D02*
G01*
X158336770Y-129694447D01*
X158571241Y-129708454D01*
X158847930Y-129726470D01*
X158838565Y-130003159D01*
X158833803Y-130135704D01*
X158827354Y-130303896D01*
X158819992Y-130488098D01*
X158812491Y-130668675D01*
X158810896Y-130706016D01*
X158792592Y-131132185D01*
X158619662Y-131143894D01*
X158529542Y-131148650D01*
X158465818Y-131149454D01*
X158443521Y-131146592D01*
X158442101Y-131117293D01*
X158440266Y-131042247D01*
X158438204Y-130931044D01*
X158436100Y-130793271D01*
X158434889Y-130701466D01*
X158430513Y-130513127D01*
X158422775Y-130370282D01*
X158411932Y-130276192D01*
X158398254Y-130234136D01*
X158356196Y-130217612D01*
X158276307Y-130204576D01*
X158178617Y-130197974D01*
X158053232Y-130194490D01*
X157924526Y-130190614D01*
X157844934Y-130188016D01*
X157699673Y-130183006D01*
X157700096Y-129968573D01*
X157703349Y-129860871D01*
X157711559Y-129772215D01*
X157723069Y-129719329D01*
X157725221Y-129715119D01*
X157758649Y-129697300D01*
X157833817Y-129686345D01*
X157953426Y-129682231D01*
X158120177Y-129684939D01*
G37*
G36*
X155603089Y-129513785D02*
G01*
X155729809Y-129534092D01*
X155842437Y-129571096D01*
X155860388Y-129579789D01*
X156096989Y-129701362D01*
X156291759Y-129798672D01*
X156451265Y-129874290D01*
X156582070Y-129930788D01*
X156690742Y-129970738D01*
X156783843Y-129996713D01*
X156867941Y-130011283D01*
X156949600Y-130017022D01*
X156977494Y-130017417D01*
X157084181Y-130022020D01*
X157150424Y-130033282D01*
X157172657Y-130048418D01*
X157147313Y-130064640D01*
X157070825Y-130079160D01*
X157058377Y-130080618D01*
X156864034Y-130079248D01*
X156642785Y-130036799D01*
X156402495Y-129955243D01*
X156213163Y-129868914D01*
X156083426Y-129807667D01*
X155989080Y-129776584D01*
X155919076Y-129775741D01*
X155862363Y-129805215D01*
X155807889Y-129865081D01*
X155802890Y-129871732D01*
X155710174Y-129989795D01*
X155636025Y-130066810D01*
X155571772Y-130109899D01*
X155508744Y-130126183D01*
X155492214Y-130126900D01*
X155425252Y-130117252D01*
X155388021Y-130092532D01*
X155387326Y-130090937D01*
X155386753Y-130023638D01*
X155419719Y-129951384D01*
X155473215Y-129899139D01*
X155491497Y-129891045D01*
X155561770Y-129858537D01*
X155621323Y-129819505D01*
X155692461Y-129781369D01*
X155755056Y-129767974D01*
X155803916Y-129756356D01*
X155808202Y-129729326D01*
X155771566Y-129698617D01*
X155728464Y-129682486D01*
X155649352Y-129675959D01*
X155551799Y-129686847D01*
X155457659Y-129710617D01*
X155388786Y-129742740D01*
X155373959Y-129755984D01*
X155329214Y-129789992D01*
X155307132Y-129795642D01*
X155277779Y-129818415D01*
X155234398Y-129877896D01*
X155189919Y-129954738D01*
X155106620Y-130113834D01*
X154542417Y-130115124D01*
X153978213Y-130116415D01*
X154462251Y-130101290D01*
X154946290Y-130086165D01*
X155029645Y-129918863D01*
X155133613Y-129751485D01*
X155258348Y-129618950D01*
X155393103Y-129532023D01*
X155483709Y-129512364D01*
X155603089Y-129513785D01*
G37*
G36*
X155039533Y-128360928D02*
G01*
X155206484Y-128362934D01*
X155407954Y-128366219D01*
X155637015Y-128370621D01*
X155886737Y-128375976D01*
X156150189Y-128382123D01*
X156420443Y-128388900D01*
X156690568Y-128396142D01*
X156953635Y-128403688D01*
X157202713Y-128411376D01*
X157430874Y-128419042D01*
X157631187Y-128426524D01*
X157656676Y-128427550D01*
X157793869Y-128432714D01*
X157922559Y-128436824D01*
X158025318Y-128439362D01*
X158071708Y-128439924D01*
X158143687Y-128443434D01*
X158177029Y-128461688D01*
X158188356Y-128506414D01*
X158189701Y-128523188D01*
X158175243Y-128633847D01*
X158121171Y-128769787D01*
X158031394Y-128922113D01*
X157986611Y-128985303D01*
X157919450Y-129068762D01*
X157861474Y-129118014D01*
X157793895Y-129146604D01*
X157746731Y-129158234D01*
X157665763Y-129173777D01*
X157608601Y-129181160D01*
X157594553Y-129180746D01*
X157561644Y-129178175D01*
X157483129Y-129175040D01*
X157368729Y-129171642D01*
X157228167Y-129168281D01*
X157125544Y-129166226D01*
X156957024Y-129161007D01*
X156824913Y-129152928D01*
X156731856Y-129143016D01*
X156680500Y-129132299D01*
X156673494Y-129121803D01*
X156713484Y-129112557D01*
X156803116Y-129105587D01*
X156945039Y-129101921D01*
X156959531Y-129101795D01*
X157165191Y-129093879D01*
X157317807Y-129073468D01*
X157418295Y-129040340D01*
X157467570Y-128994272D01*
X157472623Y-128977107D01*
X157459753Y-128916170D01*
X157429190Y-128874353D01*
X157365999Y-128834850D01*
X157268590Y-128792274D01*
X157157147Y-128753676D01*
X157051857Y-128726111D01*
X156977584Y-128716557D01*
X156915316Y-128707567D01*
X156883442Y-128688889D01*
X156849947Y-128678885D01*
X156766621Y-128670912D01*
X156638944Y-128665249D01*
X156472393Y-128662175D01*
X156349183Y-128661694D01*
X156144577Y-128663106D01*
X155984651Y-128667426D01*
X155858793Y-128675414D01*
X155756386Y-128687831D01*
X155666817Y-128705435D01*
X155637850Y-128712620D01*
X155501750Y-128750931D01*
X155400951Y-128789541D01*
X155316337Y-128838782D01*
X155228788Y-128908985D01*
X155162712Y-128969384D01*
X155019107Y-129103921D01*
X154507210Y-129103921D01*
X154337239Y-129102562D01*
X154191347Y-129098752D01*
X154077611Y-129092890D01*
X154004107Y-129085375D01*
X153979176Y-129077811D01*
X153991658Y-129050620D01*
X154041024Y-129008781D01*
X154088128Y-128978394D01*
X154179799Y-128913047D01*
X154281643Y-128822268D01*
X154382396Y-128718326D01*
X154470796Y-128613490D01*
X154535578Y-128520030D01*
X154562985Y-128461154D01*
X154588857Y-128370697D01*
X154836912Y-128361404D01*
X154914033Y-128360364D01*
X155039533Y-128360928D01*
G37*
G36*
X156428320Y-130308783D02*
G01*
X156507232Y-130312486D01*
X156627831Y-130316903D01*
X156783301Y-130321811D01*
X156966821Y-130326986D01*
X157171573Y-130332207D01*
X157268380Y-130334501D01*
X157521573Y-130341325D01*
X157741122Y-130349205D01*
X157922560Y-130357894D01*
X158061417Y-130367149D01*
X158153224Y-130376726D01*
X158191024Y-130384979D01*
X158220805Y-130400413D01*
X158239475Y-130421241D01*
X158248696Y-130458316D01*
X158250134Y-130522487D01*
X158245451Y-130624607D01*
X158240467Y-130707448D01*
X158233031Y-130847130D01*
X158225429Y-131021492D01*
X158218476Y-131209884D01*
X158212991Y-131391658D01*
X158212263Y-131420398D01*
X158207540Y-131568853D01*
X158201369Y-131698325D01*
X158194405Y-131798423D01*
X158187302Y-131858757D01*
X158183913Y-131870748D01*
X158151691Y-131880062D01*
X158074935Y-131887395D01*
X157964415Y-131892732D01*
X157830900Y-131896058D01*
X157685160Y-131897359D01*
X157537963Y-131896621D01*
X157400079Y-131893828D01*
X157282278Y-131888966D01*
X157195328Y-131882021D01*
X157149999Y-131872978D01*
X157148466Y-131872147D01*
X157131367Y-131844144D01*
X157120873Y-131780969D01*
X157116298Y-131675623D01*
X157116557Y-131547105D01*
X157116920Y-131420036D01*
X157114687Y-131311412D01*
X157110282Y-131234461D01*
X157105560Y-131204796D01*
X157091731Y-131190738D01*
X157058005Y-131180774D01*
X156997376Y-131174500D01*
X156902839Y-131171509D01*
X156767388Y-131171396D01*
X156584018Y-131173755D01*
X156572721Y-131173943D01*
X156055019Y-131182636D01*
X155884662Y-131360708D01*
X155802774Y-131440634D01*
X155729590Y-131501988D01*
X155676781Y-131535365D01*
X155663646Y-131538780D01*
X155642808Y-131530425D01*
X155655106Y-131500784D01*
X155704093Y-131442989D01*
X155724526Y-131421187D01*
X155832882Y-131296320D01*
X155901956Y-131192586D01*
X155928648Y-131114728D01*
X155928867Y-131108674D01*
X155933698Y-131093843D01*
X155952695Y-131082882D01*
X155992616Y-131075359D01*
X156060215Y-131070847D01*
X156162249Y-131068915D01*
X156305474Y-131069136D01*
X156496646Y-131071079D01*
X156516829Y-131071329D01*
X157104792Y-131078673D01*
X157112712Y-130776463D01*
X157115152Y-130640147D01*
X157113139Y-130548503D01*
X157105421Y-130490955D01*
X157090749Y-130456932D01*
X157072838Y-130439305D01*
X157019323Y-130421500D01*
X156915100Y-130410044D01*
X156758354Y-130404773D01*
X156686104Y-130404357D01*
X156522779Y-130401776D01*
X156406834Y-130394211D01*
X156341348Y-130381926D01*
X156328153Y-130373595D01*
X156331626Y-130338267D01*
X156363459Y-130308346D01*
X156397916Y-130306018D01*
X156428320Y-130308783D01*
G37*
G36*
X152834749Y-129253265D02*
G01*
X152886430Y-129259167D01*
X152982502Y-129266335D01*
X153112048Y-129274097D01*
X153264156Y-129281784D01*
X153381748Y-129286904D01*
X153562724Y-129294407D01*
X153695408Y-129302565D01*
X153786764Y-129315111D01*
X153843753Y-129335779D01*
X153873337Y-129368304D01*
X153882476Y-129416420D01*
X153878133Y-129483860D01*
X153870268Y-129548936D01*
X153851419Y-129719845D01*
X153842765Y-129844593D01*
X153844683Y-129931478D01*
X153857556Y-129988800D01*
X153881763Y-130024859D01*
X153892488Y-130033638D01*
X153950544Y-130075208D01*
X153886012Y-130128469D01*
X153821480Y-130181730D01*
X153913681Y-130220996D01*
X153989061Y-130245416D01*
X154095412Y-130270643D01*
X154201226Y-130289817D01*
X154289588Y-130305388D01*
X154366827Y-130326032D01*
X154445796Y-130357224D01*
X154539348Y-130404439D01*
X154660334Y-130473151D01*
X154734869Y-130517123D01*
X154790458Y-130566707D01*
X154816948Y-130619573D01*
X154846641Y-130674720D01*
X154879203Y-130695436D01*
X154923161Y-130727962D01*
X154932788Y-130755652D01*
X154941785Y-130801835D01*
X154965471Y-130882919D01*
X154998891Y-130982070D01*
X155001960Y-130990621D01*
X155036472Y-131098958D01*
X155060702Y-131199334D01*
X155069450Y-131270182D01*
X155069442Y-131270657D01*
X155059458Y-131357805D01*
X155036004Y-131456657D01*
X155004456Y-131551608D01*
X154970189Y-131627047D01*
X154938578Y-131667368D01*
X154931866Y-131670107D01*
X154892765Y-131655023D01*
X154832114Y-131608535D01*
X154774740Y-131552768D01*
X154714365Y-131490646D01*
X154658265Y-131442297D01*
X154598379Y-131405692D01*
X154526647Y-131378804D01*
X154435007Y-131359607D01*
X154315399Y-131346073D01*
X154159761Y-131336174D01*
X153960034Y-131327885D01*
X153867538Y-131324618D01*
X153258823Y-131303594D01*
X153250007Y-131211720D01*
X153241191Y-131119846D01*
X153789550Y-131126248D01*
X154337908Y-131132650D01*
X154351742Y-130796409D01*
X154356590Y-130649299D01*
X154356482Y-130548925D01*
X154350834Y-130486855D01*
X154339058Y-130454661D01*
X154327364Y-130445574D01*
X154288556Y-130440004D01*
X154203929Y-130433393D01*
X154082982Y-130426302D01*
X153935211Y-130419291D01*
X153778378Y-130413205D01*
X153593232Y-130407418D01*
X153456101Y-130404972D01*
X153359747Y-130406155D01*
X153296933Y-130411254D01*
X153260419Y-130420557D01*
X153242968Y-130434352D01*
X153242886Y-130434480D01*
X153232160Y-130477864D01*
X153223686Y-130562258D01*
X153218638Y-130673343D01*
X153217743Y-130741667D01*
X153214079Y-130885672D01*
X153203881Y-130982243D01*
X153187557Y-131027787D01*
X153185229Y-131029639D01*
X153146844Y-131036586D01*
X153064516Y-131041558D01*
X152949618Y-131044158D01*
X152813523Y-131043989D01*
X152785537Y-131043600D01*
X152634893Y-131041843D01*
X152529352Y-131043033D01*
X152458704Y-131048395D01*
X152412742Y-131059155D01*
X152381257Y-131076539D01*
X152361092Y-131094572D01*
X152319823Y-131144330D01*
X152304248Y-131178447D01*
X152330417Y-131221865D01*
X152402929Y-131263159D01*
X152512792Y-131299753D01*
X152651012Y-131329071D01*
X152808597Y-131348537D01*
X152919880Y-131354767D01*
X152996534Y-131360533D01*
X153043894Y-131370985D01*
X153051307Y-131377449D01*
X153026989Y-131400370D01*
X152964014Y-131408220D01*
X152877346Y-131399597D01*
X152857625Y-131395583D01*
X152787652Y-131386123D01*
X152680200Y-131378564D01*
X152553124Y-131373979D01*
X152484095Y-131373122D01*
X152352768Y-131370968D01*
X152230570Y-131365993D01*
X152135850Y-131359070D01*
X152103649Y-131355007D01*
X151999891Y-131337857D01*
X151999852Y-131085541D01*
X152002337Y-130943555D01*
X152009223Y-130781111D01*
X152019586Y-130609425D01*
X152032505Y-130439711D01*
X152047058Y-130283183D01*
X152062324Y-130151056D01*
X152077381Y-130054545D01*
X152088063Y-130012064D01*
X152121293Y-129952477D01*
X152155185Y-129922785D01*
X152195042Y-129919222D01*
X152278510Y-129919182D01*
X152394554Y-129922090D01*
X152532135Y-129927374D01*
X152680217Y-129934460D01*
X152827762Y-129942775D01*
X152963734Y-129951746D01*
X153077094Y-129960800D01*
X153156806Y-129969362D01*
X153191461Y-129976609D01*
X153206454Y-130011370D01*
X153215786Y-130082081D01*
X153217320Y-130129301D01*
X153219237Y-130210592D01*
X153230683Y-130250905D01*
X153260200Y-130264590D01*
X153298693Y-130266013D01*
X153362630Y-130257431D01*
X153397269Y-130238180D01*
X153405897Y-130198718D01*
X153413077Y-130119634D01*
X153417470Y-130016645D01*
X153417873Y-129996078D01*
X153421276Y-129781808D01*
X153118699Y-129763137D01*
X152985758Y-129753097D01*
X152865412Y-129740710D01*
X152773323Y-129727766D01*
X152733115Y-129719049D01*
X152689639Y-129703632D01*
X152665400Y-129681699D01*
X152655608Y-129639487D01*
X152655473Y-129563235D01*
X152657749Y-129502535D01*
X152670538Y-129373433D01*
X152699316Y-129292446D01*
X152748316Y-129253617D01*
X152821768Y-129250986D01*
X152834749Y-129253265D01*
G37*
D14*
X126002500Y-101462500D02*
X126002500Y-120512500D01*
X126002500Y-101462500D02*
X134892500Y-101462500D01*
X134892500Y-101462500D02*
X134892500Y-120512500D01*
X134892500Y-120512500D02*
X126002500Y-120512500D01*
D11*
X129912500Y-121162500D02*
G75*
G02*
X129712500Y-121162500I-100000J0D01*
G01*
X129712500Y-121162500D02*
G75*
G02*
X129912500Y-121162500I100000J0D01*
G01*
D13*
G36*
X165830777Y-125764888D02*
G01*
X165819155Y-125815222D01*
X165774333Y-125821333D01*
X165704643Y-125790354D01*
X165717888Y-125764888D01*
X165818368Y-125754755D01*
X165830777Y-125764888D01*
G37*
G36*
X161661418Y-127647836D02*
G01*
X161699228Y-127755943D01*
X161623203Y-127867550D01*
X161476635Y-127922721D01*
X161327978Y-127906384D01*
X161287000Y-127775333D01*
X161287000Y-127774554D01*
X161332225Y-127639390D01*
X161493990Y-127599399D01*
X161504874Y-127599333D01*
X161661418Y-127647836D01*
G37*
G36*
X172075418Y-127647836D02*
G01*
X172113228Y-127755943D01*
X172037203Y-127867550D01*
X171890635Y-127922721D01*
X171741978Y-127906384D01*
X171701000Y-127775333D01*
X171701000Y-127774554D01*
X171746225Y-127639390D01*
X171907990Y-127599399D01*
X171918874Y-127599333D01*
X172075418Y-127647836D01*
G37*
G36*
X170599235Y-129783438D02*
G01*
X170600333Y-129815483D01*
X170579661Y-130050206D01*
X170528561Y-130277133D01*
X170463404Y-130437236D01*
X170416580Y-130477999D01*
X170379317Y-130404593D01*
X170385875Y-130219715D01*
X170395099Y-130160499D01*
X170448889Y-129942832D01*
X170513255Y-129786565D01*
X170569578Y-129722999D01*
X170599235Y-129783438D01*
G37*
G36*
X168822333Y-129977926D02*
G01*
X168757889Y-130052711D01*
X168739279Y-130054666D01*
X168659028Y-130126506D01*
X168603101Y-130266333D01*
X168534596Y-130424920D01*
X168465429Y-130477999D01*
X168417983Y-130415527D01*
X168432274Y-130344074D01*
X168478630Y-130160512D01*
X168483666Y-130099949D01*
X168554537Y-129991900D01*
X168653000Y-129945467D01*
X168788007Y-129940719D01*
X168822333Y-129977926D01*
G37*
G36*
X170237301Y-130139333D02*
G01*
X170205348Y-130344121D01*
X170114858Y-130435522D01*
X169986500Y-130462456D01*
X169814430Y-130456656D01*
X169755890Y-130364775D01*
X169753666Y-130321214D01*
X169786001Y-130093593D01*
X169815994Y-129998091D01*
X169862293Y-129927810D01*
X169899862Y-130000011D01*
X169926846Y-130139333D01*
X169975370Y-130435666D01*
X170115319Y-130139333D01*
X170255269Y-129842999D01*
X170237301Y-130139333D01*
G37*
G36*
X161576366Y-128134388D02*
G01*
X161599731Y-128233585D01*
X161594078Y-128255499D01*
X161540256Y-128458421D01*
X161464486Y-128765341D01*
X161381698Y-129114990D01*
X161336210Y-129313833D01*
X161253866Y-129492921D01*
X161092432Y-129546556D01*
X161081229Y-129546666D01*
X160878684Y-129546666D01*
X160998235Y-129017499D01*
X161068553Y-128706831D01*
X161129458Y-128438753D01*
X161161673Y-128297833D01*
X161255583Y-128144554D01*
X161421318Y-128107333D01*
X161576366Y-128134388D01*
G37*
G36*
X167762869Y-129750673D02*
G01*
X167806333Y-129800666D01*
X167735420Y-129869456D01*
X167637000Y-129885333D01*
X167491597Y-129926270D01*
X167488486Y-130011641D01*
X167615833Y-130080970D01*
X167691203Y-130111560D01*
X167604830Y-130127678D01*
X167573500Y-130129511D01*
X167416866Y-130191387D01*
X167383000Y-130308666D01*
X167343648Y-130446180D01*
X167288910Y-130477999D01*
X167233537Y-130402379D01*
X167251709Y-130175001D01*
X167254263Y-130161144D01*
X167302697Y-129938823D01*
X167346490Y-129793907D01*
X167353349Y-129780144D01*
X167457232Y-129727503D01*
X167620849Y-129718908D01*
X167762869Y-129750673D01*
G37*
G36*
X168215055Y-129932409D02*
G01*
X168332264Y-130048216D01*
X168347492Y-130227572D01*
X168319619Y-130298788D01*
X168181183Y-130434854D01*
X168004494Y-130476940D01*
X167861210Y-130410793D01*
X167848198Y-130392575D01*
X167828734Y-130231055D01*
X167975666Y-130231055D01*
X168020274Y-130355187D01*
X168114686Y-130358381D01*
X168199784Y-130249353D01*
X168214708Y-130195816D01*
X168178236Y-130074980D01*
X168108874Y-130054666D01*
X167998957Y-130125886D01*
X167975666Y-130231055D01*
X167828734Y-130231055D01*
X167827775Y-130223100D01*
X167907633Y-130039015D01*
X168036254Y-129932376D01*
X168215055Y-129932409D01*
G37*
G36*
X171991569Y-128134800D02*
G01*
X172011620Y-128235574D01*
X172006144Y-128255499D01*
X171962526Y-128422888D01*
X171902346Y-128681213D01*
X171870333Y-128826999D01*
X171792703Y-129173399D01*
X171730108Y-129386105D01*
X171664884Y-129497568D01*
X171579368Y-129540241D01*
X171478631Y-129546666D01*
X171334000Y-129525565D01*
X171304006Y-129483166D01*
X171338184Y-129375380D01*
X171396203Y-129146572D01*
X171466888Y-128841391D01*
X171484111Y-128763499D01*
X171560393Y-128434936D01*
X171623471Y-128238960D01*
X171691645Y-128141781D01*
X171783215Y-128109608D01*
X171839480Y-128107333D01*
X171991569Y-128134800D01*
G37*
G36*
X171077961Y-130016877D02*
G01*
X171108333Y-130228996D01*
X171087548Y-130404043D01*
X170989528Y-130469705D01*
X170848125Y-130477999D01*
X170664546Y-130455388D01*
X170611385Y-130373223D01*
X170615736Y-130333545D01*
X170633924Y-130308666D01*
X170769666Y-130308666D01*
X170834095Y-130390872D01*
X170854333Y-130393333D01*
X170936539Y-130328903D01*
X170939000Y-130308666D01*
X170874570Y-130226459D01*
X170854333Y-130223999D01*
X170772126Y-130288428D01*
X170769666Y-130308666D01*
X170633924Y-130308666D01*
X170710999Y-130203236D01*
X170854777Y-130130318D01*
X171066000Y-130071545D01*
X170854333Y-130060531D01*
X170714427Y-130044092D01*
X170728706Y-130002192D01*
X170791503Y-129962842D01*
X170971334Y-129914200D01*
X171077961Y-130016877D01*
G37*
G36*
X166163940Y-128070081D02*
G01*
X166149230Y-128230892D01*
X166142100Y-128259197D01*
X166046027Y-128406746D01*
X165944158Y-128445999D01*
X165741610Y-128526655D01*
X165582145Y-128769364D01*
X165477688Y-129113960D01*
X165404635Y-129367097D01*
X165310849Y-129493356D01*
X165202522Y-129531388D01*
X165055267Y-129519815D01*
X165012333Y-129470294D01*
X165029525Y-129349869D01*
X165074993Y-129111764D01*
X165139575Y-128803438D01*
X165152392Y-128744739D01*
X165228697Y-128420630D01*
X165293090Y-128229179D01*
X165363636Y-128136387D01*
X165458400Y-128108254D01*
X165491059Y-128107333D01*
X165643803Y-128138744D01*
X165689666Y-128193951D01*
X165749034Y-128214742D01*
X165893028Y-128147209D01*
X165903975Y-128140149D01*
X166087159Y-128042318D01*
X166163940Y-128070081D01*
G37*
G36*
X169526405Y-129940698D02*
G01*
X169636331Y-130011229D01*
X169638810Y-130178420D01*
X169620078Y-130262439D01*
X169550874Y-130435659D01*
X169488333Y-130467951D01*
X169466821Y-130358369D01*
X169478944Y-130266333D01*
X169478429Y-130103802D01*
X169424870Y-130054666D01*
X169347340Y-130125253D01*
X169330333Y-130219002D01*
X169291455Y-130381084D01*
X169245666Y-130435666D01*
X169183248Y-130405299D01*
X169161000Y-130266333D01*
X169134665Y-130119195D01*
X169076333Y-130096999D01*
X169005207Y-130216419D01*
X168991666Y-130313663D01*
X168951353Y-130448441D01*
X168897821Y-130477999D01*
X168842291Y-130407232D01*
X168862370Y-130245339D01*
X168909978Y-130069751D01*
X168972059Y-129986490D01*
X169104743Y-129954614D01*
X169280886Y-129940075D01*
X169526405Y-129940698D01*
G37*
G36*
X172012233Y-129763629D02*
G01*
X172104437Y-129867859D01*
X172087131Y-129937668D01*
X171944733Y-129927694D01*
X171908324Y-129919011D01*
X171748962Y-129896217D01*
X171729796Y-129947324D01*
X171735701Y-129957651D01*
X171866500Y-130048126D01*
X171912666Y-130054666D01*
X172060931Y-130114740D01*
X172089392Y-130254825D01*
X172036588Y-130354708D01*
X171880651Y-130448337D01*
X171676041Y-130478158D01*
X171514984Y-130432157D01*
X171505746Y-130423857D01*
X171474569Y-130326379D01*
X171549060Y-130274740D01*
X171662495Y-130311844D01*
X171810621Y-130363978D01*
X171878712Y-130345821D01*
X171897495Y-130268852D01*
X171755420Y-130166494D01*
X171573494Y-130041755D01*
X171549252Y-129924816D01*
X171654599Y-129804041D01*
X171834561Y-129731327D01*
X172012233Y-129763629D01*
G37*
G36*
X173488922Y-129740668D02*
G01*
X173563660Y-129800051D01*
X173563666Y-129800666D01*
X173491210Y-129864312D01*
X173352000Y-129885333D01*
X173182923Y-129920871D01*
X173148782Y-129994138D01*
X173255486Y-130055111D01*
X173330833Y-130064487D01*
X173457537Y-130075765D01*
X173421054Y-130097623D01*
X173352000Y-130115039D01*
X173162220Y-130184182D01*
X173095953Y-130255353D01*
X173166937Y-130302364D01*
X173250400Y-130308666D01*
X173417441Y-130335681D01*
X173479000Y-130393333D01*
X173404470Y-130448869D01*
X173220775Y-130477104D01*
X173176961Y-130477999D01*
X172976981Y-130462966D01*
X172907473Y-130403800D01*
X172915091Y-130329833D01*
X172964091Y-130134303D01*
X173007077Y-129948833D01*
X173078644Y-129778323D01*
X173227571Y-129719276D01*
X173311279Y-129715999D01*
X173488922Y-129740668D01*
G37*
G36*
X172650174Y-129833847D02*
G01*
X172712553Y-130004369D01*
X172758111Y-130212071D01*
X172771611Y-130391155D01*
X172749074Y-130469612D01*
X172677422Y-130454727D01*
X172656019Y-130414499D01*
X172564960Y-130334170D01*
X172422947Y-130310646D01*
X172311938Y-130348715D01*
X172293666Y-130393333D01*
X172228411Y-130474525D01*
X172202656Y-130477999D01*
X172186433Y-130413218D01*
X172245987Y-130247978D01*
X172301722Y-130139333D01*
X172463000Y-130139333D01*
X172491886Y-130221798D01*
X172500336Y-130223999D01*
X172572622Y-130164670D01*
X172590000Y-130139333D01*
X172583287Y-130061314D01*
X172552663Y-130054666D01*
X172466445Y-130116126D01*
X172463000Y-130139333D01*
X172301722Y-130139333D01*
X172308489Y-130126141D01*
X172440018Y-129917403D01*
X172550381Y-129787058D01*
X172586210Y-129766307D01*
X172650174Y-129833847D01*
G37*
G36*
X165285706Y-125984927D02*
G01*
X165886416Y-126037634D01*
X166334156Y-126083920D01*
X166626603Y-126122866D01*
X166761431Y-126153552D01*
X166736319Y-126175061D01*
X166548941Y-126186475D01*
X166196975Y-126186873D01*
X165774333Y-126178076D01*
X164686670Y-126186427D01*
X163616218Y-126267372D01*
X162584511Y-126415496D01*
X161613085Y-126625388D01*
X160723475Y-126891634D01*
X159937216Y-127208821D01*
X159275843Y-127571537D01*
X158809124Y-127928795D01*
X158431730Y-128276666D01*
X157700365Y-128276666D01*
X157372270Y-128268380D01*
X157120345Y-128246247D01*
X156983143Y-128214348D01*
X156969000Y-128199195D01*
X157037456Y-128077576D01*
X157222060Y-127896344D01*
X157491664Y-127679417D01*
X157815118Y-127450716D01*
X158161275Y-127234159D01*
X158390105Y-127107918D01*
X159340670Y-126693437D01*
X160412253Y-126364211D01*
X161577014Y-126124773D01*
X162807118Y-125979657D01*
X164074725Y-125933397D01*
X165285706Y-125984927D01*
G37*
G36*
X170957574Y-128103631D02*
G01*
X171114633Y-128183610D01*
X171209499Y-128356898D01*
X171231522Y-128424833D01*
X171247980Y-128569009D01*
X171148092Y-128613929D01*
X171099538Y-128615333D01*
X170881462Y-128559252D01*
X170767411Y-128486291D01*
X170579962Y-128399812D01*
X170404825Y-128475095D01*
X170261920Y-128699386D01*
X170197944Y-128964896D01*
X170229928Y-129166719D01*
X170335958Y-129276560D01*
X170494120Y-129266128D01*
X170626342Y-129169895D01*
X170772590Y-129078508D01*
X170937578Y-129041239D01*
X171062099Y-129062000D01*
X171088883Y-129139348D01*
X170947826Y-129329008D01*
X170699354Y-129480635D01*
X170404793Y-129570388D01*
X170125466Y-129574422D01*
X170036278Y-129548605D01*
X169850530Y-129391070D01*
X169768803Y-129143665D01*
X169789280Y-128848702D01*
X169910148Y-128548494D01*
X170088904Y-128322284D01*
X170332211Y-128146256D01*
X170611940Y-128085872D01*
X170685904Y-128084242D01*
X170957574Y-128103631D01*
G37*
G36*
X160912579Y-127612093D02*
G01*
X161046339Y-127634005D01*
X161104301Y-127679766D01*
X161117594Y-127754967D01*
X161117666Y-127765600D01*
X161089476Y-127879293D01*
X160974885Y-127928803D01*
X160787498Y-127937999D01*
X160457331Y-127937999D01*
X160315970Y-128594166D01*
X160227040Y-129002370D01*
X160161220Y-129273251D01*
X160105702Y-129434965D01*
X160047677Y-129515669D01*
X159974337Y-129543519D01*
X159882681Y-129546666D01*
X159732744Y-129519783D01*
X159707739Y-129408369D01*
X159717584Y-129356166D01*
X159831519Y-128844508D01*
X159913266Y-128475413D01*
X159967737Y-128226225D01*
X159999843Y-128074288D01*
X160014496Y-127996946D01*
X160017000Y-127975079D01*
X159942353Y-127950757D01*
X159758367Y-127938391D01*
X159714458Y-127937999D01*
X159511665Y-127921497D01*
X159438178Y-127858303D01*
X159440272Y-127789833D01*
X159475605Y-127719911D01*
X159570228Y-127673362D01*
X159755127Y-127643921D01*
X160061289Y-127625324D01*
X160293147Y-127617433D01*
X160671891Y-127608433D01*
X160912579Y-127612093D01*
G37*
G36*
X173596167Y-128193262D02*
G01*
X173657967Y-128418533D01*
X173628877Y-128777215D01*
X173589213Y-128976027D01*
X173515694Y-129278302D01*
X173451094Y-129450090D01*
X173373918Y-129527483D01*
X173262673Y-129546574D01*
X173249376Y-129546666D01*
X173097236Y-129517703D01*
X173085888Y-129420697D01*
X173124939Y-129266064D01*
X173169568Y-129015437D01*
X173190328Y-128871818D01*
X173214935Y-128610982D01*
X173194007Y-128469271D01*
X173119042Y-128400577D01*
X173102149Y-128393543D01*
X172919882Y-128402666D01*
X172761790Y-128574501D01*
X172632064Y-128903609D01*
X172594781Y-129052064D01*
X172519024Y-129327548D01*
X172434615Y-129473710D01*
X172318071Y-129529911D01*
X172308822Y-129531388D01*
X172164524Y-129519167D01*
X172124333Y-129470294D01*
X172141523Y-129349774D01*
X172186970Y-129111741D01*
X172251484Y-128803822D01*
X172263659Y-128748076D01*
X172402985Y-128114008D01*
X172750492Y-128119440D01*
X172990219Y-128118593D01*
X173158184Y-128109784D01*
X173182666Y-128106076D01*
X173439170Y-128092182D01*
X173596167Y-128193262D01*
G37*
G36*
X169325298Y-128096788D02*
G01*
X169510842Y-128181994D01*
X169561045Y-128253433D01*
X169570066Y-128395311D01*
X169547907Y-128647686D01*
X169500082Y-128951797D01*
X169391650Y-129526461D01*
X168820046Y-129531840D01*
X168524067Y-129527421D01*
X168299855Y-129510655D01*
X168196720Y-129485498D01*
X168158583Y-129370658D01*
X168146193Y-129213792D01*
X168529580Y-129213792D01*
X168658811Y-129285884D01*
X168843014Y-129268715D01*
X168974733Y-129191066D01*
X169064858Y-129040973D01*
X169054981Y-128913413D01*
X168968172Y-128869333D01*
X168814692Y-128913964D01*
X168653784Y-129017906D01*
X168542655Y-129136230D01*
X168529580Y-129213792D01*
X168146193Y-129213792D01*
X168145000Y-129198689D01*
X168221158Y-128957489D01*
X168417567Y-128777170D01*
X168686125Y-128700394D01*
X168707247Y-128699999D01*
X168980181Y-128662556D01*
X169136044Y-128559965D01*
X169161000Y-128479274D01*
X169095006Y-128389163D01*
X168951803Y-128363437D01*
X168813560Y-128409273D01*
X168780000Y-128445999D01*
X168663465Y-128511187D01*
X168518024Y-128530666D01*
X168372806Y-128512634D01*
X168365149Y-128430886D01*
X168397017Y-128365037D01*
X168550619Y-128216814D01*
X168791995Y-128119299D01*
X169067952Y-128077590D01*
X169325298Y-128096788D01*
G37*
G36*
X163255051Y-125368461D02*
G01*
X163996852Y-125441818D01*
X164542910Y-125510306D01*
X164935534Y-125565545D01*
X165172609Y-125608878D01*
X165252020Y-125641646D01*
X165171652Y-125665190D01*
X164929390Y-125680853D01*
X164523121Y-125689976D01*
X163950728Y-125693900D01*
X163598811Y-125694333D01*
X162828651Y-125697999D01*
X162192694Y-125711475D01*
X161655921Y-125738472D01*
X161183311Y-125782703D01*
X160739843Y-125847881D01*
X160290497Y-125937719D01*
X159800254Y-126055930D01*
X159535213Y-126125144D01*
X158704631Y-126387139D01*
X157950213Y-126707009D01*
X157295083Y-127071832D01*
X156762371Y-127468686D01*
X156375203Y-127884649D01*
X156367827Y-127894850D01*
X156217428Y-128099911D01*
X156114982Y-128231288D01*
X156086813Y-128259255D01*
X156005379Y-128248498D01*
X155793463Y-128234532D01*
X155489825Y-128219723D01*
X155339166Y-128213626D01*
X155008786Y-128194680D01*
X154754384Y-128167983D01*
X154614247Y-128138105D01*
X154598649Y-128125203D01*
X154652736Y-127972493D01*
X154791426Y-127746233D01*
X154980939Y-127493949D01*
X155187499Y-127263170D01*
X155261154Y-127193043D01*
X155904718Y-126713883D01*
X156687620Y-126298901D01*
X157591000Y-125951879D01*
X158596002Y-125676595D01*
X159683766Y-125476831D01*
X160835434Y-125356367D01*
X162032149Y-125318984D01*
X163255051Y-125368461D01*
G37*
G36*
X164619090Y-128138208D02*
G01*
X164719107Y-128229743D01*
X164888256Y-128474396D01*
X164911967Y-128680452D01*
X164886867Y-128807250D01*
X164821171Y-128879239D01*
X164673815Y-128915364D01*
X164403736Y-128934569D01*
X164356166Y-128936873D01*
X164048951Y-128962198D01*
X163882203Y-129006726D01*
X163827418Y-129078580D01*
X163827000Y-129087696D01*
X163894918Y-129224271D01*
X164056521Y-129277687D01*
X164248583Y-129228445D01*
X164260399Y-129221361D01*
X164442991Y-129146743D01*
X164625490Y-129126172D01*
X164743464Y-129162638D01*
X164758333Y-129198262D01*
X164683190Y-129319104D01*
X164493644Y-129434139D01*
X164243516Y-129518226D01*
X164012434Y-129546666D01*
X163688259Y-129489397D01*
X163532400Y-129379248D01*
X163420295Y-129142396D01*
X163435307Y-128860574D01*
X163545283Y-128600215D01*
X163930817Y-128600215D01*
X163979975Y-128672409D01*
X164181061Y-128699872D01*
X164200944Y-128699999D01*
X164421094Y-128674683D01*
X164502553Y-128591920D01*
X164504333Y-128570342D01*
X164442030Y-128431686D01*
X164293879Y-128379122D01*
X164118014Y-128409620D01*
X163972574Y-128520154D01*
X163930817Y-128600215D01*
X163545283Y-128600215D01*
X163557141Y-128572141D01*
X163765502Y-128315454D01*
X164040095Y-128128870D01*
X164226806Y-128066814D01*
X164444460Y-128052045D01*
X164619090Y-128138208D01*
G37*
G36*
X162704194Y-128095524D02*
G01*
X162708001Y-128097522D01*
X162900105Y-128141680D01*
X163087067Y-128131929D01*
X163206636Y-128114026D01*
X163279092Y-128132744D01*
X163306098Y-128214326D01*
X163289315Y-128385016D01*
X163230405Y-128671055D01*
X163144621Y-129040796D01*
X163036479Y-129437622D01*
X162923364Y-129742653D01*
X162818907Y-129919771D01*
X162809390Y-129929123D01*
X162570772Y-130056559D01*
X162258723Y-130114956D01*
X161948571Y-130098429D01*
X161731500Y-130013327D01*
X161591306Y-129886134D01*
X161541000Y-129795865D01*
X161611984Y-129735518D01*
X161781627Y-129718685D01*
X161984961Y-129745279D01*
X162126142Y-129796639D01*
X162311644Y-129813374D01*
X162501749Y-129721236D01*
X162626005Y-129563145D01*
X162641666Y-129482598D01*
X162618501Y-129393022D01*
X162540066Y-129445066D01*
X162345395Y-129535327D01*
X162099591Y-129526221D01*
X161883865Y-129424016D01*
X161850455Y-129391832D01*
X161728935Y-129159665D01*
X161734503Y-128972974D01*
X162138364Y-128972974D01*
X162164211Y-129080810D01*
X162280407Y-129185525D01*
X162464581Y-129201159D01*
X162643765Y-129132485D01*
X162723354Y-129044232D01*
X162800293Y-128806659D01*
X162795026Y-128581976D01*
X162712021Y-128432199D01*
X162677866Y-128413028D01*
X162474329Y-128411954D01*
X162293528Y-128534872D01*
X162170020Y-128736855D01*
X162138364Y-128972974D01*
X161734503Y-128972974D01*
X161737859Y-128860456D01*
X161834286Y-128567233D01*
X161995392Y-128331266D01*
X162229266Y-128155075D01*
X162483127Y-128067036D01*
X162704194Y-128095524D01*
G37*
G36*
X167683254Y-127631515D02*
G01*
X167990439Y-127727327D01*
X168142124Y-127885663D01*
X168137265Y-128105418D01*
X167974818Y-128385488D01*
X167970164Y-128391430D01*
X167865429Y-128565752D01*
X167844793Y-128692279D01*
X167848315Y-128699430D01*
X167868661Y-128829507D01*
X167857940Y-129057063D01*
X167844203Y-129165915D01*
X167796896Y-129402705D01*
X167728488Y-129514699D01*
X167608016Y-129546145D01*
X167577772Y-129546666D01*
X167447610Y-129531889D01*
X167392961Y-129456638D01*
X167390510Y-129274533D01*
X167396886Y-129186833D01*
X167425333Y-128826999D01*
X167076639Y-128801509D01*
X166727946Y-128776018D01*
X166630920Y-129161342D01*
X166557963Y-129399794D01*
X166474191Y-129513725D01*
X166344259Y-129546161D01*
X166314389Y-129546666D01*
X166153878Y-129513897D01*
X166136318Y-129438688D01*
X166171239Y-129314601D01*
X166232657Y-129065246D01*
X166310894Y-128730779D01*
X166371038Y-128465021D01*
X166385759Y-128399089D01*
X166812647Y-128399089D01*
X166892180Y-128434716D01*
X167094954Y-128434919D01*
X167181488Y-128429921D01*
X167430832Y-128405438D01*
X167557804Y-128355008D01*
X167609358Y-128250982D01*
X167621457Y-128170833D01*
X167626761Y-128028530D01*
X167571100Y-127960529D01*
X167412202Y-127939476D01*
X167261623Y-127937999D01*
X167003104Y-127955988D01*
X166887036Y-128014824D01*
X166875000Y-128058074D01*
X166845367Y-128242778D01*
X166821655Y-128317163D01*
X166812647Y-128399089D01*
X166385759Y-128399089D01*
X166564323Y-127599333D01*
X167221614Y-127599333D01*
X167683254Y-127631515D01*
G37*
G36*
X174989376Y-128106063D02*
G01*
X175257653Y-128110972D01*
X175412395Y-128124710D01*
X175481502Y-128151959D01*
X175492873Y-128197397D01*
X175477353Y-128255890D01*
X175433695Y-128422985D01*
X175373251Y-128681074D01*
X175340988Y-128826999D01*
X175241997Y-129266964D01*
X175160237Y-129571506D01*
X175082403Y-129771759D01*
X174995194Y-129898859D01*
X174885305Y-129983939D01*
X174834760Y-130011767D01*
X174525251Y-130111604D01*
X174190257Y-130129686D01*
X173909592Y-130062992D01*
X173881166Y-130047884D01*
X173757931Y-129916984D01*
X173733000Y-129829182D01*
X173769334Y-129743379D01*
X173905434Y-129733997D01*
X174008166Y-129751265D01*
X174342823Y-129800369D01*
X174559754Y-129783189D01*
X174699100Y-129694692D01*
X174726197Y-129661274D01*
X174822803Y-129495880D01*
X174787710Y-129435619D01*
X174616087Y-129474458D01*
X174585634Y-129485663D01*
X174325095Y-129535884D01*
X174119967Y-129480124D01*
X173981880Y-129391943D01*
X173918233Y-129255979D01*
X173903654Y-129033221D01*
X174311960Y-129033221D01*
X174315916Y-129102166D01*
X174393037Y-129183472D01*
X174554873Y-129204424D01*
X174727956Y-129165092D01*
X174816492Y-129101692D01*
X174903675Y-128941051D01*
X174961292Y-128769982D01*
X174972790Y-128579679D01*
X174866344Y-128463863D01*
X174848961Y-128454185D01*
X174647043Y-128422648D01*
X174473198Y-128529356D01*
X174352983Y-128743237D01*
X174311960Y-129033221D01*
X173903654Y-129033221D01*
X173902352Y-129013324D01*
X173902333Y-128999483D01*
X173961229Y-128661726D01*
X174117223Y-128372849D01*
X174339275Y-128173831D01*
X174579666Y-128105305D01*
X174989376Y-128106063D01*
G37*
D15*
X149285000Y-91285000D02*
X151475000Y-91285000D01*
X149285000Y-93625000D02*
X149285000Y-91285000D01*
X149525000Y-91525000D02*
X149525000Y-120525000D01*
X149525000Y-120525000D02*
X162225000Y-120525000D01*
X155525000Y-93325000D02*
X155525000Y-94525000D01*
X155525000Y-94125000D02*
X156225000Y-93725000D01*
X155525000Y-94525000D02*
X156225000Y-94525000D01*
X156225000Y-93325000D02*
X155525000Y-93325000D01*
X156225000Y-94525000D02*
X156225000Y-93325000D01*
X162225000Y-91525000D02*
X149525000Y-91525000D01*
X162225000Y-120525000D02*
X162225000Y-91525000D01*
X165265000Y-81772936D02*
X165265000Y-82227064D01*
X166735000Y-81772936D02*
X166735000Y-82227064D01*
X135472500Y-91322500D02*
X137662500Y-91322500D01*
X135472500Y-93662500D02*
X135472500Y-91322500D01*
X135712500Y-91562500D02*
X135712500Y-120562500D01*
X135712500Y-120562500D02*
X148412500Y-120562500D01*
X141712500Y-93362500D02*
X141712500Y-94562500D01*
X141712500Y-94162500D02*
X142412500Y-93762500D01*
X141712500Y-94562500D02*
X142412500Y-94562500D01*
X142412500Y-93362500D02*
X141712500Y-93362500D01*
X142412500Y-94562500D02*
X142412500Y-93362500D01*
X148412500Y-91562500D02*
X135712500Y-91562500D01*
X148412500Y-120562500D02*
X148412500Y-91562500D01*
X128162500Y-81062500D02*
X129462500Y-81062500D01*
X128162500Y-82862500D02*
X129462500Y-82862500D01*
D16*
X130137500Y-82472500D02*
G75*
G02*
X129987500Y-82472500I-75000J0D01*
G01*
X129987500Y-82472500D02*
G75*
G02*
X130137500Y-82472500I75000J0D01*
G01*
D15*
X133765000Y-82235436D02*
X133765000Y-82689564D01*
X135235000Y-82235436D02*
X135235000Y-82689564D01*
D14*
X163002500Y-101435000D02*
X163002500Y-120485000D01*
X163002500Y-101435000D02*
X171892500Y-101435000D01*
X171892500Y-101435000D02*
X171892500Y-120485000D01*
X171892500Y-120485000D02*
X163002500Y-120485000D01*
D11*
X166912500Y-121135000D02*
G75*
G02*
X166712500Y-121135000I-100000J0D01*
G01*
X166712500Y-121135000D02*
G75*
G02*
X166912500Y-121135000I100000J0D01*
G01*
D15*
X159995000Y-81100000D02*
X161295000Y-81100000D01*
X159995000Y-82900000D02*
X161295000Y-82900000D01*
D16*
X161970000Y-82510000D02*
G75*
G02*
X161820000Y-82510000I-75000J0D01*
G01*
X161820000Y-82510000D02*
G75*
G02*
X161970000Y-82510000I75000J0D01*
G01*
D15*
X168510000Y-84850000D02*
X163000000Y-84850000D01*
X168510000Y-88150000D02*
X163000000Y-88150000D01*
X168510000Y-88150000D02*
X168510000Y-84850000D01*
X136010000Y-84850000D02*
X130500000Y-84850000D01*
X136010000Y-88150000D02*
X130500000Y-88150000D01*
X136010000Y-88150000D02*
X136010000Y-84850000D01*
D14*
X138687500Y-88945000D02*
X157737500Y-88945000D01*
X138687500Y-88945000D02*
X138687500Y-80055000D01*
X138687500Y-80055000D02*
X157737500Y-80055000D01*
X157737500Y-80055000D02*
X157737500Y-88945000D01*
D11*
X158487500Y-85135000D02*
G75*
G02*
X158287500Y-85135000I-100000J0D01*
G01*
X158287500Y-85135000D02*
G75*
G02*
X158487500Y-85135000I100000J0D01*
G01*
%LPC*%
D17*
X129812500Y-114162500D03*
D18*
X129812500Y-118612500D03*
D19*
X129812500Y-107812500D03*
D20*
X152125000Y-117425000D03*
X159625000Y-113925000D03*
X152125000Y-110425000D03*
D21*
X152125000Y-93925000D03*
D20*
X159625000Y-93925000D03*
D22*
X166000000Y-81000000D03*
X166000000Y-83000000D03*
D20*
X138312500Y-117462500D03*
X145812500Y-113962500D03*
X138312500Y-110462500D03*
D21*
X138312500Y-93962500D03*
D20*
X145812500Y-93962500D03*
D23*
X182000000Y-129500000D03*
D24*
X129457500Y-81462500D03*
X129457500Y-82462500D03*
X128167500Y-81962500D03*
D22*
X134500000Y-81462500D03*
X134500000Y-83462500D03*
D17*
X166812500Y-114135000D03*
D18*
X166812500Y-118585000D03*
D19*
X166812500Y-107785000D03*
D24*
X161290000Y-81500000D03*
X161290000Y-82500000D03*
X160000000Y-82000000D03*
D23*
X112000000Y-79500000D03*
D25*
X167000000Y-86500000D03*
X163000000Y-86500000D03*
X134500000Y-86500000D03*
X130500000Y-86500000D03*
D23*
X182000000Y-79500000D03*
X112000000Y-129500000D03*
D18*
X155837500Y-85135000D03*
D26*
X151387500Y-85135000D03*
D19*
X145037500Y-85135000D03*
%LPD*%
M02*
