G04 #@! TF.GenerationSoftware,KiCad,Pcbnew,9.0.0*
G04 #@! TF.CreationDate,2025-04-19T00:24:35-05:00*
G04 #@! TF.ProjectId,Charging_PCB,43686172-6769-46e6-975f-5043422e6b69,rev?*
G04 #@! TF.SameCoordinates,Original*
G04 #@! TF.FileFunction,Copper,L2,Bot*
G04 #@! TF.FilePolarity,Positive*
%FSLAX46Y46*%
G04 Gerber Fmt 4.6, Leading zero omitted, Abs format (unit mm)*
G04 Created by KiCad (PCBNEW 9.0.0) date 2025-04-19 00:24:35*
%MOMM*%
%LPD*%
G01*
G04 APERTURE LIST*
G04 #@! TA.AperFunction,ComponentPad*
%ADD10R,2.210000X2.210000*%
G04 #@! TD*
G04 #@! TA.AperFunction,ComponentPad*
%ADD11C,2.210000*%
G04 #@! TD*
G04 #@! TA.AperFunction,ComponentPad*
%ADD12C,2.000000*%
G04 #@! TD*
G04 #@! TA.AperFunction,ComponentPad*
%ADD13R,2.000000X2.000000*%
G04 #@! TD*
G04 #@! TA.AperFunction,ViaPad*
%ADD14C,0.700000*%
G04 #@! TD*
G04 #@! TA.AperFunction,Conductor*
%ADD15C,0.200000*%
G04 #@! TD*
G04 APERTURE END LIST*
D10*
X129812500Y-114162500D03*
D11*
X129812500Y-107812500D03*
D12*
X152125000Y-117425000D03*
X159625000Y-113925000D03*
X152125000Y-110425000D03*
D13*
X152125000Y-93925000D03*
D12*
X159625000Y-93925000D03*
X138312500Y-117462500D03*
X145812500Y-113962500D03*
X138312500Y-110462500D03*
D13*
X138312500Y-93962500D03*
D12*
X145812500Y-93962500D03*
D10*
X166812500Y-114135000D03*
D11*
X166812500Y-107785000D03*
D10*
X151387500Y-85135000D03*
D11*
X145037500Y-85135000D03*
D14*
X179936399Y-85020471D03*
X182436399Y-85020471D03*
X110069913Y-85018530D03*
X115069913Y-85018530D03*
X112569913Y-85018530D03*
X154000000Y-88500000D03*
X154000000Y-86000000D03*
X154000000Y-83500000D03*
X152500000Y-97500000D03*
X170000000Y-125000000D03*
X175000000Y-125000000D03*
X172500000Y-125000000D03*
X132500000Y-100000000D03*
X130000000Y-100000000D03*
X125000000Y-100000000D03*
X127500000Y-100000000D03*
X142500000Y-82500000D03*
X140000000Y-82500000D03*
X125000000Y-77500000D03*
X125000000Y-85000000D03*
X125000000Y-82500000D03*
X125000000Y-80000000D03*
X125000000Y-87500000D03*
X142500000Y-80000000D03*
X140000000Y-80000000D03*
X150000000Y-125000000D03*
X147500000Y-125000000D03*
X142500000Y-125000000D03*
X140000000Y-125000000D03*
X145000000Y-125000000D03*
X137500000Y-125000000D03*
X135000000Y-125000000D03*
X130000000Y-125000000D03*
X132500000Y-125000000D03*
X125000000Y-125000000D03*
X127500000Y-125000000D03*
X170000000Y-117500000D03*
X170000000Y-120000000D03*
X169861632Y-112617999D03*
X169861632Y-115117999D03*
X170000000Y-107500000D03*
X170000000Y-110000000D03*
X160000000Y-97500000D03*
X160000000Y-100000000D03*
X167500000Y-102500000D03*
X167500000Y-105000000D03*
X165000000Y-102500000D03*
X165000000Y-105000000D03*
X170000000Y-102500000D03*
X170000000Y-105000000D03*
X142500000Y-115000000D03*
X142500000Y-117500000D03*
X142500000Y-110000000D03*
X142500000Y-112500000D03*
X155000000Y-117500000D03*
X155000000Y-115000000D03*
X155812500Y-112500000D03*
X155812500Y-110000000D03*
X152500000Y-102500000D03*
X152500000Y-100000000D03*
X155000000Y-107500000D03*
X155000000Y-105000000D03*
X152500000Y-105000000D03*
X152500000Y-107500000D03*
X130000000Y-105000000D03*
X130000000Y-102500000D03*
X127500000Y-102500000D03*
X127500000Y-105000000D03*
X145000000Y-107500000D03*
X140000000Y-107500000D03*
X142500000Y-107500000D03*
X147500000Y-107500000D03*
X137500000Y-107500000D03*
X147500000Y-105000000D03*
X147500000Y-102500000D03*
X147500000Y-100000000D03*
X147500000Y-97500000D03*
X145000000Y-102500000D03*
X137500000Y-105000000D03*
X140000000Y-105000000D03*
X140000000Y-102500000D03*
X142500000Y-102500000D03*
X137500000Y-97500000D03*
X145000000Y-105000000D03*
X137500000Y-102500000D03*
X142500000Y-105000000D03*
X140000000Y-100000000D03*
X140000000Y-97500000D03*
X142500000Y-97500000D03*
X145000000Y-97500000D03*
X145000000Y-100000000D03*
X142500000Y-100000000D03*
X137500000Y-100000000D03*
X170000000Y-95000000D03*
X170000000Y-92500000D03*
X170000000Y-97500000D03*
X167500000Y-97500000D03*
X165000000Y-95000000D03*
X167500000Y-95000000D03*
X165000000Y-92500000D03*
X165000000Y-97500000D03*
X167500000Y-92500000D03*
X170000000Y-82500000D03*
X170000000Y-80000000D03*
X167500000Y-80000000D03*
X177500000Y-85000000D03*
X177500000Y-82500000D03*
X175000000Y-80000000D03*
X177500000Y-80000000D03*
X172500000Y-82500000D03*
X172500000Y-80000000D03*
X172500000Y-85000000D03*
X175000000Y-82500000D03*
X175000000Y-85000000D03*
X182500000Y-117500000D03*
X175000000Y-120000000D03*
X172500000Y-117500000D03*
X172500000Y-120000000D03*
X177500000Y-120000000D03*
X177500000Y-117500000D03*
X180000000Y-117500000D03*
X175000000Y-112500000D03*
X182500000Y-120000000D03*
X175000000Y-117500000D03*
X180000000Y-120000000D03*
X177500000Y-115000000D03*
X177500000Y-112500000D03*
X180000000Y-112500000D03*
X182500000Y-112500000D03*
X182500000Y-115000000D03*
X180000000Y-115000000D03*
X175000000Y-115000000D03*
X172500000Y-112500000D03*
X172500000Y-115000000D03*
X172500000Y-102500000D03*
X172500000Y-100000000D03*
X172500000Y-105000000D03*
X175000000Y-90000000D03*
X175000000Y-105000000D03*
X172500000Y-97500000D03*
X175000000Y-92500000D03*
X175000000Y-87500000D03*
X175000000Y-97500000D03*
X177500000Y-92500000D03*
X177500000Y-87500000D03*
X182500000Y-92500000D03*
X182500000Y-90000000D03*
X182500000Y-87500000D03*
X180000000Y-92500000D03*
X180000000Y-87500000D03*
X177500000Y-90000000D03*
X180000000Y-90000000D03*
X182500000Y-107500000D03*
X177500000Y-110000000D03*
X180000000Y-107500000D03*
X177500000Y-107500000D03*
X182500000Y-110000000D03*
X175000000Y-107500000D03*
X180000000Y-110000000D03*
X172500000Y-107500000D03*
X172500000Y-110000000D03*
X175000000Y-110000000D03*
X175000000Y-100000000D03*
X175000000Y-102500000D03*
X182500000Y-105000000D03*
X177500000Y-105000000D03*
X177500000Y-102500000D03*
X180000000Y-102500000D03*
X180000000Y-97500000D03*
X182500000Y-102500000D03*
X182500000Y-100000000D03*
X182500000Y-97500000D03*
X177500000Y-100000000D03*
X180000000Y-100000000D03*
X177500000Y-97500000D03*
X180000000Y-105000000D03*
X180000000Y-95000000D03*
X177500000Y-95000000D03*
X172500000Y-92500000D03*
X172500000Y-87500000D03*
X175000000Y-95000000D03*
X172500000Y-90000000D03*
X182500000Y-95000000D03*
X172500000Y-95000000D03*
X132500000Y-90000000D03*
X132500000Y-92500000D03*
X132500000Y-97500000D03*
X132500000Y-95000000D03*
X127500000Y-90000000D03*
X125000000Y-90000000D03*
X130000000Y-90000000D03*
X127500000Y-92500000D03*
X125000000Y-92500000D03*
X130000000Y-92500000D03*
X127500000Y-95000000D03*
X125000000Y-95000000D03*
X130000000Y-95000000D03*
X127500000Y-97500000D03*
X125000000Y-97500000D03*
X130000000Y-97500000D03*
X127500000Y-77500000D03*
X130000000Y-77500000D03*
X120000000Y-77500000D03*
X117500000Y-77500000D03*
X122500000Y-77500000D03*
X122500000Y-85000000D03*
X120000000Y-85000000D03*
X120000000Y-80000000D03*
X122500000Y-80000000D03*
X117500000Y-80000000D03*
X117500000Y-85000000D03*
X122500000Y-82500000D03*
X117500000Y-82500000D03*
X120000000Y-82500000D03*
X115000000Y-122500000D03*
X112500000Y-122500000D03*
X112500000Y-117500000D03*
X115000000Y-117500000D03*
X110000000Y-117500000D03*
X110000000Y-122500000D03*
X115000000Y-120000000D03*
X110000000Y-120000000D03*
X112500000Y-120000000D03*
X117500000Y-122500000D03*
X117500000Y-117500000D03*
X122500000Y-122500000D03*
X122500000Y-120000000D03*
X122500000Y-117500000D03*
X120000000Y-122500000D03*
X120000000Y-117500000D03*
X117500000Y-120000000D03*
X120000000Y-120000000D03*
X120000000Y-125000000D03*
X117500000Y-125000000D03*
X122500000Y-125000000D03*
X117500000Y-112500000D03*
X117500000Y-107500000D03*
X122500000Y-112500000D03*
X122500000Y-110000000D03*
X122500000Y-107500000D03*
X120000000Y-112500000D03*
X120000000Y-107500000D03*
X117500000Y-110000000D03*
X120000000Y-110000000D03*
X120000000Y-115000000D03*
X117500000Y-115000000D03*
X122500000Y-115000000D03*
X110000000Y-112500000D03*
X110000000Y-107500000D03*
X115000000Y-112500000D03*
X115000000Y-110000000D03*
X115000000Y-107500000D03*
X112500000Y-112500000D03*
X112500000Y-107500000D03*
X110000000Y-110000000D03*
X112500000Y-110000000D03*
X112500000Y-115000000D03*
X110000000Y-115000000D03*
X115000000Y-115000000D03*
X117500000Y-102500000D03*
X122500000Y-102500000D03*
X122500000Y-100000000D03*
X122500000Y-97500000D03*
X120000000Y-102500000D03*
X117500000Y-100000000D03*
X120000000Y-105000000D03*
X117500000Y-105000000D03*
X122500000Y-105000000D03*
X110000000Y-102500000D03*
X110000000Y-97500000D03*
X115000000Y-102500000D03*
X115000000Y-100000000D03*
X115000000Y-97500000D03*
X112500000Y-102500000D03*
X112500000Y-97500000D03*
X110000000Y-100000000D03*
X112500000Y-100000000D03*
X112500000Y-105000000D03*
X110000000Y-105000000D03*
X115000000Y-105000000D03*
X110000000Y-92500000D03*
X110000000Y-87500000D03*
X115000000Y-87500000D03*
X112500000Y-87500000D03*
X110000000Y-90000000D03*
X112500000Y-95000000D03*
X110000000Y-95000000D03*
X122500000Y-95000000D03*
X122500000Y-90000000D03*
X122500000Y-87500000D03*
X120000000Y-87500000D03*
X117500000Y-87500000D03*
X130500000Y-89000000D03*
X128000000Y-86500000D03*
X163000000Y-88500000D03*
D15*
X159737500Y-113812500D02*
X159625000Y-113925000D01*
G04 #@! TA.AperFunction,Conductor*
G36*
X182002702Y-75000617D02*
G01*
X182386771Y-75017386D01*
X182397506Y-75018326D01*
X182775971Y-75068152D01*
X182786597Y-75070025D01*
X183159284Y-75152648D01*
X183169710Y-75155442D01*
X183533765Y-75270227D01*
X183543911Y-75273920D01*
X183896578Y-75420000D01*
X183906369Y-75424566D01*
X184244942Y-75600816D01*
X184254310Y-75606224D01*
X184576244Y-75811318D01*
X184585105Y-75817523D01*
X184887930Y-76049889D01*
X184896217Y-76056843D01*
X185177635Y-76314715D01*
X185185284Y-76322364D01*
X185443156Y-76603782D01*
X185450110Y-76612069D01*
X185682476Y-76914894D01*
X185688681Y-76923755D01*
X185893775Y-77245689D01*
X185899183Y-77255057D01*
X186075430Y-77593623D01*
X186080002Y-77603427D01*
X186226075Y-77956078D01*
X186229775Y-77966244D01*
X186344554Y-78330278D01*
X186347354Y-78340727D01*
X186429971Y-78713389D01*
X186431849Y-78724042D01*
X186481671Y-79102473D01*
X186482614Y-79113249D01*
X186499382Y-79497297D01*
X186499500Y-79502706D01*
X186499500Y-129497293D01*
X186499382Y-129502702D01*
X186482614Y-129886750D01*
X186481671Y-129897526D01*
X186431849Y-130275957D01*
X186429971Y-130286610D01*
X186347354Y-130659272D01*
X186344554Y-130669721D01*
X186229775Y-131033755D01*
X186226075Y-131043921D01*
X186080002Y-131396572D01*
X186075430Y-131406376D01*
X185899183Y-131744942D01*
X185893775Y-131754310D01*
X185688681Y-132076244D01*
X185682476Y-132085105D01*
X185450110Y-132387930D01*
X185443156Y-132396217D01*
X185185284Y-132677635D01*
X185177635Y-132685284D01*
X184896217Y-132943156D01*
X184887930Y-132950110D01*
X184585105Y-133182476D01*
X184576244Y-133188681D01*
X184254310Y-133393775D01*
X184244942Y-133399183D01*
X183906376Y-133575430D01*
X183896572Y-133580002D01*
X183543921Y-133726075D01*
X183533755Y-133729775D01*
X183169721Y-133844554D01*
X183159272Y-133847354D01*
X182786610Y-133929971D01*
X182775957Y-133931849D01*
X182397526Y-133981671D01*
X182386750Y-133982614D01*
X182002703Y-133999382D01*
X181997294Y-133999500D01*
X112002706Y-133999500D01*
X111997297Y-133999382D01*
X111613249Y-133982614D01*
X111602473Y-133981671D01*
X111224042Y-133931849D01*
X111213389Y-133929971D01*
X110840727Y-133847354D01*
X110830278Y-133844554D01*
X110466244Y-133729775D01*
X110456078Y-133726075D01*
X110103427Y-133580002D01*
X110093623Y-133575430D01*
X109755057Y-133399183D01*
X109745689Y-133393775D01*
X109423755Y-133188681D01*
X109414894Y-133182476D01*
X109112069Y-132950110D01*
X109103782Y-132943156D01*
X108822364Y-132685284D01*
X108814715Y-132677635D01*
X108556843Y-132396217D01*
X108549889Y-132387930D01*
X108317523Y-132085105D01*
X108311318Y-132076244D01*
X108106224Y-131754310D01*
X108100816Y-131744942D01*
X107924569Y-131406376D01*
X107919997Y-131396572D01*
X107773920Y-131043911D01*
X107770224Y-131033755D01*
X107655442Y-130669710D01*
X107652648Y-130659284D01*
X107570025Y-130286597D01*
X107568152Y-130275971D01*
X107518326Y-129897506D01*
X107517386Y-129886771D01*
X107500618Y-129502702D01*
X107500500Y-129497293D01*
X107500500Y-129378711D01*
X110149500Y-129378711D01*
X110149500Y-129621288D01*
X110181161Y-129861785D01*
X110243947Y-130096104D01*
X110336773Y-130320205D01*
X110336776Y-130320212D01*
X110458064Y-130530289D01*
X110458066Y-130530292D01*
X110458067Y-130530293D01*
X110605733Y-130722736D01*
X110605739Y-130722743D01*
X110777256Y-130894260D01*
X110777262Y-130894265D01*
X110969711Y-131041936D01*
X111179788Y-131163224D01*
X111403900Y-131256054D01*
X111638211Y-131318838D01*
X111818586Y-131342584D01*
X111878711Y-131350500D01*
X111878712Y-131350500D01*
X112121289Y-131350500D01*
X112169388Y-131344167D01*
X112361789Y-131318838D01*
X112596100Y-131256054D01*
X112820212Y-131163224D01*
X113030289Y-131041936D01*
X113222738Y-130894265D01*
X113394265Y-130722738D01*
X113541936Y-130530289D01*
X113663224Y-130320212D01*
X113756054Y-130096100D01*
X113818838Y-129861789D01*
X113850500Y-129621288D01*
X113850500Y-129378712D01*
X113850500Y-129378711D01*
X180149500Y-129378711D01*
X180149500Y-129621288D01*
X180181161Y-129861785D01*
X180243947Y-130096104D01*
X180336773Y-130320205D01*
X180336776Y-130320212D01*
X180458064Y-130530289D01*
X180458066Y-130530292D01*
X180458067Y-130530293D01*
X180605733Y-130722736D01*
X180605739Y-130722743D01*
X180777256Y-130894260D01*
X180777262Y-130894265D01*
X180969711Y-131041936D01*
X181179788Y-131163224D01*
X181403900Y-131256054D01*
X181638211Y-131318838D01*
X181818586Y-131342584D01*
X181878711Y-131350500D01*
X181878712Y-131350500D01*
X182121289Y-131350500D01*
X182169388Y-131344167D01*
X182361789Y-131318838D01*
X182596100Y-131256054D01*
X182820212Y-131163224D01*
X183030289Y-131041936D01*
X183222738Y-130894265D01*
X183394265Y-130722738D01*
X183541936Y-130530289D01*
X183663224Y-130320212D01*
X183756054Y-130096100D01*
X183818838Y-129861789D01*
X183850500Y-129621288D01*
X183850500Y-129378712D01*
X183818838Y-129138211D01*
X183756054Y-128903900D01*
X183663224Y-128679788D01*
X183541936Y-128469711D01*
X183394265Y-128277262D01*
X183394260Y-128277256D01*
X183222743Y-128105739D01*
X183222736Y-128105733D01*
X183030293Y-127958067D01*
X183030292Y-127958066D01*
X183030289Y-127958064D01*
X182820212Y-127836776D01*
X182820205Y-127836773D01*
X182596104Y-127743947D01*
X182361785Y-127681161D01*
X182121289Y-127649500D01*
X182121288Y-127649500D01*
X181878712Y-127649500D01*
X181878711Y-127649500D01*
X181638214Y-127681161D01*
X181403895Y-127743947D01*
X181179794Y-127836773D01*
X181179785Y-127836777D01*
X180969706Y-127958067D01*
X180777263Y-128105733D01*
X180777256Y-128105739D01*
X180605739Y-128277256D01*
X180605733Y-128277263D01*
X180458067Y-128469706D01*
X180336777Y-128679785D01*
X180336773Y-128679794D01*
X180243947Y-128903895D01*
X180181161Y-129138214D01*
X180149500Y-129378711D01*
X113850500Y-129378711D01*
X113818838Y-129138211D01*
X113756054Y-128903900D01*
X113663224Y-128679788D01*
X113541936Y-128469711D01*
X113394265Y-128277262D01*
X113394260Y-128277256D01*
X113222743Y-128105739D01*
X113222736Y-128105733D01*
X113030293Y-127958067D01*
X113030292Y-127958066D01*
X113030289Y-127958064D01*
X112820212Y-127836776D01*
X112820205Y-127836773D01*
X112596104Y-127743947D01*
X112361785Y-127681161D01*
X112121289Y-127649500D01*
X112121288Y-127649500D01*
X111878712Y-127649500D01*
X111878711Y-127649500D01*
X111638214Y-127681161D01*
X111403895Y-127743947D01*
X111179794Y-127836773D01*
X111179785Y-127836777D01*
X110969706Y-127958067D01*
X110777263Y-128105733D01*
X110777256Y-128105739D01*
X110605739Y-128277256D01*
X110605733Y-128277263D01*
X110458067Y-128469706D01*
X110336777Y-128679785D01*
X110336773Y-128679794D01*
X110243947Y-128903895D01*
X110181161Y-129138214D01*
X110149500Y-129378711D01*
X107500500Y-129378711D01*
X107500500Y-118519593D01*
X128632000Y-118519593D01*
X128632000Y-118705407D01*
X128646534Y-118797170D01*
X128661068Y-118888935D01*
X128661068Y-118888938D01*
X128718486Y-119065652D01*
X128718488Y-119065655D01*
X128802846Y-119231217D01*
X128912065Y-119381544D01*
X129043456Y-119512935D01*
X129193783Y-119622154D01*
X129305375Y-119679013D01*
X129359347Y-119706513D01*
X129536062Y-119763931D01*
X129536063Y-119763931D01*
X129536066Y-119763932D01*
X129719593Y-119793000D01*
X129719594Y-119793000D01*
X129905406Y-119793000D01*
X129905407Y-119793000D01*
X130088934Y-119763932D01*
X130088937Y-119763931D01*
X130088938Y-119763931D01*
X130265652Y-119706513D01*
X130265652Y-119706512D01*
X130265655Y-119706512D01*
X130431217Y-119622154D01*
X130581544Y-119512935D01*
X130712935Y-119381544D01*
X130822154Y-119231217D01*
X130906512Y-119065655D01*
X130939867Y-118963000D01*
X130963931Y-118888938D01*
X130963931Y-118888937D01*
X130963932Y-118888934D01*
X130993000Y-118705407D01*
X130993000Y-118519593D01*
X130963932Y-118336066D01*
X130963931Y-118336062D01*
X130963931Y-118336061D01*
X130906513Y-118159347D01*
X130822153Y-117993782D01*
X130802173Y-117966282D01*
X130712935Y-117843456D01*
X130581544Y-117712065D01*
X130431217Y-117602846D01*
X130377245Y-117575346D01*
X130265652Y-117518486D01*
X130088940Y-117461069D01*
X130088933Y-117461067D01*
X129934474Y-117436603D01*
X129905407Y-117432000D01*
X129719593Y-117432000D01*
X129658417Y-117441689D01*
X129536064Y-117461068D01*
X129536061Y-117461068D01*
X129359347Y-117518486D01*
X129193782Y-117602846D01*
X129108015Y-117665159D01*
X129043456Y-117712065D01*
X129043454Y-117712067D01*
X129043453Y-117712067D01*
X128912067Y-117843453D01*
X128912067Y-117843454D01*
X128912065Y-117843456D01*
X128865159Y-117908015D01*
X128802846Y-117993782D01*
X128718486Y-118159347D01*
X128661068Y-118336061D01*
X128661068Y-118336064D01*
X128644604Y-118440012D01*
X128632000Y-118519593D01*
X107500500Y-118519593D01*
X107500500Y-117344402D01*
X136812000Y-117344402D01*
X136812000Y-117580597D01*
X136848946Y-117813868D01*
X136921933Y-118038496D01*
X137010050Y-118211433D01*
X137029157Y-118248933D01*
X137167983Y-118440010D01*
X137334990Y-118607017D01*
X137526067Y-118745843D01*
X137625491Y-118796502D01*
X137736503Y-118853066D01*
X137736505Y-118853066D01*
X137736508Y-118853068D01*
X137845719Y-118888553D01*
X137961131Y-118926053D01*
X138194403Y-118963000D01*
X138194408Y-118963000D01*
X138430597Y-118963000D01*
X138663868Y-118926053D01*
X138665570Y-118925500D01*
X138888492Y-118853068D01*
X139098933Y-118745843D01*
X139290010Y-118607017D01*
X139457017Y-118440010D01*
X139595843Y-118248933D01*
X139703068Y-118038492D01*
X139776053Y-117813868D01*
X139792177Y-117712065D01*
X139813000Y-117580597D01*
X139813000Y-117344402D01*
X139809362Y-117321434D01*
X139807060Y-117306902D01*
X150624500Y-117306902D01*
X150624500Y-117543097D01*
X150661446Y-117776368D01*
X150734433Y-118000996D01*
X150801105Y-118131845D01*
X150841657Y-118211433D01*
X150980483Y-118402510D01*
X151147490Y-118569517D01*
X151338567Y-118708343D01*
X151412163Y-118745842D01*
X151549003Y-118815566D01*
X151549005Y-118815566D01*
X151549008Y-118815568D01*
X151664415Y-118853066D01*
X151773631Y-118888553D01*
X152006903Y-118925500D01*
X152006908Y-118925500D01*
X152243097Y-118925500D01*
X152476368Y-118888553D01*
X152700992Y-118815568D01*
X152911433Y-118708343D01*
X153102510Y-118569517D01*
X153179934Y-118492093D01*
X165632000Y-118492093D01*
X165632000Y-118677907D01*
X165636821Y-118708343D01*
X165661068Y-118861435D01*
X165661068Y-118861438D01*
X165718486Y-119038152D01*
X165718488Y-119038155D01*
X165802846Y-119203717D01*
X165912065Y-119354044D01*
X166043456Y-119485435D01*
X166193783Y-119594654D01*
X166247755Y-119622154D01*
X166359347Y-119679013D01*
X166536062Y-119736431D01*
X166536063Y-119736431D01*
X166536066Y-119736432D01*
X166719593Y-119765500D01*
X166719594Y-119765500D01*
X166905406Y-119765500D01*
X166905407Y-119765500D01*
X167088934Y-119736432D01*
X167088937Y-119736431D01*
X167088938Y-119736431D01*
X167265652Y-119679013D01*
X167265652Y-119679012D01*
X167265655Y-119679012D01*
X167431217Y-119594654D01*
X167581544Y-119485435D01*
X167712935Y-119354044D01*
X167822154Y-119203717D01*
X167906512Y-119038155D01*
X167943116Y-118925500D01*
X167963931Y-118861438D01*
X167963931Y-118861437D01*
X167963932Y-118861434D01*
X167993000Y-118677907D01*
X167993000Y-118492093D01*
X167963932Y-118308566D01*
X167963931Y-118308562D01*
X167963931Y-118308561D01*
X167906513Y-118131847D01*
X167822153Y-117966282D01*
X167712935Y-117815956D01*
X167581544Y-117684565D01*
X167431217Y-117575346D01*
X167319627Y-117518488D01*
X167265652Y-117490986D01*
X167088937Y-117433568D01*
X166951288Y-117411767D01*
X166905407Y-117404500D01*
X166719593Y-117404500D01*
X166658417Y-117414189D01*
X166536064Y-117433568D01*
X166536061Y-117433568D01*
X166359347Y-117490986D01*
X166193782Y-117575346D01*
X166108015Y-117637659D01*
X166043456Y-117684565D01*
X166043454Y-117684567D01*
X166043453Y-117684567D01*
X165912067Y-117815953D01*
X165912067Y-117815954D01*
X165912065Y-117815956D01*
X165892087Y-117843454D01*
X165802846Y-117966282D01*
X165718486Y-118131847D01*
X165661068Y-118308561D01*
X165661068Y-118308564D01*
X165646188Y-118402511D01*
X165632000Y-118492093D01*
X153179934Y-118492093D01*
X153269517Y-118402510D01*
X153408343Y-118211433D01*
X153515568Y-118000992D01*
X153588553Y-117776368D01*
X153603093Y-117684565D01*
X153625500Y-117543097D01*
X153625500Y-117306902D01*
X153588553Y-117073631D01*
X153554689Y-116969412D01*
X153515568Y-116849008D01*
X153515566Y-116849005D01*
X153515566Y-116849003D01*
X153427450Y-116676067D01*
X153408343Y-116638567D01*
X153269517Y-116447490D01*
X153102510Y-116280483D01*
X152911433Y-116141657D01*
X152700996Y-116034433D01*
X152476368Y-115961446D01*
X152243097Y-115924500D01*
X152243092Y-115924500D01*
X152006908Y-115924500D01*
X152006903Y-115924500D01*
X151773631Y-115961446D01*
X151549003Y-116034433D01*
X151338566Y-116141657D01*
X151229550Y-116220862D01*
X151147490Y-116280483D01*
X151147488Y-116280485D01*
X151147487Y-116280485D01*
X150980485Y-116447487D01*
X150980485Y-116447488D01*
X150980483Y-116447490D01*
X150953240Y-116484987D01*
X150841657Y-116638566D01*
X150734433Y-116849003D01*
X150661446Y-117073631D01*
X150624500Y-117306902D01*
X139807060Y-117306902D01*
X139776053Y-117111131D01*
X139703066Y-116886503D01*
X139595842Y-116676066D01*
X139457017Y-116484990D01*
X139290010Y-116317983D01*
X139098933Y-116179157D01*
X138888496Y-116071933D01*
X138663868Y-115998946D01*
X138430597Y-115962000D01*
X138430592Y-115962000D01*
X138194408Y-115962000D01*
X138194403Y-115962000D01*
X137961131Y-115998946D01*
X137736503Y-116071933D01*
X137526066Y-116179157D01*
X137417050Y-116258362D01*
X137334990Y-116317983D01*
X137334988Y-116317985D01*
X137334987Y-116317985D01*
X137167985Y-116484987D01*
X137167985Y-116484988D01*
X137167983Y-116484990D01*
X137108362Y-116567050D01*
X137029157Y-116676066D01*
X136921933Y-116886503D01*
X136848946Y-117111131D01*
X136812000Y-117344402D01*
X107500500Y-117344402D01*
X107500500Y-113009635D01*
X128207000Y-113009635D01*
X128207000Y-115315370D01*
X128207001Y-115315376D01*
X128213408Y-115374983D01*
X128263702Y-115509828D01*
X128263706Y-115509835D01*
X128349952Y-115625044D01*
X128349955Y-115625047D01*
X128465164Y-115711293D01*
X128465171Y-115711297D01*
X128600017Y-115761591D01*
X128600016Y-115761591D01*
X128606944Y-115762335D01*
X128659627Y-115768000D01*
X130965372Y-115767999D01*
X131024983Y-115761591D01*
X131159831Y-115711296D01*
X131275046Y-115625046D01*
X131361296Y-115509831D01*
X131411591Y-115374983D01*
X131418000Y-115315373D01*
X131417999Y-113844402D01*
X144312000Y-113844402D01*
X144312000Y-114080597D01*
X144348946Y-114313868D01*
X144421933Y-114538496D01*
X144510050Y-114711433D01*
X144529157Y-114748933D01*
X144667983Y-114940010D01*
X144834990Y-115107017D01*
X145026067Y-115245843D01*
X145108575Y-115287883D01*
X145236503Y-115353066D01*
X145236505Y-115353066D01*
X145236508Y-115353068D01*
X145345719Y-115388553D01*
X145461131Y-115426053D01*
X145694403Y-115463000D01*
X145694408Y-115463000D01*
X145930597Y-115463000D01*
X146163868Y-115426053D01*
X146165570Y-115425500D01*
X146388492Y-115353068D01*
X146598933Y-115245843D01*
X146790010Y-115107017D01*
X146957017Y-114940010D01*
X147095843Y-114748933D01*
X147203068Y-114538492D01*
X147276053Y-114313868D01*
X147281992Y-114276368D01*
X147313000Y-114080597D01*
X147313000Y-113844402D01*
X147309362Y-113821434D01*
X147307060Y-113806902D01*
X158124500Y-113806902D01*
X158124500Y-114043097D01*
X158161446Y-114276368D01*
X158234433Y-114500996D01*
X158341657Y-114711433D01*
X158480483Y-114902510D01*
X158647490Y-115069517D01*
X158838567Y-115208343D01*
X158912163Y-115245842D01*
X159049003Y-115315566D01*
X159049005Y-115315566D01*
X159049008Y-115315568D01*
X159147229Y-115347482D01*
X159273631Y-115388553D01*
X159506903Y-115425500D01*
X159506908Y-115425500D01*
X159743097Y-115425500D01*
X159976368Y-115388553D01*
X160018135Y-115374982D01*
X160200992Y-115315568D01*
X160411433Y-115208343D01*
X160602510Y-115069517D01*
X160769517Y-114902510D01*
X160908343Y-114711433D01*
X161015568Y-114500992D01*
X161088553Y-114276368D01*
X161125500Y-114043097D01*
X161125500Y-113806902D01*
X161088553Y-113573631D01*
X161054689Y-113469412D01*
X161015568Y-113349008D01*
X161015566Y-113349005D01*
X161015566Y-113349003D01*
X160927450Y-113176067D01*
X160908343Y-113138567D01*
X160794688Y-112982135D01*
X165207000Y-112982135D01*
X165207000Y-115287870D01*
X165207001Y-115287876D01*
X165213408Y-115347483D01*
X165263702Y-115482328D01*
X165263706Y-115482335D01*
X165349952Y-115597544D01*
X165349955Y-115597547D01*
X165465164Y-115683793D01*
X165465171Y-115683797D01*
X165600017Y-115734091D01*
X165600016Y-115734091D01*
X165606944Y-115734835D01*
X165659627Y-115740500D01*
X167965372Y-115740499D01*
X168024983Y-115734091D01*
X168159831Y-115683796D01*
X168275046Y-115597546D01*
X168361296Y-115482331D01*
X168411591Y-115347483D01*
X168418000Y-115287873D01*
X168417999Y-112982128D01*
X168411591Y-112922517D01*
X168372602Y-112817983D01*
X168361297Y-112787671D01*
X168361293Y-112787664D01*
X168275047Y-112672455D01*
X168275044Y-112672452D01*
X168159835Y-112586206D01*
X168159828Y-112586202D01*
X168024982Y-112535908D01*
X168024983Y-112535908D01*
X167965383Y-112529501D01*
X167965381Y-112529500D01*
X167965373Y-112529500D01*
X167965364Y-112529500D01*
X165659629Y-112529500D01*
X165659623Y-112529501D01*
X165600016Y-112535908D01*
X165465171Y-112586202D01*
X165465164Y-112586206D01*
X165349955Y-112672452D01*
X165349952Y-112672455D01*
X165263706Y-112787664D01*
X165263702Y-112787671D01*
X165213408Y-112922517D01*
X165210452Y-112950016D01*
X165207001Y-112982123D01*
X165207000Y-112982135D01*
X160794688Y-112982135D01*
X160769517Y-112947490D01*
X160602510Y-112780483D01*
X160411433Y-112641657D01*
X160200996Y-112534433D01*
X159976368Y-112461446D01*
X159743097Y-112424500D01*
X159743092Y-112424500D01*
X159506908Y-112424500D01*
X159506903Y-112424500D01*
X159273631Y-112461446D01*
X159049003Y-112534433D01*
X158838566Y-112641657D01*
X158758331Y-112699952D01*
X158647490Y-112780483D01*
X158647488Y-112780485D01*
X158647487Y-112780485D01*
X158480485Y-112947487D01*
X158480485Y-112947488D01*
X158480483Y-112947490D01*
X158455312Y-112982135D01*
X158341657Y-113138566D01*
X158234433Y-113349003D01*
X158161446Y-113573631D01*
X158124500Y-113806902D01*
X147307060Y-113806902D01*
X147276053Y-113611131D01*
X147203066Y-113386503D01*
X147095842Y-113176066D01*
X146957017Y-112984990D01*
X146790010Y-112817983D01*
X146598933Y-112679157D01*
X146585774Y-112672452D01*
X146388496Y-112571933D01*
X146163868Y-112498946D01*
X145930597Y-112462000D01*
X145930592Y-112462000D01*
X145694408Y-112462000D01*
X145694403Y-112462000D01*
X145461131Y-112498946D01*
X145236503Y-112571933D01*
X145026066Y-112679157D01*
X144917050Y-112758362D01*
X144834990Y-112817983D01*
X144834988Y-112817985D01*
X144834987Y-112817985D01*
X144667985Y-112984987D01*
X144667985Y-112984988D01*
X144667983Y-112984990D01*
X144619521Y-113051692D01*
X144529157Y-113176066D01*
X144421933Y-113386503D01*
X144348946Y-113611131D01*
X144312000Y-113844402D01*
X131417999Y-113844402D01*
X131417999Y-113009628D01*
X131411591Y-112950017D01*
X131410648Y-112947490D01*
X131361297Y-112815171D01*
X131361293Y-112815164D01*
X131275047Y-112699955D01*
X131275044Y-112699952D01*
X131159835Y-112613706D01*
X131159828Y-112613702D01*
X131024982Y-112563408D01*
X131024983Y-112563408D01*
X130965383Y-112557001D01*
X130965381Y-112557000D01*
X130965373Y-112557000D01*
X130965364Y-112557000D01*
X128659629Y-112557000D01*
X128659623Y-112557001D01*
X128600016Y-112563408D01*
X128465171Y-112613702D01*
X128465164Y-112613706D01*
X128349955Y-112699952D01*
X128349952Y-112699955D01*
X128263706Y-112815164D01*
X128263702Y-112815171D01*
X128213408Y-112950017D01*
X128207001Y-113009616D01*
X128207001Y-113009623D01*
X128207000Y-113009635D01*
X107500500Y-113009635D01*
X107500500Y-110344402D01*
X136812000Y-110344402D01*
X136812000Y-110580597D01*
X136848946Y-110813868D01*
X136921933Y-111038496D01*
X137010050Y-111211433D01*
X137029157Y-111248933D01*
X137167983Y-111440010D01*
X137334990Y-111607017D01*
X137526067Y-111745843D01*
X137625491Y-111796502D01*
X137736503Y-111853066D01*
X137736505Y-111853066D01*
X137736508Y-111853068D01*
X137845719Y-111888553D01*
X137961131Y-111926053D01*
X138194403Y-111963000D01*
X138194408Y-111963000D01*
X138430597Y-111963000D01*
X138663868Y-111926053D01*
X138665570Y-111925500D01*
X138888492Y-111853068D01*
X139098933Y-111745843D01*
X139290010Y-111607017D01*
X139457017Y-111440010D01*
X139595843Y-111248933D01*
X139703068Y-111038492D01*
X139776053Y-110813868D01*
X139781992Y-110776368D01*
X139813000Y-110580597D01*
X139813000Y-110344402D01*
X139809362Y-110321434D01*
X139807060Y-110306902D01*
X150624500Y-110306902D01*
X150624500Y-110543097D01*
X150661446Y-110776368D01*
X150734433Y-111000996D01*
X150841657Y-111211433D01*
X150980483Y-111402510D01*
X151147490Y-111569517D01*
X151338567Y-111708343D01*
X151412163Y-111745842D01*
X151549003Y-111815566D01*
X151549005Y-111815566D01*
X151549008Y-111815568D01*
X151664415Y-111853066D01*
X151773631Y-111888553D01*
X152006903Y-111925500D01*
X152006908Y-111925500D01*
X152243097Y-111925500D01*
X152476368Y-111888553D01*
X152700992Y-111815568D01*
X152911433Y-111708343D01*
X153102510Y-111569517D01*
X153269517Y-111402510D01*
X153408343Y-111211433D01*
X153515568Y-111000992D01*
X153588553Y-110776368D01*
X153625500Y-110543097D01*
X153625500Y-110306902D01*
X153588553Y-110073631D01*
X153554689Y-109969412D01*
X153515568Y-109849008D01*
X153515566Y-109849005D01*
X153515566Y-109849003D01*
X153427450Y-109676067D01*
X153408343Y-109638567D01*
X153269517Y-109447490D01*
X153102510Y-109280483D01*
X152911433Y-109141657D01*
X152700996Y-109034433D01*
X152476368Y-108961446D01*
X152243097Y-108924500D01*
X152243092Y-108924500D01*
X152006908Y-108924500D01*
X152006903Y-108924500D01*
X151773631Y-108961446D01*
X151549003Y-109034433D01*
X151338566Y-109141657D01*
X151278020Y-109185647D01*
X151147490Y-109280483D01*
X151147488Y-109280485D01*
X151147487Y-109280485D01*
X150980485Y-109447487D01*
X150980485Y-109447488D01*
X150980483Y-109447490D01*
X150953240Y-109484987D01*
X150841657Y-109638566D01*
X150734433Y-109849003D01*
X150661446Y-110073631D01*
X150624500Y-110306902D01*
X139807060Y-110306902D01*
X139776053Y-110111131D01*
X139703066Y-109886503D01*
X139595842Y-109676066D01*
X139457017Y-109484990D01*
X139290010Y-109317983D01*
X139098933Y-109179157D01*
X139056857Y-109157718D01*
X138888496Y-109071933D01*
X138663868Y-108998946D01*
X138430597Y-108962000D01*
X138430592Y-108962000D01*
X138194408Y-108962000D01*
X138194403Y-108962000D01*
X137961131Y-108998946D01*
X137736503Y-109071933D01*
X137526066Y-109179157D01*
X137417050Y-109258362D01*
X137334990Y-109317983D01*
X137334988Y-109317985D01*
X137334987Y-109317985D01*
X137167985Y-109484987D01*
X137167985Y-109484988D01*
X137167983Y-109484990D01*
X137108362Y-109567050D01*
X137029157Y-109676066D01*
X136921933Y-109886503D01*
X136848946Y-110111131D01*
X136812000Y-110344402D01*
X107500500Y-110344402D01*
X107500500Y-107686138D01*
X128207000Y-107686138D01*
X128207000Y-107938861D01*
X128246532Y-108188456D01*
X128324625Y-108428802D01*
X128425207Y-108626203D01*
X128439353Y-108653966D01*
X128587893Y-108858413D01*
X128766587Y-109037107D01*
X128971034Y-109185647D01*
X129077416Y-109239851D01*
X129196197Y-109300374D01*
X129196199Y-109300374D01*
X129196202Y-109300376D01*
X129436544Y-109378468D01*
X129565138Y-109398835D01*
X129686139Y-109418000D01*
X129686144Y-109418000D01*
X129938861Y-109418000D01*
X130049165Y-109400528D01*
X130188456Y-109378468D01*
X130428798Y-109300376D01*
X130653966Y-109185647D01*
X130858413Y-109037107D01*
X131037107Y-108858413D01*
X131185647Y-108653966D01*
X131300376Y-108428798D01*
X131378468Y-108188456D01*
X131400528Y-108049165D01*
X131418000Y-107938861D01*
X131418000Y-107686141D01*
X131415952Y-107673212D01*
X131415952Y-107673210D01*
X131413650Y-107658678D01*
X165207500Y-107658678D01*
X165207500Y-107911321D01*
X165247019Y-108160838D01*
X165325089Y-108401110D01*
X165439781Y-108626203D01*
X165514669Y-108729276D01*
X165514669Y-108729277D01*
X166000393Y-108243552D01*
X166090122Y-108377841D01*
X166219659Y-108507378D01*
X166353946Y-108597105D01*
X165868221Y-109082829D01*
X165971296Y-109157718D01*
X166196389Y-109272410D01*
X166436661Y-109350480D01*
X166686179Y-109390000D01*
X166938821Y-109390000D01*
X167188338Y-109350480D01*
X167428610Y-109272410D01*
X167653702Y-109157719D01*
X167756776Y-109082829D01*
X167756777Y-109082829D01*
X167271053Y-108597105D01*
X167405341Y-108507378D01*
X167534878Y-108377841D01*
X167624605Y-108243553D01*
X168110329Y-108729277D01*
X168110329Y-108729276D01*
X168185219Y-108626202D01*
X168299910Y-108401110D01*
X168377980Y-108160838D01*
X168417500Y-107911321D01*
X168417500Y-107658678D01*
X168377980Y-107409161D01*
X168299910Y-107168889D01*
X168185218Y-106943796D01*
X168110329Y-106840722D01*
X168110329Y-106840721D01*
X167624605Y-107326445D01*
X167534878Y-107192159D01*
X167405341Y-107062622D01*
X167271051Y-106972893D01*
X167756777Y-106487169D01*
X167653703Y-106412281D01*
X167428610Y-106297589D01*
X167188338Y-106219519D01*
X166938821Y-106180000D01*
X166686179Y-106180000D01*
X166436661Y-106219519D01*
X166196389Y-106297589D01*
X165971293Y-106412283D01*
X165868222Y-106487168D01*
X165868221Y-106487169D01*
X166353946Y-106972894D01*
X166219659Y-107062622D01*
X166090122Y-107192159D01*
X166000394Y-107326446D01*
X165514669Y-106840721D01*
X165514668Y-106840722D01*
X165439783Y-106943793D01*
X165325089Y-107168889D01*
X165247019Y-107409161D01*
X165207500Y-107658678D01*
X131413650Y-107658678D01*
X131401891Y-107584439D01*
X131378468Y-107436544D01*
X131300376Y-107196202D01*
X131300374Y-107196199D01*
X131300374Y-107196197D01*
X131185646Y-106971033D01*
X131165855Y-106943793D01*
X131037107Y-106766587D01*
X130858413Y-106587893D01*
X130653966Y-106439353D01*
X130428802Y-106324625D01*
X130188456Y-106246532D01*
X129938861Y-106207000D01*
X129938856Y-106207000D01*
X129686144Y-106207000D01*
X129686139Y-106207000D01*
X129436543Y-106246532D01*
X129196197Y-106324625D01*
X128971033Y-106439353D01*
X128905221Y-106487169D01*
X128766587Y-106587893D01*
X128766585Y-106587895D01*
X128766584Y-106587895D01*
X128587895Y-106766584D01*
X128587895Y-106766585D01*
X128587893Y-106766587D01*
X128534031Y-106840721D01*
X128439353Y-106971033D01*
X128324625Y-107196197D01*
X128246532Y-107436543D01*
X128207000Y-107686138D01*
X107500500Y-107686138D01*
X107500500Y-92914655D01*
X136812500Y-92914655D01*
X136812500Y-93712500D01*
X137712499Y-93712500D01*
X137687479Y-93772902D01*
X137662500Y-93898481D01*
X137662500Y-94026519D01*
X137687479Y-94152098D01*
X137712499Y-94212500D01*
X136812500Y-94212500D01*
X136812500Y-95010344D01*
X136818901Y-95069872D01*
X136818903Y-95069879D01*
X136869145Y-95204586D01*
X136869149Y-95204593D01*
X136955309Y-95319687D01*
X136955312Y-95319690D01*
X137070406Y-95405850D01*
X137070413Y-95405854D01*
X137205120Y-95456096D01*
X137205127Y-95456098D01*
X137264655Y-95462499D01*
X137264672Y-95462500D01*
X138062500Y-95462500D01*
X138062500Y-94562501D01*
X138122902Y-94587521D01*
X138248481Y-94612500D01*
X138376519Y-94612500D01*
X138502098Y-94587521D01*
X138562500Y-94562501D01*
X138562500Y-95462500D01*
X139360328Y-95462500D01*
X139360344Y-95462499D01*
X139419872Y-95456098D01*
X139419879Y-95456096D01*
X139554586Y-95405854D01*
X139554593Y-95405850D01*
X139669687Y-95319690D01*
X139669690Y-95319687D01*
X139755850Y-95204593D01*
X139755854Y-95204586D01*
X139806096Y-95069879D01*
X139806098Y-95069872D01*
X139812499Y-95010344D01*
X139812500Y-95010327D01*
X139812500Y-94212500D01*
X138912501Y-94212500D01*
X138937521Y-94152098D01*
X138962500Y-94026519D01*
X138962500Y-93898481D01*
X138951743Y-93844402D01*
X144312000Y-93844402D01*
X144312000Y-94080597D01*
X144348946Y-94313868D01*
X144421933Y-94538496D01*
X144510050Y-94711433D01*
X144529157Y-94748933D01*
X144667983Y-94940010D01*
X144834990Y-95107017D01*
X145026067Y-95245843D01*
X145097396Y-95282187D01*
X145236503Y-95353066D01*
X145236505Y-95353066D01*
X145236508Y-95353068D01*
X145345719Y-95388553D01*
X145461131Y-95426053D01*
X145694403Y-95463000D01*
X145694408Y-95463000D01*
X145930597Y-95463000D01*
X146163868Y-95426053D01*
X146186818Y-95418596D01*
X146388492Y-95353068D01*
X146598933Y-95245843D01*
X146790010Y-95107017D01*
X146957017Y-94940010D01*
X147095843Y-94748933D01*
X147203068Y-94538492D01*
X147276053Y-94313868D01*
X147292108Y-94212500D01*
X147309255Y-94104240D01*
X147309255Y-94104239D01*
X147313000Y-94080595D01*
X147313000Y-93844402D01*
X147309362Y-93821434D01*
X147276053Y-93611131D01*
X147226171Y-93457612D01*
X147203068Y-93386508D01*
X147203066Y-93386505D01*
X147203066Y-93386503D01*
X147095842Y-93176066D01*
X146957017Y-92984990D01*
X146849182Y-92877155D01*
X150625000Y-92877155D01*
X150625000Y-93675000D01*
X151524999Y-93675000D01*
X151499979Y-93735402D01*
X151475000Y-93860981D01*
X151475000Y-93989019D01*
X151499979Y-94114598D01*
X151524999Y-94175000D01*
X150625000Y-94175000D01*
X150625000Y-94972844D01*
X150631401Y-95032372D01*
X150631403Y-95032379D01*
X150681645Y-95167086D01*
X150681649Y-95167093D01*
X150767809Y-95282187D01*
X150767812Y-95282190D01*
X150882906Y-95368350D01*
X150882913Y-95368354D01*
X151017620Y-95418596D01*
X151017627Y-95418598D01*
X151077155Y-95424999D01*
X151077172Y-95425000D01*
X151875000Y-95425000D01*
X151875000Y-94525001D01*
X151935402Y-94550021D01*
X152060981Y-94575000D01*
X152189019Y-94575000D01*
X152314598Y-94550021D01*
X152375000Y-94525001D01*
X152375000Y-95425000D01*
X153172828Y-95425000D01*
X153172844Y-95424999D01*
X153232372Y-95418598D01*
X153232379Y-95418596D01*
X153367086Y-95368354D01*
X153367093Y-95368350D01*
X153482187Y-95282190D01*
X153482190Y-95282187D01*
X153568350Y-95167093D01*
X153568354Y-95167086D01*
X153618596Y-95032379D01*
X153618598Y-95032372D01*
X153624999Y-94972844D01*
X153625000Y-94972827D01*
X153625000Y-94175000D01*
X152725001Y-94175000D01*
X152750021Y-94114598D01*
X152775000Y-93989019D01*
X152775000Y-93860981D01*
X152764243Y-93806902D01*
X158124500Y-93806902D01*
X158124500Y-94043097D01*
X158161446Y-94276368D01*
X158234433Y-94500996D01*
X158291248Y-94612500D01*
X158341657Y-94711433D01*
X158480483Y-94902510D01*
X158647490Y-95069517D01*
X158838567Y-95208343D01*
X158912163Y-95245842D01*
X159049003Y-95315566D01*
X159049005Y-95315566D01*
X159049008Y-95315568D01*
X159164415Y-95353066D01*
X159273631Y-95388553D01*
X159506903Y-95425500D01*
X159506908Y-95425500D01*
X159743097Y-95425500D01*
X159976368Y-95388553D01*
X160200992Y-95315568D01*
X160411433Y-95208343D01*
X160602510Y-95069517D01*
X160769517Y-94902510D01*
X160908343Y-94711433D01*
X161015568Y-94500992D01*
X161088553Y-94276368D01*
X161104608Y-94175000D01*
X161125500Y-94043097D01*
X161125500Y-93806902D01*
X161088553Y-93573631D01*
X161038671Y-93420112D01*
X161015568Y-93349008D01*
X161015566Y-93349005D01*
X161015566Y-93349003D01*
X160927450Y-93176067D01*
X160908343Y-93138567D01*
X160769517Y-92947490D01*
X160602510Y-92780483D01*
X160411433Y-92641657D01*
X160200996Y-92534433D01*
X159976368Y-92461446D01*
X159743097Y-92424500D01*
X159743092Y-92424500D01*
X159506908Y-92424500D01*
X159506903Y-92424500D01*
X159273631Y-92461446D01*
X159049003Y-92534433D01*
X158838566Y-92641657D01*
X158781783Y-92682913D01*
X158647490Y-92780483D01*
X158647488Y-92780485D01*
X158647487Y-92780485D01*
X158480485Y-92947487D01*
X158480485Y-92947488D01*
X158480483Y-92947490D01*
X158453240Y-92984987D01*
X158341657Y-93138566D01*
X158234433Y-93349003D01*
X158161446Y-93573631D01*
X158124500Y-93806902D01*
X152764243Y-93806902D01*
X152750021Y-93735402D01*
X152725001Y-93675000D01*
X153625000Y-93675000D01*
X153625000Y-92877172D01*
X153624999Y-92877155D01*
X153618598Y-92817627D01*
X153618596Y-92817620D01*
X153568354Y-92682913D01*
X153568350Y-92682906D01*
X153482190Y-92567812D01*
X153482187Y-92567809D01*
X153367093Y-92481649D01*
X153367086Y-92481645D01*
X153232379Y-92431403D01*
X153232372Y-92431401D01*
X153172844Y-92425000D01*
X152375000Y-92425000D01*
X152375000Y-93324998D01*
X152314598Y-93299979D01*
X152189019Y-93275000D01*
X152060981Y-93275000D01*
X151935402Y-93299979D01*
X151875000Y-93324998D01*
X151875000Y-92425000D01*
X151077155Y-92425000D01*
X151017627Y-92431401D01*
X151017620Y-92431403D01*
X150882913Y-92481645D01*
X150882906Y-92481649D01*
X150767812Y-92567809D01*
X150767809Y-92567812D01*
X150681649Y-92682906D01*
X150681645Y-92682913D01*
X150631403Y-92817620D01*
X150631401Y-92817627D01*
X150625000Y-92877155D01*
X146849182Y-92877155D01*
X146790010Y-92817983D01*
X146598933Y-92679157D01*
X146388496Y-92571933D01*
X146163868Y-92498946D01*
X145930597Y-92462000D01*
X145930592Y-92462000D01*
X145694408Y-92462000D01*
X145694403Y-92462000D01*
X145461131Y-92498946D01*
X145236503Y-92571933D01*
X145026066Y-92679157D01*
X144969283Y-92720413D01*
X144834990Y-92817983D01*
X144834988Y-92817985D01*
X144834987Y-92817985D01*
X144667985Y-92984987D01*
X144667985Y-92984988D01*
X144667983Y-92984990D01*
X144608362Y-93067050D01*
X144529157Y-93176066D01*
X144421933Y-93386503D01*
X144348946Y-93611131D01*
X144312000Y-93844402D01*
X138951743Y-93844402D01*
X138937521Y-93772902D01*
X138912501Y-93712500D01*
X139812500Y-93712500D01*
X139812500Y-92914672D01*
X139812499Y-92914655D01*
X139806098Y-92855127D01*
X139806096Y-92855120D01*
X139755854Y-92720413D01*
X139755850Y-92720406D01*
X139669690Y-92605312D01*
X139669687Y-92605309D01*
X139554593Y-92519149D01*
X139554586Y-92519145D01*
X139419879Y-92468903D01*
X139419872Y-92468901D01*
X139360344Y-92462500D01*
X138562500Y-92462500D01*
X138562500Y-93362498D01*
X138502098Y-93337479D01*
X138376519Y-93312500D01*
X138248481Y-93312500D01*
X138122902Y-93337479D01*
X138062500Y-93362498D01*
X138062500Y-92462500D01*
X137264655Y-92462500D01*
X137205127Y-92468901D01*
X137205120Y-92468903D01*
X137070413Y-92519145D01*
X137070406Y-92519149D01*
X136955312Y-92605309D01*
X136955309Y-92605312D01*
X136869149Y-92720406D01*
X136869145Y-92720413D01*
X136818903Y-92855120D01*
X136818901Y-92855127D01*
X136812500Y-92914655D01*
X107500500Y-92914655D01*
X107500500Y-85008638D01*
X143432000Y-85008638D01*
X143432000Y-85261361D01*
X143471532Y-85510956D01*
X143549625Y-85751302D01*
X143627453Y-85904046D01*
X143664353Y-85976466D01*
X143812893Y-86180913D01*
X143991587Y-86359607D01*
X144196034Y-86508147D01*
X144302416Y-86562351D01*
X144421197Y-86622874D01*
X144421199Y-86622874D01*
X144421202Y-86622876D01*
X144661544Y-86700968D01*
X144790138Y-86721335D01*
X144911139Y-86740500D01*
X144911144Y-86740500D01*
X145163861Y-86740500D01*
X145274165Y-86723028D01*
X145413456Y-86700968D01*
X145653798Y-86622876D01*
X145878966Y-86508147D01*
X146083413Y-86359607D01*
X146262107Y-86180913D01*
X146410647Y-85976466D01*
X146525376Y-85751298D01*
X146603468Y-85510956D01*
X146625528Y-85371665D01*
X146643000Y-85261361D01*
X146643000Y-85008638D01*
X146619230Y-84858561D01*
X146603468Y-84759044D01*
X146525376Y-84518702D01*
X146525374Y-84518699D01*
X146525374Y-84518697D01*
X146410646Y-84293533D01*
X146262107Y-84089087D01*
X146155155Y-83982135D01*
X149782000Y-83982135D01*
X149782000Y-86287870D01*
X149782001Y-86287876D01*
X149788408Y-86347483D01*
X149838702Y-86482328D01*
X149838706Y-86482335D01*
X149924952Y-86597544D01*
X149924955Y-86597547D01*
X150040164Y-86683793D01*
X150040171Y-86683797D01*
X150175017Y-86734091D01*
X150175016Y-86734091D01*
X150181944Y-86734835D01*
X150234627Y-86740500D01*
X152540372Y-86740499D01*
X152599983Y-86734091D01*
X152734831Y-86683796D01*
X152850046Y-86597546D01*
X152936296Y-86482331D01*
X152986591Y-86347483D01*
X152993000Y-86287873D01*
X152992999Y-85042093D01*
X154657000Y-85042093D01*
X154657000Y-85227906D01*
X154686068Y-85411435D01*
X154686068Y-85411438D01*
X154743486Y-85588152D01*
X154743488Y-85588155D01*
X154827846Y-85753717D01*
X154937065Y-85904044D01*
X155068456Y-86035435D01*
X155218783Y-86144654D01*
X155384345Y-86229012D01*
X155384347Y-86229013D01*
X155561062Y-86286431D01*
X155561063Y-86286431D01*
X155561066Y-86286432D01*
X155744593Y-86315500D01*
X155744594Y-86315500D01*
X155930406Y-86315500D01*
X155930407Y-86315500D01*
X156113934Y-86286432D01*
X156113937Y-86286431D01*
X156113938Y-86286431D01*
X156290652Y-86229013D01*
X156290652Y-86229012D01*
X156290655Y-86229012D01*
X156456217Y-86144654D01*
X156606544Y-86035435D01*
X156737935Y-85904044D01*
X156847154Y-85753717D01*
X156931512Y-85588155D01*
X156931513Y-85588152D01*
X156988931Y-85411438D01*
X156988931Y-85411437D01*
X156988932Y-85411434D01*
X157018000Y-85227907D01*
X157018000Y-85042093D01*
X156988932Y-84858566D01*
X156988931Y-84858562D01*
X156988931Y-84858561D01*
X156931513Y-84681847D01*
X156931512Y-84681845D01*
X156847154Y-84516283D01*
X156737935Y-84365956D01*
X156606544Y-84234565D01*
X156456217Y-84125346D01*
X156385049Y-84089084D01*
X156290652Y-84040986D01*
X156113937Y-83983568D01*
X155976288Y-83961767D01*
X155930407Y-83954500D01*
X155744593Y-83954500D01*
X155683417Y-83964189D01*
X155561064Y-83983568D01*
X155561061Y-83983568D01*
X155384347Y-84040986D01*
X155218782Y-84125346D01*
X155133015Y-84187659D01*
X155068456Y-84234565D01*
X155068454Y-84234567D01*
X155068453Y-84234567D01*
X154937067Y-84365953D01*
X154937067Y-84365954D01*
X154937065Y-84365956D01*
X154890159Y-84430515D01*
X154827846Y-84516282D01*
X154743486Y-84681847D01*
X154686068Y-84858561D01*
X154686068Y-84858564D01*
X154657000Y-85042093D01*
X152992999Y-85042093D01*
X152992999Y-83982128D01*
X152986591Y-83922517D01*
X152936296Y-83787669D01*
X152936295Y-83787668D01*
X152936293Y-83787664D01*
X152850047Y-83672455D01*
X152850044Y-83672452D01*
X152734835Y-83586206D01*
X152734828Y-83586202D01*
X152599982Y-83535908D01*
X152599983Y-83535908D01*
X152540383Y-83529501D01*
X152540381Y-83529500D01*
X152540373Y-83529500D01*
X152540364Y-83529500D01*
X150234629Y-83529500D01*
X150234623Y-83529501D01*
X150175016Y-83535908D01*
X150040171Y-83586202D01*
X150040164Y-83586206D01*
X149924955Y-83672452D01*
X149924952Y-83672455D01*
X149838706Y-83787664D01*
X149838702Y-83787671D01*
X149788408Y-83922517D01*
X149784970Y-83954500D01*
X149782001Y-83982123D01*
X149782000Y-83982135D01*
X146155155Y-83982135D01*
X146083413Y-83910393D01*
X145878966Y-83761853D01*
X145653802Y-83647125D01*
X145413456Y-83569032D01*
X145163861Y-83529500D01*
X145163856Y-83529500D01*
X144911144Y-83529500D01*
X144911139Y-83529500D01*
X144661543Y-83569032D01*
X144421197Y-83647125D01*
X144196033Y-83761853D01*
X144079389Y-83846600D01*
X143991587Y-83910393D01*
X143991585Y-83910395D01*
X143991584Y-83910395D01*
X143812895Y-84089084D01*
X143812895Y-84089085D01*
X143812893Y-84089087D01*
X143749100Y-84176889D01*
X143664353Y-84293533D01*
X143549625Y-84518697D01*
X143471532Y-84759043D01*
X143432000Y-85008638D01*
X107500500Y-85008638D01*
X107500500Y-79502706D01*
X107500618Y-79497297D01*
X107505796Y-79378711D01*
X110149500Y-79378711D01*
X110149500Y-79621288D01*
X110181161Y-79861785D01*
X110243947Y-80096104D01*
X110336773Y-80320205D01*
X110336776Y-80320212D01*
X110458064Y-80530289D01*
X110458066Y-80530292D01*
X110458067Y-80530293D01*
X110605733Y-80722736D01*
X110605739Y-80722743D01*
X110777256Y-80894260D01*
X110777262Y-80894265D01*
X110969711Y-81041936D01*
X111179788Y-81163224D01*
X111403900Y-81256054D01*
X111638211Y-81318838D01*
X111818586Y-81342584D01*
X111878711Y-81350500D01*
X111878712Y-81350500D01*
X112121289Y-81350500D01*
X112169388Y-81344167D01*
X112361789Y-81318838D01*
X112596100Y-81256054D01*
X112820212Y-81163224D01*
X113030289Y-81041936D01*
X113222738Y-80894265D01*
X113394265Y-80722738D01*
X113541936Y-80530289D01*
X113663224Y-80320212D01*
X113756054Y-80096100D01*
X113818838Y-79861789D01*
X113850500Y-79621288D01*
X113850500Y-79378712D01*
X113850500Y-79378711D01*
X180149500Y-79378711D01*
X180149500Y-79621288D01*
X180181161Y-79861785D01*
X180243947Y-80096104D01*
X180336773Y-80320205D01*
X180336776Y-80320212D01*
X180458064Y-80530289D01*
X180458066Y-80530292D01*
X180458067Y-80530293D01*
X180605733Y-80722736D01*
X180605739Y-80722743D01*
X180777256Y-80894260D01*
X180777262Y-80894265D01*
X180969711Y-81041936D01*
X181179788Y-81163224D01*
X181403900Y-81256054D01*
X181638211Y-81318838D01*
X181818586Y-81342584D01*
X181878711Y-81350500D01*
X181878712Y-81350500D01*
X182121289Y-81350500D01*
X182169388Y-81344167D01*
X182361789Y-81318838D01*
X182596100Y-81256054D01*
X182820212Y-81163224D01*
X183030289Y-81041936D01*
X183222738Y-80894265D01*
X183394265Y-80722738D01*
X183541936Y-80530289D01*
X183663224Y-80320212D01*
X183756054Y-80096100D01*
X183818838Y-79861789D01*
X183850500Y-79621288D01*
X183850500Y-79378712D01*
X183849253Y-79369243D01*
X183818838Y-79138214D01*
X183818838Y-79138211D01*
X183756054Y-78903900D01*
X183663224Y-78679788D01*
X183541936Y-78469711D01*
X183394265Y-78277262D01*
X183394260Y-78277256D01*
X183222743Y-78105739D01*
X183222736Y-78105733D01*
X183030293Y-77958067D01*
X183030292Y-77958066D01*
X183030289Y-77958064D01*
X182820212Y-77836776D01*
X182820205Y-77836773D01*
X182596104Y-77743947D01*
X182361785Y-77681161D01*
X182121289Y-77649500D01*
X182121288Y-77649500D01*
X181878712Y-77649500D01*
X181878711Y-77649500D01*
X181638214Y-77681161D01*
X181403895Y-77743947D01*
X181179794Y-77836773D01*
X181179785Y-77836777D01*
X180969706Y-77958067D01*
X180777263Y-78105733D01*
X180777256Y-78105739D01*
X180605739Y-78277256D01*
X180605733Y-78277263D01*
X180458067Y-78469706D01*
X180336777Y-78679785D01*
X180336773Y-78679794D01*
X180243947Y-78903895D01*
X180181161Y-79138214D01*
X180149500Y-79378711D01*
X113850500Y-79378711D01*
X113849253Y-79369243D01*
X113818838Y-79138214D01*
X113818838Y-79138211D01*
X113756054Y-78903900D01*
X113663224Y-78679788D01*
X113541936Y-78469711D01*
X113394265Y-78277262D01*
X113394260Y-78277256D01*
X113222743Y-78105739D01*
X113222736Y-78105733D01*
X113030293Y-77958067D01*
X113030292Y-77958066D01*
X113030289Y-77958064D01*
X112820212Y-77836776D01*
X112820205Y-77836773D01*
X112596104Y-77743947D01*
X112361785Y-77681161D01*
X112121289Y-77649500D01*
X112121288Y-77649500D01*
X111878712Y-77649500D01*
X111878711Y-77649500D01*
X111638214Y-77681161D01*
X111403895Y-77743947D01*
X111179794Y-77836773D01*
X111179785Y-77836777D01*
X110969706Y-77958067D01*
X110777263Y-78105733D01*
X110777256Y-78105739D01*
X110605739Y-78277256D01*
X110605733Y-78277263D01*
X110458067Y-78469706D01*
X110336777Y-78679785D01*
X110336773Y-78679794D01*
X110243947Y-78903895D01*
X110181161Y-79138214D01*
X110149500Y-79378711D01*
X107505796Y-79378711D01*
X107506209Y-79369244D01*
X107506209Y-79369243D01*
X107510433Y-79272498D01*
X107517386Y-79113228D01*
X107518326Y-79102495D01*
X107568152Y-78724025D01*
X107570025Y-78713405D01*
X107652649Y-78340709D01*
X107655440Y-78330295D01*
X107770230Y-77966227D01*
X107773917Y-77956095D01*
X107920003Y-77603412D01*
X107924561Y-77593638D01*
X108100822Y-77255045D01*
X108106217Y-77245700D01*
X108311325Y-76923744D01*
X108317515Y-76914905D01*
X108549896Y-76612060D01*
X108556834Y-76603791D01*
X108814726Y-76322352D01*
X108822352Y-76314726D01*
X109103791Y-76056834D01*
X109112060Y-76049896D01*
X109414905Y-75817515D01*
X109423744Y-75811325D01*
X109745700Y-75606217D01*
X109755045Y-75600822D01*
X110093638Y-75424561D01*
X110103412Y-75420003D01*
X110456095Y-75273917D01*
X110466227Y-75270230D01*
X110830295Y-75155440D01*
X110840709Y-75152649D01*
X111213405Y-75070025D01*
X111224025Y-75068152D01*
X111602495Y-75018326D01*
X111613226Y-75017386D01*
X111997297Y-75000617D01*
X112002706Y-75000500D01*
X112065892Y-75000500D01*
X181934108Y-75000500D01*
X181997294Y-75000500D01*
X182002702Y-75000617D01*
G37*
G04 #@! TD.AperFunction*
M02*
