G04 #@! TF.GenerationSoftware,KiCad,Pcbnew,9.0.0*
G04 #@! TF.CreationDate,2025-04-19T00:24:35-05:00*
G04 #@! TF.ProjectId,Charging_PCB,43686172-6769-46e6-975f-5043422e6b69,rev?*
G04 #@! TF.SameCoordinates,Original*
G04 #@! TF.FileFunction,Copper,L1,Top*
G04 #@! TF.FilePolarity,Positive*
%FSLAX46Y46*%
G04 Gerber Fmt 4.6, Leading zero omitted, Abs format (unit mm)*
G04 Created by KiCad (PCBNEW 9.0.0) date 2025-04-19 00:24:35*
%MOMM*%
%LPD*%
G01*
G04 APERTURE LIST*
G04 Aperture macros list*
%AMRoundRect*
0 Rectangle with rounded corners*
0 $1 Rounding radius*
0 $2 $3 $4 $5 $6 $7 $8 $9 X,Y pos of 4 corners*
0 Add a 4 corners polygon primitive as box body*
4,1,4,$2,$3,$4,$5,$6,$7,$8,$9,$2,$3,0*
0 Add four circle primitives for the rounded corners*
1,1,$1+$1,$2,$3*
1,1,$1+$1,$4,$5*
1,1,$1+$1,$6,$7*
1,1,$1+$1,$8,$9*
0 Add four rect primitives between the rounded corners*
20,1,$1+$1,$2,$3,$4,$5,0*
20,1,$1+$1,$4,$5,$6,$7,0*
20,1,$1+$1,$6,$7,$8,$9,0*
20,1,$1+$1,$8,$9,$2,$3,0*%
G04 Aperture macros list end*
G04 #@! TA.AperFunction,ComponentPad*
%ADD10R,2.210000X2.210000*%
G04 #@! TD*
G04 #@! TA.AperFunction,ComponentPad*
%ADD11C,2.210000*%
G04 #@! TD*
G04 #@! TA.AperFunction,ComponentPad*
%ADD12C,2.000000*%
G04 #@! TD*
G04 #@! TA.AperFunction,ComponentPad*
%ADD13R,2.000000X2.000000*%
G04 #@! TD*
G04 #@! TA.AperFunction,SMDPad,CuDef*
%ADD14RoundRect,0.250000X-0.450000X0.350000X-0.450000X-0.350000X0.450000X-0.350000X0.450000X0.350000X0*%
G04 #@! TD*
G04 #@! TA.AperFunction,SMDPad,CuDef*
%ADD15RoundRect,0.100000X-0.155000X-0.100000X0.155000X-0.100000X0.155000X0.100000X-0.155000X0.100000X0*%
G04 #@! TD*
G04 #@! TA.AperFunction,SMDPad,CuDef*
%ADD16RoundRect,0.250000X1.000000X0.650000X-1.000000X0.650000X-1.000000X-0.650000X1.000000X-0.650000X0*%
G04 #@! TD*
G04 #@! TA.AperFunction,ViaPad*
%ADD17C,0.700000*%
G04 #@! TD*
G04 #@! TA.AperFunction,Conductor*
%ADD18C,0.500000*%
G04 #@! TD*
G04 #@! TA.AperFunction,Conductor*
%ADD19C,3.560000*%
G04 #@! TD*
G04 #@! TA.AperFunction,Conductor*
%ADD20C,0.200000*%
G04 #@! TD*
G04 #@! TA.AperFunction,Conductor*
%ADD21C,0.300000*%
G04 #@! TD*
G04 APERTURE END LIST*
D10*
X129812500Y-114162500D03*
D11*
X129812500Y-107812500D03*
D12*
X152125000Y-117425000D03*
X159625000Y-113925000D03*
X152125000Y-110425000D03*
D13*
X152125000Y-93925000D03*
D12*
X159625000Y-93925000D03*
D14*
X166000000Y-81000000D03*
X166000000Y-83000000D03*
D12*
X138312500Y-117462500D03*
X145812500Y-113962500D03*
X138312500Y-110462500D03*
D13*
X138312500Y-93962500D03*
D12*
X145812500Y-93962500D03*
D15*
X129457500Y-81462500D03*
X129457500Y-82462500D03*
X128167500Y-81962500D03*
D14*
X134500000Y-81462500D03*
X134500000Y-83462500D03*
D10*
X166812500Y-114135000D03*
D11*
X166812500Y-107785000D03*
D15*
X161290000Y-81500000D03*
X161290000Y-82500000D03*
X160000000Y-82000000D03*
D16*
X167000000Y-86500000D03*
X163000000Y-86500000D03*
X134500000Y-86500000D03*
X130500000Y-86500000D03*
D10*
X151387500Y-85135000D03*
D11*
X145037500Y-85135000D03*
D17*
X179936399Y-85020471D03*
X182436399Y-85020471D03*
X110069913Y-85018530D03*
X115069913Y-85018530D03*
X112569913Y-85018530D03*
X154000000Y-88500000D03*
X154000000Y-86000000D03*
X154000000Y-83500000D03*
X152500000Y-97500000D03*
X170000000Y-125000000D03*
X175000000Y-125000000D03*
X172500000Y-125000000D03*
X132500000Y-100000000D03*
X130000000Y-100000000D03*
X125000000Y-100000000D03*
X127500000Y-100000000D03*
X142500000Y-82500000D03*
X140000000Y-82500000D03*
X125000000Y-77500000D03*
X125000000Y-85000000D03*
X125000000Y-82500000D03*
X125000000Y-80000000D03*
X125000000Y-87500000D03*
X142500000Y-80000000D03*
X140000000Y-80000000D03*
X150000000Y-125000000D03*
X147500000Y-125000000D03*
X142500000Y-125000000D03*
X140000000Y-125000000D03*
X145000000Y-125000000D03*
X137500000Y-125000000D03*
X135000000Y-125000000D03*
X130000000Y-125000000D03*
X132500000Y-125000000D03*
X125000000Y-125000000D03*
X127500000Y-125000000D03*
X170000000Y-117500000D03*
X170000000Y-120000000D03*
X169861632Y-112617999D03*
X169861632Y-115117999D03*
X170000000Y-107500000D03*
X170000000Y-110000000D03*
X160000000Y-97500000D03*
X160000000Y-100000000D03*
X167500000Y-102500000D03*
X167500000Y-105000000D03*
X165000000Y-102500000D03*
X165000000Y-105000000D03*
X170000000Y-102500000D03*
X170000000Y-105000000D03*
X142500000Y-115000000D03*
X142500000Y-117500000D03*
X142500000Y-110000000D03*
X142500000Y-112500000D03*
X155000000Y-117500000D03*
X155000000Y-115000000D03*
X155812500Y-112500000D03*
X155812500Y-110000000D03*
X152500000Y-102500000D03*
X152500000Y-100000000D03*
X155000000Y-107500000D03*
X155000000Y-105000000D03*
X152500000Y-105000000D03*
X152500000Y-107500000D03*
X130000000Y-105000000D03*
X130000000Y-102500000D03*
X127500000Y-102500000D03*
X127500000Y-105000000D03*
X145000000Y-107500000D03*
X140000000Y-107500000D03*
X142500000Y-107500000D03*
X147500000Y-107500000D03*
X137500000Y-107500000D03*
X147500000Y-105000000D03*
X147500000Y-102500000D03*
X147500000Y-100000000D03*
X147500000Y-97500000D03*
X145000000Y-102500000D03*
X137500000Y-105000000D03*
X140000000Y-105000000D03*
X140000000Y-102500000D03*
X142500000Y-102500000D03*
X137500000Y-97500000D03*
X145000000Y-105000000D03*
X137500000Y-102500000D03*
X142500000Y-105000000D03*
X140000000Y-100000000D03*
X140000000Y-97500000D03*
X142500000Y-97500000D03*
X145000000Y-97500000D03*
X145000000Y-100000000D03*
X142500000Y-100000000D03*
X137500000Y-100000000D03*
X170000000Y-95000000D03*
X170000000Y-92500000D03*
X170000000Y-97500000D03*
X167500000Y-97500000D03*
X165000000Y-95000000D03*
X167500000Y-95000000D03*
X165000000Y-92500000D03*
X165000000Y-97500000D03*
X167500000Y-92500000D03*
X170000000Y-82500000D03*
X170000000Y-80000000D03*
X167500000Y-80000000D03*
X177500000Y-85000000D03*
X177500000Y-82500000D03*
X175000000Y-80000000D03*
X177500000Y-80000000D03*
X172500000Y-82500000D03*
X172500000Y-80000000D03*
X172500000Y-85000000D03*
X175000000Y-82500000D03*
X175000000Y-85000000D03*
X182500000Y-117500000D03*
X175000000Y-120000000D03*
X172500000Y-117500000D03*
X172500000Y-120000000D03*
X177500000Y-120000000D03*
X177500000Y-117500000D03*
X180000000Y-117500000D03*
X175000000Y-112500000D03*
X182500000Y-120000000D03*
X175000000Y-117500000D03*
X180000000Y-120000000D03*
X177500000Y-115000000D03*
X177500000Y-112500000D03*
X180000000Y-112500000D03*
X182500000Y-112500000D03*
X182500000Y-115000000D03*
X180000000Y-115000000D03*
X175000000Y-115000000D03*
X172500000Y-112500000D03*
X172500000Y-115000000D03*
X172500000Y-102500000D03*
X172500000Y-100000000D03*
X172500000Y-105000000D03*
X175000000Y-90000000D03*
X175000000Y-105000000D03*
X172500000Y-97500000D03*
X175000000Y-92500000D03*
X175000000Y-87500000D03*
X175000000Y-97500000D03*
X177500000Y-92500000D03*
X177500000Y-87500000D03*
X182500000Y-92500000D03*
X182500000Y-90000000D03*
X182500000Y-87500000D03*
X180000000Y-92500000D03*
X180000000Y-87500000D03*
X177500000Y-90000000D03*
X180000000Y-90000000D03*
X182500000Y-107500000D03*
X177500000Y-110000000D03*
X180000000Y-107500000D03*
X177500000Y-107500000D03*
X182500000Y-110000000D03*
X175000000Y-107500000D03*
X180000000Y-110000000D03*
X172500000Y-107500000D03*
X172500000Y-110000000D03*
X175000000Y-110000000D03*
X175000000Y-100000000D03*
X175000000Y-102500000D03*
X182500000Y-105000000D03*
X177500000Y-105000000D03*
X177500000Y-102500000D03*
X180000000Y-102500000D03*
X180000000Y-97500000D03*
X182500000Y-102500000D03*
X182500000Y-100000000D03*
X182500000Y-97500000D03*
X177500000Y-100000000D03*
X180000000Y-100000000D03*
X177500000Y-97500000D03*
X180000000Y-105000000D03*
X180000000Y-95000000D03*
X177500000Y-95000000D03*
X172500000Y-92500000D03*
X172500000Y-87500000D03*
X175000000Y-95000000D03*
X172500000Y-90000000D03*
X182500000Y-95000000D03*
X172500000Y-95000000D03*
X132500000Y-90000000D03*
X132500000Y-92500000D03*
X132500000Y-97500000D03*
X132500000Y-95000000D03*
X127500000Y-90000000D03*
X125000000Y-90000000D03*
X130000000Y-90000000D03*
X127500000Y-92500000D03*
X125000000Y-92500000D03*
X130000000Y-92500000D03*
X127500000Y-95000000D03*
X125000000Y-95000000D03*
X130000000Y-95000000D03*
X127500000Y-97500000D03*
X125000000Y-97500000D03*
X130000000Y-97500000D03*
X127500000Y-77500000D03*
X130000000Y-77500000D03*
X120000000Y-77500000D03*
X117500000Y-77500000D03*
X122500000Y-77500000D03*
X122500000Y-85000000D03*
X120000000Y-85000000D03*
X120000000Y-80000000D03*
X122500000Y-80000000D03*
X117500000Y-80000000D03*
X117500000Y-85000000D03*
X122500000Y-82500000D03*
X117500000Y-82500000D03*
X120000000Y-82500000D03*
X115000000Y-122500000D03*
X112500000Y-122500000D03*
X112500000Y-117500000D03*
X115000000Y-117500000D03*
X110000000Y-117500000D03*
X110000000Y-122500000D03*
X115000000Y-120000000D03*
X110000000Y-120000000D03*
X112500000Y-120000000D03*
X117500000Y-122500000D03*
X117500000Y-117500000D03*
X122500000Y-122500000D03*
X122500000Y-120000000D03*
X122500000Y-117500000D03*
X120000000Y-122500000D03*
X120000000Y-117500000D03*
X117500000Y-120000000D03*
X120000000Y-120000000D03*
X120000000Y-125000000D03*
X117500000Y-125000000D03*
X122500000Y-125000000D03*
X117500000Y-112500000D03*
X117500000Y-107500000D03*
X122500000Y-112500000D03*
X122500000Y-110000000D03*
X122500000Y-107500000D03*
X120000000Y-112500000D03*
X120000000Y-107500000D03*
X117500000Y-110000000D03*
X120000000Y-110000000D03*
X120000000Y-115000000D03*
X117500000Y-115000000D03*
X122500000Y-115000000D03*
X110000000Y-112500000D03*
X110000000Y-107500000D03*
X115000000Y-112500000D03*
X115000000Y-110000000D03*
X115000000Y-107500000D03*
X112500000Y-112500000D03*
X112500000Y-107500000D03*
X110000000Y-110000000D03*
X112500000Y-110000000D03*
X112500000Y-115000000D03*
X110000000Y-115000000D03*
X115000000Y-115000000D03*
X117500000Y-102500000D03*
X122500000Y-102500000D03*
X122500000Y-100000000D03*
X122500000Y-97500000D03*
X120000000Y-102500000D03*
X117500000Y-100000000D03*
X120000000Y-105000000D03*
X117500000Y-105000000D03*
X122500000Y-105000000D03*
X110000000Y-102500000D03*
X110000000Y-97500000D03*
X115000000Y-102500000D03*
X115000000Y-100000000D03*
X115000000Y-97500000D03*
X112500000Y-102500000D03*
X112500000Y-97500000D03*
X110000000Y-100000000D03*
X112500000Y-100000000D03*
X112500000Y-105000000D03*
X110000000Y-105000000D03*
X115000000Y-105000000D03*
X110000000Y-92500000D03*
X110000000Y-87500000D03*
X115000000Y-87500000D03*
X112500000Y-87500000D03*
X110000000Y-90000000D03*
X112500000Y-95000000D03*
X110000000Y-95000000D03*
X122500000Y-95000000D03*
X122500000Y-90000000D03*
X122500000Y-87500000D03*
X120000000Y-87500000D03*
X117500000Y-87500000D03*
X130500000Y-89000000D03*
X128000000Y-86500000D03*
X163000000Y-88500000D03*
D18*
X160032500Y-80500000D02*
X158000000Y-80500000D01*
X160000000Y-83900000D02*
X160000000Y-82000000D01*
X159625000Y-84275000D02*
X160000000Y-83900000D01*
X159625000Y-93925000D02*
X159625000Y-84275000D01*
X167000000Y-88000000D02*
X167000000Y-86500000D01*
X159625000Y-93925000D02*
X161075000Y-93925000D01*
X161075000Y-93925000D02*
X167000000Y-88000000D01*
X156000000Y-101000000D02*
X166812500Y-111812500D01*
X166812500Y-111812500D02*
X166812500Y-114135000D01*
X156000000Y-93000000D02*
X156000000Y-101000000D01*
X158000000Y-91000000D02*
X156000000Y-93000000D01*
X158000000Y-80500000D02*
X158000000Y-91000000D01*
X142037500Y-91000000D02*
X134500000Y-83462500D01*
X148261250Y-91000000D02*
X142037500Y-91000000D01*
X151387500Y-87873750D02*
X148261250Y-91000000D01*
X151387500Y-85135000D02*
X151387500Y-87873750D01*
X135500000Y-86500000D02*
X142962500Y-93962500D01*
X142962500Y-93962500D02*
X145812500Y-93962500D01*
X134500000Y-86500000D02*
X135500000Y-86500000D01*
X164000000Y-78000000D02*
X166000000Y-80000000D01*
X148000000Y-78000000D02*
X164000000Y-78000000D01*
X145037500Y-80962500D02*
X148000000Y-78000000D01*
X145037500Y-85135000D02*
X145037500Y-80962500D01*
X166000000Y-80000000D02*
X166000000Y-81000000D01*
X148000000Y-87000000D02*
X146000000Y-89000000D01*
X146000000Y-89000000D02*
X143000000Y-89000000D01*
X148000000Y-82000000D02*
X148000000Y-87000000D01*
X149500000Y-80500000D02*
X148000000Y-82000000D01*
X158000000Y-80500000D02*
X149500000Y-80500000D01*
X143000000Y-89000000D02*
X135462500Y-81462500D01*
X135462500Y-81462500D02*
X134500000Y-81462500D01*
D19*
X152125000Y-117425000D02*
X150525000Y-115825000D01*
X134000000Y-116000000D02*
X136850000Y-116000000D01*
D18*
X161032500Y-81500000D02*
X160032500Y-80500000D01*
D19*
X147675000Y-115825000D02*
X145812500Y-113962500D01*
X132162500Y-114162500D02*
X134000000Y-116000000D01*
X129812500Y-114162500D02*
X132162500Y-114162500D01*
X136850000Y-116000000D02*
X138312500Y-117462500D01*
X150525000Y-115825000D02*
X147675000Y-115825000D01*
X166812500Y-114135000D02*
X159835000Y-114135000D01*
X159835000Y-114135000D02*
X159625000Y-113925000D01*
D18*
X161290000Y-81500000D02*
X161032500Y-81500000D01*
D20*
X134462500Y-81500000D02*
X134500000Y-81462500D01*
D18*
X131812500Y-81500000D02*
X134462500Y-81500000D01*
X131812500Y-81500000D02*
X131775000Y-81462500D01*
X131775000Y-81462500D02*
X129457500Y-81462500D01*
X132563500Y-84563500D02*
X134500000Y-86500000D01*
X128738500Y-84563500D02*
X132563500Y-84563500D01*
X128167500Y-81962500D02*
X128312500Y-82107500D01*
X128312500Y-84137500D02*
X128738500Y-84563500D01*
X128312500Y-82107500D02*
X128312500Y-84137500D01*
D21*
X130515000Y-83375000D02*
X134412500Y-83375000D01*
X129602500Y-82462500D02*
X130515000Y-83375000D01*
D20*
X134412500Y-83375000D02*
X134500000Y-83462500D01*
D21*
X129457500Y-82462500D02*
X129602500Y-82462500D01*
X163900000Y-81000000D02*
X162192500Y-82707500D01*
X161497500Y-82707500D02*
X161290000Y-82500000D01*
X162192500Y-82707500D02*
X161497500Y-82707500D01*
X166000000Y-81000000D02*
X163900000Y-81000000D01*
G04 #@! TA.AperFunction,Conductor*
G36*
X182002702Y-75000617D02*
G01*
X182386771Y-75017386D01*
X182397506Y-75018326D01*
X182775971Y-75068152D01*
X182786597Y-75070025D01*
X183159284Y-75152648D01*
X183169710Y-75155442D01*
X183533765Y-75270227D01*
X183543911Y-75273920D01*
X183896578Y-75420000D01*
X183906369Y-75424566D01*
X184244942Y-75600816D01*
X184254310Y-75606224D01*
X184576244Y-75811318D01*
X184585105Y-75817523D01*
X184887930Y-76049889D01*
X184896217Y-76056843D01*
X185177635Y-76314715D01*
X185185284Y-76322364D01*
X185443156Y-76603782D01*
X185450110Y-76612069D01*
X185682476Y-76914894D01*
X185688681Y-76923755D01*
X185893775Y-77245689D01*
X185899183Y-77255057D01*
X186075430Y-77593623D01*
X186080002Y-77603427D01*
X186226075Y-77956078D01*
X186229775Y-77966244D01*
X186344554Y-78330278D01*
X186347354Y-78340727D01*
X186429971Y-78713389D01*
X186431849Y-78724042D01*
X186481671Y-79102473D01*
X186482614Y-79113249D01*
X186499382Y-79497297D01*
X186499500Y-79502706D01*
X186499500Y-129497293D01*
X186499382Y-129502702D01*
X186482614Y-129886750D01*
X186481671Y-129897526D01*
X186431849Y-130275957D01*
X186429971Y-130286610D01*
X186347354Y-130659272D01*
X186344554Y-130669721D01*
X186229775Y-131033755D01*
X186226075Y-131043921D01*
X186080002Y-131396572D01*
X186075430Y-131406376D01*
X185899183Y-131744942D01*
X185893775Y-131754310D01*
X185688681Y-132076244D01*
X185682476Y-132085105D01*
X185450110Y-132387930D01*
X185443156Y-132396217D01*
X185185284Y-132677635D01*
X185177635Y-132685284D01*
X184896217Y-132943156D01*
X184887930Y-132950110D01*
X184585105Y-133182476D01*
X184576244Y-133188681D01*
X184254310Y-133393775D01*
X184244942Y-133399183D01*
X183906376Y-133575430D01*
X183896572Y-133580002D01*
X183543921Y-133726075D01*
X183533755Y-133729775D01*
X183169721Y-133844554D01*
X183159272Y-133847354D01*
X182786610Y-133929971D01*
X182775957Y-133931849D01*
X182397526Y-133981671D01*
X182386750Y-133982614D01*
X182002703Y-133999382D01*
X181997294Y-133999500D01*
X112002706Y-133999500D01*
X111997297Y-133999382D01*
X111613249Y-133982614D01*
X111602473Y-133981671D01*
X111224042Y-133931849D01*
X111213389Y-133929971D01*
X110840727Y-133847354D01*
X110830278Y-133844554D01*
X110466244Y-133729775D01*
X110456078Y-133726075D01*
X110103427Y-133580002D01*
X110093623Y-133575430D01*
X109755057Y-133399183D01*
X109745689Y-133393775D01*
X109423755Y-133188681D01*
X109414894Y-133182476D01*
X109112069Y-132950110D01*
X109103782Y-132943156D01*
X108822364Y-132685284D01*
X108814715Y-132677635D01*
X108556843Y-132396217D01*
X108549889Y-132387930D01*
X108317523Y-132085105D01*
X108311318Y-132076244D01*
X108106224Y-131754310D01*
X108100816Y-131744942D01*
X107924569Y-131406376D01*
X107919997Y-131396572D01*
X107773920Y-131043911D01*
X107770224Y-131033755D01*
X107655442Y-130669710D01*
X107652648Y-130659284D01*
X107570025Y-130286597D01*
X107568152Y-130275971D01*
X107518326Y-129897506D01*
X107517386Y-129886771D01*
X107500618Y-129502702D01*
X107500500Y-129497293D01*
X107500500Y-129378711D01*
X110149500Y-129378711D01*
X110149500Y-129621288D01*
X110181161Y-129861785D01*
X110243947Y-130096104D01*
X110336773Y-130320205D01*
X110336776Y-130320212D01*
X110458064Y-130530289D01*
X110458066Y-130530292D01*
X110458067Y-130530293D01*
X110605733Y-130722736D01*
X110605739Y-130722743D01*
X110777256Y-130894260D01*
X110777262Y-130894265D01*
X110969711Y-131041936D01*
X111179788Y-131163224D01*
X111403900Y-131256054D01*
X111638211Y-131318838D01*
X111818586Y-131342584D01*
X111878711Y-131350500D01*
X111878712Y-131350500D01*
X112121289Y-131350500D01*
X112169388Y-131344167D01*
X112361789Y-131318838D01*
X112596100Y-131256054D01*
X112820212Y-131163224D01*
X113030289Y-131041936D01*
X113222738Y-130894265D01*
X113394265Y-130722738D01*
X113541936Y-130530289D01*
X113663224Y-130320212D01*
X113756054Y-130096100D01*
X113818838Y-129861789D01*
X113850500Y-129621288D01*
X113850500Y-129378712D01*
X113850500Y-129378711D01*
X180149500Y-129378711D01*
X180149500Y-129621288D01*
X180181161Y-129861785D01*
X180243947Y-130096104D01*
X180336773Y-130320205D01*
X180336776Y-130320212D01*
X180458064Y-130530289D01*
X180458066Y-130530292D01*
X180458067Y-130530293D01*
X180605733Y-130722736D01*
X180605739Y-130722743D01*
X180777256Y-130894260D01*
X180777262Y-130894265D01*
X180969711Y-131041936D01*
X181179788Y-131163224D01*
X181403900Y-131256054D01*
X181638211Y-131318838D01*
X181818586Y-131342584D01*
X181878711Y-131350500D01*
X181878712Y-131350500D01*
X182121289Y-131350500D01*
X182169388Y-131344167D01*
X182361789Y-131318838D01*
X182596100Y-131256054D01*
X182820212Y-131163224D01*
X183030289Y-131041936D01*
X183222738Y-130894265D01*
X183394265Y-130722738D01*
X183541936Y-130530289D01*
X183663224Y-130320212D01*
X183756054Y-130096100D01*
X183818838Y-129861789D01*
X183850500Y-129621288D01*
X183850500Y-129378712D01*
X183818838Y-129138211D01*
X183756054Y-128903900D01*
X183663224Y-128679788D01*
X183541936Y-128469711D01*
X183394265Y-128277262D01*
X183394260Y-128277256D01*
X183222743Y-128105739D01*
X183222736Y-128105733D01*
X183030293Y-127958067D01*
X183030292Y-127958066D01*
X183030289Y-127958064D01*
X182820212Y-127836776D01*
X182820205Y-127836773D01*
X182596104Y-127743947D01*
X182361785Y-127681161D01*
X182121289Y-127649500D01*
X182121288Y-127649500D01*
X181878712Y-127649500D01*
X181878711Y-127649500D01*
X181638214Y-127681161D01*
X181403895Y-127743947D01*
X181179794Y-127836773D01*
X181179785Y-127836777D01*
X180969706Y-127958067D01*
X180777263Y-128105733D01*
X180777256Y-128105739D01*
X180605739Y-128277256D01*
X180605733Y-128277263D01*
X180458067Y-128469706D01*
X180336777Y-128679785D01*
X180336773Y-128679794D01*
X180243947Y-128903895D01*
X180181161Y-129138214D01*
X180149500Y-129378711D01*
X113850500Y-129378711D01*
X113818838Y-129138211D01*
X113756054Y-128903900D01*
X113663224Y-128679788D01*
X113541936Y-128469711D01*
X113394265Y-128277262D01*
X113394260Y-128277256D01*
X113222743Y-128105739D01*
X113222736Y-128105733D01*
X113030293Y-127958067D01*
X113030292Y-127958066D01*
X113030289Y-127958064D01*
X112820212Y-127836776D01*
X112820205Y-127836773D01*
X112596104Y-127743947D01*
X112361785Y-127681161D01*
X112121289Y-127649500D01*
X112121288Y-127649500D01*
X111878712Y-127649500D01*
X111878711Y-127649500D01*
X111638214Y-127681161D01*
X111403895Y-127743947D01*
X111179794Y-127836773D01*
X111179785Y-127836777D01*
X110969706Y-127958067D01*
X110777263Y-128105733D01*
X110777256Y-128105739D01*
X110605739Y-128277256D01*
X110605733Y-128277263D01*
X110458067Y-128469706D01*
X110336777Y-128679785D01*
X110336773Y-128679794D01*
X110243947Y-128903895D01*
X110181161Y-129138214D01*
X110149500Y-129378711D01*
X107500500Y-129378711D01*
X107500500Y-118519593D01*
X128632000Y-118519593D01*
X128632000Y-118705406D01*
X128661068Y-118888935D01*
X128661068Y-118888938D01*
X128718486Y-119065652D01*
X128758025Y-119143251D01*
X128802846Y-119231217D01*
X128912065Y-119381544D01*
X129043456Y-119512935D01*
X129193783Y-119622154D01*
X129305375Y-119679013D01*
X129359347Y-119706513D01*
X129536062Y-119763931D01*
X129536063Y-119763931D01*
X129536066Y-119763932D01*
X129719593Y-119793000D01*
X129719594Y-119793000D01*
X129905406Y-119793000D01*
X129905407Y-119793000D01*
X130088934Y-119763932D01*
X130088937Y-119763931D01*
X130088938Y-119763931D01*
X130265652Y-119706513D01*
X130265652Y-119706512D01*
X130265655Y-119706512D01*
X130431217Y-119622154D01*
X130581544Y-119512935D01*
X130712935Y-119381544D01*
X130822154Y-119231217D01*
X130906512Y-119065655D01*
X130937799Y-118969364D01*
X130963931Y-118888938D01*
X130963931Y-118888937D01*
X130963932Y-118888934D01*
X130993000Y-118705407D01*
X130993000Y-118519593D01*
X130963932Y-118336066D01*
X130963931Y-118336062D01*
X130963931Y-118336061D01*
X130906513Y-118159347D01*
X130889107Y-118125185D01*
X130822154Y-117993783D01*
X130712935Y-117843456D01*
X130581544Y-117712065D01*
X130431217Y-117602846D01*
X130375530Y-117574472D01*
X130265652Y-117518486D01*
X130088937Y-117461068D01*
X129951288Y-117439267D01*
X129905407Y-117432000D01*
X129719593Y-117432000D01*
X129658417Y-117441689D01*
X129536064Y-117461068D01*
X129536061Y-117461068D01*
X129359347Y-117518486D01*
X129193782Y-117602846D01*
X129108015Y-117665159D01*
X129043456Y-117712065D01*
X129043454Y-117712067D01*
X129043453Y-117712067D01*
X128912067Y-117843453D01*
X128912067Y-117843454D01*
X128912065Y-117843456D01*
X128892164Y-117870848D01*
X128802846Y-117993782D01*
X128718486Y-118159347D01*
X128661068Y-118336061D01*
X128661068Y-118336064D01*
X128632000Y-118519593D01*
X107500500Y-118519593D01*
X107500500Y-114013034D01*
X127532000Y-114013034D01*
X127532000Y-114311965D01*
X127532001Y-114311981D01*
X127571019Y-114608354D01*
X127648394Y-114897120D01*
X127762790Y-115173296D01*
X127762794Y-115173305D01*
X127796795Y-115232196D01*
X127912265Y-115432196D01*
X127912270Y-115432202D01*
X127912271Y-115432204D01*
X128094249Y-115669362D01*
X128094255Y-115669369D01*
X128305630Y-115880744D01*
X128305637Y-115880750D01*
X128354361Y-115918137D01*
X128542804Y-116062735D01*
X128801697Y-116212207D01*
X129077884Y-116326607D01*
X129366642Y-116403980D01*
X129663028Y-116443000D01*
X131166524Y-116443000D01*
X131233563Y-116462685D01*
X131254205Y-116479319D01*
X132493129Y-117718244D01*
X132493136Y-117718250D01*
X132730299Y-117900232D01*
X132730298Y-117900232D01*
X132730302Y-117900234D01*
X132730303Y-117900235D01*
X132744370Y-117908356D01*
X132744372Y-117908358D01*
X132744373Y-117908358D01*
X132989197Y-118049707D01*
X133265384Y-118164107D01*
X133554142Y-118241480D01*
X133850528Y-118280500D01*
X135854024Y-118280500D01*
X135921063Y-118300185D01*
X135941705Y-118316819D01*
X136805629Y-119180744D01*
X136805636Y-119180750D01*
X137042805Y-119362737D01*
X137042807Y-119362738D01*
X137301686Y-119512200D01*
X137301689Y-119512201D01*
X137301697Y-119512206D01*
X137577884Y-119626607D01*
X137866641Y-119703979D01*
X138163028Y-119742999D01*
X138163035Y-119742999D01*
X138461965Y-119742999D01*
X138461972Y-119742999D01*
X138758358Y-119703979D01*
X139047116Y-119626607D01*
X139323303Y-119512206D01*
X139582196Y-119362735D01*
X139819364Y-119180749D01*
X140030749Y-118969364D01*
X140212735Y-118732196D01*
X140362206Y-118473303D01*
X140476607Y-118197116D01*
X140553979Y-117908358D01*
X140592999Y-117611972D01*
X140592999Y-117313028D01*
X140553979Y-117016641D01*
X140476607Y-116727884D01*
X140362206Y-116451697D01*
X140341307Y-116415498D01*
X140212738Y-116192807D01*
X140212737Y-116192805D01*
X140030750Y-115955636D01*
X140030744Y-115955629D01*
X138356869Y-114281754D01*
X138356862Y-114281748D01*
X138119700Y-114099768D01*
X138119699Y-114099767D01*
X138119696Y-114099765D01*
X137860803Y-113950293D01*
X137860796Y-113950290D01*
X137796192Y-113923530D01*
X137584620Y-113835894D01*
X137499280Y-113813027D01*
X143532001Y-113813027D01*
X143532001Y-114111972D01*
X143571019Y-114408354D01*
X143648394Y-114697120D01*
X143719846Y-114869620D01*
X143762793Y-114973303D01*
X143912265Y-115232196D01*
X143912267Y-115232199D01*
X143912268Y-115232200D01*
X144094248Y-115469362D01*
X144094254Y-115469369D01*
X146168130Y-117543245D01*
X146168136Y-117543250D01*
X146405304Y-117725235D01*
X146562432Y-117815953D01*
X146664189Y-117874703D01*
X146664194Y-117874705D01*
X146664197Y-117874707D01*
X146940384Y-117989108D01*
X147225462Y-118065494D01*
X147229142Y-118066480D01*
X147525528Y-118105500D01*
X149529024Y-118105500D01*
X149596063Y-118125185D01*
X149616705Y-118141819D01*
X150618130Y-119143245D01*
X150618136Y-119143250D01*
X150855304Y-119325235D01*
X151021696Y-119421301D01*
X151114189Y-119474703D01*
X151114194Y-119474705D01*
X151114197Y-119474707D01*
X151390384Y-119589108D01*
X151679142Y-119666480D01*
X151888461Y-119694036D01*
X151975527Y-119705499D01*
X151975528Y-119705499D01*
X152274473Y-119705499D01*
X152341769Y-119696639D01*
X152570859Y-119666480D01*
X152859616Y-119589108D01*
X153135803Y-119474707D01*
X153394697Y-119325235D01*
X153631865Y-119143250D01*
X153843250Y-118931865D01*
X154025235Y-118694697D01*
X154142208Y-118492093D01*
X165632000Y-118492093D01*
X165632000Y-118677907D01*
X165636356Y-118705407D01*
X165661068Y-118861435D01*
X165661068Y-118861438D01*
X165718486Y-119038152D01*
X165772037Y-119143251D01*
X165802846Y-119203717D01*
X165912065Y-119354044D01*
X166043456Y-119485435D01*
X166193783Y-119594654D01*
X166334746Y-119666478D01*
X166359347Y-119679013D01*
X166536062Y-119736431D01*
X166536063Y-119736431D01*
X166536066Y-119736432D01*
X166719593Y-119765500D01*
X166719594Y-119765500D01*
X166905406Y-119765500D01*
X166905407Y-119765500D01*
X167088934Y-119736432D01*
X167088937Y-119736431D01*
X167088938Y-119736431D01*
X167265652Y-119679013D01*
X167265652Y-119679012D01*
X167265655Y-119679012D01*
X167431217Y-119594654D01*
X167581544Y-119485435D01*
X167712935Y-119354044D01*
X167822154Y-119203717D01*
X167906512Y-119038155D01*
X167928862Y-118969369D01*
X167963931Y-118861438D01*
X167963931Y-118861437D01*
X167963932Y-118861434D01*
X167993000Y-118677907D01*
X167993000Y-118492093D01*
X167963932Y-118308566D01*
X167963931Y-118308562D01*
X167963931Y-118308561D01*
X167906513Y-118131847D01*
X167903119Y-118125185D01*
X167822154Y-117966283D01*
X167712935Y-117815956D01*
X167581544Y-117684565D01*
X167431217Y-117575346D01*
X167368225Y-117543250D01*
X167265652Y-117490986D01*
X167088937Y-117433568D01*
X166951288Y-117411767D01*
X166905407Y-117404500D01*
X166719593Y-117404500D01*
X166658417Y-117414189D01*
X166536064Y-117433568D01*
X166536061Y-117433568D01*
X166359347Y-117490986D01*
X166193782Y-117575346D01*
X166143359Y-117611981D01*
X166043456Y-117684565D01*
X166043454Y-117684567D01*
X166043453Y-117684567D01*
X165912067Y-117815953D01*
X165912067Y-117815954D01*
X165912065Y-117815956D01*
X165892087Y-117843454D01*
X165802846Y-117966282D01*
X165718486Y-118131847D01*
X165661068Y-118308561D01*
X165661068Y-118308564D01*
X165640915Y-118435805D01*
X165632000Y-118492093D01*
X154142208Y-118492093D01*
X154174707Y-118435803D01*
X154289108Y-118159616D01*
X154366480Y-117870859D01*
X154405499Y-117574472D01*
X154405499Y-117275528D01*
X154366480Y-116979142D01*
X154289108Y-116690384D01*
X154174707Y-116414197D01*
X154174705Y-116414194D01*
X154174703Y-116414189D01*
X154108260Y-116299107D01*
X154025235Y-116155304D01*
X153843250Y-115918136D01*
X153843245Y-115918130D01*
X152031869Y-114106754D01*
X152031862Y-114106748D01*
X151794700Y-113924768D01*
X151794699Y-113924767D01*
X151794696Y-113924765D01*
X151536210Y-113775528D01*
X151535805Y-113775294D01*
X151535796Y-113775290D01*
X151259620Y-113660894D01*
X150970854Y-113583519D01*
X150674481Y-113544501D01*
X150674478Y-113544500D01*
X150674472Y-113544500D01*
X150674465Y-113544500D01*
X148670976Y-113544500D01*
X148603937Y-113524815D01*
X148583295Y-113508181D01*
X147319369Y-112244254D01*
X147319362Y-112244248D01*
X147082200Y-112062268D01*
X147082199Y-112062267D01*
X147082196Y-112062265D01*
X146823303Y-111912793D01*
X146823296Y-111912790D01*
X146547120Y-111798394D01*
X146323900Y-111738582D01*
X146258358Y-111721020D01*
X146258357Y-111721019D01*
X146258354Y-111721019D01*
X145961973Y-111682001D01*
X145961972Y-111682001D01*
X145663028Y-111682001D01*
X145663027Y-111682001D01*
X145366645Y-111721019D01*
X145077879Y-111798394D01*
X144801703Y-111912790D01*
X144801694Y-111912794D01*
X144542799Y-112062268D01*
X144305637Y-112244248D01*
X144305630Y-112244254D01*
X144094254Y-112455630D01*
X144094248Y-112455637D01*
X143912268Y-112692799D01*
X143762794Y-112951694D01*
X143762790Y-112951703D01*
X143648394Y-113227879D01*
X143571019Y-113516645D01*
X143532001Y-113813027D01*
X137499280Y-113813027D01*
X137359332Y-113775528D01*
X137295858Y-113758520D01*
X137295857Y-113758519D01*
X137295854Y-113758519D01*
X136999481Y-113719501D01*
X136999478Y-113719500D01*
X136999472Y-113719500D01*
X136999465Y-113719500D01*
X134995976Y-113719500D01*
X134928937Y-113699815D01*
X134908295Y-113683181D01*
X133669369Y-112444254D01*
X133669362Y-112444248D01*
X133432200Y-112262268D01*
X133432199Y-112262267D01*
X133432196Y-112262265D01*
X133173303Y-112112793D01*
X133173296Y-112112790D01*
X132897120Y-111998394D01*
X132608354Y-111921019D01*
X132311981Y-111882001D01*
X132311978Y-111882000D01*
X132311972Y-111882000D01*
X129663028Y-111882000D01*
X129663022Y-111882000D01*
X129663018Y-111882001D01*
X129366645Y-111921019D01*
X129077879Y-111998394D01*
X128801703Y-112112790D01*
X128801694Y-112112794D01*
X128542810Y-112262261D01*
X128542795Y-112262271D01*
X128305637Y-112444249D01*
X128305630Y-112444255D01*
X128094255Y-112655630D01*
X128094249Y-112655637D01*
X127912271Y-112892795D01*
X127912261Y-112892810D01*
X127762794Y-113151694D01*
X127762790Y-113151703D01*
X127648394Y-113427879D01*
X127571019Y-113716645D01*
X127532001Y-114013018D01*
X127532000Y-114013034D01*
X107500500Y-114013034D01*
X107500500Y-110344402D01*
X136812000Y-110344402D01*
X136812000Y-110580597D01*
X136848946Y-110813868D01*
X136921933Y-111038496D01*
X137010050Y-111211433D01*
X137029157Y-111248933D01*
X137167983Y-111440010D01*
X137334990Y-111607017D01*
X137526067Y-111745843D01*
X137625491Y-111796502D01*
X137736503Y-111853066D01*
X137736505Y-111853066D01*
X137736508Y-111853068D01*
X137845719Y-111888553D01*
X137961131Y-111926053D01*
X138194403Y-111963000D01*
X138194408Y-111963000D01*
X138430597Y-111963000D01*
X138663868Y-111926053D01*
X138679361Y-111921019D01*
X138888492Y-111853068D01*
X139098933Y-111745843D01*
X139290010Y-111607017D01*
X139457017Y-111440010D01*
X139595843Y-111248933D01*
X139703068Y-111038492D01*
X139776053Y-110813868D01*
X139781992Y-110776368D01*
X139813000Y-110580597D01*
X139813000Y-110344402D01*
X139809362Y-110321434D01*
X139807060Y-110306902D01*
X150624500Y-110306902D01*
X150624500Y-110543097D01*
X150661446Y-110776368D01*
X150734433Y-111000996D01*
X150841657Y-111211433D01*
X150980483Y-111402510D01*
X151147490Y-111569517D01*
X151338567Y-111708343D01*
X151412163Y-111745842D01*
X151549003Y-111815566D01*
X151549005Y-111815566D01*
X151549008Y-111815568D01*
X151639778Y-111845061D01*
X151773631Y-111888553D01*
X152006903Y-111925500D01*
X152006908Y-111925500D01*
X152243097Y-111925500D01*
X152476368Y-111888553D01*
X152496536Y-111882000D01*
X152700992Y-111815568D01*
X152911433Y-111708343D01*
X153102510Y-111569517D01*
X153269517Y-111402510D01*
X153408343Y-111211433D01*
X153515568Y-111000992D01*
X153588553Y-110776368D01*
X153625500Y-110543097D01*
X153625500Y-110306902D01*
X153588553Y-110073631D01*
X153554689Y-109969412D01*
X153515568Y-109849008D01*
X153515566Y-109849005D01*
X153515566Y-109849003D01*
X153427450Y-109676067D01*
X153408343Y-109638567D01*
X153269517Y-109447490D01*
X153102510Y-109280483D01*
X152911433Y-109141657D01*
X152700996Y-109034433D01*
X152476368Y-108961446D01*
X152243097Y-108924500D01*
X152243092Y-108924500D01*
X152006908Y-108924500D01*
X152006903Y-108924500D01*
X151773631Y-108961446D01*
X151549003Y-109034433D01*
X151338566Y-109141657D01*
X151278020Y-109185647D01*
X151147490Y-109280483D01*
X151147488Y-109280485D01*
X151147487Y-109280485D01*
X150980485Y-109447487D01*
X150980485Y-109447488D01*
X150980483Y-109447490D01*
X150953240Y-109484987D01*
X150841657Y-109638566D01*
X150734433Y-109849003D01*
X150661446Y-110073631D01*
X150624500Y-110306902D01*
X139807060Y-110306902D01*
X139776053Y-110111131D01*
X139703066Y-109886503D01*
X139595842Y-109676066D01*
X139457017Y-109484990D01*
X139290010Y-109317983D01*
X139098933Y-109179157D01*
X139056857Y-109157718D01*
X138888496Y-109071933D01*
X138663868Y-108998946D01*
X138430597Y-108962000D01*
X138430592Y-108962000D01*
X138194408Y-108962000D01*
X138194403Y-108962000D01*
X137961131Y-108998946D01*
X137736503Y-109071933D01*
X137526066Y-109179157D01*
X137417050Y-109258362D01*
X137334990Y-109317983D01*
X137334988Y-109317985D01*
X137334987Y-109317985D01*
X137167985Y-109484987D01*
X137167985Y-109484988D01*
X137167983Y-109484990D01*
X137108362Y-109567050D01*
X137029157Y-109676066D01*
X136921933Y-109886503D01*
X136848946Y-110111131D01*
X136812000Y-110344402D01*
X107500500Y-110344402D01*
X107500500Y-107686138D01*
X128207000Y-107686138D01*
X128207000Y-107938861D01*
X128246532Y-108188456D01*
X128324625Y-108428802D01*
X128425207Y-108626203D01*
X128439353Y-108653966D01*
X128587893Y-108858413D01*
X128766587Y-109037107D01*
X128971034Y-109185647D01*
X129077416Y-109239851D01*
X129196197Y-109300374D01*
X129196199Y-109300374D01*
X129196202Y-109300376D01*
X129436544Y-109378468D01*
X129565138Y-109398835D01*
X129686139Y-109418000D01*
X129686144Y-109418000D01*
X129938861Y-109418000D01*
X130049165Y-109400528D01*
X130188456Y-109378468D01*
X130428798Y-109300376D01*
X130653966Y-109185647D01*
X130858413Y-109037107D01*
X131037107Y-108858413D01*
X131185647Y-108653966D01*
X131300376Y-108428798D01*
X131378468Y-108188456D01*
X131400528Y-108049165D01*
X131418000Y-107938861D01*
X131418000Y-107686138D01*
X131397034Y-107553772D01*
X131378468Y-107436544D01*
X131300376Y-107196202D01*
X131300374Y-107196199D01*
X131300374Y-107196197D01*
X131185646Y-106971033D01*
X131165855Y-106943793D01*
X131037107Y-106766587D01*
X130858413Y-106587893D01*
X130653966Y-106439353D01*
X130428802Y-106324625D01*
X130188456Y-106246532D01*
X129938861Y-106207000D01*
X129938856Y-106207000D01*
X129686144Y-106207000D01*
X129686139Y-106207000D01*
X129436543Y-106246532D01*
X129196197Y-106324625D01*
X128971033Y-106439353D01*
X128905221Y-106487169D01*
X128766587Y-106587893D01*
X128766585Y-106587895D01*
X128766584Y-106587895D01*
X128587895Y-106766584D01*
X128587895Y-106766585D01*
X128587893Y-106766587D01*
X128534031Y-106840721D01*
X128439353Y-106971033D01*
X128324625Y-107196197D01*
X128246532Y-107436543D01*
X128207000Y-107686138D01*
X107500500Y-107686138D01*
X107500500Y-92914655D01*
X136812500Y-92914655D01*
X136812500Y-93712500D01*
X137712499Y-93712500D01*
X137687479Y-93772902D01*
X137662500Y-93898481D01*
X137662500Y-94026519D01*
X137687479Y-94152098D01*
X137712499Y-94212500D01*
X136812500Y-94212500D01*
X136812500Y-95010344D01*
X136818901Y-95069872D01*
X136818903Y-95069879D01*
X136869145Y-95204586D01*
X136869149Y-95204593D01*
X136955309Y-95319687D01*
X136955312Y-95319690D01*
X137070406Y-95405850D01*
X137070413Y-95405854D01*
X137205120Y-95456096D01*
X137205127Y-95456098D01*
X137264655Y-95462499D01*
X137264672Y-95462500D01*
X138062500Y-95462500D01*
X138062500Y-94562501D01*
X138122902Y-94587521D01*
X138248481Y-94612500D01*
X138376519Y-94612500D01*
X138502098Y-94587521D01*
X138562500Y-94562501D01*
X138562500Y-95462500D01*
X139360328Y-95462500D01*
X139360344Y-95462499D01*
X139419872Y-95456098D01*
X139419879Y-95456096D01*
X139554586Y-95405854D01*
X139554593Y-95405850D01*
X139669687Y-95319690D01*
X139669690Y-95319687D01*
X139755850Y-95204593D01*
X139755854Y-95204586D01*
X139806096Y-95069879D01*
X139806098Y-95069872D01*
X139812499Y-95010344D01*
X139812500Y-95010327D01*
X139812500Y-94212500D01*
X138912501Y-94212500D01*
X138937521Y-94152098D01*
X138962500Y-94026519D01*
X138962500Y-93898481D01*
X138937521Y-93772902D01*
X138912501Y-93712500D01*
X139812500Y-93712500D01*
X139812500Y-92914672D01*
X139812499Y-92914655D01*
X139806098Y-92855127D01*
X139806096Y-92855120D01*
X139755854Y-92720413D01*
X139755850Y-92720406D01*
X139669690Y-92605312D01*
X139669687Y-92605309D01*
X139554593Y-92519149D01*
X139554586Y-92519145D01*
X139419879Y-92468903D01*
X139419872Y-92468901D01*
X139360344Y-92462500D01*
X138562500Y-92462500D01*
X138562500Y-93362498D01*
X138502098Y-93337479D01*
X138376519Y-93312500D01*
X138248481Y-93312500D01*
X138122902Y-93337479D01*
X138062500Y-93362498D01*
X138062500Y-92462500D01*
X137264655Y-92462500D01*
X137205127Y-92468901D01*
X137205120Y-92468903D01*
X137070413Y-92519145D01*
X137070406Y-92519149D01*
X136955312Y-92605309D01*
X136955309Y-92605312D01*
X136869149Y-92720406D01*
X136869145Y-92720413D01*
X136818903Y-92855120D01*
X136818901Y-92855127D01*
X136812500Y-92914655D01*
X107500500Y-92914655D01*
X107500500Y-87199986D01*
X128750001Y-87199986D01*
X128760494Y-87302697D01*
X128815641Y-87469119D01*
X128815643Y-87469124D01*
X128907684Y-87618345D01*
X129031654Y-87742315D01*
X129180875Y-87834356D01*
X129180880Y-87834358D01*
X129347302Y-87889505D01*
X129347309Y-87889506D01*
X129450019Y-87899999D01*
X130249999Y-87899999D01*
X130750000Y-87899999D01*
X131549972Y-87899999D01*
X131549986Y-87899998D01*
X131652697Y-87889505D01*
X131819119Y-87834358D01*
X131819124Y-87834356D01*
X131968345Y-87742315D01*
X132092315Y-87618345D01*
X132184356Y-87469124D01*
X132184358Y-87469119D01*
X132239505Y-87302697D01*
X132239506Y-87302690D01*
X132249999Y-87199986D01*
X132250000Y-87199973D01*
X132250000Y-86750000D01*
X130750000Y-86750000D01*
X130750000Y-87899999D01*
X130249999Y-87899999D01*
X130250000Y-87899998D01*
X130250000Y-86750000D01*
X128750001Y-86750000D01*
X128750001Y-87199986D01*
X107500500Y-87199986D01*
X107500500Y-81823138D01*
X127412000Y-81823138D01*
X127412000Y-82101863D01*
X127427453Y-82219253D01*
X127427457Y-82219265D01*
X127487961Y-82365336D01*
X127487964Y-82365341D01*
X127536376Y-82428433D01*
X127561570Y-82493602D01*
X127562000Y-82503919D01*
X127562000Y-84211418D01*
X127562000Y-84211420D01*
X127561999Y-84211420D01*
X127590840Y-84356407D01*
X127590842Y-84356413D01*
X127647416Y-84492994D01*
X127647417Y-84492997D01*
X127648007Y-84493879D01*
X127648019Y-84493918D01*
X127648029Y-84493912D01*
X127709470Y-84585867D01*
X127729551Y-84615920D01*
X127729552Y-84615921D01*
X128260084Y-85146452D01*
X128260086Y-85146454D01*
X128288121Y-85165185D01*
X128333770Y-85195686D01*
X128383005Y-85228584D01*
X128383006Y-85228584D01*
X128383007Y-85228585D01*
X128383009Y-85228586D01*
X128519582Y-85285156D01*
X128519587Y-85285158D01*
X128519591Y-85285158D01*
X128519592Y-85285159D01*
X128664579Y-85314000D01*
X128664582Y-85314000D01*
X128664583Y-85314000D01*
X128727239Y-85314000D01*
X128794278Y-85333685D01*
X128840033Y-85386489D01*
X128849977Y-85455647D01*
X128832778Y-85503097D01*
X128815643Y-85530875D01*
X128815641Y-85530880D01*
X128760494Y-85697302D01*
X128760493Y-85697309D01*
X128750000Y-85800013D01*
X128750000Y-86250000D01*
X132249999Y-86250000D01*
X132249999Y-85800028D01*
X132249998Y-85800013D01*
X132239506Y-85697304D01*
X132207610Y-85601051D01*
X132205208Y-85531222D01*
X132240939Y-85471180D01*
X132303459Y-85439987D01*
X132372919Y-85447547D01*
X132412997Y-85474365D01*
X132713181Y-85774548D01*
X132746666Y-85835871D01*
X132749500Y-85862229D01*
X132749500Y-87200001D01*
X132749501Y-87200018D01*
X132760000Y-87302796D01*
X132760001Y-87302799D01*
X132790667Y-87395342D01*
X132815186Y-87469334D01*
X132907288Y-87618656D01*
X133031344Y-87742712D01*
X133180666Y-87834814D01*
X133347203Y-87889999D01*
X133449991Y-87900500D01*
X135550008Y-87900499D01*
X135652797Y-87889999D01*
X135712265Y-87870292D01*
X135782093Y-87867891D01*
X135838950Y-87900318D01*
X142484078Y-94545447D01*
X142484084Y-94545452D01*
X142546437Y-94587115D01*
X142546445Y-94587119D01*
X142550882Y-94590084D01*
X142607005Y-94627584D01*
X142653054Y-94646658D01*
X142743588Y-94684159D01*
X142859741Y-94707263D01*
X142878968Y-94711087D01*
X142888581Y-94713000D01*
X142888582Y-94713000D01*
X142888583Y-94713000D01*
X143036418Y-94713000D01*
X144439869Y-94713000D01*
X144506908Y-94732685D01*
X144540185Y-94764113D01*
X144667983Y-94940010D01*
X144834990Y-95107017D01*
X145026067Y-95245843D01*
X145097396Y-95282187D01*
X145236503Y-95353066D01*
X145236505Y-95353066D01*
X145236508Y-95353068D01*
X145345719Y-95388553D01*
X145461131Y-95426053D01*
X145694403Y-95463000D01*
X145694408Y-95463000D01*
X145930597Y-95463000D01*
X146163868Y-95426053D01*
X146186818Y-95418596D01*
X146388492Y-95353068D01*
X146598933Y-95245843D01*
X146790010Y-95107017D01*
X146957017Y-94940010D01*
X147095843Y-94748933D01*
X147203068Y-94538492D01*
X147276053Y-94313868D01*
X147292108Y-94212500D01*
X147309255Y-94104240D01*
X147309255Y-94104239D01*
X147313000Y-94080595D01*
X147313000Y-93844402D01*
X147276053Y-93611131D01*
X147226171Y-93457612D01*
X147203068Y-93386508D01*
X147203066Y-93386505D01*
X147203066Y-93386503D01*
X147146022Y-93274548D01*
X147095843Y-93176067D01*
X146957017Y-92984990D01*
X146849182Y-92877155D01*
X150625000Y-92877155D01*
X150625000Y-93675000D01*
X151524999Y-93675000D01*
X151499979Y-93735402D01*
X151475000Y-93860981D01*
X151475000Y-93989019D01*
X151499979Y-94114598D01*
X151524999Y-94175000D01*
X150625000Y-94175000D01*
X150625000Y-94972844D01*
X150631401Y-95032372D01*
X150631403Y-95032379D01*
X150681645Y-95167086D01*
X150681649Y-95167093D01*
X150767809Y-95282187D01*
X150767812Y-95282190D01*
X150882906Y-95368350D01*
X150882913Y-95368354D01*
X151017620Y-95418596D01*
X151017627Y-95418598D01*
X151077155Y-95424999D01*
X151077172Y-95425000D01*
X151875000Y-95425000D01*
X151875000Y-94525001D01*
X151935402Y-94550021D01*
X152060981Y-94575000D01*
X152189019Y-94575000D01*
X152314598Y-94550021D01*
X152375000Y-94525001D01*
X152375000Y-95425000D01*
X153172828Y-95425000D01*
X153172844Y-95424999D01*
X153232372Y-95418598D01*
X153232379Y-95418596D01*
X153367086Y-95368354D01*
X153367093Y-95368350D01*
X153482187Y-95282190D01*
X153482190Y-95282187D01*
X153568350Y-95167093D01*
X153568354Y-95167086D01*
X153618596Y-95032379D01*
X153618598Y-95032372D01*
X153624999Y-94972844D01*
X153625000Y-94972827D01*
X153625000Y-94175000D01*
X152725001Y-94175000D01*
X152750021Y-94114598D01*
X152775000Y-93989019D01*
X152775000Y-93860981D01*
X152750021Y-93735402D01*
X152725001Y-93675000D01*
X153625000Y-93675000D01*
X153625000Y-92877172D01*
X153624999Y-92877155D01*
X153618598Y-92817627D01*
X153618596Y-92817620D01*
X153568354Y-92682913D01*
X153568350Y-92682906D01*
X153482190Y-92567812D01*
X153482187Y-92567809D01*
X153367093Y-92481649D01*
X153367086Y-92481645D01*
X153232379Y-92431403D01*
X153232372Y-92431401D01*
X153172844Y-92425000D01*
X152375000Y-92425000D01*
X152375000Y-93324998D01*
X152314598Y-93299979D01*
X152189019Y-93275000D01*
X152060981Y-93275000D01*
X151935402Y-93299979D01*
X151875000Y-93324998D01*
X151875000Y-92425000D01*
X151077155Y-92425000D01*
X151017627Y-92431401D01*
X151017620Y-92431403D01*
X150882913Y-92481645D01*
X150882906Y-92481649D01*
X150767812Y-92567809D01*
X150767809Y-92567812D01*
X150681649Y-92682906D01*
X150681645Y-92682913D01*
X150631403Y-92817620D01*
X150631401Y-92817627D01*
X150625000Y-92877155D01*
X146849182Y-92877155D01*
X146790010Y-92817983D01*
X146598933Y-92679157D01*
X146546981Y-92652686D01*
X146388496Y-92571933D01*
X146163868Y-92498946D01*
X145930597Y-92462000D01*
X145930592Y-92462000D01*
X145694408Y-92462000D01*
X145694403Y-92462000D01*
X145461131Y-92498946D01*
X145236503Y-92571933D01*
X145026066Y-92679157D01*
X144969283Y-92720413D01*
X144834990Y-92817983D01*
X144834988Y-92817985D01*
X144834987Y-92817985D01*
X144667985Y-92984987D01*
X144667985Y-92984988D01*
X144667983Y-92984990D01*
X144540187Y-93160886D01*
X144484857Y-93203551D01*
X144439869Y-93212000D01*
X143324730Y-93212000D01*
X143257691Y-93192315D01*
X143237049Y-93175681D01*
X142023549Y-91962181D01*
X141990064Y-91900858D01*
X141995048Y-91831166D01*
X142036920Y-91775233D01*
X142102384Y-91750816D01*
X142111230Y-91750500D01*
X148335170Y-91750500D01*
X148432712Y-91731096D01*
X148480163Y-91721658D01*
X148616745Y-91665084D01*
X148665979Y-91632186D01*
X148739666Y-91582952D01*
X151970451Y-88352166D01*
X152052584Y-88229245D01*
X152109158Y-88092663D01*
X152122717Y-88024499D01*
X152138000Y-87947670D01*
X152138000Y-86864499D01*
X152157685Y-86797460D01*
X152210489Y-86751705D01*
X152262000Y-86740499D01*
X152540371Y-86740499D01*
X152540372Y-86740499D01*
X152599983Y-86734091D01*
X152734831Y-86683796D01*
X152850046Y-86597546D01*
X152936296Y-86482331D01*
X152986591Y-86347483D01*
X152993000Y-86287873D01*
X152992999Y-83982128D01*
X152986591Y-83922517D01*
X152947737Y-83818345D01*
X152936297Y-83787671D01*
X152936293Y-83787664D01*
X152850047Y-83672455D01*
X152850044Y-83672452D01*
X152734835Y-83586206D01*
X152734828Y-83586202D01*
X152599982Y-83535908D01*
X152599983Y-83535908D01*
X152540383Y-83529501D01*
X152540381Y-83529500D01*
X152540373Y-83529500D01*
X152540364Y-83529500D01*
X150234629Y-83529500D01*
X150234623Y-83529501D01*
X150175016Y-83535908D01*
X150040171Y-83586202D01*
X150040164Y-83586206D01*
X149924955Y-83672452D01*
X149924952Y-83672455D01*
X149838706Y-83787664D01*
X149838702Y-83787671D01*
X149788408Y-83922517D01*
X149782882Y-83973920D01*
X149782001Y-83982123D01*
X149782000Y-83982135D01*
X149782000Y-86287870D01*
X149782001Y-86287876D01*
X149788408Y-86347483D01*
X149838702Y-86482328D01*
X149838706Y-86482335D01*
X149924952Y-86597544D01*
X149924955Y-86597547D01*
X150040164Y-86683793D01*
X150040171Y-86683797D01*
X150085118Y-86700561D01*
X150175017Y-86734091D01*
X150234627Y-86740500D01*
X150513001Y-86740499D01*
X150580039Y-86760183D01*
X150625794Y-86812987D01*
X150637000Y-86864499D01*
X150637000Y-87511520D01*
X150617315Y-87578559D01*
X150600681Y-87599201D01*
X147986701Y-90213181D01*
X147925378Y-90246666D01*
X147899020Y-90249500D01*
X142399730Y-90249500D01*
X142332691Y-90229815D01*
X142312049Y-90213181D01*
X135736818Y-83637950D01*
X135703333Y-83576627D01*
X135700499Y-83550269D01*
X135700499Y-83061229D01*
X135720184Y-82994190D01*
X135772988Y-82948435D01*
X135842146Y-82938491D01*
X135905702Y-82967516D01*
X135912180Y-82973548D01*
X142521586Y-89582954D01*
X142544422Y-89598211D01*
X142595270Y-89632186D01*
X142644505Y-89665084D01*
X142701080Y-89688518D01*
X142781088Y-89721659D01*
X142897241Y-89744763D01*
X142916468Y-89748587D01*
X142926081Y-89750500D01*
X142926082Y-89750500D01*
X146073920Y-89750500D01*
X146171462Y-89731096D01*
X146218913Y-89721658D01*
X146355495Y-89665084D01*
X146404729Y-89632186D01*
X146478416Y-89582952D01*
X148582951Y-87478416D01*
X148638464Y-87395334D01*
X148665084Y-87355495D01*
X148721658Y-87218913D01*
X148750500Y-87073918D01*
X148750500Y-82362229D01*
X148770185Y-82295190D01*
X148786819Y-82274548D01*
X149774548Y-81286819D01*
X149835871Y-81253334D01*
X149862229Y-81250500D01*
X157125500Y-81250500D01*
X157192539Y-81270185D01*
X157238294Y-81322989D01*
X157249500Y-81374500D01*
X157249500Y-84928159D01*
X157229815Y-84995198D01*
X157177011Y-85040953D01*
X157107853Y-85050897D01*
X157044297Y-85021872D01*
X157006523Y-84963094D01*
X157003027Y-84947557D01*
X157000868Y-84933927D01*
X156988932Y-84858566D01*
X156988931Y-84858562D01*
X156988931Y-84858561D01*
X156931513Y-84681847D01*
X156908779Y-84637229D01*
X156847154Y-84516283D01*
X156737935Y-84365956D01*
X156606544Y-84234565D01*
X156456217Y-84125346D01*
X156385049Y-84089084D01*
X156290652Y-84040986D01*
X156113937Y-83983568D01*
X155976288Y-83961767D01*
X155930407Y-83954500D01*
X155744593Y-83954500D01*
X155683417Y-83964189D01*
X155561064Y-83983568D01*
X155561061Y-83983568D01*
X155384347Y-84040986D01*
X155218782Y-84125346D01*
X155133015Y-84187659D01*
X155068456Y-84234565D01*
X155068454Y-84234567D01*
X155068453Y-84234567D01*
X154937067Y-84365953D01*
X154937067Y-84365954D01*
X154937065Y-84365956D01*
X154928011Y-84378418D01*
X154827846Y-84516282D01*
X154743486Y-84681847D01*
X154686068Y-84858561D01*
X154686068Y-84858564D01*
X154675045Y-84928159D01*
X154657000Y-85042093D01*
X154657000Y-85227907D01*
X154657108Y-85228586D01*
X154686068Y-85411435D01*
X154686068Y-85411438D01*
X154743486Y-85588152D01*
X154799049Y-85697200D01*
X154827846Y-85753717D01*
X154937065Y-85904044D01*
X155068456Y-86035435D01*
X155218783Y-86144654D01*
X155384345Y-86229012D01*
X155384347Y-86229013D01*
X155561062Y-86286431D01*
X155561063Y-86286431D01*
X155561066Y-86286432D01*
X155744593Y-86315500D01*
X155744594Y-86315500D01*
X155930406Y-86315500D01*
X155930407Y-86315500D01*
X156113934Y-86286432D01*
X156113937Y-86286431D01*
X156113938Y-86286431D01*
X156290652Y-86229013D01*
X156290652Y-86229012D01*
X156290655Y-86229012D01*
X156456217Y-86144654D01*
X156606544Y-86035435D01*
X156737935Y-85904044D01*
X156847154Y-85753717D01*
X156931512Y-85588155D01*
X156950192Y-85530663D01*
X156988931Y-85411438D01*
X156988931Y-85411437D01*
X156988932Y-85411434D01*
X157003027Y-85322441D01*
X157032956Y-85259307D01*
X157092268Y-85222376D01*
X157162130Y-85223374D01*
X157220363Y-85261984D01*
X157248477Y-85325947D01*
X157249500Y-85341840D01*
X157249500Y-90637769D01*
X157229815Y-90704808D01*
X157213181Y-90725450D01*
X155417050Y-92521580D01*
X155417044Y-92521588D01*
X155367812Y-92595268D01*
X155367813Y-92595269D01*
X155334921Y-92644496D01*
X155334914Y-92644508D01*
X155278342Y-92781086D01*
X155278340Y-92781092D01*
X155249500Y-92926079D01*
X155249500Y-92926082D01*
X155249500Y-101073918D01*
X155249500Y-101073920D01*
X155249499Y-101073920D01*
X155278340Y-101218907D01*
X155278343Y-101218917D01*
X155334914Y-101355492D01*
X155367812Y-101404727D01*
X155367813Y-101404730D01*
X155417046Y-101478414D01*
X155417052Y-101478421D01*
X165581452Y-111642819D01*
X165614937Y-111704142D01*
X165609953Y-111773834D01*
X165568081Y-111829767D01*
X165502617Y-111854184D01*
X165493771Y-111854500D01*
X160610269Y-111854500D01*
X160562816Y-111845061D01*
X160359620Y-111760894D01*
X160070854Y-111683519D01*
X159774473Y-111644501D01*
X159774472Y-111644501D01*
X159475528Y-111644501D01*
X159475527Y-111644501D01*
X159179145Y-111683519D01*
X158890379Y-111760894D01*
X158614203Y-111875290D01*
X158614194Y-111875294D01*
X158462284Y-111963000D01*
X158382302Y-112009178D01*
X158355299Y-112024768D01*
X158118137Y-112206748D01*
X158118130Y-112206754D01*
X157906754Y-112418130D01*
X157906748Y-112418137D01*
X157724768Y-112655299D01*
X157575294Y-112914194D01*
X157575290Y-112914203D01*
X157460894Y-113190379D01*
X157383519Y-113479145D01*
X157344501Y-113775527D01*
X157344501Y-114074472D01*
X157383519Y-114370854D01*
X157460894Y-114659620D01*
X157547879Y-114869620D01*
X157575293Y-114935803D01*
X157724765Y-115194696D01*
X157724767Y-115194699D01*
X157724768Y-115194700D01*
X157906748Y-115431862D01*
X157906754Y-115431869D01*
X158328130Y-115853245D01*
X158328137Y-115853251D01*
X158363975Y-115880750D01*
X158461559Y-115955629D01*
X158564235Y-116034414D01*
X158564246Y-116034430D01*
X158564250Y-116034426D01*
X158565305Y-116035236D01*
X158565306Y-116035237D01*
X158824193Y-116184705D01*
X158824194Y-116184705D01*
X158824197Y-116184707D01*
X159100384Y-116299107D01*
X159389142Y-116376480D01*
X159685528Y-116415500D01*
X159685535Y-116415500D01*
X166961965Y-116415500D01*
X166961972Y-116415500D01*
X167258358Y-116376480D01*
X167547116Y-116299107D01*
X167823303Y-116184707D01*
X168082196Y-116035235D01*
X168319364Y-115853249D01*
X168530749Y-115641864D01*
X168712735Y-115404696D01*
X168862207Y-115145803D01*
X168976607Y-114869616D01*
X169053980Y-114580858D01*
X169093000Y-114284472D01*
X169093000Y-113985528D01*
X169053980Y-113689142D01*
X168976607Y-113400384D01*
X168862207Y-113124197D01*
X168712735Y-112865304D01*
X168580367Y-112692799D01*
X168530750Y-112628137D01*
X168530744Y-112628130D01*
X168319369Y-112416755D01*
X168319362Y-112416749D01*
X168082204Y-112234771D01*
X168082202Y-112234769D01*
X168082196Y-112234765D01*
X168082191Y-112234762D01*
X168082188Y-112234760D01*
X167823310Y-112085296D01*
X167823298Y-112085291D01*
X167639547Y-112009178D01*
X167585144Y-111965337D01*
X167563079Y-111899043D01*
X167563000Y-111894617D01*
X167563000Y-111738579D01*
X167534159Y-111593592D01*
X167534158Y-111593591D01*
X167534158Y-111593587D01*
X167524187Y-111569514D01*
X167477587Y-111457011D01*
X167477580Y-111456998D01*
X167395452Y-111334085D01*
X167395451Y-111334084D01*
X167290916Y-111229549D01*
X163720045Y-107658678D01*
X165207500Y-107658678D01*
X165207500Y-107911321D01*
X165247019Y-108160838D01*
X165325089Y-108401110D01*
X165439781Y-108626203D01*
X165514669Y-108729276D01*
X165514669Y-108729277D01*
X166000393Y-108243552D01*
X166090122Y-108377841D01*
X166219659Y-108507378D01*
X166353946Y-108597105D01*
X165868221Y-109082829D01*
X165971296Y-109157718D01*
X166196389Y-109272410D01*
X166436661Y-109350480D01*
X166686179Y-109390000D01*
X166938821Y-109390000D01*
X167188338Y-109350480D01*
X167428610Y-109272410D01*
X167653702Y-109157719D01*
X167756776Y-109082829D01*
X167756777Y-109082829D01*
X167271053Y-108597105D01*
X167405341Y-108507378D01*
X167534878Y-108377841D01*
X167624605Y-108243553D01*
X168110329Y-108729277D01*
X168110329Y-108729276D01*
X168185219Y-108626202D01*
X168299910Y-108401110D01*
X168377980Y-108160838D01*
X168417500Y-107911321D01*
X168417500Y-107658678D01*
X168377980Y-107409161D01*
X168299910Y-107168889D01*
X168185218Y-106943796D01*
X168110329Y-106840722D01*
X168110329Y-106840721D01*
X167624605Y-107326445D01*
X167534878Y-107192159D01*
X167405341Y-107062622D01*
X167271051Y-106972893D01*
X167756777Y-106487169D01*
X167653703Y-106412281D01*
X167428610Y-106297589D01*
X167188338Y-106219519D01*
X166938821Y-106180000D01*
X166686179Y-106180000D01*
X166436661Y-106219519D01*
X166196389Y-106297589D01*
X165971293Y-106412283D01*
X165868222Y-106487168D01*
X165868221Y-106487169D01*
X166353946Y-106972894D01*
X166219659Y-107062622D01*
X166090122Y-107192159D01*
X166000394Y-107326446D01*
X165514669Y-106840721D01*
X165514668Y-106840722D01*
X165439783Y-106943793D01*
X165325089Y-107168889D01*
X165247019Y-107409161D01*
X165207500Y-107658678D01*
X163720045Y-107658678D01*
X156786819Y-100725451D01*
X156753334Y-100664128D01*
X156750500Y-100637770D01*
X156750500Y-93362229D01*
X156770185Y-93295190D01*
X156786819Y-93274548D01*
X158582948Y-91478419D01*
X158582951Y-91478416D01*
X158623287Y-91418049D01*
X158647398Y-91381965D01*
X158701010Y-91337159D01*
X158770335Y-91328452D01*
X158833362Y-91358606D01*
X158870082Y-91418049D01*
X158874500Y-91450855D01*
X158874500Y-92552368D01*
X158854815Y-92619407D01*
X158823386Y-92652686D01*
X158647488Y-92780484D01*
X158480485Y-92947487D01*
X158480485Y-92947488D01*
X158480483Y-92947490D01*
X158471525Y-92959820D01*
X158341657Y-93138566D01*
X158234433Y-93349003D01*
X158161446Y-93573631D01*
X158124500Y-93806902D01*
X158124500Y-94043097D01*
X158161446Y-94276368D01*
X158234433Y-94500996D01*
X158308653Y-94646659D01*
X158341657Y-94711433D01*
X158480483Y-94902510D01*
X158647490Y-95069517D01*
X158838567Y-95208343D01*
X158912163Y-95245842D01*
X159049003Y-95315566D01*
X159049005Y-95315566D01*
X159049008Y-95315568D01*
X159164415Y-95353066D01*
X159273631Y-95388553D01*
X159506903Y-95425500D01*
X159506908Y-95425500D01*
X159743097Y-95425500D01*
X159976368Y-95388553D01*
X160200992Y-95315568D01*
X160411433Y-95208343D01*
X160602510Y-95069517D01*
X160769517Y-94902510D01*
X160897313Y-94726613D01*
X160952643Y-94683949D01*
X160997631Y-94675500D01*
X161148920Y-94675500D01*
X161246462Y-94656096D01*
X161293913Y-94646658D01*
X161430495Y-94590084D01*
X161497292Y-94545452D01*
X161497295Y-94545449D01*
X161497297Y-94545449D01*
X161525541Y-94526576D01*
X161553416Y-94507952D01*
X167582951Y-88478416D01*
X167665084Y-88355495D01*
X167721658Y-88218913D01*
X167746771Y-88092667D01*
X167750500Y-88073920D01*
X167750500Y-88024499D01*
X167770185Y-87957460D01*
X167822989Y-87911705D01*
X167874500Y-87900499D01*
X168050002Y-87900499D01*
X168050008Y-87900499D01*
X168152797Y-87889999D01*
X168319334Y-87834814D01*
X168468656Y-87742712D01*
X168592712Y-87618656D01*
X168684814Y-87469334D01*
X168739999Y-87302797D01*
X168750500Y-87200009D01*
X168750499Y-85799992D01*
X168739999Y-85697203D01*
X168684814Y-85530666D01*
X168592712Y-85381344D01*
X168468656Y-85257288D01*
X168319334Y-85165186D01*
X168152797Y-85110001D01*
X168152795Y-85110000D01*
X168050010Y-85099500D01*
X165949998Y-85099500D01*
X165949981Y-85099501D01*
X165847203Y-85110000D01*
X165847200Y-85110001D01*
X165680668Y-85165185D01*
X165680663Y-85165187D01*
X165531342Y-85257289D01*
X165407289Y-85381342D01*
X165315187Y-85530663D01*
X165315185Y-85530668D01*
X165296137Y-85588152D01*
X165260001Y-85697203D01*
X165260001Y-85697204D01*
X165260000Y-85697204D01*
X165249500Y-85799983D01*
X165249500Y-87200001D01*
X165249501Y-87200018D01*
X165260000Y-87302796D01*
X165260001Y-87302799D01*
X165290667Y-87395342D01*
X165315186Y-87469334D01*
X165407288Y-87618656D01*
X165531344Y-87742712D01*
X165680666Y-87834814D01*
X165807669Y-87876898D01*
X165865113Y-87916671D01*
X165891936Y-87981187D01*
X165879621Y-88049962D01*
X165856345Y-88082285D01*
X160965439Y-92973191D01*
X160904116Y-93006676D01*
X160834424Y-93001692D01*
X160778491Y-92959820D01*
X160777440Y-92958395D01*
X160769519Y-92947493D01*
X160769514Y-92947487D01*
X160602511Y-92780484D01*
X160426614Y-92652686D01*
X160383949Y-92597355D01*
X160375500Y-92552368D01*
X160375500Y-87199986D01*
X161250001Y-87199986D01*
X161260494Y-87302697D01*
X161315641Y-87469119D01*
X161315643Y-87469124D01*
X161407684Y-87618345D01*
X161531654Y-87742315D01*
X161680875Y-87834356D01*
X161680880Y-87834358D01*
X161847302Y-87889505D01*
X161847309Y-87889506D01*
X161950019Y-87899999D01*
X162749999Y-87899999D01*
X163250000Y-87899999D01*
X164049972Y-87899999D01*
X164049986Y-87899998D01*
X164152697Y-87889505D01*
X164319119Y-87834358D01*
X164319124Y-87834356D01*
X164468345Y-87742315D01*
X164592315Y-87618345D01*
X164684356Y-87469124D01*
X164684358Y-87469119D01*
X164739505Y-87302697D01*
X164739506Y-87302690D01*
X164749999Y-87199986D01*
X164750000Y-87199973D01*
X164750000Y-86750000D01*
X163250000Y-86750000D01*
X163250000Y-87899999D01*
X162749999Y-87899999D01*
X162750000Y-87899998D01*
X162750000Y-86750000D01*
X161250001Y-86750000D01*
X161250001Y-87199986D01*
X160375500Y-87199986D01*
X160375500Y-85800013D01*
X161250000Y-85800013D01*
X161250000Y-86250000D01*
X162750000Y-86250000D01*
X163250000Y-86250000D01*
X164749999Y-86250000D01*
X164749999Y-85800028D01*
X164749998Y-85800013D01*
X164739505Y-85697302D01*
X164684358Y-85530880D01*
X164684356Y-85530875D01*
X164592315Y-85381654D01*
X164468345Y-85257684D01*
X164319124Y-85165643D01*
X164319119Y-85165641D01*
X164152697Y-85110494D01*
X164152690Y-85110493D01*
X164049986Y-85100000D01*
X163250000Y-85100000D01*
X163250000Y-86250000D01*
X162750000Y-86250000D01*
X162750000Y-85100000D01*
X161950028Y-85100000D01*
X161950012Y-85100001D01*
X161847302Y-85110494D01*
X161680880Y-85165641D01*
X161680875Y-85165643D01*
X161531654Y-85257684D01*
X161407684Y-85381654D01*
X161315643Y-85530875D01*
X161315641Y-85530880D01*
X161260494Y-85697302D01*
X161260493Y-85697309D01*
X161250000Y-85800013D01*
X160375500Y-85800013D01*
X160375500Y-84637229D01*
X160395185Y-84570190D01*
X160411819Y-84549548D01*
X160582949Y-84378418D01*
X160582951Y-84378416D01*
X160597653Y-84356413D01*
X160665084Y-84255495D01*
X160721658Y-84118913D01*
X160737159Y-84040986D01*
X160750500Y-83973920D01*
X160750500Y-83399986D01*
X164800001Y-83399986D01*
X164810494Y-83502697D01*
X164865641Y-83669119D01*
X164865643Y-83669124D01*
X164957684Y-83818345D01*
X165081654Y-83942315D01*
X165230875Y-84034356D01*
X165230880Y-84034358D01*
X165397302Y-84089505D01*
X165397309Y-84089506D01*
X165500019Y-84099999D01*
X165749999Y-84099999D01*
X166250000Y-84099999D01*
X166499972Y-84099999D01*
X166499986Y-84099998D01*
X166602697Y-84089505D01*
X166769119Y-84034358D01*
X166769124Y-84034356D01*
X166918345Y-83942315D01*
X167042315Y-83818345D01*
X167134356Y-83669124D01*
X167134358Y-83669119D01*
X167189505Y-83502697D01*
X167189506Y-83502690D01*
X167199999Y-83399986D01*
X167200000Y-83399973D01*
X167200000Y-83250000D01*
X166250000Y-83250000D01*
X166250000Y-84099999D01*
X165749999Y-84099999D01*
X165750000Y-84099998D01*
X165750000Y-83250000D01*
X164800001Y-83250000D01*
X164800001Y-83399986D01*
X160750500Y-83399986D01*
X160750500Y-83276290D01*
X160757706Y-83251747D01*
X160760990Y-83226375D01*
X160767387Y-83218777D01*
X160770185Y-83209251D01*
X160789514Y-83192502D01*
X160805995Y-83172931D01*
X160815484Y-83169998D01*
X160822989Y-83163496D01*
X160848306Y-83159855D01*
X160872750Y-83152302D01*
X160884793Y-83154609D01*
X160892147Y-83153552D01*
X160907752Y-83156832D01*
X160914997Y-83158848D01*
X160978238Y-83185044D01*
X161036796Y-83192752D01*
X161045207Y-83195094D01*
X161057143Y-83202529D01*
X161080846Y-83211450D01*
X161082828Y-83212774D01*
X161082830Y-83212776D01*
X161128944Y-83243588D01*
X161189373Y-83283965D01*
X161307756Y-83333001D01*
X161307760Y-83333001D01*
X161307761Y-83333002D01*
X161433428Y-83358000D01*
X161433431Y-83358000D01*
X162256571Y-83358000D01*
X162341115Y-83341182D01*
X162382244Y-83333001D01*
X162500627Y-83283965D01*
X162561056Y-83243588D01*
X162607169Y-83212777D01*
X162656947Y-83162999D01*
X162708990Y-83110957D01*
X164133127Y-81686819D01*
X164194450Y-81653334D01*
X164220808Y-81650500D01*
X164784362Y-81650500D01*
X164851401Y-81670185D01*
X164889899Y-81709401D01*
X164957287Y-81818654D01*
X164957289Y-81818657D01*
X165051304Y-81912672D01*
X165084789Y-81973995D01*
X165079805Y-82043687D01*
X165051305Y-82088034D01*
X164957682Y-82181657D01*
X164865643Y-82330875D01*
X164865641Y-82330880D01*
X164810494Y-82497302D01*
X164810493Y-82497309D01*
X164800000Y-82600013D01*
X164800000Y-82750000D01*
X167199999Y-82750000D01*
X167199999Y-82600028D01*
X167199998Y-82600013D01*
X167189505Y-82497302D01*
X167134358Y-82330880D01*
X167134356Y-82330875D01*
X167042315Y-82181654D01*
X166948695Y-82088034D01*
X166915210Y-82026711D01*
X166920194Y-81957019D01*
X166948691Y-81912676D01*
X167042712Y-81818656D01*
X167134814Y-81669334D01*
X167189999Y-81502797D01*
X167200500Y-81400009D01*
X167200499Y-80599992D01*
X167189999Y-80497203D01*
X167134814Y-80330666D01*
X167042712Y-80181344D01*
X166918656Y-80057288D01*
X166802713Y-79985774D01*
X166755989Y-79933826D01*
X166746193Y-79904427D01*
X166721659Y-79781092D01*
X166721658Y-79781091D01*
X166721658Y-79781087D01*
X166708574Y-79749500D01*
X166665087Y-79644511D01*
X166665080Y-79644498D01*
X166582952Y-79521585D01*
X166558664Y-79497297D01*
X166478416Y-79417049D01*
X166440078Y-79378711D01*
X180149500Y-79378711D01*
X180149500Y-79621288D01*
X180181161Y-79861785D01*
X180243947Y-80096104D01*
X180336773Y-80320205D01*
X180336776Y-80320212D01*
X180458064Y-80530289D01*
X180458066Y-80530292D01*
X180458067Y-80530293D01*
X180605733Y-80722736D01*
X180605739Y-80722743D01*
X180777256Y-80894260D01*
X180777262Y-80894265D01*
X180969711Y-81041936D01*
X181179788Y-81163224D01*
X181403900Y-81256054D01*
X181638211Y-81318838D01*
X181818586Y-81342584D01*
X181878711Y-81350500D01*
X181878712Y-81350500D01*
X182121289Y-81350500D01*
X182169388Y-81344167D01*
X182361789Y-81318838D01*
X182596100Y-81256054D01*
X182820212Y-81163224D01*
X183030289Y-81041936D01*
X183222738Y-80894265D01*
X183394265Y-80722738D01*
X183541936Y-80530289D01*
X183663224Y-80320212D01*
X183756054Y-80096100D01*
X183818838Y-79861789D01*
X183850500Y-79621288D01*
X183850500Y-79378712D01*
X183849253Y-79369243D01*
X183818838Y-79138214D01*
X183818838Y-79138211D01*
X183756054Y-78903900D01*
X183663224Y-78679788D01*
X183541936Y-78469711D01*
X183394265Y-78277262D01*
X183394260Y-78277256D01*
X183222743Y-78105739D01*
X183222736Y-78105733D01*
X183030293Y-77958067D01*
X183030292Y-77958066D01*
X183030289Y-77958064D01*
X182820212Y-77836776D01*
X182820205Y-77836773D01*
X182596104Y-77743947D01*
X182361785Y-77681161D01*
X182121289Y-77649500D01*
X182121288Y-77649500D01*
X181878712Y-77649500D01*
X181878711Y-77649500D01*
X181638214Y-77681161D01*
X181403895Y-77743947D01*
X181179794Y-77836773D01*
X181179785Y-77836777D01*
X180969706Y-77958067D01*
X180777263Y-78105733D01*
X180777256Y-78105739D01*
X180605739Y-78277256D01*
X180605733Y-78277263D01*
X180458067Y-78469706D01*
X180336777Y-78679785D01*
X180336773Y-78679794D01*
X180243947Y-78903895D01*
X180181161Y-79138214D01*
X180149500Y-79378711D01*
X166440078Y-79378711D01*
X166163840Y-79102473D01*
X164478421Y-77417052D01*
X164478414Y-77417046D01*
X164404729Y-77367812D01*
X164404729Y-77367813D01*
X164355491Y-77334913D01*
X164218917Y-77278343D01*
X164218907Y-77278340D01*
X164073920Y-77249500D01*
X164073918Y-77249500D01*
X147926082Y-77249500D01*
X147926080Y-77249500D01*
X147922316Y-77250249D01*
X147922309Y-77250250D01*
X147781095Y-77278338D01*
X147781095Y-77278339D01*
X147781092Y-77278340D01*
X147781088Y-77278341D01*
X147701080Y-77311481D01*
X147701078Y-77311481D01*
X147644505Y-77334915D01*
X147562372Y-77389795D01*
X147521585Y-77417047D01*
X147521581Y-77417050D01*
X144454547Y-80484084D01*
X144454543Y-80484089D01*
X144430692Y-80519787D01*
X144430692Y-80519788D01*
X144372413Y-80607008D01*
X144315843Y-80743582D01*
X144315840Y-80743592D01*
X144287000Y-80888579D01*
X144287000Y-83639515D01*
X144267315Y-83706554D01*
X144219298Y-83749998D01*
X144196036Y-83761851D01*
X144126071Y-83812684D01*
X143991587Y-83910393D01*
X143991585Y-83910395D01*
X143991584Y-83910395D01*
X143812895Y-84089084D01*
X143812895Y-84089085D01*
X143812893Y-84089087D01*
X143749100Y-84176889D01*
X143664353Y-84293533D01*
X143549625Y-84518697D01*
X143471532Y-84759043D01*
X143432000Y-85008638D01*
X143432000Y-85261361D01*
X143471532Y-85510956D01*
X143549625Y-85751302D01*
X143627453Y-85904046D01*
X143664353Y-85976466D01*
X143812893Y-86180913D01*
X143991587Y-86359607D01*
X144196034Y-86508147D01*
X144302416Y-86562351D01*
X144421197Y-86622874D01*
X144421199Y-86622874D01*
X144421202Y-86622876D01*
X144661544Y-86700968D01*
X144790138Y-86721335D01*
X144911139Y-86740500D01*
X144911144Y-86740500D01*
X145163861Y-86740500D01*
X145274165Y-86723028D01*
X145413456Y-86700968D01*
X145653798Y-86622876D01*
X145878966Y-86508147D01*
X146083413Y-86359607D01*
X146262107Y-86180913D01*
X146410647Y-85976466D01*
X146525376Y-85751298D01*
X146603468Y-85510956D01*
X146630253Y-85341840D01*
X146643000Y-85261361D01*
X146643000Y-85008638D01*
X146619230Y-84858561D01*
X146603468Y-84759044D01*
X146525376Y-84518702D01*
X146525374Y-84518699D01*
X146525374Y-84518697D01*
X146410646Y-84293533D01*
X146262107Y-84089087D01*
X146083413Y-83910393D01*
X145878966Y-83761853D01*
X145878965Y-83761852D01*
X145878963Y-83761851D01*
X145855702Y-83749998D01*
X145804907Y-83702022D01*
X145788000Y-83639515D01*
X145788000Y-81324729D01*
X145807685Y-81257690D01*
X145824319Y-81237048D01*
X148274548Y-78786819D01*
X148335871Y-78753334D01*
X148362229Y-78750500D01*
X163637770Y-78750500D01*
X163704809Y-78770185D01*
X163725451Y-78786819D01*
X164355681Y-79417049D01*
X164951094Y-80012461D01*
X164965553Y-80038941D01*
X164982086Y-80064188D01*
X164982129Y-80069298D01*
X164984579Y-80073784D01*
X164982426Y-80103877D01*
X164982686Y-80134055D01*
X164979876Y-80139546D01*
X164979595Y-80143476D01*
X164968300Y-80166284D01*
X164961389Y-80177242D01*
X164957288Y-80181344D01*
X164889571Y-80291130D01*
X164889249Y-80291642D01*
X164863533Y-80314313D01*
X164837953Y-80337322D01*
X164837255Y-80337480D01*
X164836839Y-80337848D01*
X164833185Y-80338405D01*
X164784362Y-80349500D01*
X163835929Y-80349500D01*
X163710261Y-80374497D01*
X163710251Y-80374500D01*
X163661220Y-80394810D01*
X163591881Y-80423530D01*
X163591863Y-80423540D01*
X163485332Y-80494721D01*
X163485325Y-80494727D01*
X162257180Y-81722872D01*
X162195857Y-81756357D01*
X162126165Y-81751373D01*
X162070232Y-81709501D01*
X162045815Y-81644037D01*
X162045499Y-81635218D01*
X162045499Y-81360640D01*
X162045499Y-81360636D01*
X162030046Y-81243246D01*
X162030044Y-81243241D01*
X162030044Y-81243238D01*
X161969536Y-81097159D01*
X161873282Y-80971718D01*
X161747841Y-80875464D01*
X161747839Y-80875463D01*
X161601763Y-80814956D01*
X161596989Y-80813677D01*
X161595914Y-80813383D01*
X161588621Y-80811358D01*
X161508913Y-80778342D01*
X161370638Y-80750836D01*
X161366173Y-80749597D01*
X161340266Y-80733484D01*
X161313243Y-80719348D01*
X161311665Y-80717798D01*
X160510921Y-79917052D01*
X160510920Y-79917051D01*
X160492026Y-79904427D01*
X160428213Y-79861789D01*
X160387995Y-79834916D01*
X160387993Y-79834915D01*
X160387990Y-79834913D01*
X160251417Y-79778343D01*
X160251407Y-79778340D01*
X160106420Y-79749500D01*
X160106418Y-79749500D01*
X158073918Y-79749500D01*
X149573917Y-79749500D01*
X149426082Y-79749500D01*
X149426080Y-79749500D01*
X149281092Y-79778340D01*
X149281082Y-79778343D01*
X149144511Y-79834912D01*
X149144498Y-79834919D01*
X149021584Y-79917048D01*
X149021580Y-79917051D01*
X147417045Y-81521586D01*
X147380381Y-81576462D01*
X147380379Y-81576465D01*
X147334919Y-81644499D01*
X147334912Y-81644511D01*
X147278343Y-81781082D01*
X147278340Y-81781092D01*
X147249500Y-81926079D01*
X147249500Y-86637770D01*
X147229815Y-86704809D01*
X147213181Y-86725451D01*
X145725451Y-88213181D01*
X145664128Y-88246666D01*
X145637770Y-88249500D01*
X143362230Y-88249500D01*
X143295191Y-88229815D01*
X143274549Y-88213181D01*
X135940921Y-80879552D01*
X135940914Y-80879546D01*
X135867229Y-80830312D01*
X135867229Y-80830313D01*
X135817991Y-80797413D01*
X135681415Y-80740842D01*
X135681410Y-80740841D01*
X135644493Y-80733497D01*
X135582583Y-80701110D01*
X135563150Y-80676980D01*
X135542712Y-80643844D01*
X135418656Y-80519788D01*
X135269334Y-80427686D01*
X135102797Y-80372501D01*
X135102795Y-80372500D01*
X135000010Y-80362000D01*
X133999998Y-80362000D01*
X133999980Y-80362001D01*
X133897203Y-80372500D01*
X133897200Y-80372501D01*
X133730668Y-80427685D01*
X133730663Y-80427687D01*
X133581342Y-80519789D01*
X133457289Y-80643842D01*
X133457288Y-80643844D01*
X133436852Y-80676977D01*
X133428451Y-80690597D01*
X133376503Y-80737321D01*
X133322912Y-80749500D01*
X132039480Y-80749500D01*
X132000030Y-80741652D01*
X131999740Y-80742610D01*
X131993907Y-80740840D01*
X131848920Y-80712000D01*
X131848918Y-80712000D01*
X129383582Y-80712000D01*
X129383580Y-80712000D01*
X129238593Y-80740840D01*
X129238590Y-80740841D01*
X129238588Y-80740841D01*
X129238587Y-80740842D01*
X129217450Y-80749597D01*
X129165859Y-80770966D01*
X129150509Y-80776177D01*
X129145739Y-80777455D01*
X128999660Y-80837963D01*
X128874218Y-80934218D01*
X128777963Y-81059660D01*
X128717456Y-81205737D01*
X128717453Y-81205748D01*
X128717275Y-81207104D01*
X128716806Y-81208161D01*
X128715353Y-81213588D01*
X128714506Y-81213361D01*
X128707600Y-81228967D01*
X128702106Y-81252242D01*
X128693718Y-81260338D01*
X128689002Y-81270998D01*
X128669039Y-81284162D01*
X128651837Y-81300769D01*
X128640405Y-81303045D01*
X128630674Y-81309463D01*
X128606763Y-81309745D01*
X128583313Y-81314415D01*
X128566246Y-81310222D01*
X128560809Y-81310287D01*
X128548963Y-81306306D01*
X128547956Y-81305910D01*
X128479262Y-81277456D01*
X128473741Y-81276729D01*
X128461213Y-81271803D01*
X128460908Y-81271566D01*
X128459137Y-81270965D01*
X128413934Y-81252242D01*
X128386412Y-81240842D01*
X128386410Y-81240841D01*
X128386406Y-81240840D01*
X128241419Y-81212000D01*
X128241417Y-81212000D01*
X128093583Y-81212000D01*
X128093581Y-81212000D01*
X127948594Y-81240840D01*
X127948591Y-81240841D01*
X127948589Y-81240841D01*
X127948588Y-81240842D01*
X127901520Y-81260338D01*
X127875866Y-81270964D01*
X127860517Y-81276175D01*
X127855738Y-81277455D01*
X127709660Y-81337963D01*
X127584218Y-81434218D01*
X127487963Y-81559660D01*
X127427456Y-81705737D01*
X127427455Y-81705739D01*
X127412000Y-81823138D01*
X107500500Y-81823138D01*
X107500500Y-79502706D01*
X107500618Y-79497297D01*
X107505796Y-79378711D01*
X110149500Y-79378711D01*
X110149500Y-79621288D01*
X110181161Y-79861785D01*
X110243947Y-80096104D01*
X110336773Y-80320205D01*
X110336776Y-80320212D01*
X110458064Y-80530289D01*
X110458066Y-80530292D01*
X110458067Y-80530293D01*
X110605733Y-80722736D01*
X110605739Y-80722743D01*
X110777256Y-80894260D01*
X110777262Y-80894265D01*
X110969711Y-81041936D01*
X111179788Y-81163224D01*
X111403900Y-81256054D01*
X111638211Y-81318838D01*
X111818586Y-81342584D01*
X111878711Y-81350500D01*
X111878712Y-81350500D01*
X112121289Y-81350500D01*
X112169388Y-81344167D01*
X112361789Y-81318838D01*
X112596100Y-81256054D01*
X112820212Y-81163224D01*
X113030289Y-81041936D01*
X113222738Y-80894265D01*
X113394265Y-80722738D01*
X113541936Y-80530289D01*
X113663224Y-80320212D01*
X113756054Y-80096100D01*
X113818838Y-79861789D01*
X113850500Y-79621288D01*
X113850500Y-79378712D01*
X113849253Y-79369243D01*
X113818838Y-79138214D01*
X113818838Y-79138211D01*
X113756054Y-78903900D01*
X113663224Y-78679788D01*
X113541936Y-78469711D01*
X113394265Y-78277262D01*
X113394260Y-78277256D01*
X113222743Y-78105739D01*
X113222736Y-78105733D01*
X113030293Y-77958067D01*
X113030292Y-77958066D01*
X113030289Y-77958064D01*
X112820212Y-77836776D01*
X112820205Y-77836773D01*
X112596104Y-77743947D01*
X112361785Y-77681161D01*
X112121289Y-77649500D01*
X112121288Y-77649500D01*
X111878712Y-77649500D01*
X111878711Y-77649500D01*
X111638214Y-77681161D01*
X111403895Y-77743947D01*
X111179794Y-77836773D01*
X111179785Y-77836777D01*
X110969706Y-77958067D01*
X110777263Y-78105733D01*
X110777256Y-78105739D01*
X110605739Y-78277256D01*
X110605733Y-78277263D01*
X110458067Y-78469706D01*
X110336777Y-78679785D01*
X110336773Y-78679794D01*
X110243947Y-78903895D01*
X110181161Y-79138214D01*
X110149500Y-79378711D01*
X107505796Y-79378711D01*
X107506209Y-79369244D01*
X107506209Y-79369243D01*
X107510433Y-79272498D01*
X107517386Y-79113228D01*
X107518326Y-79102495D01*
X107568152Y-78724025D01*
X107570025Y-78713405D01*
X107652649Y-78340709D01*
X107655440Y-78330295D01*
X107770230Y-77966227D01*
X107773917Y-77956095D01*
X107920003Y-77603412D01*
X107924561Y-77593638D01*
X108100822Y-77255045D01*
X108106217Y-77245700D01*
X108311325Y-76923744D01*
X108317515Y-76914905D01*
X108549896Y-76612060D01*
X108556834Y-76603791D01*
X108814726Y-76322352D01*
X108822352Y-76314726D01*
X109103791Y-76056834D01*
X109112060Y-76049896D01*
X109414905Y-75817515D01*
X109423744Y-75811325D01*
X109745700Y-75606217D01*
X109755045Y-75600822D01*
X110093638Y-75424561D01*
X110103412Y-75420003D01*
X110456095Y-75273917D01*
X110466227Y-75270230D01*
X110830295Y-75155440D01*
X110840709Y-75152649D01*
X111213405Y-75070025D01*
X111224025Y-75068152D01*
X111602495Y-75018326D01*
X111613226Y-75017386D01*
X111997297Y-75000617D01*
X112002706Y-75000500D01*
X112065892Y-75000500D01*
X181934108Y-75000500D01*
X181997294Y-75000500D01*
X182002702Y-75000617D01*
G37*
G04 #@! TD.AperFunction*
M02*
