%TF.GenerationSoftware,KiCad,Pcbnew,9.0.0*%
%TF.CreationDate,2025-04-22T19:20:28-05:00*%
%TF.ProjectId,BSPD,42535044-2e6b-4696-9361-645f70636258,rev?*%
%TF.SameCoordinates,Original*%
%TF.FileFunction,Soldermask,Top*%
%TF.FilePolarity,Negative*%
%FSLAX46Y46*%
G04 Gerber Fmt 4.6, Leading zero omitted, Abs format (unit mm)*
G04 Created by KiCad (PCBNEW 9.0.0) date 2025-04-22 19:20:28*
%MOMM*%
%LPD*%
G01*
G04 APERTURE LIST*
G04 Aperture macros list*
%AMRoundRect*
0 Rectangle with rounded corners*
0 $1 Rounding radius*
0 $2 $3 $4 $5 $6 $7 $8 $9 X,Y pos of 4 corners*
0 Add a 4 corners polygon primitive as box body*
4,1,4,$2,$3,$4,$5,$6,$7,$8,$9,$2,$3,0*
0 Add four circle primitives for the rounded corners*
1,1,$1+$1,$2,$3*
1,1,$1+$1,$4,$5*
1,1,$1+$1,$6,$7*
1,1,$1+$1,$8,$9*
0 Add four rect primitives between the rounded corners*
20,1,$1+$1,$2,$3,$4,$5,0*
20,1,$1+$1,$4,$5,$6,$7,0*
20,1,$1+$1,$6,$7,$8,$9,0*
20,1,$1+$1,$8,$9,$2,$3,0*%
G04 Aperture macros list end*
%ADD10R,1.981200X0.558800*%
%ADD11C,2.200000*%
%ADD12RoundRect,0.140000X-0.140000X-0.170000X0.140000X-0.170000X0.140000X0.170000X-0.140000X0.170000X0*%
%ADD13C,2.286000*%
%ADD14R,1.270000X1.549400*%
%ADD15R,2.006600X1.549400*%
%ADD16RoundRect,0.250000X-0.475000X0.250000X-0.475000X-0.250000X0.475000X-0.250000X0.475000X0.250000X0*%
%ADD17RoundRect,0.250000X-0.312500X-0.625000X0.312500X-0.625000X0.312500X0.625000X-0.312500X0.625000X0*%
%ADD18RoundRect,0.140000X0.170000X-0.140000X0.170000X0.140000X-0.170000X0.140000X-0.170000X-0.140000X0*%
%ADD19RoundRect,0.250000X-0.625000X0.312500X-0.625000X-0.312500X0.625000X-0.312500X0.625000X0.312500X0*%
%ADD20RoundRect,0.140000X0.140000X0.170000X-0.140000X0.170000X-0.140000X-0.170000X0.140000X-0.170000X0*%
%ADD21R,0.800001X0.549999*%
%ADD22RoundRect,0.150000X0.150000X-0.587500X0.150000X0.587500X-0.150000X0.587500X-0.150000X-0.587500X0*%
%ADD23RoundRect,0.250000X-0.262500X-0.450000X0.262500X-0.450000X0.262500X0.450000X-0.262500X0.450000X0*%
%ADD24RoundRect,0.250000X0.250000X0.475000X-0.250000X0.475000X-0.250000X-0.475000X0.250000X-0.475000X0*%
%ADD25R,1.371600X1.371600*%
%ADD26C,1.371600*%
%ADD27R,0.762000X0.254000*%
G04 APERTURE END LIST*
D10*
%TO.C,U106*%
X159236200Y-120695000D03*
X159236200Y-121965000D03*
X159236200Y-123235000D03*
X159236200Y-124505000D03*
X164163800Y-124505000D03*
X164163800Y-123235000D03*
X164163800Y-121965000D03*
X164163800Y-120695000D03*
%TD*%
D11*
%TO.C,H103*%
X198700000Y-133100000D03*
%TD*%
D12*
%TO.C,C103*%
X158620000Y-126500001D03*
X159580000Y-126500001D03*
%TD*%
D13*
%TO.C,U102*%
X136700000Y-91155000D03*
X136700000Y-84805000D03*
X136700000Y-95600000D03*
%TD*%
D14*
%TO.C,RV101*%
X137827597Y-108264946D03*
D15*
X136557597Y-111160546D03*
D14*
X135287597Y-108264946D03*
%TD*%
%TO.C,RV103*%
X164720000Y-101096700D03*
D15*
X163450000Y-103992300D03*
D14*
X162180000Y-101096700D03*
%TD*%
D13*
%TO.C,U111*%
X149500000Y-127186000D03*
X149500000Y-120836000D03*
X149500000Y-131631000D03*
%TD*%
D16*
%TO.C,C108*%
X168200000Y-126600000D03*
X168200000Y-128500000D03*
%TD*%
D17*
%TO.C,R102*%
X175737500Y-119600001D03*
X178662500Y-119600001D03*
%TD*%
D16*
%TO.C,C102*%
X152250000Y-89800000D03*
X152250000Y-91700000D03*
%TD*%
D18*
%TO.C,C109*%
X182700000Y-105380000D03*
X182700000Y-104420000D03*
%TD*%
D19*
%TO.C,R103*%
X168200000Y-121137500D03*
X168200000Y-124062500D03*
%TD*%
D20*
%TO.C,C106*%
X173180000Y-114800000D03*
X172220000Y-114800000D03*
%TD*%
D13*
%TO.C,U110*%
X196200000Y-105186000D03*
X196200000Y-98836000D03*
X196200000Y-109631000D03*
%TD*%
D21*
%TO.C,U104*%
X156150000Y-127800001D03*
X156150000Y-128750002D03*
X156150000Y-129700000D03*
X158700000Y-129700000D03*
X158700000Y-127800001D03*
%TD*%
D22*
%TO.C,Q1*%
X187751346Y-102679395D03*
X189651346Y-102679395D03*
X188701346Y-100804395D03*
%TD*%
D23*
%TO.C,R1*%
X187640304Y-98399582D03*
X189465304Y-98399582D03*
%TD*%
D11*
%TO.C,H104*%
X198700000Y-78100000D03*
%TD*%
%TO.C,H101*%
X123700000Y-78100000D03*
%TD*%
D24*
%TO.C,C104*%
X163650000Y-93100000D03*
X161750000Y-93100000D03*
%TD*%
D20*
%TO.C,C101*%
X145130000Y-108550000D03*
X144170000Y-108550000D03*
%TD*%
D25*
%TO.C,U103*%
X158700000Y-89100000D03*
D26*
X161240000Y-89100000D03*
X163780000Y-89100000D03*
%TD*%
D12*
%TO.C,C107*%
X178690000Y-98850000D03*
X179650000Y-98850000D03*
%TD*%
D22*
%TO.C,Q2*%
X187750000Y-107037500D03*
X189650000Y-107037500D03*
X188700000Y-105162500D03*
%TD*%
D17*
%TO.C,R101*%
X170237500Y-112100001D03*
X173162500Y-112100001D03*
%TD*%
D10*
%TO.C,U108*%
X171772400Y-98830000D03*
X171772400Y-100100000D03*
X171772400Y-101370000D03*
X171772400Y-102640000D03*
X171772400Y-103910000D03*
X171772400Y-105180000D03*
X171772400Y-106450000D03*
X176700000Y-106450000D03*
X176700000Y-105180000D03*
X176700000Y-103910000D03*
X176700000Y-102640000D03*
X176700000Y-101370000D03*
X176700000Y-100100000D03*
X176700000Y-98830000D03*
%TD*%
D13*
%TO.C,U101*%
X133414000Y-120850000D03*
X139764000Y-120850000D03*
X128969000Y-120850000D03*
%TD*%
D11*
%TO.C,H102*%
X123700000Y-133100000D03*
%TD*%
D21*
%TO.C,U109*%
X180150000Y-106740001D03*
X180150000Y-107690002D03*
X180150000Y-108640000D03*
X182700000Y-108640000D03*
X182700000Y-106740001D03*
%TD*%
D27*
%TO.C,U107*%
X170050400Y-116099999D03*
X170050400Y-116600000D03*
X170050400Y-117100000D03*
X170050400Y-117600001D03*
X173200000Y-117600001D03*
X173200000Y-117100000D03*
X173200000Y-116600000D03*
X173200000Y-116099999D03*
%TD*%
D20*
%TO.C,C105*%
X164680000Y-126600000D03*
X163720000Y-126600000D03*
%TD*%
D14*
%TO.C,RV104*%
X164740000Y-107100000D03*
D15*
X163470000Y-109995600D03*
D14*
X162200000Y-107100000D03*
%TD*%
D10*
%TO.C,U105*%
X147097300Y-105990000D03*
X147097300Y-107260000D03*
X147097300Y-108530000D03*
X147097300Y-109800000D03*
X147097300Y-111070000D03*
X147097300Y-112340000D03*
X147097300Y-113610000D03*
X152024900Y-113610000D03*
X152024900Y-112340000D03*
X152024900Y-111070000D03*
X152024900Y-109800000D03*
X152024900Y-108530000D03*
X152024900Y-107260000D03*
X152024900Y-105990000D03*
%TD*%
D14*
%TO.C,RV102*%
X137770000Y-100959400D03*
D15*
X136500000Y-103855000D03*
D14*
X135230000Y-100959400D03*
%TD*%
M02*
