%TF.GenerationSoftware,KiCad,Pcbnew,9.0.0*%
%TF.CreationDate,2025-04-22T19:20:28-05:00*%
%TF.ProjectId,BSPD,42535044-2e6b-4696-9361-645f70636258,rev?*%
%TF.SameCoordinates,Original*%
%TF.FileFunction,Copper,L2,Bot*%
%TF.FilePolarity,Positive*%
%FSLAX46Y46*%
G04 Gerber Fmt 4.6, Leading zero omitted, Abs format (unit mm)*
G04 Created by KiCad (PCBNEW 9.0.0) date 2025-04-22 19:20:28*
%MOMM*%
%LPD*%
G01*
G04 APERTURE LIST*
%TA.AperFunction,ComponentPad*%
%ADD10C,2.286000*%
%TD*%
%TA.AperFunction,ComponentPad*%
%ADD11R,1.371600X1.371600*%
%TD*%
%TA.AperFunction,ComponentPad*%
%ADD12C,1.371600*%
%TD*%
%TA.AperFunction,ViaPad*%
%ADD13C,0.700000*%
%TD*%
%TA.AperFunction,ViaPad*%
%ADD14C,0.600000*%
%TD*%
%TA.AperFunction,Conductor*%
%ADD15C,0.500000*%
%TD*%
%TA.AperFunction,Conductor*%
%ADD16C,0.300000*%
%TD*%
G04 APERTURE END LIST*
D10*
%TO.P,U102,1,1*%
%TO.N,+12V*%
X136700000Y-91155000D03*
%TO.P,U102,2,2*%
%TO.N,GND*%
X136700000Y-84805000D03*
%TO.P,U102,3*%
%TO.N,N/C*%
X136700000Y-95600000D03*
%TD*%
%TO.P,U111,1,1*%
%TO.N,THROTTLE_Sense_IN*%
X149500000Y-127186000D03*
%TO.P,U111,2,2*%
%TO.N,BSE_Sense_IN*%
X149500000Y-120836000D03*
%TO.P,U111,3*%
%TO.N,N/C*%
X149500000Y-131631000D03*
%TD*%
%TO.P,U110,1,1*%
%TO.N,BSPD_TO_FAULT*%
X196200000Y-105186000D03*
%TO.P,U110,2,2*%
%TO.N,unconnected-(U110-Pad2)*%
X196200000Y-98836000D03*
%TO.P,U110,3*%
%TO.N,N/C*%
X196200000Y-109631000D03*
%TD*%
D11*
%TO.P,U103,1,+VIN*%
%TO.N,+12V*%
X158700000Y-89100000D03*
D12*
%TO.P,U103,2,GND*%
%TO.N,GND*%
X161240000Y-89100000D03*
%TO.P,U103,3,+VOUT*%
%TO.N,+5V*%
X163780000Y-89100000D03*
%TD*%
D10*
%TO.P,U101,1,1*%
%TO.N,THROTTLE_IN*%
X133414000Y-120850000D03*
%TO.P,U101,2,2*%
%TO.N,BSE_IN*%
X139764000Y-120850000D03*
%TO.P,U101,3*%
%TO.N,N/C*%
X128969000Y-120850000D03*
%TD*%
D13*
%TO.N,GND*%
X178700000Y-83100000D03*
X180933800Y-98910000D03*
X169100000Y-118600000D03*
X171200000Y-123100000D03*
X188700000Y-80600000D03*
X173700000Y-128100000D03*
X188700000Y-115600000D03*
X153700000Y-93100000D03*
X176058400Y-107850000D03*
X123700000Y-90600000D03*
X168600000Y-101800000D03*
X151200000Y-78100000D03*
X173700000Y-120600000D03*
X126200000Y-88100000D03*
X142460565Y-127973776D03*
X178700000Y-88100000D03*
X176200000Y-80600000D03*
X125824442Y-125091850D03*
X178600000Y-117600000D03*
X148700000Y-85600000D03*
X171200000Y-128100000D03*
X128700000Y-115100000D03*
X166200000Y-130600000D03*
X188700000Y-90600000D03*
X188700000Y-95600000D03*
D14*
X162500000Y-126600000D03*
D13*
X186200000Y-83100000D03*
X153705223Y-104720797D03*
X147158689Y-103705180D03*
X193700000Y-128100000D03*
X194200000Y-83100000D03*
X186200000Y-113100000D03*
X130700000Y-113100000D03*
X168700000Y-90600000D03*
X191200000Y-90600000D03*
X198700000Y-120600000D03*
X168700000Y-113100000D03*
X167500000Y-103250000D03*
X148700000Y-83100000D03*
X126695778Y-98556975D03*
X123700000Y-88100000D03*
X196200000Y-125600000D03*
X191200000Y-125600000D03*
X186200000Y-80600000D03*
X171200000Y-130600000D03*
X166700000Y-114100000D03*
X178700000Y-115600000D03*
X171200000Y-90600000D03*
X191200000Y-93100000D03*
X198700000Y-123100000D03*
X128700000Y-130600000D03*
X184096506Y-111052715D03*
X143700000Y-83100000D03*
X136700000Y-114100000D03*
X132360107Y-98373636D03*
X189652715Y-108681892D03*
X168700000Y-80600000D03*
X196700000Y-83100000D03*
X188700000Y-85600000D03*
X143700000Y-80600000D03*
X156200000Y-110600000D03*
X132700000Y-111100000D03*
X144678237Y-121951598D03*
X194200000Y-90600000D03*
X176200000Y-123100000D03*
X152250000Y-93150000D03*
X166200000Y-133100000D03*
X173700000Y-125600000D03*
X168700000Y-88100000D03*
X171200000Y-125600000D03*
X140700000Y-111100000D03*
X173700000Y-83100000D03*
X186200000Y-93100000D03*
X143700000Y-95600000D03*
X163700000Y-133100000D03*
X129351251Y-98324309D03*
X155673057Y-116126942D03*
D14*
X168200000Y-129900000D03*
D13*
X181200000Y-88100000D03*
X153700000Y-78100000D03*
X173100000Y-113800000D03*
X196200000Y-128100000D03*
X178700000Y-80600000D03*
X173700000Y-88100000D03*
X176200000Y-88100000D03*
X194200000Y-88100000D03*
X191200000Y-113100000D03*
X183700000Y-118100000D03*
X159700000Y-103100000D03*
X156700000Y-97100000D03*
X123700000Y-85600000D03*
X151200000Y-85600000D03*
X169900000Y-106500000D03*
X177180025Y-108080025D03*
X123700000Y-83100000D03*
X173700000Y-80600000D03*
X168700000Y-133100000D03*
X188700000Y-93100000D03*
D14*
X156200000Y-130800001D03*
D13*
X160200000Y-107100000D03*
X186200000Y-128100000D03*
X158700000Y-93100000D03*
X188700000Y-125600000D03*
X151200000Y-80600000D03*
X196200000Y-113100000D03*
X126200000Y-90600000D03*
X143700000Y-85600000D03*
X196700000Y-85600000D03*
X157700000Y-105100000D03*
X146200000Y-85600000D03*
X184384296Y-106881260D03*
X178700000Y-90600000D03*
X167700000Y-95100000D03*
X153700000Y-85600000D03*
X144624178Y-117424178D03*
X158700000Y-110600000D03*
X146200000Y-78100000D03*
X160783438Y-126543830D03*
X138728245Y-126487874D03*
X166200000Y-125600000D03*
X183700000Y-120600000D03*
X183700000Y-123100000D03*
X196700000Y-88100000D03*
X160250000Y-101096700D03*
X165293864Y-118986615D03*
X163700000Y-128100000D03*
X183700000Y-125600000D03*
X148700000Y-98100000D03*
X126200000Y-85600000D03*
D14*
X182700000Y-103300000D03*
D13*
X124355375Y-101577137D03*
X191200000Y-88100000D03*
X156200000Y-93100000D03*
X186200000Y-125600000D03*
X146200000Y-98100000D03*
X191200000Y-83100000D03*
X131200000Y-130600000D03*
X146200000Y-83100000D03*
X153700000Y-80600000D03*
X186200000Y-88100000D03*
X165700000Y-95100000D03*
X158105701Y-118356865D03*
X191200000Y-128100000D03*
X181200000Y-95600000D03*
X171200000Y-80600000D03*
X186219915Y-101130361D03*
X161200000Y-115600000D03*
X196700000Y-80600000D03*
X131200000Y-133100000D03*
X178700000Y-85600000D03*
X191200000Y-85600000D03*
X144300000Y-129700000D03*
X194200000Y-80600000D03*
X153700000Y-83100000D03*
X198700000Y-128100000D03*
X148700000Y-78100000D03*
X183700000Y-85600000D03*
X176200000Y-128100000D03*
X155700000Y-105100000D03*
X171200000Y-88100000D03*
X167544379Y-105081136D03*
X146200000Y-80600000D03*
X181200000Y-85600000D03*
X198700000Y-125600000D03*
X196700000Y-90600000D03*
X142698842Y-99265605D03*
X193700000Y-125600000D03*
X178700000Y-105100000D03*
X150700000Y-103100000D03*
X173700000Y-95600000D03*
X168791957Y-96916084D03*
X183700000Y-115600000D03*
X196700000Y-93100000D03*
D14*
X143250000Y-108550000D03*
D13*
X136806506Y-98350402D03*
X181200000Y-90600000D03*
X176200000Y-83100000D03*
X188700000Y-83100000D03*
X134700000Y-116100000D03*
X183700000Y-98100000D03*
X176200000Y-90600000D03*
X167500000Y-99300000D03*
X162602490Y-96901937D03*
X188700000Y-88100000D03*
X188700000Y-128100000D03*
X166537215Y-117594602D03*
X178800000Y-108600000D03*
X148700000Y-80600000D03*
X160260000Y-93149932D03*
X151200000Y-83100000D03*
D14*
X135300000Y-106600000D03*
D13*
X186200000Y-118100000D03*
X151200000Y-95600000D03*
X171200000Y-83100000D03*
X183700000Y-93100000D03*
X123700000Y-93100000D03*
X186200000Y-115600000D03*
X168700000Y-85600000D03*
X178700000Y-100600000D03*
X126200000Y-93100000D03*
X168700000Y-83100000D03*
X171200000Y-133100000D03*
X134349486Y-126501389D03*
X163700000Y-130600000D03*
X181200000Y-83100000D03*
X173700000Y-90600000D03*
X168200000Y-115100000D03*
X169400000Y-103400000D03*
X163700000Y-113100000D03*
X124343090Y-106813037D03*
X166200000Y-128100000D03*
X124348618Y-114594950D03*
X198700000Y-113100000D03*
X181200000Y-100600000D03*
X176200000Y-95600000D03*
X171200000Y-85600000D03*
X157700000Y-103100000D03*
X173700000Y-85600000D03*
X167562063Y-107285766D03*
D14*
X157200000Y-120600000D03*
D13*
X194200000Y-85600000D03*
X186200000Y-85600000D03*
X169700000Y-95100000D03*
X186039536Y-98361016D03*
X126200000Y-83100000D03*
X143700000Y-78100000D03*
X146614079Y-131586702D03*
X194200000Y-93100000D03*
X129862610Y-126487874D03*
X176200000Y-85600000D03*
X178700000Y-113100000D03*
X181200000Y-80600000D03*
X155700000Y-107100000D03*
X183700000Y-80600000D03*
X183700000Y-100600000D03*
X124335103Y-119419693D03*
X188700000Y-113100000D03*
X154700000Y-99100000D03*
X183700000Y-90600000D03*
X148700000Y-95600000D03*
X145232846Y-101840153D03*
X183700000Y-88100000D03*
X128700000Y-133100000D03*
X183700000Y-83100000D03*
X141200000Y-95600000D03*
X178700000Y-95600000D03*
X178700000Y-123100000D03*
X186200000Y-95600000D03*
X155700000Y-131800001D03*
X186200000Y-90600000D03*
X191200000Y-80600000D03*
X198700000Y-115600000D03*
X152700000Y-101100000D03*
X193700000Y-113100000D03*
X158700000Y-108100000D03*
X124316061Y-110200718D03*
X139848857Y-98355190D03*
D14*
X133400000Y-101000000D03*
D13*
X183700000Y-103100000D03*
X146200000Y-95600000D03*
X198700000Y-118100000D03*
X181200000Y-103100000D03*
X171700000Y-95100000D03*
D14*
%TO.N,+5V*%
X175258400Y-108400000D03*
X168400000Y-102800000D03*
%TO.N,Net-(U108-1Y)*%
X176950000Y-109300000D03*
X168000000Y-100000000D03*
%TD*%
D15*
%TO.N,+5V*%
X169300000Y-108400000D02*
X175258400Y-108400000D01*
X168400000Y-107500000D02*
X169300000Y-108400000D01*
X168400000Y-102800000D02*
X168400000Y-107500000D01*
D16*
%TO.N,Net-(U108-1Y)*%
X166800000Y-108050000D02*
X166800000Y-101200000D01*
X168750000Y-110000000D02*
X166800000Y-108050000D01*
X176250000Y-110000000D02*
X168750000Y-110000000D01*
X166800000Y-101200000D02*
X168000000Y-100000000D01*
X176950000Y-109300000D02*
X176250000Y-110000000D01*
%TD*%
%TA.AperFunction,Conductor*%
%TO.N,GND*%
G36*
X198703801Y-75600730D02*
G01*
X198733105Y-75602502D01*
X198993684Y-75618264D01*
X199008765Y-75620095D01*
X199290682Y-75671758D01*
X199305429Y-75675393D01*
X199579071Y-75760663D01*
X199593283Y-75766054D01*
X199854624Y-75883674D01*
X199868090Y-75890740D01*
X200113367Y-76039016D01*
X200125866Y-76047643D01*
X200351485Y-76224404D01*
X200362865Y-76234487D01*
X200565512Y-76437134D01*
X200575596Y-76448515D01*
X200752353Y-76674130D01*
X200760985Y-76686635D01*
X200819092Y-76782755D01*
X200909255Y-76931903D01*
X200916325Y-76945375D01*
X201033943Y-77206711D01*
X201039339Y-77220937D01*
X201124602Y-77494554D01*
X201128243Y-77509328D01*
X201179902Y-77791222D01*
X201181736Y-77806326D01*
X201199270Y-78096197D01*
X201199500Y-78103805D01*
X201199500Y-133096194D01*
X201199270Y-133103802D01*
X201181736Y-133393673D01*
X201179902Y-133408777D01*
X201128243Y-133690671D01*
X201124602Y-133705445D01*
X201039339Y-133979062D01*
X201033943Y-133993288D01*
X200916325Y-134254624D01*
X200909255Y-134268096D01*
X200760990Y-134513357D01*
X200752347Y-134525877D01*
X200632967Y-134678255D01*
X200575602Y-134751477D01*
X200565512Y-134762865D01*
X200362865Y-134965512D01*
X200351477Y-134975602D01*
X200125880Y-135152346D01*
X200113357Y-135160990D01*
X199868096Y-135309255D01*
X199854624Y-135316325D01*
X199593288Y-135433943D01*
X199579062Y-135439339D01*
X199305445Y-135524602D01*
X199290671Y-135528243D01*
X199008777Y-135579902D01*
X198993673Y-135581736D01*
X198703802Y-135599270D01*
X198696194Y-135599500D01*
X123703806Y-135599500D01*
X123696198Y-135599270D01*
X123406326Y-135581736D01*
X123391222Y-135579902D01*
X123109328Y-135528243D01*
X123094558Y-135524603D01*
X122820937Y-135439339D01*
X122806711Y-135433943D01*
X122545375Y-135316325D01*
X122531903Y-135309255D01*
X122286635Y-135160985D01*
X122274130Y-135152353D01*
X122048515Y-134975596D01*
X122037134Y-134965512D01*
X121834487Y-134762865D01*
X121824404Y-134751485D01*
X121647643Y-134525866D01*
X121639016Y-134513367D01*
X121490740Y-134268090D01*
X121483674Y-134254624D01*
X121366056Y-133993288D01*
X121360663Y-133979071D01*
X121275393Y-133705429D01*
X121271758Y-133690682D01*
X121220095Y-133408765D01*
X121218264Y-133393684D01*
X121200730Y-133103801D01*
X121200500Y-133096194D01*
X121200500Y-132993713D01*
X122349500Y-132993713D01*
X122349500Y-133206287D01*
X122382754Y-133416243D01*
X122448443Y-133618412D01*
X122544949Y-133807816D01*
X122669896Y-133979792D01*
X122669898Y-133979794D01*
X122669900Y-133979797D01*
X122820202Y-134130099D01*
X122820205Y-134130101D01*
X122820208Y-134130104D01*
X122992184Y-134255051D01*
X123181588Y-134351557D01*
X123383757Y-134417246D01*
X123593713Y-134450500D01*
X123593716Y-134450500D01*
X123806284Y-134450500D01*
X123806287Y-134450500D01*
X124016243Y-134417246D01*
X124218412Y-134351557D01*
X124407816Y-134255051D01*
X124579792Y-134130104D01*
X124730104Y-133979792D01*
X124855051Y-133807816D01*
X124951557Y-133618412D01*
X125017246Y-133416243D01*
X125050500Y-133206287D01*
X125050500Y-132993713D01*
X125017246Y-132783757D01*
X124951557Y-132581588D01*
X124855051Y-132392184D01*
X124730104Y-132220208D01*
X124730101Y-132220205D01*
X124730099Y-132220202D01*
X124579797Y-132069900D01*
X124579794Y-132069898D01*
X124579792Y-132069896D01*
X124407816Y-131944949D01*
X124218412Y-131848443D01*
X124016243Y-131782754D01*
X123806287Y-131749500D01*
X123593713Y-131749500D01*
X123383757Y-131782754D01*
X123383754Y-131782754D01*
X123383753Y-131782755D01*
X123181588Y-131848443D01*
X123181586Y-131848444D01*
X122992180Y-131944951D01*
X122820205Y-132069898D01*
X122820202Y-132069900D01*
X122669900Y-132220202D01*
X122669898Y-132220205D01*
X122544951Y-132392180D01*
X122448444Y-132581586D01*
X122448443Y-132581588D01*
X122399559Y-132732038D01*
X122382754Y-132783757D01*
X122349500Y-132993713D01*
X121200500Y-132993713D01*
X121200500Y-131517394D01*
X148056500Y-131517394D01*
X148056500Y-131744606D01*
X148072946Y-131848443D01*
X148092044Y-131969024D01*
X148162254Y-132185108D01*
X148265410Y-132387562D01*
X148398961Y-132571379D01*
X148559620Y-132732038D01*
X148559623Y-132732040D01*
X148743441Y-132865592D01*
X148945888Y-132968744D01*
X149161980Y-133038957D01*
X149386394Y-133074500D01*
X149386396Y-133074500D01*
X149613604Y-133074500D01*
X149613606Y-133074500D01*
X149838020Y-133038957D01*
X149977266Y-132993713D01*
X197349500Y-132993713D01*
X197349500Y-133206287D01*
X197382754Y-133416243D01*
X197448443Y-133618412D01*
X197544949Y-133807816D01*
X197669896Y-133979792D01*
X197669898Y-133979794D01*
X197669900Y-133979797D01*
X197820202Y-134130099D01*
X197820205Y-134130101D01*
X197820208Y-134130104D01*
X197992184Y-134255051D01*
X198181588Y-134351557D01*
X198383757Y-134417246D01*
X198593713Y-134450500D01*
X198593716Y-134450500D01*
X198806284Y-134450500D01*
X198806287Y-134450500D01*
X199016243Y-134417246D01*
X199218412Y-134351557D01*
X199407816Y-134255051D01*
X199579792Y-134130104D01*
X199730104Y-133979792D01*
X199855051Y-133807816D01*
X199951557Y-133618412D01*
X200017246Y-133416243D01*
X200050500Y-133206287D01*
X200050500Y-132993713D01*
X200017246Y-132783757D01*
X199951557Y-132581588D01*
X199855051Y-132392184D01*
X199730104Y-132220208D01*
X199730101Y-132220205D01*
X199730099Y-132220202D01*
X199579797Y-132069900D01*
X199579794Y-132069898D01*
X199579792Y-132069896D01*
X199407816Y-131944949D01*
X199218412Y-131848443D01*
X199016243Y-131782754D01*
X198806287Y-131749500D01*
X198593713Y-131749500D01*
X198383757Y-131782754D01*
X198383754Y-131782754D01*
X198383753Y-131782755D01*
X198181588Y-131848443D01*
X198181586Y-131848444D01*
X197992180Y-131944951D01*
X197820205Y-132069898D01*
X197820202Y-132069900D01*
X197669900Y-132220202D01*
X197669898Y-132220205D01*
X197544951Y-132392180D01*
X197448444Y-132581586D01*
X197448443Y-132581588D01*
X197399559Y-132732038D01*
X197382754Y-132783757D01*
X197349500Y-132993713D01*
X149977266Y-132993713D01*
X150054112Y-132968744D01*
X150256559Y-132865592D01*
X150440377Y-132732040D01*
X150601040Y-132571377D01*
X150734592Y-132387559D01*
X150837744Y-132185112D01*
X150907957Y-131969020D01*
X150943500Y-131744606D01*
X150943500Y-131517394D01*
X150907957Y-131292980D01*
X150837744Y-131076888D01*
X150734592Y-130874441D01*
X150601040Y-130690623D01*
X150601038Y-130690620D01*
X150440379Y-130529961D01*
X150256562Y-130396410D01*
X150256561Y-130396409D01*
X150256559Y-130396408D01*
X150054112Y-130293256D01*
X150054111Y-130293255D01*
X150054108Y-130293254D01*
X149838024Y-130223044D01*
X149838022Y-130223043D01*
X149838020Y-130223043D01*
X149613606Y-130187500D01*
X149386394Y-130187500D01*
X149161980Y-130223043D01*
X149161978Y-130223043D01*
X149161975Y-130223044D01*
X148945891Y-130293254D01*
X148743437Y-130396410D01*
X148559620Y-130529961D01*
X148398961Y-130690620D01*
X148265410Y-130874437D01*
X148162254Y-131076891D01*
X148092044Y-131292975D01*
X148092043Y-131292978D01*
X148092043Y-131292980D01*
X148056500Y-131517394D01*
X121200500Y-131517394D01*
X121200500Y-127072396D01*
X148056500Y-127072396D01*
X148056500Y-127299603D01*
X148092044Y-127524024D01*
X148162254Y-127740108D01*
X148265410Y-127942562D01*
X148398961Y-128126379D01*
X148559620Y-128287038D01*
X148559623Y-128287040D01*
X148743441Y-128420592D01*
X148945888Y-128523744D01*
X149161980Y-128593957D01*
X149386394Y-128629500D01*
X149386396Y-128629500D01*
X149613604Y-128629500D01*
X149613606Y-128629500D01*
X149838020Y-128593957D01*
X150054112Y-128523744D01*
X150256559Y-128420592D01*
X150440377Y-128287040D01*
X150601040Y-128126377D01*
X150734592Y-127942559D01*
X150837744Y-127740112D01*
X150907957Y-127524020D01*
X150943500Y-127299606D01*
X150943500Y-127072394D01*
X150907957Y-126847980D01*
X150837744Y-126631888D01*
X150734592Y-126429441D01*
X150601040Y-126245623D01*
X150601038Y-126245620D01*
X150440379Y-126084961D01*
X150256562Y-125951410D01*
X150256561Y-125951409D01*
X150256559Y-125951408D01*
X150054112Y-125848256D01*
X150054111Y-125848255D01*
X150054108Y-125848254D01*
X149838024Y-125778044D01*
X149838022Y-125778043D01*
X149838020Y-125778043D01*
X149613606Y-125742500D01*
X149386394Y-125742500D01*
X149161980Y-125778043D01*
X149161978Y-125778043D01*
X149161975Y-125778044D01*
X148945891Y-125848254D01*
X148743437Y-125951410D01*
X148559620Y-126084961D01*
X148398961Y-126245620D01*
X148265410Y-126429437D01*
X148162254Y-126631891D01*
X148092044Y-126847975D01*
X148056500Y-127072396D01*
X121200500Y-127072396D01*
X121200500Y-120736394D01*
X127525500Y-120736394D01*
X127525500Y-120963606D01*
X127561043Y-121188020D01*
X127561044Y-121188024D01*
X127631254Y-121404108D01*
X127631255Y-121404111D01*
X127631256Y-121404112D01*
X127727276Y-121592562D01*
X127734410Y-121606562D01*
X127867961Y-121790379D01*
X128028620Y-121951038D01*
X128028623Y-121951040D01*
X128212441Y-122084592D01*
X128414888Y-122187744D01*
X128630980Y-122257957D01*
X128855394Y-122293500D01*
X128855396Y-122293500D01*
X129082604Y-122293500D01*
X129082606Y-122293500D01*
X129307020Y-122257957D01*
X129523112Y-122187744D01*
X129725559Y-122084592D01*
X129909377Y-121951040D01*
X130070040Y-121790377D01*
X130203592Y-121606559D01*
X130306744Y-121404112D01*
X130376957Y-121188020D01*
X130412500Y-120963606D01*
X130412500Y-120736394D01*
X131970500Y-120736394D01*
X131970500Y-120963606D01*
X132006043Y-121188020D01*
X132006044Y-121188024D01*
X132076254Y-121404108D01*
X132076255Y-121404111D01*
X132076256Y-121404112D01*
X132172276Y-121592562D01*
X132179410Y-121606562D01*
X132312961Y-121790379D01*
X132473620Y-121951038D01*
X132473623Y-121951040D01*
X132657441Y-122084592D01*
X132859888Y-122187744D01*
X133075980Y-122257957D01*
X133300394Y-122293500D01*
X133300396Y-122293500D01*
X133527604Y-122293500D01*
X133527606Y-122293500D01*
X133752020Y-122257957D01*
X133968112Y-122187744D01*
X134170559Y-122084592D01*
X134354377Y-121951040D01*
X134515040Y-121790377D01*
X134648592Y-121606559D01*
X134751744Y-121404112D01*
X134821957Y-121188020D01*
X134857500Y-120963606D01*
X134857500Y-120736394D01*
X138320500Y-120736394D01*
X138320500Y-120963606D01*
X138356043Y-121188020D01*
X138356044Y-121188024D01*
X138426254Y-121404108D01*
X138426255Y-121404111D01*
X138426256Y-121404112D01*
X138522276Y-121592562D01*
X138529410Y-121606562D01*
X138662961Y-121790379D01*
X138823620Y-121951038D01*
X138823623Y-121951040D01*
X139007441Y-122084592D01*
X139209888Y-122187744D01*
X139425980Y-122257957D01*
X139650394Y-122293500D01*
X139650396Y-122293500D01*
X139877604Y-122293500D01*
X139877606Y-122293500D01*
X140102020Y-122257957D01*
X140318112Y-122187744D01*
X140520559Y-122084592D01*
X140704377Y-121951040D01*
X140865040Y-121790377D01*
X140998592Y-121606559D01*
X141101744Y-121404112D01*
X141171957Y-121188020D01*
X141207500Y-120963606D01*
X141207500Y-120736394D01*
X141205283Y-120722394D01*
X148056500Y-120722394D01*
X148056500Y-120949606D01*
X148092043Y-121174020D01*
X148092044Y-121174024D01*
X148162254Y-121390108D01*
X148265410Y-121592562D01*
X148398961Y-121776379D01*
X148559620Y-121937038D01*
X148578892Y-121951040D01*
X148743441Y-122070592D01*
X148945888Y-122173744D01*
X149161980Y-122243957D01*
X149386394Y-122279500D01*
X149386396Y-122279500D01*
X149613604Y-122279500D01*
X149613606Y-122279500D01*
X149838020Y-122243957D01*
X150054112Y-122173744D01*
X150256559Y-122070592D01*
X150440377Y-121937040D01*
X150601040Y-121776377D01*
X150734592Y-121592559D01*
X150837744Y-121390112D01*
X150907957Y-121174020D01*
X150943500Y-120949606D01*
X150943500Y-120722394D01*
X150907957Y-120497980D01*
X150837744Y-120281888D01*
X150734592Y-120079441D01*
X150611212Y-119909623D01*
X150601038Y-119895620D01*
X150440379Y-119734961D01*
X150256562Y-119601410D01*
X150256561Y-119601409D01*
X150256559Y-119601408D01*
X150054112Y-119498256D01*
X150054111Y-119498255D01*
X150054108Y-119498254D01*
X149838024Y-119428044D01*
X149838022Y-119428043D01*
X149838020Y-119428043D01*
X149613606Y-119392500D01*
X149386394Y-119392500D01*
X149161980Y-119428043D01*
X149161978Y-119428043D01*
X149161975Y-119428044D01*
X148945891Y-119498254D01*
X148743437Y-119601410D01*
X148559620Y-119734961D01*
X148398961Y-119895620D01*
X148265410Y-120079437D01*
X148162254Y-120281891D01*
X148092044Y-120497975D01*
X148092043Y-120497978D01*
X148092043Y-120497980D01*
X148056500Y-120722394D01*
X141205283Y-120722394D01*
X141171957Y-120511980D01*
X141101744Y-120295888D01*
X140998592Y-120093441D01*
X140865040Y-119909623D01*
X140865038Y-119909620D01*
X140704379Y-119748961D01*
X140520562Y-119615410D01*
X140520561Y-119615409D01*
X140520559Y-119615408D01*
X140318112Y-119512256D01*
X140318111Y-119512255D01*
X140318108Y-119512254D01*
X140102024Y-119442044D01*
X140102022Y-119442043D01*
X140102020Y-119442043D01*
X139877606Y-119406500D01*
X139650394Y-119406500D01*
X139425980Y-119442043D01*
X139425978Y-119442043D01*
X139425975Y-119442044D01*
X139209891Y-119512254D01*
X139007437Y-119615410D01*
X138823620Y-119748961D01*
X138662961Y-119909620D01*
X138529410Y-120093437D01*
X138426254Y-120295891D01*
X138356044Y-120511975D01*
X138356043Y-120511978D01*
X138356043Y-120511980D01*
X138320500Y-120736394D01*
X134857500Y-120736394D01*
X134821957Y-120511980D01*
X134751744Y-120295888D01*
X134648592Y-120093441D01*
X134515040Y-119909623D01*
X134515038Y-119909620D01*
X134354379Y-119748961D01*
X134170562Y-119615410D01*
X134170561Y-119615409D01*
X134170559Y-119615408D01*
X133968112Y-119512256D01*
X133968111Y-119512255D01*
X133968108Y-119512254D01*
X133752024Y-119442044D01*
X133752022Y-119442043D01*
X133752020Y-119442043D01*
X133527606Y-119406500D01*
X133300394Y-119406500D01*
X133075980Y-119442043D01*
X133075978Y-119442043D01*
X133075975Y-119442044D01*
X132859891Y-119512254D01*
X132657437Y-119615410D01*
X132473620Y-119748961D01*
X132312961Y-119909620D01*
X132179410Y-120093437D01*
X132076254Y-120295891D01*
X132006044Y-120511975D01*
X132006043Y-120511978D01*
X132006043Y-120511980D01*
X131970500Y-120736394D01*
X130412500Y-120736394D01*
X130376957Y-120511980D01*
X130306744Y-120295888D01*
X130203592Y-120093441D01*
X130070040Y-119909623D01*
X130070038Y-119909620D01*
X129909379Y-119748961D01*
X129725562Y-119615410D01*
X129725561Y-119615409D01*
X129725559Y-119615408D01*
X129523112Y-119512256D01*
X129523111Y-119512255D01*
X129523108Y-119512254D01*
X129307024Y-119442044D01*
X129307022Y-119442043D01*
X129307020Y-119442043D01*
X129082606Y-119406500D01*
X128855394Y-119406500D01*
X128630980Y-119442043D01*
X128630978Y-119442043D01*
X128630975Y-119442044D01*
X128414891Y-119512254D01*
X128212437Y-119615410D01*
X128028620Y-119748961D01*
X127867961Y-119909620D01*
X127734410Y-120093437D01*
X127631254Y-120295891D01*
X127561044Y-120511975D01*
X127561043Y-120511978D01*
X127561043Y-120511980D01*
X127525500Y-120736394D01*
X121200500Y-120736394D01*
X121200500Y-101140692D01*
X166349500Y-101140692D01*
X166349500Y-108109309D01*
X166370451Y-108187501D01*
X166380199Y-108223884D01*
X166439508Y-108326610D01*
X166439516Y-108326620D01*
X168473379Y-110360483D01*
X168473383Y-110360486D01*
X168473386Y-110360489D01*
X168520273Y-110387559D01*
X168576114Y-110419799D01*
X168690691Y-110450500D01*
X168690693Y-110450500D01*
X176309309Y-110450500D01*
X176399673Y-110426286D01*
X176423887Y-110419799D01*
X176526614Y-110360489D01*
X176949925Y-109937177D01*
X177012233Y-109903155D01*
X177022578Y-109901352D01*
X177029050Y-109900500D01*
X177029057Y-109900500D01*
X177181784Y-109859577D01*
X177181787Y-109859575D01*
X177181788Y-109859575D01*
X177250250Y-109820048D01*
X177318716Y-109780520D01*
X177430520Y-109668716D01*
X177509577Y-109531784D01*
X177513433Y-109517394D01*
X194756500Y-109517394D01*
X194756500Y-109744606D01*
X194792043Y-109969020D01*
X194792044Y-109969024D01*
X194862254Y-110185108D01*
X194965408Y-110387559D01*
X195098961Y-110571379D01*
X195259620Y-110732038D01*
X195259623Y-110732040D01*
X195443441Y-110865592D01*
X195645888Y-110968744D01*
X195861980Y-111038957D01*
X196086394Y-111074500D01*
X196086396Y-111074500D01*
X196313604Y-111074500D01*
X196313606Y-111074500D01*
X196538020Y-111038957D01*
X196754112Y-110968744D01*
X196956559Y-110865592D01*
X197140377Y-110732040D01*
X197301040Y-110571377D01*
X197434592Y-110387559D01*
X197537744Y-110185112D01*
X197607957Y-109969020D01*
X197643500Y-109744606D01*
X197643500Y-109517394D01*
X197607957Y-109292980D01*
X197537744Y-109076888D01*
X197434592Y-108874441D01*
X197301040Y-108690623D01*
X197301038Y-108690620D01*
X197140379Y-108529961D01*
X196956562Y-108396410D01*
X196956561Y-108396409D01*
X196956559Y-108396408D01*
X196754112Y-108293256D01*
X196754111Y-108293255D01*
X196754108Y-108293254D01*
X196538024Y-108223044D01*
X196538022Y-108223043D01*
X196538020Y-108223043D01*
X196313606Y-108187500D01*
X196086394Y-108187500D01*
X195861980Y-108223043D01*
X195861978Y-108223043D01*
X195861975Y-108223044D01*
X195645891Y-108293254D01*
X195443437Y-108396410D01*
X195259620Y-108529961D01*
X195098961Y-108690620D01*
X194965410Y-108874437D01*
X194862254Y-109076891D01*
X194792044Y-109292975D01*
X194792043Y-109292978D01*
X194792043Y-109292980D01*
X194756500Y-109517394D01*
X177513433Y-109517394D01*
X177550500Y-109379057D01*
X177550500Y-109220943D01*
X177509577Y-109068216D01*
X177509575Y-109068213D01*
X177509575Y-109068211D01*
X177430522Y-108931287D01*
X177430514Y-108931277D01*
X177318722Y-108819485D01*
X177318712Y-108819477D01*
X177181788Y-108740424D01*
X177163743Y-108735589D01*
X177029057Y-108699500D01*
X176870943Y-108699500D01*
X176777470Y-108724545D01*
X176718211Y-108740424D01*
X176581287Y-108819477D01*
X176581277Y-108819485D01*
X176469485Y-108931277D01*
X176469477Y-108931287D01*
X176390424Y-109068211D01*
X176349500Y-109220944D01*
X176348646Y-109227431D01*
X176319922Y-109292357D01*
X176312820Y-109300077D01*
X176100300Y-109512596D01*
X176037991Y-109546620D01*
X176011207Y-109549500D01*
X168988793Y-109549500D01*
X168920672Y-109529498D01*
X168899698Y-109512595D01*
X167287405Y-107900302D01*
X167253379Y-107837990D01*
X167250500Y-107811207D01*
X167250500Y-102720943D01*
X167799500Y-102720943D01*
X167799500Y-102879057D01*
X167840423Y-103031784D01*
X167842561Y-103039762D01*
X167841784Y-103039970D01*
X167849500Y-103078761D01*
X167849500Y-107572472D01*
X167849499Y-107572472D01*
X167887017Y-107712489D01*
X167959487Y-107838011D01*
X167959495Y-107838021D01*
X168961978Y-108840504D01*
X168961983Y-108840508D01*
X168961985Y-108840510D01*
X168961986Y-108840511D01*
X168961988Y-108840512D01*
X169087509Y-108912981D01*
X169087510Y-108912981D01*
X169087515Y-108912984D01*
X169227525Y-108950500D01*
X174979639Y-108950500D01*
X175018430Y-108958215D01*
X175018639Y-108957439D01*
X175026614Y-108959575D01*
X175026616Y-108959577D01*
X175179343Y-109000500D01*
X175179345Y-109000500D01*
X175337455Y-109000500D01*
X175337457Y-109000500D01*
X175490184Y-108959577D01*
X175490187Y-108959575D01*
X175490188Y-108959575D01*
X175570891Y-108912981D01*
X175627116Y-108880520D01*
X175738920Y-108768716D01*
X175817977Y-108631784D01*
X175858900Y-108479057D01*
X175858900Y-108320943D01*
X175817977Y-108168216D01*
X175817975Y-108168213D01*
X175817975Y-108168211D01*
X175738922Y-108031287D01*
X175738914Y-108031277D01*
X175627122Y-107919485D01*
X175627112Y-107919477D01*
X175490188Y-107840424D01*
X175449411Y-107829498D01*
X175337457Y-107799500D01*
X175179343Y-107799500D01*
X175026616Y-107840423D01*
X175026614Y-107840424D01*
X175018639Y-107842561D01*
X175018430Y-107841784D01*
X174979639Y-107849500D01*
X169580215Y-107849500D01*
X169512094Y-107829498D01*
X169491120Y-107812595D01*
X168987405Y-107308880D01*
X168953379Y-107246568D01*
X168950500Y-107219785D01*
X168950500Y-105072396D01*
X194756500Y-105072396D01*
X194756500Y-105299603D01*
X194792044Y-105524024D01*
X194862254Y-105740108D01*
X194965410Y-105942562D01*
X195098961Y-106126379D01*
X195259620Y-106287038D01*
X195259623Y-106287040D01*
X195443441Y-106420592D01*
X195645888Y-106523744D01*
X195861980Y-106593957D01*
X196086394Y-106629500D01*
X196086396Y-106629500D01*
X196313604Y-106629500D01*
X196313606Y-106629500D01*
X196538020Y-106593957D01*
X196754112Y-106523744D01*
X196956559Y-106420592D01*
X197140377Y-106287040D01*
X197301040Y-106126377D01*
X197434592Y-105942559D01*
X197537744Y-105740112D01*
X197607957Y-105524020D01*
X197643500Y-105299606D01*
X197643500Y-105072394D01*
X197607957Y-104847980D01*
X197537744Y-104631888D01*
X197434592Y-104429441D01*
X197301040Y-104245623D01*
X197301038Y-104245620D01*
X197140379Y-104084961D01*
X196956562Y-103951410D01*
X196956561Y-103951409D01*
X196956559Y-103951408D01*
X196754112Y-103848256D01*
X196754111Y-103848255D01*
X196754108Y-103848254D01*
X196538024Y-103778044D01*
X196538022Y-103778043D01*
X196538020Y-103778043D01*
X196313606Y-103742500D01*
X196086394Y-103742500D01*
X195861980Y-103778043D01*
X195861978Y-103778043D01*
X195861975Y-103778044D01*
X195645891Y-103848254D01*
X195443437Y-103951410D01*
X195259620Y-104084961D01*
X195098961Y-104245620D01*
X194965410Y-104429437D01*
X194862254Y-104631891D01*
X194792044Y-104847975D01*
X194756500Y-105072396D01*
X168950500Y-105072396D01*
X168950500Y-103078761D01*
X168958215Y-103039970D01*
X168957439Y-103039762D01*
X168959577Y-103031784D01*
X169000500Y-102879057D01*
X169000500Y-102720943D01*
X168959577Y-102568216D01*
X168959575Y-102568213D01*
X168959575Y-102568211D01*
X168880522Y-102431287D01*
X168880514Y-102431277D01*
X168768722Y-102319485D01*
X168768712Y-102319477D01*
X168631788Y-102240424D01*
X168613743Y-102235589D01*
X168479057Y-102199500D01*
X168320943Y-102199500D01*
X168227470Y-102224545D01*
X168168211Y-102240424D01*
X168031287Y-102319477D01*
X168031277Y-102319485D01*
X167919485Y-102431277D01*
X167919477Y-102431287D01*
X167840424Y-102568211D01*
X167840423Y-102568216D01*
X167799500Y-102720943D01*
X167250500Y-102720943D01*
X167250500Y-101438793D01*
X167270502Y-101370672D01*
X167287399Y-101349703D01*
X167999925Y-100637177D01*
X168062234Y-100603155D01*
X168072578Y-100601352D01*
X168079050Y-100600500D01*
X168079057Y-100600500D01*
X168231784Y-100559577D01*
X168231787Y-100559575D01*
X168231788Y-100559575D01*
X168300250Y-100520048D01*
X168368716Y-100480520D01*
X168480520Y-100368716D01*
X168520048Y-100300250D01*
X168559575Y-100231788D01*
X168559575Y-100231787D01*
X168559577Y-100231784D01*
X168600500Y-100079057D01*
X168600500Y-99920943D01*
X168559577Y-99768216D01*
X168559575Y-99768213D01*
X168559575Y-99768211D01*
X168480522Y-99631287D01*
X168480514Y-99631277D01*
X168368722Y-99519485D01*
X168368712Y-99519477D01*
X168231788Y-99440424D01*
X168213743Y-99435589D01*
X168079057Y-99399500D01*
X167920943Y-99399500D01*
X167827470Y-99424545D01*
X167768211Y-99440424D01*
X167631287Y-99519477D01*
X167631277Y-99519485D01*
X167519485Y-99631277D01*
X167519477Y-99631287D01*
X167440424Y-99768211D01*
X167399500Y-99920944D01*
X167398646Y-99927431D01*
X167369922Y-99992357D01*
X167362819Y-100000077D01*
X166439516Y-100923379D01*
X166439508Y-100923389D01*
X166380200Y-101026113D01*
X166380201Y-101026114D01*
X166349500Y-101140692D01*
X121200500Y-101140692D01*
X121200500Y-98722396D01*
X194756500Y-98722396D01*
X194756500Y-98949603D01*
X194792044Y-99174024D01*
X194862254Y-99390108D01*
X194862255Y-99390111D01*
X194862256Y-99390112D01*
X194928172Y-99519480D01*
X194965410Y-99592562D01*
X195098961Y-99776379D01*
X195259620Y-99937038D01*
X195259623Y-99937040D01*
X195443441Y-100070592D01*
X195645888Y-100173744D01*
X195861980Y-100243957D01*
X196086394Y-100279500D01*
X196086396Y-100279500D01*
X196313604Y-100279500D01*
X196313606Y-100279500D01*
X196538020Y-100243957D01*
X196754112Y-100173744D01*
X196956559Y-100070592D01*
X197140377Y-99937040D01*
X197301040Y-99776377D01*
X197434592Y-99592559D01*
X197537744Y-99390112D01*
X197607957Y-99174020D01*
X197643500Y-98949606D01*
X197643500Y-98722394D01*
X197607957Y-98497980D01*
X197537744Y-98281888D01*
X197434592Y-98079441D01*
X197301040Y-97895623D01*
X197301038Y-97895620D01*
X197140379Y-97734961D01*
X196956562Y-97601410D01*
X196956561Y-97601409D01*
X196956559Y-97601408D01*
X196754112Y-97498256D01*
X196754111Y-97498255D01*
X196754108Y-97498254D01*
X196538024Y-97428044D01*
X196538022Y-97428043D01*
X196538020Y-97428043D01*
X196313606Y-97392500D01*
X196086394Y-97392500D01*
X195861980Y-97428043D01*
X195861978Y-97428043D01*
X195861975Y-97428044D01*
X195645891Y-97498254D01*
X195443437Y-97601410D01*
X195259620Y-97734961D01*
X195098961Y-97895620D01*
X194965410Y-98079437D01*
X194862254Y-98281891D01*
X194792044Y-98497975D01*
X194756500Y-98722396D01*
X121200500Y-98722396D01*
X121200500Y-95486396D01*
X135256500Y-95486396D01*
X135256500Y-95713603D01*
X135292044Y-95938024D01*
X135362254Y-96154108D01*
X135465410Y-96356562D01*
X135598961Y-96540379D01*
X135759620Y-96701038D01*
X135759623Y-96701040D01*
X135943441Y-96834592D01*
X136145888Y-96937744D01*
X136361980Y-97007957D01*
X136586394Y-97043500D01*
X136586396Y-97043500D01*
X136813604Y-97043500D01*
X136813606Y-97043500D01*
X137038020Y-97007957D01*
X137254112Y-96937744D01*
X137456559Y-96834592D01*
X137640377Y-96701040D01*
X137801040Y-96540377D01*
X137934592Y-96356559D01*
X138037744Y-96154112D01*
X138107957Y-95938020D01*
X138143500Y-95713606D01*
X138143500Y-95486394D01*
X138107957Y-95261980D01*
X138037744Y-95045888D01*
X137934592Y-94843441D01*
X137801040Y-94659623D01*
X137801038Y-94659620D01*
X137640379Y-94498961D01*
X137456562Y-94365410D01*
X137456561Y-94365409D01*
X137456559Y-94365408D01*
X137254112Y-94262256D01*
X137254111Y-94262255D01*
X137254108Y-94262254D01*
X137038024Y-94192044D01*
X137038022Y-94192043D01*
X137038020Y-94192043D01*
X136813606Y-94156500D01*
X136586394Y-94156500D01*
X136361980Y-94192043D01*
X136361978Y-94192043D01*
X136361975Y-94192044D01*
X136145891Y-94262254D01*
X135943437Y-94365410D01*
X135759620Y-94498961D01*
X135598961Y-94659620D01*
X135465410Y-94843437D01*
X135362254Y-95045891D01*
X135292044Y-95261975D01*
X135256500Y-95486396D01*
X121200500Y-95486396D01*
X121200500Y-91041396D01*
X135256500Y-91041396D01*
X135256500Y-91268603D01*
X135292044Y-91493024D01*
X135362254Y-91709108D01*
X135465410Y-91911562D01*
X135598961Y-92095379D01*
X135759620Y-92256038D01*
X135759623Y-92256040D01*
X135943441Y-92389592D01*
X136145888Y-92492744D01*
X136361980Y-92562957D01*
X136586394Y-92598500D01*
X136586396Y-92598500D01*
X136813604Y-92598500D01*
X136813606Y-92598500D01*
X137038020Y-92562957D01*
X137254112Y-92492744D01*
X137456559Y-92389592D01*
X137640377Y-92256040D01*
X137801040Y-92095377D01*
X137934592Y-91911559D01*
X138037744Y-91709112D01*
X138107957Y-91493020D01*
X138143500Y-91268606D01*
X138143500Y-91041394D01*
X138107957Y-90816980D01*
X138037744Y-90600888D01*
X137934592Y-90398441D01*
X137801040Y-90214623D01*
X137801038Y-90214620D01*
X137640379Y-90053961D01*
X137456562Y-89920410D01*
X137456561Y-89920409D01*
X137456559Y-89920408D01*
X137254112Y-89817256D01*
X137254111Y-89817255D01*
X137254108Y-89817254D01*
X137038024Y-89747044D01*
X137038022Y-89747043D01*
X137038020Y-89747043D01*
X136813606Y-89711500D01*
X136586394Y-89711500D01*
X136361980Y-89747043D01*
X136361978Y-89747043D01*
X136361975Y-89747044D01*
X136145891Y-89817254D01*
X135943437Y-89920410D01*
X135759620Y-90053961D01*
X135598961Y-90214620D01*
X135465410Y-90398437D01*
X135362254Y-90600891D01*
X135292044Y-90816975D01*
X135256500Y-91041396D01*
X121200500Y-91041396D01*
X121200500Y-88369329D01*
X157713700Y-88369329D01*
X157713700Y-89830659D01*
X157713701Y-89830666D01*
X157716614Y-89855790D01*
X157716616Y-89855794D01*
X157761993Y-89958565D01*
X157841432Y-90038004D01*
X157841434Y-90038005D01*
X157841435Y-90038006D01*
X157944209Y-90083385D01*
X157969335Y-90086300D01*
X159430664Y-90086299D01*
X159455791Y-90083385D01*
X159558565Y-90038006D01*
X159558567Y-90038004D01*
X159635972Y-89960600D01*
X159638004Y-89958567D01*
X159638006Y-89958565D01*
X159683385Y-89855791D01*
X159686300Y-89830665D01*
X159686299Y-89006678D01*
X160054200Y-89006678D01*
X160054200Y-89193321D01*
X160083399Y-89377679D01*
X160141075Y-89555187D01*
X160225812Y-89721493D01*
X160225813Y-89721494D01*
X160242282Y-89744162D01*
X160812721Y-89173723D01*
X160837626Y-89266669D01*
X160894474Y-89365131D01*
X160974869Y-89445526D01*
X161073331Y-89502374D01*
X161166274Y-89527277D01*
X160595836Y-90097715D01*
X160595836Y-90097717D01*
X160618501Y-90114184D01*
X160784812Y-90198924D01*
X160962320Y-90256600D01*
X161146678Y-90285800D01*
X161333322Y-90285800D01*
X161517679Y-90256600D01*
X161695187Y-90198924D01*
X161861497Y-90114185D01*
X161884162Y-90097717D01*
X161313724Y-89527277D01*
X161406669Y-89502374D01*
X161505131Y-89445526D01*
X161585526Y-89365131D01*
X161642374Y-89266669D01*
X161667278Y-89173724D01*
X162237717Y-89744162D01*
X162254185Y-89721497D01*
X162338924Y-89555187D01*
X162396600Y-89377679D01*
X162425800Y-89193321D01*
X162425800Y-89006681D01*
X162425799Y-89006675D01*
X162425194Y-89002855D01*
X162793700Y-89002855D01*
X162793700Y-89197144D01*
X162827115Y-89365131D01*
X162831603Y-89387693D01*
X162905953Y-89567188D01*
X163013891Y-89728729D01*
X163151271Y-89866109D01*
X163312812Y-89974047D01*
X163492307Y-90048397D01*
X163682858Y-90086300D01*
X163682859Y-90086300D01*
X163877141Y-90086300D01*
X163877142Y-90086300D01*
X164067693Y-90048397D01*
X164247188Y-89974047D01*
X164408729Y-89866109D01*
X164546109Y-89728729D01*
X164654047Y-89567188D01*
X164728397Y-89387693D01*
X164766300Y-89197142D01*
X164766300Y-89002858D01*
X164728397Y-88812307D01*
X164654047Y-88632812D01*
X164546109Y-88471271D01*
X164408729Y-88333891D01*
X164247188Y-88225953D01*
X164067694Y-88151603D01*
X163877144Y-88113700D01*
X163877142Y-88113700D01*
X163682858Y-88113700D01*
X163682855Y-88113700D01*
X163492305Y-88151603D01*
X163492304Y-88151604D01*
X163312810Y-88225954D01*
X163151275Y-88333888D01*
X163151268Y-88333893D01*
X163013893Y-88471268D01*
X163013888Y-88471275D01*
X163009053Y-88478512D01*
X162905953Y-88632812D01*
X162891295Y-88668200D01*
X162831604Y-88812304D01*
X162831603Y-88812305D01*
X162793700Y-89002855D01*
X162425194Y-89002855D01*
X162396600Y-88822320D01*
X162338924Y-88644812D01*
X162254184Y-88478501D01*
X162237717Y-88455836D01*
X162237715Y-88455836D01*
X161667277Y-89026274D01*
X161642374Y-88933331D01*
X161585526Y-88834869D01*
X161505131Y-88754474D01*
X161406669Y-88697626D01*
X161313723Y-88672721D01*
X161884162Y-88102282D01*
X161861494Y-88085813D01*
X161861493Y-88085812D01*
X161695187Y-88001075D01*
X161517679Y-87943399D01*
X161333322Y-87914200D01*
X161146678Y-87914200D01*
X160962320Y-87943399D01*
X160784809Y-88001076D01*
X160618512Y-88085808D01*
X160618501Y-88085815D01*
X160595835Y-88102282D01*
X161166275Y-88672722D01*
X161073331Y-88697626D01*
X160974869Y-88754474D01*
X160894474Y-88834869D01*
X160837626Y-88933331D01*
X160812722Y-89026275D01*
X160242282Y-88455835D01*
X160225815Y-88478501D01*
X160225808Y-88478512D01*
X160141076Y-88644809D01*
X160083399Y-88822320D01*
X160054200Y-89006678D01*
X159686299Y-89006678D01*
X159686299Y-88369336D01*
X159683385Y-88344209D01*
X159638006Y-88241435D01*
X159638006Y-88241434D01*
X159558567Y-88161995D01*
X159558565Y-88161994D01*
X159455789Y-88116614D01*
X159455790Y-88116614D01*
X159430668Y-88113700D01*
X157969340Y-88113700D01*
X157969333Y-88113701D01*
X157944209Y-88116614D01*
X157944205Y-88116616D01*
X157841434Y-88161993D01*
X157761995Y-88241432D01*
X157761994Y-88241434D01*
X157716614Y-88344209D01*
X157713700Y-88369329D01*
X121200500Y-88369329D01*
X121200500Y-84675696D01*
X135057000Y-84675696D01*
X135057000Y-84934303D01*
X135097458Y-85189741D01*
X135177371Y-85435688D01*
X135177374Y-85435694D01*
X135294783Y-85666122D01*
X135374963Y-85776481D01*
X135374965Y-85776481D01*
X135917453Y-85233992D01*
X136009469Y-85371704D01*
X136133296Y-85495531D01*
X136271005Y-85587545D01*
X135728517Y-86130033D01*
X135728517Y-86130035D01*
X135838877Y-86210216D01*
X136069305Y-86327625D01*
X136069311Y-86327628D01*
X136315258Y-86407541D01*
X136570696Y-86448000D01*
X136829304Y-86448000D01*
X137084741Y-86407541D01*
X137330688Y-86327628D01*
X137330694Y-86327625D01*
X137561118Y-86210218D01*
X137671481Y-86130034D01*
X137671481Y-86130033D01*
X137128993Y-85587545D01*
X137266704Y-85495531D01*
X137390531Y-85371704D01*
X137482545Y-85233993D01*
X138025033Y-85776481D01*
X138025034Y-85776481D01*
X138105218Y-85666118D01*
X138222625Y-85435694D01*
X138222628Y-85435688D01*
X138302541Y-85189741D01*
X138343000Y-84934303D01*
X138343000Y-84675696D01*
X138302541Y-84420258D01*
X138222628Y-84174311D01*
X138222625Y-84174305D01*
X138105216Y-83943877D01*
X138025035Y-83833517D01*
X138025033Y-83833517D01*
X137482545Y-84376005D01*
X137390531Y-84238296D01*
X137266704Y-84114469D01*
X137128992Y-84022453D01*
X137671481Y-83479965D01*
X137671481Y-83479963D01*
X137561122Y-83399783D01*
X137330694Y-83282374D01*
X137330688Y-83282371D01*
X137084741Y-83202458D01*
X136829304Y-83162000D01*
X136570696Y-83162000D01*
X136315258Y-83202458D01*
X136069311Y-83282371D01*
X136069305Y-83282374D01*
X135838882Y-83399780D01*
X135838881Y-83399781D01*
X135728517Y-83479964D01*
X135728517Y-83479965D01*
X136271006Y-84022453D01*
X136133296Y-84114469D01*
X136009469Y-84238296D01*
X135917454Y-84376006D01*
X135374965Y-83833517D01*
X135374964Y-83833517D01*
X135294781Y-83943881D01*
X135294780Y-83943882D01*
X135177374Y-84174305D01*
X135177371Y-84174311D01*
X135097458Y-84420258D01*
X135057000Y-84675696D01*
X121200500Y-84675696D01*
X121200500Y-78103805D01*
X121200730Y-78096198D01*
X121200940Y-78092712D01*
X121206928Y-77993713D01*
X122349500Y-77993713D01*
X122349500Y-78206287D01*
X122382754Y-78416243D01*
X122448443Y-78618412D01*
X122544949Y-78807816D01*
X122669896Y-78979792D01*
X122669898Y-78979794D01*
X122669900Y-78979797D01*
X122820202Y-79130099D01*
X122820205Y-79130101D01*
X122820208Y-79130104D01*
X122992184Y-79255051D01*
X123181588Y-79351557D01*
X123383757Y-79417246D01*
X123593713Y-79450500D01*
X123593716Y-79450500D01*
X123806284Y-79450500D01*
X123806287Y-79450500D01*
X124016243Y-79417246D01*
X124218412Y-79351557D01*
X124407816Y-79255051D01*
X124579792Y-79130104D01*
X124730104Y-78979792D01*
X124855051Y-78807816D01*
X124951557Y-78618412D01*
X125017246Y-78416243D01*
X125050500Y-78206287D01*
X125050500Y-77993713D01*
X197349500Y-77993713D01*
X197349500Y-78206287D01*
X197382754Y-78416243D01*
X197448443Y-78618412D01*
X197544949Y-78807816D01*
X197669896Y-78979792D01*
X197669898Y-78979794D01*
X197669900Y-78979797D01*
X197820202Y-79130099D01*
X197820205Y-79130101D01*
X197820208Y-79130104D01*
X197992184Y-79255051D01*
X198181588Y-79351557D01*
X198383757Y-79417246D01*
X198593713Y-79450500D01*
X198593716Y-79450500D01*
X198806284Y-79450500D01*
X198806287Y-79450500D01*
X199016243Y-79417246D01*
X199218412Y-79351557D01*
X199407816Y-79255051D01*
X199579792Y-79130104D01*
X199730104Y-78979792D01*
X199855051Y-78807816D01*
X199951557Y-78618412D01*
X200017246Y-78416243D01*
X200050500Y-78206287D01*
X200050500Y-77993713D01*
X200017246Y-77783757D01*
X199951557Y-77581588D01*
X199855051Y-77392184D01*
X199730104Y-77220208D01*
X199730101Y-77220205D01*
X199730099Y-77220202D01*
X199579797Y-77069900D01*
X199579794Y-77069898D01*
X199579792Y-77069896D01*
X199450334Y-76975840D01*
X199407819Y-76944951D01*
X199407818Y-76944950D01*
X199407816Y-76944949D01*
X199218412Y-76848443D01*
X199016243Y-76782754D01*
X198806287Y-76749500D01*
X198593713Y-76749500D01*
X198383757Y-76782754D01*
X198383754Y-76782754D01*
X198383753Y-76782755D01*
X198181588Y-76848443D01*
X198181586Y-76848444D01*
X197992180Y-76944951D01*
X197820205Y-77069898D01*
X197820202Y-77069900D01*
X197669900Y-77220202D01*
X197669898Y-77220205D01*
X197544951Y-77392180D01*
X197544949Y-77392184D01*
X197448443Y-77581588D01*
X197382754Y-77783757D01*
X197349500Y-77993713D01*
X125050500Y-77993713D01*
X125017246Y-77783757D01*
X124951557Y-77581588D01*
X124855051Y-77392184D01*
X124730104Y-77220208D01*
X124730101Y-77220205D01*
X124730099Y-77220202D01*
X124579797Y-77069900D01*
X124579794Y-77069898D01*
X124579792Y-77069896D01*
X124450334Y-76975840D01*
X124407819Y-76944951D01*
X124407818Y-76944950D01*
X124407816Y-76944949D01*
X124218412Y-76848443D01*
X124016243Y-76782754D01*
X123806287Y-76749500D01*
X123593713Y-76749500D01*
X123383757Y-76782754D01*
X123383754Y-76782754D01*
X123383753Y-76782755D01*
X123181588Y-76848443D01*
X123181586Y-76848444D01*
X122992180Y-76944951D01*
X122820205Y-77069898D01*
X122820202Y-77069900D01*
X122669900Y-77220202D01*
X122669898Y-77220205D01*
X122544951Y-77392180D01*
X122544949Y-77392184D01*
X122448443Y-77581588D01*
X122382754Y-77783757D01*
X122349500Y-77993713D01*
X121206928Y-77993713D01*
X121218264Y-77806311D01*
X121220095Y-77791236D01*
X121271759Y-77509313D01*
X121275392Y-77494573D01*
X121360665Y-77220922D01*
X121366052Y-77206721D01*
X121483678Y-76945366D01*
X121490736Y-76931916D01*
X121639021Y-76686624D01*
X121647637Y-76674140D01*
X121824411Y-76448505D01*
X121834479Y-76437142D01*
X122037142Y-76234479D01*
X122048505Y-76224411D01*
X122274140Y-76047637D01*
X122286624Y-76039021D01*
X122531916Y-75890736D01*
X122545366Y-75883678D01*
X122806721Y-75766052D01*
X122820922Y-75760665D01*
X123094573Y-75675392D01*
X123109313Y-75671759D01*
X123391236Y-75620095D01*
X123406313Y-75618264D01*
X123668890Y-75602381D01*
X123696199Y-75600730D01*
X123703806Y-75600500D01*
X123765892Y-75600500D01*
X198634108Y-75600500D01*
X198696194Y-75600500D01*
X198703801Y-75600730D01*
G37*
%TD.AperFunction*%
%TD*%
M02*
