M48
; DRILL file {KiCad 9.0.0} date 2025-04-18T23:18:57-0500
; FORMAT={-:-/ absolute / metric / decimal}
; #@! TF.CreationDate,2025-04-18T23:18:57-05:00
; #@! TF.GenerationSoftware,Kicad,Pcbnew,9.0.0
; #@! TF.FileFunction,MixedPlating,1,2
FMAT,2
METRIC
; #@! TA.AperFunction,Plated,PTH,ViaDrill
T1C0.300
; #@! TA.AperFunction,Plated,PTH,ComponentDrill
T2C0.864
; #@! TA.AperFunction,Plated,PTH,ComponentDrill
T3C1.778
; #@! TA.AperFunction,NonPlated,NPTH,ComponentDrill
T4C2.200
%
G90
G05
T1
X123.7Y-83.1
X123.7Y-85.6
X123.7Y-88.1
X123.7Y-90.6
X123.7Y-93.1
X126.2Y-83.1
X126.2Y-85.6
X126.2Y-88.1
X126.2Y-90.6
X126.2Y-93.1
X128.7Y-115.1
X128.7Y-130.6
X128.7Y-133.1
X130.7Y-113.1
X131.2Y-130.6
X131.2Y-133.1
X132.7Y-111.1
X133.4Y-101.0
X134.7Y-116.1
X135.3Y-106.6
X136.7Y-114.1
X140.7Y-111.1
X141.2Y-95.6
X143.25Y-108.55
X143.7Y-78.1
X143.7Y-80.6
X143.7Y-83.1
X143.7Y-85.6
X143.7Y-95.6
X143.7Y-130.6
X143.7Y-133.1
X146.2Y-78.1
X146.2Y-80.6
X146.2Y-83.1
X146.2Y-85.6
X146.2Y-95.6
X146.2Y-98.1
X146.2Y-115.6
X146.2Y-118.1
X146.2Y-120.6
X146.2Y-128.1
X146.2Y-130.6
X146.2Y-133.1
X148.7Y-78.1
X148.7Y-80.6
X148.7Y-83.1
X148.7Y-85.6
X148.7Y-95.6
X148.7Y-98.1
X148.7Y-115.6
X148.7Y-118.1
X148.7Y-125.6
X148.7Y-128.1
X148.7Y-130.6
X148.7Y-133.1
X149.2Y-124.6
X149.977Y-108.714
X150.7Y-103.1
X151.2Y-78.1
X151.2Y-80.6
X151.2Y-83.1
X151.2Y-85.6
X151.2Y-95.6
X151.2Y-115.6
X151.2Y-118.1
X151.2Y-128.1
X151.2Y-130.6
X151.2Y-133.1
X152.25Y-93.15
X152.7Y-101.1
X153.7Y-78.1
X153.7Y-80.6
X153.7Y-83.1
X153.7Y-85.6
X153.7Y-93.1
X153.7Y-115.6
X153.7Y-118.1
X153.7Y-120.3
X153.7Y-128.1
X153.7Y-130.6
X153.7Y-133.1
X154.7Y-99.1
X155.7Y-105.1
X155.7Y-107.1
X156.2Y-93.1
X156.2Y-110.6
X156.2Y-115.6
X156.2Y-118.1
X156.2Y-128.1
X156.2Y-130.6
X156.2Y-133.1
X156.7Y-97.1
X157.2Y-120.6
X157.7Y-103.1
X157.7Y-105.1
X158.7Y-93.1
X158.7Y-108.1
X158.7Y-110.6
X158.7Y-115.6
X158.7Y-118.1
X158.7Y-128.1
X158.7Y-130.6
X158.7Y-133.1
X159.7Y-103.1
X160.2Y-107.1
X160.25Y-101.097
X160.26Y-93.15
X161.2Y-115.6
X161.2Y-128.1
X161.2Y-130.6
X161.2Y-133.1
X162.5Y-126.6
X163.7Y-113.1
X163.7Y-128.1
X163.7Y-130.6
X163.7Y-133.1
X165.7Y-95.1
X166.2Y-125.6
X166.2Y-128.1
X166.2Y-130.6
X166.2Y-133.1
X166.7Y-114.1
X167.5Y-99.3
X167.5Y-103.25
X167.7Y-95.1
X168.0Y-100.0
X168.2Y-129.9
X168.4Y-102.8
X168.6Y-101.8
X168.7Y-80.6
X168.7Y-83.1
X168.7Y-85.6
X168.7Y-88.1
X168.7Y-90.6
X168.7Y-113.1
X168.7Y-133.1
X169.1Y-118.6
X169.4Y-103.4
X169.7Y-95.1
X169.7Y-115.1
X169.9Y-106.5
X171.2Y-80.6
X171.2Y-83.1
X171.2Y-85.6
X171.2Y-88.1
X171.2Y-90.6
X171.2Y-123.1
X171.2Y-125.6
X171.2Y-128.1
X171.2Y-130.6
X171.2Y-133.1
X171.7Y-95.1
X173.1Y-113.8
X173.7Y-80.6
X173.7Y-83.1
X173.7Y-85.6
X173.7Y-88.1
X173.7Y-90.6
X173.7Y-95.6
X173.7Y-120.6
X173.7Y-125.6
X173.7Y-128.1
X175.258Y-108.4
X176.058Y-107.85
X176.2Y-80.6
X176.2Y-83.1
X176.2Y-85.6
X176.2Y-88.1
X176.2Y-90.6
X176.2Y-95.6
X176.2Y-123.1
X176.2Y-128.1
X176.605Y-108.523
X176.95Y-109.3
X178.6Y-117.6
X178.7Y-80.6
X178.7Y-83.1
X178.7Y-85.6
X178.7Y-88.1
X178.7Y-90.6
X178.7Y-95.6
X178.7Y-100.6
X178.7Y-105.1
X178.7Y-113.1
X178.7Y-115.6
X178.7Y-123.1
X178.8Y-108.6
X180.934Y-98.91
X181.2Y-80.6
X181.2Y-83.1
X181.2Y-85.6
X181.2Y-88.1
X181.2Y-90.6
X181.2Y-95.6
X181.2Y-100.6
X181.2Y-103.1
X182.7Y-103.3
X183.7Y-80.6
X183.7Y-83.1
X183.7Y-85.6
X183.7Y-88.1
X183.7Y-90.6
X183.7Y-93.1
X183.7Y-98.1
X183.7Y-100.6
X183.7Y-103.1
X183.7Y-115.6
X183.7Y-118.1
X183.7Y-120.6
X183.7Y-123.1
X183.7Y-125.6
X186.2Y-80.6
X186.2Y-83.1
X186.2Y-85.6
X186.2Y-88.1
X186.2Y-90.6
X186.2Y-93.1
X186.2Y-95.6
X186.2Y-98.1
X186.2Y-100.6
X186.2Y-103.1
X186.2Y-105.6
X186.2Y-113.1
X186.2Y-115.6
X186.2Y-118.1
X186.2Y-120.6
X186.2Y-123.1
X186.2Y-125.6
X186.2Y-128.1
X188.7Y-80.6
X188.7Y-83.1
X188.7Y-85.6
X188.7Y-88.1
X188.7Y-90.6
X188.7Y-93.1
X188.7Y-95.6
X188.7Y-98.1
X188.7Y-100.6
X188.7Y-103.1
X188.7Y-110.6
X188.7Y-113.1
X188.7Y-115.6
X188.7Y-118.1
X188.7Y-120.6
X188.7Y-123.1
X188.7Y-125.6
X188.7Y-128.1
X191.2Y-80.6
X191.2Y-83.1
X191.2Y-85.6
X191.2Y-88.1
X191.2Y-90.6
X191.2Y-93.1
X191.2Y-113.1
X191.2Y-115.6
X191.2Y-118.1
X191.2Y-120.6
X191.2Y-123.1
X191.2Y-125.6
X191.2Y-128.1
X193.7Y-113.1
X193.7Y-115.6
X193.7Y-118.1
X193.7Y-120.6
X193.7Y-123.1
X193.7Y-125.6
X193.7Y-128.1
X194.2Y-80.6
X194.2Y-83.1
X194.2Y-85.6
X194.2Y-88.1
X194.2Y-90.6
X194.2Y-93.1
X196.2Y-113.1
X196.2Y-115.6
X196.2Y-118.1
X196.2Y-120.6
X196.2Y-123.1
X196.2Y-125.6
X196.2Y-128.1
X196.7Y-80.6
X196.7Y-83.1
X196.7Y-85.6
X196.7Y-88.1
X196.7Y-90.6
X196.7Y-93.1
X198.7Y-113.1
X198.7Y-115.6
X198.7Y-118.1
X198.7Y-120.6
X198.7Y-123.1
X198.7Y-125.6
X198.7Y-128.1
T2
X158.7Y-89.1
X161.24Y-89.1
X163.78Y-89.1
T3
X128.969Y-120.85
X133.414Y-120.85
X136.7Y-84.805
X136.7Y-91.155
X136.7Y-95.6
X139.764Y-120.85
X195.1Y-98.836
X195.1Y-105.186
X195.1Y-109.631
T4
X123.7Y-78.1
X123.7Y-133.1
X198.7Y-78.1
X198.7Y-133.1
M30
