M48
; DRILL file {KiCad 9.0.0} date 2025-04-22T19:20:30-0500
; FORMAT={-:-/ absolute / metric / decimal}
; #@! TF.CreationDate,2025-04-22T19:20:30-05:00
; #@! TF.GenerationSoftware,Kicad,Pcbnew,9.0.0
; #@! TF.FileFunction,Plated,1,2,PTH
FMAT,2
METRIC
; #@! TA.AperFunction,Plated,PTH,ViaDrill
T1C0.300
; #@! TA.AperFunction,Plated,PTH,ComponentDrill
T2C0.864
; #@! TA.AperFunction,Plated,PTH,ComponentDrill
T3C1.778
%
G90
G05
T1
X123.7Y-83.1
X123.7Y-85.6
X123.7Y-88.1
X123.7Y-90.6
X123.7Y-93.1
X124.316Y-110.201
X124.335Y-119.42
X124.343Y-106.813
X124.349Y-114.595
X124.355Y-101.577
X125.824Y-125.092
X126.2Y-83.1
X126.2Y-85.6
X126.2Y-88.1
X126.2Y-90.6
X126.2Y-93.1
X126.696Y-98.557
X128.7Y-115.1
X128.7Y-130.6
X128.7Y-133.1
X129.351Y-98.324
X129.863Y-126.488
X130.7Y-113.1
X131.2Y-130.6
X131.2Y-133.1
X132.36Y-98.374
X132.7Y-111.1
X133.4Y-101.0
X134.349Y-126.501
X134.7Y-116.1
X135.3Y-106.6
X136.7Y-114.1
X136.807Y-98.35
X138.728Y-126.488
X139.849Y-98.355
X140.7Y-111.1
X141.2Y-95.6
X142.461Y-127.974
X142.699Y-99.266
X143.25Y-108.55
X143.7Y-78.1
X143.7Y-80.6
X143.7Y-83.1
X143.7Y-85.6
X143.7Y-95.6
X144.3Y-129.7
X144.624Y-117.424
X144.678Y-121.952
X145.233Y-101.84
X146.2Y-78.1
X146.2Y-80.6
X146.2Y-83.1
X146.2Y-85.6
X146.2Y-95.6
X146.2Y-98.1
X146.614Y-131.587
X147.159Y-103.705
X148.7Y-78.1
X148.7Y-80.6
X148.7Y-83.1
X148.7Y-85.6
X148.7Y-95.6
X148.7Y-98.1
X150.7Y-103.1
X151.2Y-78.1
X151.2Y-80.6
X151.2Y-83.1
X151.2Y-85.6
X151.2Y-95.6
X152.25Y-93.15
X152.7Y-101.1
X153.7Y-78.1
X153.7Y-80.6
X153.7Y-83.1
X153.7Y-85.6
X153.7Y-93.1
X153.705Y-104.721
X154.7Y-99.1
X155.673Y-116.127
X155.7Y-105.1
X155.7Y-107.1
X155.7Y-131.8
X156.2Y-93.1
X156.2Y-110.6
X156.2Y-130.8
X156.7Y-97.1
X157.2Y-120.6
X157.7Y-103.1
X157.7Y-105.1
X158.106Y-118.357
X158.7Y-93.1
X158.7Y-108.1
X158.7Y-110.6
X159.7Y-103.1
X160.2Y-107.1
X160.25Y-101.097
X160.26Y-93.15
X160.783Y-126.544
X161.2Y-115.6
X162.5Y-126.6
X162.602Y-96.902
X163.7Y-113.1
X163.7Y-128.1
X163.7Y-130.6
X163.7Y-133.1
X165.294Y-118.987
X165.7Y-95.1
X166.2Y-125.6
X166.2Y-128.1
X166.2Y-130.6
X166.2Y-133.1
X166.537Y-117.595
X166.7Y-114.1
X167.5Y-99.3
X167.5Y-103.25
X167.544Y-105.081
X167.562Y-107.286
X167.7Y-95.1
X168.0Y-100.0
X168.2Y-115.1
X168.2Y-129.9
X168.4Y-102.8
X168.6Y-101.8
X168.7Y-80.6
X168.7Y-83.1
X168.7Y-85.6
X168.7Y-88.1
X168.7Y-90.6
X168.7Y-113.1
X168.7Y-133.1
X168.792Y-96.916
X169.1Y-118.6
X169.4Y-103.4
X169.7Y-95.1
X169.9Y-106.5
X171.2Y-80.6
X171.2Y-83.1
X171.2Y-85.6
X171.2Y-88.1
X171.2Y-90.6
X171.2Y-123.1
X171.2Y-125.6
X171.2Y-128.1
X171.2Y-130.6
X171.2Y-133.1
X171.7Y-95.1
X173.1Y-113.8
X173.7Y-80.6
X173.7Y-83.1
X173.7Y-85.6
X173.7Y-88.1
X173.7Y-90.6
X173.7Y-95.6
X173.7Y-120.6
X173.7Y-125.6
X173.7Y-128.1
X175.258Y-108.4
X176.058Y-107.85
X176.2Y-80.6
X176.2Y-83.1
X176.2Y-85.6
X176.2Y-88.1
X176.2Y-90.6
X176.2Y-95.6
X176.2Y-123.1
X176.2Y-128.1
X176.95Y-109.3
X177.18Y-108.08
X178.6Y-117.6
X178.7Y-80.6
X178.7Y-83.1
X178.7Y-85.6
X178.7Y-88.1
X178.7Y-90.6
X178.7Y-95.6
X178.7Y-100.6
X178.7Y-105.1
X178.7Y-113.1
X178.7Y-115.6
X178.7Y-123.1
X178.8Y-108.6
X180.934Y-98.91
X181.2Y-80.6
X181.2Y-83.1
X181.2Y-85.6
X181.2Y-88.1
X181.2Y-90.6
X181.2Y-95.6
X181.2Y-100.6
X181.2Y-103.1
X182.7Y-103.3
X183.7Y-80.6
X183.7Y-83.1
X183.7Y-85.6
X183.7Y-88.1
X183.7Y-90.6
X183.7Y-93.1
X183.7Y-98.1
X183.7Y-100.6
X183.7Y-103.1
X183.7Y-115.6
X183.7Y-118.1
X183.7Y-120.6
X183.7Y-123.1
X183.7Y-125.6
X184.097Y-111.053
X184.384Y-106.881
X186.04Y-98.361
X186.2Y-80.6
X186.2Y-83.1
X186.2Y-85.6
X186.2Y-88.1
X186.2Y-90.6
X186.2Y-93.1
X186.2Y-95.6
X186.2Y-113.1
X186.2Y-115.6
X186.2Y-118.1
X186.2Y-125.6
X186.2Y-128.1
X186.22Y-101.13
X188.7Y-80.6
X188.7Y-83.1
X188.7Y-85.6
X188.7Y-88.1
X188.7Y-90.6
X188.7Y-93.1
X188.7Y-95.6
X188.7Y-113.1
X188.7Y-115.6
X188.7Y-125.6
X188.7Y-128.1
X189.653Y-108.682
X191.2Y-80.6
X191.2Y-83.1
X191.2Y-85.6
X191.2Y-88.1
X191.2Y-90.6
X191.2Y-93.1
X191.2Y-113.1
X191.2Y-125.6
X191.2Y-128.1
X193.7Y-113.1
X193.7Y-125.6
X193.7Y-128.1
X194.2Y-80.6
X194.2Y-83.1
X194.2Y-85.6
X194.2Y-88.1
X194.2Y-90.6
X194.2Y-93.1
X196.2Y-113.1
X196.2Y-125.6
X196.2Y-128.1
X196.7Y-80.6
X196.7Y-83.1
X196.7Y-85.6
X196.7Y-88.1
X196.7Y-90.6
X196.7Y-93.1
X198.7Y-113.1
X198.7Y-115.6
X198.7Y-118.1
X198.7Y-120.6
X198.7Y-123.1
X198.7Y-125.6
X198.7Y-128.1
T2
X158.7Y-89.1
X161.24Y-89.1
X163.78Y-89.1
T3
X128.969Y-120.85
X133.414Y-120.85
X136.7Y-84.805
X136.7Y-91.155
X136.7Y-95.6
X139.764Y-120.85
X149.5Y-120.836
X149.5Y-127.186
X149.5Y-131.631
X196.2Y-98.836
X196.2Y-105.186
X196.2Y-109.631
M30
