%TF.GenerationSoftware,KiCad,Pcbnew,9.0.0*%
%TF.CreationDate,2025-04-22T19:20:28-05:00*%
%TF.ProjectId,BSPD,42535044-2e6b-4696-9361-645f70636258,rev?*%
%TF.SameCoordinates,Original*%
%TF.FileFunction,Copper,L1,Top*%
%TF.FilePolarity,Positive*%
%FSLAX46Y46*%
G04 Gerber Fmt 4.6, Leading zero omitted, Abs format (unit mm)*
G04 Created by KiCad (PCBNEW 9.0.0) date 2025-04-22 19:20:28*
%MOMM*%
%LPD*%
G01*
G04 APERTURE LIST*
G04 Aperture macros list*
%AMRoundRect*
0 Rectangle with rounded corners*
0 $1 Rounding radius*
0 $2 $3 $4 $5 $6 $7 $8 $9 X,Y pos of 4 corners*
0 Add a 4 corners polygon primitive as box body*
4,1,4,$2,$3,$4,$5,$6,$7,$8,$9,$2,$3,0*
0 Add four circle primitives for the rounded corners*
1,1,$1+$1,$2,$3*
1,1,$1+$1,$4,$5*
1,1,$1+$1,$6,$7*
1,1,$1+$1,$8,$9*
0 Add four rect primitives between the rounded corners*
20,1,$1+$1,$2,$3,$4,$5,0*
20,1,$1+$1,$4,$5,$6,$7,0*
20,1,$1+$1,$6,$7,$8,$9,0*
20,1,$1+$1,$8,$9,$2,$3,0*%
G04 Aperture macros list end*
%TA.AperFunction,SMDPad,CuDef*%
%ADD10R,1.981200X0.558800*%
%TD*%
%TA.AperFunction,SMDPad,CuDef*%
%ADD11RoundRect,0.140000X-0.140000X-0.170000X0.140000X-0.170000X0.140000X0.170000X-0.140000X0.170000X0*%
%TD*%
%TA.AperFunction,ComponentPad*%
%ADD12C,2.286000*%
%TD*%
%TA.AperFunction,SMDPad,CuDef*%
%ADD13R,1.270000X1.549400*%
%TD*%
%TA.AperFunction,SMDPad,CuDef*%
%ADD14R,2.006600X1.549400*%
%TD*%
%TA.AperFunction,SMDPad,CuDef*%
%ADD15RoundRect,0.250000X-0.475000X0.250000X-0.475000X-0.250000X0.475000X-0.250000X0.475000X0.250000X0*%
%TD*%
%TA.AperFunction,SMDPad,CuDef*%
%ADD16RoundRect,0.250000X-0.312500X-0.625000X0.312500X-0.625000X0.312500X0.625000X-0.312500X0.625000X0*%
%TD*%
%TA.AperFunction,SMDPad,CuDef*%
%ADD17RoundRect,0.140000X0.170000X-0.140000X0.170000X0.140000X-0.170000X0.140000X-0.170000X-0.140000X0*%
%TD*%
%TA.AperFunction,SMDPad,CuDef*%
%ADD18RoundRect,0.250000X-0.625000X0.312500X-0.625000X-0.312500X0.625000X-0.312500X0.625000X0.312500X0*%
%TD*%
%TA.AperFunction,SMDPad,CuDef*%
%ADD19RoundRect,0.140000X0.140000X0.170000X-0.140000X0.170000X-0.140000X-0.170000X0.140000X-0.170000X0*%
%TD*%
%TA.AperFunction,SMDPad,CuDef*%
%ADD20R,0.800001X0.549999*%
%TD*%
%TA.AperFunction,SMDPad,CuDef*%
%ADD21RoundRect,0.150000X0.150000X-0.587500X0.150000X0.587500X-0.150000X0.587500X-0.150000X-0.587500X0*%
%TD*%
%TA.AperFunction,SMDPad,CuDef*%
%ADD22RoundRect,0.250000X-0.262500X-0.450000X0.262500X-0.450000X0.262500X0.450000X-0.262500X0.450000X0*%
%TD*%
%TA.AperFunction,SMDPad,CuDef*%
%ADD23RoundRect,0.250000X0.250000X0.475000X-0.250000X0.475000X-0.250000X-0.475000X0.250000X-0.475000X0*%
%TD*%
%TA.AperFunction,ComponentPad*%
%ADD24R,1.371600X1.371600*%
%TD*%
%TA.AperFunction,ComponentPad*%
%ADD25C,1.371600*%
%TD*%
%TA.AperFunction,SMDPad,CuDef*%
%ADD26R,0.762000X0.254000*%
%TD*%
%TA.AperFunction,ViaPad*%
%ADD27C,0.700000*%
%TD*%
%TA.AperFunction,ViaPad*%
%ADD28C,0.600000*%
%TD*%
%TA.AperFunction,Conductor*%
%ADD29C,0.500000*%
%TD*%
%TA.AperFunction,Conductor*%
%ADD30C,0.300000*%
%TD*%
G04 APERTURE END LIST*
D10*
%TO.P,U106,1,GND*%
%TO.N,GND*%
X159236200Y-120695000D03*
%TO.P,U106,2,TRIG*%
%TO.N,Net-(U104-Y)*%
X159236200Y-121965000D03*
%TO.P,U106,3,OUT*%
%TO.N,Net-(U106-OUT)*%
X159236200Y-123235000D03*
%TO.P,U106,4,RESET*%
%TO.N,+5V*%
X159236200Y-124505000D03*
%TO.P,U106,5,CONT*%
%TO.N,Net-(U106-CONT)*%
X164163800Y-124505000D03*
%TO.P,U106,6,THRES*%
%TO.N,Net-(U106-DISCH)*%
X164163800Y-123235000D03*
%TO.P,U106,7,DISCH*%
X164163800Y-121965000D03*
%TO.P,U106,8,VCC*%
%TO.N,+5V*%
X164163800Y-120695000D03*
%TD*%
D11*
%TO.P,C103,1*%
%TO.N,+5V*%
X158620000Y-126500001D03*
%TO.P,C103,2*%
%TO.N,GND*%
X159580000Y-126500001D03*
%TD*%
D12*
%TO.P,U102,1,1*%
%TO.N,+12V*%
X136700000Y-91155000D03*
%TO.P,U102,2,2*%
%TO.N,GND*%
X136700000Y-84805000D03*
%TO.P,U102,3*%
%TO.N,N/C*%
X136700000Y-95600000D03*
%TD*%
D13*
%TO.P,RV101,1,1*%
%TO.N,+5V*%
X137827597Y-108264946D03*
D14*
%TO.P,RV101,2,2*%
%TO.N,THRESH_BSE*%
X136557597Y-111160546D03*
D13*
%TO.P,RV101,3,3*%
%TO.N,GND*%
X135287597Y-108264946D03*
%TD*%
%TO.P,RV103,1,1*%
%TO.N,+5V*%
X164720000Y-101096700D03*
D14*
%TO.P,RV103,2,2*%
%TO.N,10\u0025_THROTTLE*%
X163450000Y-103992300D03*
D13*
%TO.P,RV103,3,3*%
%TO.N,GND*%
X162180000Y-101096700D03*
%TD*%
D12*
%TO.P,U111,1,1*%
%TO.N,THROTTLE_Sense_IN*%
X149500000Y-127186000D03*
%TO.P,U111,2,2*%
%TO.N,BSE_Sense_IN*%
X149500000Y-120836000D03*
%TO.P,U111,3*%
%TO.N,N/C*%
X149500000Y-131631000D03*
%TD*%
D15*
%TO.P,C108,1*%
%TO.N,Net-(U106-DISCH)*%
X168200000Y-126600000D03*
%TO.P,C108,2*%
%TO.N,GND*%
X168200000Y-128500000D03*
%TD*%
D16*
%TO.P,R102,1*%
%TO.N,Net-(U107-3A)*%
X175737500Y-119600001D03*
%TO.P,R102,2*%
%TO.N,GND*%
X178662500Y-119600001D03*
%TD*%
D15*
%TO.P,C102,1*%
%TO.N,+12V*%
X152250000Y-89800000D03*
%TO.P,C102,2*%
%TO.N,GND*%
X152250000Y-91700000D03*
%TD*%
D17*
%TO.P,C109,1*%
%TO.N,+5V*%
X182700000Y-105380000D03*
%TO.P,C109,2*%
%TO.N,GND*%
X182700000Y-104420000D03*
%TD*%
D18*
%TO.P,R103,1*%
%TO.N,+5V*%
X168200000Y-121137500D03*
%TO.P,R103,2*%
%TO.N,Net-(U106-DISCH)*%
X168200000Y-124062500D03*
%TD*%
D19*
%TO.P,C106,1*%
%TO.N,+5V*%
X173180000Y-114800000D03*
%TO.P,C106,2*%
%TO.N,GND*%
X172220000Y-114800000D03*
%TD*%
D12*
%TO.P,U110,1,1*%
%TO.N,BSPD_TO_FAULT*%
X196200000Y-105186000D03*
%TO.P,U110,2,2*%
%TO.N,unconnected-(U110-Pad2)*%
X196200000Y-98836000D03*
%TO.P,U110,3*%
%TO.N,N/C*%
X196200000Y-109631000D03*
%TD*%
D20*
%TO.P,U104,1,A*%
%TO.N,1OUT*%
X156150000Y-127800001D03*
%TO.P,U104,2,B*%
%TO.N,2OUT*%
X156150000Y-128750002D03*
%TO.P,U104,3,V-*%
%TO.N,GND*%
X156150000Y-129700000D03*
%TO.P,U104,4,Y*%
%TO.N,Net-(U104-Y)*%
X158700000Y-129700000D03*
%TO.P,U104,5,V+*%
%TO.N,+5V*%
X158700000Y-127800001D03*
%TD*%
D21*
%TO.P,Q1,1,G*%
%TO.N,Net-(Q1-G)*%
X187751346Y-102679395D03*
%TO.P,Q1,2,S*%
%TO.N,GND*%
X189651346Y-102679395D03*
%TO.P,Q1,3,D*%
%TO.N,Net-(Q1-D)*%
X188701346Y-100804395D03*
%TD*%
D22*
%TO.P,R1,1*%
%TO.N,+12V*%
X187640304Y-98399582D03*
%TO.P,R1,2*%
%TO.N,Net-(Q1-D)*%
X189465304Y-98399582D03*
%TD*%
D23*
%TO.P,C104,1*%
%TO.N,+5V*%
X163650000Y-93100000D03*
%TO.P,C104,2*%
%TO.N,GND*%
X161750000Y-93100000D03*
%TD*%
D19*
%TO.P,C101,1*%
%TO.N,+5V*%
X145130000Y-108550000D03*
%TO.P,C101,2*%
%TO.N,GND*%
X144170000Y-108550000D03*
%TD*%
D24*
%TO.P,U103,1,+VIN*%
%TO.N,+12V*%
X158700000Y-89100000D03*
D25*
%TO.P,U103,2,GND*%
%TO.N,GND*%
X161240000Y-89100000D03*
%TO.P,U103,3,+VOUT*%
%TO.N,+5V*%
X163780000Y-89100000D03*
%TD*%
D11*
%TO.P,C107,1*%
%TO.N,+5V*%
X178690000Y-98850000D03*
%TO.P,C107,2*%
%TO.N,GND*%
X179650000Y-98850000D03*
%TD*%
D21*
%TO.P,Q2,1,G*%
%TO.N,Net-(Q1-D)*%
X187750000Y-107037500D03*
%TO.P,Q2,2,S*%
%TO.N,GND*%
X189650000Y-107037500D03*
%TO.P,Q2,3,D*%
%TO.N,BSPD_TO_FAULT*%
X188700000Y-105162500D03*
%TD*%
D16*
%TO.P,R101,1*%
%TO.N,Net-(U107-2A)*%
X170237500Y-112100001D03*
%TO.P,R101,2*%
%TO.N,GND*%
X173162500Y-112100001D03*
%TD*%
D10*
%TO.P,U108,1,1A*%
%TO.N,Net-(U107-1Y)*%
X171772400Y-98830000D03*
%TO.P,U108,2,1B*%
%TO.N,Net-(U104-Y)*%
X171772400Y-100100000D03*
%TO.P,U108,3,1Y*%
%TO.N,Net-(U108-1Y)*%
X171772400Y-101370000D03*
%TO.P,U108,4,2A*%
%TO.N,+5V*%
X171772400Y-102640000D03*
%TO.P,U108,5,2B*%
X171772400Y-103910000D03*
%TO.P,U108,6,2Y*%
%TO.N,unconnected-(U108-2Y-Pad6)*%
X171772400Y-105180000D03*
%TO.P,U108,7,GND*%
%TO.N,GND*%
X171772400Y-106450000D03*
%TO.P,U108,8,3Y*%
%TO.N,unconnected-(U108-3Y-Pad8)*%
X176700000Y-106450000D03*
%TO.P,U108,9,3A*%
%TO.N,+5V*%
X176700000Y-105180000D03*
%TO.P,U108,10,3B*%
X176700000Y-103910000D03*
%TO.P,U108,11,4Y*%
%TO.N,Net-(U108-4Y)*%
X176700000Y-102640000D03*
%TO.P,U108,12,4A*%
%TO.N,4OUT*%
X176700000Y-101370000D03*
%TO.P,U108,13,4B*%
%TO.N,3OUT*%
X176700000Y-100100000D03*
%TO.P,U108,14,VCC*%
%TO.N,+5V*%
X176700000Y-98830000D03*
%TD*%
D12*
%TO.P,U101,1,1*%
%TO.N,THROTTLE_IN*%
X133414000Y-120850000D03*
%TO.P,U101,2,2*%
%TO.N,BSE_IN*%
X139764000Y-120850000D03*
%TO.P,U101,3*%
%TO.N,N/C*%
X128969000Y-120850000D03*
%TD*%
D20*
%TO.P,U109,1,A*%
%TO.N,Net-(U108-1Y)*%
X180150000Y-106740001D03*
%TO.P,U109,2,B*%
%TO.N,Net-(U108-4Y)*%
X180150000Y-107690002D03*
%TO.P,U109,3,V-*%
%TO.N,GND*%
X180150000Y-108640000D03*
%TO.P,U109,4,Y*%
%TO.N,Net-(Q1-G)*%
X182700000Y-108640000D03*
%TO.P,U109,5,V+*%
%TO.N,+5V*%
X182700000Y-106740001D03*
%TD*%
D26*
%TO.P,U107,1,1A*%
%TO.N,Net-(U106-OUT)*%
X170050400Y-116099999D03*
%TO.P,U107,2,3Y*%
%TO.N,+5V*%
X170050400Y-116600000D03*
%TO.P,U107,3,2A*%
%TO.N,Net-(U107-2A)*%
X170050400Y-117100000D03*
%TO.P,U107,4,GND*%
%TO.N,GND*%
X170050400Y-117600001D03*
%TO.P,U107,5,2Y*%
%TO.N,+5V*%
X173200000Y-117600001D03*
%TO.P,U107,6,3A*%
%TO.N,Net-(U107-3A)*%
X173200000Y-117100000D03*
%TO.P,U107,7,1Y*%
%TO.N,Net-(U107-1Y)*%
X173200000Y-116600000D03*
%TO.P,U107,8,VCC*%
%TO.N,+5V*%
X173200000Y-116099999D03*
%TD*%
D19*
%TO.P,C105,1*%
%TO.N,Net-(U106-CONT)*%
X164680000Y-126600000D03*
%TO.P,C105,2*%
%TO.N,GND*%
X163720000Y-126600000D03*
%TD*%
D13*
%TO.P,RV104,1,1*%
%TO.N,+5V*%
X164740000Y-107100000D03*
D14*
%TO.P,RV104,2,2*%
%TO.N,HARD_BREAK*%
X163470000Y-109995600D03*
D13*
%TO.P,RV104,3,3*%
%TO.N,GND*%
X162200000Y-107100000D03*
%TD*%
D10*
%TO.P,U105,1,1OUT*%
%TO.N,1OUT*%
X147097300Y-105990000D03*
%TO.P,U105,2,2OUT*%
%TO.N,2OUT*%
X147097300Y-107260000D03*
%TO.P,U105,3,VCC*%
%TO.N,+5V*%
X147097300Y-108530000D03*
%TO.P,U105,4,2IN-*%
%TO.N,THRESH_THROTTLE*%
X147097300Y-109800000D03*
%TO.P,U105,5,2IN+*%
%TO.N,THROTTLE_IN*%
X147097300Y-111070000D03*
%TO.P,U105,6,1IN-*%
%TO.N,THRESH_BSE*%
X147097300Y-112340000D03*
%TO.P,U105,7,1IN+*%
%TO.N,BSE_IN*%
X147097300Y-113610000D03*
%TO.P,U105,8,3IN-*%
%TO.N,HARD_BREAK*%
X152024900Y-113610000D03*
%TO.P,U105,9,3IN+*%
%TO.N,BSE_Sense_IN*%
X152024900Y-112340000D03*
%TO.P,U105,10,4IN-*%
%TO.N,10\u0025_THROTTLE*%
X152024900Y-111070000D03*
%TO.P,U105,11,4IN+*%
%TO.N,THROTTLE_Sense_IN*%
X152024900Y-109800000D03*
%TO.P,U105,12,GND*%
%TO.N,GND*%
X152024900Y-108530000D03*
%TO.P,U105,13,OUT4*%
%TO.N,4OUT*%
X152024900Y-107260000D03*
%TO.P,U105,14,OUT3*%
%TO.N,3OUT*%
X152024900Y-105990000D03*
%TD*%
D13*
%TO.P,RV102,1,1*%
%TO.N,+5V*%
X137770000Y-100959400D03*
D14*
%TO.P,RV102,2,2*%
%TO.N,THRESH_THROTTLE*%
X136500000Y-103855000D03*
D13*
%TO.P,RV102,3,3*%
%TO.N,GND*%
X135230000Y-100959400D03*
%TD*%
D27*
%TO.N,GND*%
X178700000Y-83100000D03*
X180933800Y-98910000D03*
X169100000Y-118600000D03*
X171200000Y-123100000D03*
X188700000Y-80600000D03*
X173700000Y-128100000D03*
X188700000Y-115600000D03*
X153700000Y-93100000D03*
X176058400Y-107850000D03*
X123700000Y-90600000D03*
X168600000Y-101800000D03*
X151200000Y-78100000D03*
X173700000Y-120600000D03*
X126200000Y-88100000D03*
X142460565Y-127973776D03*
X178700000Y-88100000D03*
X176200000Y-80600000D03*
X125824442Y-125091850D03*
X178600000Y-117600000D03*
X148700000Y-85600000D03*
X171200000Y-128100000D03*
X128700000Y-115100000D03*
X166200000Y-130600000D03*
X188700000Y-90600000D03*
X188700000Y-95600000D03*
D28*
X162500000Y-126600000D03*
D27*
X186200000Y-83100000D03*
X153705223Y-104720797D03*
X147158689Y-103705180D03*
X193700000Y-128100000D03*
X194200000Y-83100000D03*
X186200000Y-113100000D03*
X130700000Y-113100000D03*
X168700000Y-90600000D03*
X191200000Y-90600000D03*
X198700000Y-120600000D03*
X168700000Y-113100000D03*
X167500000Y-103250000D03*
X148700000Y-83100000D03*
X126695778Y-98556975D03*
X123700000Y-88100000D03*
X196200000Y-125600000D03*
X191200000Y-125600000D03*
X186200000Y-80600000D03*
X171200000Y-130600000D03*
X166700000Y-114100000D03*
X178700000Y-115600000D03*
X171200000Y-90600000D03*
X191200000Y-93100000D03*
X198700000Y-123100000D03*
X128700000Y-130600000D03*
X184096506Y-111052715D03*
X143700000Y-83100000D03*
X136700000Y-114100000D03*
X132360107Y-98373636D03*
X189652715Y-108681892D03*
X168700000Y-80600000D03*
X196700000Y-83100000D03*
X188700000Y-85600000D03*
X143700000Y-80600000D03*
X156200000Y-110600000D03*
X132700000Y-111100000D03*
X144678237Y-121951598D03*
X194200000Y-90600000D03*
X176200000Y-123100000D03*
X152250000Y-93150000D03*
X166200000Y-133100000D03*
X173700000Y-125600000D03*
X168700000Y-88100000D03*
X171200000Y-125600000D03*
X140700000Y-111100000D03*
X173700000Y-83100000D03*
X186200000Y-93100000D03*
X143700000Y-95600000D03*
X163700000Y-133100000D03*
X129351251Y-98324309D03*
X155673057Y-116126942D03*
D28*
X168200000Y-129900000D03*
D27*
X181200000Y-88100000D03*
X153700000Y-78100000D03*
X173100000Y-113800000D03*
X196200000Y-128100000D03*
X178700000Y-80600000D03*
X173700000Y-88100000D03*
X176200000Y-88100000D03*
X194200000Y-88100000D03*
X191200000Y-113100000D03*
X183700000Y-118100000D03*
X159700000Y-103100000D03*
X156700000Y-97100000D03*
X123700000Y-85600000D03*
X151200000Y-85600000D03*
X169900000Y-106500000D03*
X177180025Y-108080025D03*
X123700000Y-83100000D03*
X173700000Y-80600000D03*
X168700000Y-133100000D03*
X188700000Y-93100000D03*
D28*
X156200000Y-130800001D03*
D27*
X160200000Y-107100000D03*
X186200000Y-128100000D03*
X158700000Y-93100000D03*
X188700000Y-125600000D03*
X151200000Y-80600000D03*
X196200000Y-113100000D03*
X126200000Y-90600000D03*
X143700000Y-85600000D03*
X196700000Y-85600000D03*
X157700000Y-105100000D03*
X146200000Y-85600000D03*
X184384296Y-106881260D03*
X178700000Y-90600000D03*
X167700000Y-95100000D03*
X153700000Y-85600000D03*
X144624178Y-117424178D03*
X158700000Y-110600000D03*
X146200000Y-78100000D03*
X160783438Y-126543830D03*
X138728245Y-126487874D03*
X166200000Y-125600000D03*
X183700000Y-120600000D03*
X183700000Y-123100000D03*
X196700000Y-88100000D03*
X160250000Y-101096700D03*
X165293864Y-118986615D03*
X163700000Y-128100000D03*
X183700000Y-125600000D03*
X148700000Y-98100000D03*
X126200000Y-85600000D03*
D28*
X182700000Y-103300000D03*
D27*
X124355375Y-101577137D03*
X191200000Y-88100000D03*
X156200000Y-93100000D03*
X186200000Y-125600000D03*
X146200000Y-98100000D03*
X191200000Y-83100000D03*
X131200000Y-130600000D03*
X146200000Y-83100000D03*
X153700000Y-80600000D03*
X186200000Y-88100000D03*
X165700000Y-95100000D03*
X158105701Y-118356865D03*
X191200000Y-128100000D03*
X181200000Y-95600000D03*
X171200000Y-80600000D03*
X186219915Y-101130361D03*
X161200000Y-115600000D03*
X196700000Y-80600000D03*
X131200000Y-133100000D03*
X178700000Y-85600000D03*
X191200000Y-85600000D03*
X144300000Y-129700000D03*
X194200000Y-80600000D03*
X153700000Y-83100000D03*
X198700000Y-128100000D03*
X148700000Y-78100000D03*
X183700000Y-85600000D03*
X176200000Y-128100000D03*
X155700000Y-105100000D03*
X171200000Y-88100000D03*
X167544379Y-105081136D03*
X146200000Y-80600000D03*
X181200000Y-85600000D03*
X198700000Y-125600000D03*
X196700000Y-90600000D03*
X142698842Y-99265605D03*
X193700000Y-125600000D03*
X178700000Y-105100000D03*
X150700000Y-103100000D03*
X173700000Y-95600000D03*
X168791957Y-96916084D03*
X183700000Y-115600000D03*
X196700000Y-93100000D03*
D28*
X143250000Y-108550000D03*
D27*
X136806506Y-98350402D03*
X181200000Y-90600000D03*
X176200000Y-83100000D03*
X188700000Y-83100000D03*
X134700000Y-116100000D03*
X183700000Y-98100000D03*
X176200000Y-90600000D03*
X167500000Y-99300000D03*
X162602490Y-96901937D03*
X188700000Y-88100000D03*
X188700000Y-128100000D03*
X166537215Y-117594602D03*
X178800000Y-108600000D03*
X148700000Y-80600000D03*
X160260000Y-93149932D03*
X151200000Y-83100000D03*
D28*
X135300000Y-106600000D03*
D27*
X186200000Y-118100000D03*
X151200000Y-95600000D03*
X171200000Y-83100000D03*
X183700000Y-93100000D03*
X123700000Y-93100000D03*
X186200000Y-115600000D03*
X168700000Y-85600000D03*
X178700000Y-100600000D03*
X126200000Y-93100000D03*
X168700000Y-83100000D03*
X171200000Y-133100000D03*
X134349486Y-126501389D03*
X163700000Y-130600000D03*
X181200000Y-83100000D03*
X173700000Y-90600000D03*
X168200000Y-115100000D03*
X169400000Y-103400000D03*
X163700000Y-113100000D03*
X124343090Y-106813037D03*
X166200000Y-128100000D03*
X124348618Y-114594950D03*
X198700000Y-113100000D03*
X181200000Y-100600000D03*
X176200000Y-95600000D03*
X171200000Y-85600000D03*
X157700000Y-103100000D03*
X173700000Y-85600000D03*
X167562063Y-107285766D03*
D28*
X157200000Y-120600000D03*
D27*
X194200000Y-85600000D03*
X186200000Y-85600000D03*
X169700000Y-95100000D03*
X186039536Y-98361016D03*
X126200000Y-83100000D03*
X143700000Y-78100000D03*
X146614079Y-131586702D03*
X194200000Y-93100000D03*
X129862610Y-126487874D03*
X176200000Y-85600000D03*
X178700000Y-113100000D03*
X181200000Y-80600000D03*
X155700000Y-107100000D03*
X183700000Y-80600000D03*
X183700000Y-100600000D03*
X124335103Y-119419693D03*
X188700000Y-113100000D03*
X154700000Y-99100000D03*
X183700000Y-90600000D03*
X148700000Y-95600000D03*
X145232846Y-101840153D03*
X183700000Y-88100000D03*
X128700000Y-133100000D03*
X183700000Y-83100000D03*
X141200000Y-95600000D03*
X178700000Y-95600000D03*
X178700000Y-123100000D03*
X186200000Y-95600000D03*
X155700000Y-131800001D03*
X186200000Y-90600000D03*
X191200000Y-80600000D03*
X198700000Y-115600000D03*
X152700000Y-101100000D03*
X193700000Y-113100000D03*
X158700000Y-108100000D03*
X124316061Y-110200718D03*
X139848857Y-98355190D03*
D28*
X133400000Y-101000000D03*
D27*
X183700000Y-103100000D03*
X146200000Y-95600000D03*
X198700000Y-118100000D03*
X181200000Y-103100000D03*
X171700000Y-95100000D03*
D28*
%TO.N,+5V*%
X175258400Y-108400000D03*
X168400000Y-102800000D03*
%TO.N,Net-(U108-1Y)*%
X176950000Y-109300000D03*
X168000000Y-100000000D03*
%TD*%
D29*
%TO.N,+12V*%
X166200000Y-90100000D02*
X166200000Y-88100000D01*
X166200000Y-88100000D02*
X165200000Y-87100000D01*
X187640304Y-92159696D02*
X187700000Y-92100000D01*
X187640304Y-98399582D02*
X187640304Y-92159696D01*
X187700000Y-92100000D02*
X187200000Y-91600000D01*
X165200000Y-87100000D02*
X159200000Y-87100000D01*
X167700000Y-91600000D02*
X166200000Y-90100000D01*
X187200000Y-91600000D02*
X167700000Y-91600000D01*
D30*
%TO.N,GND*%
X170050400Y-118249600D02*
X170050400Y-117600001D01*
X169100000Y-118600000D02*
X169700000Y-118600000D01*
D29*
X179690000Y-98810000D02*
X179650000Y-98850000D01*
X180150000Y-108640000D02*
X179660000Y-108640000D01*
D30*
X169700000Y-118600000D02*
X170050400Y-118249600D01*
D29*
X156150000Y-130750001D02*
X156200000Y-130800001D01*
%TO.N,+5V*%
X177200000Y-98330000D02*
X177200000Y-93100000D01*
X176700000Y-105180000D02*
X176700000Y-103910000D01*
X171772400Y-102640000D02*
X171772400Y-103910000D01*
X173180000Y-114800000D02*
X173180000Y-115929000D01*
X172000000Y-122000000D02*
X172000000Y-119600000D01*
X133950000Y-105700000D02*
X136300000Y-105700000D01*
D30*
X168200000Y-117200999D02*
X168200000Y-119800000D01*
D29*
X172000000Y-119600000D02*
X173200000Y-118400000D01*
X162600000Y-94900000D02*
X163650000Y-93850000D01*
X180300000Y-110800000D02*
X179566999Y-110800000D01*
D30*
X170050400Y-116600000D02*
X168800999Y-116600000D01*
D29*
X163650000Y-93100000D02*
X163650000Y-89230000D01*
X148587900Y-108530000D02*
X149300000Y-107817900D01*
X163650000Y-89230000D02*
X163780000Y-89100000D01*
X176700000Y-110800000D02*
X175258400Y-109358400D01*
X175798000Y-105180000D02*
X176700000Y-105180000D01*
X161095000Y-124505000D02*
X162200000Y-123400000D01*
X165500000Y-101876700D02*
X165500000Y-106340000D01*
X155500000Y-94900000D02*
X162600000Y-94900000D01*
X145130000Y-108550000D02*
X147077300Y-108550000D01*
X175258400Y-109358400D02*
X175258400Y-108400000D01*
D30*
X172200000Y-117600000D02*
X172200000Y-116100000D01*
D29*
X162605000Y-120695000D02*
X164163800Y-120695000D01*
X175258400Y-108400000D02*
X175258400Y-105719600D01*
X181400000Y-109700000D02*
X180300000Y-110800000D01*
X182000000Y-123500000D02*
X180500000Y-125000000D01*
X181400000Y-108040001D02*
X181400000Y-109700000D01*
X136300000Y-105700000D02*
X137827597Y-107227597D01*
X145130000Y-108550000D02*
X145130000Y-106680000D01*
X145130000Y-106680000D02*
X139409400Y-100959400D01*
X149300000Y-101100000D02*
X155500000Y-94900000D01*
X171732400Y-102600000D02*
X171772400Y-102640000D01*
X182000000Y-112500000D02*
X182000000Y-123500000D01*
D30*
X173200000Y-116099999D02*
X172200000Y-116100000D01*
D29*
X149300000Y-107817900D02*
X149300000Y-101100000D01*
X162200000Y-123400000D02*
X162200000Y-121100000D01*
X133550000Y-103150000D02*
X133550000Y-105300000D01*
X166523392Y-120695000D02*
X164163800Y-120695000D01*
X184420000Y-105380000D02*
X182700000Y-105380000D01*
X176700000Y-103910000D02*
X175988800Y-103910000D01*
X158620000Y-126500001D02*
X158620000Y-127720001D01*
X163650000Y-93850000D02*
X163650000Y-93100000D01*
X168200000Y-121137500D02*
X166965892Y-121137500D01*
X166965892Y-121137500D02*
X166523392Y-120695000D01*
X134200000Y-102500000D02*
X133550000Y-103150000D01*
D30*
X173200000Y-117600001D02*
X172200000Y-117600000D01*
D29*
X165500000Y-106340000D02*
X164740000Y-107100000D01*
X159236200Y-124505000D02*
X158620000Y-125121200D01*
X173180000Y-115929000D02*
X173200000Y-115949000D01*
X178670000Y-98830000D02*
X178690000Y-98850000D01*
X137770000Y-100959400D02*
X136229400Y-102500000D01*
X139409400Y-100959400D02*
X137770000Y-100959400D01*
X168200000Y-119800000D02*
X168200000Y-121137500D01*
X175000000Y-125000000D02*
X172000000Y-122000000D01*
D30*
X168800999Y-116600000D02*
X168200000Y-117200999D01*
D29*
X147097300Y-108530000D02*
X148587900Y-108530000D01*
X184700000Y-105100000D02*
X184420000Y-105380000D01*
X176700000Y-98830000D02*
X178670000Y-98830000D01*
X137827597Y-107227597D02*
X137827597Y-108264946D01*
X159236200Y-124505000D02*
X161095000Y-124505000D01*
X182700000Y-106740001D02*
X181400000Y-108040001D01*
X164720000Y-101096700D02*
X165500000Y-101876700D01*
X168400000Y-119600000D02*
X172000000Y-119600000D01*
X166696700Y-101096700D02*
X168400000Y-102800000D01*
X147077300Y-108550000D02*
X147097300Y-108530000D01*
X177200000Y-93100000D02*
X182000000Y-93100000D01*
X180500000Y-125000000D02*
X175000000Y-125000000D01*
X182700000Y-105380000D02*
X182700000Y-106740001D01*
X182000000Y-93100000D02*
X184700000Y-95800000D01*
X163650000Y-93100000D02*
X177200000Y-93100000D01*
X175258400Y-105719600D02*
X175798000Y-105180000D01*
X179566999Y-110800000D02*
X176700000Y-110800000D01*
X158620000Y-125121200D02*
X158620000Y-126500001D01*
X168400000Y-102800000D02*
X168600000Y-102600000D01*
X158620000Y-127720001D02*
X158700000Y-127800001D01*
X176700000Y-98830000D02*
X177200000Y-98330000D01*
X164720000Y-101096700D02*
X166696700Y-101096700D01*
X136229400Y-102500000D02*
X134200000Y-102500000D01*
X180300000Y-110800000D02*
X182000000Y-112500000D01*
X168200000Y-119800000D02*
X168400000Y-119600000D01*
X184700000Y-95800000D02*
X184700000Y-105100000D01*
X173200000Y-118400000D02*
X173200000Y-117751000D01*
X133550000Y-105300000D02*
X133950000Y-105700000D01*
X168600000Y-102600000D02*
X171732400Y-102600000D01*
X162200000Y-121100000D02*
X162605000Y-120695000D01*
D30*
%TO.N,Net-(U106-CONT)*%
X164680000Y-125021200D02*
X164163800Y-124505000D01*
X164680000Y-126600000D02*
X164680000Y-125021200D01*
%TO.N,Net-(U106-DISCH)*%
X167372500Y-123235000D02*
X164163800Y-123235000D01*
X168200000Y-126600000D02*
X168200000Y-124062500D01*
X164163800Y-123235000D02*
X164163800Y-121965000D01*
X168200000Y-124062500D02*
X167372500Y-123235000D01*
D29*
%TO.N,BSPD_TO_FAULT*%
X196176500Y-105162500D02*
X196200000Y-105186000D01*
X188700000Y-105162500D02*
X196176500Y-105162500D01*
X195076500Y-105162500D02*
X195100000Y-105186000D01*
D30*
%TO.N,2OUT*%
X156100001Y-128800001D02*
X156150000Y-128750002D01*
X154100000Y-129500000D02*
X154100000Y-132300000D01*
X142300000Y-97600000D02*
X148600000Y-103900000D01*
X156150000Y-128750002D02*
X154849998Y-128750002D01*
X152300000Y-134100000D02*
X146500000Y-134100000D01*
X154100000Y-132300000D02*
X152300000Y-134100000D01*
X146500000Y-134100000D02*
X139700000Y-127300000D01*
X139700000Y-127300000D02*
X126800000Y-127300000D01*
X123300000Y-100800000D02*
X126500000Y-97600000D01*
X154849998Y-128750002D02*
X154100000Y-129500000D01*
X148600000Y-107050000D02*
X148390000Y-107260000D01*
X148390000Y-107260000D02*
X147097300Y-107260000D01*
X126500000Y-97600000D02*
X142300000Y-97600000D01*
X148600000Y-103900000D02*
X148600000Y-107050000D01*
X126800000Y-127300000D02*
X123300000Y-123800000D01*
X123300000Y-123800000D02*
X123300000Y-100800000D01*
%TO.N,1OUT*%
X142908521Y-125700000D02*
X127600000Y-125700000D01*
X127600000Y-125700000D02*
X125300000Y-123400000D01*
X154399999Y-127800001D02*
X152829179Y-129370821D01*
X127300000Y-99100000D02*
X141200000Y-99100000D01*
X156150000Y-127800001D02*
X154399999Y-127800001D01*
X146579342Y-129370821D02*
X142908521Y-125700000D01*
X152829179Y-129370821D02*
X146579342Y-129370821D01*
X141200000Y-99100000D02*
X147097300Y-104997300D01*
X125300000Y-123400000D02*
X125300000Y-101100000D01*
X147097300Y-104997300D02*
X147097300Y-105990000D01*
X125300000Y-101100000D02*
X127300000Y-99100000D01*
%TO.N,THRESH_BSE*%
X131200000Y-116518143D02*
X136557597Y-111160546D01*
X136750000Y-123500000D02*
X136300000Y-123950000D01*
X136750000Y-119550000D02*
X136750000Y-123500000D01*
X147097300Y-112340000D02*
X143960000Y-112340000D01*
X131600000Y-123950000D02*
X131200000Y-123550000D01*
X143960000Y-112340000D02*
X136750000Y-119550000D01*
X131200000Y-123550000D02*
X131200000Y-116518143D01*
X136300000Y-123950000D02*
X131600000Y-123950000D01*
%TO.N,THRESH_THROTTLE*%
X143400000Y-109800000D02*
X137455000Y-103855000D01*
X147097300Y-109800000D02*
X143400000Y-109800000D01*
X136500000Y-103855000D02*
X137285000Y-104640000D01*
X137455000Y-103855000D02*
X136500000Y-103855000D01*
%TO.N,10\u0025_THROTTLE*%
X152024900Y-111070000D02*
X154230000Y-111070000D01*
X161307700Y-103992300D02*
X163450000Y-103992300D01*
X154230000Y-111070000D02*
X161307700Y-103992300D01*
%TO.N,HARD_BREAK*%
X152024900Y-113610000D02*
X159855600Y-113610000D01*
X159855600Y-113610000D02*
X163470000Y-109995600D01*
%TO.N,THROTTLE_IN*%
X143194000Y-111070000D02*
X147097300Y-111070000D01*
X133414000Y-120850000D02*
X143194000Y-111070000D01*
%TO.N,BSE_IN*%
X139764000Y-120850000D02*
X139764000Y-118286000D01*
X139764000Y-118286000D02*
X144440000Y-113610000D01*
X144440000Y-113610000D02*
X147097300Y-113610000D01*
%TO.N,Net-(U107-2A)*%
X171200000Y-113062501D02*
X170237500Y-112100001D01*
X171200000Y-116660400D02*
X171200000Y-113062501D01*
X170050400Y-117100000D02*
X170760400Y-117100000D01*
X170760400Y-117100000D02*
X171200000Y-116660400D01*
%TO.N,Net-(U107-3A)*%
X173200000Y-117100000D02*
X173909999Y-117100000D01*
X175737500Y-118927501D02*
X175737500Y-119600001D01*
X173909999Y-117100000D02*
X175737500Y-118927501D01*
%TO.N,Net-(U104-Y)*%
X158700000Y-129700000D02*
X158100000Y-129700000D01*
X160950000Y-120962400D02*
X159947400Y-121965000D01*
X169344075Y-109247405D02*
X160950000Y-117641480D01*
X158100000Y-129700000D02*
X157300000Y-128900000D01*
X172474400Y-100100000D02*
X173300000Y-100925600D01*
X173300000Y-109050000D02*
X173102595Y-109247405D01*
X171772400Y-100100000D02*
X172474400Y-100100000D01*
X157300000Y-128900000D02*
X157300000Y-123190000D01*
X173300000Y-100925600D02*
X173300000Y-109050000D01*
X159947400Y-121965000D02*
X159236200Y-121965000D01*
X160950000Y-117641480D02*
X160950000Y-120962400D01*
X158525000Y-121965000D02*
X159236200Y-121965000D01*
X157300000Y-123190000D02*
X158525000Y-121965000D01*
X173102595Y-109247405D02*
X169344075Y-109247405D01*
%TO.N,4OUT*%
X153540000Y-107260000D02*
X152024900Y-107260000D01*
X176700000Y-101370000D02*
X175988800Y-101370000D01*
X161099000Y-97701000D02*
X154700000Y-104100000D01*
X174500000Y-99481232D02*
X172719768Y-97701000D01*
X154700000Y-106100000D02*
X153540000Y-107260000D01*
X176704491Y-101374491D02*
X176700000Y-101370000D01*
X174500000Y-99881200D02*
X174500000Y-99481232D01*
X172719768Y-97701000D02*
X161099000Y-97701000D01*
X154700000Y-104100000D02*
X154700000Y-106100000D01*
X175988800Y-101370000D02*
X174500000Y-99881200D01*
%TO.N,3OUT*%
X160700000Y-96100000D02*
X152024900Y-104775100D01*
X175898000Y-100100000D02*
X171898000Y-96100000D01*
X176700000Y-100100000D02*
X175898000Y-100100000D01*
X152024900Y-104775100D02*
X152024900Y-105990000D01*
X171898000Y-96100000D02*
X160700000Y-96100000D01*
X177411200Y-100100000D02*
X176700000Y-100100000D01*
%TO.N,Net-(U106-OUT)*%
X159236200Y-123235000D02*
X159938200Y-123235000D01*
X159236200Y-123235000D02*
X159947400Y-123235000D01*
X161550000Y-121623200D02*
X161550000Y-120050000D01*
X159938200Y-123235000D02*
X161550000Y-121623200D01*
X161550000Y-120050000D02*
X165500001Y-116099999D01*
X165500001Y-116099999D02*
X170050400Y-116099999D01*
%TO.N,Net-(U107-1Y)*%
X175431000Y-111731000D02*
X175431000Y-116369000D01*
X171772400Y-98830000D02*
X172483600Y-98830000D01*
X174190695Y-110490695D02*
X175431000Y-111731000D01*
X175431000Y-116369000D02*
X175200000Y-116600000D01*
X175200000Y-116600000D02*
X173200000Y-116600000D01*
X174190695Y-100537095D02*
X174190695Y-110490695D01*
X172483600Y-98830000D02*
X174190695Y-100537095D01*
%TO.N,Net-(U108-1Y)*%
X168000000Y-100000000D02*
X169050000Y-100000000D01*
X180150000Y-106740001D02*
X179509999Y-106740001D01*
X169050000Y-100000000D02*
X170420000Y-101370000D01*
X179509999Y-106740001D02*
X176950000Y-109300000D01*
X170420000Y-101370000D02*
X171772400Y-101370000D01*
%TO.N,Net-(U108-4Y)*%
X181200000Y-107340002D02*
X180850000Y-107690002D01*
X176700000Y-102640000D02*
X178240000Y-102640000D01*
X180850000Y-107690002D02*
X180150000Y-107690002D01*
X178240000Y-102640000D02*
X181200000Y-105600000D01*
X181200000Y-105600000D02*
X181200000Y-107340002D01*
%TO.N,THROTTLE_Sense_IN*%
X149100000Y-114300000D02*
X149100000Y-110900000D01*
X149100000Y-110900000D02*
X150200000Y-109800000D01*
X146900000Y-116500000D02*
X149100000Y-114300000D01*
X146900000Y-124586000D02*
X146900000Y-116500000D01*
X149500000Y-127186000D02*
X146900000Y-124586000D01*
X150200000Y-109800000D02*
X152024900Y-109800000D01*
%TO.N,BSE_Sense_IN*%
X150300000Y-118700000D02*
X149500000Y-119500000D01*
X149500000Y-119500000D02*
X149500000Y-120836000D01*
X149500000Y-120836000D02*
X149900000Y-120436000D01*
X150300000Y-112500000D02*
X150300000Y-118700000D01*
X150460000Y-112340000D02*
X150300000Y-112500000D01*
X152024900Y-112340000D02*
X150460000Y-112340000D01*
%TO.N,Net-(Q1-D)*%
X189700000Y-99805741D02*
X189700000Y-98634278D01*
X188589052Y-103681848D02*
X188589052Y-100916689D01*
X187750000Y-107037500D02*
X187750000Y-104520900D01*
X187637500Y-107150000D02*
X187750000Y-107037500D01*
X187750000Y-104520900D02*
X188589052Y-103681848D01*
X189700000Y-98634278D02*
X189465304Y-98399582D01*
X188589052Y-100916689D02*
X188701346Y-100804395D01*
X188701346Y-100804395D02*
X189700000Y-99805741D01*
%TO.N,Net-(Q1-G)*%
X186200000Y-103258790D02*
X186779395Y-102679395D01*
X182700000Y-108640000D02*
X184660000Y-108640000D01*
X186779395Y-102679395D02*
X187751346Y-102679395D01*
X186200000Y-107100000D02*
X186200000Y-103258790D01*
X184660000Y-108640000D02*
X186200000Y-107100000D01*
%TD*%
%TA.AperFunction,Conductor*%
%TO.N,GND*%
G36*
X142129328Y-98070502D02*
G01*
X142150302Y-98087405D01*
X148112595Y-104049698D01*
X148146621Y-104112010D01*
X148149500Y-104138793D01*
X148149500Y-105284100D01*
X148129498Y-105352221D01*
X148075842Y-105398714D01*
X148023500Y-105410100D01*
X147673800Y-105410100D01*
X147605679Y-105390098D01*
X147559186Y-105336442D01*
X147547800Y-105284100D01*
X147547800Y-104937992D01*
X147542071Y-104916609D01*
X147517099Y-104823414D01*
X147514039Y-104818114D01*
X147503292Y-104799499D01*
X147503291Y-104799498D01*
X147493676Y-104782845D01*
X147457790Y-104720686D01*
X147457788Y-104720684D01*
X147457786Y-104720681D01*
X141476620Y-98739516D01*
X141476610Y-98739508D01*
X141373891Y-98680203D01*
X141373889Y-98680202D01*
X141373887Y-98680201D01*
X141373880Y-98680199D01*
X141349673Y-98673712D01*
X141349673Y-98673713D01*
X141259309Y-98649500D01*
X127240691Y-98649500D01*
X127240690Y-98649500D01*
X127150325Y-98673713D01*
X127150324Y-98673712D01*
X127126114Y-98680200D01*
X127023389Y-98739508D01*
X127023379Y-98739516D01*
X124939516Y-100823379D01*
X124939508Y-100823389D01*
X124880200Y-100926113D01*
X124880201Y-100926114D01*
X124849500Y-101040692D01*
X124849500Y-123459310D01*
X124868495Y-123530197D01*
X124868496Y-123530202D01*
X124880198Y-123573881D01*
X124880201Y-123573887D01*
X124939508Y-123676610D01*
X124939516Y-123676620D01*
X127323379Y-126060483D01*
X127323384Y-126060487D01*
X127323386Y-126060489D01*
X127323387Y-126060490D01*
X127323389Y-126060491D01*
X127346446Y-126073803D01*
X127426113Y-126119799D01*
X127439540Y-126123396D01*
X127450314Y-126126283D01*
X127450318Y-126126284D01*
X127450326Y-126126286D01*
X127540691Y-126150500D01*
X142669728Y-126150500D01*
X142737849Y-126170502D01*
X142758823Y-126187405D01*
X146302721Y-129731305D01*
X146302726Y-129731309D01*
X146302728Y-129731311D01*
X146302729Y-129731312D01*
X146302731Y-129731313D01*
X146405451Y-129790618D01*
X146405452Y-129790618D01*
X146405455Y-129790620D01*
X146418882Y-129794217D01*
X146429656Y-129797104D01*
X146429660Y-129797105D01*
X146429668Y-129797107D01*
X146520033Y-129821321D01*
X152888488Y-129821321D01*
X152978852Y-129797107D01*
X153003066Y-129790620D01*
X153105793Y-129731310D01*
X153434406Y-129402696D01*
X153496717Y-129368673D01*
X153567532Y-129373737D01*
X153624368Y-129416284D01*
X153649179Y-129482804D01*
X153649500Y-129491793D01*
X153649500Y-132061207D01*
X153629498Y-132129328D01*
X153612595Y-132150302D01*
X152150302Y-133612595D01*
X152087990Y-133646621D01*
X152061207Y-133649500D01*
X146738793Y-133649500D01*
X146670672Y-133629498D01*
X146649698Y-133612595D01*
X144638642Y-131601539D01*
X144554497Y-131517394D01*
X148056500Y-131517394D01*
X148056500Y-131744606D01*
X148072946Y-131848443D01*
X148092044Y-131969024D01*
X148162254Y-132185108D01*
X148162255Y-132185111D01*
X148162256Y-132185112D01*
X148251012Y-132359306D01*
X148265410Y-132387562D01*
X148398961Y-132571379D01*
X148559620Y-132732038D01*
X148559623Y-132732040D01*
X148743441Y-132865592D01*
X148945888Y-132968744D01*
X149161980Y-133038957D01*
X149386394Y-133074500D01*
X149386396Y-133074500D01*
X149613604Y-133074500D01*
X149613606Y-133074500D01*
X149838020Y-133038957D01*
X150054112Y-132968744D01*
X150256559Y-132865592D01*
X150440377Y-132732040D01*
X150601040Y-132571377D01*
X150734592Y-132387559D01*
X150837744Y-132185112D01*
X150907957Y-131969020D01*
X150943500Y-131744606D01*
X150943500Y-131517394D01*
X150907957Y-131292980D01*
X150837744Y-131076888D01*
X150734592Y-130874441D01*
X150601040Y-130690623D01*
X150601038Y-130690620D01*
X150440379Y-130529961D01*
X150256562Y-130396410D01*
X150256561Y-130396409D01*
X150256559Y-130396408D01*
X150054112Y-130293256D01*
X150054111Y-130293255D01*
X150054108Y-130293254D01*
X149838024Y-130223044D01*
X149838022Y-130223043D01*
X149838020Y-130223043D01*
X149613606Y-130187500D01*
X149386394Y-130187500D01*
X149161980Y-130223043D01*
X149161978Y-130223043D01*
X149161975Y-130223044D01*
X148945891Y-130293254D01*
X148743437Y-130396410D01*
X148559620Y-130529961D01*
X148398961Y-130690620D01*
X148265410Y-130874437D01*
X148162254Y-131076891D01*
X148092044Y-131292975D01*
X148092043Y-131292978D01*
X148092043Y-131292980D01*
X148056500Y-131517394D01*
X144554497Y-131517394D01*
X139976620Y-126939516D01*
X139976610Y-126939508D01*
X139873891Y-126880203D01*
X139873889Y-126880202D01*
X139873887Y-126880201D01*
X139873880Y-126880199D01*
X139849673Y-126873712D01*
X139849673Y-126873713D01*
X139759309Y-126849500D01*
X139759308Y-126849500D01*
X127038793Y-126849500D01*
X126970672Y-126829498D01*
X126949698Y-126812595D01*
X123787405Y-123650302D01*
X123753379Y-123587990D01*
X123750500Y-123561207D01*
X123750500Y-101038793D01*
X123770502Y-100970672D01*
X123787405Y-100949698D01*
X126649698Y-98087405D01*
X126712010Y-98053379D01*
X126738793Y-98050500D01*
X142061207Y-98050500D01*
X142129328Y-98070502D01*
G37*
%TD.AperFunction*%
%TA.AperFunction,Conductor*%
G36*
X160456707Y-95451374D02*
G01*
X160459724Y-95450643D01*
X160490548Y-95461311D01*
X160521850Y-95470502D01*
X160523882Y-95472847D01*
X160526816Y-95473863D01*
X160546980Y-95499503D01*
X160568343Y-95524158D01*
X160568784Y-95527230D01*
X160570703Y-95529670D01*
X160573802Y-95562132D01*
X160578447Y-95594432D01*
X160577157Y-95597256D01*
X160577452Y-95600345D01*
X160562503Y-95629341D01*
X160548953Y-95659012D01*
X160545914Y-95661520D01*
X160544920Y-95663450D01*
X160516729Y-95685619D01*
X160423389Y-95739508D01*
X160423379Y-95739516D01*
X151664416Y-104498479D01*
X151664408Y-104498489D01*
X151605100Y-104601213D01*
X151605101Y-104601214D01*
X151577694Y-104703500D01*
X151574400Y-104715792D01*
X151574400Y-105284100D01*
X151554398Y-105352221D01*
X151500742Y-105398714D01*
X151448400Y-105410100D01*
X150989440Y-105410100D01*
X150989433Y-105410101D01*
X150964309Y-105413014D01*
X150964305Y-105413016D01*
X150861534Y-105458393D01*
X150782095Y-105537832D01*
X150782094Y-105537834D01*
X150736714Y-105640609D01*
X150733800Y-105665729D01*
X150733800Y-106314259D01*
X150733801Y-106314266D01*
X150736714Y-106339390D01*
X150736715Y-106339391D01*
X150782093Y-106442165D01*
X150869790Y-106529862D01*
X150868758Y-106530893D01*
X150905621Y-106576054D01*
X150913652Y-106646595D01*
X150882271Y-106710279D01*
X150862629Y-106727298D01*
X150782095Y-106807832D01*
X150782094Y-106807834D01*
X150736714Y-106910609D01*
X150733800Y-106935729D01*
X150733800Y-107584259D01*
X150733801Y-107584266D01*
X150736714Y-107609390D01*
X150736716Y-107609397D01*
X150775673Y-107697626D01*
X150784891Y-107768021D01*
X150754586Y-107832225D01*
X150735920Y-107849386D01*
X150677110Y-107893411D01*
X150590947Y-108008510D01*
X150540700Y-108143228D01*
X150534300Y-108202759D01*
X150534300Y-108280000D01*
X153515500Y-108280000D01*
X153515500Y-108202776D01*
X153515499Y-108202759D01*
X153509099Y-108143228D01*
X153458852Y-108008510D01*
X153386612Y-107912009D01*
X153384496Y-107906337D01*
X153380010Y-107902274D01*
X153372231Y-107873453D01*
X153361801Y-107845489D01*
X153363087Y-107839574D01*
X153361510Y-107833730D01*
X153370547Y-107805280D01*
X153376892Y-107776115D01*
X153381172Y-107771834D01*
X153383005Y-107766066D01*
X153405990Y-107747016D01*
X153427095Y-107725913D01*
X153434208Y-107723631D01*
X153437670Y-107720763D01*
X153453009Y-107717602D01*
X153472294Y-107711418D01*
X153479855Y-107710500D01*
X153599309Y-107710500D01*
X153689673Y-107686286D01*
X153713887Y-107679799D01*
X153816614Y-107620489D01*
X155060490Y-106376614D01*
X155119799Y-106273887D01*
X155130866Y-106232584D01*
X155150500Y-106159309D01*
X155150500Y-104338793D01*
X155170502Y-104270672D01*
X155187405Y-104249698D01*
X157517864Y-101919240D01*
X161045000Y-101919240D01*
X161051400Y-101978771D01*
X161101647Y-102113489D01*
X161187810Y-102228589D01*
X161302910Y-102314752D01*
X161437628Y-102364999D01*
X161497159Y-102371399D01*
X161497176Y-102371400D01*
X161930000Y-102371400D01*
X162430000Y-102371400D01*
X162862824Y-102371400D01*
X162862840Y-102371399D01*
X162922371Y-102364999D01*
X163057089Y-102314752D01*
X163172189Y-102228589D01*
X163258352Y-102113489D01*
X163308599Y-101978771D01*
X163314999Y-101919240D01*
X163315000Y-101919223D01*
X163315000Y-101346700D01*
X162430000Y-101346700D01*
X162430000Y-102371400D01*
X161930000Y-102371400D01*
X161930000Y-101346700D01*
X161045000Y-101346700D01*
X161045000Y-101919240D01*
X157517864Y-101919240D01*
X158231690Y-101205414D01*
X159162945Y-100274159D01*
X161045000Y-100274159D01*
X161045000Y-100846700D01*
X161930000Y-100846700D01*
X162430000Y-100846700D01*
X163315000Y-100846700D01*
X163315000Y-100274176D01*
X163314999Y-100274159D01*
X163308599Y-100214628D01*
X163258352Y-100079910D01*
X163172189Y-99964810D01*
X163057089Y-99878647D01*
X162922371Y-99828400D01*
X162862840Y-99822000D01*
X162430000Y-99822000D01*
X162430000Y-100846700D01*
X161930000Y-100846700D01*
X161930000Y-99822000D01*
X161497159Y-99822000D01*
X161437628Y-99828400D01*
X161302910Y-99878647D01*
X161187810Y-99964810D01*
X161101647Y-100079910D01*
X161051400Y-100214628D01*
X161045000Y-100274159D01*
X159162945Y-100274159D01*
X161248699Y-98188405D01*
X161311011Y-98154379D01*
X161337794Y-98151500D01*
X170451738Y-98151500D01*
X170519859Y-98171502D01*
X170566352Y-98225158D01*
X170576456Y-98295432D01*
X170546962Y-98360012D01*
X170540833Y-98366595D01*
X170529595Y-98377832D01*
X170529594Y-98377834D01*
X170484214Y-98480609D01*
X170481300Y-98505729D01*
X170481300Y-99154259D01*
X170481301Y-99154266D01*
X170484214Y-99179390D01*
X170484216Y-99179394D01*
X170529593Y-99282165D01*
X170617290Y-99369862D01*
X170616258Y-99370893D01*
X170653121Y-99416054D01*
X170661152Y-99486595D01*
X170629771Y-99550279D01*
X170610129Y-99567298D01*
X170529595Y-99647832D01*
X170529594Y-99647834D01*
X170484214Y-99750609D01*
X170481300Y-99775729D01*
X170481300Y-100424259D01*
X170481301Y-100424264D01*
X170484214Y-100449390D01*
X170484215Y-100449391D01*
X170486881Y-100455429D01*
X170496097Y-100525825D01*
X170465792Y-100590029D01*
X170405587Y-100627656D01*
X170334596Y-100626761D01*
X170282521Y-100595417D01*
X169326620Y-99639516D01*
X169326610Y-99639508D01*
X169223891Y-99580203D01*
X169223889Y-99580202D01*
X169223887Y-99580201D01*
X169223880Y-99580199D01*
X169199673Y-99573712D01*
X169199673Y-99573713D01*
X169109309Y-99549500D01*
X169109308Y-99549500D01*
X168450610Y-99549500D01*
X168382489Y-99529498D01*
X168373906Y-99523462D01*
X168368717Y-99519480D01*
X168231788Y-99440424D01*
X168180875Y-99426782D01*
X168079057Y-99399500D01*
X167920943Y-99399500D01*
X167859163Y-99416054D01*
X167768211Y-99440424D01*
X167631287Y-99519477D01*
X167631277Y-99519485D01*
X167519485Y-99631277D01*
X167519477Y-99631287D01*
X167440424Y-99768211D01*
X167426012Y-99822000D01*
X167399500Y-99920943D01*
X167399500Y-100079057D01*
X167418304Y-100149234D01*
X167440424Y-100231788D01*
X167519477Y-100368712D01*
X167519485Y-100368722D01*
X167631277Y-100480514D01*
X167631282Y-100480518D01*
X167631284Y-100480520D01*
X167631285Y-100480521D01*
X167631287Y-100480522D01*
X167768211Y-100559575D01*
X167768213Y-100559575D01*
X167768216Y-100559577D01*
X167920943Y-100600500D01*
X167920945Y-100600500D01*
X168079055Y-100600500D01*
X168079057Y-100600500D01*
X168231784Y-100559577D01*
X168231787Y-100559575D01*
X168231788Y-100559575D01*
X168302248Y-100518895D01*
X168368716Y-100480520D01*
X168368717Y-100480519D01*
X168373906Y-100476538D01*
X168440126Y-100450937D01*
X168450610Y-100450500D01*
X168811207Y-100450500D01*
X168879328Y-100470502D01*
X168900297Y-100487400D01*
X170143386Y-101730490D01*
X170227347Y-101778964D01*
X170246114Y-101789799D01*
X170296897Y-101803406D01*
X170302725Y-101805604D01*
X170326294Y-101823380D01*
X170351501Y-101838745D01*
X170354296Y-101844500D01*
X170359407Y-101848355D01*
X170369626Y-101876058D01*
X170382522Y-101902606D01*
X170381762Y-101908958D01*
X170383978Y-101914964D01*
X170377598Y-101943789D01*
X170374094Y-101973100D01*
X170370018Y-101978035D01*
X170368636Y-101984283D01*
X170347691Y-102005076D01*
X170328891Y-102027847D01*
X170322793Y-102029796D01*
X170318253Y-102034304D01*
X170289385Y-102040475D01*
X170261265Y-102049464D01*
X170258267Y-102049500D01*
X168527525Y-102049500D01*
X168519315Y-102051700D01*
X168448338Y-102050008D01*
X168397612Y-102019087D01*
X167034721Y-100656195D01*
X167034711Y-100656187D01*
X166909186Y-100583716D01*
X166909188Y-100583716D01*
X166839752Y-100565110D01*
X166839752Y-100565111D01*
X166816225Y-100558807D01*
X166769175Y-100546200D01*
X166769173Y-100546200D01*
X165781499Y-100546200D01*
X165713378Y-100526198D01*
X165666885Y-100472542D01*
X165655499Y-100420200D01*
X165655499Y-100277140D01*
X165655499Y-100277136D01*
X165652585Y-100252009D01*
X165607206Y-100149235D01*
X165607206Y-100149234D01*
X165527767Y-100069795D01*
X165527765Y-100069794D01*
X165424989Y-100024414D01*
X165424990Y-100024414D01*
X165399868Y-100021500D01*
X164040140Y-100021500D01*
X164040133Y-100021501D01*
X164015009Y-100024414D01*
X164015005Y-100024416D01*
X163912234Y-100069793D01*
X163832795Y-100149232D01*
X163832794Y-100149234D01*
X163787414Y-100252009D01*
X163784500Y-100277129D01*
X163784500Y-101916259D01*
X163784501Y-101916266D01*
X163787414Y-101941390D01*
X163787416Y-101941394D01*
X163832793Y-102044165D01*
X163912232Y-102123604D01*
X163912234Y-102123605D01*
X163912235Y-102123606D01*
X164015009Y-102168985D01*
X164040135Y-102171900D01*
X164823500Y-102171899D01*
X164891621Y-102191901D01*
X164938114Y-102245557D01*
X164949500Y-102297899D01*
X164949500Y-103000123D01*
X164929498Y-103068244D01*
X164875842Y-103114737D01*
X164805568Y-103124841D01*
X164740988Y-103095347D01*
X164708237Y-103051019D01*
X164705506Y-103044836D01*
X164705504Y-103044832D01*
X164626067Y-102965395D01*
X164626065Y-102965394D01*
X164523289Y-102920014D01*
X164523290Y-102920014D01*
X164498168Y-102917100D01*
X162401840Y-102917100D01*
X162401833Y-102917101D01*
X162376709Y-102920014D01*
X162376705Y-102920016D01*
X162273934Y-102965393D01*
X162194495Y-103044832D01*
X162194494Y-103044834D01*
X162149114Y-103147609D01*
X162146200Y-103172729D01*
X162146200Y-103415800D01*
X162126198Y-103483921D01*
X162072542Y-103530414D01*
X162020200Y-103541800D01*
X161248391Y-103541800D01*
X161199966Y-103554775D01*
X161133815Y-103572500D01*
X161133810Y-103572502D01*
X161113314Y-103584336D01*
X161110891Y-103585736D01*
X161070988Y-103608773D01*
X161031087Y-103631810D01*
X161031079Y-103631816D01*
X154080302Y-110582595D01*
X154017990Y-110616621D01*
X153991207Y-110619500D01*
X153321562Y-110619500D01*
X153292990Y-110611110D01*
X153263758Y-110605458D01*
X153257052Y-110600558D01*
X153253441Y-110599498D01*
X153234557Y-110584638D01*
X153233498Y-110583627D01*
X153188265Y-110538394D01*
X153184267Y-110536628D01*
X153173278Y-110526138D01*
X153160436Y-110503865D01*
X153144181Y-110483952D01*
X153143005Y-110473631D01*
X153137817Y-110464632D01*
X153139055Y-110438956D01*
X153136146Y-110413412D01*
X153140737Y-110404092D01*
X153141238Y-110393718D01*
X153156162Y-110372786D01*
X153167524Y-110349726D01*
X153180817Y-110338207D01*
X153182455Y-110335910D01*
X153184335Y-110335158D01*
X153187167Y-110332704D01*
X153267704Y-110252167D01*
X153267706Y-110252165D01*
X153313085Y-110149391D01*
X153316000Y-110124265D01*
X153315999Y-109475736D01*
X153313085Y-109450609D01*
X153281997Y-109380201D01*
X153274126Y-109362374D01*
X153264908Y-109291978D01*
X153295213Y-109227774D01*
X153313881Y-109210612D01*
X153372689Y-109166588D01*
X153458852Y-109051489D01*
X153509099Y-108916771D01*
X153515499Y-108857240D01*
X153515500Y-108857223D01*
X153515500Y-108780000D01*
X150534300Y-108780000D01*
X150534300Y-108857240D01*
X150540700Y-108916771D01*
X150590947Y-109051489D01*
X150663188Y-109147991D01*
X150687999Y-109214511D01*
X150672908Y-109283885D01*
X150622705Y-109334087D01*
X150562320Y-109349500D01*
X150140690Y-109349500D01*
X150050325Y-109373713D01*
X150050324Y-109373712D01*
X150026114Y-109380200D01*
X149923389Y-109439508D01*
X149923379Y-109439516D01*
X148739516Y-110623379D01*
X148739508Y-110623389D01*
X148680200Y-110726114D01*
X148674942Y-110745735D01*
X148674943Y-110745736D01*
X148649608Y-110840290D01*
X148649500Y-110840692D01*
X148649500Y-114061206D01*
X148629498Y-114129327D01*
X148612595Y-114150301D01*
X146539516Y-116223379D01*
X146539508Y-116223389D01*
X146480200Y-116326113D01*
X146480201Y-116326114D01*
X146452819Y-116428307D01*
X146449500Y-116440692D01*
X146449500Y-124645310D01*
X146458980Y-124680687D01*
X146458980Y-124680690D01*
X146458981Y-124680690D01*
X146480200Y-124759884D01*
X146480203Y-124759891D01*
X146539508Y-124862610D01*
X146539516Y-124862620D01*
X148146983Y-126470087D01*
X148181009Y-126532399D01*
X148175944Y-126603214D01*
X148170158Y-126616379D01*
X148162256Y-126631888D01*
X148092043Y-126847977D01*
X148084896Y-126893105D01*
X148056500Y-127072394D01*
X148056500Y-127299606D01*
X148092043Y-127524020D01*
X148092044Y-127524024D01*
X148162254Y-127740108D01*
X148162255Y-127740111D01*
X148162256Y-127740112D01*
X148177740Y-127770502D01*
X148265410Y-127942562D01*
X148398961Y-128126379D01*
X148559620Y-128287038D01*
X148646969Y-128350501D01*
X148743441Y-128420592D01*
X148945888Y-128523744D01*
X149161980Y-128593957D01*
X149386394Y-128629500D01*
X149386396Y-128629500D01*
X149613604Y-128629500D01*
X149613606Y-128629500D01*
X149838020Y-128593957D01*
X150054112Y-128523744D01*
X150256559Y-128420592D01*
X150440377Y-128287040D01*
X150601040Y-128126377D01*
X150734592Y-127942559D01*
X150837744Y-127740112D01*
X150907957Y-127524020D01*
X150943500Y-127299606D01*
X150943500Y-127072394D01*
X150907957Y-126847980D01*
X150837744Y-126631888D01*
X150734592Y-126429441D01*
X150623790Y-126276935D01*
X150601038Y-126245620D01*
X150440379Y-126084961D01*
X150256562Y-125951410D01*
X150256561Y-125951409D01*
X150256559Y-125951408D01*
X150054112Y-125848256D01*
X150054111Y-125848255D01*
X150054108Y-125848254D01*
X149838024Y-125778044D01*
X149838022Y-125778043D01*
X149838020Y-125778043D01*
X149613606Y-125742500D01*
X149386394Y-125742500D01*
X149296628Y-125756717D01*
X149161977Y-125778043D01*
X148945887Y-125848256D01*
X148930376Y-125856159D01*
X148860598Y-125869258D01*
X148794816Y-125842553D01*
X148784086Y-125832983D01*
X147387405Y-124436302D01*
X147353379Y-124373990D01*
X147350500Y-124347207D01*
X147350500Y-116738793D01*
X147370502Y-116670672D01*
X147387405Y-116649698D01*
X149460484Y-114576620D01*
X149460484Y-114576619D01*
X149460490Y-114576614D01*
X149519799Y-114473887D01*
X149533744Y-114421843D01*
X149550500Y-114359309D01*
X149550500Y-111138793D01*
X149570502Y-111070672D01*
X149587405Y-111049698D01*
X150349698Y-110287405D01*
X150412010Y-110253379D01*
X150438793Y-110250500D01*
X150728238Y-110250500D01*
X150756807Y-110258888D01*
X150786043Y-110264542D01*
X150792749Y-110269442D01*
X150796359Y-110270502D01*
X150815244Y-110285363D01*
X150816302Y-110286373D01*
X150861535Y-110331606D01*
X150865531Y-110333370D01*
X150876522Y-110343863D01*
X150889362Y-110366135D01*
X150905621Y-110386054D01*
X150906795Y-110396373D01*
X150911982Y-110405369D01*
X150910743Y-110431046D01*
X150913652Y-110456595D01*
X150909061Y-110465911D01*
X150908561Y-110476283D01*
X150893636Y-110497214D01*
X150882271Y-110520279D01*
X150868977Y-110531798D01*
X150867343Y-110534090D01*
X150865467Y-110534839D01*
X150862629Y-110537298D01*
X150782095Y-110617832D01*
X150782094Y-110617834D01*
X150736714Y-110720609D01*
X150733800Y-110745729D01*
X150733800Y-111394259D01*
X150733801Y-111394266D01*
X150736714Y-111419390D01*
X150736716Y-111419394D01*
X150782093Y-111522165D01*
X150869790Y-111609862D01*
X150868758Y-111610893D01*
X150905621Y-111656054D01*
X150913652Y-111726595D01*
X150882271Y-111790279D01*
X150876522Y-111796137D01*
X150865531Y-111806629D01*
X150861535Y-111808394D01*
X150816302Y-111853626D01*
X150815244Y-111854637D01*
X150784953Y-111870275D01*
X150755021Y-111886621D01*
X150752842Y-111886855D01*
X150752159Y-111887208D01*
X150750778Y-111887077D01*
X150728238Y-111889500D01*
X150400690Y-111889500D01*
X150310325Y-111913713D01*
X150310324Y-111913712D01*
X150286114Y-111920200D01*
X150183389Y-111979508D01*
X150183379Y-111979516D01*
X149939516Y-112223379D01*
X149939508Y-112223389D01*
X149880200Y-112326113D01*
X149880201Y-112326114D01*
X149870371Y-112362802D01*
X149849500Y-112440692D01*
X149849500Y-118461205D01*
X149829498Y-118529326D01*
X149812596Y-118550300D01*
X149139513Y-119223383D01*
X149139508Y-119223389D01*
X149080199Y-119326114D01*
X149080200Y-119326115D01*
X149060191Y-119400788D01*
X149023240Y-119461410D01*
X148977425Y-119488008D01*
X148945890Y-119498255D01*
X148945888Y-119498255D01*
X148945888Y-119498256D01*
X148902909Y-119520155D01*
X148743437Y-119601410D01*
X148559620Y-119734961D01*
X148398961Y-119895620D01*
X148265410Y-120079437D01*
X148162254Y-120281891D01*
X148092044Y-120497975D01*
X148092043Y-120497978D01*
X148092043Y-120497980D01*
X148056500Y-120722394D01*
X148056500Y-120949606D01*
X148092043Y-121174020D01*
X148092044Y-121174024D01*
X148162254Y-121390108D01*
X148162255Y-121390111D01*
X148162256Y-121390112D01*
X148257993Y-121578007D01*
X148265410Y-121592562D01*
X148398961Y-121776379D01*
X148559620Y-121937038D01*
X148646968Y-122000500D01*
X148743441Y-122070592D01*
X148945888Y-122173744D01*
X149161980Y-122243957D01*
X149386394Y-122279500D01*
X149386396Y-122279500D01*
X149613604Y-122279500D01*
X149613606Y-122279500D01*
X149838020Y-122243957D01*
X150054112Y-122173744D01*
X150256559Y-122070592D01*
X150440377Y-121937040D01*
X150601040Y-121776377D01*
X150734592Y-121592559D01*
X150837744Y-121390112D01*
X150907957Y-121174020D01*
X150943500Y-120949606D01*
X150943500Y-120722394D01*
X150907957Y-120497980D01*
X150886544Y-120432077D01*
X150877205Y-120403334D01*
X150865646Y-120367759D01*
X157745600Y-120367759D01*
X157745600Y-120445000D01*
X158986200Y-120445000D01*
X158986200Y-119915600D01*
X158197759Y-119915600D01*
X158138228Y-119922000D01*
X158003510Y-119972247D01*
X157888410Y-120058410D01*
X157802247Y-120173510D01*
X157752000Y-120308228D01*
X157745600Y-120367759D01*
X150865646Y-120367759D01*
X150842294Y-120295891D01*
X150837744Y-120281888D01*
X150734592Y-120079441D01*
X150611212Y-119909623D01*
X150601038Y-119895620D01*
X150440379Y-119734961D01*
X150256554Y-119601404D01*
X150255891Y-119600998D01*
X150255691Y-119600777D01*
X150252554Y-119598498D01*
X150253032Y-119597838D01*
X150208260Y-119548351D01*
X150196653Y-119478309D01*
X150224756Y-119413112D01*
X150232616Y-119404486D01*
X150660490Y-118976614D01*
X150719799Y-118873887D01*
X150728742Y-118840509D01*
X150750500Y-118759309D01*
X150750500Y-114285949D01*
X150770502Y-114217828D01*
X150824158Y-114171335D01*
X150894432Y-114161231D01*
X150927388Y-114170683D01*
X150964309Y-114186985D01*
X150989435Y-114189900D01*
X153060364Y-114189899D01*
X153085491Y-114186985D01*
X153188265Y-114141606D01*
X153209591Y-114120280D01*
X153232467Y-114097405D01*
X153294779Y-114063379D01*
X153321562Y-114060500D01*
X159914909Y-114060500D01*
X160005273Y-114036286D01*
X160029487Y-114029799D01*
X160132214Y-113970489D01*
X162994998Y-111107703D01*
X163057310Y-111073679D01*
X163084093Y-111070799D01*
X164518160Y-111070799D01*
X164518164Y-111070799D01*
X164543291Y-111067885D01*
X164646065Y-111022506D01*
X164725506Y-110943065D01*
X164770885Y-110840291D01*
X164773800Y-110815165D01*
X164773799Y-109176036D01*
X164770885Y-109150909D01*
X164744212Y-109090500D01*
X164725506Y-109048134D01*
X164646067Y-108968695D01*
X164646065Y-108968694D01*
X164543289Y-108923314D01*
X164543290Y-108923314D01*
X164518168Y-108920400D01*
X162421840Y-108920400D01*
X162421833Y-108920401D01*
X162396709Y-108923314D01*
X162396705Y-108923316D01*
X162293934Y-108968693D01*
X162214495Y-109048132D01*
X162214494Y-109048134D01*
X162169114Y-109150909D01*
X162166200Y-109176029D01*
X162166200Y-110610106D01*
X162146198Y-110678227D01*
X162129295Y-110699201D01*
X159705902Y-113122595D01*
X159643590Y-113156620D01*
X159616807Y-113159500D01*
X153321562Y-113159500D01*
X153292990Y-113151110D01*
X153263758Y-113145458D01*
X153257052Y-113140558D01*
X153253441Y-113139498D01*
X153234557Y-113124638D01*
X153233498Y-113123627D01*
X153188265Y-113078394D01*
X153184267Y-113076628D01*
X153173278Y-113066138D01*
X153160436Y-113043865D01*
X153144181Y-113023952D01*
X153143005Y-113013631D01*
X153137817Y-113004632D01*
X153139055Y-112978956D01*
X153136146Y-112953412D01*
X153140737Y-112944092D01*
X153141238Y-112933718D01*
X153156162Y-112912786D01*
X153167524Y-112889726D01*
X153180817Y-112878207D01*
X153182455Y-112875910D01*
X153184335Y-112875158D01*
X153187167Y-112872704D01*
X153267704Y-112792167D01*
X153267706Y-112792165D01*
X153313085Y-112689391D01*
X153316000Y-112664265D01*
X153315999Y-112015736D01*
X153313085Y-111990609D01*
X153281997Y-111920201D01*
X153267706Y-111887834D01*
X153180010Y-111800138D01*
X153181041Y-111799106D01*
X153144181Y-111753952D01*
X153136146Y-111683412D01*
X153167524Y-111619726D01*
X153173278Y-111613862D01*
X153184267Y-111603371D01*
X153188265Y-111601606D01*
X153233498Y-111556372D01*
X153234557Y-111555362D01*
X153264862Y-111539715D01*
X153294779Y-111523379D01*
X153296956Y-111523144D01*
X153297642Y-111522791D01*
X153299026Y-111522922D01*
X153321562Y-111520500D01*
X154289309Y-111520500D01*
X154379673Y-111496286D01*
X154403887Y-111489799D01*
X154506614Y-111430489D01*
X158014563Y-107922540D01*
X161065000Y-107922540D01*
X161071400Y-107982071D01*
X161121647Y-108116789D01*
X161207810Y-108231889D01*
X161322910Y-108318052D01*
X161457628Y-108368299D01*
X161517159Y-108374699D01*
X161517176Y-108374700D01*
X161950000Y-108374700D01*
X162450000Y-108374700D01*
X162882824Y-108374700D01*
X162882840Y-108374699D01*
X162942371Y-108368299D01*
X163077089Y-108318052D01*
X163192189Y-108231889D01*
X163278352Y-108116789D01*
X163328599Y-107982071D01*
X163334999Y-107922540D01*
X163335000Y-107922523D01*
X163335000Y-107350000D01*
X162450000Y-107350000D01*
X162450000Y-108374700D01*
X161950000Y-108374700D01*
X161950000Y-107350000D01*
X161065000Y-107350000D01*
X161065000Y-107922540D01*
X158014563Y-107922540D01*
X159659644Y-106277459D01*
X161065000Y-106277459D01*
X161065000Y-106850000D01*
X161950000Y-106850000D01*
X162450000Y-106850000D01*
X163335000Y-106850000D01*
X163335000Y-106277476D01*
X163334999Y-106277459D01*
X163328599Y-106217928D01*
X163278352Y-106083210D01*
X163192189Y-105968110D01*
X163077089Y-105881947D01*
X162942371Y-105831700D01*
X162882840Y-105825300D01*
X162450000Y-105825300D01*
X162450000Y-106850000D01*
X161950000Y-106850000D01*
X161950000Y-105825300D01*
X161517159Y-105825300D01*
X161457628Y-105831700D01*
X161322910Y-105881947D01*
X161207810Y-105968110D01*
X161121647Y-106083210D01*
X161071400Y-106217928D01*
X161065000Y-106277459D01*
X159659644Y-106277459D01*
X161457398Y-104479705D01*
X161519710Y-104445679D01*
X161546493Y-104442800D01*
X162020201Y-104442800D01*
X162088322Y-104462802D01*
X162134815Y-104516458D01*
X162146201Y-104568800D01*
X162146201Y-104811866D01*
X162149114Y-104836990D01*
X162149116Y-104836994D01*
X162194493Y-104939765D01*
X162273932Y-105019204D01*
X162273934Y-105019205D01*
X162273935Y-105019206D01*
X162376709Y-105064585D01*
X162401835Y-105067500D01*
X164498164Y-105067499D01*
X164523291Y-105064585D01*
X164626065Y-105019206D01*
X164705506Y-104939765D01*
X164708236Y-104933583D01*
X164754048Y-104879345D01*
X164821911Y-104858486D01*
X164890279Y-104877628D01*
X164937445Y-104930693D01*
X164949500Y-104984476D01*
X164949500Y-105898800D01*
X164929498Y-105966921D01*
X164875842Y-106013414D01*
X164823500Y-106024800D01*
X164060140Y-106024800D01*
X164060133Y-106024801D01*
X164035009Y-106027714D01*
X164035005Y-106027716D01*
X163932234Y-106073093D01*
X163852795Y-106152532D01*
X163852794Y-106152534D01*
X163807414Y-106255309D01*
X163804500Y-106280429D01*
X163804500Y-107919559D01*
X163804501Y-107919566D01*
X163807414Y-107944690D01*
X163807416Y-107944694D01*
X163852793Y-108047465D01*
X163932232Y-108126904D01*
X163932234Y-108126905D01*
X163932235Y-108126906D01*
X164035009Y-108172285D01*
X164060135Y-108175200D01*
X165419864Y-108175199D01*
X165444991Y-108172285D01*
X165547765Y-108126906D01*
X165627206Y-108047465D01*
X165672585Y-107944691D01*
X165675500Y-107919565D01*
X165675499Y-106995215D01*
X165695501Y-106927095D01*
X165712404Y-106906120D01*
X165793682Y-106824842D01*
X165841284Y-106777240D01*
X170281800Y-106777240D01*
X170288200Y-106836771D01*
X170338447Y-106971489D01*
X170424610Y-107086589D01*
X170539710Y-107172752D01*
X170674428Y-107222999D01*
X170733959Y-107229399D01*
X170733976Y-107229400D01*
X171522400Y-107229400D01*
X171522400Y-106700000D01*
X170281800Y-106700000D01*
X170281800Y-106777240D01*
X165841284Y-106777240D01*
X165940510Y-106678015D01*
X166012984Y-106552485D01*
X166013516Y-106550500D01*
X166050500Y-106412475D01*
X166050500Y-101804225D01*
X166050499Y-101804224D01*
X166049422Y-101796039D01*
X166051161Y-101795809D01*
X166051529Y-101780410D01*
X166047914Y-101755268D01*
X166052361Y-101745529D01*
X166052617Y-101734827D01*
X166066856Y-101713791D01*
X166077408Y-101690688D01*
X166086413Y-101684900D01*
X166092416Y-101676033D01*
X166115768Y-101666034D01*
X166137134Y-101652304D01*
X166153252Y-101649986D01*
X166157682Y-101648090D01*
X166172632Y-101647200D01*
X166416485Y-101647200D01*
X166484606Y-101667202D01*
X166505580Y-101684105D01*
X167813623Y-102992148D01*
X167835599Y-103025034D01*
X167836295Y-103024633D01*
X167840422Y-103031782D01*
X167840423Y-103031784D01*
X167919480Y-103168716D01*
X167919482Y-103168718D01*
X167919485Y-103168722D01*
X168031277Y-103280514D01*
X168031282Y-103280518D01*
X168031284Y-103280520D01*
X168031285Y-103280521D01*
X168031287Y-103280522D01*
X168168211Y-103359575D01*
X168168213Y-103359575D01*
X168168216Y-103359577D01*
X168320943Y-103400500D01*
X168320945Y-103400500D01*
X168479055Y-103400500D01*
X168479057Y-103400500D01*
X168631784Y-103359577D01*
X168631787Y-103359575D01*
X168631788Y-103359575D01*
X168744619Y-103294432D01*
X168768716Y-103280520D01*
X168795824Y-103253412D01*
X168861832Y-103187405D01*
X168924144Y-103153379D01*
X168950927Y-103150500D01*
X170534827Y-103150500D01*
X170602948Y-103170502D01*
X170649441Y-103224158D01*
X170659545Y-103294432D01*
X170630051Y-103359012D01*
X170614825Y-103372602D01*
X170529595Y-103457832D01*
X170529594Y-103457834D01*
X170484214Y-103560609D01*
X170481300Y-103585729D01*
X170481300Y-104234259D01*
X170481301Y-104234266D01*
X170484214Y-104259390D01*
X170484216Y-104259394D01*
X170529593Y-104362165D01*
X170617290Y-104449862D01*
X170616258Y-104450893D01*
X170653121Y-104496054D01*
X170661152Y-104566595D01*
X170629771Y-104630279D01*
X170610129Y-104647298D01*
X170529595Y-104727832D01*
X170529594Y-104727834D01*
X170484214Y-104830609D01*
X170481300Y-104855729D01*
X170481300Y-105504259D01*
X170481301Y-105504266D01*
X170484214Y-105529390D01*
X170484216Y-105529397D01*
X170523173Y-105617626D01*
X170532391Y-105688021D01*
X170502086Y-105752225D01*
X170483420Y-105769386D01*
X170424610Y-105813411D01*
X170338447Y-105928510D01*
X170288200Y-106063228D01*
X170281800Y-106122759D01*
X170281800Y-106200000D01*
X171646400Y-106200000D01*
X171714521Y-106220002D01*
X171761014Y-106273658D01*
X171772400Y-106326000D01*
X171772400Y-106450000D01*
X171896400Y-106450000D01*
X171964521Y-106470002D01*
X172011014Y-106523658D01*
X172022400Y-106576000D01*
X172022400Y-107229400D01*
X172723500Y-107229400D01*
X172791621Y-107249402D01*
X172838114Y-107303058D01*
X172849500Y-107355400D01*
X172849500Y-108670905D01*
X172829498Y-108739026D01*
X172775842Y-108785519D01*
X172723500Y-108796905D01*
X169284766Y-108796905D01*
X169199325Y-108819799D01*
X169199324Y-108819798D01*
X169170189Y-108827605D01*
X169170186Y-108827606D01*
X169067464Y-108886912D01*
X169067454Y-108886920D01*
X160589516Y-117364859D01*
X160589508Y-117364869D01*
X160530200Y-117467594D01*
X160523712Y-117491804D01*
X160523713Y-117491805D01*
X160499500Y-117582170D01*
X160499500Y-119802190D01*
X160479498Y-119870311D01*
X160425842Y-119916804D01*
X160355568Y-119926908D01*
X160341931Y-119923427D01*
X160341840Y-119923813D01*
X160334174Y-119922001D01*
X160274640Y-119915600D01*
X159486200Y-119915600D01*
X159486200Y-120569000D01*
X159466198Y-120637121D01*
X159412542Y-120683614D01*
X159360200Y-120695000D01*
X159236200Y-120695000D01*
X159236200Y-120819000D01*
X159216198Y-120887121D01*
X159162542Y-120933614D01*
X159110200Y-120945000D01*
X157745600Y-120945000D01*
X157745600Y-121022240D01*
X157752000Y-121081771D01*
X157802247Y-121216489D01*
X157888410Y-121331588D01*
X157947219Y-121375612D01*
X157989766Y-121432447D01*
X157994831Y-121503263D01*
X157986974Y-121527373D01*
X157948015Y-121615607D01*
X157948014Y-121615609D01*
X157945100Y-121640729D01*
X157945100Y-121855604D01*
X157925098Y-121923725D01*
X157908196Y-121944699D01*
X156939513Y-122913383D01*
X156939508Y-122913389D01*
X156880200Y-123016113D01*
X156880201Y-123016114D01*
X156852423Y-123119785D01*
X156849500Y-123130692D01*
X156849500Y-127135383D01*
X156829498Y-127203504D01*
X156775842Y-127249997D01*
X156705568Y-127260101D01*
X156672607Y-127250647D01*
X156619993Y-127227416D01*
X156619991Y-127227415D01*
X156594869Y-127224501D01*
X155705139Y-127224501D01*
X155705132Y-127224502D01*
X155680008Y-127227415D01*
X155680004Y-127227417D01*
X155577234Y-127272794D01*
X155565525Y-127284504D01*
X155537431Y-127312597D01*
X155475123Y-127346621D01*
X155448338Y-127349501D01*
X154340689Y-127349501D01*
X154250324Y-127373714D01*
X154250323Y-127373713D01*
X154226113Y-127380201D01*
X154123388Y-127439509D01*
X154123378Y-127439517D01*
X152679481Y-128883416D01*
X152617169Y-128917441D01*
X152590386Y-128920321D01*
X146818136Y-128920321D01*
X146750015Y-128900319D01*
X146729041Y-128883416D01*
X143185141Y-125339516D01*
X143185131Y-125339508D01*
X143082412Y-125280203D01*
X143082410Y-125280202D01*
X143082408Y-125280201D01*
X143082401Y-125280199D01*
X143058194Y-125273712D01*
X143058194Y-125273713D01*
X142967830Y-125249500D01*
X142967829Y-125249500D01*
X127838793Y-125249500D01*
X127770672Y-125229498D01*
X127749698Y-125212595D01*
X125787405Y-123250302D01*
X125753379Y-123187990D01*
X125750500Y-123161207D01*
X125750500Y-120736394D01*
X127525500Y-120736394D01*
X127525500Y-120963606D01*
X127561043Y-121188020D01*
X127561044Y-121188024D01*
X127631254Y-121404108D01*
X127631255Y-121404111D01*
X127631256Y-121404112D01*
X127727276Y-121592562D01*
X127734410Y-121606562D01*
X127867961Y-121790379D01*
X128028620Y-121951038D01*
X128028623Y-121951040D01*
X128212441Y-122084592D01*
X128414888Y-122187744D01*
X128630980Y-122257957D01*
X128855394Y-122293500D01*
X128855396Y-122293500D01*
X129082604Y-122293500D01*
X129082606Y-122293500D01*
X129307020Y-122257957D01*
X129523112Y-122187744D01*
X129725559Y-122084592D01*
X129909377Y-121951040D01*
X130070040Y-121790377D01*
X130203592Y-121606559D01*
X130306744Y-121404112D01*
X130376957Y-121188020D01*
X130412500Y-120963606D01*
X130412500Y-120736394D01*
X130376957Y-120511980D01*
X130306744Y-120295888D01*
X130203592Y-120093441D01*
X130079033Y-119922001D01*
X130070038Y-119909620D01*
X129909379Y-119748961D01*
X129725562Y-119615410D01*
X129725561Y-119615409D01*
X129725559Y-119615408D01*
X129523112Y-119512256D01*
X129523111Y-119512255D01*
X129523108Y-119512254D01*
X129307024Y-119442044D01*
X129307022Y-119442043D01*
X129307020Y-119442043D01*
X129082606Y-119406500D01*
X128855394Y-119406500D01*
X128630980Y-119442043D01*
X128630978Y-119442043D01*
X128630975Y-119442044D01*
X128414891Y-119512254D01*
X128212437Y-119615410D01*
X128028620Y-119748961D01*
X127867961Y-119909620D01*
X127734410Y-120093437D01*
X127631254Y-120295891D01*
X127561044Y-120511975D01*
X127561043Y-120511978D01*
X127561043Y-120511980D01*
X127525500Y-120736394D01*
X125750500Y-120736394D01*
X125750500Y-109087486D01*
X134152597Y-109087486D01*
X134158997Y-109147017D01*
X134209244Y-109281735D01*
X134295407Y-109396835D01*
X134410507Y-109482998D01*
X134545225Y-109533245D01*
X134604756Y-109539645D01*
X134604773Y-109539646D01*
X135037597Y-109539646D01*
X135537597Y-109539646D01*
X135970421Y-109539646D01*
X135970437Y-109539645D01*
X136029968Y-109533245D01*
X136164686Y-109482998D01*
X136279786Y-109396835D01*
X136365949Y-109281735D01*
X136416196Y-109147017D01*
X136422596Y-109087486D01*
X136422597Y-109087469D01*
X136422597Y-108514946D01*
X135537597Y-108514946D01*
X135537597Y-109539646D01*
X135037597Y-109539646D01*
X135037597Y-108514946D01*
X134152597Y-108514946D01*
X134152597Y-109087486D01*
X125750500Y-109087486D01*
X125750500Y-107442405D01*
X134152597Y-107442405D01*
X134152597Y-108014946D01*
X135037597Y-108014946D01*
X135537597Y-108014946D01*
X136422597Y-108014946D01*
X136422597Y-107442422D01*
X136422596Y-107442405D01*
X136416196Y-107382874D01*
X136365949Y-107248156D01*
X136279786Y-107133056D01*
X136164686Y-107046893D01*
X136029968Y-106996646D01*
X135970437Y-106990246D01*
X135537597Y-106990246D01*
X135537597Y-108014946D01*
X135037597Y-108014946D01*
X135037597Y-106990246D01*
X134604756Y-106990246D01*
X134545225Y-106996646D01*
X134410507Y-107046893D01*
X134295407Y-107133056D01*
X134209244Y-107248156D01*
X134158997Y-107382874D01*
X134152597Y-107442405D01*
X125750500Y-107442405D01*
X125750500Y-101338793D01*
X125770502Y-101270672D01*
X125787405Y-101249698D01*
X127449698Y-99587405D01*
X127512010Y-99553379D01*
X127538793Y-99550500D01*
X134229284Y-99550500D01*
X134297405Y-99570502D01*
X134343898Y-99624158D01*
X134354002Y-99694432D01*
X134324508Y-99759012D01*
X134304794Y-99777368D01*
X134237809Y-99827512D01*
X134151647Y-99942610D01*
X134101400Y-100077328D01*
X134095000Y-100136859D01*
X134095000Y-100709400D01*
X136365000Y-100709400D01*
X136365000Y-100136876D01*
X136364999Y-100136859D01*
X136358599Y-100077328D01*
X136308352Y-99942610D01*
X136222190Y-99827512D01*
X136155206Y-99777368D01*
X136112660Y-99720532D01*
X136107596Y-99649716D01*
X136141621Y-99587404D01*
X136203934Y-99553379D01*
X136230716Y-99550500D01*
X140961207Y-99550500D01*
X141029328Y-99570502D01*
X141050302Y-99587405D01*
X146609895Y-105146998D01*
X146624839Y-105174366D01*
X146641696Y-105200595D01*
X146642601Y-105206893D01*
X146643921Y-105209310D01*
X146646800Y-105236093D01*
X146646800Y-105284100D01*
X146626798Y-105352221D01*
X146573142Y-105398714D01*
X146520800Y-105410100D01*
X146061840Y-105410100D01*
X146061833Y-105410101D01*
X146036709Y-105413014D01*
X146036705Y-105413016D01*
X145933934Y-105458393D01*
X145854495Y-105537832D01*
X145854494Y-105537834D01*
X145809114Y-105640609D01*
X145806200Y-105665729D01*
X145806200Y-106279976D01*
X145786198Y-106348097D01*
X145732542Y-106394590D01*
X145662268Y-106404694D01*
X145597688Y-106375200D01*
X145575618Y-106348469D01*
X145575534Y-106348534D01*
X145573726Y-106346178D01*
X145571081Y-106342974D01*
X145570510Y-106341985D01*
X145570506Y-106341981D01*
X145570503Y-106341977D01*
X139747421Y-100518895D01*
X139747411Y-100518887D01*
X139621886Y-100446416D01*
X139539218Y-100424264D01*
X139539218Y-100424265D01*
X139510546Y-100416582D01*
X139481875Y-100408900D01*
X139481874Y-100408900D01*
X138831499Y-100408900D01*
X138763378Y-100388898D01*
X138716885Y-100335242D01*
X138705499Y-100282900D01*
X138705499Y-100139840D01*
X138705499Y-100139836D01*
X138702585Y-100114709D01*
X138662717Y-100024416D01*
X138657206Y-100011934D01*
X138577767Y-99932495D01*
X138577765Y-99932494D01*
X138474989Y-99887114D01*
X138474990Y-99887114D01*
X138449868Y-99884200D01*
X137090140Y-99884200D01*
X137090133Y-99884201D01*
X137065009Y-99887114D01*
X137065005Y-99887116D01*
X136962234Y-99932493D01*
X136882795Y-100011932D01*
X136882794Y-100011934D01*
X136837414Y-100114709D01*
X136834500Y-100139829D01*
X136834500Y-101064184D01*
X136814498Y-101132305D01*
X136797595Y-101153279D01*
X136580095Y-101370779D01*
X136517783Y-101404805D01*
X136446968Y-101399740D01*
X136390132Y-101357193D01*
X136365321Y-101290673D01*
X136365000Y-101281684D01*
X136365000Y-101209400D01*
X134095000Y-101209400D01*
X134095000Y-101781940D01*
X134101890Y-101846024D01*
X134089284Y-101915893D01*
X134040905Y-101967854D01*
X134009224Y-101981198D01*
X133990166Y-101986304D01*
X133990167Y-101986305D01*
X133987519Y-101987014D01*
X133987511Y-101987017D01*
X133861988Y-102059487D01*
X133861978Y-102059495D01*
X133109495Y-102811978D01*
X133109489Y-102811986D01*
X133100189Y-102828095D01*
X133048802Y-102917101D01*
X133037016Y-102937515D01*
X133006603Y-103051019D01*
X132999500Y-103077526D01*
X132999500Y-105372478D01*
X133013872Y-105426112D01*
X133013872Y-105426113D01*
X133037016Y-105512486D01*
X133109487Y-105638011D01*
X133109495Y-105638021D01*
X133611978Y-106140504D01*
X133611983Y-106140508D01*
X133611985Y-106140510D01*
X133611986Y-106140511D01*
X133611988Y-106140512D01*
X133669708Y-106173836D01*
X133696841Y-106189501D01*
X133710949Y-106197646D01*
X133737510Y-106212982D01*
X133737512Y-106212982D01*
X133737515Y-106212984D01*
X133877525Y-106250500D01*
X136019785Y-106250500D01*
X136087906Y-106270502D01*
X136108880Y-106287405D01*
X136950578Y-107129103D01*
X136984604Y-107191415D01*
X136979539Y-107262230D01*
X136950578Y-107307293D01*
X136940392Y-107317478D01*
X136940391Y-107317480D01*
X136895011Y-107420255D01*
X136892097Y-107445375D01*
X136892097Y-109084505D01*
X136892098Y-109084512D01*
X136895011Y-109109636D01*
X136895013Y-109109640D01*
X136940390Y-109212411D01*
X137019829Y-109291850D01*
X137019831Y-109291851D01*
X137019832Y-109291852D01*
X137122606Y-109337231D01*
X137147732Y-109340146D01*
X138507461Y-109340145D01*
X138532588Y-109337231D01*
X138635362Y-109291852D01*
X138714803Y-109212411D01*
X138760182Y-109109637D01*
X138763097Y-109084511D01*
X138763096Y-107445382D01*
X138760182Y-107420255D01*
X138730223Y-107352404D01*
X138714803Y-107317480D01*
X138635364Y-107238041D01*
X138635362Y-107238040D01*
X138532586Y-107192660D01*
X138532587Y-107192660D01*
X138507467Y-107189746D01*
X138507462Y-107189746D01*
X138484057Y-107189746D01*
X138415936Y-107169744D01*
X138369443Y-107116088D01*
X138362353Y-107096365D01*
X138340581Y-107015112D01*
X138340579Y-107015109D01*
X138340579Y-107015107D01*
X138268109Y-106889585D01*
X138268101Y-106889575D01*
X136638021Y-105259495D01*
X136638011Y-105259487D01*
X136512486Y-105187016D01*
X136512488Y-105187016D01*
X136487052Y-105180200D01*
X136487052Y-105180201D01*
X136487048Y-105180200D01*
X136487047Y-105180200D01*
X136478483Y-105177905D01*
X136451400Y-105161395D01*
X136417864Y-105140954D01*
X136417862Y-105140951D01*
X136393249Y-105090280D01*
X136386843Y-105077093D01*
X136386843Y-105077092D01*
X136386842Y-105077090D01*
X136392911Y-105026341D01*
X136395271Y-105006599D01*
X136395272Y-105006596D01*
X136395273Y-105006595D01*
X136417846Y-104979258D01*
X136440474Y-104951852D01*
X136440475Y-104951851D01*
X136440477Y-104951850D01*
X136475677Y-104940599D01*
X136508100Y-104930235D01*
X136511074Y-104930199D01*
X136885904Y-104930199D01*
X136954025Y-104950201D01*
X136974999Y-104967104D01*
X137008378Y-105000483D01*
X137008381Y-105000485D01*
X137008386Y-105000490D01*
X137088197Y-105046568D01*
X137111110Y-105059797D01*
X137111114Y-105059799D01*
X137225691Y-105090499D01*
X137225693Y-105090499D01*
X137344308Y-105090499D01*
X137344310Y-105090499D01*
X137458887Y-105059799D01*
X137561614Y-105000490D01*
X137645490Y-104916614D01*
X137645493Y-104916609D01*
X137647943Y-104913416D01*
X137648334Y-104912148D01*
X137657787Y-104902537D01*
X137667976Y-104890355D01*
X137667796Y-104890175D01*
X137669831Y-104888139D01*
X137672166Y-104885348D01*
X137679152Y-104879450D01*
X137681528Y-104878401D01*
X137682249Y-104877669D01*
X137685705Y-104875302D01*
X137686365Y-104876266D01*
X137706959Y-104867180D01*
X137733633Y-104852610D01*
X137739095Y-104852999D01*
X137744106Y-104850789D01*
X137774134Y-104855501D01*
X137804450Y-104857665D01*
X137809789Y-104861095D01*
X137814244Y-104861795D01*
X137823014Y-104869594D01*
X137849529Y-104886632D01*
X143123378Y-110160483D01*
X143123381Y-110160485D01*
X143123386Y-110160490D01*
X143214310Y-110212984D01*
X143226114Y-110219799D01*
X143340691Y-110250500D01*
X145800638Y-110250500D01*
X145829207Y-110258888D01*
X145858443Y-110264542D01*
X145865149Y-110269442D01*
X145868759Y-110270502D01*
X145887644Y-110285363D01*
X145888702Y-110286373D01*
X145933935Y-110331606D01*
X145937931Y-110333370D01*
X145948922Y-110343863D01*
X145961762Y-110366135D01*
X145978021Y-110386054D01*
X145979195Y-110396373D01*
X145984382Y-110405369D01*
X145983143Y-110431046D01*
X145986052Y-110456595D01*
X145981461Y-110465911D01*
X145980961Y-110476283D01*
X145966036Y-110497214D01*
X145954671Y-110520279D01*
X145941377Y-110531798D01*
X145939743Y-110534090D01*
X145937867Y-110534839D01*
X145935029Y-110537298D01*
X145889733Y-110582595D01*
X145827421Y-110616621D01*
X145800638Y-110619500D01*
X143134691Y-110619500D01*
X143027018Y-110648351D01*
X143025661Y-110648714D01*
X143020111Y-110650201D01*
X142917388Y-110709508D01*
X142917378Y-110709516D01*
X134129912Y-119496983D01*
X134067600Y-119531009D01*
X133996785Y-119525944D01*
X133983615Y-119520155D01*
X133968113Y-119512256D01*
X133968109Y-119512255D01*
X133752024Y-119442044D01*
X133752022Y-119442043D01*
X133752020Y-119442043D01*
X133527606Y-119406500D01*
X133300394Y-119406500D01*
X133075980Y-119442043D01*
X133075978Y-119442043D01*
X133075975Y-119442044D01*
X132859891Y-119512254D01*
X132657437Y-119615410D01*
X132473620Y-119748961D01*
X132312961Y-119909620D01*
X132179410Y-120093437D01*
X132076254Y-120295891D01*
X132006044Y-120511975D01*
X132006043Y-120511978D01*
X132006043Y-120511980D01*
X131970500Y-120736394D01*
X131970500Y-120963606D01*
X132006043Y-121188020D01*
X132006044Y-121188024D01*
X132076254Y-121404108D01*
X132076255Y-121404111D01*
X132076256Y-121404112D01*
X132172276Y-121592562D01*
X132179410Y-121606562D01*
X132312961Y-121790379D01*
X132473620Y-121951038D01*
X132473623Y-121951040D01*
X132657441Y-122084592D01*
X132859888Y-122187744D01*
X133075980Y-122257957D01*
X133300394Y-122293500D01*
X133300396Y-122293500D01*
X133527604Y-122293500D01*
X133527606Y-122293500D01*
X133752020Y-122257957D01*
X133968112Y-122187744D01*
X134170559Y-122084592D01*
X134354377Y-121951040D01*
X134515040Y-121790377D01*
X134648592Y-121606559D01*
X134751744Y-121404112D01*
X134821957Y-121188020D01*
X134857500Y-120963606D01*
X134857500Y-120736394D01*
X134821957Y-120511980D01*
X134751744Y-120295888D01*
X134743844Y-120280384D01*
X134730739Y-120210611D01*
X134757437Y-120144826D01*
X134767006Y-120134095D01*
X143343699Y-111557405D01*
X143406011Y-111523379D01*
X143432794Y-111520500D01*
X145800638Y-111520500D01*
X145829207Y-111528888D01*
X145858443Y-111534542D01*
X145865149Y-111539442D01*
X145868759Y-111540502D01*
X145887644Y-111555363D01*
X145888702Y-111556373D01*
X145933935Y-111601606D01*
X145937931Y-111603370D01*
X145948922Y-111613863D01*
X145961762Y-111636135D01*
X145978021Y-111656054D01*
X145979195Y-111666373D01*
X145984382Y-111675369D01*
X145983143Y-111701046D01*
X145986052Y-111726595D01*
X145981461Y-111735911D01*
X145980961Y-111746283D01*
X145966036Y-111767214D01*
X145954671Y-111790279D01*
X145941377Y-111801798D01*
X145939743Y-111804090D01*
X145937867Y-111804839D01*
X145935029Y-111807298D01*
X145889733Y-111852595D01*
X145827421Y-111886621D01*
X145800638Y-111889500D01*
X143900690Y-111889500D01*
X143810325Y-111913713D01*
X143810324Y-111913712D01*
X143786115Y-111920199D01*
X143683387Y-111979509D01*
X143683379Y-111979515D01*
X136389516Y-119273379D01*
X136389508Y-119273389D01*
X136330201Y-119376112D01*
X136330198Y-119376118D01*
X136327146Y-119387513D01*
X136327146Y-119387515D01*
X136302556Y-119479288D01*
X136299500Y-119490692D01*
X136299500Y-123261207D01*
X136290716Y-123291122D01*
X136284088Y-123321592D01*
X136280273Y-123326687D01*
X136279498Y-123329328D01*
X136262595Y-123350302D01*
X136150302Y-123462595D01*
X136087990Y-123496621D01*
X136061207Y-123499500D01*
X131838793Y-123499500D01*
X131770672Y-123479498D01*
X131749698Y-123462595D01*
X131687405Y-123400302D01*
X131653379Y-123337990D01*
X131650500Y-123311207D01*
X131650500Y-116756935D01*
X131670502Y-116688814D01*
X131687400Y-116667845D01*
X136082595Y-112272649D01*
X136144907Y-112238624D01*
X136171690Y-112235745D01*
X137605757Y-112235745D01*
X137605761Y-112235745D01*
X137630888Y-112232831D01*
X137733662Y-112187452D01*
X137813103Y-112108011D01*
X137858482Y-112005237D01*
X137861397Y-111980111D01*
X137861396Y-110340982D01*
X137858482Y-110315855D01*
X137825305Y-110240716D01*
X137813103Y-110213080D01*
X137733664Y-110133641D01*
X137733662Y-110133640D01*
X137630886Y-110088260D01*
X137630887Y-110088260D01*
X137605765Y-110085346D01*
X135509437Y-110085346D01*
X135509430Y-110085347D01*
X135484306Y-110088260D01*
X135484302Y-110088262D01*
X135381531Y-110133639D01*
X135302092Y-110213078D01*
X135302091Y-110213080D01*
X135256711Y-110315855D01*
X135253797Y-110340975D01*
X135253797Y-111775052D01*
X135233795Y-111843173D01*
X135216892Y-111864147D01*
X130839516Y-116241522D01*
X130839508Y-116241532D01*
X130780200Y-116344256D01*
X130780201Y-116344257D01*
X130749500Y-116458834D01*
X130749500Y-123609309D01*
X130769373Y-123683475D01*
X130770361Y-123687160D01*
X130770361Y-123687166D01*
X130770362Y-123687166D01*
X130777146Y-123712485D01*
X130780201Y-123723888D01*
X130811941Y-123778862D01*
X130839511Y-123826614D01*
X130839513Y-123826616D01*
X130839516Y-123826620D01*
X131323378Y-124310482D01*
X131323381Y-124310484D01*
X131323386Y-124310489D01*
X131382696Y-124344731D01*
X131426114Y-124369799D01*
X131540691Y-124400500D01*
X131540693Y-124400500D01*
X136359309Y-124400500D01*
X136449673Y-124376286D01*
X136473887Y-124369799D01*
X136576614Y-124310489D01*
X137110489Y-123776614D01*
X137169799Y-123673887D01*
X137187102Y-123609309D01*
X137200500Y-123559309D01*
X137200500Y-119788793D01*
X137220502Y-119720672D01*
X137237405Y-119699698D01*
X144109699Y-112827405D01*
X144172011Y-112793379D01*
X144198794Y-112790500D01*
X145800638Y-112790500D01*
X145829207Y-112798888D01*
X145858443Y-112804542D01*
X145865149Y-112809442D01*
X145868759Y-112810502D01*
X145887644Y-112825363D01*
X145888702Y-112826373D01*
X145933935Y-112871606D01*
X145937931Y-112873370D01*
X145948922Y-112883863D01*
X145961762Y-112906135D01*
X145978021Y-112926054D01*
X145979195Y-112936373D01*
X145984382Y-112945369D01*
X145983143Y-112971046D01*
X145986052Y-112996595D01*
X145981461Y-113005911D01*
X145980961Y-113016283D01*
X145966036Y-113037214D01*
X145954671Y-113060279D01*
X145941377Y-113071798D01*
X145939743Y-113074090D01*
X145937867Y-113074839D01*
X145935029Y-113077298D01*
X145889733Y-113122595D01*
X145827421Y-113156621D01*
X145800638Y-113159500D01*
X144380691Y-113159500D01*
X144266114Y-113190201D01*
X144266113Y-113190201D01*
X144266111Y-113190202D01*
X144198239Y-113229388D01*
X144163386Y-113249510D01*
X144163384Y-113249511D01*
X144163378Y-113249516D01*
X139403516Y-118009379D01*
X139403508Y-118009389D01*
X139344200Y-118112113D01*
X139344201Y-118112114D01*
X139313500Y-118226692D01*
X139313500Y-119387046D01*
X139293498Y-119455167D01*
X139239842Y-119501660D01*
X139226439Y-119506878D01*
X139223215Y-119507925D01*
X139209889Y-119512255D01*
X139007437Y-119615410D01*
X138823620Y-119748961D01*
X138662961Y-119909620D01*
X138529410Y-120093437D01*
X138426254Y-120295891D01*
X138356044Y-120511975D01*
X138356043Y-120511978D01*
X138356043Y-120511980D01*
X138320500Y-120736394D01*
X138320500Y-120963606D01*
X138356043Y-121188020D01*
X138356044Y-121188024D01*
X138426254Y-121404108D01*
X138426255Y-121404111D01*
X138426256Y-121404112D01*
X138522276Y-121592562D01*
X138529410Y-121606562D01*
X138662961Y-121790379D01*
X138823620Y-121951038D01*
X138823623Y-121951040D01*
X139007441Y-122084592D01*
X139209888Y-122187744D01*
X139425980Y-122257957D01*
X139650394Y-122293500D01*
X139650396Y-122293500D01*
X139877604Y-122293500D01*
X139877606Y-122293500D01*
X140102020Y-122257957D01*
X140318112Y-122187744D01*
X140520559Y-122084592D01*
X140704377Y-121951040D01*
X140865040Y-121790377D01*
X140998592Y-121606559D01*
X141101744Y-121404112D01*
X141171957Y-121188020D01*
X141207500Y-120963606D01*
X141207500Y-120736394D01*
X141171957Y-120511980D01*
X141101744Y-120295888D01*
X140998592Y-120093441D01*
X140874033Y-119922001D01*
X140865038Y-119909620D01*
X140704379Y-119748961D01*
X140520562Y-119615410D01*
X140520561Y-119615409D01*
X140520559Y-119615408D01*
X140318112Y-119512256D01*
X140318111Y-119512255D01*
X140318110Y-119512255D01*
X140306626Y-119508524D01*
X140301562Y-119506878D01*
X140242958Y-119466805D01*
X140215321Y-119401408D01*
X140214500Y-119387046D01*
X140214500Y-118524793D01*
X140234502Y-118456672D01*
X140251405Y-118435698D01*
X144589699Y-114097405D01*
X144652011Y-114063379D01*
X144678794Y-114060500D01*
X145800638Y-114060500D01*
X145868759Y-114080502D01*
X145889733Y-114097405D01*
X145933932Y-114141604D01*
X145933934Y-114141605D01*
X145933935Y-114141606D01*
X146036709Y-114186985D01*
X146061835Y-114189900D01*
X148132764Y-114189899D01*
X148157891Y-114186985D01*
X148260665Y-114141606D01*
X148340106Y-114062165D01*
X148385485Y-113959391D01*
X148388400Y-113934265D01*
X148388399Y-113285736D01*
X148385485Y-113260609D01*
X148355785Y-113193345D01*
X148340106Y-113157834D01*
X148252410Y-113070138D01*
X148253441Y-113069106D01*
X148216581Y-113023952D01*
X148208546Y-112953412D01*
X148239924Y-112889726D01*
X148259567Y-112872704D01*
X148340104Y-112792167D01*
X148340106Y-112792165D01*
X148385485Y-112689391D01*
X148388400Y-112664265D01*
X148388399Y-112015736D01*
X148385485Y-111990609D01*
X148354397Y-111920201D01*
X148340106Y-111887834D01*
X148252410Y-111800138D01*
X148253441Y-111799106D01*
X148216581Y-111753952D01*
X148208546Y-111683412D01*
X148239924Y-111619726D01*
X148259567Y-111602704D01*
X148340104Y-111522167D01*
X148340106Y-111522165D01*
X148385485Y-111419391D01*
X148388400Y-111394265D01*
X148388399Y-110745736D01*
X148385485Y-110720609D01*
X148360747Y-110664582D01*
X148340106Y-110617834D01*
X148252410Y-110530138D01*
X148253441Y-110529106D01*
X148216581Y-110483952D01*
X148208546Y-110413412D01*
X148239924Y-110349726D01*
X148259567Y-110332704D01*
X148340104Y-110252167D01*
X148340106Y-110252165D01*
X148385485Y-110149391D01*
X148388400Y-110124265D01*
X148388399Y-109475736D01*
X148385485Y-109450609D01*
X148354397Y-109380201D01*
X148340106Y-109347834D01*
X148287867Y-109295595D01*
X148253841Y-109233283D01*
X148258906Y-109162468D01*
X148301453Y-109105632D01*
X148367973Y-109080821D01*
X148376962Y-109080500D01*
X148660372Y-109080500D01*
X148660374Y-109080500D01*
X148660375Y-109080500D01*
X148800385Y-109042984D01*
X148925915Y-108970510D01*
X149740510Y-108155915D01*
X149812984Y-108030385D01*
X149818482Y-108009866D01*
X149818846Y-108008510D01*
X149841886Y-107922523D01*
X149850500Y-107890375D01*
X149850500Y-101380215D01*
X149870502Y-101312094D01*
X149887405Y-101291120D01*
X155691120Y-95487405D01*
X155753432Y-95453379D01*
X155780215Y-95450500D01*
X160453729Y-95450500D01*
X160456707Y-95451374D01*
G37*
%TD.AperFunction*%
%TA.AperFunction,Conductor*%
G36*
X174849707Y-109728687D02*
G01*
X174856290Y-109734816D01*
X176361978Y-111240504D01*
X176361983Y-111240508D01*
X176361985Y-111240510D01*
X176361986Y-111240511D01*
X176361988Y-111240512D01*
X176484428Y-111311202D01*
X176484430Y-111311203D01*
X176487515Y-111312984D01*
X176627525Y-111350500D01*
X179494524Y-111350500D01*
X180019785Y-111350500D01*
X180087906Y-111370502D01*
X180108880Y-111387405D01*
X181412595Y-112691120D01*
X181446621Y-112753432D01*
X181449500Y-112780215D01*
X181449500Y-123219785D01*
X181429498Y-123287906D01*
X181412595Y-123308880D01*
X180308880Y-124412595D01*
X180246568Y-124446621D01*
X180219785Y-124449500D01*
X175280214Y-124449500D01*
X175212093Y-124429498D01*
X175191119Y-124412595D01*
X172587405Y-121808880D01*
X172553379Y-121746568D01*
X172550500Y-121719785D01*
X172550500Y-119880215D01*
X172570502Y-119812094D01*
X172587405Y-119791120D01*
X173640504Y-118738021D01*
X173640510Y-118738015D01*
X173712984Y-118612485D01*
X173721131Y-118582079D01*
X173750500Y-118472475D01*
X173750500Y-118034663D01*
X173758076Y-118008859D01*
X173761921Y-117982244D01*
X173768797Y-117972347D01*
X173770502Y-117966542D01*
X173781331Y-117952087D01*
X173784255Y-117948716D01*
X173833206Y-117899766D01*
X173839917Y-117884565D01*
X173852350Y-117870237D01*
X173866903Y-117860897D01*
X173878063Y-117847685D01*
X173896163Y-117842120D01*
X173912101Y-117831893D01*
X173929395Y-117831904D01*
X173945926Y-117826823D01*
X173964162Y-117831928D01*
X173983098Y-117831941D01*
X173997638Y-117841299D01*
X174014294Y-117845962D01*
X174036609Y-117863713D01*
X174863795Y-118690900D01*
X174897819Y-118753210D01*
X174892754Y-118824026D01*
X174891914Y-118826214D01*
X174885124Y-118843432D01*
X174885122Y-118843440D01*
X174874500Y-118931895D01*
X174874500Y-120268106D01*
X174885122Y-120356565D01*
X174940638Y-120497342D01*
X174940641Y-120497346D01*
X175032077Y-120617923D01*
X175152654Y-120709359D01*
X175152658Y-120709362D01*
X175293435Y-120764878D01*
X175293434Y-120764878D01*
X175321394Y-120768235D01*
X175381898Y-120775501D01*
X175381901Y-120775501D01*
X176093099Y-120775501D01*
X176093102Y-120775501D01*
X176181564Y-120764878D01*
X176322342Y-120709362D01*
X176442922Y-120617923D01*
X176534361Y-120497343D01*
X176589877Y-120356565D01*
X176599674Y-120274979D01*
X177600001Y-120274979D01*
X177610493Y-120377692D01*
X177665642Y-120544123D01*
X177757683Y-120693345D01*
X177757688Y-120693351D01*
X177881649Y-120817312D01*
X177881655Y-120817317D01*
X178030877Y-120909358D01*
X178197308Y-120964507D01*
X178300012Y-120975000D01*
X178412500Y-120975000D01*
X178912500Y-120975000D01*
X179024978Y-120975000D01*
X179127691Y-120964507D01*
X179294122Y-120909358D01*
X179443344Y-120817317D01*
X179443350Y-120817312D01*
X179567311Y-120693351D01*
X179567316Y-120693345D01*
X179659357Y-120544123D01*
X179714506Y-120377692D01*
X179724999Y-120274988D01*
X179725000Y-120274988D01*
X179725000Y-119850001D01*
X178912500Y-119850001D01*
X178912500Y-120975000D01*
X178412500Y-120975000D01*
X178412500Y-119850001D01*
X177600001Y-119850001D01*
X177600001Y-120274979D01*
X176599674Y-120274979D01*
X176600500Y-120268103D01*
X176600500Y-118931899D01*
X176599674Y-118925013D01*
X177600000Y-118925013D01*
X177600000Y-119350001D01*
X178412500Y-119350001D01*
X178912500Y-119350001D01*
X179724999Y-119350001D01*
X179724999Y-118925022D01*
X179714506Y-118822309D01*
X179659357Y-118655878D01*
X179567316Y-118506656D01*
X179567311Y-118506650D01*
X179443350Y-118382689D01*
X179443344Y-118382684D01*
X179294122Y-118290643D01*
X179127691Y-118235494D01*
X179024987Y-118225001D01*
X178912500Y-118225001D01*
X178912500Y-119350001D01*
X178412500Y-119350001D01*
X178412500Y-118225001D01*
X178300021Y-118225001D01*
X178197308Y-118235494D01*
X178030877Y-118290643D01*
X177881655Y-118382684D01*
X177881649Y-118382689D01*
X177757688Y-118506650D01*
X177757683Y-118506656D01*
X177665642Y-118655878D01*
X177610493Y-118822309D01*
X177600000Y-118925013D01*
X176599674Y-118925013D01*
X176599492Y-118923500D01*
X176589877Y-118843436D01*
X176534361Y-118702659D01*
X176534358Y-118702655D01*
X176442922Y-118582078D01*
X176322345Y-118490642D01*
X176322341Y-118490639D01*
X176181564Y-118435123D01*
X176181565Y-118435123D01*
X176093105Y-118424501D01*
X176093102Y-118424501D01*
X175923794Y-118424501D01*
X175855673Y-118404499D01*
X175834699Y-118387596D01*
X175273926Y-117826823D01*
X174712696Y-117265594D01*
X174678672Y-117203283D01*
X174683736Y-117132468D01*
X174726283Y-117075632D01*
X174792803Y-117050821D01*
X174801792Y-117050500D01*
X175259307Y-117050500D01*
X175259309Y-117050500D01*
X175356025Y-117024585D01*
X175373887Y-117019799D01*
X175476614Y-116960489D01*
X175791489Y-116645614D01*
X175846403Y-116550500D01*
X175850799Y-116542886D01*
X175881500Y-116428309D01*
X175881500Y-111671691D01*
X175850799Y-111557114D01*
X175850799Y-111557113D01*
X175834503Y-111528888D01*
X175791491Y-111454389D01*
X175791483Y-111454379D01*
X174678100Y-110340996D01*
X174644074Y-110278684D01*
X174641195Y-110251901D01*
X174641195Y-109823911D01*
X174661197Y-109755790D01*
X174714853Y-109709297D01*
X174785127Y-109699193D01*
X174849707Y-109728687D01*
G37*
%TD.AperFunction*%
%TA.AperFunction,Conductor*%
G36*
X167930793Y-116556837D02*
G01*
X167953238Y-116558443D01*
X167964194Y-116566644D01*
X167977327Y-116570501D01*
X167992062Y-116587506D01*
X168010074Y-116600990D01*
X168014856Y-116613812D01*
X168023820Y-116624157D01*
X168027022Y-116646429D01*
X168034885Y-116667510D01*
X168031976Y-116680882D01*
X168033924Y-116694431D01*
X168024576Y-116714897D01*
X168019794Y-116736884D01*
X168006308Y-116754897D01*
X168004430Y-116759011D01*
X167998301Y-116765594D01*
X167839516Y-116924378D01*
X167839510Y-116924385D01*
X167780202Y-117027110D01*
X167780098Y-117027494D01*
X167780097Y-117027500D01*
X167764046Y-117087405D01*
X167749500Y-117141691D01*
X167749500Y-119445526D01*
X167745283Y-119461263D01*
X167745949Y-119475230D01*
X167732620Y-119508524D01*
X167703302Y-119559306D01*
X167703301Y-119559308D01*
X167687018Y-119587509D01*
X167687015Y-119587516D01*
X167649500Y-119727526D01*
X167649500Y-120148777D01*
X167629498Y-120216898D01*
X167575842Y-120263391D01*
X167535561Y-120273424D01*
X167535637Y-120274051D01*
X167443435Y-120285122D01*
X167302658Y-120340638D01*
X167188245Y-120427401D01*
X167121880Y-120452624D01*
X167052413Y-120437963D01*
X167023016Y-120416098D01*
X166861413Y-120254495D01*
X166861403Y-120254487D01*
X166735882Y-120182018D01*
X166735879Y-120182017D01*
X166735877Y-120182016D01*
X166595867Y-120144500D01*
X166595864Y-120144500D01*
X165310953Y-120144500D01*
X165260059Y-120133764D01*
X165224389Y-120118014D01*
X165224390Y-120118014D01*
X165199268Y-120115100D01*
X163128340Y-120115100D01*
X163128333Y-120115101D01*
X163103209Y-120118014D01*
X163103205Y-120118016D01*
X163067540Y-120133764D01*
X163016646Y-120144500D01*
X162532525Y-120144500D01*
X162424259Y-120173510D01*
X162385793Y-120183817D01*
X162314817Y-120182127D01*
X162256021Y-120142333D01*
X162228073Y-120077068D01*
X162239847Y-120007055D01*
X162264084Y-119973018D01*
X165649699Y-116587404D01*
X165712011Y-116553378D01*
X165738794Y-116550499D01*
X167909206Y-116550499D01*
X167930793Y-116556837D01*
G37*
%TD.AperFunction*%
%TA.AperFunction,Conductor*%
G36*
X173658227Y-109433043D02*
G01*
X173715063Y-109475590D01*
X173739874Y-109542110D01*
X173740195Y-109551099D01*
X173740195Y-110550005D01*
X173747160Y-110575997D01*
X173745472Y-110646974D01*
X173705678Y-110705770D01*
X173640414Y-110733719D01*
X173612647Y-110733957D01*
X173524987Y-110725001D01*
X173412500Y-110725001D01*
X173412500Y-111850001D01*
X174224999Y-111850001D01*
X174224999Y-111466292D01*
X174245001Y-111398171D01*
X174298657Y-111351678D01*
X174368931Y-111341574D01*
X174433511Y-111371068D01*
X174440094Y-111377197D01*
X174943595Y-111880698D01*
X174977621Y-111943010D01*
X174980500Y-111969793D01*
X174980500Y-116023500D01*
X174960498Y-116091621D01*
X174906842Y-116138114D01*
X174854500Y-116149500D01*
X174007499Y-116149500D01*
X173939378Y-116129498D01*
X173892885Y-116075842D01*
X173881499Y-116023500D01*
X173881499Y-115928138D01*
X173881499Y-115928135D01*
X173878585Y-115903008D01*
X173833206Y-115800234D01*
X173833206Y-115800233D01*
X173767405Y-115734432D01*
X173733379Y-115672120D01*
X173730500Y-115645337D01*
X173730500Y-115151988D01*
X173737571Y-115110371D01*
X173757709Y-115052821D01*
X173757710Y-115052819D01*
X173760500Y-115023066D01*
X173760500Y-114576934D01*
X173757710Y-114547181D01*
X173732063Y-114473888D01*
X173713852Y-114421843D01*
X173713851Y-114421841D01*
X173634999Y-114315000D01*
X173528158Y-114236148D01*
X173528153Y-114236146D01*
X173402824Y-114192291D01*
X173402819Y-114192290D01*
X173373068Y-114189500D01*
X173373066Y-114189500D01*
X172986934Y-114189500D01*
X172986931Y-114189500D01*
X172957178Y-114192290D01*
X172935756Y-114199786D01*
X172864852Y-114203404D01*
X172805047Y-114169951D01*
X172755377Y-114120280D01*
X172616196Y-114037968D01*
X172470000Y-113995494D01*
X172470000Y-114674000D01*
X172467408Y-114682825D01*
X172468718Y-114691932D01*
X172457562Y-114716357D01*
X172449998Y-114742121D01*
X172443044Y-114748145D01*
X172439224Y-114756512D01*
X172416638Y-114771026D01*
X172396342Y-114788614D01*
X172385655Y-114790938D01*
X172379498Y-114794896D01*
X172344000Y-114800000D01*
X172096000Y-114800000D01*
X172027879Y-114779998D01*
X171981386Y-114726342D01*
X171970000Y-114674000D01*
X171970000Y-113995494D01*
X171816192Y-114040180D01*
X171815598Y-114038135D01*
X171756074Y-114045480D01*
X171692097Y-114014700D01*
X171654917Y-113954217D01*
X171650500Y-113921147D01*
X171650500Y-113003193D01*
X171650500Y-113003192D01*
X171619799Y-112888615D01*
X171609979Y-112871606D01*
X171560490Y-112785888D01*
X171560487Y-112785885D01*
X171560484Y-112785881D01*
X171549582Y-112774979D01*
X172100001Y-112774979D01*
X172110493Y-112877692D01*
X172165642Y-113044123D01*
X172257683Y-113193345D01*
X172257688Y-113193351D01*
X172381649Y-113317312D01*
X172381655Y-113317317D01*
X172530877Y-113409358D01*
X172697308Y-113464507D01*
X172800012Y-113475000D01*
X172912500Y-113475000D01*
X173412500Y-113475000D01*
X173524978Y-113475000D01*
X173627691Y-113464507D01*
X173794122Y-113409358D01*
X173943344Y-113317317D01*
X173943350Y-113317312D01*
X174067311Y-113193351D01*
X174067316Y-113193345D01*
X174159357Y-113044123D01*
X174214506Y-112877692D01*
X174224999Y-112774988D01*
X174225000Y-112774988D01*
X174225000Y-112350001D01*
X173412500Y-112350001D01*
X173412500Y-113475000D01*
X172912500Y-113475000D01*
X172912500Y-112350001D01*
X172100001Y-112350001D01*
X172100001Y-112774979D01*
X171549582Y-112774979D01*
X171137405Y-112362802D01*
X171103379Y-112300490D01*
X171100500Y-112273707D01*
X171100500Y-111431898D01*
X171099673Y-111425013D01*
X172100000Y-111425013D01*
X172100000Y-111850001D01*
X172912500Y-111850001D01*
X172912500Y-110725001D01*
X172800021Y-110725001D01*
X172697308Y-110735494D01*
X172530877Y-110790643D01*
X172381655Y-110882684D01*
X172381649Y-110882689D01*
X172257688Y-111006650D01*
X172257683Y-111006656D01*
X172165642Y-111155878D01*
X172110493Y-111322309D01*
X172100000Y-111425013D01*
X171099673Y-111425013D01*
X171089877Y-111343436D01*
X171034361Y-111202659D01*
X171034358Y-111202655D01*
X170942922Y-111082078D01*
X170822345Y-110990642D01*
X170822341Y-110990639D01*
X170681564Y-110935123D01*
X170681565Y-110935123D01*
X170593105Y-110924501D01*
X170593102Y-110924501D01*
X169881898Y-110924501D01*
X169881894Y-110924501D01*
X169793435Y-110935123D01*
X169652658Y-110990639D01*
X169652654Y-110990642D01*
X169532077Y-111082078D01*
X169440641Y-111202655D01*
X169440638Y-111202659D01*
X169385122Y-111343436D01*
X169374500Y-111431895D01*
X169374500Y-112768106D01*
X169385122Y-112856565D01*
X169440638Y-112997342D01*
X169440641Y-112997346D01*
X169532077Y-113117923D01*
X169652654Y-113209359D01*
X169652658Y-113209362D01*
X169793435Y-113264878D01*
X169793434Y-113264878D01*
X169821394Y-113268235D01*
X169881898Y-113275501D01*
X169881901Y-113275501D01*
X170593097Y-113275501D01*
X170593102Y-113275501D01*
X170608477Y-113273654D01*
X170678493Y-113285389D01*
X170731053Y-113333117D01*
X170749500Y-113398755D01*
X170749500Y-115591594D01*
X170729498Y-115659715D01*
X170675842Y-115706208D01*
X170605568Y-115716312D01*
X170572607Y-115706858D01*
X170501392Y-115675414D01*
X170501390Y-115675413D01*
X170476270Y-115672499D01*
X170476265Y-115672499D01*
X170212135Y-115672499D01*
X170179524Y-115668206D01*
X170109709Y-115649499D01*
X165440692Y-115649499D01*
X165402566Y-115659715D01*
X165354851Y-115672500D01*
X165326116Y-115680199D01*
X165326113Y-115680200D01*
X165223390Y-115739507D01*
X165223380Y-115739515D01*
X161615595Y-119347301D01*
X161553283Y-119381327D01*
X161482468Y-119376262D01*
X161425632Y-119333715D01*
X161400821Y-119267195D01*
X161400500Y-119258206D01*
X161400500Y-117880273D01*
X161420502Y-117812152D01*
X161437405Y-117791178D01*
X169493774Y-109734810D01*
X169556086Y-109700784D01*
X169582869Y-109697905D01*
X173161904Y-109697905D01*
X173252268Y-109673691D01*
X173276482Y-109667204D01*
X173379209Y-109607894D01*
X173447458Y-109539645D01*
X173525100Y-109462004D01*
X173587412Y-109427978D01*
X173658227Y-109433043D01*
G37*
%TD.AperFunction*%
%TA.AperFunction,Conductor*%
G36*
X171667532Y-116934138D02*
G01*
X171724368Y-116976685D01*
X171749179Y-117043205D01*
X171749500Y-117052194D01*
X171749500Y-117659307D01*
X171749499Y-117659307D01*
X171780201Y-117773886D01*
X171839508Y-117876609D01*
X171839516Y-117876619D01*
X171923380Y-117960483D01*
X171923385Y-117960487D01*
X171923387Y-117960489D01*
X172026114Y-118019799D01*
X172140691Y-118050500D01*
X172466785Y-118050500D01*
X172534906Y-118070502D01*
X172581399Y-118124158D01*
X172591503Y-118194432D01*
X172562009Y-118259012D01*
X172555880Y-118265595D01*
X171808880Y-119012595D01*
X171746568Y-119046621D01*
X171719785Y-119049500D01*
X168776500Y-119049500D01*
X168708379Y-119029498D01*
X168661886Y-118975842D01*
X168650500Y-118923500D01*
X168650500Y-117439792D01*
X168670502Y-117371671D01*
X168687405Y-117350697D01*
X168950697Y-117087405D01*
X168978065Y-117072460D01*
X169004294Y-117055604D01*
X169010592Y-117054698D01*
X169013009Y-117053379D01*
X169039792Y-117050500D01*
X169112198Y-117050500D01*
X169180319Y-117070502D01*
X169226812Y-117124158D01*
X169236916Y-117194432D01*
X169227763Y-117221933D01*
X169229197Y-117222468D01*
X169175800Y-117365629D01*
X169169400Y-117425160D01*
X169169400Y-117473001D01*
X169456003Y-117473001D01*
X169465878Y-117475084D01*
X169472368Y-117474068D01*
X169506900Y-117483738D01*
X169511431Y-117485739D01*
X169565666Y-117531555D01*
X169586522Y-117599419D01*
X169567377Y-117667786D01*
X169514309Y-117714949D01*
X169460532Y-117727001D01*
X169169400Y-117727001D01*
X169169400Y-117774841D01*
X169175800Y-117834372D01*
X169226047Y-117969090D01*
X169312210Y-118084190D01*
X169427310Y-118170353D01*
X169562028Y-118220600D01*
X169621559Y-118227000D01*
X169621576Y-118227001D01*
X169923400Y-118227001D01*
X169923400Y-117676500D01*
X169925991Y-117667674D01*
X169924682Y-117658568D01*
X169935837Y-117634142D01*
X169943402Y-117608379D01*
X169950355Y-117602354D01*
X169954176Y-117593988D01*
X169976761Y-117579473D01*
X169997058Y-117561886D01*
X170007744Y-117559561D01*
X170013902Y-117555604D01*
X170049400Y-117550500D01*
X170051400Y-117550500D01*
X170119521Y-117570502D01*
X170166014Y-117624158D01*
X170177400Y-117676500D01*
X170177400Y-118227001D01*
X170479224Y-118227001D01*
X170479240Y-118227000D01*
X170538771Y-118220600D01*
X170673489Y-118170353D01*
X170788589Y-118084190D01*
X170874752Y-117969090D01*
X170924999Y-117834372D01*
X170931399Y-117774841D01*
X170931400Y-117774824D01*
X170931400Y-117727000D01*
X170917207Y-117712807D01*
X170883181Y-117650495D01*
X170888246Y-117579680D01*
X170930793Y-117522844D01*
X170943284Y-117514604D01*
X171037014Y-117460489D01*
X171275570Y-117221933D01*
X171534405Y-116963099D01*
X171596717Y-116929073D01*
X171667532Y-116934138D01*
G37*
%TD.AperFunction*%
%TA.AperFunction,Conductor*%
G36*
X179367531Y-107623737D02*
G01*
X179424367Y-107666284D01*
X179449178Y-107732804D01*
X179449499Y-107741793D01*
X179449499Y-107902303D01*
X179429497Y-107970424D01*
X179399010Y-108003170D01*
X179392808Y-108007812D01*
X179306646Y-108122910D01*
X179256399Y-108257628D01*
X179249999Y-108317159D01*
X179249999Y-108390000D01*
X180024000Y-108390000D01*
X180092121Y-108410002D01*
X180138614Y-108463658D01*
X180150000Y-108516000D01*
X180150000Y-108640000D01*
X180274000Y-108640000D01*
X180342121Y-108660002D01*
X180388614Y-108713658D01*
X180400000Y-108766000D01*
X180400000Y-109415000D01*
X180601203Y-109415000D01*
X180601203Y-109416461D01*
X180664626Y-109431406D01*
X180713956Y-109482465D01*
X180727852Y-109552088D01*
X180701900Y-109618172D01*
X180691442Y-109630033D01*
X180108878Y-110212596D01*
X180046568Y-110246620D01*
X180019785Y-110249500D01*
X176980215Y-110249500D01*
X176950299Y-110240716D01*
X176919830Y-110234088D01*
X176914734Y-110230273D01*
X176912094Y-110229498D01*
X176891120Y-110212595D01*
X176794120Y-110115595D01*
X176760094Y-110053283D01*
X176765159Y-109982468D01*
X176807706Y-109925632D01*
X176874226Y-109900821D01*
X176883215Y-109900500D01*
X177029055Y-109900500D01*
X177029057Y-109900500D01*
X177181784Y-109859577D01*
X177181787Y-109859575D01*
X177181788Y-109859575D01*
X177250250Y-109820048D01*
X177318716Y-109780520D01*
X177430520Y-109668716D01*
X177498426Y-109551099D01*
X177509575Y-109531788D01*
X177509575Y-109531787D01*
X177509577Y-109531784D01*
X177550500Y-109379057D01*
X177550500Y-109379050D01*
X177551352Y-109372578D01*
X177580071Y-109307649D01*
X177587168Y-109299934D01*
X177924262Y-108962840D01*
X179249999Y-108962840D01*
X179256399Y-109022371D01*
X179306646Y-109157089D01*
X179392809Y-109272189D01*
X179507909Y-109358352D01*
X179642627Y-109408599D01*
X179702158Y-109414999D01*
X179702175Y-109415000D01*
X179900000Y-109415000D01*
X179900000Y-108890000D01*
X179249999Y-108890000D01*
X179249999Y-108962840D01*
X177924262Y-108962840D01*
X179234404Y-107652697D01*
X179296716Y-107618672D01*
X179367531Y-107623737D01*
G37*
%TD.AperFunction*%
%TA.AperFunction,Conductor*%
G36*
X178026323Y-103097874D02*
G01*
X178043421Y-103099497D01*
X178050330Y-103104923D01*
X178069328Y-103110502D01*
X178090302Y-103127405D01*
X180712595Y-105749698D01*
X180727539Y-105777066D01*
X180744396Y-105803295D01*
X180745301Y-105809593D01*
X180746621Y-105812010D01*
X180749500Y-105838793D01*
X180749500Y-106040977D01*
X180729498Y-106109098D01*
X180675842Y-106155591D01*
X180608984Y-106166138D01*
X180594868Y-106164501D01*
X179705139Y-106164501D01*
X179705132Y-106164502D01*
X179680008Y-106167415D01*
X179680004Y-106167417D01*
X179577234Y-106212794D01*
X179562596Y-106227433D01*
X179537431Y-106252597D01*
X179486773Y-106283496D01*
X179468025Y-106289501D01*
X179450690Y-106289501D01*
X179336113Y-106320202D01*
X179302877Y-106339391D01*
X179291179Y-106346144D01*
X179291175Y-106346146D01*
X179233388Y-106379509D01*
X179233378Y-106379517D01*
X176950077Y-108662819D01*
X176887765Y-108696845D01*
X176877431Y-108698646D01*
X176870944Y-108699500D01*
X176870943Y-108699500D01*
X176818105Y-108713658D01*
X176718211Y-108740424D01*
X176581287Y-108819477D01*
X176581277Y-108819485D01*
X176469485Y-108931277D01*
X176469477Y-108931287D01*
X176390424Y-109068211D01*
X176369308Y-109147017D01*
X176350959Y-109215500D01*
X176349500Y-109220944D01*
X176349500Y-109366785D01*
X176329498Y-109434906D01*
X176275842Y-109481399D01*
X176205568Y-109491503D01*
X176140988Y-109462009D01*
X176134405Y-109455880D01*
X175845805Y-109167280D01*
X175811779Y-109104968D01*
X175808900Y-109078185D01*
X175808900Y-108678761D01*
X175816615Y-108639970D01*
X175815839Y-108639762D01*
X175817977Y-108631784D01*
X175858900Y-108479057D01*
X175858900Y-108320943D01*
X175817977Y-108168216D01*
X175817975Y-108168214D01*
X175815839Y-108160239D01*
X175816615Y-108160030D01*
X175808900Y-108121239D01*
X175808900Y-107155899D01*
X175828902Y-107087778D01*
X175882558Y-107041285D01*
X175934900Y-107029899D01*
X177735460Y-107029899D01*
X177735464Y-107029899D01*
X177760591Y-107026985D01*
X177863365Y-106981606D01*
X177942806Y-106902165D01*
X177988185Y-106799391D01*
X177991100Y-106774265D01*
X177991099Y-106125736D01*
X177988185Y-106100609D01*
X177956000Y-106027716D01*
X177942806Y-105997834D01*
X177855110Y-105910138D01*
X177856141Y-105909106D01*
X177819281Y-105863952D01*
X177811246Y-105793412D01*
X177842624Y-105729726D01*
X177862267Y-105712704D01*
X177942804Y-105632167D01*
X177942806Y-105632165D01*
X177988185Y-105529391D01*
X177991100Y-105504265D01*
X177991099Y-104855736D01*
X177988185Y-104830609D01*
X177959785Y-104766289D01*
X177942806Y-104727834D01*
X177855110Y-104640138D01*
X177856141Y-104639106D01*
X177819281Y-104593952D01*
X177811246Y-104523412D01*
X177842624Y-104459726D01*
X177862267Y-104442704D01*
X177942804Y-104362167D01*
X177942806Y-104362165D01*
X177988185Y-104259391D01*
X177991100Y-104234265D01*
X177991099Y-103585736D01*
X177988185Y-103560609D01*
X177967828Y-103514505D01*
X177942806Y-103457834D01*
X177855110Y-103370138D01*
X177856141Y-103369106D01*
X177819281Y-103323952D01*
X177811246Y-103253412D01*
X177842624Y-103189726D01*
X177848378Y-103183862D01*
X177859367Y-103173371D01*
X177863365Y-103171606D01*
X177908598Y-103126372D01*
X177909657Y-103125362D01*
X177939962Y-103109715D01*
X177969879Y-103093379D01*
X177972056Y-103093144D01*
X177972742Y-103092791D01*
X177974126Y-103092922D01*
X177996662Y-103090500D01*
X178001207Y-103090500D01*
X178026323Y-103097874D01*
G37*
%TD.AperFunction*%
%TA.AperFunction,Conductor*%
G36*
X139197306Y-101529902D02*
G01*
X139218280Y-101546805D01*
X144542595Y-106871120D01*
X144576621Y-106933432D01*
X144579500Y-106960215D01*
X144579500Y-107624016D01*
X144559498Y-107692137D01*
X144505842Y-107738630D01*
X144435568Y-107748734D01*
X144420127Y-107745397D01*
X144420000Y-107745493D01*
X144420000Y-108424000D01*
X144399998Y-108492121D01*
X144346342Y-108538614D01*
X144294000Y-108550000D01*
X144170000Y-108550000D01*
X144170000Y-108674000D01*
X144149998Y-108742121D01*
X144096342Y-108788614D01*
X144044000Y-108800000D01*
X143391210Y-108800000D01*
X143392855Y-108820916D01*
X143393058Y-108821614D01*
X143393056Y-108822021D01*
X143394012Y-108827253D01*
X143393041Y-108827430D01*
X143392855Y-108892610D01*
X143354301Y-108952227D01*
X143289637Y-108981535D01*
X143219392Y-108971231D01*
X143182966Y-108945862D01*
X142537103Y-108299999D01*
X143391208Y-108299999D01*
X143391209Y-108300000D01*
X143920000Y-108300000D01*
X143920000Y-107745494D01*
X143773803Y-107787968D01*
X143634622Y-107870280D01*
X143634618Y-107870283D01*
X143520283Y-107984618D01*
X143520280Y-107984622D01*
X143437969Y-108123802D01*
X143392854Y-108279087D01*
X143392854Y-108279088D01*
X143391208Y-108299999D01*
X142537103Y-108299999D01*
X137840704Y-103603600D01*
X137806678Y-103541288D01*
X137803799Y-103514505D01*
X137803799Y-103035440D01*
X137803799Y-103035436D01*
X137800885Y-103010309D01*
X137780552Y-102964259D01*
X137755506Y-102907534D01*
X137676067Y-102828095D01*
X137676065Y-102828094D01*
X137573289Y-102782714D01*
X137573290Y-102782714D01*
X137548170Y-102779800D01*
X137548165Y-102779800D01*
X137032314Y-102779800D01*
X136964193Y-102759798D01*
X136917700Y-102706142D01*
X136907596Y-102635868D01*
X136937090Y-102571288D01*
X136943219Y-102564705D01*
X137436420Y-102071504D01*
X137498732Y-102037478D01*
X137525515Y-102034599D01*
X138449860Y-102034599D01*
X138449864Y-102034599D01*
X138474991Y-102031685D01*
X138577765Y-101986306D01*
X138657206Y-101906865D01*
X138702585Y-101804091D01*
X138705500Y-101778965D01*
X138705500Y-101635900D01*
X138725502Y-101567779D01*
X138779158Y-101521286D01*
X138831500Y-101509900D01*
X139129185Y-101509900D01*
X139197306Y-101529902D01*
G37*
%TD.AperFunction*%
%TA.AperFunction,Conductor*%
G36*
X181787906Y-93670502D02*
G01*
X181808880Y-93687405D01*
X184112595Y-95991119D01*
X184146620Y-96053431D01*
X184149500Y-96080214D01*
X184149500Y-104703500D01*
X184129498Y-104771621D01*
X184075842Y-104818114D01*
X184023500Y-104829500D01*
X183625982Y-104829500D01*
X183557861Y-104809498D01*
X183511368Y-104755842D01*
X183501264Y-104685568D01*
X183504600Y-104670127D01*
X183504505Y-104670000D01*
X181895495Y-104670000D01*
X181937969Y-104816197D01*
X182020280Y-104955377D01*
X182069951Y-105005047D01*
X182103976Y-105067359D01*
X182099786Y-105135756D01*
X182092290Y-105157178D01*
X182089500Y-105186931D01*
X182089500Y-105573068D01*
X182092290Y-105602819D01*
X182092291Y-105602824D01*
X182105512Y-105640605D01*
X182130844Y-105713000D01*
X182139267Y-105737069D01*
X182137820Y-105737575D01*
X182149500Y-105784668D01*
X182149500Y-106138338D01*
X182129498Y-106206459D01*
X182112595Y-106227433D01*
X182047794Y-106292233D01*
X182047793Y-106292235D01*
X182002413Y-106395010D01*
X181999499Y-106420130D01*
X181999499Y-106609787D01*
X181990715Y-106639702D01*
X181984087Y-106670172D01*
X181980272Y-106675267D01*
X181979497Y-106677908D01*
X181962594Y-106698882D01*
X181865595Y-106795881D01*
X181803283Y-106829907D01*
X181732468Y-106824842D01*
X181675632Y-106782295D01*
X181650821Y-106715775D01*
X181650500Y-106706786D01*
X181650500Y-105540692D01*
X181649734Y-105537835D01*
X181619799Y-105426114D01*
X181619799Y-105426113D01*
X181577137Y-105352221D01*
X181560491Y-105323389D01*
X181560483Y-105323379D01*
X180407103Y-104169999D01*
X181895494Y-104169999D01*
X181895495Y-104170000D01*
X182450000Y-104170000D01*
X182950000Y-104170000D01*
X183504505Y-104170000D01*
X183504505Y-104169999D01*
X183462030Y-104023802D01*
X183379719Y-103884622D01*
X183379716Y-103884618D01*
X183265381Y-103770283D01*
X183265377Y-103770280D01*
X183126197Y-103687969D01*
X182970912Y-103642854D01*
X182950000Y-103641208D01*
X182950000Y-104170000D01*
X182450000Y-104170000D01*
X182450000Y-103641209D01*
X182449999Y-103641208D01*
X182429088Y-103642854D01*
X182429087Y-103642854D01*
X182273802Y-103687969D01*
X182134622Y-103770280D01*
X182134618Y-103770283D01*
X182020283Y-103884618D01*
X182020280Y-103884622D01*
X181937969Y-104023802D01*
X181895494Y-104169999D01*
X180407103Y-104169999D01*
X178516620Y-102279516D01*
X178516610Y-102279508D01*
X178413891Y-102220203D01*
X178413889Y-102220202D01*
X178413887Y-102220201D01*
X178413880Y-102220199D01*
X178389673Y-102213712D01*
X178389673Y-102213713D01*
X178299309Y-102189500D01*
X178299308Y-102189500D01*
X177996662Y-102189500D01*
X177968090Y-102181110D01*
X177938858Y-102175458D01*
X177932152Y-102170558D01*
X177928541Y-102169498D01*
X177909657Y-102154638D01*
X177908598Y-102153627D01*
X177863365Y-102108394D01*
X177859367Y-102106628D01*
X177848378Y-102096138D01*
X177835536Y-102073865D01*
X177819281Y-102053952D01*
X177818105Y-102043631D01*
X177812917Y-102034632D01*
X177814155Y-102008956D01*
X177811246Y-101983412D01*
X177815837Y-101974092D01*
X177816338Y-101963718D01*
X177831262Y-101942786D01*
X177842624Y-101919726D01*
X177855917Y-101908207D01*
X177857555Y-101905910D01*
X177859435Y-101905158D01*
X177862267Y-101902704D01*
X177942804Y-101822167D01*
X177942806Y-101822165D01*
X177988185Y-101719391D01*
X177991100Y-101694265D01*
X177991099Y-101045736D01*
X177988185Y-101020609D01*
X177942806Y-100917835D01*
X177942806Y-100917834D01*
X177855110Y-100830138D01*
X177856141Y-100829106D01*
X177819281Y-100783952D01*
X177811246Y-100713412D01*
X177842624Y-100649726D01*
X177862267Y-100632704D01*
X177942804Y-100552167D01*
X177942806Y-100552165D01*
X177988185Y-100449391D01*
X177991100Y-100424265D01*
X177991099Y-99775736D01*
X177988185Y-99750609D01*
X177942806Y-99647835D01*
X177942806Y-99647834D01*
X177890567Y-99595595D01*
X177856541Y-99533283D01*
X177861606Y-99462468D01*
X177904153Y-99405632D01*
X177970673Y-99380821D01*
X177979662Y-99380500D01*
X178255192Y-99380500D01*
X178323313Y-99400502D01*
X178329998Y-99405110D01*
X178341843Y-99413852D01*
X178341844Y-99413852D01*
X178341845Y-99413853D01*
X178462508Y-99456075D01*
X178467181Y-99457710D01*
X178496934Y-99460500D01*
X178496937Y-99460500D01*
X178883063Y-99460500D01*
X178883066Y-99460500D01*
X178912819Y-99457710D01*
X178934241Y-99450213D01*
X179005142Y-99446594D01*
X179064950Y-99480048D01*
X179114618Y-99529716D01*
X179114622Y-99529719D01*
X179253802Y-99612030D01*
X179399999Y-99654505D01*
X179400000Y-99654505D01*
X179900000Y-99654505D01*
X180046197Y-99612030D01*
X180185377Y-99529719D01*
X180185381Y-99529716D01*
X180299716Y-99415381D01*
X180299719Y-99415377D01*
X180382030Y-99276197D01*
X180427145Y-99120912D01*
X180427145Y-99120911D01*
X180428791Y-99100000D01*
X179900000Y-99100000D01*
X179900000Y-99654505D01*
X179400000Y-99654505D01*
X179400000Y-98600000D01*
X179900000Y-98600000D01*
X180428790Y-98600000D01*
X180428790Y-98599999D01*
X180427144Y-98579083D01*
X180382030Y-98423802D01*
X180299719Y-98284622D01*
X180299716Y-98284618D01*
X180185381Y-98170283D01*
X180185377Y-98170280D01*
X180046196Y-98087968D01*
X179900000Y-98045494D01*
X179900000Y-98600000D01*
X179400000Y-98600000D01*
X179400000Y-98045494D01*
X179253803Y-98087968D01*
X179114622Y-98170280D01*
X179064950Y-98219952D01*
X179002637Y-98253977D01*
X178934239Y-98249785D01*
X178912820Y-98242290D01*
X178883068Y-98239500D01*
X178883066Y-98239500D01*
X178496934Y-98239500D01*
X178496931Y-98239500D01*
X178467180Y-98242290D01*
X178467175Y-98242291D01*
X178381049Y-98272429D01*
X178339433Y-98279500D01*
X177876500Y-98279500D01*
X177808379Y-98259498D01*
X177761886Y-98205842D01*
X177750500Y-98153500D01*
X177750500Y-93776500D01*
X177770502Y-93708379D01*
X177824158Y-93661886D01*
X177876500Y-93650500D01*
X181719785Y-93650500D01*
X181787906Y-93670502D01*
G37*
%TD.AperFunction*%
%TA.AperFunction,Conductor*%
G36*
X171727328Y-96570502D02*
G01*
X171748302Y-96587405D01*
X172196302Y-97035405D01*
X172230328Y-97097717D01*
X172225263Y-97168532D01*
X172182716Y-97225368D01*
X172116196Y-97250179D01*
X172107207Y-97250500D01*
X161039691Y-97250500D01*
X160925114Y-97281201D01*
X160925113Y-97281201D01*
X160925111Y-97281202D01*
X160840307Y-97330163D01*
X160822386Y-97340510D01*
X160822384Y-97340511D01*
X160822378Y-97340516D01*
X154339516Y-103823379D01*
X154339508Y-103823389D01*
X154280200Y-103926113D01*
X154280201Y-103926114D01*
X154254026Y-104023802D01*
X154249500Y-104040692D01*
X154249500Y-105861205D01*
X154229498Y-105929326D01*
X154212595Y-105950301D01*
X153400478Y-106762417D01*
X153393962Y-106765974D01*
X153389681Y-106772040D01*
X153363223Y-106782759D01*
X153338166Y-106796442D01*
X153330760Y-106795912D01*
X153323880Y-106798700D01*
X153295826Y-106793413D01*
X153267350Y-106791377D01*
X153259690Y-106786604D01*
X153254111Y-106785553D01*
X153230776Y-106768587D01*
X153224812Y-106764871D01*
X153223524Y-106763653D01*
X153188265Y-106728394D01*
X153184460Y-106726714D01*
X153173712Y-106716550D01*
X153160620Y-106694090D01*
X153144181Y-106673952D01*
X153143039Y-106663928D01*
X153137959Y-106655213D01*
X153139088Y-106629241D01*
X153136146Y-106603412D01*
X153140604Y-106594362D01*
X153141043Y-106584283D01*
X153156035Y-106563042D01*
X153167524Y-106539726D01*
X153180323Y-106528635D01*
X153181985Y-106526281D01*
X153183966Y-106525478D01*
X153187167Y-106522704D01*
X153267704Y-106442167D01*
X153267706Y-106442165D01*
X153313085Y-106339391D01*
X153316000Y-106314265D01*
X153315999Y-105665736D01*
X153313085Y-105640609D01*
X153283262Y-105573066D01*
X153267706Y-105537834D01*
X153188267Y-105458395D01*
X153188265Y-105458394D01*
X153085489Y-105413014D01*
X153085490Y-105413014D01*
X153060370Y-105410100D01*
X153060365Y-105410100D01*
X152601400Y-105410100D01*
X152533279Y-105390098D01*
X152486786Y-105336442D01*
X152475400Y-105284100D01*
X152475400Y-105013893D01*
X152495402Y-104945772D01*
X152512305Y-104924798D01*
X160849698Y-96587405D01*
X160912010Y-96553379D01*
X160938793Y-96550500D01*
X171659207Y-96550500D01*
X171727328Y-96570502D01*
G37*
%TD.AperFunction*%
%TA.AperFunction,Conductor*%
G36*
X176591621Y-93670502D02*
G01*
X176638114Y-93724158D01*
X176649500Y-93776500D01*
X176649500Y-98049783D01*
X176640716Y-98079698D01*
X176634088Y-98110168D01*
X176630273Y-98115263D01*
X176629498Y-98117904D01*
X176612595Y-98138878D01*
X176538278Y-98213195D01*
X176475966Y-98247221D01*
X176449183Y-98250100D01*
X175664540Y-98250100D01*
X175664533Y-98250101D01*
X175639409Y-98253014D01*
X175639405Y-98253016D01*
X175536634Y-98298393D01*
X175457195Y-98377832D01*
X175457194Y-98377834D01*
X175411814Y-98480609D01*
X175408900Y-98505729D01*
X175408900Y-98669606D01*
X175388898Y-98737727D01*
X175335242Y-98784220D01*
X175264968Y-98794324D01*
X175200388Y-98764830D01*
X175193805Y-98758701D01*
X172174620Y-95739516D01*
X172174610Y-95739508D01*
X172071891Y-95680203D01*
X172071889Y-95680202D01*
X172071887Y-95680201D01*
X172071880Y-95680199D01*
X172047673Y-95673712D01*
X172047673Y-95673713D01*
X171957309Y-95649500D01*
X162873067Y-95649500D01*
X162804946Y-95629498D01*
X162758453Y-95575842D01*
X162748349Y-95505568D01*
X162777843Y-95440988D01*
X162810067Y-95414381D01*
X162907360Y-95358208D01*
X162938015Y-95340510D01*
X164090510Y-94188015D01*
X164146186Y-94091578D01*
X164179167Y-94054185D01*
X164292922Y-93967922D01*
X164384361Y-93847342D01*
X164430526Y-93730275D01*
X164474124Y-93674243D01*
X164541095Y-93650675D01*
X164547741Y-93650500D01*
X176523500Y-93650500D01*
X176591621Y-93670502D01*
G37*
%TD.AperFunction*%
%TA.AperFunction,Conductor*%
G36*
X198703801Y-75600730D02*
G01*
X198733105Y-75602502D01*
X198993684Y-75618264D01*
X199008765Y-75620095D01*
X199290682Y-75671758D01*
X199305429Y-75675393D01*
X199579071Y-75760663D01*
X199593283Y-75766054D01*
X199854624Y-75883674D01*
X199868090Y-75890740D01*
X200113367Y-76039016D01*
X200125866Y-76047643D01*
X200351485Y-76224404D01*
X200362865Y-76234487D01*
X200565512Y-76437134D01*
X200575596Y-76448515D01*
X200752353Y-76674130D01*
X200760985Y-76686635D01*
X200819092Y-76782755D01*
X200909255Y-76931903D01*
X200916325Y-76945375D01*
X201033943Y-77206711D01*
X201039339Y-77220937D01*
X201124602Y-77494554D01*
X201128243Y-77509328D01*
X201179902Y-77791222D01*
X201181736Y-77806326D01*
X201199270Y-78096197D01*
X201199500Y-78103805D01*
X201199500Y-133096194D01*
X201199270Y-133103802D01*
X201181736Y-133393673D01*
X201179902Y-133408777D01*
X201128243Y-133690671D01*
X201124602Y-133705445D01*
X201039339Y-133979062D01*
X201033943Y-133993288D01*
X200916325Y-134254624D01*
X200909255Y-134268096D01*
X200760990Y-134513357D01*
X200752347Y-134525877D01*
X200632967Y-134678255D01*
X200575602Y-134751477D01*
X200565512Y-134762865D01*
X200362865Y-134965512D01*
X200351477Y-134975602D01*
X200125880Y-135152346D01*
X200113357Y-135160990D01*
X199868096Y-135309255D01*
X199854624Y-135316325D01*
X199593288Y-135433943D01*
X199579062Y-135439339D01*
X199305445Y-135524602D01*
X199290671Y-135528243D01*
X199008777Y-135579902D01*
X198993673Y-135581736D01*
X198703802Y-135599270D01*
X198696194Y-135599500D01*
X123703806Y-135599500D01*
X123696198Y-135599270D01*
X123406326Y-135581736D01*
X123391222Y-135579902D01*
X123109328Y-135528243D01*
X123094558Y-135524603D01*
X122820937Y-135439339D01*
X122806711Y-135433943D01*
X122545375Y-135316325D01*
X122531903Y-135309255D01*
X122286635Y-135160985D01*
X122274130Y-135152353D01*
X122048515Y-134975596D01*
X122037134Y-134965512D01*
X121834487Y-134762865D01*
X121824404Y-134751485D01*
X121647643Y-134525866D01*
X121639016Y-134513367D01*
X121490740Y-134268090D01*
X121483674Y-134254624D01*
X121366056Y-133993288D01*
X121360663Y-133979071D01*
X121275393Y-133705429D01*
X121271758Y-133690682D01*
X121220095Y-133408765D01*
X121218264Y-133393684D01*
X121200730Y-133103801D01*
X121200500Y-133096194D01*
X121200500Y-132993713D01*
X122349500Y-132993713D01*
X122349500Y-133206287D01*
X122382754Y-133416243D01*
X122448443Y-133618412D01*
X122544949Y-133807816D01*
X122669896Y-133979792D01*
X122669898Y-133979794D01*
X122669900Y-133979797D01*
X122820202Y-134130099D01*
X122820205Y-134130101D01*
X122820208Y-134130104D01*
X122992184Y-134255051D01*
X123181588Y-134351557D01*
X123383757Y-134417246D01*
X123593713Y-134450500D01*
X123593716Y-134450500D01*
X123806284Y-134450500D01*
X123806287Y-134450500D01*
X124016243Y-134417246D01*
X124218412Y-134351557D01*
X124407816Y-134255051D01*
X124579792Y-134130104D01*
X124730104Y-133979792D01*
X124855051Y-133807816D01*
X124951557Y-133618412D01*
X125017246Y-133416243D01*
X125050500Y-133206287D01*
X125050500Y-132993713D01*
X125017246Y-132783757D01*
X124951557Y-132581588D01*
X124855051Y-132392184D01*
X124730104Y-132220208D01*
X124730101Y-132220205D01*
X124730099Y-132220202D01*
X124579797Y-132069900D01*
X124579794Y-132069898D01*
X124579792Y-132069896D01*
X124407816Y-131944949D01*
X124218412Y-131848443D01*
X124016243Y-131782754D01*
X123806287Y-131749500D01*
X123593713Y-131749500D01*
X123383757Y-131782754D01*
X123383754Y-131782754D01*
X123383753Y-131782755D01*
X123181588Y-131848443D01*
X123181586Y-131848444D01*
X122992180Y-131944951D01*
X122820205Y-132069898D01*
X122820202Y-132069900D01*
X122669900Y-132220202D01*
X122669898Y-132220205D01*
X122544951Y-132392180D01*
X122448444Y-132581586D01*
X122448443Y-132581588D01*
X122399559Y-132732038D01*
X122382754Y-132783757D01*
X122349500Y-132993713D01*
X121200500Y-132993713D01*
X121200500Y-100740691D01*
X122849500Y-100740691D01*
X122849500Y-100740692D01*
X122849500Y-123859312D01*
X122867128Y-123925097D01*
X122867128Y-123925099D01*
X122867129Y-123925099D01*
X122867129Y-123925100D01*
X122867910Y-123928015D01*
X122880200Y-123973884D01*
X122880203Y-123973891D01*
X122939508Y-124076610D01*
X122939516Y-124076620D01*
X126523378Y-127660482D01*
X126523381Y-127660484D01*
X126523386Y-127660489D01*
X126582696Y-127694731D01*
X126626114Y-127719799D01*
X126740691Y-127750500D01*
X139461207Y-127750500D01*
X139529328Y-127770502D01*
X139550302Y-127787405D01*
X146223379Y-134460483D01*
X146223384Y-134460487D01*
X146223386Y-134460489D01*
X146326113Y-134519799D01*
X146339540Y-134523396D01*
X146350314Y-134526283D01*
X146350318Y-134526284D01*
X146350326Y-134526286D01*
X146440691Y-134550500D01*
X152359309Y-134550500D01*
X152449673Y-134526286D01*
X152473887Y-134519799D01*
X152576614Y-134460489D01*
X153346432Y-133690671D01*
X154043391Y-132993713D01*
X197349500Y-132993713D01*
X197349500Y-133206287D01*
X197382754Y-133416243D01*
X197448443Y-133618412D01*
X197544949Y-133807816D01*
X197669896Y-133979792D01*
X197669898Y-133979794D01*
X197669900Y-133979797D01*
X197820202Y-134130099D01*
X197820205Y-134130101D01*
X197820208Y-134130104D01*
X197992184Y-134255051D01*
X198181588Y-134351557D01*
X198383757Y-134417246D01*
X198593713Y-134450500D01*
X198593716Y-134450500D01*
X198806284Y-134450500D01*
X198806287Y-134450500D01*
X199016243Y-134417246D01*
X199218412Y-134351557D01*
X199407816Y-134255051D01*
X199579792Y-134130104D01*
X199730104Y-133979792D01*
X199855051Y-133807816D01*
X199951557Y-133618412D01*
X200017246Y-133416243D01*
X200050500Y-133206287D01*
X200050500Y-132993713D01*
X200017246Y-132783757D01*
X199951557Y-132581588D01*
X199855051Y-132392184D01*
X199730104Y-132220208D01*
X199730101Y-132220205D01*
X199730099Y-132220202D01*
X199579797Y-132069900D01*
X199579794Y-132069898D01*
X199579792Y-132069896D01*
X199407816Y-131944949D01*
X199218412Y-131848443D01*
X199016243Y-131782754D01*
X198806287Y-131749500D01*
X198593713Y-131749500D01*
X198383757Y-131782754D01*
X198383754Y-131782754D01*
X198383753Y-131782755D01*
X198181588Y-131848443D01*
X198181586Y-131848444D01*
X197992180Y-131944951D01*
X197820205Y-132069898D01*
X197820202Y-132069900D01*
X197669900Y-132220202D01*
X197669898Y-132220205D01*
X197544951Y-132392180D01*
X197448444Y-132581586D01*
X197448443Y-132581588D01*
X197399559Y-132732038D01*
X197382754Y-132783757D01*
X197349500Y-132993713D01*
X154043391Y-132993713D01*
X154137437Y-132899667D01*
X154460483Y-132576620D01*
X154460489Y-132576614D01*
X154519798Y-132473887D01*
X154519799Y-132473886D01*
X154550500Y-132359309D01*
X154550500Y-130022840D01*
X155249999Y-130022840D01*
X155256399Y-130082371D01*
X155306646Y-130217089D01*
X155392809Y-130332189D01*
X155507909Y-130418352D01*
X155642627Y-130468599D01*
X155702158Y-130474999D01*
X155702175Y-130475000D01*
X155900000Y-130475000D01*
X156400000Y-130475000D01*
X156597825Y-130475000D01*
X156597841Y-130474999D01*
X156657372Y-130468599D01*
X156792090Y-130418352D01*
X156907190Y-130332189D01*
X156993353Y-130217089D01*
X157043600Y-130082371D01*
X157050000Y-130022840D01*
X157050001Y-130022823D01*
X157050001Y-129950000D01*
X156400000Y-129950000D01*
X156400000Y-130475000D01*
X155900000Y-130475000D01*
X155900000Y-129950000D01*
X155249999Y-129950000D01*
X155249999Y-130022840D01*
X154550500Y-130022840D01*
X154550500Y-129738793D01*
X154570502Y-129670672D01*
X154587405Y-129649698D01*
X154999696Y-129237407D01*
X155062008Y-129203381D01*
X155088791Y-129200502D01*
X155128720Y-129200502D01*
X155196841Y-129220504D01*
X155243334Y-129274160D01*
X155253998Y-129339970D01*
X155249999Y-129377159D01*
X155249999Y-129450000D01*
X157056359Y-129450000D01*
X157104663Y-129423623D01*
X157175478Y-129428687D01*
X157220543Y-129457648D01*
X157823379Y-130060484D01*
X157823384Y-130060488D01*
X157823386Y-130060490D01*
X157823387Y-130060491D01*
X157823389Y-130060492D01*
X157926109Y-130119797D01*
X157926110Y-130119797D01*
X157926113Y-130119799D01*
X157941882Y-130124023D01*
X157950318Y-130126284D01*
X157950321Y-130126284D01*
X157950326Y-130126286D01*
X158021519Y-130145362D01*
X158077999Y-130177971D01*
X158127234Y-130227206D01*
X158230008Y-130272585D01*
X158255134Y-130275500D01*
X159144865Y-130275499D01*
X159169992Y-130272585D01*
X159272766Y-130227206D01*
X159352207Y-130147765D01*
X159397586Y-130044991D01*
X159400501Y-130019865D01*
X159400500Y-129380136D01*
X159397586Y-129355009D01*
X159352207Y-129252235D01*
X159352207Y-129252234D01*
X159272768Y-129172795D01*
X159272766Y-129172794D01*
X159169990Y-129127414D01*
X159169991Y-129127414D01*
X159144869Y-129124500D01*
X158255139Y-129124500D01*
X158255125Y-129124501D01*
X158231846Y-129127201D01*
X158161875Y-129115178D01*
X158128238Y-129091135D01*
X157837082Y-128799978D01*
X166975001Y-128799978D01*
X166985493Y-128902691D01*
X167040642Y-129069122D01*
X167132683Y-129218344D01*
X167132688Y-129218350D01*
X167256649Y-129342311D01*
X167256655Y-129342316D01*
X167405877Y-129434357D01*
X167572308Y-129489506D01*
X167675012Y-129499999D01*
X167950000Y-129499999D01*
X168450000Y-129499999D01*
X168724978Y-129499999D01*
X168827691Y-129489506D01*
X168994122Y-129434357D01*
X169143344Y-129342316D01*
X169143350Y-129342311D01*
X169267311Y-129218350D01*
X169267316Y-129218344D01*
X169359357Y-129069122D01*
X169414506Y-128902691D01*
X169424999Y-128799987D01*
X169425000Y-128799987D01*
X169425000Y-128750000D01*
X168450000Y-128750000D01*
X168450000Y-129499999D01*
X167950000Y-129499999D01*
X167950000Y-128750000D01*
X166975001Y-128750000D01*
X166975001Y-128799978D01*
X157837082Y-128799978D01*
X157824008Y-128786904D01*
X157824006Y-128786901D01*
X157787405Y-128750300D01*
X157753379Y-128687988D01*
X157750500Y-128661205D01*
X157750500Y-128153013D01*
X157770502Y-128084892D01*
X157824158Y-128038399D01*
X157894432Y-128028295D01*
X157959012Y-128057789D01*
X157997396Y-128117515D01*
X158001661Y-128138499D01*
X158002413Y-128144990D01*
X158002415Y-128144995D01*
X158047792Y-128247766D01*
X158127231Y-128327205D01*
X158127233Y-128327206D01*
X158127234Y-128327207D01*
X158230008Y-128372586D01*
X158255134Y-128375501D01*
X159144865Y-128375500D01*
X159169992Y-128372586D01*
X159272766Y-128327207D01*
X159352207Y-128247766D01*
X159397586Y-128144992D01*
X159400501Y-128119866D01*
X159400500Y-127480137D01*
X159397586Y-127455010D01*
X159366214Y-127383959D01*
X159352207Y-127352235D01*
X159352051Y-127352008D01*
X159351894Y-127351528D01*
X159347491Y-127341555D01*
X159348499Y-127341109D01*
X159336572Y-127304506D01*
X159830000Y-127304506D01*
X159976197Y-127262031D01*
X160115377Y-127179720D01*
X160115381Y-127179717D01*
X160229716Y-127065382D01*
X160229719Y-127065378D01*
X160312030Y-126926198D01*
X160334168Y-126850000D01*
X162941210Y-126850000D01*
X162942855Y-126870916D01*
X162987969Y-127026197D01*
X163070280Y-127165377D01*
X163070283Y-127165381D01*
X163184618Y-127279716D01*
X163184622Y-127279719D01*
X163323802Y-127362030D01*
X163469999Y-127404505D01*
X163470000Y-127404505D01*
X163470000Y-126850000D01*
X162941210Y-126850000D01*
X160334168Y-126850000D01*
X160357145Y-126770913D01*
X160357145Y-126770912D01*
X160358791Y-126750001D01*
X159830000Y-126750001D01*
X159830000Y-127304506D01*
X159336572Y-127304506D01*
X159330054Y-127284504D01*
X159330000Y-127280800D01*
X159330000Y-126349999D01*
X162941208Y-126349999D01*
X162941209Y-126350000D01*
X163470000Y-126350000D01*
X163470000Y-125795494D01*
X163323803Y-125837968D01*
X163184622Y-125920280D01*
X163184618Y-125920283D01*
X163070283Y-126034618D01*
X163070280Y-126034622D01*
X162987969Y-126173802D01*
X162942854Y-126329087D01*
X162942854Y-126329088D01*
X162941208Y-126349999D01*
X159330000Y-126349999D01*
X159330000Y-126250001D01*
X159830000Y-126250001D01*
X160358790Y-126250001D01*
X160358790Y-126250000D01*
X160357144Y-126229084D01*
X160312030Y-126073803D01*
X160229719Y-125934623D01*
X160229716Y-125934619D01*
X160115381Y-125820284D01*
X160115377Y-125820281D01*
X159976196Y-125737969D01*
X159830000Y-125695495D01*
X159830000Y-126250001D01*
X159330000Y-126250001D01*
X159330000Y-125720520D01*
X159253101Y-125692307D01*
X159227644Y-125673462D01*
X159201039Y-125656256D01*
X159199341Y-125652510D01*
X159196038Y-125650065D01*
X159184809Y-125620445D01*
X159171732Y-125591591D01*
X159171246Y-125584670D01*
X159170871Y-125583679D01*
X159171101Y-125582592D01*
X159170500Y-125574017D01*
X159170500Y-125401415D01*
X159190502Y-125333294D01*
X159207405Y-125312320D01*
X159397921Y-125121804D01*
X159460233Y-125087778D01*
X159487016Y-125084899D01*
X160271660Y-125084899D01*
X160271664Y-125084899D01*
X160296791Y-125081985D01*
X160322886Y-125070463D01*
X160332460Y-125066236D01*
X160383354Y-125055500D01*
X161167473Y-125055500D01*
X161167474Y-125055500D01*
X161167475Y-125055500D01*
X161307485Y-125017984D01*
X161328590Y-125005799D01*
X161433015Y-124945510D01*
X162640510Y-123738015D01*
X162688050Y-123655671D01*
X162739432Y-123606679D01*
X162809145Y-123593242D01*
X162875056Y-123619629D01*
X162892356Y-123636116D01*
X162904777Y-123650438D01*
X162920994Y-123687165D01*
X163000435Y-123766606D01*
X163008692Y-123770251D01*
X163023603Y-123787444D01*
X163031901Y-123805593D01*
X163044521Y-123821054D01*
X163046361Y-123837219D01*
X163053125Y-123852012D01*
X163050294Y-123871763D01*
X163052552Y-123891595D01*
X163045360Y-123906189D01*
X163043053Y-123922290D01*
X163029992Y-123937376D01*
X163021171Y-123955279D01*
X163001529Y-123972298D01*
X162920995Y-124052832D01*
X162920994Y-124052834D01*
X162875614Y-124155609D01*
X162872700Y-124180729D01*
X162872700Y-124829259D01*
X162872701Y-124829266D01*
X162875614Y-124854390D01*
X162875616Y-124854394D01*
X162920993Y-124957165D01*
X163000432Y-125036604D01*
X163000434Y-125036605D01*
X163000435Y-125036606D01*
X163103209Y-125081985D01*
X163128335Y-125084900D01*
X164054406Y-125084899D01*
X164084321Y-125093682D01*
X164114791Y-125100311D01*
X164119886Y-125104125D01*
X164122527Y-125104901D01*
X164143501Y-125121804D01*
X164192595Y-125170898D01*
X164226621Y-125233210D01*
X164229500Y-125259993D01*
X164229500Y-125703069D01*
X164209498Y-125771190D01*
X164155842Y-125817683D01*
X164085568Y-125827787D01*
X164068347Y-125824066D01*
X163970000Y-125795493D01*
X163970000Y-127404505D01*
X164116197Y-127362030D01*
X164255377Y-127279719D01*
X164305048Y-127230048D01*
X164367360Y-127196023D01*
X164435758Y-127200213D01*
X164457181Y-127207710D01*
X164486934Y-127210500D01*
X164486937Y-127210500D01*
X164873063Y-127210500D01*
X164873066Y-127210500D01*
X164902819Y-127207710D01*
X165028157Y-127163852D01*
X165134999Y-127084999D01*
X165213852Y-126978157D01*
X165257710Y-126852819D01*
X165260500Y-126823066D01*
X165260500Y-126376934D01*
X165257710Y-126347181D01*
X165213852Y-126221843D01*
X165155119Y-126142263D01*
X165130763Y-126075576D01*
X165130500Y-126067443D01*
X165130500Y-125203829D01*
X165150502Y-125135708D01*
X165204158Y-125089215D01*
X165223430Y-125082246D01*
X165224385Y-125081985D01*
X165224391Y-125081985D01*
X165327165Y-125036606D01*
X165406606Y-124957165D01*
X165451985Y-124854391D01*
X165454900Y-124829265D01*
X165454899Y-124180736D01*
X165451985Y-124155609D01*
X165417108Y-124076620D01*
X165406606Y-124052834D01*
X165318910Y-123965138D01*
X165319941Y-123964106D01*
X165283081Y-123918952D01*
X165275046Y-123848412D01*
X165306424Y-123784726D01*
X165312178Y-123778862D01*
X165323167Y-123768371D01*
X165327165Y-123766606D01*
X165372398Y-123721372D01*
X165373457Y-123720362D01*
X165403762Y-123704715D01*
X165433679Y-123688379D01*
X165435856Y-123688144D01*
X165436542Y-123687791D01*
X165437926Y-123687922D01*
X165460462Y-123685500D01*
X166898500Y-123685500D01*
X166966621Y-123705502D01*
X167013114Y-123759158D01*
X167024500Y-123811500D01*
X167024500Y-124418105D01*
X167035122Y-124506564D01*
X167090638Y-124647341D01*
X167090641Y-124647345D01*
X167182077Y-124767922D01*
X167302654Y-124859358D01*
X167302658Y-124859361D01*
X167443435Y-124914877D01*
X167443434Y-124914877D01*
X167471394Y-124918234D01*
X167531898Y-124925500D01*
X167623500Y-124925500D01*
X167691621Y-124945502D01*
X167738114Y-124999158D01*
X167749500Y-125051500D01*
X167749500Y-125679607D01*
X167729498Y-125747728D01*
X167675842Y-125794221D01*
X167638524Y-125804708D01*
X167593435Y-125810122D01*
X167452658Y-125865638D01*
X167452654Y-125865641D01*
X167332077Y-125957077D01*
X167240641Y-126077654D01*
X167240638Y-126077658D01*
X167185122Y-126218435D01*
X167174500Y-126306894D01*
X167174500Y-126893105D01*
X167185122Y-126981564D01*
X167240638Y-127122341D01*
X167240641Y-127122345D01*
X167332077Y-127242922D01*
X167459525Y-127339569D01*
X167457342Y-127342446D01*
X167495140Y-127381174D01*
X167509387Y-127450727D01*
X167483770Y-127516940D01*
X167426421Y-127558793D01*
X167423463Y-127559815D01*
X167405878Y-127565642D01*
X167256655Y-127657683D01*
X167256649Y-127657688D01*
X167132688Y-127781649D01*
X167132683Y-127781655D01*
X167040642Y-127930877D01*
X166985493Y-128097308D01*
X166975000Y-128200012D01*
X166975000Y-128250000D01*
X169424999Y-128250000D01*
X169424999Y-128200021D01*
X169414506Y-128097308D01*
X169359357Y-127930877D01*
X169267316Y-127781655D01*
X169267311Y-127781649D01*
X169143350Y-127657688D01*
X169143344Y-127657683D01*
X168994119Y-127565641D01*
X168976538Y-127559815D01*
X168918167Y-127519400D01*
X168890912Y-127453844D01*
X168903426Y-127383959D01*
X168942349Y-127342041D01*
X168940475Y-127339569D01*
X169067922Y-127242922D01*
X169094625Y-127207709D01*
X169159361Y-127122342D01*
X169214877Y-126981564D01*
X169225500Y-126893102D01*
X169225500Y-126306898D01*
X169216156Y-126229084D01*
X169214877Y-126218435D01*
X169159361Y-126077658D01*
X169159358Y-126077654D01*
X169067922Y-125957077D01*
X168947345Y-125865641D01*
X168947341Y-125865638D01*
X168806564Y-125810122D01*
X168761476Y-125804708D01*
X168696226Y-125776726D01*
X168656463Y-125717910D01*
X168650500Y-125679607D01*
X168650500Y-125051500D01*
X168670502Y-124983379D01*
X168724158Y-124936886D01*
X168776500Y-124925500D01*
X168868099Y-124925500D01*
X168868102Y-124925500D01*
X168956564Y-124914877D01*
X169097342Y-124859361D01*
X169217922Y-124767922D01*
X169309361Y-124647342D01*
X169364877Y-124506564D01*
X169375500Y-124418102D01*
X169375500Y-123706898D01*
X169364877Y-123618436D01*
X169362530Y-123612485D01*
X169309361Y-123477658D01*
X169309358Y-123477654D01*
X169217922Y-123357077D01*
X169097345Y-123265641D01*
X169097341Y-123265638D01*
X168956564Y-123210122D01*
X168956565Y-123210122D01*
X168868105Y-123199500D01*
X168868102Y-123199500D01*
X168026293Y-123199500D01*
X167958172Y-123179498D01*
X167937202Y-123162599D01*
X167649114Y-122874511D01*
X167649112Y-122874510D01*
X167649110Y-122874508D01*
X167546391Y-122815203D01*
X167546389Y-122815202D01*
X167546387Y-122815201D01*
X167546380Y-122815199D01*
X167522173Y-122808712D01*
X167522173Y-122808713D01*
X167431809Y-122784500D01*
X167431808Y-122784500D01*
X165460462Y-122784500D01*
X165431890Y-122776110D01*
X165402658Y-122770458D01*
X165395952Y-122765558D01*
X165392341Y-122764498D01*
X165373457Y-122749638D01*
X165372398Y-122748627D01*
X165327165Y-122703394D01*
X165323167Y-122701628D01*
X165312178Y-122691138D01*
X165299336Y-122668865D01*
X165283081Y-122648952D01*
X165281905Y-122638631D01*
X165276717Y-122629632D01*
X165277955Y-122603956D01*
X165275046Y-122578412D01*
X165279637Y-122569092D01*
X165280138Y-122558718D01*
X165295062Y-122537786D01*
X165306424Y-122514726D01*
X165319717Y-122503207D01*
X165321355Y-122500910D01*
X165323235Y-122500158D01*
X165326067Y-122497704D01*
X165406604Y-122417167D01*
X165406606Y-122417165D01*
X165451985Y-122314391D01*
X165454900Y-122289265D01*
X165454899Y-121640736D01*
X165451985Y-121615609D01*
X165406606Y-121512835D01*
X165406606Y-121512834D01*
X165354367Y-121460595D01*
X165320341Y-121398283D01*
X165325406Y-121327468D01*
X165367953Y-121270632D01*
X165434473Y-121245821D01*
X165443462Y-121245500D01*
X166243176Y-121245500D01*
X166311297Y-121265502D01*
X166332271Y-121282404D01*
X166627878Y-121578010D01*
X166627879Y-121578011D01*
X166627881Y-121578012D01*
X166677332Y-121606562D01*
X166688455Y-121612984D01*
X166753407Y-121650484D01*
X166893417Y-121688000D01*
X166893418Y-121688000D01*
X167002014Y-121688000D01*
X167070135Y-121708002D01*
X167102411Y-121737866D01*
X167182077Y-121842922D01*
X167302654Y-121934358D01*
X167302658Y-121934361D01*
X167443435Y-121989877D01*
X167443434Y-121989877D01*
X167471394Y-121993234D01*
X167531898Y-122000500D01*
X167531901Y-122000500D01*
X168868099Y-122000500D01*
X168868102Y-122000500D01*
X168956564Y-121989877D01*
X169097342Y-121934361D01*
X169217922Y-121842922D01*
X169309361Y-121722342D01*
X169364877Y-121581564D01*
X169375500Y-121493102D01*
X169375500Y-120781898D01*
X169364877Y-120693436D01*
X169364843Y-120693351D01*
X169309361Y-120552658D01*
X169309358Y-120552654D01*
X169217922Y-120432077D01*
X169145156Y-120376897D01*
X169102963Y-120319798D01*
X169098338Y-120248952D01*
X169132750Y-120186853D01*
X169195272Y-120153215D01*
X169221290Y-120150500D01*
X171323500Y-120150500D01*
X171391621Y-120170502D01*
X171438114Y-120224158D01*
X171449500Y-120276500D01*
X171449500Y-122072474D01*
X171452746Y-122084587D01*
X171452747Y-122084594D01*
X171487016Y-122212486D01*
X171559487Y-122338011D01*
X171559495Y-122338021D01*
X174661979Y-125440504D01*
X174661983Y-125440507D01*
X174661986Y-125440510D01*
X174787515Y-125512984D01*
X174927525Y-125550500D01*
X174927526Y-125550500D01*
X174927528Y-125550500D01*
X180572472Y-125550500D01*
X180572474Y-125550500D01*
X180572475Y-125550500D01*
X180712485Y-125512984D01*
X180838015Y-125440510D01*
X182440510Y-123838015D01*
X182512984Y-123712485D01*
X182514481Y-123706898D01*
X182523327Y-123673887D01*
X182537865Y-123619629D01*
X182550500Y-123572475D01*
X182550500Y-112427525D01*
X182512984Y-112287515D01*
X182509044Y-112280691D01*
X182440510Y-112161985D01*
X182440507Y-112161982D01*
X182440504Y-112161978D01*
X181167620Y-110889095D01*
X181133595Y-110826783D01*
X181138659Y-110755968D01*
X181167618Y-110710906D01*
X181840510Y-110038015D01*
X181912984Y-109912485D01*
X181950500Y-109772474D01*
X181950500Y-109627526D01*
X181950500Y-109517394D01*
X194756500Y-109517394D01*
X194756500Y-109744606D01*
X194792043Y-109969020D01*
X194792044Y-109969024D01*
X194862254Y-110185108D01*
X194862255Y-110185111D01*
X194862256Y-110185112D01*
X194964641Y-110386054D01*
X194965410Y-110387562D01*
X195098961Y-110571379D01*
X195259620Y-110732038D01*
X195264377Y-110735494D01*
X195443441Y-110865592D01*
X195645888Y-110968744D01*
X195861980Y-111038957D01*
X196086394Y-111074500D01*
X196086396Y-111074500D01*
X196313604Y-111074500D01*
X196313606Y-111074500D01*
X196538020Y-111038957D01*
X196754112Y-110968744D01*
X196956559Y-110865592D01*
X197140377Y-110732040D01*
X197301040Y-110571377D01*
X197434592Y-110387559D01*
X197537744Y-110185112D01*
X197607957Y-109969020D01*
X197643500Y-109744606D01*
X197643500Y-109517394D01*
X197607957Y-109292980D01*
X197537744Y-109076888D01*
X197434592Y-108874441D01*
X197301040Y-108690623D01*
X197301038Y-108690620D01*
X197140379Y-108529961D01*
X196956562Y-108396410D01*
X196956561Y-108396409D01*
X196956559Y-108396408D01*
X196754112Y-108293256D01*
X196754111Y-108293255D01*
X196754108Y-108293254D01*
X196538024Y-108223044D01*
X196538022Y-108223043D01*
X196538020Y-108223043D01*
X196313606Y-108187500D01*
X196086394Y-108187500D01*
X195861980Y-108223043D01*
X195861978Y-108223043D01*
X195861975Y-108223044D01*
X195645891Y-108293254D01*
X195443437Y-108396410D01*
X195259620Y-108529961D01*
X195098961Y-108690620D01*
X194965410Y-108874437D01*
X194862254Y-109076891D01*
X194792044Y-109292975D01*
X194792043Y-109292978D01*
X194792043Y-109292980D01*
X194756500Y-109517394D01*
X181950500Y-109517394D01*
X181950500Y-109282540D01*
X181970502Y-109214419D01*
X182024158Y-109167926D01*
X182094432Y-109157822D01*
X182127389Y-109167274D01*
X182230008Y-109212585D01*
X182255134Y-109215500D01*
X183144865Y-109215499D01*
X183169992Y-109212585D01*
X183272766Y-109167206D01*
X183312568Y-109127403D01*
X183374877Y-109093380D01*
X183401662Y-109090500D01*
X184719309Y-109090500D01*
X184796552Y-109069801D01*
X184809666Y-109066288D01*
X184809667Y-109066287D01*
X184809673Y-109066286D01*
X184833887Y-109059799D01*
X184936614Y-109000489D01*
X186560489Y-107376614D01*
X186619799Y-107273887D01*
X186633196Y-107223887D01*
X186650500Y-107159309D01*
X186650500Y-103497583D01*
X186670502Y-103429462D01*
X186687405Y-103408488D01*
X186929093Y-103166800D01*
X186956461Y-103151855D01*
X186982690Y-103134999D01*
X186988988Y-103134093D01*
X186991405Y-103132774D01*
X187018188Y-103129895D01*
X187024846Y-103129895D01*
X187092967Y-103149897D01*
X187139460Y-103203553D01*
X187150846Y-103255895D01*
X187150846Y-103321161D01*
X187153700Y-103351595D01*
X187153701Y-103351599D01*
X187198552Y-103479776D01*
X187198554Y-103479780D01*
X187279195Y-103589045D01*
X187388460Y-103669686D01*
X187388464Y-103669688D01*
X187516647Y-103714541D01*
X187547080Y-103717395D01*
X187612210Y-103717395D01*
X187680331Y-103737397D01*
X187726824Y-103791053D01*
X187736928Y-103861327D01*
X187707434Y-103925907D01*
X187701306Y-103932490D01*
X187389513Y-104244283D01*
X187389508Y-104244289D01*
X187330202Y-104347009D01*
X187330202Y-104347010D01*
X187330201Y-104347012D01*
X187330201Y-104347013D01*
X187327980Y-104355301D01*
X187300000Y-104459726D01*
X187299500Y-104461592D01*
X187299500Y-106057053D01*
X187279498Y-106125174D01*
X187274880Y-106131874D01*
X187197206Y-106237118D01*
X187152355Y-106365295D01*
X187152354Y-106365299D01*
X187149500Y-106395733D01*
X187149500Y-107679266D01*
X187152354Y-107709700D01*
X187152355Y-107709704D01*
X187197206Y-107837881D01*
X187197208Y-107837885D01*
X187277849Y-107947150D01*
X187387114Y-108027791D01*
X187387118Y-108027793D01*
X187500351Y-108067415D01*
X187515301Y-108072646D01*
X187545734Y-108075500D01*
X187545736Y-108075500D01*
X187954264Y-108075500D01*
X187954266Y-108075500D01*
X187984699Y-108072646D01*
X188112882Y-108027793D01*
X188137173Y-108009866D01*
X188222150Y-107947150D01*
X188302791Y-107837885D01*
X188302793Y-107837881D01*
X188304246Y-107833730D01*
X188347646Y-107709699D01*
X188349432Y-107690651D01*
X188850000Y-107690651D01*
X188852899Y-107727489D01*
X188898719Y-107885202D01*
X188982314Y-108026552D01*
X188982319Y-108026559D01*
X189098440Y-108142680D01*
X189098447Y-108142685D01*
X189239797Y-108226280D01*
X189397512Y-108272100D01*
X189397508Y-108272100D01*
X189400000Y-108272296D01*
X189900000Y-108272296D01*
X189902489Y-108272100D01*
X190060202Y-108226280D01*
X190201552Y-108142685D01*
X190201559Y-108142680D01*
X190317680Y-108026559D01*
X190317685Y-108026552D01*
X190401280Y-107885202D01*
X190447100Y-107727489D01*
X190449999Y-107690651D01*
X190450000Y-107690649D01*
X190450000Y-107287500D01*
X189900000Y-107287500D01*
X189900000Y-108272296D01*
X189400000Y-108272296D01*
X189400000Y-107287500D01*
X188850000Y-107287500D01*
X188850000Y-107690651D01*
X188349432Y-107690651D01*
X188350500Y-107679266D01*
X188350500Y-106395734D01*
X188347646Y-106365301D01*
X188347644Y-106365295D01*
X188346010Y-106357811D01*
X188347445Y-106357497D01*
X188344253Y-106295059D01*
X188379538Y-106233452D01*
X188442529Y-106200700D01*
X188478570Y-106198891D01*
X188495714Y-106200499D01*
X188495732Y-106200499D01*
X188495734Y-106200500D01*
X188495736Y-106200500D01*
X188728653Y-106200500D01*
X188796774Y-106220502D01*
X188843267Y-106274158D01*
X188852885Y-106341052D01*
X188853405Y-106341093D01*
X188853223Y-106343403D01*
X188853371Y-106344432D01*
X188852929Y-106347138D01*
X188850000Y-106384348D01*
X188850000Y-106787500D01*
X190450000Y-106787500D01*
X190450000Y-106384350D01*
X190449999Y-106384348D01*
X190447100Y-106347510D01*
X190401280Y-106189797D01*
X190317685Y-106048447D01*
X190317680Y-106048440D01*
X190197335Y-105928095D01*
X190163309Y-105865783D01*
X190168374Y-105794968D01*
X190210921Y-105738132D01*
X190277441Y-105713321D01*
X190286430Y-105713000D01*
X194771229Y-105713000D01*
X194839350Y-105733002D01*
X194883495Y-105781795D01*
X194965065Y-105941886D01*
X194965410Y-105942562D01*
X195098961Y-106126379D01*
X195259620Y-106287038D01*
X195344262Y-106348534D01*
X195443441Y-106420592D01*
X195645888Y-106523744D01*
X195861980Y-106593957D01*
X196086394Y-106629500D01*
X196086396Y-106629500D01*
X196313604Y-106629500D01*
X196313606Y-106629500D01*
X196538020Y-106593957D01*
X196754112Y-106523744D01*
X196956559Y-106420592D01*
X197140377Y-106287040D01*
X197301040Y-106126377D01*
X197434592Y-105942559D01*
X197537744Y-105740112D01*
X197607957Y-105524020D01*
X197643500Y-105299606D01*
X197643500Y-105072394D01*
X197607957Y-104847980D01*
X197537744Y-104631888D01*
X197434592Y-104429441D01*
X197311043Y-104259391D01*
X197301038Y-104245620D01*
X197140379Y-104084961D01*
X196956562Y-103951410D01*
X196956561Y-103951409D01*
X196956559Y-103951408D01*
X196754112Y-103848256D01*
X196754111Y-103848255D01*
X196754108Y-103848254D01*
X196538024Y-103778044D01*
X196538022Y-103778043D01*
X196538020Y-103778043D01*
X196313606Y-103742500D01*
X196086394Y-103742500D01*
X195861980Y-103778043D01*
X195861978Y-103778043D01*
X195861975Y-103778044D01*
X195645891Y-103848254D01*
X195443437Y-103951410D01*
X195259620Y-104084961D01*
X195098961Y-104245620D01*
X194965406Y-104429442D01*
X194965406Y-104429443D01*
X194907442Y-104543203D01*
X194858694Y-104594818D01*
X194795176Y-104612000D01*
X189423796Y-104612000D01*
X189355675Y-104591998D01*
X189309182Y-104538342D01*
X189298347Y-104497766D01*
X189297647Y-104490307D01*
X189297646Y-104490304D01*
X189297646Y-104490301D01*
X189252793Y-104362118D01*
X189252791Y-104362114D01*
X189172150Y-104252849D01*
X189062885Y-104172208D01*
X189062881Y-104172206D01*
X189008573Y-104153203D01*
X188991236Y-104140769D01*
X188971495Y-104132678D01*
X188962967Y-104120493D01*
X188950881Y-104111825D01*
X188943018Y-104091990D01*
X188930786Y-104074512D01*
X188930199Y-104059650D01*
X188924719Y-104045825D01*
X188928827Y-104024891D01*
X188927986Y-104003571D01*
X188936445Y-103986075D01*
X188938392Y-103976157D01*
X188941586Y-103970386D01*
X188947255Y-103960748D01*
X188949542Y-103958462D01*
X188999270Y-103872328D01*
X188999477Y-103871978D01*
X189024970Y-103848064D01*
X189050341Y-103823873D01*
X189050868Y-103823771D01*
X189051258Y-103823406D01*
X189085628Y-103817071D01*
X189120055Y-103810436D01*
X189120625Y-103810621D01*
X189121079Y-103810538D01*
X189123818Y-103811660D01*
X189172218Y-103827412D01*
X189241146Y-103868176D01*
X189398858Y-103913995D01*
X189398854Y-103913995D01*
X189401346Y-103914191D01*
X189401346Y-103914190D01*
X189901346Y-103914190D01*
X189903835Y-103913995D01*
X190061548Y-103868175D01*
X190202898Y-103784580D01*
X190202905Y-103784575D01*
X190319026Y-103668454D01*
X190319031Y-103668447D01*
X190402626Y-103527097D01*
X190448446Y-103369384D01*
X190451345Y-103332546D01*
X190451346Y-103332544D01*
X190451346Y-102929395D01*
X189901346Y-102929395D01*
X189901346Y-103914190D01*
X189401346Y-103914190D01*
X189401346Y-102429395D01*
X189901346Y-102429395D01*
X190451346Y-102429395D01*
X190451346Y-102026245D01*
X190451345Y-102026243D01*
X190448446Y-101989405D01*
X190402626Y-101831692D01*
X190319031Y-101690342D01*
X190319026Y-101690335D01*
X190202905Y-101574214D01*
X190202898Y-101574209D01*
X190061548Y-101490614D01*
X189903837Y-101444795D01*
X189903841Y-101444795D01*
X189901346Y-101444598D01*
X189901346Y-102429395D01*
X189401346Y-102429395D01*
X189401346Y-101444597D01*
X189386617Y-101430987D01*
X189368289Y-101427144D01*
X189317713Y-101377318D01*
X189301846Y-101316108D01*
X189301846Y-100893188D01*
X189321848Y-100825067D01*
X189338746Y-100804097D01*
X190060489Y-100082355D01*
X190119799Y-99979628D01*
X190135523Y-99920943D01*
X190150500Y-99865050D01*
X190150500Y-99245612D01*
X190170502Y-99177491D01*
X190176104Y-99169477D01*
X190212162Y-99121928D01*
X190212162Y-99121927D01*
X190212165Y-99121924D01*
X190267681Y-98981146D01*
X190278304Y-98892684D01*
X190278304Y-98722394D01*
X194756500Y-98722394D01*
X194756500Y-98949606D01*
X194792043Y-99174020D01*
X194792044Y-99174024D01*
X194862254Y-99390108D01*
X194862255Y-99390111D01*
X194862256Y-99390112D01*
X194962781Y-99587404D01*
X194965410Y-99592562D01*
X195098961Y-99776379D01*
X195259620Y-99937038D01*
X195259623Y-99937040D01*
X195443441Y-100070592D01*
X195645888Y-100173744D01*
X195861980Y-100243957D01*
X196086394Y-100279500D01*
X196086396Y-100279500D01*
X196313604Y-100279500D01*
X196313606Y-100279500D01*
X196538020Y-100243957D01*
X196754112Y-100173744D01*
X196956559Y-100070592D01*
X197140377Y-99937040D01*
X197301040Y-99776377D01*
X197434592Y-99592559D01*
X197537744Y-99390112D01*
X197607957Y-99174020D01*
X197643500Y-98949606D01*
X197643500Y-98722394D01*
X197607957Y-98497980D01*
X197537744Y-98281888D01*
X197434592Y-98079441D01*
X197301040Y-97895623D01*
X197301038Y-97895620D01*
X197140379Y-97734961D01*
X196956562Y-97601410D01*
X196956561Y-97601409D01*
X196956559Y-97601408D01*
X196754112Y-97498256D01*
X196754111Y-97498255D01*
X196754108Y-97498254D01*
X196538024Y-97428044D01*
X196538022Y-97428043D01*
X196538020Y-97428043D01*
X196313606Y-97392500D01*
X196086394Y-97392500D01*
X195861980Y-97428043D01*
X195861978Y-97428043D01*
X195861975Y-97428044D01*
X195645891Y-97498254D01*
X195443437Y-97601410D01*
X195259620Y-97734961D01*
X195098961Y-97895620D01*
X194965410Y-98079437D01*
X194862254Y-98281891D01*
X194792044Y-98497975D01*
X194792043Y-98497978D01*
X194792043Y-98497980D01*
X194756500Y-98722394D01*
X190278304Y-98722394D01*
X190278304Y-97906480D01*
X190267681Y-97818018D01*
X190234927Y-97734961D01*
X190212165Y-97677240D01*
X190212162Y-97677236D01*
X190120726Y-97556659D01*
X190000149Y-97465223D01*
X190000145Y-97465220D01*
X189859368Y-97409704D01*
X189859369Y-97409704D01*
X189770909Y-97399082D01*
X189770906Y-97399082D01*
X189159702Y-97399082D01*
X189159698Y-97399082D01*
X189071239Y-97409704D01*
X188930462Y-97465220D01*
X188930458Y-97465223D01*
X188809881Y-97556659D01*
X188718445Y-97677236D01*
X188718442Y-97677240D01*
X188670019Y-97800033D01*
X188626421Y-97856066D01*
X188559450Y-97879634D01*
X188490369Y-97863252D01*
X188441111Y-97812124D01*
X188435589Y-97800033D01*
X188387165Y-97677240D01*
X188387162Y-97677236D01*
X188295726Y-97556660D01*
X188240670Y-97514909D01*
X188198477Y-97457810D01*
X188190804Y-97414512D01*
X188190804Y-92384662D01*
X188207685Y-92321662D01*
X188212984Y-92312485D01*
X188250500Y-92172474D01*
X188250500Y-92027526D01*
X188212984Y-91887515D01*
X188212982Y-91887512D01*
X188212982Y-91887510D01*
X188140512Y-91761988D01*
X188140508Y-91761983D01*
X188038015Y-91659490D01*
X187538015Y-91159490D01*
X187538013Y-91159489D01*
X187538011Y-91159487D01*
X187412490Y-91087018D01*
X187412487Y-91087017D01*
X187412485Y-91087016D01*
X187272475Y-91049500D01*
X187272472Y-91049500D01*
X167980215Y-91049500D01*
X167912094Y-91029498D01*
X167891120Y-91012595D01*
X166787405Y-89908880D01*
X166753379Y-89846568D01*
X166750500Y-89819785D01*
X166750500Y-88027526D01*
X166743413Y-88001076D01*
X166712984Y-87887515D01*
X166640509Y-87761985D01*
X166538015Y-87659491D01*
X165538015Y-86659490D01*
X165538013Y-86659489D01*
X165538011Y-86659487D01*
X165412490Y-86587018D01*
X165412487Y-86587017D01*
X165412485Y-86587016D01*
X165272475Y-86549500D01*
X165272472Y-86549500D01*
X159633732Y-86549500D01*
X159565611Y-86529498D01*
X159544641Y-86512599D01*
X159452926Y-86420884D01*
X159428604Y-86399036D01*
X159428600Y-86399033D01*
X159428590Y-86399024D01*
X159407651Y-86382149D01*
X159402078Y-86377763D01*
X159402077Y-86377762D01*
X159302000Y-86326877D01*
X159301997Y-86326876D01*
X159233887Y-86306877D01*
X159233866Y-86306872D01*
X159147816Y-86294500D01*
X159147810Y-86294500D01*
X137794844Y-86294500D01*
X137726723Y-86274498D01*
X137680230Y-86220842D01*
X137669232Y-86158614D01*
X137671481Y-86130033D01*
X137128993Y-85587545D01*
X137266704Y-85495531D01*
X137390531Y-85371704D01*
X137482545Y-85233993D01*
X138025033Y-85776481D01*
X138025034Y-85776481D01*
X138105218Y-85666118D01*
X138222625Y-85435694D01*
X138222628Y-85435688D01*
X138302541Y-85189741D01*
X138343000Y-84934303D01*
X138343000Y-84675696D01*
X138302541Y-84420258D01*
X138222628Y-84174311D01*
X138222625Y-84174305D01*
X138105216Y-83943877D01*
X138025035Y-83833517D01*
X138025033Y-83833517D01*
X137482545Y-84376005D01*
X137390531Y-84238296D01*
X137266704Y-84114469D01*
X137128992Y-84022453D01*
X137671481Y-83479965D01*
X137671481Y-83479963D01*
X137561122Y-83399783D01*
X137330694Y-83282374D01*
X137330688Y-83282371D01*
X137084741Y-83202458D01*
X136829304Y-83162000D01*
X136570696Y-83162000D01*
X136315258Y-83202458D01*
X136069311Y-83282371D01*
X136069305Y-83282374D01*
X135838882Y-83399780D01*
X135838881Y-83399781D01*
X135728517Y-83479964D01*
X135728517Y-83479965D01*
X136271006Y-84022453D01*
X136133296Y-84114469D01*
X136009469Y-84238296D01*
X135917454Y-84376006D01*
X135374965Y-83833517D01*
X135374964Y-83833517D01*
X135294781Y-83943881D01*
X135294780Y-83943882D01*
X135177374Y-84174305D01*
X135177371Y-84174311D01*
X135097458Y-84420258D01*
X135057000Y-84675696D01*
X135057000Y-84934303D01*
X135097458Y-85189741D01*
X135177371Y-85435688D01*
X135177374Y-85435694D01*
X135294783Y-85666122D01*
X135374963Y-85776481D01*
X135374965Y-85776481D01*
X135917453Y-85233992D01*
X136009469Y-85371704D01*
X136133296Y-85495531D01*
X136271005Y-85587545D01*
X135728517Y-86130033D01*
X135730767Y-86158614D01*
X135716171Y-86228094D01*
X135666329Y-86278653D01*
X135605155Y-86294500D01*
X135252179Y-86294500D01*
X135219556Y-86296248D01*
X135219508Y-86296252D01*
X135192730Y-86299131D01*
X135185746Y-86299963D01*
X135185742Y-86299964D01*
X135078990Y-86334750D01*
X135016682Y-86368775D01*
X134947075Y-86420882D01*
X134947066Y-86420890D01*
X134520898Y-86847058D01*
X134499038Y-86871393D01*
X134499024Y-86871409D01*
X134482149Y-86892348D01*
X134477763Y-86897921D01*
X134477762Y-86897923D01*
X134426876Y-86998002D01*
X134406877Y-87066112D01*
X134406872Y-87066133D01*
X134394500Y-87152183D01*
X134394500Y-92570255D01*
X134402673Y-92640454D01*
X134415972Y-92696786D01*
X134415975Y-92696797D01*
X134440052Y-92763223D01*
X134641924Y-93166969D01*
X134687850Y-93234441D01*
X134687856Y-93234449D01*
X134732433Y-93284098D01*
X134732436Y-93284101D01*
X134773600Y-93322234D01*
X134773608Y-93322240D01*
X134805812Y-93338614D01*
X134873682Y-93373123D01*
X134941803Y-93393125D01*
X134941812Y-93393126D01*
X134941815Y-93393127D01*
X135027865Y-93405499D01*
X135027870Y-93405500D01*
X135027872Y-93405500D01*
X148147821Y-93405500D01*
X148164141Y-93404624D01*
X148180472Y-93403749D01*
X148207255Y-93400869D01*
X148214257Y-93400034D01*
X148321004Y-93365251D01*
X148383316Y-93331226D01*
X148452926Y-93279116D01*
X149732062Y-91999978D01*
X151025001Y-91999978D01*
X151035493Y-92102691D01*
X151090642Y-92269122D01*
X151182683Y-92418344D01*
X151182688Y-92418350D01*
X151306649Y-92542311D01*
X151306655Y-92542316D01*
X151455877Y-92634357D01*
X151622308Y-92689506D01*
X151725012Y-92699999D01*
X152000000Y-92699999D01*
X152500000Y-92699999D01*
X152774978Y-92699999D01*
X152877691Y-92689506D01*
X153044122Y-92634357D01*
X153140335Y-92575012D01*
X160750000Y-92575012D01*
X160750000Y-92850000D01*
X161500000Y-92850000D01*
X161500000Y-91875000D01*
X161499999Y-91874999D01*
X161450021Y-91875000D01*
X161347308Y-91885493D01*
X161180877Y-91940642D01*
X161031655Y-92032683D01*
X161031649Y-92032688D01*
X160907688Y-92156649D01*
X160907683Y-92156655D01*
X160815642Y-92305877D01*
X160760493Y-92472308D01*
X160750000Y-92575012D01*
X153140335Y-92575012D01*
X153193344Y-92542316D01*
X153193350Y-92542311D01*
X153252944Y-92482718D01*
X153317311Y-92418350D01*
X153317316Y-92418344D01*
X153409357Y-92269122D01*
X153464506Y-92102691D01*
X153474999Y-91999987D01*
X153475000Y-91999987D01*
X153475000Y-91950000D01*
X152500000Y-91950000D01*
X152500000Y-92699999D01*
X152000000Y-92699999D01*
X152000000Y-91950000D01*
X151025001Y-91950000D01*
X151025001Y-91999978D01*
X149732062Y-91999978D01*
X150789636Y-90942403D01*
X150817002Y-90927460D01*
X150843232Y-90910604D01*
X150849533Y-90909697D01*
X150851947Y-90908380D01*
X150878730Y-90905500D01*
X151003899Y-90905500D01*
X151072020Y-90925502D01*
X151118513Y-90979158D01*
X151128617Y-91049432D01*
X151111139Y-91097647D01*
X151090643Y-91130874D01*
X151035493Y-91297308D01*
X151025000Y-91400012D01*
X151025000Y-91450000D01*
X153474999Y-91450000D01*
X153474999Y-91400021D01*
X153464506Y-91297308D01*
X153409356Y-91130874D01*
X153388861Y-91097647D01*
X153370123Y-91029168D01*
X153391382Y-90961429D01*
X153445889Y-90915937D01*
X153496101Y-90905500D01*
X159147821Y-90905500D01*
X159147821Y-90905499D01*
X159177862Y-90903889D01*
X159180443Y-90903751D01*
X159180444Y-90903750D01*
X159180461Y-90903750D01*
X159180481Y-90903747D01*
X159180491Y-90903747D01*
X159191691Y-90902542D01*
X159207244Y-90900871D01*
X159214261Y-90900035D01*
X159321007Y-90865250D01*
X159383319Y-90831224D01*
X159452926Y-90779116D01*
X159879116Y-90352926D01*
X159900964Y-90328604D01*
X159917867Y-90307630D01*
X159922238Y-90302077D01*
X159973123Y-90202000D01*
X159993125Y-90133879D01*
X160005500Y-90047810D01*
X160005500Y-89806047D01*
X160025502Y-89737926D01*
X160079158Y-89691433D01*
X160149432Y-89681329D01*
X160214012Y-89710823D01*
X160233437Y-89731988D01*
X160242282Y-89744162D01*
X160812721Y-89173723D01*
X160837626Y-89266669D01*
X160894474Y-89365131D01*
X160974869Y-89445526D01*
X161073331Y-89502374D01*
X161166274Y-89527277D01*
X160595836Y-90097715D01*
X160595836Y-90097717D01*
X160618501Y-90114184D01*
X160784812Y-90198924D01*
X160962320Y-90256600D01*
X161146678Y-90285800D01*
X161333322Y-90285800D01*
X161517679Y-90256600D01*
X161695187Y-90198924D01*
X161861497Y-90114185D01*
X161884162Y-90097717D01*
X161313724Y-89527277D01*
X161406669Y-89502374D01*
X161505131Y-89445526D01*
X161585526Y-89365131D01*
X161642374Y-89266669D01*
X161667278Y-89173724D01*
X162237717Y-89744162D01*
X162254185Y-89721497D01*
X162338924Y-89555187D01*
X162396600Y-89377679D01*
X162425800Y-89193321D01*
X162425800Y-89006678D01*
X162396600Y-88822320D01*
X162338924Y-88644812D01*
X162254184Y-88478501D01*
X162237717Y-88455836D01*
X162237715Y-88455836D01*
X161667277Y-89026274D01*
X161642374Y-88933331D01*
X161585526Y-88834869D01*
X161505131Y-88754474D01*
X161406669Y-88697626D01*
X161313723Y-88672721D01*
X161884162Y-88102282D01*
X161861494Y-88085813D01*
X161861493Y-88085812D01*
X161695187Y-88001075D01*
X161517679Y-87943399D01*
X161333322Y-87914200D01*
X161146678Y-87914200D01*
X160962320Y-87943399D01*
X160784809Y-88001076D01*
X160618512Y-88085808D01*
X160618501Y-88085815D01*
X160595835Y-88102282D01*
X161166275Y-88672722D01*
X161073331Y-88697626D01*
X160974869Y-88754474D01*
X160894474Y-88834869D01*
X160837626Y-88933331D01*
X160812722Y-89026275D01*
X160242282Y-88455835D01*
X160233438Y-88468010D01*
X160208060Y-88487579D01*
X160183842Y-88508565D01*
X160180160Y-88509094D01*
X160177216Y-88511365D01*
X160145293Y-88514107D01*
X160113568Y-88518669D01*
X160110184Y-88517123D01*
X160106480Y-88517442D01*
X160078132Y-88502485D01*
X160048988Y-88489175D01*
X160046978Y-88486048D01*
X160043688Y-88484312D01*
X160027925Y-88456400D01*
X160010604Y-88429449D01*
X160009886Y-88424460D01*
X160008775Y-88422492D01*
X160005500Y-88393951D01*
X160005500Y-87776500D01*
X160025502Y-87708379D01*
X160079158Y-87661886D01*
X160131500Y-87650500D01*
X164919784Y-87650500D01*
X164987905Y-87670502D01*
X165008879Y-87687404D01*
X165612595Y-88291119D01*
X165646620Y-88353432D01*
X165649500Y-88380215D01*
X165649500Y-90172476D01*
X165660793Y-90214620D01*
X165660793Y-90214622D01*
X165660794Y-90214622D01*
X165660794Y-90214623D01*
X165687016Y-90312485D01*
X165687017Y-90312487D01*
X165687018Y-90312490D01*
X165759487Y-90438011D01*
X165759495Y-90438021D01*
X167361978Y-92040504D01*
X167361983Y-92040508D01*
X167361985Y-92040510D01*
X167361986Y-92040511D01*
X167361988Y-92040512D01*
X167487509Y-92112981D01*
X167487510Y-92112981D01*
X167487515Y-92112984D01*
X167627525Y-92150500D01*
X186919785Y-92150500D01*
X186949700Y-92159283D01*
X186980170Y-92165912D01*
X186985265Y-92169726D01*
X186987906Y-92170502D01*
X187008880Y-92187405D01*
X187052899Y-92231424D01*
X187086925Y-92293736D01*
X187089804Y-92320519D01*
X187089804Y-97414512D01*
X187069802Y-97482633D01*
X187039938Y-97514909D01*
X186984881Y-97556660D01*
X186893445Y-97677236D01*
X186893442Y-97677240D01*
X186837926Y-97818017D01*
X186827304Y-97906476D01*
X186827304Y-98892687D01*
X186837926Y-98981146D01*
X186893442Y-99121923D01*
X186893445Y-99121927D01*
X186984881Y-99242504D01*
X187105458Y-99333940D01*
X187105462Y-99333943D01*
X187246239Y-99389459D01*
X187246238Y-99389459D01*
X187274198Y-99392816D01*
X187334702Y-99400082D01*
X187334705Y-99400082D01*
X187945903Y-99400082D01*
X187945906Y-99400082D01*
X188034368Y-99389459D01*
X188175146Y-99333943D01*
X188295726Y-99242504D01*
X188387165Y-99121924D01*
X188435589Y-98999130D01*
X188479187Y-98943097D01*
X188546158Y-98919529D01*
X188615239Y-98935910D01*
X188664497Y-98987039D01*
X188670019Y-98999130D01*
X188718442Y-99121923D01*
X188718445Y-99121927D01*
X188809881Y-99242504D01*
X188930458Y-99333940D01*
X188930462Y-99333943D01*
X189071239Y-99389459D01*
X189084934Y-99391103D01*
X189138522Y-99397538D01*
X189139920Y-99398138D01*
X189141432Y-99397921D01*
X189172445Y-99412085D01*
X189203772Y-99425518D01*
X189204626Y-99426782D01*
X189206012Y-99427415D01*
X189224431Y-99456075D01*
X189243536Y-99484334D01*
X189243837Y-99486272D01*
X189244396Y-99487141D01*
X189249500Y-99522639D01*
X189249500Y-99566946D01*
X189229498Y-99635067D01*
X189212595Y-99656042D01*
X189113029Y-99755607D01*
X189050717Y-99789632D01*
X188982320Y-99785441D01*
X188936045Y-99769249D01*
X188905612Y-99766395D01*
X188497080Y-99766395D01*
X188497079Y-99766395D01*
X188466645Y-99769249D01*
X188466641Y-99769250D01*
X188338464Y-99814101D01*
X188338460Y-99814103D01*
X188229195Y-99894744D01*
X188148554Y-100004009D01*
X188148552Y-100004013D01*
X188103701Y-100132190D01*
X188103700Y-100132194D01*
X188100846Y-100162628D01*
X188100846Y-101446161D01*
X188103700Y-101476597D01*
X188105335Y-101484079D01*
X188103901Y-101484392D01*
X188107091Y-101546840D01*
X188071804Y-101608446D01*
X188008812Y-101641195D01*
X187972782Y-101643004D01*
X187955624Y-101641395D01*
X187955612Y-101641395D01*
X187547080Y-101641395D01*
X187547079Y-101641395D01*
X187516645Y-101644249D01*
X187516641Y-101644250D01*
X187388464Y-101689101D01*
X187388460Y-101689103D01*
X187279195Y-101769744D01*
X187198554Y-101879009D01*
X187198552Y-101879013D01*
X187153701Y-102007190D01*
X187153700Y-102007194D01*
X187150846Y-102037628D01*
X187150846Y-102102895D01*
X187130844Y-102171016D01*
X187077188Y-102217509D01*
X187024846Y-102228895D01*
X186720085Y-102228895D01*
X186629720Y-102253108D01*
X186629719Y-102253107D01*
X186605509Y-102259595D01*
X186502784Y-102318903D01*
X186502774Y-102318911D01*
X185839516Y-102982169D01*
X185839508Y-102982179D01*
X185780201Y-103084901D01*
X185779329Y-103088153D01*
X185778255Y-103092165D01*
X185755704Y-103176327D01*
X185749500Y-103199482D01*
X185749500Y-106861207D01*
X185729498Y-106929328D01*
X185712595Y-106950302D01*
X184510302Y-108152595D01*
X184447990Y-108186621D01*
X184421207Y-108189500D01*
X183401662Y-108189500D01*
X183333541Y-108169498D01*
X183312571Y-108152599D01*
X183272766Y-108112794D01*
X183272765Y-108112793D01*
X183169990Y-108067414D01*
X183169991Y-108067414D01*
X183144871Y-108064500D01*
X182458214Y-108064500D01*
X182390093Y-108044498D01*
X182343600Y-107990842D01*
X182333496Y-107920568D01*
X182362990Y-107855988D01*
X182369097Y-107849426D01*
X182866120Y-107352403D01*
X182928432Y-107318379D01*
X182955215Y-107315500D01*
X183144861Y-107315500D01*
X183144865Y-107315500D01*
X183169992Y-107312586D01*
X183272766Y-107267207D01*
X183352207Y-107187766D01*
X183397586Y-107084992D01*
X183400501Y-107059866D01*
X183400500Y-106420137D01*
X183397586Y-106395010D01*
X183374173Y-106341985D01*
X183352207Y-106292235D01*
X183287405Y-106227433D01*
X183272460Y-106200064D01*
X183255604Y-106173836D01*
X183254698Y-106167537D01*
X183253379Y-106165121D01*
X183250500Y-106138338D01*
X183250500Y-106056500D01*
X183270502Y-105988379D01*
X183324158Y-105941886D01*
X183376500Y-105930500D01*
X184492472Y-105930500D01*
X184492474Y-105930500D01*
X184492475Y-105930500D01*
X184632485Y-105892984D01*
X184651602Y-105881947D01*
X184660838Y-105876615D01*
X184716943Y-105844222D01*
X184758015Y-105820510D01*
X185140510Y-105438015D01*
X185206690Y-105323386D01*
X185212983Y-105312487D01*
X185229065Y-105252473D01*
X185235983Y-105226650D01*
X185250500Y-105172475D01*
X185250500Y-95727525D01*
X185212984Y-95587515D01*
X185146780Y-95472847D01*
X185140511Y-95461988D01*
X185140507Y-95461983D01*
X185091508Y-95412984D01*
X185038015Y-95359491D01*
X184521961Y-94843437D01*
X182338021Y-92659495D01*
X182338011Y-92659487D01*
X182212490Y-92587018D01*
X182212487Y-92587017D01*
X182212485Y-92587016D01*
X182072475Y-92549500D01*
X182072472Y-92549500D01*
X164547741Y-92549500D01*
X164479620Y-92529498D01*
X164433127Y-92475842D01*
X164430526Y-92469724D01*
X164384361Y-92352658D01*
X164384358Y-92352654D01*
X164292923Y-92232079D01*
X164292059Y-92231424D01*
X164282049Y-92223832D01*
X164250364Y-92199804D01*
X164208172Y-92142704D01*
X164200500Y-92099408D01*
X164200500Y-90072591D01*
X164220502Y-90004470D01*
X164256498Y-89967826D01*
X164408729Y-89866109D01*
X164546109Y-89728729D01*
X164654047Y-89567188D01*
X164728397Y-89387693D01*
X164766300Y-89197142D01*
X164766300Y-89002858D01*
X164728397Y-88812307D01*
X164654047Y-88632812D01*
X164546109Y-88471271D01*
X164408729Y-88333891D01*
X164247188Y-88225953D01*
X164067694Y-88151603D01*
X163877144Y-88113700D01*
X163877142Y-88113700D01*
X163682858Y-88113700D01*
X163682855Y-88113700D01*
X163492305Y-88151603D01*
X163492304Y-88151604D01*
X163312810Y-88225954D01*
X163151275Y-88333888D01*
X163151268Y-88333893D01*
X163013893Y-88471268D01*
X163013888Y-88471275D01*
X162982221Y-88518669D01*
X162905953Y-88632812D01*
X162891295Y-88668200D01*
X162831604Y-88812304D01*
X162831603Y-88812305D01*
X162793700Y-89002855D01*
X162793700Y-89197144D01*
X162827115Y-89365131D01*
X162831603Y-89387693D01*
X162905953Y-89567188D01*
X163013891Y-89728729D01*
X163013893Y-89728731D01*
X163062595Y-89777433D01*
X163096621Y-89839745D01*
X163099500Y-89866528D01*
X163099500Y-92099408D01*
X163079498Y-92167529D01*
X163067728Y-92183056D01*
X163059500Y-92192323D01*
X163007078Y-92232078D01*
X162915639Y-92352658D01*
X162914415Y-92355759D01*
X162904016Y-92367475D01*
X162884845Y-92379472D01*
X162868631Y-92395243D01*
X162855334Y-92397942D01*
X162843834Y-92405140D01*
X162821219Y-92404868D01*
X162799054Y-92409369D01*
X162786409Y-92404451D01*
X162772843Y-92404289D01*
X162753962Y-92391833D01*
X162732885Y-92383636D01*
X162724906Y-92372664D01*
X162713581Y-92365192D01*
X162704432Y-92344505D01*
X162691132Y-92326215D01*
X162690183Y-92323458D01*
X162684358Y-92305879D01*
X162592316Y-92156655D01*
X162592311Y-92156649D01*
X162468350Y-92032688D01*
X162468344Y-92032683D01*
X162319122Y-91940642D01*
X162152691Y-91885493D01*
X162049987Y-91875000D01*
X162000000Y-91875000D01*
X162000000Y-92974000D01*
X161979998Y-93042121D01*
X161926342Y-93088614D01*
X161874000Y-93100000D01*
X161750000Y-93100000D01*
X161750000Y-93224000D01*
X161729998Y-93292121D01*
X161676342Y-93338614D01*
X161624000Y-93350000D01*
X160750001Y-93350000D01*
X160750001Y-93624978D01*
X160760493Y-93727691D01*
X160815642Y-93894122D01*
X160907683Y-94043344D01*
X160907688Y-94043350D01*
X160998743Y-94134405D01*
X161032769Y-94196717D01*
X161027704Y-94267532D01*
X160985157Y-94324368D01*
X160918637Y-94349179D01*
X160909648Y-94349500D01*
X155427525Y-94349500D01*
X155287515Y-94387016D01*
X155287513Y-94387016D01*
X155287509Y-94387018D01*
X155161988Y-94459487D01*
X155161978Y-94459495D01*
X148859496Y-100761977D01*
X148859489Y-100761987D01*
X148803301Y-100859308D01*
X148787018Y-100887509D01*
X148787015Y-100887516D01*
X148749500Y-101027526D01*
X148749500Y-103108206D01*
X148729498Y-103176327D01*
X148675842Y-103222820D01*
X148605568Y-103232924D01*
X148540988Y-103203430D01*
X148534405Y-103197301D01*
X142576620Y-97239516D01*
X142576610Y-97239508D01*
X142473891Y-97180203D01*
X142473889Y-97180202D01*
X142473887Y-97180201D01*
X142473880Y-97180199D01*
X142449673Y-97173712D01*
X142449673Y-97173713D01*
X142359309Y-97149500D01*
X137363345Y-97149500D01*
X137295224Y-97129498D01*
X137248731Y-97075842D01*
X137238627Y-97005568D01*
X137268121Y-96940988D01*
X137306140Y-96911234D01*
X137456559Y-96834592D01*
X137640377Y-96701040D01*
X137801040Y-96540377D01*
X137934592Y-96356559D01*
X138037744Y-96154112D01*
X138107957Y-95938020D01*
X138143500Y-95713606D01*
X138143500Y-95486394D01*
X138107957Y-95261980D01*
X138037744Y-95045888D01*
X137934592Y-94843441D01*
X137801040Y-94659623D01*
X137801038Y-94659620D01*
X137640379Y-94498961D01*
X137456562Y-94365410D01*
X137456561Y-94365409D01*
X137456559Y-94365408D01*
X137254112Y-94262256D01*
X137254111Y-94262255D01*
X137254108Y-94262254D01*
X137038024Y-94192044D01*
X137038022Y-94192043D01*
X137038020Y-94192043D01*
X136813606Y-94156500D01*
X136586394Y-94156500D01*
X136361980Y-94192043D01*
X136361978Y-94192043D01*
X136361975Y-94192044D01*
X136145891Y-94262254D01*
X135943437Y-94365410D01*
X135759620Y-94498961D01*
X135598961Y-94659620D01*
X135465410Y-94843437D01*
X135362254Y-95045891D01*
X135292044Y-95261975D01*
X135292043Y-95261978D01*
X135292043Y-95261980D01*
X135256500Y-95486394D01*
X135256500Y-95713606D01*
X135260603Y-95739511D01*
X135292044Y-95938024D01*
X135362254Y-96154108D01*
X135465410Y-96356562D01*
X135598961Y-96540379D01*
X135759620Y-96701038D01*
X135759623Y-96701040D01*
X135943441Y-96834592D01*
X136093858Y-96911233D01*
X136145473Y-96959981D01*
X136162539Y-97028896D01*
X136139638Y-97096098D01*
X136084041Y-97140250D01*
X136036655Y-97149500D01*
X126440691Y-97149500D01*
X126326114Y-97180201D01*
X126326113Y-97180201D01*
X126326111Y-97180202D01*
X126282696Y-97205268D01*
X126223389Y-97239508D01*
X126223379Y-97239516D01*
X122939516Y-100523379D01*
X122939508Y-100523389D01*
X122880202Y-100626109D01*
X122880202Y-100626110D01*
X122880201Y-100626112D01*
X122880201Y-100626113D01*
X122878729Y-100631606D01*
X122849500Y-100740691D01*
X121200500Y-100740691D01*
X121200500Y-78103805D01*
X121200730Y-78096198D01*
X121200940Y-78092712D01*
X121206928Y-77993713D01*
X122349500Y-77993713D01*
X122349500Y-78206287D01*
X122382754Y-78416243D01*
X122448443Y-78618412D01*
X122544949Y-78807816D01*
X122669896Y-78979792D01*
X122669898Y-78979794D01*
X122669900Y-78979797D01*
X122820202Y-79130099D01*
X122820205Y-79130101D01*
X122820208Y-79130104D01*
X122992184Y-79255051D01*
X123181588Y-79351557D01*
X123383757Y-79417246D01*
X123593713Y-79450500D01*
X123593716Y-79450500D01*
X123806284Y-79450500D01*
X123806287Y-79450500D01*
X124016243Y-79417246D01*
X124218412Y-79351557D01*
X124407816Y-79255051D01*
X124579792Y-79130104D01*
X124730104Y-78979792D01*
X124855051Y-78807816D01*
X124951557Y-78618412D01*
X125017246Y-78416243D01*
X125050500Y-78206287D01*
X125050500Y-77993713D01*
X197349500Y-77993713D01*
X197349500Y-78206287D01*
X197382754Y-78416243D01*
X197448443Y-78618412D01*
X197544949Y-78807816D01*
X197669896Y-78979792D01*
X197669898Y-78979794D01*
X197669900Y-78979797D01*
X197820202Y-79130099D01*
X197820205Y-79130101D01*
X197820208Y-79130104D01*
X197992184Y-79255051D01*
X198181588Y-79351557D01*
X198383757Y-79417246D01*
X198593713Y-79450500D01*
X198593716Y-79450500D01*
X198806284Y-79450500D01*
X198806287Y-79450500D01*
X199016243Y-79417246D01*
X199218412Y-79351557D01*
X199407816Y-79255051D01*
X199579792Y-79130104D01*
X199730104Y-78979792D01*
X199855051Y-78807816D01*
X199951557Y-78618412D01*
X200017246Y-78416243D01*
X200050500Y-78206287D01*
X200050500Y-77993713D01*
X200017246Y-77783757D01*
X199951557Y-77581588D01*
X199855051Y-77392184D01*
X199730104Y-77220208D01*
X199730101Y-77220205D01*
X199730099Y-77220202D01*
X199579797Y-77069900D01*
X199579794Y-77069898D01*
X199579792Y-77069896D01*
X199450334Y-76975840D01*
X199407819Y-76944951D01*
X199407818Y-76944950D01*
X199407816Y-76944949D01*
X199218412Y-76848443D01*
X199016243Y-76782754D01*
X198806287Y-76749500D01*
X198593713Y-76749500D01*
X198383757Y-76782754D01*
X198383754Y-76782754D01*
X198383753Y-76782755D01*
X198181588Y-76848443D01*
X198181586Y-76848444D01*
X197992180Y-76944951D01*
X197820205Y-77069898D01*
X197820202Y-77069900D01*
X197669900Y-77220202D01*
X197669898Y-77220205D01*
X197544951Y-77392180D01*
X197544949Y-77392184D01*
X197448443Y-77581588D01*
X197382754Y-77783757D01*
X197349500Y-77993713D01*
X125050500Y-77993713D01*
X125017246Y-77783757D01*
X124951557Y-77581588D01*
X124855051Y-77392184D01*
X124730104Y-77220208D01*
X124730101Y-77220205D01*
X124730099Y-77220202D01*
X124579797Y-77069900D01*
X124579794Y-77069898D01*
X124579792Y-77069896D01*
X124450334Y-76975840D01*
X124407819Y-76944951D01*
X124407818Y-76944950D01*
X124407816Y-76944949D01*
X124218412Y-76848443D01*
X124016243Y-76782754D01*
X123806287Y-76749500D01*
X123593713Y-76749500D01*
X123383757Y-76782754D01*
X123383754Y-76782754D01*
X123383753Y-76782755D01*
X123181588Y-76848443D01*
X123181586Y-76848444D01*
X122992180Y-76944951D01*
X122820205Y-77069898D01*
X122820202Y-77069900D01*
X122669900Y-77220202D01*
X122669898Y-77220205D01*
X122544951Y-77392180D01*
X122544949Y-77392184D01*
X122448443Y-77581588D01*
X122382754Y-77783757D01*
X122349500Y-77993713D01*
X121206928Y-77993713D01*
X121218264Y-77806311D01*
X121220095Y-77791236D01*
X121271759Y-77509313D01*
X121275392Y-77494573D01*
X121360665Y-77220922D01*
X121366052Y-77206721D01*
X121483678Y-76945366D01*
X121490736Y-76931916D01*
X121639021Y-76686624D01*
X121647637Y-76674140D01*
X121824411Y-76448505D01*
X121834479Y-76437142D01*
X122037142Y-76234479D01*
X122048505Y-76224411D01*
X122274140Y-76047637D01*
X122286624Y-76039021D01*
X122531916Y-75890736D01*
X122545366Y-75883678D01*
X122806721Y-75766052D01*
X122820922Y-75760665D01*
X123094573Y-75675392D01*
X123109313Y-75671759D01*
X123391236Y-75620095D01*
X123406313Y-75618264D01*
X123668890Y-75602381D01*
X123696199Y-75600730D01*
X123703806Y-75600500D01*
X123765892Y-75600500D01*
X198634108Y-75600500D01*
X198696194Y-75600500D01*
X198703801Y-75600730D01*
G37*
%TD.AperFunction*%
%TD*%
%TA.AperFunction,Conductor*%
%TO.N,+12V*%
G36*
X159215931Y-86620002D02*
G01*
X159236905Y-86636905D01*
X159663095Y-87063095D01*
X159697121Y-87125407D01*
X159700000Y-87152190D01*
X159700000Y-90047810D01*
X159679998Y-90115931D01*
X159663095Y-90136905D01*
X159236905Y-90563095D01*
X159174593Y-90597121D01*
X159147810Y-90600000D01*
X150699998Y-90600000D01*
X148236905Y-93063095D01*
X148174593Y-93097120D01*
X148147810Y-93100000D01*
X135027872Y-93100000D01*
X134959751Y-93079998D01*
X134915174Y-93030349D01*
X134713302Y-92626604D01*
X134700000Y-92570255D01*
X134700000Y-87152190D01*
X134720002Y-87084069D01*
X134736905Y-87063095D01*
X135163095Y-86636905D01*
X135225407Y-86602879D01*
X135252190Y-86600000D01*
X159147810Y-86600000D01*
X159215931Y-86620002D01*
G37*
%TD.AperFunction*%
%TD*%
M02*
